<svg xmlns="http://www.w3.org/2000/svg" xmlns:xlink="http://www.w3.org/1999/xlink" width="28" height="28" viewBox="0 0 28 28">
  <defs>
    <linearGradient id="linear-gradient" x1="0.15" y1="0.15" x2="0.915" y2="0.915" gradientUnits="objectBoundingBox">
      <stop offset="0" stop-color="#2aa4f4"/>
      <stop offset="1" stop-color="#007ad9"/>
    </linearGradient>
  </defs>
  <g id="icons8_facebook" transform="translate(-4 -4)">
    <path id="Tracé_6653" data-name="Tracé 6653" d="M18,4A14,14,0,1,0,32,18,14,14,0,0,0,18,4Z" fill="url(#linear-gradient)"/>
    <path id="Tracé_6654" data-name="Tracé 6654" d="M23.513,24.174h3.623l.569-3.681H23.513V18.482c0-1.529.5-2.885,1.93-2.885h2.3V12.386a19.532,19.532,0,0,0-2.871-.174c-3.37,0-5.345,1.779-5.345,5.834v2.449H16.06v3.681h3.464V34.291a14.161,14.161,0,0,0,2.094.172,14.085,14.085,0,0,0,1.895-.143Z" transform="translate(-3.618 -2.464)" fill="#fff"/>
  </g>
</svg>
