<svg id="icons8_key_2" xmlns="http://www.w3.org/2000/svg" xmlns:xlink="http://www.w3.org/1999/xlink" width="36" height="36" viewBox="0 0 36 36">
  <defs>
    <linearGradient id="linear-gradient" x1="0.848" y1="0.138" x2="0.087" y2="0.931" gradientUnits="objectBoundingBox">
      <stop offset="0" stop-color="#e5a505"/>
      <stop offset="0.01" stop-color="#e9a804"/>
      <stop offset="0.06" stop-color="#f4b102"/>
      <stop offset="0.129" stop-color="#fbb600"/>
      <stop offset="0.323" stop-color="#fdb700"/>
    </linearGradient>
    <linearGradient id="linear-gradient-2" x1="0.209" y1="0.077" x2="0.777" y2="0.902" gradientUnits="objectBoundingBox">
      <stop offset="0" stop-color="#fede00"/>
      <stop offset="1" stop-color="#ffd000"/>
    </linearGradient>
  </defs>
  <g id="Groupe_121" data-name="Groupe 121">
    <path id="Tracé_6728" data-name="Tracé 6728" d="M11.385,40.154a2.288,2.288,0,0,1,2.727-2.265l1.095-1.095A2.732,2.732,0,0,1,18.64,33.36l3.822-3.822L16.923,24,4.541,36.382A1.847,1.847,0,0,0,4,37.687v1.24a1.847,1.847,0,0,0,.541,1.305L6.228,41.92a1.844,1.844,0,0,0,1.305.542h1.24a1.847,1.847,0,0,0,1.305-.541l1.348-1.348A2.4,2.4,0,0,1,11.385,40.154Z" transform="translate(-4 -6.462)" fill="url(#linear-gradient)"/>
    <path id="Tracé_6729" data-name="Tracé 6729" d="M28.462,5A12.462,12.462,0,1,0,40.923,17.462,12.461,12.461,0,0,0,28.462,5Zm3.231,12.923a3.692,3.692,0,1,1,3.692-3.692A3.692,3.692,0,0,1,31.692,17.923Z" transform="translate(-4.923 -5)" fill="url(#linear-gradient-2)"/>
  </g>
</svg>
