<svg id="icons8-google" xmlns="http://www.w3.org/2000/svg" width="28" height="28" viewBox="0 0 28 28">
  <path id="Tracé_6720" data-name="Tracé 6720" d="M31.728,15.258H30.6V15.2H18v5.6h7.912a8.406,8.406,0,1,1-2.339-9.073l3.96-3.96A13.986,13.986,0,1,0,32,18,14.1,14.1,0,0,0,31.728,15.258Z" transform="translate(-4 -4)" fill="#ffc107"/>
  <path id="Tracé_6721" data-name="Tracé 6721" d="M6.306,11.484l4.6,3.373a8.383,8.383,0,0,1,13.359-3.13l3.96-3.96A13.973,13.973,0,0,0,6.306,11.484Z" transform="translate(-4.692 -4)" fill="#ff3d00"/>
  <path id="Tracé_6722" data-name="Tracé 6722" d="M18.658,39.216a13.934,13.934,0,0,0,9.386-3.634l-4.333-3.667A8.378,8.378,0,0,1,10.76,28.054L6.2,31.572A13.989,13.989,0,0,0,18.658,39.216Z" transform="translate(-4.658 -11.216)" fill="#4caf50"/>
  <path id="Tracé_6723" data-name="Tracé 6723" d="M37.728,20.058H36.6V20H24v5.6h7.912a8.428,8.428,0,0,1-2.861,3.9h0l4.333,3.667A13.543,13.543,0,0,0,38,22.8,14.1,14.1,0,0,0,37.728,20.058Z" transform="translate(-10 -8.8)" fill="#1976d2"/>
</svg>
