<svg xmlns="http://www.w3.org/2000/svg" width="50" height="50" viewBox="0 0 50 50">
  <path id="icons8-instagram-circle" d="M27,2A25,25,0,1,0,52,27,25.029,25.029,0,0,0,27,2ZM20.588,9.692H33.408a10.911,10.911,0,0,1,10.9,10.9V33.408a10.911,10.911,0,0,1-10.9,10.9H20.592a10.911,10.911,0,0,1-10.9-10.9V20.592A10.911,10.911,0,0,1,20.588,9.692Zm0,3.846a7.061,7.061,0,0,0-7.05,7.054V33.412a7.061,7.061,0,0,0,7.054,7.05H33.412a7.061,7.061,0,0,0,7.05-7.054V20.588a7.061,7.061,0,0,0-7.054-7.05Zm15.388,3.2a1.283,1.283,0,1,1-1.285,1.281A1.28,1.28,0,0,1,35.977,16.742ZM27,17.385A9.615,9.615,0,1,1,17.385,27,9.626,9.626,0,0,1,27,17.385Zm0,3.846A5.769,5.769,0,1,0,32.769,27,5.769,5.769,0,0,0,27,21.231Z" transform="translate(-2 -2)" fill="#fff"/>
</svg>
