<svg xmlns="http://www.w3.org/2000/svg" width="50" height="50" viewBox="0 0 50 50">
  <path id="icons8-linkedin-entouré" d="M28,3A25,25,0,1,0,53,28,25,25,0,0,0,28,3ZM18.617,14.256a2.716,2.716,0,0,1,2.923,2.727c0,1.558-1.169,2.727-3.117,2.727A2.714,2.714,0,0,1,15.5,16.983C15.5,15.425,16.669,14.256,18.617,14.256Zm3.133,24.16H15.5V21.75h6.25Zm20.833,0H36.7V29.308c0-2.519-1.569-3.1-2.156-3.1s-2.55.388-2.55,3.1v9.108H25.917V21.75H32v2.325c.783-1.356,2.352-2.325,5.294-2.325s5.294,2.325,5.294,7.558Z" transform="translate(-3 -3)" fill="#fff"/>
</svg>
