<svg id="icons8_email_open" xmlns="http://www.w3.org/2000/svg" xmlns:xlink="http://www.w3.org/1999/xlink" width="36" height="36" viewBox="0 0 36 36">
  <defs>
    <linearGradient id="linear-gradient" x1="0.366" y1="20.284" x2="0.53" y2="19.459" gradientUnits="objectBoundingBox">
      <stop offset="0" stop-color="#0078d3"/>
      <stop offset="1" stop-color="#0858a1"/>
    </linearGradient>
    <linearGradient id="linear-gradient-2" x1="0.5" y1="26.294" x2="0.5" y2="25.567" gradientUnits="objectBoundingBox">
      <stop offset="0" stop-color="#fff"/>
      <stop offset="0.24" stop-color="#f8f8f7"/>
      <stop offset="1" stop-color="#e3e3e1"/>
    </linearGradient>
    <linearGradient id="linear-gradient-3" x1="0.488" y1="20.916" x2="0.85" y2="20.162" gradientUnits="objectBoundingBox">
      <stop offset="0" stop-color="#3ccbf4"/>
      <stop offset="1" stop-color="#1fa0e5"/>
    </linearGradient>
    <linearGradient id="linear-gradient-4" x1="-0.051" y1="20.946" x2="0.93" y2="20.168" gradientUnits="objectBoundingBox">
      <stop offset="0" stop-color="#28afea"/>
      <stop offset="1" stop-color="#0b88da"/>
    </linearGradient>
  </defs>
  <path id="Tracé_6724" data-name="Tracé 6724" d="M41,29.452H5v-12.9a2.029,2.029,0,0,1,.883-1.691l15.6-10.4a2.717,2.717,0,0,1,3.035,0l15.6,10.4A2.03,2.03,0,0,1,41,16.554Z" transform="translate(-5 -4)" fill="url(#linear-gradient)"/>
  <path id="Tracé_6725" data-name="Tracé 6725" d="M36,32H10V14a.967.967,0,0,1,.929-1H35.071A.967.967,0,0,1,36,14Z" transform="translate(-5 -4)" fill="url(#linear-gradient-2)"/>
  <path id="Tracé_6726" data-name="Tracé 6726" d="M41,17V38.256A1.707,1.707,0,0,1,39.332,40H9.56l4.516-6.327Z" transform="translate(-5 -4)" fill="url(#linear-gradient-3)"/>
  <path id="Tracé_6727" data-name="Tracé 6727" d="M5,17V38.256A1.713,1.713,0,0,0,6.68,40H39.3a1.648,1.648,0,0,0,1.3-.658Z" transform="translate(-5 -4)" fill="url(#linear-gradient-4)"/>
</svg>
