<svg xmlns="http://www.w3.org/2000/svg" width="50" height="50" viewBox="0 0 50 50">
  <path id="icons8-whatsapp" d="M28,3A24.959,24.959,0,0,0,6.564,40.813L3.224,53l12.447-3.267A24.994,24.994,0,1,0,28,3ZM19.443,16.338c.406,0,.824,0,1.184.016.446.01.931.043,1.4,1.07.552,1.221,1.754,4.283,1.908,4.594A1.117,1.117,0,0,1,23.98,23.1a4.54,4.54,0,0,1-.61,1.038c-.31.358-.65.8-.932,1.074-.31.31-.631.651-.273,1.27a18.523,18.523,0,0,0,3.442,4.285,16.81,16.81,0,0,0,4.98,3.072c.621.31.98.262,1.339-.155s1.549-1.8,1.965-2.421.821-.513,1.384-.309,3.615,1.7,4.236,2.014,1.028.464,1.184.716a5.113,5.113,0,0,1-.354,2.946c-.515,1.444-3.041,2.84-4.175,2.938s-2.211.514-7.434-1.542c-6.3-2.481-10.273-8.934-10.584-9.351s-2.523-3.355-2.523-6.4a6.972,6.972,0,0,1,2.161-5.168A2.276,2.276,0,0,1,19.443,16.338Z" transform="translate(-3 -3)" fill="#fff"/>
</svg>
