<svg xmlns="http://www.w3.org/2000/svg" xmlns:xlink="http://www.w3.org/1999/xlink" width="36" height="28" viewBox="0 0 36 28">
  <defs>
    <linearGradient id="linear-gradient" x1="0.287" y1="0.176" x2="0.503" y2="0.504" gradientUnits="objectBoundingBox">
      <stop offset="0" stop-color="#e3e3e3"/>
      <stop offset="1" stop-color="#e2e2e2"/>
    </linearGradient>
    <linearGradient id="linear-gradient-2" x1="0.499" y1="0.498" x2="0.761" y2="0.919" gradientUnits="objectBoundingBox">
      <stop offset="0" stop-color="#f5f5f5"/>
      <stop offset="0.03" stop-color="#eee"/>
      <stop offset="1" stop-color="#eee"/>
    </linearGradient>
    <linearGradient id="linear-gradient-3" y1="0.5" x2="1" y2="0.5" gradientUnits="objectBoundingBox">
      <stop offset="0" stop-color="#d74a39"/>
      <stop offset="1" stop-color="#c73d28"/>
    </linearGradient>
    <linearGradient id="linear-gradient-4" x1="0.5" x2="0.5" y2="0.943" gradientUnits="objectBoundingBox">
      <stop offset="0" stop-opacity="0.149"/>
      <stop offset="1" stop-opacity="0.031"/>
    </linearGradient>
    <linearGradient id="linear-gradient-5" y1="0.5" x2="1" y2="0.5" gradientUnits="objectBoundingBox">
      <stop offset="0" stop-color="#f5f5f5"/>
      <stop offset="1" stop-color="#f5f5f5"/>
    </linearGradient>
    <linearGradient id="linear-gradient-6" x1="0.5" y1="0.023" x2="0.5" y2="1.018" gradientUnits="objectBoundingBox">
      <stop offset="0" stop-color="#e05141"/>
      <stop offset="1" stop-color="#de4735"/>
    </linearGradient>
  </defs>
  <g id="icons8_gmail" transform="translate(-3 -8)">
    <path id="Tracé_6695" data-name="Tracé 6695" d="M36.844,36H5.156A2.179,2.179,0,0,1,3,33.8V10.2A2.179,2.179,0,0,1,5.156,8H36.843A2.179,2.179,0,0,1,39,10.2V33.8A2.179,2.179,0,0,1,36.844,36Z" fill="url(#linear-gradient)"/>
    <path id="Tracé_6696" data-name="Tracé 6696" d="M37.475,36.375H8L39.625,11V34.174A2.176,2.176,0,0,1,37.475,36.375Z" transform="translate(-0.625 -0.375)" fill="url(#linear-gradient-2)"/>
    <path id="Tracé_6697" data-name="Tracé 6697" d="M5.156,8h2.13V36H5.156A2.179,2.179,0,0,1,3,33.8V10.2A2.179,2.179,0,0,1,5.156,8ZM36.844,8h-2.13V36h2.13A2.179,2.179,0,0,0,39,33.8V10.2A2.179,2.179,0,0,0,36.844,8Z" fill="url(#linear-gradient-3)"/>
    <path id="Tracé_6698" data-name="Tracé 6698" d="M36.844,36H26.584L3,11.049V10.2A2.179,2.179,0,0,1,5.156,8H36.843A2.179,2.179,0,0,1,39,10.2V33.8A2.179,2.179,0,0,1,36.844,36Z" fill="url(#linear-gradient-4)"/>
    <path id="Tracé_6699" data-name="Tracé 6699" d="M37.99,12.463,21,25.027,4.01,12.463A2.51,2.51,0,0,1,3,10.444V10.2A2.179,2.179,0,0,1,5.156,8H36.843A2.179,2.179,0,0,1,39,10.2v.243A2.51,2.51,0,0,1,37.99,12.463Z" fill="url(#linear-gradient-5)"/>
    <path id="Tracé_6700" data-name="Tracé 6700" d="M36.844,8h-.257L21,19.526,5.413,8H5.156A2.179,2.179,0,0,0,3,10.2v.243a2.51,2.51,0,0,0,1.01,2.019L21,25.027,37.99,12.463A2.51,2.51,0,0,0,39,10.444V10.2A2.179,2.179,0,0,0,36.844,8Z" fill="url(#linear-gradient-6)"/>
  </g>
</svg>
