<svg id="Top_BG-2" data-name="Top BG" xmlns="http://www.w3.org/2000/svg" xmlns:xlink="http://www.w3.org/1999/xlink" width="428" height="314" viewBox="0 0 428 314">
  <defs>
    <linearGradient id="linear-gradient" x1="0.274" y1="0.073" x2="0.5" y2="1.176" gradientUnits="objectBoundingBox">
      <stop offset="0" stop-color="#e2eeff"/>
      <stop offset="1" stop-color="#5493ff"/>
    </linearGradient>
    <clipPath id="clip-path">
      <path id="Top_BG" data-name="Top BG" d="M0,0H428V314s-107-17-214-17S0,314,0,314Z" fill="url(#linear-gradient)"/>
    </clipPath>
  </defs>
  <path id="Top_BG-3" data-name="Top BG" d="M0,0H428V314s-107-17-214-17S0,314,0,314Z" fill="url(#linear-gradient)"/>
  <g id="Houses" clip-path="url(#clip-path)">
    <g id="House_Motif" data-name="House Motif" transform="translate(174 16)" opacity="0.2">
      <g id="Groupe_2" data-name="Groupe 2" transform="translate(-11 21)">
        <g id="House_Icons" data-name="House Icons" transform="translate(-364.087 -72)">
          <path id="icons8_dog_house" d="M12,2.1,1,12.052H4V21.1H20V12.052h3Zm2,16.989H10V16.074a2,2,0,1,1,4,0Zm4,0H16V16.074a4,4,0,1,0-8,0v3.016H6V10.234l6-5.429,6,5.429Z" transform="matrix(0.914, -0.407, 0.407, 0.914, 199.318, 67.846)" fill="#5493ff"/>
          <path id="icons8_home_page" d="M12,2.1,1,12.052H4V21.1h6V15.068h4V21.1h6V12.052h3L19,8.434V4.01H17V6.623Zm0,2.706,6,5.429v8.855H16V13.057H8v6.032H6V10.234Z" transform="translate(250.731 58.343) rotate(8)" fill="#5493ff"/>
          <path id="icons8_school_house" d="M11.621,1.883,5.041,5.206l.848,1.786.9-.456v4.253l-3.054,1.9a.96.96,0,0,0-.607.377L1.109,14.316l.995,1.7.829-.514v5.377h7.716V17.9h1.929v2.982h7.716V15.391l.836.509.98-1.712-5.674-3.451V6.643l.887.466.878-1.77ZM11.606,4.1l2.9,1.524V9.562L11.607,7.8,8.72,9.591V5.561Zm.013,6.01,2.888,1.757v.068h.111l3.747,2.279V18.9H14.507V15.913H8.72V18.9H4.862V14.308l3.818-2.37h.04v-.025Z" transform="matrix(0.719, -0.695, 0.695, 0.719, 205.242, 138.376)" fill="#5493ff"/>
          <path id="icons8_hut_1" d="M12.5,3a2.774,2.774,0,0,0-1.417.443,11.976,11.976,0,0,0-1.444.944A32.684,32.684,0,0,0,6.364,7.243a30.7,30.7,0,0,0-2.929,3.282A5.038,5.038,0,0,0,2,13.556a1.053,1.053,0,0,0,1.05,1.056h2.1v6.333A1.053,1.053,0,0,0,6.2,22H18.8a1.053,1.053,0,0,0,1.05-1.055V14.611h2.1A1.053,1.053,0,0,0,23,13.556a5.037,5.037,0,0,0-1.436-3.031,30.727,30.727,0,0,0-2.931-3.282,32.7,32.7,0,0,0-3.273-2.855,11.945,11.945,0,0,0-1.444-.942A2.775,2.775,0,0,0,12.5,3Zm0,2.128a2.558,2.558,0,0,1,.429.179,10.23,10.23,0,0,1,1.183.777A30.964,30.964,0,0,1,17.166,8.75,29.014,29.014,0,0,1,19.889,11.8a3.142,3.142,0,0,1,.4.7H4.707a3.139,3.139,0,0,1,.4-.7A29.021,29.021,0,0,1,7.834,8.75a30.95,30.95,0,0,1,3.054-2.666,10.22,10.22,0,0,1,1.183-.777A2.564,2.564,0,0,1,12.5,5.128ZM7.25,14.611h10.5v5.278H14.6V17.778a2.1,2.1,0,1,0-4.2,0v2.111H7.25Z" transform="translate(279.508 107.132) rotate(-13)" fill="#5493ff"/>
        </g>
        <g id="House_Icons-2" data-name="House Icons" transform="translate(-201.087 -72)">
          <path id="icons8_dog_house-2" data-name="icons8_dog_house" d="M12,2.1,1,12.052H4V21.1H20V12.052h3Zm2,16.989H10V16.074a2,2,0,1,1,4,0Zm4,0H16V16.074a4,4,0,1,0-8,0v3.016H6V10.234l6-5.429,6,5.429Z" transform="translate(165.661 69.256) rotate(16)" fill="#5493ff"/>
          <path id="icons8_home_page-2" data-name="icons8_home_page" d="M12,2.1,1,12.052H4V21.1h6V15.068h4V21.1h6V12.052h3L19,8.434V4.01H17V6.623Zm0,2.706,6,5.429v8.855H16V13.057H8v6.032H6V10.234Z" transform="matrix(0.999, 0.035, -0.035, 0.999, 182.435, 111.489)" fill="#5493ff"/>
          <path id="icons8_school_house-2" data-name="icons8_school_house" d="M11.621,1.883,5.041,5.206l.848,1.786.9-.456v4.253l-3.054,1.9a.96.96,0,0,0-.607.377L1.109,14.316l.995,1.7.829-.514v5.377h7.716V17.9h1.929v2.982h7.716V15.391l.836.509.98-1.712-5.674-3.451V6.643l.887.466.878-1.77ZM11.606,4.1l2.9,1.524V9.562L11.607,7.8,8.72,9.591V5.561Zm.013,6.01,2.888,1.757v.068h.111l3.747,2.279V18.9H14.507V15.913H8.72V18.9H4.862V14.308l3.818-2.37h.04v-.025Z" transform="translate(263.69 68.426) rotate(-9)" fill="#5493ff"/>
          <path id="icons8_hut_1-2" data-name="icons8_hut_1" d="M12.5,3a2.774,2.774,0,0,0-1.417.443,11.976,11.976,0,0,0-1.444.944A32.684,32.684,0,0,0,6.364,7.243a30.7,30.7,0,0,0-2.929,3.282A5.038,5.038,0,0,0,2,13.556a1.053,1.053,0,0,0,1.05,1.056h2.1v6.333A1.053,1.053,0,0,0,6.2,22H18.8a1.053,1.053,0,0,0,1.05-1.055V14.611h2.1A1.053,1.053,0,0,0,23,13.556a5.037,5.037,0,0,0-1.436-3.031,30.727,30.727,0,0,0-2.931-3.282,32.7,32.7,0,0,0-3.273-2.855,11.945,11.945,0,0,0-1.444-.942A2.775,2.775,0,0,0,12.5,3Zm0,2.128a2.558,2.558,0,0,1,.429.179,10.23,10.23,0,0,1,1.183.777A30.964,30.964,0,0,1,17.166,8.75,29.014,29.014,0,0,1,19.889,11.8a3.142,3.142,0,0,1,.4.7H4.707a3.139,3.139,0,0,1,.4-.7A29.021,29.021,0,0,1,7.834,8.75a30.95,30.95,0,0,1,3.054-2.666,10.22,10.22,0,0,1,1.183-.777A2.564,2.564,0,0,1,12.5,5.128ZM7.25,14.611h10.5v5.278H14.6V17.778a2.1,2.1,0,1,0-4.2,0v2.111H7.25Z" transform="matrix(0.995, 0.105, -0.105, 0.995, 233.594, 78.762)" fill="#5493ff"/>
        </g>
        <path id="icons8_residence" d="M6.594,3A2.007,2.007,0,0,0,4.838,4.041L1.035,11H3v8a2.015,2.015,0,0,0,2,2H19a2.015,2.015,0,0,0,2-2V11h2.039L19.16,4.027h0A2.005,2.005,0,0,0,17.412,3Zm0,2H17.412V5l2.227,4h-3.4L12,6.883,7.764,9H4.406ZM12,9.117l3,1.5V19H13V16a1,1,0,0,0-2,0v3H9V10.617ZM5,11H7v8H5Zm7,0a1,1,0,1,0,1,1A1,1,0,0,0,12,11Zm5,0h2v8H17Z" transform="translate(96.973 33.597) rotate(13)" fill="#5493ff"/>
        <path id="icons8_roofing" d="M16,7v3.678l-4-3.66L0,18H2.963L12,9.729,21.037,18H24l-2-1.83V7Zm2,2h2v5.34l-2-1.832Z" transform="translate(69.362 68.645) rotate(-3)" fill="#5493ff"/>
        <path id="icons8_warehouse" d="M12,2.906,4.188,6.379A2.005,2.005,0,0,0,3,8.205V21H7.832a1,1,0,0,0,.326,0h7.674a1,1,0,0,0,.326,0H21V8.205a2.005,2.005,0,0,0-1.187-1.826l0,0Zm0,2.188,7,3.111V19H17V10H7v9H5V8.205ZM9,12h6v7H13V18H11v1H9Z" transform="matrix(0.839, -0.545, 0.545, 0.839, 65.422, 120.559)" fill="#5493ff"/>
        <g id="House_Icons-3" data-name="House Icons" transform="translate(-57.087 -58.522)">
          <path id="icons8_dog_house-3" data-name="icons8_dog_house" d="M12,2.1,1,12.052H4V21.1H20V12.052h3Zm2,16.989H10V16.074a2,2,0,1,1,4,0Zm4,0H16V16.074a4,4,0,1,0-8,0v3.016H6V10.234l6-5.429,6,5.429Z" transform="matrix(0.914, -0.407, 0.407, 0.914, 209.318, 73.846)" fill="#5493ff"/>
          <path id="icons8_home_page-3" data-name="icons8_home_page" d="M12,2.1,1,12.052H4V21.1h6V15.068h4V21.1h6V12.052h3L19,8.434V4.01H17V6.623Zm0,2.706,6,5.429v8.855H16V13.057H8v6.032H6V10.234Z" transform="translate(206.427 121.343) rotate(8)" fill="#5493ff"/>
          <path id="icons8_hut_1-3" data-name="icons8_hut_1" d="M12.5,3a2.774,2.774,0,0,0-1.417.443,11.976,11.976,0,0,0-1.444.944A32.684,32.684,0,0,0,6.364,7.243a30.7,30.7,0,0,0-2.929,3.282A5.038,5.038,0,0,0,2,13.556a1.053,1.053,0,0,0,1.05,1.056h2.1v6.333A1.053,1.053,0,0,0,6.2,22H18.8a1.053,1.053,0,0,0,1.05-1.055V14.611h2.1A1.053,1.053,0,0,0,23,13.556a5.037,5.037,0,0,0-1.436-3.031,30.727,30.727,0,0,0-2.931-3.282,32.7,32.7,0,0,0-3.273-2.855,11.945,11.945,0,0,0-1.444-.942A2.775,2.775,0,0,0,12.5,3Zm0,2.128a2.558,2.558,0,0,1,.429.179,10.23,10.23,0,0,1,1.183.777A30.964,30.964,0,0,1,17.166,8.75,29.014,29.014,0,0,1,19.889,11.8a3.142,3.142,0,0,1,.4.7H4.707a3.139,3.139,0,0,1,.4-.7A29.021,29.021,0,0,1,7.834,8.75a30.95,30.95,0,0,1,3.054-2.666,10.22,10.22,0,0,1,1.183-.777A2.564,2.564,0,0,1,12.5,5.128ZM7.25,14.611h10.5v5.278H14.6V17.778a2.1,2.1,0,1,0-4.2,0v2.111H7.25Z" transform="translate(287.31 100.351) rotate(21)" fill="#5493ff"/>
        </g>
      </g>
      <g id="Groupe_3" data-name="Groupe 3" transform="translate(-161.679 125.348) rotate(8)">
        <g id="House_Icons-4" data-name="House Icons" transform="translate(307.839 0)">
          <path id="icons8_dog_house-4" data-name="icons8_dog_house" d="M11,19,0,9.048H3V0H19V9.048h3ZM13,2.011H9V5.026a2,2,0,1,0,4,0Zm4,0H15V5.026a4,4,0,1,1-8,0V2.011H5v8.856l6,5.429,6-5.429Z" transform="matrix(-0.914, -0.407, 0.407, -0.914, 98.053, 26.305)" fill="#5493ff"/>
          <path id="icons8_home_page-4" data-name="icons8_home_page" d="M11,19,0,9.047H3V0H9V6.032h4V0h6V9.047h3l-4,3.619V17.09H16V14.476Zm0-2.706,6-5.429V2.011H15V8.042H7V2.011H5v8.855Z" transform="translate(58.083 18.967) rotate(172)" fill="#5493ff"/>
          <path id="icons8_school_house-3" data-name="icons8_school_house" d="M10.511,19l-6.58-3.323.848-1.786.9.456V10.094L2.628,8.2a.96.96,0,0,1-.607-.377L0,6.567l.995-1.7.829.514V0H9.539V2.982h1.929V0h7.716V5.492l.836-.509L21,6.7l-5.674,3.451V14.24l.887-.466.878,1.77ZM10.5,16.779l2.9-1.524V11.321l-2.9,1.763L7.61,11.292v4.03Zm.013-6.01L13.4,9.013V8.945h.111l3.747-2.279V1.988H13.4V4.969H7.61V1.988H3.752V6.575l3.818,2.37h.04V8.97Z" transform="matrix(-0.719, -0.695, 0.695, -0.719, 86.322, 92.218)" fill="#5493ff"/>
          <path id="icons8_hut_1-4" data-name="icons8_hut_1" d="M10.5,19a2.774,2.774,0,0,1-1.417-.443,11.976,11.976,0,0,1-1.444-.944,32.684,32.684,0,0,1-3.275-2.855,30.7,30.7,0,0,1-2.929-3.282A5.038,5.038,0,0,1,0,8.444,1.053,1.053,0,0,1,1.05,7.389h2.1V1.056A1.053,1.053,0,0,1,4.2,0H16.8a1.053,1.053,0,0,1,1.05,1.055V7.389h2.1A1.053,1.053,0,0,1,21,8.444a5.037,5.037,0,0,1-1.436,3.031,30.727,30.727,0,0,1-2.931,3.282,32.7,32.7,0,0,1-3.273,2.855,11.945,11.945,0,0,1-1.444.942A2.775,2.775,0,0,1,10.5,19Zm0-2.128a2.558,2.558,0,0,0,.429-.179,10.23,10.23,0,0,0,1.183-.777,30.964,30.964,0,0,0,3.054-2.666A29.014,29.014,0,0,0,17.889,10.2a3.142,3.142,0,0,0,.4-.7H2.707a3.139,3.139,0,0,0,.4.7A29.021,29.021,0,0,0,5.834,13.25a30.95,30.95,0,0,0,3.054,2.666,10.22,10.22,0,0,0,1.183.777A2.564,2.564,0,0,0,10.5,16.872ZM5.25,7.389h10.5V2.111H12.6V4.222a2.1,2.1,0,1,1-4.2,0V2.111H5.25Z" transform="translate(20.462 67.709) rotate(-167)" fill="#5493ff"/>
        </g>
        <g id="House_Icons-5" data-name="House Icons" transform="translate(162.913 6.417)">
          <path id="icons8_dog_house-5" data-name="icons8_dog_house" d="M11,19,0,9.048H3V0H19V9.048h3ZM13,2.011H9V5.026a2,2,0,1,0,4,0Zm4,0H15V5.026a4,4,0,1,1-8,0V2.011H5v8.856l6,5.429,6-5.429Z" transform="translate(127.986 22.988) rotate(164)" fill="#5493ff"/>
          <path id="icons8_home_page-5" data-name="icons8_home_page" d="M11,19,0,9.047H3V0H9V6.032h4V0h6V9.047h3l-4,3.619V17.09H16V14.476Zm0-2.706,6-5.429V2.011H15V8.042H7V2.011H5v8.855Z" transform="matrix(-0.999, 0.035, -0.035, -0.999, 106.096, 65.784)" fill="#5493ff"/>
          <path id="icons8_school_house-4" data-name="icons8_school_house" d="M10.511,19l-6.58-3.323.848-1.786.9.456V10.094L2.628,8.2a.96.96,0,0,1-.607-.377L0,6.567l.995-1.7.829.514V0H9.539V2.982h1.929V0h7.716V5.492l.836-.509L21,6.7l-5.674,3.451V14.24l.887-.466.878,1.77ZM10.5,16.779l2.9-1.524V11.321l-2.9,1.763L7.61,11.292v4.03Zm.013-6.01L13.4,9.013V8.945h.111l3.747-2.279V1.988H13.4V4.969H7.61V1.988H3.752V6.575l3.818,2.37h.04V8.97Z" transform="translate(20.741 22.051) rotate(-171)" fill="#5493ff"/>
          <path id="icons8_hut_1-5" data-name="icons8_hut_1" d="M10.5,19a2.774,2.774,0,0,1-1.417-.443,11.976,11.976,0,0,1-1.444-.944,32.685,32.685,0,0,1-3.275-2.855,30.7,30.7,0,0,1-2.929-3.282A5.038,5.038,0,0,1,0,8.444,1.053,1.053,0,0,1,1.05,7.389h2.1V1.056A1.053,1.053,0,0,1,4.2,0H16.8a1.053,1.053,0,0,1,1.05,1.055V7.389h2.1A1.053,1.053,0,0,1,21,8.444a5.037,5.037,0,0,1-1.436,3.031,30.727,30.727,0,0,1-2.931,3.282,32.7,32.7,0,0,1-3.273,2.855,11.945,11.945,0,0,1-1.444.942A2.775,2.775,0,0,1,10.5,19Zm0-2.128a2.558,2.558,0,0,0,.429-.179,10.23,10.23,0,0,0,1.183-.777,30.964,30.964,0,0,0,3.054-2.666A29.014,29.014,0,0,0,17.889,10.2a3.142,3.142,0,0,0,.4-.7H2.707a3.139,3.139,0,0,0,.4.7A29.021,29.021,0,0,0,5.834,13.25a30.95,30.95,0,0,0,3.054,2.666,10.22,10.22,0,0,0,1.183.777A2.564,2.564,0,0,0,10.5,16.872ZM5.25,7.389h10.5V2.111H12.6V4.222a2.1,2.1,0,1,1-4.2,0V2.111H5.25Z" transform="matrix(-0.995, 0.105, -0.105, -0.995, 55.51, 34.024)" fill="#5493ff"/>
        </g>
        <path id="icons8_residence-2" data-name="icons8_residence" d="M5.559,18A2.007,2.007,0,0,1,3.8,16.959L0,10H1.965V2a2.015,2.015,0,0,1,2-2h14a2.015,2.015,0,0,1,2,2v8H22l-3.879,6.973h0A2.005,2.005,0,0,1,16.377,18Zm0-2H16.377v0L18.6,12H15.2l-4.236,2.117L6.729,12H3.371Zm5.406-4.117,3-1.5V2h-2V5a1,1,0,1,1-2,0V2h-2v8.383ZM3.965,10h2V2h-2Zm7,0a1,1,0,1,1,1-1A1,1,0,0,1,10.965,10Zm5,0h2V2h-2Z" transform="translate(157.363 65.882) rotate(167)" fill="#5493ff"/>
        <path id="icons8_roofing-2" data-name="icons8_roofing" d="M16,11V7.322l-4,3.66L0,0H2.963L12,8.271,21.037,0H24L22,1.83V11Zm2-2h2V3.66L18,5.492Z" transform="translate(180.316 98.211) rotate(-177)" fill="#5493ff"/>
        <path id="icons8_warehouse-2" data-name="icons8_warehouse" d="M9,18.107,1.188,14.634A2.005,2.005,0,0,1,0,12.808V.013H4.832a1,1,0,0,1,.326,0h7.674a1,1,0,0,1,.326,0H18V12.808a2.005,2.005,0,0,1-1.187,1.826l0,0ZM9,15.92l7-3.111V2.013H14v9H4v-9H2V12.808ZM6,9.013h6v-7H10v1H8v-1H6Z" transform="matrix(-0.839, -0.545, 0.545, -0.839, 171.237, 148.139)" fill="#5493ff"/>
        <g id="House_Icons-6" data-name="House Icons" transform="translate(0 19.478)">
          <path id="icons8_dog_house-6" data-name="icons8_dog_house" d="M11,19,0,9.048H3V0H19V9.048h3ZM13,2.011H9V5.026a2,2,0,1,0,4,0Zm4,0H15V5.026a4,4,0,1,1-8,0V2.011H5v8.856l6,5.429,6-5.429Z" transform="matrix(-0.914, -0.407, 0.407, -0.914, 88.892, 26.305)" fill="#5493ff"/>
          <path id="icons8_home_page-6" data-name="icons8_home_page" d="M11,19,0,9.047H3V0H9V6.032h4V0h6V9.047h3l-4,3.619V17.09H16V14.476Zm0-2.706,6-5.429V2.011H15V8.042H7V2.011H5v8.855Z" transform="translate(103.226 75.967) rotate(172)" fill="#5493ff"/>
          <path id="icons8_hut_1-6" data-name="icons8_hut_1" d="M10.5,19a2.774,2.774,0,0,1-1.417-.443,11.976,11.976,0,0,1-1.444-.944,32.685,32.685,0,0,1-3.275-2.855,30.7,30.7,0,0,1-2.929-3.282A5.038,5.038,0,0,1,0,8.444,1.053,1.053,0,0,1,1.05,7.389h2.1V1.056A1.053,1.053,0,0,1,4.2,0H16.8a1.053,1.053,0,0,1,1.05,1.055V7.389h2.1A1.053,1.053,0,0,1,21,8.444a5.037,5.037,0,0,1-1.436,3.031,30.727,30.727,0,0,1-2.931,3.282,32.7,32.7,0,0,1-3.273,2.855,11.945,11.945,0,0,1-1.444.942A2.775,2.775,0,0,1,10.5,19Zm0-2.128a2.558,2.558,0,0,0,.429-.179,10.231,10.231,0,0,0,1.183-.777,30.964,30.964,0,0,0,3.054-2.666A29.014,29.014,0,0,0,17.889,10.2a3.142,3.142,0,0,0,.4-.7H2.707a3.139,3.139,0,0,0,.4.7A29.021,29.021,0,0,0,5.834,13.25a30.95,30.95,0,0,0,3.054,2.666,10.22,10.22,0,0,0,1.183.777A2.564,2.564,0,0,0,10.5,16.872ZM5.25,7.389h10.5V2.111H12.6V4.222a2.1,2.1,0,1,1-4.2,0V2.111H5.25Z" transform="translate(26.414 55.197) rotate(159)" fill="#5493ff"/>
        </g>
      </g>
    </g>
  </g>
</svg>
