<svg xmlns="http://www.w3.org/2000/svg" width="362.553" height="384.75" viewBox="0 0 362.553 384.75">
  <g id="Product" opacity="0.45">
    <path id="Tracé_4584" data-name="Tracé 4584" d="M635.25,1371.762V1317.95l26.874-38.151,53.294,9.981s46.417,10.173,46.609,52.926c0,16.685-6.525,36.929-17.128,53.514l11.634,224.288A27.672,27.672,0,0,1,728.8,1648.12H668.458a27.654,27.654,0,0,1-27.733-27.611l11.583-224.288C641.164,1394.321,635.25,1382.248,635.25,1371.762Z" transform="translate(-611.683 -1263.372)" fill="#7cacff"/>
    <path id="Tracé_4585" data-name="Tracé 4585" d="M639,1345.748c7.207-78.391,111.537-6.846,93.656,22.177l9.29,224.237a22.064,22.064,0,0,1-22.132,22.02h-48.08a22.05,22.05,0,0,1-22.115-22.02l9.29-224.237C648.08,1368.57,639,1359.06,639,1345.748Z" transform="translate(-608.872 -1240.808)" fill="#99beff"/>
    <path id="Tracé_4587" data-name="Tracé 4587" d="M672.039,1292.655c-1.539,2.351,16.307,3.065,30.794,12.438s20.1,23.8,21.625,21.445-3.131-17.737-17.619-27.108S673.492,1290.3,672.039,1292.655Z" transform="translate(-584.175 -1254.852)" fill="#deeaff" opacity="0.3"/>
    <path id="Tracé_4588" data-name="Tracé 4588" d="M661.443,1314.541c-3.2,2.037,19.1,13.936,32.648,34.84s13.175,42.68,16.341,40.643,5.249-24.511-8.276-45.294S664.591,1312.485,661.443,1314.541Z" transform="translate(-592.28 -1237.769)" fill="#deeaff" opacity="0.3"/>
    <path id="Tracé_4590" data-name="Tracé 4590" d="M648.7,1518.885h79.695l-5.6-138.5H654.317Z" transform="translate(-601.602 -1188.73)" fill="#213962"/>
    <path id="Tracé_4593" data-name="Tracé 4593" d="M638.979,1310.313a12.82,12.82,0,0,0,17.985-2.231l5.565-7.072a12.75,12.75,0,0,0-2.24-17.926l-12.248-9.477a12.826,12.826,0,0,0-18,2.213l-5.547,7.072a12.752,12.752,0,0,0,2.24,17.945Z" transform="translate(-621.781 -1269.985)" fill="#2d4a6a"/>
    <path id="Tracé_4594" data-name="Tracé 4594" d="M650.193,1276.1l4.024,3.119a12.75,12.75,0,0,1,2.239,17.927l-5.564,7.073a12.824,12.824,0,0,1-17.986,2.229l-3.025-2.333Z" transform="translate(-615.71 -1266.117)" fill="#182f46"/>
    <path id="Tracé_4595" data-name="Tracé 4595" d="M639.344,1317.712a3.39,3.39,0,0,0,4.758-.594l22.99-29.389a3.37,3.37,0,0,0-.577-4.738l-8.959-6.968a3.405,3.405,0,0,0-4.758.591l-22.92,29.511a3.472,3.472,0,0,0,.6,4.737Z" transform="translate(-616.215 -1266.703)" fill="#2d4a6a"/>
    <path id="Tracé_4596" data-name="Tracé 4596" d="M629.492,1306.733l11,8.523a2.985,2.985,0,0,0,4.2-.508l20.313-25.974a2.971,2.971,0,0,0-.524-4.182l-11-8.534a3.368,3.368,0,0,1,4.164,0l8.958,6.967a3.368,3.368,0,0,1,.577,4.738l-22.99,29.39a3.386,3.386,0,0,1-4.758.59l-8.94-6.965A3.338,3.338,0,0,1,629.492,1306.733Z" transform="translate(-616.23 -1266.684)" fill="#182f46"/>
    <path id="Tracé_4597" data-name="Tracé 4597" d="M642.156,1279.058a.966.966,0,0,1,1.4-.172L655,1287.753l-1.259,1.566-11.425-8.849a.991.991,0,0,1-.157-1.412Z" transform="translate(-606.675 -1264.217)" fill="#182f46"/>
    <path id="Tracé_4598" data-name="Tracé 4598" d="M640.209,1281.537a1.052,1.052,0,0,1,1.435-.193l11.425,8.868-1.242,1.6-11.442-8.884A.991.991,0,0,1,640.209,1281.537Z" transform="translate(-608.122 -1262.374)" fill="#182f46"/>
    <path id="Tracé_4599" data-name="Tracé 4599" d="M638.281,1284.019a1,1,0,0,1,1.417-.175l11.443,8.848-1.243,1.585-11.443-8.85A1,1,0,0,1,638.281,1284.019Z" transform="translate(-609.569 -1260.536)" fill="#182f46"/>
    <path id="Tracé_4600" data-name="Tracé 4600" d="M636.351,1286.482a1.024,1.024,0,0,1,1.419-.174l11.442,8.886-1.243,1.566-11.442-8.85A1.024,1.024,0,0,1,636.351,1286.482Z" transform="translate(-611.017 -1258.698)" fill="#182f46"/>
    <path id="Tracé_4601" data-name="Tracé 4601" d="M634.423,1288.978a1.02,1.02,0,0,1,1.419-.192l11.44,8.869-1.241,1.584-11.443-8.869a.971.971,0,0,1-.176-1.392Z" transform="translate(-612.466 -1256.853)" fill="#182f46"/>
    <path id="Tracé_4602" data-name="Tracé 4602" d="M632.494,1291.458a.988.988,0,0,1,.663-.385.974.974,0,0,1,.736.214l11.461,8.847-1.243,1.585-11.442-8.866a.972.972,0,0,1-.175-1.394Z" transform="translate(-613.911 -1255.013)" fill="#182f46"/>
    <path id="Tracé_4603" data-name="Tracé 4603" d="M652.641,1289.557l.788-.991-12.159-9.425-.769.992Z" transform="translate(-607.749 -1263.865)" fill="#406f95"/>
    <path id="Tracé_4604" data-name="Tracé 4604" d="M650.72,1292.047l.787-1.01-12.159-9.407-.788.975Z" transform="translate(-609.203 -1262.015)" fill="#406f95"/>
    <path id="Tracé_4605" data-name="Tracé 4605" d="M648.765,1294.493l.787-.977-12.159-9.406-.753.976Z" transform="translate(-610.64 -1260.173)" fill="#406f95"/>
    <path id="Tracé_4606" data-name="Tracé 4606" d="M646.852,1296.989l.77-.992-12.159-9.407-.753.976Z" transform="translate(-612.087 -1258.334)" fill="#406f95"/>
    <path id="Tracé_4607" data-name="Tracé 4607" d="M644.93,1299.47l.769-.993-12.16-9.406-.769.976Z" transform="translate(-613.541 -1256.494)" fill="#406f95"/>
    <path id="Tracé_4608" data-name="Tracé 4608" d="M642.983,1301.958l.787-.994-12.142-9.423-.787.992Z" transform="translate(-614.989 -1254.66)" fill="#406f95"/>
    <path id="Tracé_4609" data-name="Tracé 4609" d="M654.573,1287.071l-.176-1.724-11.2-8.676-.771.976Z" transform="translate(-606.3 -1265.695)" fill="#406f95"/>
    <path id="Tracé_4610" data-name="Tracé 4610" d="M624.763,1288.115c2.186,3.015,8.344,2.318,13.788-1.53s8.065-9.461,5.877-12.474-8.346-2.333-13.752,1.531S622.593,1285.084,624.763,1288.115Z" transform="translate(-620.11 -1268.989)" fill="#406f95"/>
    <path id="Tracé_4611" data-name="Tracé 4611" d="M624.764,1285.888c.56.749,2.976-4.7,7.7-8.067s9.937-3.343,9.378-4.091-5.949-1.221-10.655,2.14S624.222,1285.052,624.764,1285.888Z" transform="translate(-619.604 -1268.278)" fill="#708aab"/>
    <path id="Tracé_4612" data-name="Tracé 4612" d="M627.111,1283.231a2.434,2.434,0,1,0-.963-1.649A2.437,2.437,0,0,0,627.111,1283.231Z" transform="translate(-618.52 -1264.07)" fill="#708aab"/>
    <path id="Tracé_4613" data-name="Tracé 4613" d="M706.35,1298.086a21.723,21.723,0,0,1-.35-3.746v-3.832a20.182,20.182,0,0,1,20.207-20.138h14.208a20.2,20.2,0,0,1,20.225,20.138v3.832a21.778,21.778,0,0,1-.351,3.746Z" transform="translate(-558.649 -1270.37)" fill="#2d4a6a"/>
    <path id="Tracé_4614" data-name="Tracé 4614" d="M706.35,1291.213a21.71,21.71,0,0,1-.35-3.744v-5.922l54.641-1.917v7.839a21.765,21.765,0,0,1-.351,3.744Z" transform="translate(-558.649 -1263.5)" fill="#182f46"/>
    <path id="Tracé_4615" data-name="Tracé 4615" d="M701.87,1298.886a3.962,3.962,0,0,0,3.954,3.972h61.237a3.958,3.958,0,0,0,3.987-3.972l0-13.275a3.968,3.968,0,0,0-3.99-3.972H705.824a3.964,3.964,0,0,0-3.954,3.972Z" transform="translate(-561.744 -1262.007)" fill="#2d4a6a"/>
    <path id="Tracé_4616" data-name="Tracé 4616" d="M704.956,1281.71v16.356a3.491,3.491,0,0,0,3.5,3.484h55.987a3.491,3.491,0,0,0,3.5-3.484V1281.71a3.955,3.955,0,0,1,3.027,3.848v13.276a3.964,3.964,0,0,1-3.99,3.971H705.744a3.961,3.961,0,0,1-3.954-3.971v-13.276A3.976,3.976,0,0,1,704.956,1281.71Z" transform="translate(-561.805 -1261.955)" fill="#182f46"/>
    <path id="Tracé_4617" data-name="Tracé 4617" d="M736.509,1283a1.165,1.165,0,0,1,1.172,1.183v16.969H735.32v-16.969a1.166,1.166,0,0,1,1.189-1.183Z" transform="translate(-536.67 -1260.997)" fill="#182f46"/>
    <path id="Tracé_4618" data-name="Tracé 4618" d="M732.8,1283a1.186,1.186,0,0,1,1.19,1.184v16.969h-2.38v-16.969A1.186,1.186,0,0,1,732.8,1283Z" transform="translate(-539.45 -1260.999)" fill="#182f46"/>
    <path id="Tracé_4619" data-name="Tracé 4619" d="M729.1,1283a1.168,1.168,0,0,1,1.19,1.183v16.969H727.91v-16.969A1.2,1.2,0,0,1,729.1,1283Z" transform="translate(-542.225 -1260.997)" fill="#182f46"/>
    <path id="Tracé_4620" data-name="Tracé 4620" d="M725.411,1283a1.186,1.186,0,0,1,1.19,1.183v16.969H724.22v-16.969a1.168,1.168,0,0,1,1.191-1.183Z" transform="translate(-544.99 -1260.997)" fill="#182f46"/>
    <path id="Tracé_4621" data-name="Tracé 4621" d="M721.71,1283a1.168,1.168,0,0,1,1.19,1.183v16.969H720.52v-16.969a1.165,1.165,0,0,1,1.19-1.183Z" transform="translate(-547.764 -1260.997)" fill="#182f46"/>
    <path id="Tracé_4622" data-name="Tracé 4622" d="M718.009,1283a1.171,1.171,0,0,1,1.19,1.184v16.969H716.82v-16.969A1.186,1.186,0,0,1,718.009,1283Z" transform="translate(-550.538 -1260.999)" fill="#182f46"/>
    <rect id="Rectangle_274" data-name="Rectangle 274" width="1.47" height="18.048" transform="translate(196.515 20.608)" fill="#406f95"/>
    <rect id="Rectangle_275" data-name="Rectangle 275" width="1.47" height="18.048" transform="translate(190.024 20.608)" fill="#406f95"/>
    <rect id="Rectangle_276" data-name="Rectangle 276" width="1.47" height="18.048" transform="translate(183.586 20.608)" fill="#406f95"/>
    <rect id="Rectangle_277" data-name="Rectangle 277" width="1.47" height="18.048" transform="translate(177.112 20.608)" fill="#406f95"/>
    <rect id="Rectangle_278" data-name="Rectangle 278" width="1.47" height="18.048" transform="translate(170.639 20.608)" fill="#406f95"/>
    <rect id="Rectangle_279" data-name="Rectangle 279" width="1.487" height="18.048" transform="translate(164.165 20.608)" fill="#406f95"/>
    <path id="Tracé_4623" data-name="Tracé 4623" d="M737.79,1300.238l1.47-1.411V1282.19h-1.47Z" transform="translate(-534.819 -1261.599)" fill="#406f95"/>
    <path id="Tracé_4624" data-name="Tracé 4624" d="M714.3,1283a1.189,1.189,0,0,1,1.208,1.184v16.969h-2.38v-16.969A1.168,1.168,0,0,1,714.3,1283Z" transform="translate(-553.304 -1260.999)" fill="#182f46"/>
    <path id="Tracé_4625" data-name="Tracé 4625" d="M710.619,1283a1.185,1.185,0,0,1,1.191,1.183v16.969h-2.38v-16.969a1.166,1.166,0,0,1,1.189-1.183Z" transform="translate(-556.077 -1260.997)" fill="#182f46"/>
    <path id="Tracé_4626" data-name="Tracé 4626" d="M706.92,1283a1.169,1.169,0,0,1,1.19,1.184v16.969H705.73v-16.969A1.187,1.187,0,0,1,706.92,1283Z" transform="translate(-558.851 -1260.999)" fill="#182f46"/>
    <rect id="Rectangle_280" data-name="Rectangle 280" width="1.47" height="18.048" transform="translate(157.691 20.608)" fill="#406f95"/>
    <rect id="Rectangle_281" data-name="Rectangle 281" width="1.47" height="18.048" transform="translate(151.235 20.608)" fill="#406f95"/>
    <rect id="Rectangle_282" data-name="Rectangle 282" width="1.487" height="18.048" transform="translate(144.762 20.608)" fill="#406f95"/>
    <path id="Tracé_4627" data-name="Tracé 4627" d="M685.39,1333.332c0-34.842,28.361-40.9,63.388-40.9s63.371,6.059,63.371,40.9c0,16.69-6.509,36.932-17.129,53.519l11.652,224.286a27.652,27.652,0,0,1-27.731,27.612H718.58a27.653,27.653,0,0,1-27.714-27.612l11.618-224.286C691.9,1370.263,685.39,1350.022,685.39,1333.332Z" transform="translate(-574.099 -1253.999)" fill="#5988d8"/>
    <path id="Tracé_4628" data-name="Tracé 4628" d="M692.71,1325.571c1.853-43.551,105.361,13.656,87.48,42.679l9.255,224.239a22.067,22.067,0,0,1-22.116,22.017H719.2a22.066,22.066,0,0,1-22.115-22.017l9.29-224.239C697.905,1355.029,692.71,1338.88,692.71,1325.571Z" transform="translate(-568.61 -1241.133)" fill="#99beff"/>
    <path id="Tracé_4630" data-name="Tracé 4630" d="M726.1,1297.662c-1.33,2.056,14.276,2.7,26.943,10.888s17.5,20.8,18.9,18.745-2.747-15.505-15.379-23.692S727.451,1295.642,726.1,1297.662Z" transform="translate(-543.638 -1250.993)" fill="#deeaff"/>
    <path id="Tracé_4631" data-name="Tracé 4631" d="M711.571,1314.541c-3.183,2.037,19.142,13.936,32.684,34.84s13.156,42.68,16.323,40.643,5.249-24.511-8.276-45.294S714.739,1312.485,711.571,1314.541Z" transform="translate(-554.702 -1237.769)" fill="#deeaff"/>
    <path id="Tracé_4634" data-name="Tracé 4634" d="M698.84,1518.885h79.676l-5.58-138.5h-68.5Z" transform="translate(-564.017 -1188.73)" fill="#213962"/>
    <path id="Tracé_4637" data-name="Tracé 4637" d="M756.145,1353.427v-32.3l53.817,27.646c-19.246,34.439-12.545,13.083-23.585,9.318l-17.5-5.922c0,35.017-40.941,41.811-40.941,31.043C757.3,1377.276,756.145,1353.427,756.145,1353.427Z" transform="translate(-542.203 -1232.703)" fill="#2d4a6a"/>
    <path id="Tracé_4638" data-name="Tracé 4638" d="M755.441,1339l17.5,5.923c4.636,1.585,6.16,6.27,7.786,8.71-5.092,4.808-4.269-6.187-11.9-8.71L751.33,1339Z" transform="translate(-524.668 -1219.444)" fill="#182f46"/>
    <path id="Tracé_4639" data-name="Tracé 4639" d="M756.15,1353.427v-32.3l4.112,2.105v30.33s1.173,23.867-28.221,29.773c0,2.456,2.116,3.99,5.353,4.511-5.494.383-9.465-1.27-9.465-4.652C757.305,1377.276,756.15,1353.427,756.15,1353.427Z" transform="translate(-542.211 -1232.703)" fill="#182f46"/>
    <rect id="Rectangle_286" data-name="Rectangle 286" width="19.368" height="20.591" transform="translate(171.443 76.181)" fill="#2d4a6a"/>
    <rect id="Rectangle_287" data-name="Rectangle 287" width="19.368" height="8.013" transform="translate(171.443 88.427)" fill="#182f46"/>
    <rect id="Rectangle_288" data-name="Rectangle 288" width="19.368" height="4.007" transform="translate(171.443 78.531)" fill="#406f95"/>
    <path id="Tracé_4640" data-name="Tracé 4640" d="M834.329,1313.291l37.337,40.483-13.053,25.348H808.837l-8.293-15.208-54.588-27.594H729.44v-23.028Z" transform="translate(-541.078 -1238.522)" fill="#467ad4"/>
    <path id="Tracé_4641" data-name="Tracé 4641" d="M859.978,1362.5l-37.355-40.484H729.44v-8.726H834.329l37.337,40.483-13.053,25.348Z" transform="translate(-541.078 -1238.522)" fill="#fff" opacity="0.1"/>
    <path id="Tracé_4643" data-name="Tracé 4643" d="M797.048,1323.439c4.637,5.016,7.54,9.841,6.508,10.8s-5.616-2.372-10.253-7.369-7.54-9.843-6.491-10.8S792.427,1318.423,797.048,1323.439Z" transform="translate(-498.233 -1236.582)" fill="#fff" opacity="0.3"/>
    <path id="Tracé_4644" data-name="Tracé 4644" d="M754.579,1474.455h0s48.99-32.942,54.57-113.755h57.457l40.067,227.389H786.965a61.383,61.383,0,0,1-32.386-113.634Z" transform="translate(-544.119 -1203.341)" fill="#7cacff"/>
    <path id="Tracé_4645" data-name="Tracé 4645" d="M758.526,1469.582h0s49.216-29.616,54.238-102.312h42.621l36.025,204.586H787.657a55.2,55.2,0,0,1-29.13-102.274Z" transform="translate(-539.057 -1198.464)" fill="#99beff"/>
    <path id="Tracé_4646" data-name="Tracé 4646" d="M800.712,1370.876c-3.709-1.742-2.309,23.378-14.976,49.72s-33.925,39.926-30.234,41.7,26.507-10.454,39.174-36.9S804.421,1372.636,800.712,1370.876Z" transform="translate(-521.859 -1195.853)" fill="#deeaff"/>
    <path id="Tracé_4652" data-name="Tracé 4652" d="M768.47,1366.248a3.959,3.959,0,0,0,3.972,3.971h61.236a3.96,3.96,0,0,0,3.972-3.971v-13.276a3.983,3.983,0,0,0-3.972-3.973H772.441a3.982,3.982,0,0,0-3.972,3.973Z" transform="translate(-511.821 -1212.023)" fill="#2d4a6a"/>
    <path id="Tracé_4653" data-name="Tracé 4653" d="M771.556,1349.08v16.342a3.493,3.493,0,0,0,3.5,3.483h55.988a3.491,3.491,0,0,0,3.5-3.483V1349.08a3.923,3.923,0,0,1,3.027,3.833v13.273a3.957,3.957,0,0,1-3.972,3.972H772.361a3.957,3.957,0,0,1-3.971-3.972v-13.273A3.954,3.954,0,0,1,771.556,1349.08Z" transform="translate(-511.881 -1211.963)" fill="#182f46"/>
    <path id="Tracé_4654" data-name="Tracé 4654" d="M803.1,1350.39a1.189,1.189,0,0,1,1.19,1.2v16.97H801.91v-16.97A1.2,1.2,0,0,1,803.1,1350.39Z" transform="translate(-486.754 -1210.993)" fill="#182f46"/>
    <path id="Tracé_4655" data-name="Tracé 4655" d="M799.418,1350.39a1.184,1.184,0,0,1,1.171,1.2v16.97H798.21v-16.97A1.205,1.205,0,0,1,799.418,1350.39Z" transform="translate(-489.526 -1210.993)" fill="#182f46"/>
    <path id="Tracé_4656" data-name="Tracé 4656" d="M795.693,1350.39a1.189,1.189,0,0,1,1.189,1.2v16.97H794.52v-16.97A1.2,1.2,0,0,1,795.693,1350.39Z" transform="translate(-492.293 -1210.993)" fill="#182f46"/>
    <path id="Tracé_4657" data-name="Tracé 4657" d="M792.01,1350.39a1.187,1.187,0,0,1,.847.354,1.174,1.174,0,0,1,.342.846v16.97h-2.38v-16.97A1.2,1.2,0,0,1,792.01,1350.39Z" transform="translate(-495.067 -1210.993)" fill="#182f46"/>
    <path id="Tracé_4658" data-name="Tracé 4658" d="M788.31,1350.39a1.191,1.191,0,0,1,.848.354,1.172,1.172,0,0,1,.34.846v16.97H787.12v-16.97A1.206,1.206,0,0,1,788.31,1350.39Z" transform="translate(-497.84 -1210.993)" fill="#182f46"/>
    <path id="Tracé_4659" data-name="Tracé 4659" d="M784.62,1350.39a1.184,1.184,0,0,1,1.17,1.2v16.97H783.43v-16.97a1.187,1.187,0,0,1,1.191-1.2Z" transform="translate(-500.608 -1210.993)" fill="#182f46"/>
    <rect id="Rectangle_292" data-name="Rectangle 292" width="1.487" height="18.03" transform="translate(313.039 137.935)" fill="#406f95"/>
    <rect id="Rectangle_293" data-name="Rectangle 293" width="1.47" height="18.03" transform="translate(306.565 137.935)" fill="#406f95"/>
    <rect id="Rectangle_294" data-name="Rectangle 294" width="1.487" height="18.03" transform="translate(300.109 137.935)" fill="#406f95"/>
    <rect id="Rectangle_295" data-name="Rectangle 295" width="1.47" height="18.03" transform="translate(293.637 137.935)" fill="#406f95"/>
    <rect id="Rectangle_296" data-name="Rectangle 296" width="1.487" height="18.03" transform="translate(287.162 137.935)" fill="#406f95"/>
    <rect id="Rectangle_297" data-name="Rectangle 297" width="1.487" height="18.03" transform="translate(280.707 137.935)" fill="#406f95"/>
    <path id="Tracé_4660" data-name="Tracé 4660" d="M804.39,1367.591l1.5-1.43v-16.6h-1.5Z" transform="translate(-484.894 -1211.608)" fill="#406f95"/>
    <path id="Tracé_4661" data-name="Tracé 4661" d="M780.937,1350.39a1.185,1.185,0,0,1,1.154,1.2v16.97H779.73v-16.97A1.2,1.2,0,0,1,780.937,1350.39Z" transform="translate(-503.379 -1210.993)" fill="#182f46"/>
    <path id="Tracé_4662" data-name="Tracé 4662" d="M777.243,1350.39a1.186,1.186,0,0,1,1.189,1.2v16.967H776v-16.967a1.188,1.188,0,0,1,1.243-1.2Z" transform="translate(-506.176 -1210.991)" fill="#182f46"/>
    <path id="Tracé_4663" data-name="Tracé 4663" d="M773.509,1350.39a1.185,1.185,0,0,1,1.172,1.2v16.97H772.32v-16.97a1.19,1.19,0,0,1,1.19-1.2Z" transform="translate(-508.935 -1210.993)" fill="#182f46"/>
    <rect id="Rectangle_298" data-name="Rectangle 298" width="1.47" height="18.03" transform="translate(274.233 137.935)" fill="#406f95"/>
    <rect id="Rectangle_299" data-name="Rectangle 299" width="1.487" height="18.03" transform="translate(267.759 137.935)" fill="#406f95"/>
    <rect id="Rectangle_300" data-name="Rectangle 300" width="1.487" height="18.03" transform="translate(261.304 137.935)" fill="#406f95"/>
    <circle id="Ellipse_54" data-name="Ellipse 54" cx="43.645" cy="43.645" r="43.645" transform="translate(233.985 265.57)" fill="#213962"/>
  </g>
</svg>
