<svg xmlns="http://www.w3.org/2000/svg" xmlns:xlink="http://www.w3.org/1999/xlink" width="36" height="36" viewBox="0 0 36 36">
  <defs>
    <linearGradient id="linear-gradient" x1="0.065" y1="-0.138" x2="0.996" y2="1.227" gradientUnits="objectBoundingBox">
      <stop offset="0" stop-color="#7db1ff"/>
      <stop offset="1" stop-color="#8c20e5"/>
    </linearGradient>
    <linearGradient id="linear-gradient-2" x1="0.137" y1="25.025" x2="0.841" y2="24.038" gradientUnits="objectBoundingBox">
      <stop offset="0" stop-color="#ffda1c"/>
      <stop offset="1" stop-color="#feb705"/>
    </linearGradient>
    <filter id="Tracé_6668" x="0.5" y="1.5" width="17.998" height="17.303" filterUnits="userSpaceOnUse">
      <feOffset input="SourceAlpha"/>
      <feGaussianBlur stdDeviation="0.5" result="blur"/>
      <feFlood flood-opacity="0.2"/>
      <feComposite operator="in" in2="blur"/>
      <feComposite in="SourceGraphic"/>
    </filter>
  </defs>
  <g id="icons8_membership_card" transform="translate(-2 -9)">
    <path id="Tracé_6661" data-name="Tracé 6661" d="M35.648,9H4.352C3.053,9,2,10.544,2,12.45v29.1C2,43.456,3.053,45,4.352,45h31.3C36.947,45,38,43.456,38,41.55V12.45C38,10.544,36.947,9,35.648,9Z" fill="url(#linear-gradient)"/>
    <path id="Tracé_6662" data-name="Tracé 6662" d="M43,19h-15.4A.552.552,0,0,1,27,18.5v-1a.552.552,0,0,1,.592-.5H43a.552.552,0,0,1,.592.5v1A.552.552,0,0,1,43,19Z" transform="translate(-9.588 10)" fill="#7219a4"/>
    <path id="Tracé_6663" data-name="Tracé 6663" d="M40.98,23H27.608A.562.562,0,0,1,27,22.5v-1a.562.562,0,0,1,.608-.5H40.98a.562.562,0,0,1,.608.5v1A.562.562,0,0,1,40.98,23Z" transform="translate(-7.588 10)" fill="#7219a4"/>
    <path id="Tracé_6664" data-name="Tracé 6664" d="M40.98,31H27.608A.562.562,0,0,1,27,30.5v-1a.562.562,0,0,1,.608-.5H40.98a.562.562,0,0,1,.608.5v1A.562.562,0,0,1,40.98,31Z" transform="translate(-7.588 11)" fill="#7219a4"/>
    <path id="Tracé_6665" data-name="Tracé 6665" d="M46.543,27H27.724c-.4,0-.724-.224-.724-.5v-1c0-.276.324-.5.724-.5H46.543c.4,0,.724.224.724.5v1C47.267,26.776,46.942,27,46.543,27Z" transform="translate(-13.267 10)" fill="#7219a4"/>
    <g transform="matrix(1, 0, 0, 1, 2, 9)" filter="url(#Tracé_6668)">
      <path id="Tracé_6668-2" data-name="Tracé 6668" d="M14.831,15.931l1.988,4.46,4.855.513a.363.363,0,0,1,.2.63L18.252,24.8l1.013,4.776a.363.363,0,0,1-.536.39L14.5,27.528l-4.229,2.44a.363.363,0,0,1-.536-.39L10.748,24.8,7.121,21.534a.363.363,0,0,1,.2-.63l4.855-.513,1.988-4.46A.362.362,0,0,1,14.831,15.931Z" transform="translate(-5 -12.72)" fill="url(#linear-gradient-2)"/>
    </g>
  </g>
</svg>
