<svg id="icons8_housekeeper" xmlns="http://www.w3.org/2000/svg" width="28" height="47" viewBox="0 0 28 47">
  <path id="Tracé_6091" data-name="Tracé 6091" d="M22.886,15.236l-2.362,3.937-2.092-2.092L16.34,19.173l-2.362-3.937a8.354,8.354,0,0,0-3.914,7.075l2.528,1.046,1.656,24.059h8.368l1.7-24.059L27.3,21.425C26.122,18.9,25.085,16.427,22.886,15.236Z" transform="translate(-10.064 -0.416)" fill="#546e7a"/>
  <path id="Tracé_6092" data-name="Tracé 6092" d="M18.308,17.138,20.4,19.23l2.362-3.937a8.319,8.319,0,0,0-8.908,0l2.362,3.937ZM23.9,27.6H12.757l.051.743.27,5.534a2.093,2.093,0,0,0,2.092,2.092h6.276a2.093,2.093,0,0,0,2.092-2.092Z" transform="translate(-9.94 -0.44)" fill="#e3f2fd"/>
  <path id="Tracé_6093" data-name="Tracé 6093" d="M22.432,14.414s-1.046-1.046-4.184-1.046-4.184,1.046-4.184,1.046V5h8.368Z" transform="translate(-9.88 -0.816)" fill="#bf360c"/>
  <path id="Tracé_6094" data-name="Tracé 6094" d="M20.248,11H16.064v3.138a1.935,1.935,0,0,0,2.049,2.092,2.027,2.027,0,0,0,2.135-2.092Z" transform="translate(-9.851 -0.558)" fill="#ff9800"/>
  <path id="Tracé_6095" data-name="Tracé 6095" d="M10.064,22.893v8.368L13.2,33.353l-.61-9.414ZM23.14,5.11c0-3.994-9.414-2.6-9.414,0V8.771a4.707,4.707,0,0,0,9.414,0Zm9.92,14.726-1.046-.552L27.9,23.235l-.616-1.244L24.3,23.922l2.484,3.138h2.092L33.059,21.9Z" transform="translate(-10.064 -0.926)" fill="#ffb74d"/>
  <path id="Tracé_6096" data-name="Tracé 6096" d="M18.386,1c-3.178,0-7.322,1.046-7.322,10.46L14.2,14.6V7.8l6.276-3.661L22.57,6.753V14.6l3.138-3.138c0-2.1,0-9.414-5.23-9.414L19.955,1Z" transform="translate(-10.018 -1)" fill="#ff5722"/>
  <path id="Tracé_6097" data-name="Tracé 6097" d="M31.064,9h2.092V37.243H31.064Z" transform="translate(-9.34 -0.664)" fill="#3f51b5"/>
  <path id="Tracé_6098" data-name="Tracé 6098" d="M33.34,35H31.248s-4.184,5.23-4.184,11.506h10.46C37.524,40.23,33.34,35,33.34,35Z" transform="translate(-9.524 0.494)" fill="#ffc107"/>
</svg>
