<svg xmlns="http://www.w3.org/2000/svg" xmlns:xlink="http://www.w3.org/1999/xlink" width="70" height="70" viewBox="0 0 70 70">
  <defs>
    <filter id="Ellipse_17" x="0" y="0" width="70" height="70" filterUnits="userSpaceOnUse">
      <feOffset dy="3" input="SourceAlpha"/>
      <feGaussianBlur stdDeviation="3" result="blur"/>
      <feFlood flood-color="#5493ff" flood-opacity="0.502"/>
      <feComposite operator="in" in2="blur"/>
      <feComposite in="SourceGraphic"/>
    </filter>
  </defs>
  <g id="Trophy_for_rewards" data-name="Trophy for rewards" transform="translate(8.827 5.861)">
    <g transform="matrix(1, 0, 0, 1, -8.83, -5.86)" filter="url(#Ellipse_17)">
      <circle id="Ellipse_17-2" data-name="Ellipse 17" cx="26" cy="26" r="26" transform="translate(9 6)" fill="#5493ff"/>
    </g>
    <path id="Polygone_6" data-name="Polygone 6" d="M16.052,2.82a1,1,0,0,1,1.9,0l3.08,9.162a1,1,0,0,0,.921.681l9.335.251a1,1,0,0,1,.6,1.778L24.391,20.73a1,1,0,0,0-.335,1.05l2.669,9.452a1,1,0,0,1-1.549,1.082l-7.59-5.492a1,1,0,0,0-1.172,0l-7.59,5.492a1,1,0,0,1-1.549-1.082L9.944,21.78a1,1,0,0,0-.335-1.05L2.116,14.692a1,1,0,0,1,.6-1.778l9.335-.251a1,1,0,0,0,.921-.681Z" transform="translate(9.173 9.139)" fill="#fff"/>
  </g>
</svg>
