<svg xmlns="http://www.w3.org/2000/svg" xmlns:xlink="http://www.w3.org/1999/xlink" width="44.541" height="40.585" viewBox="0 0 44.541 40.585">
  <defs>
    <linearGradient id="linear-gradient" x1="0.137" y1="0.045" x2="0.841" y2="1.032" gradientUnits="objectBoundingBox">
      <stop offset="0" stop-color="#ffda1c"/>
      <stop offset="1" stop-color="#feb705"/>
    </linearGradient>
    <linearGradient id="linear-gradient-2" x1="1.026" y1="0.5" x2="0.247" y2="0.5" xlink:href="#linear-gradient"/>
    <linearGradient id="linear-gradient-3" x1="0.665" y1="1.13" x2="0.527" y2="0.415" xlink:href="#linear-gradient"/>
    <linearGradient id="linear-gradient-4" x1="0.828" y1="0.339" x2="0.566" y2="0.461" xlink:href="#linear-gradient"/>
    <linearGradient id="linear-gradient-5" x1="1.665" y1="1.13" x2="1.527" y2="0.415" xlink:href="#linear-gradient"/>
    <linearGradient id="linear-gradient-6" x1="0.898" y1="0.689" x2="0.567" y2="0.528" xlink:href="#linear-gradient"/>
  </defs>
  <g id="_5_Stars" data-name="5 Stars" transform="matrix(0.946, 0.326, -0.326, 0.946, 6.301, -5.357)">
    <g id="icons8_christmas_star" transform="translate(16.454 0) rotate(7)">
      <path id="Tracé_4553" data-name="Tracé 4553" d="M6.367.191,4.6,4.152.289,4.607a.322.322,0,0,0-.182.56l3.221,2.9-.9,4.242a.322.322,0,0,0,.476.346l3.756-2.167,3.756,2.167a.322.322,0,0,0,.476-.346l-.9-4.242,3.221-2.9a.322.322,0,0,0-.182-.56L8.721,4.152,6.955.191A.322.322,0,0,0,6.367.191Z" transform="translate(0 0)" fill="url(#linear-gradient)"/>
      <path id="Tracé_4554" data-name="Tracé 4554" d="M2.06,4.152.294.191A.317.317,0,0,0,0,0V6.578Z" transform="translate(6.661 0)" fill="url(#linear-gradient-2)"/>
      <path id="Tracé_4555" data-name="Tracé 4555" d="M3.333,3.226h0L6.554.324A.316.316,0,0,0,6.647,0L0,1.734Z" transform="translate(6.661 4.844)" fill="url(#linear-gradient-3)"/>
      <path id="Tracé_4556" data-name="Tracé 4556" d="M3.333,1.492,0,0,4.088,6.072a.316.316,0,0,0,.144-.337Z" transform="translate(6.661 6.578)" fill="url(#linear-gradient-4)"/>
      <path id="Tracé_4557" data-name="Tracé 4557" d="M3.326,3.226h0L.105.324A.316.316,0,0,1,.012,0L6.659,1.734Z" transform="translate(0.002 4.844)" fill="url(#linear-gradient-5)"/>
      <path id="Tracé_4558" data-name="Tracé 4558" d="M0,6.066a.317.317,0,0,0,.343.014L4.1,3.913V0Z" transform="translate(2.562 6.578)" fill="url(#linear-gradient-6)"/>
    </g>
    <g id="icons8_christmas_star-2" data-name="icons8_christmas_star" transform="translate(0 19.355) rotate(-20)">
      <path id="Tracé_4553-2" data-name="Tracé 4553" d="M6.413.193,4.634,4.182.291,4.641A.325.325,0,0,0,.108,5.2L3.352,8.128,2.446,12.4a.325.325,0,0,0,.48.349l3.783-2.183,3.783,2.182a.325.325,0,0,0,.48-.349l-.906-4.273L13.311,5.2a.325.325,0,0,0-.183-.564L8.784,4.182,7.006.193A.324.324,0,0,0,6.413.193Z" transform="translate(0 0)" fill="url(#linear-gradient)"/>
      <path id="Tracé_4554-2" data-name="Tracé 4554" d="M2.075,4.182.3.193A.32.32,0,0,0,0,0V6.626Z" transform="translate(6.709 0)" fill="url(#linear-gradient-2)"/>
      <path id="Tracé_4555-2" data-name="Tracé 4555" d="M3.357,3.25h0L6.6.326A.318.318,0,0,0,6.7,0L0,1.747Z" transform="translate(6.709 4.879)" fill="url(#linear-gradient-3)"/>
      <path id="Tracé_4556-2" data-name="Tracé 4556" d="M3.357,1.5,0,0,4.118,6.116a.319.319,0,0,0,.145-.34Z" transform="translate(6.709 6.626)" fill="url(#linear-gradient-4)"/>
      <path id="Tracé_4557-2" data-name="Tracé 4557" d="M3.351,3.25h0L.106.326A.318.318,0,0,1,.012,0l6.7,1.747Z" transform="translate(0.002 4.879)" fill="url(#linear-gradient-5)"/>
      <path id="Tracé_4558-2" data-name="Tracé 4558" d="M0,6.11a.319.319,0,0,0,.345.014L4.129,3.942V0Z" transform="translate(2.581 6.626)" fill="url(#linear-gradient-6)"/>
    </g>
    <g id="icons8_christmas_star-3" data-name="icons8_christmas_star" transform="translate(26.859 12.144) rotate(11)">
      <path id="Tracé_4553-3" data-name="Tracé 4553" d="M9.27.278,6.7,6.045.421,6.708a.469.469,0,0,0-.265.815l4.69,4.226-1.31,6.177a.469.469,0,0,0,.694.5L9.7,15.275l5.469,3.155a.469.469,0,0,0,.694-.5l-1.31-6.176,4.69-4.226a.469.469,0,0,0-.265-.815L12.7,6.045,10.127.278A.469.469,0,0,0,9.27.278Z" transform="translate(0 0)" fill="url(#linear-gradient)"/>
      <path id="Tracé_4554-3" data-name="Tracé 4554" d="M3,6.045.428.278A.462.462,0,0,0,0,0V9.577Z" transform="translate(9.698 0)" fill="url(#linear-gradient-2)"/>
      <path id="Tracé_4555-3" data-name="Tracé 4555" d="M4.853,4.7h0L9.542.471A.46.46,0,0,0,9.678,0L0,2.525Z" transform="translate(9.698 7.052)" fill="url(#linear-gradient-3)"/>
      <path id="Tracé_4556-3" data-name="Tracé 4556" d="M4.853,2.173,0,0,5.952,8.84a.461.461,0,0,0,.21-.491Z" transform="translate(9.698 9.577)" fill="url(#linear-gradient-4)"/>
      <path id="Tracé_4557-3" data-name="Tracé 4557" d="M4.843,4.7h0L.154.471A.46.46,0,0,1,.017,0L9.7,2.525Z" transform="translate(0.002 7.052)" fill="url(#linear-gradient-5)"/>
      <path id="Tracé_4558-3" data-name="Tracé 4558" d="M0,8.832a.461.461,0,0,0,.5.021L5.968,5.7V0Z" transform="translate(3.731 9.577)" fill="url(#linear-gradient-6)"/>
    </g>
  </g>
</svg>
