<svg id="Appartement_Isometric" data-name="Appartement Isometric" xmlns="http://www.w3.org/2000/svg" width="157.441" height="332.909" viewBox="0 0 157.441 332.909">
  <path id="Tracé_4681" data-name="Tracé 4681" d="M4.16,35.77V273.421l68.5,39.762V75.532Z" transform="translate(2.038 17.52)" fill="#94bbff"/>
  <path id="Tracé_4682" data-name="Tracé 4682" d="M48.564,197.558,31.61,187.74v25.7l16.954,9.818Z" transform="translate(15.482 91.953)" fill="#5a86ec"/>
  <path id="Tracé_4683" data-name="Tracé 4683" d="M32.06,212.67l15.613,9.043v-24.15L32.06,188.52Z" transform="translate(15.703 92.335)" fill="#fff"/>
  <path id="Tracé_4684" data-name="Tracé 4684" d="M46.347,197.576l-13.617-7.9v21.855l13.617,7.881Z" transform="translate(16.031 92.903)" fill="#5a86ec"/>
  <path id="Tracé_4685" data-name="Tracé 4685" d="M27.644,185.323l-16.954-9.8v25.7l16.954,9.818Z" transform="translate(5.236 85.968)" fill="#5a86ec"/>
  <path id="Tracé_4686" data-name="Tracé 4686" d="M11.14,200.449l15.613,9.028V185.343L11.14,176.3Z" transform="translate(5.456 86.35)" fill="#fff"/>
  <path id="Tracé_4687" data-name="Tracé 4687" d="M25.427,185.341,11.81,177.46V199.3l13.617,7.881Z" transform="translate(5.784 86.918)" fill="#5a86ec"/>
  <path id="Tracé_4688" data-name="Tracé 4688" d="M50.09,78.182V315.818l82.817-47.837V30.33Z" transform="translate(24.534 14.855)" fill="#c9ddff"/>
  <path id="Tracé_4689" data-name="Tracé 4689" d="M4.1,47.852,72.615,87.615l82.817-47.852L86.8,0Z" transform="translate(2.008)" fill="#9bb9e8"/>
  <path id="Tracé_4690" data-name="Tracé 4690" d="M148.247,38.734,85.02,2.1,7.73,46.823,70.838,83.457Z" transform="translate(3.786 1.028)" fill="#f6f9ff"/>
  <path id="Tracé_4691" data-name="Tracé 4691" d="M59.61,2.1V6.033L119.44,40.7l3.4-1.967Z" transform="translate(29.196 1.028)" fill="#4771d1"/>
  <path id="Tracé_4692" data-name="Tracé 4692" d="M4.11,32.12v5.408l68.5,39.777V71.882L14.628,38.228Z" transform="translate(2.013 15.732)" fill="#4771d1"/>
  <path id="Tracé_4693" data-name="Tracé 4693" d="M50.09,74.542v5.423l82.817-47.852V26.69L122.36,32.768Z" transform="translate(24.534 13.072)" fill="#5a86ec"/>
  <path id="Tracé_4694" data-name="Tracé 4694" d="M4.11,193.13v5.423l68.5,39.763v-5.408L14.628,199.238Z" transform="translate(2.013 94.593)" fill="#4771d1"/>
  <path id="Tracé_4695" data-name="Tracé 4695" d="M132.907,187.71v5.408l-23.732,13.721-1.088.626L107,208.09l-16.462,9.52-1.088.626-1.088.626-4.171,2.413L83.1,221.9l-1.088.626-8.358,4.827-8.1,4.678-1.073.626L50.09,240.97v-5.408l.074-.045,13.229-7.658,1.088-.611,1.073-.641,16.462-9.5,1.088-.626,1.088-.626,4.171-2.413,1.088-.626,1.088-.641,16.462-9.5,1.088-.626,1.088-.626,13.185-7.628Z" transform="translate(24.534 91.938)" fill="#5a86ec"/>
  <path id="Tracé_4696" data-name="Tracé 4696" d="M54.03,170.742l17.147-9.922v25.967L54.03,196.709Z" transform="translate(26.463 78.768)" fill="#5a86ec"/>
  <path id="Tracé_4697" data-name="Tracé 4697" d="M70.267,186.013,54.49,195.145v-24.4l15.777-9.132Z" transform="translate(26.688 79.155)" fill="#fff"/>
  <path id="Tracé_4698" data-name="Tracé 4698" d="M55.16,170.75l13.781-7.97v22.079l-13.781,7.97Z" transform="translate(27.017 79.728)" fill="#5a86ec"/>
  <path id="Tracé_4699" data-name="Tracé 4699" d="M72.58,159.852l17.147-9.922V175.9L72.58,185.819Z" transform="translate(35.549 73.434)" fill="#5a86ec"/>
  <path id="Tracé_4700" data-name="Tracé 4700" d="M88.832,175.123,73.04,184.255v-24.4l15.792-9.132Z" transform="translate(35.774 73.821)" fill="#fff"/>
  <path id="Tracé_4701" data-name="Tracé 4701" d="M73.72,159.86l13.766-7.97v22.079l-13.766,7.97Z" transform="translate(36.107 74.394)" fill="#5a86ec"/>
  <path id="Tracé_4702" data-name="Tracé 4702" d="M91.14,148.952l17.133-9.922v25.982L91.14,174.934Z" transform="translate(44.64 68.096)" fill="#5a86ec"/>
  <path id="Tracé_4703" data-name="Tracé 4703" d="M107.382,164.223,91.59,173.355V148.967l15.792-9.147Z" transform="translate(44.86 68.482)" fill="#fff"/>
  <path id="Tracé_4704" data-name="Tracé 4704" d="M92.27,148.955,106.036,141v22.064l-13.766,7.97Z" transform="translate(45.193 69.061)" fill="#5a86ec"/>
  <path id="Tracé_4705" data-name="Tracé 4705" d="M54.03,198.167l17.147-9.907v25.967L54.03,224.149Z" transform="translate(26.463 92.208)" fill="#5a86ec"/>
  <path id="Tracé_4706" data-name="Tracé 4706" d="M70.267,213.453,54.49,222.585v-24.4l15.777-9.132Z" transform="translate(26.688 92.595)" fill="#fff"/>
  <path id="Tracé_4707" data-name="Tracé 4707" d="M55.16,198.19l13.781-7.97V212.3l-13.781,7.97Z" transform="translate(27.017 93.168)" fill="#5a86ec"/>
  <path id="Tracé_4708" data-name="Tracé 4708" d="M91.14,176.392l17.133-9.922v25.967L91.14,202.359Z" transform="translate(44.64 81.535)" fill="#5a86ec"/>
  <path id="Tracé_4709" data-name="Tracé 4709" d="M107.382,191.663,91.59,200.8v-24.4l15.792-9.132Z" transform="translate(44.86 81.922)" fill="#fff"/>
  <path id="Tracé_4710" data-name="Tracé 4710" d="M92.27,176.4l13.766-7.97v22.079l-13.766,7.97Z" transform="translate(45.193 82.495)" fill="#5a86ec"/>
  <path id="Tracé_4711" data-name="Tracé 4711" d="M7.73,46.823l3.4,1.967L85.02,6.033V2.1Z" transform="translate(3.786 1.028)" fill="#5a86ec"/>
  <path id="Tracé_4712" data-name="Tracé 4712" d="M54.03,137.412l17.147-9.922v25.967L54.03,163.379Z" transform="translate(26.463 62.443)" fill="#5a86ec"/>
  <path id="Tracé_4713" data-name="Tracé 4713" d="M70.267,152.683,54.49,161.815v-24.4l15.777-9.132Z" transform="translate(26.688 62.83)" fill="#fff"/>
  <path id="Tracé_4714" data-name="Tracé 4714" d="M55.16,137.42l13.781-7.97v22.079L55.16,159.5Z" transform="translate(27.017 63.403)" fill="#5a86ec"/>
  <path id="Tracé_4715" data-name="Tracé 4715" d="M72.58,126.512l17.147-9.922v25.982L72.58,152.494Z" transform="translate(35.549 57.104)" fill="#5a86ec"/>
  <path id="Tracé_4716" data-name="Tracé 4716" d="M88.832,141.778,73.04,150.925v-24.4l15.792-9.132Z" transform="translate(35.774 57.497)" fill="#fff"/>
  <path id="Tracé_4717" data-name="Tracé 4717" d="M73.72,126.53l13.766-7.97v22.079L73.72,148.594Z" transform="translate(36.107 58.069)" fill="#5a86ec"/>
  <path id="Tracé_4718" data-name="Tracé 4718" d="M91.14,115.622l17.133-9.922v25.982L91.14,141.589Z" transform="translate(44.64 51.771)" fill="#5a86ec"/>
  <path id="Tracé_4719" data-name="Tracé 4719" d="M107.382,130.893,91.59,140.025v-24.4l15.792-9.132Z" transform="translate(44.86 52.158)" fill="#fff"/>
  <path id="Tracé_4720" data-name="Tracé 4720" d="M92.27,115.63l13.766-7.97v22.079l-13.766,7.97Z" transform="translate(45.193 52.731)" fill="#5a86ec"/>
  <path id="Tracé_4721" data-name="Tracé 4721" d="M54.03,104.067,71.177,94.16v25.967L54.03,130.049Z" transform="translate(26.463 46.119)" fill="#5a86ec"/>
  <path id="Tracé_4722" data-name="Tracé 4722" d="M70.267,119.353,54.49,128.485v-24.4L70.267,94.95Z" transform="translate(26.688 46.505)" fill="#fff"/>
  <path id="Tracé_4723" data-name="Tracé 4723" d="M55.16,104.09l13.781-7.97V118.2l-13.781,7.97Z" transform="translate(27.017 47.079)" fill="#5a86ec"/>
  <path id="Tracé_4724" data-name="Tracé 4724" d="M72.58,93.182,89.727,83.26v25.982L72.58,119.164Z" transform="translate(35.549 40.78)" fill="#5a86ec"/>
  <path id="Tracé_4725" data-name="Tracé 4725" d="M88.832,108.453,73.04,117.585V93.2L88.832,84.05Z" transform="translate(35.774 41.167)" fill="#fff"/>
  <path id="Tracé_4726" data-name="Tracé 4726" d="M73.72,93.205,87.486,85.22V107.3l-13.766,7.97Z" transform="translate(36.107 41.74)" fill="#5a86ec"/>
  <path id="Tracé_4727" data-name="Tracé 4727" d="M91.14,82.292l17.133-9.922V98.337L91.14,108.259Z" transform="translate(44.64 35.446)" fill="#5a86ec"/>
  <path id="Tracé_4728" data-name="Tracé 4728" d="M107.382,97.563,91.59,106.7v-24.4l15.792-9.132Z" transform="translate(44.86 35.833)" fill="#fff"/>
  <path id="Tracé_4729" data-name="Tracé 4729" d="M92.27,82.3l13.766-7.97V96.409l-13.766,7.97Z" transform="translate(45.193 36.406)" fill="#5a86ec"/>
  <path id="Tracé_4730" data-name="Tracé 4730" d="M54.03,70.152,71.177,60.23V86.2L54.03,96.119Z" transform="translate(26.463 29.5)" fill="#5a86ec"/>
  <path id="Tracé_4731" data-name="Tracé 4731" d="M70.267,85.423,54.49,94.555v-24.4L70.267,61.02Z" transform="translate(26.688 29.887)" fill="#fff"/>
  <path id="Tracé_4732" data-name="Tracé 4732" d="M55.16,70.16l13.781-7.97V84.269L55.16,92.239Z" transform="translate(27.017 30.46)" fill="#5a86ec"/>
  <path id="Tracé_4733" data-name="Tracé 4733" d="M72.58,59.247,89.727,49.34V75.307L72.58,85.229Z" transform="translate(35.549 24.166)" fill="#5a86ec"/>
  <path id="Tracé_4734" data-name="Tracé 4734" d="M88.832,74.533,73.04,83.665v-24.4L88.832,50.13Z" transform="translate(35.774 24.553)" fill="#fff"/>
  <path id="Tracé_4735" data-name="Tracé 4735" d="M73.72,59.27,87.486,51.3V73.364L73.72,81.349Z" transform="translate(36.107 25.126)" fill="#5a86ec"/>
  <path id="Tracé_4736" data-name="Tracé 4736" d="M91.14,48.362l17.133-9.922V64.422L91.14,74.329Z" transform="translate(44.64 18.828)" fill="#5a86ec"/>
  <path id="Tracé_4737" data-name="Tracé 4737" d="M107.382,63.633,91.59,72.765v-24.4l15.792-9.132Z" transform="translate(44.86 19.214)" fill="#fff"/>
  <path id="Tracé_4738" data-name="Tracé 4738" d="M106.036,40.4V62.479L98.885,66.62,92.27,70.449V48.37l11.1-6.421Z" transform="translate(45.193 19.788)" fill="#5a86ec"/>
  <path id="Tracé_4739" data-name="Tracé 4739" d="M103.369,41.44,98.885,66.111,92.27,69.94V47.861Z" transform="translate(45.193 20.297)" fill="#8eacde" opacity="0.5"/>
  <path id="Tracé_4740" data-name="Tracé 4740" d="M84.819,52.33,80.335,77,73.72,80.83V58.751Z" transform="translate(36.107 25.631)" fill="#8eacde" opacity="0.5"/>
  <path id="Tracé_4741" data-name="Tracé 4741" d="M66.274,63.22l-4.5,24.686L55.16,91.735V69.656Z" transform="translate(27.017 30.964)" fill="#8eacde" opacity="0.5"/>
  <path id="Tracé_4742" data-name="Tracé 4742" d="M103.369,75.49l-4.484,24.686L92.27,104V81.926Z" transform="translate(45.193 36.974)" fill="#8eacde" opacity="0.5"/>
  <path id="Tracé_4743" data-name="Tracé 4743" d="M84.819,86.38l-4.484,24.686-6.615,3.829V92.816Z" transform="translate(36.107 42.308)" fill="#8eacde" opacity="0.5"/>
  <path id="Tracé_4744" data-name="Tracé 4744" d="M66.274,97.28l-4.5,24.671L55.16,125.78V103.7Z" transform="translate(27.017 47.647)" fill="#8eacde" opacity="0.5"/>
  <path id="Tracé_4745" data-name="Tracé 4745" d="M103.369,108.68l-4.484,24.671L92.27,137.18V115.1Z" transform="translate(45.193 53.23)" fill="#8eacde" opacity="0.5"/>
  <path id="Tracé_4746" data-name="Tracé 4746" d="M84.819,119.57l-4.484,24.671L73.72,148.07V125.991Z" transform="translate(36.107 58.564)" fill="#8eacde" opacity="0.5"/>
  <path id="Tracé_4747" data-name="Tracé 4747" d="M66.274,130.46l-4.5,24.686-6.615,3.829V136.9Z" transform="translate(27.017 63.898)" fill="#8eacde" opacity="0.5"/>
  <path id="Tracé_4748" data-name="Tracé 4748" d="M103.369,142.05l-4.484,24.671L92.27,170.55V148.471Z" transform="translate(45.193 69.575)" fill="#8eacde" opacity="0.5"/>
  <path id="Tracé_4749" data-name="Tracé 4749" d="M84.819,152.94l-4.484,24.671L73.72,181.44V159.361Z" transform="translate(36.107 74.909)" fill="#8eacde" opacity="0.5"/>
  <path id="Tracé_4750" data-name="Tracé 4750" d="M66.274,163.83l-4.5,24.686-6.615,3.829V170.266Z" transform="translate(27.017 80.242)" fill="#8eacde" opacity="0.5"/>
  <path id="Tracé_4751" data-name="Tracé 4751" d="M103.369,169.55l-4.484,24.686-6.615,3.829V175.986Z" transform="translate(45.193 83.044)" fill="#8eacde" opacity="0.5"/>
  <path id="Tracé_4752" data-name="Tracé 4752" d="M84.819,188.54l-4.484,24.686-6.615,3.829V194.976Z" transform="translate(36.107 92.345)" fill="#8eacde" opacity="0.5"/>
  <path id="Tracé_4753" data-name="Tracé 4753" d="M66.274,191.34l-4.5,24.671L55.16,219.84V197.761Z" transform="translate(27.017 93.716)" fill="#8eacde" opacity="0.5"/>
  <path id="Tracé_4754" data-name="Tracé 4754" d="M11.5,59.49V78.008L.968,71.93,0,65.092Z" transform="translate(0 29.138)" fill="#80aeff"/>
  <path id="Tracé_4755" data-name="Tracé 4755" d="M27.717,55.082l-8.581-4.961L10.57,45.16v39.3l8.566,4.961,8.581,4.961v-39.3Z" transform="translate(5.177 22.119)" fill="#5a86ec"/>
  <path id="Tracé_4756" data-name="Tracé 4756" d="M11.03,83.686l7.881,4.559,7.9,4.574V55.082l-7.9-4.559L11.03,45.95V83.686Z" transform="translate(5.402 22.506)" fill="#fff"/>
  <path id="Tracé_4757" data-name="Tracé 4757" d="M25.481,55.09l-6.9-3.978L11.7,47.12V82.532l6.883,3.978,6.9,3.993V55.09Z" transform="translate(5.73 23.079)" fill="#5a86ec"/>
  <path id="Tracé_4758" data-name="Tracé 4758" d="M30.523,70.67v12.4L19.96,89.158V76.748Z" transform="translate(9.776 34.613)" fill="#6b9df2"/>
  <path id="Tracé_4759" data-name="Tracé 4759" d="M0,65.253,14.868,73.82l14.868,8.566L40.3,76.293l-.864-.492-9.7,5.6L1.728,65.253l9.773-5.6-.849-.492Z" transform="translate(0 28.976)" fill="#d9e7ff"/>
  <path id="Tracé_4760" data-name="Tracé 4760" d="M29.736,80.383v12.41L14.868,84.226,0,75.645V63.25l14.868,8.566Z" transform="translate(0 30.979)" fill="#9abfff"/>
  <path id="Tracé_4761" data-name="Tracé 4761" d="M32.551,71.621V90.139L22.018,84.106l-.968-6.838S32.6,71.443,32.551,71.621Z" transform="translate(10.31 35.078)" fill="#80aeff"/>
  <path id="Tracé_4762" data-name="Tracé 4762" d="M48.767,67.212l-8.581-4.961L31.62,57.29v39.3l8.566,4.961,8.581,4.946V67.212Z" transform="translate(15.487 28.06)" fill="#5a86ec"/>
  <path id="Tracé_4763" data-name="Tracé 4763" d="M32.08,95.8l7.881,4.574,7.9,4.559V67.212l-7.9-4.574L32.08,58.08V95.8Z" transform="translate(15.712 28.447)" fill="#fff"/>
  <path id="Tracé_4764" data-name="Tracé 4764" d="M46.516,67.22l-6.883-3.993L32.75,59.25v35.4l6.883,3.993,6.883,3.978V67.22Z" transform="translate(16.041 29.02)" fill="#5a86ec"/>
  <path id="Tracé_4765" data-name="Tracé 4765" d="M51.558,82.79V95.2L41.01,101.278v-12.4Z" transform="translate(20.086 40.55)" fill="#c9ddff"/>
  <path id="Tracé_4766" data-name="Tracé 4766" d="M21.05,77.368,35.918,85.95l14.868,8.566,10.548-6.093-.849-.492-9.7,5.587L22.778,77.383l9.773-5.6L31.7,71.29Z" transform="translate(10.31 34.917)" fill="#d9e7ff"/>
  <path id="Tracé_4767" data-name="Tracé 4767" d="M50.786,92.517v12.4L35.918,96.346,21.05,87.78V75.37l14.868,8.581Z" transform="translate(10.31 36.916)" fill="#9abfff"/>
  <path id="Tracé_4768" data-name="Tracé 4768" d="M11.5,93.26v18.518L.968,105.7,0,98.862Z" transform="translate(0 45.678)" fill="#80aeff"/>
  <path id="Tracé_4769" data-name="Tracé 4769" d="M27.717,88.852l-8.581-4.961L10.57,78.93v39.3l8.566,4.961,8.581,4.961v-39.3Z" transform="translate(5.177 38.659)" fill="#5a86ec"/>
  <path id="Tracé_4770" data-name="Tracé 4770" d="M11.03,117.456l7.881,4.559,7.9,4.574V88.852l-7.9-4.559L11.03,79.72v37.736Z" transform="translate(5.402 39.046)" fill="#fff"/>
  <path id="Tracé_4771" data-name="Tracé 4771" d="M25.481,88.86l-6.9-3.978L11.7,80.89V116.3l6.883,3.978,6.9,3.993V88.86Z" transform="translate(5.73 39.619)" fill="#5a86ec"/>
  <path id="Tracé_4772" data-name="Tracé 4772" d="M30.523,104.44v12.4L19.96,122.928v-12.41Z" transform="translate(9.776 51.154)" fill="#6b9df2"/>
  <path id="Tracé_4773" data-name="Tracé 4773" d="M0,99.023l14.868,8.566,14.868,8.566L40.3,110.077l-.864-.507-9.7,5.6L1.728,99.023l9.773-5.6-.849-.492Z" transform="translate(0 45.516)" fill="#d9e7ff"/>
  <path id="Tracé_4774" data-name="Tracé 4774" d="M29.736,114.153v12.41L14.868,118,0,109.415V97.02l14.868,8.566Z" transform="translate(0 47.52)" fill="#9abfff"/>
  <path id="Tracé_4775" data-name="Tracé 4775" d="M32.551,105.391v18.518l-10.533-6.093-.968-6.838S32.6,105.227,32.551,105.391Z" transform="translate(10.31 51.618)" fill="#80aeff"/>
  <path id="Tracé_4776" data-name="Tracé 4776" d="M48.767,100.982l-8.581-4.961L31.62,91.06v39.3l8.566,4.961,8.581,4.961v-39.3Z" transform="translate(15.487 44.6)" fill="#5a86ec"/>
  <path id="Tracé_4777" data-name="Tracé 4777" d="M32.08,129.571l7.881,4.574,7.9,4.574V100.982l-7.9-4.574L32.08,91.85v37.721Z" transform="translate(15.712 44.987)" fill="#fff"/>
  <path id="Tracé_4778" data-name="Tracé 4778" d="M46.516,100.99,39.633,97,32.75,93.02v35.4l6.883,3.993,6.883,3.978v-35.4Z" transform="translate(16.041 45.561)" fill="#5a86ec"/>
  <path id="Tracé_4779" data-name="Tracé 4779" d="M51.558,116.56v12.41L41.01,135.063v-12.41Z" transform="translate(20.086 57.09)" fill="#c9ddff"/>
  <path id="Tracé_4780" data-name="Tracé 4780" d="M21.05,111.138l14.868,8.581,14.868,8.566,10.548-6.093-.849-.492-9.7,5.587L22.778,111.153l9.773-5.6-.849-.492Z" transform="translate(10.31 51.458)" fill="#d9e7ff"/>
  <path id="Tracé_4781" data-name="Tracé 4781" d="M50.786,126.287V138.7l-14.868-8.581L21.05,121.55V109.14l14.868,8.581Z" transform="translate(10.31 53.456)" fill="#9abfff"/>
  <path id="Tracé_4782" data-name="Tracé 4782" d="M11.5,127.03v18.518L.968,139.47,0,132.632Z" transform="translate(0 62.218)" fill="#80aeff"/>
  <path id="Tracé_4783" data-name="Tracé 4783" d="M27.717,122.622l-8.581-4.961L10.57,112.7V152l8.566,4.961,8.581,4.961v-39.3Z" transform="translate(5.177 55.199)" fill="#5a86ec"/>
  <path id="Tracé_4784" data-name="Tracé 4784" d="M11.03,151.226l7.881,4.559,7.9,4.574V122.622l-7.9-4.559L11.03,113.49v37.736Z" transform="translate(5.402 55.586)" fill="#fff"/>
  <path id="Tracé_4785" data-name="Tracé 4785" d="M25.481,122.63l-6.9-3.978L11.7,114.66v35.412l6.883,3.978,6.9,3.993V122.63Z" transform="translate(5.73 56.159)" fill="#5a86ec"/>
  <path id="Tracé_4786" data-name="Tracé 4786" d="M30.523,138.21v12.4L19.96,156.7v-12.41Z" transform="translate(9.776 67.694)" fill="#6b9df2"/>
  <path id="Tracé_4787" data-name="Tracé 4787" d="M0,132.793l14.868,8.566,14.868,8.566L40.3,143.848l-.864-.507-9.7,5.6L1.728,132.793l9.773-5.6-.849-.492Z" transform="translate(0 62.057)" fill="#d9e7ff"/>
  <path id="Tracé_4788" data-name="Tracé 4788" d="M29.736,147.923v12.41l-14.868-8.566L0,143.2V130.79l14.868,8.566Z" transform="translate(0 64.06)" fill="#9abfff"/>
  <path id="Tracé_4789" data-name="Tracé 4789" d="M32.551,139.161v18.518L22.018,151.6l-.968-6.838S32.6,139,32.551,139.161Z" transform="translate(10.31 68.158)" fill="#80aeff"/>
  <path id="Tracé_4790" data-name="Tracé 4790" d="M48.767,134.752l-8.581-4.961L31.62,124.83v39.3l8.566,4.961,8.581,4.961v-39.3Z" transform="translate(15.487 61.141)" fill="#5a86ec"/>
  <path id="Tracé_4791" data-name="Tracé 4791" d="M32.08,163.341l7.881,4.574,7.9,4.574V134.752l-7.9-4.559L32.08,125.62v37.721Z" transform="translate(15.712 61.527)" fill="#fff"/>
  <path id="Tracé_4792" data-name="Tracé 4792" d="M46.516,134.76l-6.883-3.978L32.75,126.79V162.2l6.883,3.978,6.883,3.993V134.76Z" transform="translate(16.041 62.101)" fill="#5a86ec"/>
  <path id="Tracé_4793" data-name="Tracé 4793" d="M51.558,150.33v12.41L41.01,168.833v-12.41Z" transform="translate(20.086 73.63)" fill="#c9ddff"/>
  <path id="Tracé_4794" data-name="Tracé 4794" d="M21.05,144.908l14.868,8.581,14.868,8.566,10.548-6.093-.849-.492-9.7,5.587L22.778,144.923l9.773-5.6-.849-.492Z" transform="translate(10.31 67.998)" fill="#d9e7ff"/>
  <path id="Tracé_4795" data-name="Tracé 4795" d="M50.786,160.053v12.41L35.918,163.9,21.05,155.315v-12.4l14.868,8.566Z" transform="translate(10.31 70.001)" fill="#9abfff"/>
  <path id="Tracé_4796" data-name="Tracé 4796" d="M11.5,160.8v18.533L.968,173.24,0,166.4Z" transform="translate(0 78.758)" fill="#80aeff"/>
  <path id="Tracé_4797" data-name="Tracé 4797" d="M27.717,156.392l-8.581-4.961L10.57,146.47v39.3l8.566,4.961,8.581,4.961v-39.3Z" transform="translate(5.177 71.74)" fill="#5a86ec"/>
  <path id="Tracé_4798" data-name="Tracé 4798" d="M11.03,185l7.881,4.574,7.9,4.559V156.407l-7.9-4.574L11.03,147.26V185Z" transform="translate(5.402 72.126)" fill="#fff"/>
  <path id="Tracé_4799" data-name="Tracé 4799" d="M25.481,156.4l-6.9-3.978L11.7,148.44v35.4l6.883,3.993,6.9,3.978V156.4Z" transform="translate(5.73 72.705)" fill="#5a86ec"/>
  <path id="Tracé_4800" data-name="Tracé 4800" d="M30.523,171.98v12.41L19.96,190.468v-12.41Z" transform="translate(9.776 84.234)" fill="#6b9df2"/>
  <path id="Tracé_4801" data-name="Tracé 4801" d="M0,166.563l14.868,8.566L29.736,183.7,40.3,177.617l-.864-.507-9.7,5.6L1.728,166.563l9.773-5.6-.849-.492Z" transform="translate(0 78.597)" fill="#d9e7ff"/>
  <path id="Tracé_4802" data-name="Tracé 4802" d="M29.736,181.693V194.1l-14.868-8.566L0,176.97V164.56l14.868,8.566Z" transform="translate(0 80.6)" fill="#9abfff"/>
  <path id="Tracé_4803" data-name="Tracé 4803" d="M32.551,172.931v18.518l-10.533-6.078-.968-6.838S32.6,172.767,32.551,172.931Z" transform="translate(10.31 84.698)" fill="#80aeff"/>
  <path id="Tracé_4804" data-name="Tracé 4804" d="M48.767,168.522l-8.581-4.961L31.62,158.6v39.3l8.566,4.961,8.581,4.961v-39.3Z" transform="translate(15.487 77.681)" fill="#5a86ec"/>
  <path id="Tracé_4805" data-name="Tracé 4805" d="M32.08,197.126l7.881,4.559,7.9,4.574V168.522l-7.9-4.559L32.08,159.39v37.736Z" transform="translate(15.712 78.067)" fill="#fff"/>
  <path id="Tracé_4806" data-name="Tracé 4806" d="M46.516,168.53l-6.883-3.978L32.75,160.56v35.412l6.883,3.978,6.883,3.993V168.53Z" transform="translate(16.041 78.641)" fill="#5a86ec"/>
  <path id="Tracé_4807" data-name="Tracé 4807" d="M51.558,184.1v12.41L41.01,202.6v-12.41Z" transform="translate(20.086 90.17)" fill="#c9ddff"/>
  <path id="Tracé_4808" data-name="Tracé 4808" d="M21.05,178.693l14.868,8.566,14.868,8.566,10.548-6.093-.849-.492-9.7,5.6L22.778,178.693l9.773-5.6L31.7,172.6Z" transform="translate(10.31 84.538)" fill="#d9e7ff"/>
  <path id="Tracé_4809" data-name="Tracé 4809" d="M50.786,193.823v12.41l-14.868-8.566L21.05,189.085v-12.4l14.868,8.566Z" transform="translate(10.31 86.541)" fill="#9abfff"/>
  <path id="Tracé_4810" data-name="Tracé 4810" d="M98.679,174.51V213.3l-1.088.626-1.088.626-16.462,9.52-1.088.626-1.088.626L73.7,227.74l-1.088.626-1.088.626v-38.7Z" transform="translate(35.03 85.473)" fill="#5a86ec"/>
  <path id="Tracé_4811" data-name="Tracé 4811" d="M97.234,175.77v37.543l-1.088.626-16.462,9.52-1.088.626-1.088.626-4.171,2.413-1.088.626V190.281Z" transform="translate(35.387 86.09)" fill="#fff"/>
  <path id="Tracé_4812" data-name="Tracé 4812" d="M95.789,177.03v36.291l-16.462,9.52-1.088.626-1.088.626-4.171,2.413V190.289Z" transform="translate(35.745 86.708)" fill="#5a86ec"/>
  <path id="Tracé_4813" data-name="Tracé 4813" d="M88.275,192.415V179.99l-3.635,2.1v12.425Z" transform="translate(41.456 88.157)" fill="#fff"/>
  <path id="Tracé_4814" data-name="Tracé 4814" d="M84.95,193.446l2.711-1.564V180.53l-2.711,1.564Z" transform="translate(41.607 88.422)" fill="#5a86ec"/>
  <path id="Tracé_4815" data-name="Tracé 4815" d="M83.05,195.455V183.03l-3.62,2.1v12.425Z" transform="translate(38.904 89.646)" fill="#fff"/>
  <path id="Tracé_4816" data-name="Tracé 4816" d="M79.73,196.491l2.726-1.564V183.56l-2.726,1.579Z" transform="translate(39.051 89.906)" fill="#5a86ec"/>
  <path id="Tracé_4817" data-name="Tracé 4817" d="M77.845,198.495V186.07l-3.635,2.1v12.41Z" transform="translate(36.347 91.135)" fill="#fff"/>
  <path id="Tracé_4818" data-name="Tracé 4818" d="M74.52,199.531l2.711-1.564V186.6l-2.711,1.579Z" transform="translate(36.499 91.395)" fill="#5a86ec"/>
  <path id="Tracé_4819" data-name="Tracé 4819" d="M70.83,189.4v18.056l26.98-15.941V173.76Z" transform="translate(34.692 85.106)" fill="#3f72df" opacity="0.2"/>
  <g id="Groupe_45" data-name="Groupe 45" transform="translate(105.522 257.302)">
    <path id="Tracé_4820" data-name="Tracé 4820" d="M105.81,177.37v1.281L78.83,194.592v-1.281Z" transform="translate(-66.912 -170.428)" fill="#5a86ec"/>
    <path id="Tracé_4821" data-name="Tracé 4821" d="M82.748,190.357v1.281L70.83,184.681V183.4Z" transform="translate(-70.83 -167.474)" fill="#4771d1"/>
    <path id="Tracé_4822" data-name="Tracé 4822" d="M109.728,179.652l-26.98,15.941L70.83,188.636,97.81,172.71Z" transform="translate(-70.83 -172.71)" fill="#9bb9e8"/>
  </g>
</svg>
