<svg xmlns="http://www.w3.org/2000/svg" xmlns:xlink="http://www.w3.org/1999/xlink" width="1920" height="671" viewBox="0 0 1920 671">
  <defs>
    <linearGradient id="linear-gradient" x1="0.4" y1="1.189" x2="0.476" y2="0.223" gradientUnits="objectBoundingBox">
      <stop offset="0" stop-color="#ced6ff"/>
      <stop offset="1" stop-color="#5493ff"/>
    </linearGradient>
    <clipPath id="clip-path">
      <rect id="BG_Mask" data-name="BG Mask" width="1920" height="671" transform="translate(0 3585)" fill="#fff"/>
    </clipPath>
    <clipPath id="clip-path-2">
      <rect id="Rectangle_301" data-name="Rectangle 301" width="1920" height="673" transform="translate(1013.216 1792.945)" fill="#fff"/>
    </clipPath>
    <clipPath id="clip-path-3">
      <ellipse id="Ellipse_68" data-name="Ellipse 68" cx="2089.5" cy="502.5" rx="2089.5" ry="502.5" transform="translate(-117.784 1790.51)" fill="url(#linear-gradient)"/>
    </clipPath>
  </defs>
  <g id="The_All_Footer_BG" data-name="The All Footer BG" transform="translate(0 -3585)" clip-path="url(#clip-path)">
    <g id="Footer_BG" data-name="Footer BG" transform="translate(-1013.216 1794.49)">
      <g id="Footer_BG_Circle" data-name="Footer BG Circle" clip-path="url(#clip-path-2)">
        <ellipse id="Ellipse_58" data-name="Ellipse 58" cx="2089.5" cy="502.5" rx="2089.5" ry="502.5" transform="translate(-117.784 1790.51)" fill="url(#linear-gradient)"/>
      </g>
      <g id="Houses" opacity="0.3" clip-path="url(#clip-path-3)">
        <g id="Houses_Motif" data-name="Houses Motif" transform="translate(2928.146 2964.637) rotate(-170)">
          <g id="House_Motif" data-name="House Motif" transform="translate(92.676 185.022)">
            <g id="Groupe_35" data-name="Groupe 35" transform="translate(0 349.269)">
              <path id="icons8_dog_house" d="M20.5,35.407,0,16.86H5.589V0H35.405V16.86h5.589Zm3.727-31.66H16.77v5.62a3.727,3.727,0,1,0,7.454,0Zm7.454,0H27.951v5.62a7.454,7.454,0,1,1-14.908,0V3.747H9.316v16.5L20.5,30.366,31.678,20.249Z" transform="translate(21.551 217.928) rotate(20)" fill="#5493ff"/>
              <path id="icons8_school_house" d="M19.588,35.407,7.326,29.214l1.58-3.328,1.681.85V18.81L4.9,15.276a1.789,1.789,0,0,1-1.13-.7L0,12.238,1.853,9.062,3.4,10.02V0H17.777V5.556h3.595V0H35.75V10.234l1.559-.948,1.825,3.19L28.561,18.908v7.629l1.653-.868,1.636,3.3Zm-.028-4.138,5.406-2.84V21.1l-5.4,3.285-5.381-3.339v7.51Zm.025-11.2L24.966,16.8v-.127h.207l6.982-4.247V3.7H24.966V9.261H14.182V3.7H6.993v8.548l7.116,4.417h.074v.047Z" transform="matrix(0.719, 0.695, -0.695, 0.719, 24.596, 81.189)" fill="#5493ff"/>
              <path id="icons8_home_page" d="M20.5,35.407,0,16.86H5.591V0H16.772V11.24h7.454V0H35.407V16.86H41L33.543,23.6v8.243H29.816v-4.87Zm0-5.042L31.68,20.248V3.747H27.953v11.24H13.045V3.747H9.318v16.5Z" transform="matrix(0.999, -0.035, 0.035, 0.999, 220.549, 118.492)" fill="#5493ff"/>
              <path id="icons8_school_house-2" data-name="icons8_school_house" d="M19.588,35.407,7.326,29.214l1.58-3.328,1.681.85V18.81L4.9,15.276a1.789,1.789,0,0,1-1.13-.7L0,12.238,1.853,9.062,3.4,10.02V0H17.777V5.556h3.595V0H35.75V10.234l1.559-.948,1.825,3.19L28.561,18.908v7.629l1.653-.868,1.636,3.3Zm-.028-4.138,5.406-2.84V21.1l-5.4,3.285-5.381-3.339v7.51Zm.025-11.2L24.966,16.8v-.127h.207l6.982-4.247V3.7H24.966V9.261H14.182V3.7H6.993v8.548l7.116,4.417h.074v.047Z" transform="translate(416.879 199.989) rotate(9)" fill="#5493ff"/>
              <path id="icons8_hut_1" d="M19.567,35.407a5.169,5.169,0,0,1-2.641-.826,22.318,22.318,0,0,1-2.69-1.76,60.908,60.908,0,0,1-6.1-5.321,57.217,57.217,0,0,1-5.457-6.116C1.2,19.42,0,17.91,0,15.736a1.962,1.962,0,0,1,1.957-1.967H5.87V1.967A1.962,1.962,0,0,1,7.827,0H31.307a1.962,1.962,0,0,1,1.957,1.967v11.8h3.913a1.962,1.962,0,0,1,1.957,1.967c0,2.174-1.2,3.684-2.675,5.648A57.26,57.26,0,0,1,31,27.5a60.929,60.929,0,0,1-6.1,5.321,22.259,22.259,0,0,1-2.69,1.756A5.171,5.171,0,0,1,19.567,35.407Zm0-3.965a4.766,4.766,0,0,0,.8-.334,19.065,19.065,0,0,0,2.205-1.448,57.7,57.7,0,0,0,5.69-4.968,54.07,54.07,0,0,0,5.075-5.678,5.856,5.856,0,0,0,.753-1.31H5.045a5.849,5.849,0,0,0,.753,1.31,54.081,54.081,0,0,0,5.075,5.678,57.676,57.676,0,0,0,5.69,4.968,19.045,19.045,0,0,0,2.205,1.448A4.778,4.778,0,0,0,19.567,31.442ZM9.784,13.769H29.351V3.934H23.48V7.868a3.913,3.913,0,1,1-7.827,0V3.934H9.784Z" transform="translate(161.993 185.685) rotate(41)" fill="#5493ff"/>
              <path id="icons8_residence" d="M10.359,33.543A3.74,3.74,0,0,1,7.086,31.6L0,18.635H3.662V3.727A3.755,3.755,0,0,1,7.389,0H33.478A3.755,3.755,0,0,1,37.2,3.727V18.635H41L33.776,31.629h0a3.736,3.736,0,0,1-3.254,1.914Zm0-3.727h20.16v0l4.149-7.45h-6.34l-7.894,3.945-7.895-3.945H6.282Zm10.075-7.672,5.591-2.8V3.727H22.3V9.318a1.864,1.864,0,1,1-3.727,0V3.727H14.843V19.349ZM7.389,18.635h3.727V3.727H7.389Zm13.045,0A1.864,1.864,0,1,1,22.3,16.772,1.864,1.864,0,0,1,20.433,18.635Zm9.318,0h3.727V3.727H29.751Z" transform="translate(331.701 55.726) rotate(-13)" fill="#5493ff"/>
              <path id="icons8_roofing" d="M29.816,20.5V13.645l-7.454,6.821L0,0H5.521L22.362,15.414,39.2,0h5.521L41,3.41V20.5Zm3.727-3.727H37.27V6.821l-3.727,3.414Z" transform="translate(235.099 18.074) rotate(-7)" fill="#5493ff"/>
              <path id="icons8_warehouse" d="M16.772,33.743,2.213,27.272A3.737,3.737,0,0,1,0,23.869V.025H9a1.864,1.864,0,0,1,.608,0h14.3a1.864,1.864,0,0,1,.608,0h9.023V23.869a3.737,3.737,0,0,1-2.213,3.4l0,0Zm0-4.076,13.045-5.8V3.752H26.089V20.524H7.454V3.752H3.727V23.869ZM11.181,16.8H22.362V3.752H18.635V5.616H14.908V3.752H11.181Z" transform="matrix(0.839, 0.545, -0.545, 0.839, 71.042, 6.795)" fill="#5493ff"/>
              <path id="icons8_dog_house-2" data-name="icons8_dog_house" d="M20.5,35.407,0,16.86H5.589V0H35.405V16.86h5.589Zm3.727-31.66H16.77v5.62a3.727,3.727,0,1,0,7.454,0Zm7.454,0H27.951v5.62a7.454,7.454,0,1,1-14.908,0V3.747H9.316v16.5L20.5,30.366,31.678,20.249Z" transform="matrix(0.914, 0.407, -0.407, 0.914, 593.472, 167.722)" fill="#5493ff"/>
              <path id="icons8_dog_house-3" data-name="icons8_dog_house" d="M25.636,48.185l25.636-25.24h-6.99V0H6.99V22.945H0ZM20.975,5.1H30.3v7.648a4.9,4.9,0,0,1-4.662,5.1,4.9,4.9,0,0,1-4.662-5.1Zm-9.323,0h4.662v7.648c0,5.632,4.174,10.2,9.323,10.2s9.323-4.566,9.323-10.2V5.1h4.662V27.557L25.636,41.325,11.652,27.557Z" transform="translate(510.319 0) rotate(20)" fill="#5493ff"/>
              <path id="icons8_hut_1-2" data-name="icons8_hut_1" d="M19.567,35.407a5.169,5.169,0,0,1-2.641-.826,22.319,22.319,0,0,1-2.69-1.76,60.909,60.909,0,0,1-6.1-5.321,57.217,57.217,0,0,1-5.457-6.116C1.2,19.42,0,17.91,0,15.736a1.962,1.962,0,0,1,1.957-1.967H5.87V1.967A1.962,1.962,0,0,1,7.827,0H31.307a1.962,1.962,0,0,1,1.957,1.967v11.8h3.913a1.962,1.962,0,0,1,1.957,1.967c0,2.174-1.2,3.684-2.675,5.648A57.26,57.26,0,0,1,31,27.5a60.93,60.93,0,0,1-6.1,5.321,22.26,22.26,0,0,1-2.69,1.756A5.171,5.171,0,0,1,19.567,35.407Zm0-3.965a4.766,4.766,0,0,0,.8-.334,19.065,19.065,0,0,0,2.205-1.448,57.7,57.7,0,0,0,5.69-4.968,54.07,54.07,0,0,0,5.075-5.678,5.856,5.856,0,0,0,.753-1.31H5.045a5.849,5.849,0,0,0,.753,1.31,54.081,54.081,0,0,0,5.075,5.678,57.676,57.676,0,0,0,5.69,4.968,19.045,19.045,0,0,0,2.205,1.448A4.778,4.778,0,0,0,19.567,31.442ZM9.784,13.769H29.351V3.934H23.48V7.868a3.913,3.913,0,1,1-7.827,0V3.934H9.784Z" transform="translate(709.901 113.881) rotate(-21)" fill="#5493ff"/>
            </g>
            <g id="Groupe_36" data-name="Groupe 36" transform="translate(24.385 87.308) rotate(-8)">
              <g id="House_Icons" data-name="House Icons" transform="translate(519.097 168.038)">
                <path id="icons8_home_page-2" data-name="icons8_home_page" d="M20.5,0,0,18.547H5.591v16.86H16.772V24.167h7.454v11.24H35.407V18.547H41L33.543,11.8V3.56H29.816V8.43Zm0,5.042L31.68,15.159v16.5H27.953V20.42H13.045V31.66H9.318v-16.5Z" transform="translate(103.311 125.894) rotate(-172)" fill="#5493ff"/>
                <path id="icons8_hut_1-3" data-name="icons8_hut_1" d="M19.567,0a5.169,5.169,0,0,0-2.641.826,22.318,22.318,0,0,0-2.69,1.76,60.908,60.908,0,0,0-6.1,5.321,57.217,57.217,0,0,0-5.457,6.116C1.2,15.987,0,17.5,0,19.671a1.962,1.962,0,0,0,1.957,1.967H5.87v11.8a1.962,1.962,0,0,0,1.957,1.967H31.307a1.962,1.962,0,0,0,1.957-1.967v-11.8h3.913a1.962,1.962,0,0,0,1.957-1.967c0-2.174-1.2-3.684-2.675-5.648A57.259,57.259,0,0,0,31,7.907a60.929,60.929,0,0,0-6.1-5.321A22.26,22.26,0,0,0,22.208.83,5.171,5.171,0,0,0,19.567,0Zm0,3.965a4.767,4.767,0,0,1,.8.334,19.065,19.065,0,0,1,2.205,1.448,57.7,57.7,0,0,1,5.69,4.968,54.069,54.069,0,0,1,5.075,5.678,5.856,5.856,0,0,1,.753,1.31H5.045a5.849,5.849,0,0,1,.753-1.31,54.081,54.081,0,0,1,5.075-5.678,57.676,57.676,0,0,1,5.69-4.968A19.045,19.045,0,0,1,18.768,4.3,4.778,4.778,0,0,1,19.567,3.965ZM9.784,21.638H29.351v9.835H23.48V27.539a3.913,3.913,0,1,0-7.827,0v3.934H9.784Z" transform="translate(46.096 34.499) rotate(167)" fill="#5493ff"/>
              </g>
              <path id="icons8_home_page-3" data-name="icons8_home_page" d="M20.5,0,0,18.547H5.591v16.86H16.772V24.167h7.454v11.24H35.407V18.547H41L33.543,11.8V3.56H29.816V8.43Zm0,5.042L31.68,15.159v16.5H27.953V20.42H13.045V31.66H9.318v-16.5Z" transform="matrix(-0.999, -0.035, 0.035, -0.999, 445.5, 195.053)" fill="#5493ff"/>
              <path id="icons8_hut_1-4" data-name="icons8_hut_1" d="M19.567,0a5.169,5.169,0,0,0-2.641.826,22.318,22.318,0,0,0-2.69,1.76,60.909,60.909,0,0,0-6.1,5.321,57.217,57.217,0,0,0-5.457,6.116C1.2,15.987,0,17.5,0,19.671a1.962,1.962,0,0,0,1.957,1.967H5.87v11.8a1.962,1.962,0,0,0,1.957,1.967H31.307a1.962,1.962,0,0,0,1.957-1.967v-11.8h3.913a1.962,1.962,0,0,0,1.957-1.967c0-2.174-1.2-3.684-2.675-5.648A57.26,57.26,0,0,0,31,7.907a60.93,60.93,0,0,0-6.1-5.321A22.26,22.26,0,0,0,22.208.83,5.171,5.171,0,0,0,19.567,0Zm0,3.965a4.767,4.767,0,0,1,.8.334,19.065,19.065,0,0,1,2.205,1.448,57.7,57.7,0,0,1,5.69,4.968,54.069,54.069,0,0,1,5.075,5.678,5.856,5.856,0,0,1,.753,1.31H5.045a5.849,5.849,0,0,1,.753-1.31,54.081,54.081,0,0,1,5.075-5.678,57.677,57.677,0,0,1,5.69-4.968A19.046,19.046,0,0,1,18.768,4.3,4.779,4.779,0,0,1,19.567,3.965ZM9.784,21.638H29.351v9.835H23.48V27.539a3.913,3.913,0,1,0-7.827,0v3.934H9.784Z" transform="matrix(-0.995, -0.105, 0.105, -0.995, 348.768, 254.066)" fill="#5493ff"/>
              <path id="icons8_residence-2" data-name="icons8_residence" d="M10.359,0A3.74,3.74,0,0,0,7.086,1.94L0,14.908H3.662V29.816a3.755,3.755,0,0,0,3.727,3.727H33.478A3.755,3.755,0,0,0,37.2,29.816V14.908H41L33.776,1.914h0A3.736,3.736,0,0,0,30.519,0Zm0,3.727h20.16v0l4.149,7.45h-6.34L20.433,7.236l-7.895,3.945H6.282ZM20.433,11.4l5.591,2.8V29.816H22.3V24.226a1.864,1.864,0,1,0-3.727,0v5.591H14.843V14.195ZM7.389,14.908h3.727V29.816H7.389Zm13.045,0A1.864,1.864,0,1,0,22.3,16.772,1.864,1.864,0,0,0,20.433,14.908Zm9.318,0h3.727V29.816H29.751Z" transform="translate(231.135 204.127) rotate(-167)" fill="#5493ff"/>
              <path id="icons8_roofing-2" data-name="icons8_roofing" d="M29.816,0V6.854L22.362.033,0,20.5H5.521L22.362,5.085,39.2,20.5h5.521L41,17.088V0Zm3.727,3.727H37.27v9.951l-3.727-3.414Z" transform="translate(282.527 131.668) rotate(177)" fill="#5493ff"/>
              <path id="icons8_warehouse-2" data-name="icons8_warehouse" d="M16.772,0,2.213,6.471A3.737,3.737,0,0,0,0,9.875V33.718H9a1.864,1.864,0,0,0,.608,0h14.3a1.864,1.864,0,0,0,.608,0h9.023V9.874a3.737,3.737,0,0,0-2.213-3.4l0,0Zm0,4.076,13.045,5.8V29.991H26.089V13.219H7.454V29.991H3.727V9.875Zm-5.591,12.87H22.362V29.991H18.635V28.128H14.908v1.864H11.181Z" transform="matrix(-0.839, 0.545, -0.545, -0.839, 153.736, 28.299)" fill="#5493ff"/>
              <path id="icons8_dog_house-4" data-name="icons8_dog_house" d="M20.5,0,0,18.547H5.589v16.86H35.405V18.547h5.589Zm3.727,31.66H16.77V26.04a3.727,3.727,0,1,1,7.454,0Zm7.454,0H27.951V26.04a7.454,7.454,0,1,0-14.908,0v5.62H9.316v-16.5L20.5,5.041,31.678,15.158Z" transform="matrix(-0.914, 0.407, -0.407, -0.914, 125.485, 241.243)" fill="#5493ff"/>
              <path id="icons8_home_page-4" data-name="icons8_home_page" d="M20.5,0,0,18.547H5.591v16.86H16.772V24.167h7.454v11.24H35.407V18.547H41L33.543,11.8V3.56H29.816V8.43Zm0,5.042L31.68,15.159v16.5H27.953V20.42H13.045V31.66H9.318v-16.5Z" transform="translate(40.599 138.445) rotate(-172)" fill="#5493ff"/>
            </g>
          </g>
          <g id="House_Motif-2" data-name="House Motif" transform="translate(232.692 666.664)">
            <g id="Groupe_37" data-name="Groupe 37" transform="translate(0 0)">
              <path id="icons8_dog_house-5" data-name="icons8_dog_house" d="M20.5,0,0,18.547H5.589v16.86H35.405V18.547h5.589Zm3.727,31.66H16.77V26.04a3.727,3.727,0,1,1,7.454,0Zm7.454,0H27.951V26.04a7.454,7.454,0,1,0-14.908,0v5.62H9.316v-16.5L20.5,5.041,31.678,15.158Z" transform="translate(9.442 14.021) rotate(-20)" fill="#5493ff"/>
              <path id="icons8_school_house-3" data-name="icons8_school_house" d="M19.588,0,7.326,6.193l1.58,3.328,1.681-.85V16.6L4.9,20.131a1.789,1.789,0,0,0-1.13.7L0,23.169l1.853,3.176L3.4,25.387v10.02H17.777V29.851h3.595v5.556H35.75V25.173l1.559.948,1.825-3.19L28.561,16.5V8.87l1.653.868,1.636-3.3ZM19.56,4.138l5.406,2.84V14.31l-5.4-3.285-5.381,3.339V6.855Zm.025,11.2,5.381,3.274v.127h.207l6.982,4.247V31.7H24.966V26.146H14.182V31.7H6.993V23.155l7.116-4.417h.074v-.047Z" transform="matrix(0.719, -0.695, 0.695, 0.719, 0, 158.562)" fill="#5493ff"/>
              <path id="icons8_home_page-5" data-name="icons8_home_page" d="M20.5,0,0,18.547H5.591v16.86H16.772V24.167h7.454v11.24H35.407V18.547H41L33.543,11.8V3.56H29.816V8.43Zm0,5.042L31.68,15.159v16.5H27.953V20.42H13.045V31.66H9.318v-16.5Z" transform="matrix(0.999, 0.035, -0.035, 0.999, 221.785, 111.343)" fill="#5493ff"/>
              <path id="icons8_school_house-4" data-name="icons8_school_house" d="M19.588,0,7.326,6.193l1.58,3.328,1.681-.85V16.6L4.9,20.131a1.789,1.789,0,0,0-1.13.7L0,23.169l1.853,3.176L3.4,25.387v10.02H17.777V29.851h3.595v5.556H35.75V25.173l1.559.948,1.825-3.19L28.561,16.5V8.87l1.653.868,1.636-3.3ZM19.56,4.138l5.406,2.84V14.31l-5.4-3.285-5.381,3.339V6.855Zm.025,11.2,5.381,3.274v.127h.207l6.982,4.247V31.7H24.966V26.146H14.182V31.7H6.993V23.155l7.116-4.417h.074v-.047Z" transform="translate(411.34 30.261) rotate(-9)" fill="#5493ff"/>
              <path id="icons8_hut_1-5" data-name="icons8_hut_1" d="M19.567,0a5.169,5.169,0,0,0-2.641.826,22.318,22.318,0,0,0-2.69,1.76,60.908,60.908,0,0,0-6.1,5.321,57.217,57.217,0,0,0-5.457,6.116C1.2,15.987,0,17.5,0,19.671a1.962,1.962,0,0,0,1.957,1.967H5.87v11.8a1.962,1.962,0,0,0,1.957,1.967H31.307a1.962,1.962,0,0,0,1.957-1.967v-11.8h3.913a1.962,1.962,0,0,0,1.957-1.967c0-2.174-1.2-3.684-2.675-5.648A57.26,57.26,0,0,0,31,7.907a60.929,60.929,0,0,0-6.1-5.321A22.259,22.259,0,0,0,22.208.83,5.171,5.171,0,0,0,19.567,0Zm0,3.965a4.766,4.766,0,0,1,.8.334,19.065,19.065,0,0,1,2.205,1.448,57.7,57.7,0,0,1,5.69,4.968,54.069,54.069,0,0,1,5.075,5.678,5.856,5.856,0,0,1,.753,1.31H5.045a5.849,5.849,0,0,1,.753-1.31,54.081,54.081,0,0,1,5.075-5.678,57.677,57.677,0,0,1,5.69-4.968A19.045,19.045,0,0,1,18.768,4.3,4.778,4.778,0,0,1,19.567,3.965ZM9.784,21.638H29.351v9.835H23.48V27.539a3.913,3.913,0,1,0-7.827,0v3.934H9.784Z" transform="translate(138.764 52.814) rotate(-41)" fill="#5493ff"/>
              <path id="icons8_residence-3" data-name="icons8_residence" d="M10.359,0A3.74,3.74,0,0,0,7.086,1.94L0,14.908H3.662V29.816a3.755,3.755,0,0,0,3.727,3.727H33.478A3.755,3.755,0,0,0,37.2,29.816V14.908H41L33.776,1.914h0A3.736,3.736,0,0,0,30.519,0Zm0,3.727h20.16v0l4.149,7.45h-6.34L20.433,7.236l-7.895,3.945H6.282ZM20.433,11.4l5.591,2.8V29.816H22.3V24.226a1.864,1.864,0,1,0-3.727,0v5.591H14.843V14.195ZM7.389,14.908h3.727V29.816H7.389Zm13.045,0A1.864,1.864,0,1,0,22.3,16.772,1.864,1.864,0,0,0,20.433,14.908Zm9.318,0h3.727V29.816H29.751Z" transform="translate(339.247 176.811) rotate(13)" fill="#5493ff"/>
              <path id="icons8_roofing-3" data-name="icons8_roofing" d="M29.816,0V6.853L22.362.033,0,20.5H5.521L22.362,5.085,39.2,20.5h5.521L41,17.088V0Zm3.727,3.727H37.27v9.951l-3.727-3.414Z" transform="translate(237.597 226.801) rotate(7)" fill="#5493ff"/>
              <path id="icons8_warehouse-3" data-name="icons8_warehouse" d="M16.772,0,2.213,6.471A3.737,3.737,0,0,0,0,9.874V33.718H9a1.864,1.864,0,0,0,.608,0h14.3a1.864,1.864,0,0,0,.608,0h9.023V9.875a3.737,3.737,0,0,0-2.213-3.4l0,0Zm0,4.076,13.045,5.8V29.991H26.089V13.219H7.454V29.991H3.727V9.874Zm-5.591,12.87H22.362V29.991H18.635V28.128H14.908v1.864H11.181Z" transform="matrix(0.839, -0.545, 0.545, 0.839, 52.664, 230.126)" fill="#5493ff"/>
              <path id="icons8_dog_house-6" data-name="icons8_dog_house" d="M20.5,0,0,18.546H5.589v16.86H35.405V18.546h5.589Zm3.727,31.66H16.77V26.04a3.727,3.727,0,1,1,7.454,0Zm7.454,0H27.951V26.04a7.454,7.454,0,1,0-14.908,0v5.62H9.316v-16.5L20.5,5.041,31.678,15.158Z" transform="matrix(0.914, -0.407, 0.407, 0.914, 579.07, 65.153)" fill="#5493ff"/>
              <path id="icons8_hut_1-6" data-name="icons8_hut_1" d="M19.567,0a5.169,5.169,0,0,0-2.641.826,22.319,22.319,0,0,0-2.69,1.76,60.908,60.908,0,0,0-6.1,5.321,57.217,57.217,0,0,0-5.457,6.116C1.2,15.987,0,17.5,0,19.671a1.962,1.962,0,0,0,1.957,1.967H5.87v11.8a1.962,1.962,0,0,0,1.957,1.967H31.307a1.962,1.962,0,0,0,1.957-1.967v-11.8h3.913a1.962,1.962,0,0,0,1.957-1.967c0-2.174-1.2-3.684-2.675-5.648A57.26,57.26,0,0,0,31,7.907a60.929,60.929,0,0,0-6.1-5.321A22.259,22.259,0,0,0,22.208.83,5.171,5.171,0,0,0,19.567,0Zm0,3.965a4.766,4.766,0,0,1,.8.334,19.065,19.065,0,0,1,2.205,1.448,57.7,57.7,0,0,1,5.69,4.968,54.069,54.069,0,0,1,5.075,5.678,5.856,5.856,0,0,1,.753,1.31H5.045a5.849,5.849,0,0,1,.753-1.31,54.081,54.081,0,0,1,5.075-5.678,57.677,57.677,0,0,1,5.69-4.968A19.045,19.045,0,0,1,18.768,4.3,4.778,4.778,0,0,1,19.567,3.965ZM9.784,21.638H29.351v9.835H23.48V27.539a3.913,3.913,0,1,0-7.827,0v3.934H9.784Z" transform="translate(722.589 118.284) rotate(21)" fill="#5493ff"/>
            </g>
            <g id="Groupe_38" data-name="Groupe 38" transform="translate(65.292 236.11) rotate(8)">
              <g id="House_Icons-2" data-name="House Icons" transform="translate(519.097 0)">
                <path id="icons8_home_page-6" data-name="icons8_home_page" d="M20.5,35.407,0,16.86H5.591V0H16.772V11.24h7.454V0H35.407V16.86H41L33.543,23.6v8.243H29.816v-4.87Zm0-5.042L31.68,20.248V3.747H27.953v11.24H13.045V3.747H9.318v16.5Z" transform="translate(108.239 35.062) rotate(172)" fill="#5493ff"/>
                <path id="icons8_hut_1-7" data-name="icons8_hut_1" d="M19.567,35.407a5.169,5.169,0,0,1-2.641-.826,22.318,22.318,0,0,1-2.69-1.76,60.908,60.908,0,0,1-6.1-5.321,57.217,57.217,0,0,1-5.457-6.116C1.2,19.42,0,17.91,0,15.736a1.962,1.962,0,0,1,1.957-1.967H5.87V1.967A1.962,1.962,0,0,1,7.827,0H31.307a1.962,1.962,0,0,1,1.957,1.967v11.8h3.913a1.962,1.962,0,0,1,1.957,1.967c0,2.174-1.2,3.684-2.675,5.648A57.259,57.259,0,0,1,31,27.5a60.929,60.929,0,0,1-6.1,5.321,22.26,22.26,0,0,1-2.69,1.756A5.171,5.171,0,0,1,19.567,35.407Zm0-3.965a4.767,4.767,0,0,0,.8-.334,19.065,19.065,0,0,0,2.205-1.448,57.7,57.7,0,0,0,5.69-4.968,54.069,54.069,0,0,0,5.075-5.678,5.856,5.856,0,0,0,.753-1.31H5.045a5.849,5.849,0,0,0,.753,1.31,54.081,54.081,0,0,0,5.075,5.678,57.676,57.676,0,0,0,5.69,4.968,19.045,19.045,0,0,0,2.205,1.448A4.778,4.778,0,0,0,19.567,31.442ZM9.784,13.769H29.351V3.934H23.48V7.868a3.913,3.913,0,1,1-7.827,0V3.934H9.784Z" transform="translate(38.131 125.894) rotate(-167)" fill="#5493ff"/>
              </g>
              <path id="icons8_home_page-7" data-name="icons8_home_page" d="M20.5,35.407,0,16.86H5.591V0H16.772V11.24h7.454V0H35.407V16.86H41L33.543,23.6v8.243H29.816v-4.87Zm0-5.042L31.68,20.248V3.747H27.953v11.24H13.045V3.747H9.318v16.5Z" transform="matrix(-0.999, 0.035, -0.035, -0.999, 446.736, 134.265)" fill="#5493ff"/>
              <path id="icons8_hut_1-8" data-name="icons8_hut_1" d="M19.567,35.407a5.169,5.169,0,0,1-2.641-.826,22.318,22.318,0,0,1-2.69-1.76,60.909,60.909,0,0,1-6.1-5.321,57.217,57.217,0,0,1-5.457-6.116C1.2,19.42,0,17.91,0,15.736a1.962,1.962,0,0,1,1.957-1.967H5.87V1.967A1.962,1.962,0,0,1,7.827,0H31.307a1.962,1.962,0,0,1,1.957,1.967v11.8h3.913a1.962,1.962,0,0,1,1.957,1.967c0,2.174-1.2,3.684-2.675,5.648A57.26,57.26,0,0,1,31,27.5a60.929,60.929,0,0,1-6.1,5.321,22.26,22.26,0,0,1-2.69,1.756A5.171,5.171,0,0,1,19.567,35.407Zm0-3.965a4.767,4.767,0,0,0,.8-.334,19.065,19.065,0,0,0,2.205-1.448,57.7,57.7,0,0,0,5.69-4.968,54.069,54.069,0,0,0,5.075-5.678,5.856,5.856,0,0,0,.753-1.31H5.045a5.849,5.849,0,0,0,.753,1.31,54.081,54.081,0,0,0,5.075,5.678,57.677,57.677,0,0,0,5.69,4.968,19.046,19.046,0,0,0,2.205,1.448A4.779,4.779,0,0,0,19.567,31.442ZM9.784,13.769H29.351V3.934H23.48V7.868a3.913,3.913,0,1,1-7.827,0V3.934H9.784Z" transform="translate(352.469 75.079) rotate(174)" fill="#5493ff"/>
              <path id="icons8_residence-4" data-name="icons8_residence" d="M10.359,33.543A3.74,3.74,0,0,1,7.086,31.6L0,18.635H3.662V3.727A3.755,3.755,0,0,1,7.389,0H33.478A3.755,3.755,0,0,1,37.2,3.727V18.635H41L33.776,31.629h0a3.736,3.736,0,0,1-3.254,1.914Zm0-3.727h20.16v0l4.149-7.45h-6.34l-7.894,3.945-7.895-3.945H6.282Zm10.075-7.672,5.591-2.8V3.727H22.3V9.318a1.864,1.864,0,1,1-3.727,0V3.727H14.843V19.349ZM7.389,18.635h3.727V3.727H7.389Zm13.045,0A1.864,1.864,0,1,1,22.3,16.772,1.864,1.864,0,0,1,20.433,18.635Zm9.318,0h3.727V3.727H29.751Z" transform="translate(238.68 122.489) rotate(167)" fill="#5493ff"/>
              <path id="icons8_roofing-4" data-name="icons8_roofing" d="M29.816,20.5V13.645l-7.454,6.821L0,0H5.521L22.362,15.414,39.2,0h5.521L41,3.41V20.5Zm3.727-3.727H37.27V6.821l-3.727,3.414Z" transform="translate(281.454 182.735) rotate(-177)" fill="#5493ff"/>
              <path id="icons8_warehouse-4" data-name="icons8_warehouse" d="M16.772,33.743,2.213,27.272A3.737,3.737,0,0,1,0,23.869V.025H9a1.864,1.864,0,0,1,.608,0h14.3a1.864,1.864,0,0,1,.608,0h9.023V23.869a3.737,3.737,0,0,1-2.213,3.4l0,0Zm0-4.076,13.045-5.8V3.752H26.089V20.524H7.454V3.752H3.727V23.869ZM11.181,16.8H22.362V3.752H18.635V5.616H14.908V3.752H11.181Z" transform="matrix(-0.839, -0.545, 0.545, -0.839, 135.359, 293.932)" fill="#5493ff"/>
              <path id="icons8_dog_house-7" data-name="icons8_dog_house" d="M20.5,35.407,0,16.86H5.589V0H35.405V16.86h5.589Zm3.727-31.66H16.77v5.62a3.727,3.727,0,1,0,7.454,0Zm7.454,0H27.951v5.62a7.454,7.454,0,1,1-14.908,0V3.747H9.316v16.5L20.5,30.366,31.678,20.249Z" transform="matrix(-0.914, -0.407, 0.407, -0.914, 111.084, 85.035)" fill="#5493ff"/>
              <path id="icons8_home_page-8" data-name="icons8_home_page" d="M20.5,35.407,0,16.86H5.591V0H16.772V11.24h7.454V0H35.407V16.86H41L33.543,23.6v8.243H29.816v-4.87Zm0-5.042L31.68,20.248V3.747H27.953v11.24H13.045V3.747H9.318v16.5Z" transform="translate(45.526 190.549) rotate(172)" fill="#5493ff"/>
            </g>
          </g>
          <g id="House_Motif-3" data-name="House Motif" transform="translate(1446.694 711.356) rotate(174)">
            <g id="Groupe_39" data-name="Groupe 39" transform="translate(168.86 0)">
              <path id="icons8_school_house-5" data-name="icons8_school_house" d="M18.589,33.6,6.952,27.724l1.5-3.158,1.6.807V17.851L4.647,14.5a1.7,1.7,0,0,1-1.073-.666L0,11.613,1.759,8.6l1.466.91V0H16.87V5.273h3.411V0H33.926V9.712l1.479-.9,1.732,3.028L27.1,17.943v7.24l1.569-.824,1.552,3.131Zm-.027-3.927,5.13-2.695V20.02l-5.127,3.117-5.107-3.168V27.1Zm.023-10.628,5.107-3.107v-.12h.2l6.626-4.03V3.515H23.692V8.788H13.459V3.515H6.636v8.112l6.753,4.192h.07v.045Z" transform="matrix(-0.719, -0.695, 0.695, -0.719, 575.393, 128.637)" fill="#5493ff"/>
              <path id="icons8_home_page-9" data-name="icons8_home_page" d="M19.453,33.6,0,16H5.305V0H15.916V10.667H22.99V0H33.6V16h5.305l-7.074,6.4v7.823H28.3V25.6Zm0-4.785,10.611-9.6V3.556H26.527V14.222H12.379V3.556H8.842v15.66Z" transform="matrix(-0.999, 0.035, -0.035, -0.999, 389.436, 93.237)" fill="#5493ff"/>
              <path id="icons8_residence-5" data-name="icons8_residence" d="M9.83,31.832a3.549,3.549,0,0,1-3.105-1.841L0,17.685H3.475V3.537A3.563,3.563,0,0,1,7.012,0H31.77a3.563,3.563,0,0,1,3.537,3.537V17.685h3.606l-6.86,12.331h0a3.546,3.546,0,0,1-3.088,1.817Zm0-3.537H28.962v0l3.938-7.07H26.882l-7.492,3.744L11.9,21.221H5.962Zm9.561-7.281L24.7,18.362V3.537H21.159V8.842a1.768,1.768,0,1,1-3.537,0V3.537H14.085V18.362ZM7.012,17.685h3.537V3.537H7.012Zm12.379,0a1.768,1.768,0,1,1,1.768-1.768A1.768,1.768,0,0,1,19.391,17.685Zm8.842,0H31.77V3.537H28.233Z" transform="translate(115.673 154.681) rotate(167)" fill="#5493ff"/>
              <path id="icons8_roofing-5" data-name="icons8_roofing" d="M28.3,19.453v-6.5l-7.074,6.473L0,0H5.24L21.221,14.628,37.2,0h5.24L38.906,3.236V19.453Zm3.537-3.537h3.537V6.473l-3.537,3.24Z" transform="translate(375.628 188.532) rotate(173)" fill="#5493ff"/>
              <path id="icons8_dog_house-8" data-name="icons8_dog_house" d="M19.451,33.6,0,16H5.3V0H33.6V16h5.3ZM22.988,3.556H15.914V8.889a3.537,3.537,0,1,0,7.074,0Zm7.074,0H26.525V8.889a7.074,7.074,0,1,1-14.148,0V3.556H8.841V19.216l10.611,9.6,10.611-9.6Z" transform="matrix(-0.914, -0.407, 0.407, -0.914, 35.539, 46.519)" fill="#5493ff"/>
            </g>
            <g id="Groupe_40" data-name="Groupe 40" transform="translate(675.255 464.006) rotate(172)">
              <g id="House_Icons-3" data-name="House Icons" transform="translate(454.861 121.258)">
                <path id="icons8_dog_house-9" data-name="icons8_dog_house" d="M19.451,0,0,17.6H5.3v16H33.6v-16h5.3Zm3.537,30.045H15.914V24.712a3.537,3.537,0,1,1,7.074,0Zm7.074,0H26.525V24.712a7.074,7.074,0,1,0-14.148,0v5.333H8.84V14.384l10.611-9.6,10.611,9.6Z" transform="matrix(-0.914, 0.407, -0.407, -0.914, 187.069, 147.26)" fill="#5493ff"/>
                <path id="icons8_home_page-10" data-name="icons8_home_page" d="M19.453,0,0,17.6H5.305v16H15.916V22.934H22.99V33.6H33.6v-16h5.305l-7.074-6.4V3.378H28.3V8Zm0,4.785,10.611,9.6v15.66H26.527V19.378H12.379V30.045H8.842V14.385Z" transform="translate(98.041 162.815) rotate(-172)" fill="#5493ff"/>
                <path id="icons8_school_house-6" data-name="icons8_school_house" d="M18.589,0,6.952,5.877l1.5,3.158,1.6-.807V15.75L4.647,19.1a1.7,1.7,0,0,0-1.073.666L0,21.987,1.759,25l1.466-.91V33.6H16.87V28.328h3.411V33.6H33.926V23.889l1.479.9,1.732-3.028L27.1,15.657V8.417l1.569.824L30.225,6.11Zm-.027,3.927,5.13,2.695V13.58l-5.127-3.117-5.107,3.168V6.505Zm.023,10.628,5.107,3.107v.12h.2l6.626,4.03v8.273H23.692V24.813H13.459v5.273H6.636V21.974l6.753-4.192h.07v-.045Z" transform="matrix(-0.719, 0.695, -0.695, -0.719, 175.997, 24.17)" fill="#5493ff"/>
                <path id="icons8_hut_1-9" data-name="icons8_hut_1" d="M18.569,0a4.905,4.905,0,0,0-2.506.784,21.18,21.18,0,0,0-2.553,1.67A57.8,57.8,0,0,0,7.718,7.5a54.3,54.3,0,0,0-5.179,5.8C1.138,15.171,0,16.6,0,18.667a1.862,1.862,0,0,0,1.857,1.867H5.571v11.2A1.862,1.862,0,0,0,7.427,33.6H29.71a1.862,1.862,0,0,0,1.857-1.867v-11.2h3.714a1.862,1.862,0,0,0,1.857-1.867c0-2.063-1.138-3.5-2.539-5.36a54.338,54.338,0,0,0-5.183-5.8,57.822,57.822,0,0,0-5.788-5.05A21.124,21.124,0,0,0,21.075.788,4.907,4.907,0,0,0,18.569,0Zm0,3.763a4.524,4.524,0,0,1,.758.317,18.092,18.092,0,0,1,2.093,1.375,54.759,54.759,0,0,1,5.4,4.714,51.31,51.31,0,0,1,4.816,5.389A5.557,5.557,0,0,1,32.35,16.8H4.787A5.551,5.551,0,0,1,5.5,15.557a51.322,51.322,0,0,1,4.816-5.389,54.734,54.734,0,0,1,5.4-4.714A18.075,18.075,0,0,1,17.811,4.08,4.535,4.535,0,0,1,18.569,3.763ZM9.284,20.534H27.853v9.334H22.283V26.134a3.714,3.714,0,1,0-7.428,0v3.733H9.284Z" transform="translate(43.744 76.083) rotate(167)" fill="#5493ff"/>
              </g>
              <path id="icons8_home_page-11" data-name="icons8_home_page" d="M19.453,0,0,17.6H5.305v16H15.916V22.934H22.99V33.6H33.6v-16h5.305l-7.074-6.4V3.378H28.3V8Zm0,4.785,10.611,9.6v15.66H26.527V19.378H12.379V30.045H8.842V14.385Z" transform="matrix(-0.999, -0.035, 0.035, -0.999, 456.067, 104.011)" fill="#5493ff"/>
              <path id="icons8_hut_1-10" data-name="icons8_hut_1" d="M18.569,0a4.905,4.905,0,0,0-2.506.784,21.18,21.18,0,0,0-2.553,1.67A57.8,57.8,0,0,0,7.718,7.5a54.3,54.3,0,0,0-5.179,5.8C1.138,15.171,0,16.6,0,18.667a1.862,1.862,0,0,0,1.857,1.867H5.571v11.2A1.862,1.862,0,0,0,7.427,33.6H29.71a1.862,1.862,0,0,0,1.857-1.867v-11.2h3.714a1.862,1.862,0,0,0,1.857-1.867c0-2.063-1.138-3.5-2.539-5.36a54.338,54.338,0,0,0-5.183-5.8,57.821,57.821,0,0,0-5.788-5.05A21.123,21.123,0,0,0,21.075.788,4.907,4.907,0,0,0,18.569,0Zm0,3.763a4.523,4.523,0,0,1,.758.317,18.092,18.092,0,0,1,2.093,1.375,54.759,54.759,0,0,1,5.4,4.714,51.31,51.31,0,0,1,4.816,5.389A5.557,5.557,0,0,1,32.35,16.8H4.787A5.551,5.551,0,0,1,5.5,15.557a51.322,51.322,0,0,1,4.816-5.389,54.733,54.733,0,0,1,5.4-4.714A18.074,18.074,0,0,1,17.811,4.08,4.535,4.535,0,0,1,18.569,3.763ZM9.284,20.534H27.853v9.333H22.283V26.134a3.714,3.714,0,1,0-7.428,0v3.733H9.284Z" transform="matrix(-0.995, -0.105, 0.105, -0.995, 270.129, 262.693)" fill="#5493ff"/>
              <path id="icons8_residence-6" data-name="icons8_residence" d="M9.83,0A3.549,3.549,0,0,0,6.725,1.841L0,14.148H3.475V28.3a3.563,3.563,0,0,0,3.537,3.537H31.77A3.563,3.563,0,0,0,35.307,28.3V14.148h3.606L32.053,1.817h0A3.546,3.546,0,0,0,28.962,0Zm0,3.537H28.962v0l3.938,7.07H26.882L19.391,6.867,11.9,10.611H5.962Zm9.561,7.281L24.7,13.471V28.3H21.159V22.99a1.768,1.768,0,0,0-3.537,0V28.3H14.085V13.471ZM7.012,14.148h3.537V28.3H7.012Zm12.379,0a1.768,1.768,0,1,0,1.768,1.768A1.768,1.768,0,0,0,19.391,14.148Zm8.842,0H31.77V28.3H28.233Z" transform="translate(118.551 179.484) rotate(-167)" fill="#5493ff"/>
              <path id="icons8_roofing-6" data-name="icons8_roofing" d="M28.3,0V6.5L21.221.031,0,19.453H5.24L21.221,4.825,37.2,19.453h5.24l-3.537-3.236V0Zm3.537,3.537h3.537V12.98L31.832,9.74Z" transform="translate(246.536 68.024) rotate(177)" fill="#5493ff"/>
              <path id="icons8_warehouse-5" data-name="icons8_warehouse" d="M15.916,0,2.1,6.141A3.546,3.546,0,0,0,0,9.371V32H8.545a1.769,1.769,0,0,0,.577,0H22.693a1.769,1.769,0,0,0,.577,0h8.562V9.371a3.546,3.546,0,0,0-2.1-3.229l0,0Zm0,3.868L28.3,9.371v19.09H24.758V12.545H7.074V28.461H3.537V9.371ZM10.611,16.082H21.221V28.461H17.685V26.693H14.148v1.768H10.611Z" transform="matrix(-0.839, 0.545, -0.545, -0.839, 76.016, 26.856)" fill="#5493ff"/>
              <path id="icons8_dog_house-10" data-name="icons8_dog_house" d="M19.451,0,0,17.6H5.3v16H33.6v-16h5.3Zm3.537,30.045H15.914V24.712a3.537,3.537,0,1,1,7.074,0Zm7.074,0H26.525V24.712a7.074,7.074,0,1,0-14.148,0v5.333H8.84V14.384l10.611-9.6,10.611,9.6Z" transform="matrix(-0.914, 0.407, -0.407, -0.914, 49.206, 228.936)" fill="#5493ff"/>
            </g>
          </g>
          <g id="House_Motif-4" data-name="House Motif" transform="matrix(0.995, -0.105, 0.105, 0.995, 1037.761, 500.602)">
            <g id="Groupe_41" data-name="Groupe 41" transform="translate(168.86 0)">
              <path id="icons8_school_house-7" data-name="icons8_school_house" d="M18.589,33.6,6.952,27.724l1.5-3.158,1.6.807V17.851L4.647,14.5a1.7,1.7,0,0,1-1.073-.666L0,11.613,1.759,8.6l1.466.91V0H16.87V5.273h3.411V0H33.926V9.712l1.479-.9,1.732,3.028L27.1,17.943v7.24l1.569-.824,1.552,3.131Zm-.027-3.927,5.13-2.695V20.02l-5.127,3.117-5.107-3.168V27.1Zm.023-10.628,5.107-3.107v-.12h.2l6.626-4.03V3.515H23.692V8.788H13.459V3.515H6.636v8.112l6.753,4.192h.07v.045Z" transform="matrix(-0.719, -0.695, 0.695, -0.719, 575.393, 128.637)" fill="#5493ff"/>
              <path id="icons8_home_page-12" data-name="icons8_home_page" d="M19.453,33.6,0,16H5.305V0H15.916V10.667H22.99V0H33.6V16h5.305l-7.074,6.4v7.823H28.3V25.6Zm0-4.785,10.611-9.6V3.556H26.527V14.222H12.379V3.556H8.842v15.66Z" transform="matrix(-0.999, 0.035, -0.035, -0.999, 389.436, 93.237)" fill="#5493ff"/>
              <path id="icons8_residence-7" data-name="icons8_residence" d="M9.83,31.832a3.549,3.549,0,0,1-3.105-1.841L0,17.685H3.475V3.537A3.563,3.563,0,0,1,7.012,0H31.77a3.563,3.563,0,0,1,3.537,3.537V17.685h3.606l-6.86,12.331h0a3.546,3.546,0,0,1-3.088,1.817Zm0-3.537H28.962v0l3.938-7.07H26.882l-7.492,3.744L11.9,21.221H5.962Zm9.561-7.281L24.7,18.362V3.537H21.159V8.842a1.768,1.768,0,1,1-3.537,0V3.537H14.085V18.362ZM7.012,17.685h3.537V3.537H7.012Zm12.379,0a1.768,1.768,0,1,1,1.768-1.768A1.768,1.768,0,0,1,19.391,17.685Zm8.842,0H31.77V3.537H28.233Z" transform="translate(115.673 154.681) rotate(167)" fill="#5493ff"/>
              <path id="icons8_roofing-7" data-name="icons8_roofing" d="M28.3,19.453v-6.5l-7.074,6.473L0,0H5.24L21.221,14.628,37.2,0h5.24L38.906,3.236V19.453Zm3.537-3.537h3.537V6.473l-3.537,3.24Z" transform="translate(375.628 188.532) rotate(173)" fill="#5493ff"/>
              <path id="icons8_dog_house-11" data-name="icons8_dog_house" d="M19.451,33.6,0,16H5.3V0H33.6V16h5.3ZM22.988,3.556H15.914V8.889a3.537,3.537,0,1,0,7.074,0Zm7.074,0H26.525V8.889a7.074,7.074,0,1,1-14.148,0V3.556H8.84V19.216l10.611,9.6,10.611-9.6Z" transform="matrix(-0.914, -0.407, 0.407, -0.914, 35.539, 46.519)" fill="#5493ff"/>
            </g>
            <g id="Groupe_42" data-name="Groupe 42" transform="translate(675.255 464.005) rotate(172)">
              <g id="House_Icons-4" data-name="House Icons" transform="translate(454.861 121.257)">
                <path id="icons8_dog_house-12" data-name="icons8_dog_house" d="M19.451,0,0,17.6H5.3v16H33.6v-16h5.3Zm3.537,30.045H15.914V24.712a3.537,3.537,0,1,1,7.074,0Zm7.074,0H26.525V24.712a7.074,7.074,0,1,0-14.148,0v5.333H8.84V14.384l10.611-9.6,10.611,9.6Z" transform="matrix(-0.914, 0.407, -0.407, -0.914, 187.069, 147.26)" fill="#5493ff"/>
                <path id="icons8_home_page-13" data-name="icons8_home_page" d="M19.453,0,0,17.6H5.305v16H15.916V22.934H22.99V33.6H33.6v-16h5.305l-7.074-6.4V3.378H28.3V8Zm0,4.785,10.611,9.6v15.66H26.527V19.378H12.379V30.045H8.842V14.385Z" transform="translate(98.041 162.815) rotate(-172)" fill="#5493ff"/>
                <path id="icons8_school_house-8" data-name="icons8_school_house" d="M18.589,0,6.952,5.877l1.5,3.158,1.6-.807V15.75L4.647,19.1a1.7,1.7,0,0,0-1.073.666L0,21.987,1.759,25l1.466-.91V33.6H16.87V28.328h3.411V33.6H33.926V23.889l1.479.9,1.732-3.028L27.1,15.657V8.417l1.569.824L30.225,6.11Zm-.027,3.927,5.13,2.695V13.58l-5.127-3.117-5.107,3.168V6.505Zm.023,10.628,5.107,3.107v.12h.2l6.626,4.03v8.273H23.692V24.813H13.459v5.273H6.636V21.974l6.753-4.192h.07v-.045Z" transform="matrix(-0.719, 0.695, -0.695, -0.719, 175.997, 24.17)" fill="#5493ff"/>
                <path id="icons8_hut_1-11" data-name="icons8_hut_1" d="M18.569,0a4.905,4.905,0,0,0-2.506.784,21.179,21.179,0,0,0-2.553,1.67A57.8,57.8,0,0,0,7.718,7.5a54.3,54.3,0,0,0-5.179,5.8C1.138,15.171,0,16.6,0,18.667a1.862,1.862,0,0,0,1.857,1.867H5.571v11.2A1.862,1.862,0,0,0,7.427,33.6H29.71a1.862,1.862,0,0,0,1.857-1.867v-11.2h3.714a1.862,1.862,0,0,0,1.857-1.867c0-2.063-1.138-3.5-2.539-5.36a54.338,54.338,0,0,0-5.183-5.8,57.821,57.821,0,0,0-5.788-5.05A21.125,21.125,0,0,0,21.075.788,4.907,4.907,0,0,0,18.569,0Zm0,3.763a4.523,4.523,0,0,1,.758.317,18.091,18.091,0,0,1,2.093,1.375,54.758,54.758,0,0,1,5.4,4.714,51.31,51.31,0,0,1,4.816,5.389A5.557,5.557,0,0,1,32.35,16.8H4.787A5.551,5.551,0,0,1,5.5,15.557a51.322,51.322,0,0,1,4.816-5.389,54.733,54.733,0,0,1,5.4-4.714A18.075,18.075,0,0,1,17.811,4.08,4.534,4.534,0,0,1,18.569,3.763ZM9.284,20.534H27.853v9.333H22.283V26.134a3.714,3.714,0,1,0-7.428,0v3.733H9.284Z" transform="translate(43.744 76.083) rotate(167)" fill="#5493ff"/>
              </g>
              <path id="icons8_home_page-14" data-name="icons8_home_page" d="M19.453,0,0,17.6H5.305v16H15.916V22.934H22.99V33.6H33.6v-16h5.305l-7.074-6.4V3.378H28.3V8Zm0,4.785,10.611,9.6v15.66H26.527V19.378H12.379V30.045H8.842V14.385Z" transform="matrix(-0.999, -0.035, 0.035, -0.999, 456.067, 104.011)" fill="#5493ff"/>
              <path id="icons8_hut_1-12" data-name="icons8_hut_1" d="M18.569,0a4.905,4.905,0,0,0-2.506.784,21.179,21.179,0,0,0-2.553,1.67A57.8,57.8,0,0,0,7.718,7.5a54.3,54.3,0,0,0-5.179,5.8C1.138,15.171,0,16.6,0,18.667a1.862,1.862,0,0,0,1.857,1.867H5.571v11.2A1.862,1.862,0,0,0,7.427,33.6H29.71a1.862,1.862,0,0,0,1.857-1.867v-11.2h3.714a1.862,1.862,0,0,0,1.857-1.867c0-2.063-1.138-3.5-2.539-5.36a54.34,54.34,0,0,0-5.183-5.8,57.819,57.819,0,0,0-5.788-5.05A21.123,21.123,0,0,0,21.075.788,4.907,4.907,0,0,0,18.569,0Zm0,3.763a4.523,4.523,0,0,1,.758.317,18.092,18.092,0,0,1,2.093,1.375,54.758,54.758,0,0,1,5.4,4.714,51.31,51.31,0,0,1,4.816,5.389A5.558,5.558,0,0,1,32.35,16.8H4.787A5.551,5.551,0,0,1,5.5,15.557a51.322,51.322,0,0,1,4.816-5.389,54.731,54.731,0,0,1,5.4-4.714A18.073,18.073,0,0,1,17.811,4.08,4.534,4.534,0,0,1,18.569,3.763ZM9.284,20.534H27.853v9.333H22.283V26.134a3.714,3.714,0,1,0-7.428,0v3.733H9.284Z" transform="matrix(-0.995, -0.105, 0.105, -0.995, 270.129, 262.692)" fill="#5493ff"/>
              <path id="icons8_residence-8" data-name="icons8_residence" d="M9.83,0A3.549,3.549,0,0,0,6.725,1.841L0,14.148H3.475V28.3a3.563,3.563,0,0,0,3.537,3.537H31.77A3.563,3.563,0,0,0,35.307,28.3V14.148h3.606L32.053,1.817h0A3.546,3.546,0,0,0,28.962,0Zm0,3.537H28.962v0l3.938,7.07H26.882L19.391,6.867,11.9,10.611H5.962Zm9.561,7.281L24.7,13.471V28.3H21.159V22.99a1.768,1.768,0,1,0-3.537,0V28.3H14.085V13.471ZM7.012,14.148h3.537V28.3H7.012Zm12.379,0a1.768,1.768,0,1,0,1.768,1.768A1.768,1.768,0,0,0,19.391,14.148Zm8.842,0H31.77V28.3H28.233Z" transform="translate(118.551 179.483) rotate(-167)" fill="#5493ff"/>
              <path id="icons8_roofing-8" data-name="icons8_roofing" d="M28.3,0V6.5L21.221.031,0,19.453H5.24L21.221,4.825,37.2,19.453h5.24l-3.537-3.236V0Zm3.537,3.537h3.537V12.98L31.832,9.74Z" transform="translate(246.536 68.023) rotate(177)" fill="#5493ff"/>
              <path id="icons8_warehouse-6" data-name="icons8_warehouse" d="M15.916,0,2.1,6.141A3.546,3.546,0,0,0,0,9.371V32H8.545a1.769,1.769,0,0,0,.577,0H22.693a1.769,1.769,0,0,0,.577,0h8.563V9.371a3.546,3.546,0,0,0-2.1-3.229l0,0Zm0,3.868L28.3,9.371v19.09H24.758V12.545H7.074V28.461H3.537V9.371ZM10.611,16.082H21.221V28.461H17.685V26.693H14.148v1.768H10.611Z" transform="matrix(-0.839, 0.545, -0.545, -0.839, 76.016, 26.856)" fill="#5493ff"/>
              <path id="icons8_dog_house-13" data-name="icons8_dog_house" d="M19.451,0,0,17.6H5.3v16H33.6v-16h5.3Zm3.537,30.045H15.914V24.712a3.537,3.537,0,1,1,7.074,0Zm7.074,0H26.525V24.712a7.074,7.074,0,1,0-14.148,0v5.333H8.84V14.384l10.611-9.6,10.611,9.6Z" transform="matrix(-0.914, 0.407, -0.407, -0.914, 49.206, 228.936)" fill="#5493ff"/>
            </g>
          </g>
          <g id="House_Motif-5" data-name="House Motif" transform="translate(1319.028 251.012) rotate(-3)">
            <g id="Groupe_43" data-name="Groupe 43" transform="translate(49.27 0)">
              <path id="icons8_dog_house-14" data-name="icons8_dog_house" d="M20.306,0,0,18.373H5.537v16.7H35.075v-16.7h5.537ZM24,31.365H16.613V25.8A3.692,3.692,0,1,1,24,25.8Zm7.384,0H27.69V25.8a7.385,7.385,0,1,0-14.769,0v5.568H9.229V15.016L20.306,4.994,31.382,15.016Z" transform="translate(742.682 236.349) rotate(160)" fill="#5493ff"/>
              <path id="icons8_school_house-9" data-name="icons8_school_house" d="M19.405,0,7.258,6.135l1.565,3.3,1.666-.842v7.852l-5.637,3.5a1.773,1.773,0,0,0-1.12.7L0,22.953,1.836,26.1l1.53-.95v9.927H17.611v-5.5h3.561v5.5H35.416V24.938l1.544.939,1.808-3.161L28.294,16.345V8.787l1.638.86,1.621-3.268Zm-.028,4.1,5.356,2.813v7.264l-5.352-3.254L14.05,14.231V6.791ZM19.4,15.195l5.331,3.243v.126h.205l6.917,4.207v8.636H24.733V25.9H14.05v5.5H6.927V22.939l7.049-4.376h.073v-.047Z" transform="matrix(-0.719, 0.695, -0.695, -0.719, 752.036, 93.158)" fill="#5493ff"/>
              <path id="icons8_home_page-15" data-name="icons8_home_page" d="M20.307,0,0,18.374H5.538v16.7H16.615V23.941H24V35.076H35.076v-16.7h5.538l-7.384-6.68V3.527H29.538V8.351Zm0,4.995L31.384,15.017V31.365H27.692V20.23H12.923V31.365H9.231V15.017Z" transform="matrix(-0.999, -0.035, 0.035, -0.999, 532.322, 139.935)" fill="#5493ff"/>
              <path id="icons8_school_house-10" data-name="icons8_school_house" d="M19.405,0,7.258,6.135l1.565,3.3,1.666-.842v7.852l-5.637,3.5a1.773,1.773,0,0,0-1.12.7L0,22.953,1.836,26.1l1.53-.95v9.927H17.611v-5.5h3.561v5.5H35.416V24.938l1.544.939,1.808-3.161L28.294,16.345V8.787l1.638.86,1.621-3.268Zm-.028,4.1,5.356,2.813v7.264l-5.352-3.254L14.05,14.231V6.791ZM19.4,15.195l5.331,3.243v.125h.205l6.917,4.207v8.636H24.733V25.9H14.05v5.5H6.927V22.939l7.049-4.376h.073v-.047Z" transform="translate(345.65 262.182) rotate(171)" fill="#5493ff"/>
              <path id="icons8_hut_1-13" data-name="icons8_hut_1" d="M19.384,0a5.121,5.121,0,0,0-2.616.818A22.11,22.11,0,0,0,14.1,2.561,60.339,60.339,0,0,0,8.057,7.833,56.683,56.683,0,0,0,2.65,13.892C1.188,15.837,0,17.334,0,19.487a1.944,1.944,0,0,0,1.938,1.949H5.815V33.128a1.944,1.944,0,0,0,1.938,1.949H31.015a1.944,1.944,0,0,0,1.938-1.948V21.436H36.83a1.944,1.944,0,0,0,1.938-1.948c0-2.154-1.188-3.65-2.65-5.6a56.725,56.725,0,0,0-5.41-6.059,60.36,60.36,0,0,0-6.042-5.271A22.051,22.051,0,0,0,22,.822,5.123,5.123,0,0,0,19.384,0Zm0,3.928a4.722,4.722,0,0,1,.791.331A18.887,18.887,0,0,1,22.36,5.694,57.164,57.164,0,0,1,28,10.615a53.563,53.563,0,0,1,5.028,5.625,5.8,5.8,0,0,1,.746,1.3H5a5.794,5.794,0,0,1,.746-1.3,53.576,53.576,0,0,1,5.028-5.625,57.138,57.138,0,0,1,5.637-4.921,18.867,18.867,0,0,1,2.185-1.435A4.734,4.734,0,0,1,19.384,3.928ZM9.692,21.436H29.076v9.743H23.261v-3.9a3.877,3.877,0,1,0-7.754,0v3.9H9.692Z" transform="matrix(-0.995, -0.105, 0.105, -0.995, 544.006, 241.792)" fill="#5493ff"/>
              <path id="icons8_residence-9" data-name="icons8_residence" d="M10.262,0A3.7,3.7,0,0,0,7.02,1.922L0,14.769H3.627V29.538A3.72,3.72,0,0,0,7.32,33.23H33.165a3.72,3.72,0,0,0,3.692-3.692V14.769h3.764L33.461,1.9h0A3.7,3.7,0,0,0,30.234,0Zm0,3.692H30.234v0l4.111,7.381H28.063L20.242,7.168l-7.821,3.909h-6.2Zm9.981,7.6,5.538,2.769V29.538H22.089V24A1.846,1.846,0,1,0,18.4,24v5.538H14.7V14.062ZM7.32,14.769h3.692V29.538H7.32Zm12.923,0a1.846,1.846,0,1,0,1.846,1.846A1.846,1.846,0,0,0,20.242,14.769Zm9.231,0h3.692V29.538H29.473Z" transform="translate(240.284 73.116) rotate(-167)" fill="#5493ff"/>
              <path id="icons8_roofing-9" data-name="icons8_roofing" d="M29.538,0V6.789L22.153.032,0,20.307H5.47L22.153,5.037l16.684,15.27h5.47l-3.692-3.379V0ZM33.23,3.692h3.692V13.55L33.23,10.168Z" transform="translate(516.657 25.556) rotate(-173)" fill="#5493ff"/>
              <path id="icons8_dog_house-15" data-name="icons8_dog_house" d="M20.306,0,0,18.373H5.537v16.7H35.075v-16.7h5.537ZM24,31.365H16.613V25.8A3.692,3.692,0,1,1,24,25.8Zm7.384,0H27.69V25.8a7.385,7.385,0,1,0-14.769,0v5.568H9.229V15.016L20.306,4.994,31.382,15.016Z" transform="matrix(-0.914, 0.407, -0.407, -0.914, 178.373, 185.694)" fill="#5493ff"/>
              <path id="icons8_hut_1-14" data-name="icons8_hut_1" d="M19.384,0a5.121,5.121,0,0,0-2.616.818A22.109,22.109,0,0,0,14.1,2.561,60.339,60.339,0,0,0,8.057,7.833,56.682,56.682,0,0,0,2.65,13.892C1.188,15.837,0,17.334,0,19.487a1.944,1.944,0,0,0,1.938,1.949H5.815V33.128a1.944,1.944,0,0,0,1.938,1.949H31.015a1.944,1.944,0,0,0,1.938-1.948V21.436H36.83a1.944,1.944,0,0,0,1.938-1.948c0-2.154-1.188-3.65-2.65-5.6a56.724,56.724,0,0,0-5.41-6.059,60.361,60.361,0,0,0-6.042-5.271A22.051,22.051,0,0,0,22,.822,5.123,5.123,0,0,0,19.384,0Zm0,3.928a4.722,4.722,0,0,1,.791.331A18.887,18.887,0,0,1,22.36,5.694,57.164,57.164,0,0,1,28,10.615a53.564,53.564,0,0,1,5.028,5.625,5.8,5.8,0,0,1,.746,1.3H5a5.794,5.794,0,0,1,.746-1.3,53.576,53.576,0,0,1,5.028-5.625,57.137,57.137,0,0,1,5.637-4.921,18.868,18.868,0,0,1,2.185-1.435A4.734,4.734,0,0,1,19.384,3.928ZM9.692,21.436H29.076v9.743H23.261v-3.9a3.877,3.877,0,1,0-7.754,0v3.9H9.692Z" transform="translate(36.194 133.059) rotate(-159)" fill="#5493ff"/>
            </g>
            <g id="Groupe_44" data-name="Groupe 44" transform="translate(735.839 643.682) rotate(-172)">
              <g id="House_Icons-5" data-name="House Icons" transform="translate(547.785 0)">
                <path id="icons8_dog_house-16" data-name="icons8_dog_house" d="M20.306,35.076,0,16.7H5.537V0H35.074V16.7h5.537ZM24,3.712H16.613V9.279a3.692,3.692,0,1,0,7.384,0Zm7.384,0H27.69V9.279a7.385,7.385,0,1,1-14.769,0V3.712H9.229V20.06L20.306,30.082,31.382,20.06Z" transform="matrix(-0.914, -0.407, 0.407, -0.914, 181.018, 48.562)" fill="#5493ff"/>
                <path id="icons8_home_page-16" data-name="icons8_home_page" d="M20.307,35.076,0,16.7H5.538V0H16.615V11.135H24V0H35.076V16.7h5.538l-7.384,6.68V31.55H29.538V26.725Zm0-4.995L31.384,20.059V3.712H27.692V14.847H12.923V3.712H9.231V20.059Z" transform="translate(107.228 35.015) rotate(172)" fill="#5493ff"/>
                <path id="icons8_school_house-11" data-name="icons8_school_house" d="M19.405,35.076,7.258,28.941l1.565-3.3,1.666.842V18.635l-5.637-3.5a1.773,1.773,0,0,1-1.12-.7L0,12.123,1.836,8.977l1.53.95V0H17.611V5.5h3.561V0H35.416V10.138L36.96,9.2l1.808,3.161L28.294,18.732v7.558l1.638-.86L31.553,28.7Zm-.028-4.1,5.356-2.813V20.9l-5.352,3.254L14.05,20.846v7.44ZM19.4,19.882l5.331-3.243v-.126h.205l6.917-4.207V3.67H24.733v5.5H14.05V3.67H6.927v8.468l7.049,4.376h.073v.047Z" transform="matrix(-0.719, -0.695, 0.695, -0.719, 159.361, 170.246)" fill="#5493ff"/>
                <path id="icons8_hut_1-15" data-name="icons8_hut_1" d="M19.384,35.076a5.121,5.121,0,0,1-2.616-.818A22.11,22.11,0,0,1,14.1,32.515a60.339,60.339,0,0,1-6.046-5.271A56.683,56.683,0,0,1,2.65,21.184C1.188,19.239,0,17.743,0,15.59a1.944,1.944,0,0,1,1.938-1.949H5.815V1.949A1.944,1.944,0,0,1,7.754,0H31.015a1.944,1.944,0,0,1,1.938,1.948V13.641H36.83a1.944,1.944,0,0,1,1.938,1.948c0,2.154-1.188,3.65-2.65,5.6a56.725,56.725,0,0,1-5.41,6.059,60.36,60.36,0,0,1-6.042,5.271A22.052,22.052,0,0,1,22,34.254,5.123,5.123,0,0,1,19.384,35.076Zm0-3.928a4.722,4.722,0,0,0,.791-.331,18.886,18.886,0,0,0,2.185-1.435A57.164,57.164,0,0,0,28,24.461a53.563,53.563,0,0,0,5.028-5.625,5.8,5.8,0,0,0,.746-1.3H5a5.8,5.8,0,0,0,.746,1.3,53.576,53.576,0,0,0,5.028,5.625,57.138,57.138,0,0,0,5.637,4.921,18.867,18.867,0,0,0,2.185,1.435A4.734,4.734,0,0,0,19.384,31.149ZM9.692,13.641H29.076V3.9H23.261v3.9a3.877,3.877,0,1,1-7.754,0V3.9H9.692Z" transform="translate(37.775 124.999) rotate(-167)" fill="#5493ff"/>
              </g>
              <path id="icons8_home_page-17" data-name="icons8_home_page" d="M20.307,35.076,0,16.7H5.538V0H16.615V11.135H24V0H35.076V16.7h5.538l-7.384,6.68V31.55H29.538V26.725Zm0-4.995L31.384,20.059V3.712H27.692V14.847H12.923V3.712H9.231V20.059Z" transform="matrix(-0.999, 0.035, -0.035, -0.999, 550.268, 223.305)" fill="#5493ff"/>
              <path id="icons8_hut_1-16" data-name="icons8_hut_1" d="M19.384,35.076a5.121,5.121,0,0,1-2.616-.818A22.11,22.11,0,0,1,14.1,32.515a60.34,60.34,0,0,1-6.046-5.271A56.682,56.682,0,0,1,2.65,21.184C1.188,19.239,0,17.743,0,15.589a1.944,1.944,0,0,1,1.938-1.949H5.815V1.949A1.944,1.944,0,0,1,7.754,0H31.015a1.944,1.944,0,0,1,1.938,1.948V13.641H36.83a1.944,1.944,0,0,1,1.938,1.948c0,2.154-1.188,3.65-2.65,5.6a56.725,56.725,0,0,1-5.41,6.059,60.36,60.36,0,0,1-6.042,5.271A22.052,22.052,0,0,1,22,34.254,5.123,5.123,0,0,1,19.384,35.076Zm0-3.928a4.721,4.721,0,0,0,.791-.331,18.887,18.887,0,0,0,2.185-1.435A57.165,57.165,0,0,0,28,24.461a53.563,53.563,0,0,0,5.028-5.625,5.8,5.8,0,0,0,.746-1.3H5a5.794,5.794,0,0,0,.746,1.3,53.577,53.577,0,0,0,5.028,5.625,57.139,57.139,0,0,0,5.637,4.921,18.868,18.868,0,0,0,2.185,1.435A4.734,4.734,0,0,0,19.384,31.149ZM9.692,13.641H29.076V3.9H23.261v3.9a3.877,3.877,0,1,1-7.754,0V3.9H9.692Z" transform="translate(358.606 57.483) rotate(174)" fill="#5493ff"/>
              <path id="icons8_residence-10" data-name="icons8_residence" d="M10.262,33.23A3.7,3.7,0,0,1,7.02,31.308L0,18.461H3.627V3.692A3.72,3.72,0,0,1,7.32,0H33.165a3.72,3.72,0,0,1,3.692,3.692V18.461h3.764L33.461,31.334h0a3.7,3.7,0,0,1-3.224,1.9Zm0-3.692H30.234v0l4.111-7.381H28.063l-7.821,3.909-7.821-3.909h-6.2Zm9.981-7.6,5.538-2.769V3.692H22.089V9.231a1.846,1.846,0,1,1-3.692,0V3.692H14.7V19.168ZM7.32,18.461h3.692V3.692H7.32Zm12.923,0a1.846,1.846,0,1,1,1.846-1.846A1.846,1.846,0,0,1,20.242,18.461Zm9.231,0h3.692V3.692H29.473Z" transform="translate(204.179 141.841) rotate(167)" fill="#5493ff"/>
              <path id="icons8_roofing-10" data-name="icons8_roofing" d="M29.538,20.307V13.518l-7.384,6.757L0,0H5.47L22.153,15.27,38.837,0h5.47L40.615,3.379V20.307Zm3.692-3.692h3.692V6.757L33.23,10.139Z" transform="translate(329.247 246.098) rotate(-177)" fill="#5493ff"/>
              <path id="icons8_warehouse-7" data-name="icons8_warehouse" d="M16.615,33.428,2.192,27.017A3.7,3.7,0,0,1,0,23.646V.025H8.921a1.846,1.846,0,0,1,.6,0H23.689a1.846,1.846,0,0,1,.6,0H33.23V23.646a3.7,3.7,0,0,1-2.192,3.371l0,0Zm0-4.038,12.923-5.744V3.717H25.846V20.332H7.384V3.717H3.692V23.646ZM11.077,16.64H22.153V3.717H18.461V5.563H14.769V3.717H11.077Z" transform="matrix(-0.839, -0.545, 0.545, -0.839, 134.095, 296.829)" fill="#5493ff"/>
              <path id="icons8_dog_house-17" data-name="icons8_dog_house" d="M20.306,35.076,0,16.7H5.537V0H35.074V16.7h5.537ZM24,3.712H16.613V9.279a3.692,3.692,0,1,0,7.384,0Zm7.384,0H27.69V9.279a7.385,7.385,0,1,1-14.769,0V3.712H9.229V20.06L20.306,30.082,31.382,20.06Z" transform="matrix(-0.914, -0.407, 0.407, -0.914, 110.046, 89.882)" fill="#5493ff"/>
              <path id="icons8_home_page-18" data-name="icons8_home_page" d="M20.307,35.076,0,16.7H5.538V0H16.615V11.135H24V0H35.076V16.7h5.538l-7.384,6.68V31.55H29.538V26.725Zm0-4.995L31.384,20.059V3.712H27.692V14.847H12.923V3.712H9.231V20.059Z" transform="translate(45.101 194.411) rotate(172)" fill="#5493ff"/>
            </g>
          </g>
        </g>
      </g>
    </g>
  </g>
</svg>
