<svg id="Web_BG" data-name="Web BG" xmlns="http://www.w3.org/2000/svg" xmlns:xlink="http://www.w3.org/1999/xlink" width="1920" height="1200" viewBox="0 0 1920 1200">
  <defs>
    <linearGradient id="linear-gradient" x1="0.108" y1="1.054" x2="0.455" y2="0.142" gradientUnits="objectBoundingBox">
      <stop offset="0" stop-color="#ced6ff"/>
      <stop offset="1" stop-color="#5493ff"/>
    </linearGradient>
    <linearGradient id="linear-gradient-2" x1="0.125" y1="1.071" x2="0.389" y2="0.034" gradientUnits="objectBoundingBox">
      <stop offset="0" stop-color="#edebff"/>
      <stop offset="1" stop-color="#b5b5ff"/>
    </linearGradient>
    <clipPath id="clip-path">
      <path id="Tracé_4308" data-name="Tracé 4308" d="M-1127,834V2034H-3047V834Z" transform="translate(3047 -834)" fill="url(#linear-gradient)"/>
    </clipPath>
  </defs>
  <path id="Header_BG" data-name="Header BG" d="M-1127,834V2034H-3047V834Z" transform="translate(3047 -834)" fill="url(#linear-gradient-2)"/>
  <g id="Houses_Icons" data-name="Houses Icons" opacity="0.2" clip-path="url(#clip-path)">
    <g id="Houses_Motif" data-name="Houses Motif" transform="translate(-45.485 696.338) rotate(-18)">
      <g id="House_Motif" data-name="House Motif" transform="translate(-56.862 14.94)">
        <g id="Groupe_2" data-name="Groupe 2" transform="translate(0 0)">
          <path id="icons8_dog_house" d="M20.5,0,0,18.547H5.589v16.86H35.405V18.547h5.589Zm3.727,31.66H16.77V26.04a3.727,3.727,0,1,1,7.454,0Zm7.454,0H27.951V26.04a7.454,7.454,0,1,0-14.908,0v5.62H9.316v-16.5L20.5,5.041,31.678,15.158Z" transform="translate(9.442 14.021) rotate(-20)" fill="#b5b5ff"/>
          <path id="icons8_school_house" d="M19.588,0,7.326,6.193l1.58,3.328,1.681-.85V16.6L4.9,20.131a1.789,1.789,0,0,0-1.13.7L0,23.169l1.853,3.176L3.4,25.387v10.02H17.777V29.851h3.595v5.556H35.75V25.173l1.559.948,1.825-3.19L28.561,16.5V8.87l1.653.868,1.636-3.3ZM19.56,4.138l5.406,2.84V14.31l-5.4-3.285-5.381,3.339V6.855Zm.025,11.2,5.381,3.274v.127h.207l6.982,4.247V31.7H24.966V26.146H14.182V31.7H6.993V23.155l7.116-4.417h.074v-.047Z" transform="matrix(0.719, -0.695, 0.695, 0.719, 0, 158.562)" fill="#b5b5ff"/>
          <path id="icons8_home_page" d="M20.5,0,0,18.547H5.591v16.86H16.772V24.167h7.454v11.24H35.407V18.547H41L33.543,11.8V3.56H29.816V8.43Zm0,5.042L31.68,15.159v16.5H27.953V20.42H13.045V31.66H9.318v-16.5Z" transform="matrix(0.999, 0.035, -0.035, 0.999, 221.785, 111.343)" fill="#b5b5ff"/>
          <path id="icons8_school_house-2" data-name="icons8_school_house" d="M19.588,0,7.326,6.193l1.58,3.328,1.681-.85V16.6L4.9,20.131a1.789,1.789,0,0,0-1.13.7L0,23.169l1.853,3.176L3.4,25.387v10.02H17.777V29.851h3.595v5.556H35.75V25.173l1.559.948,1.825-3.19L28.561,16.5V8.87l1.653.868,1.636-3.3ZM19.56,4.138l5.406,2.84V14.31l-5.4-3.285-5.381,3.339V6.855Zm.025,11.2,5.381,3.274v.127h.207l6.982,4.247V31.7H24.966V26.146H14.182V31.7H6.993V23.155l7.116-4.417h.074v-.047Z" transform="translate(411.34 30.261) rotate(-9)" fill="#b5b5ff"/>
          <path id="icons8_hut_1" d="M19.567,0a5.169,5.169,0,0,0-2.641.826,22.318,22.318,0,0,0-2.69,1.76,60.908,60.908,0,0,0-6.1,5.321,57.217,57.217,0,0,0-5.457,6.116C1.2,15.987,0,17.5,0,19.671a1.962,1.962,0,0,0,1.957,1.967H5.87v11.8a1.962,1.962,0,0,0,1.957,1.967H31.307a1.962,1.962,0,0,0,1.957-1.967v-11.8h3.913a1.962,1.962,0,0,0,1.957-1.967c0-2.174-1.2-3.684-2.675-5.648A57.26,57.26,0,0,0,31,7.907a60.929,60.929,0,0,0-6.1-5.321A22.259,22.259,0,0,0,22.208.83,5.171,5.171,0,0,0,19.567,0Zm0,3.965a4.766,4.766,0,0,1,.8.334,19.065,19.065,0,0,1,2.205,1.448,57.7,57.7,0,0,1,5.69,4.968,54.069,54.069,0,0,1,5.075,5.678,5.856,5.856,0,0,1,.753,1.31H5.045a5.849,5.849,0,0,1,.753-1.31,54.081,54.081,0,0,1,5.075-5.678,57.676,57.676,0,0,1,5.69-4.968A19.045,19.045,0,0,1,18.768,4.3,4.778,4.778,0,0,1,19.567,3.965ZM9.784,21.638H29.351v9.835H23.48V27.539a3.913,3.913,0,1,0-7.827,0v3.934H9.784Z" transform="translate(138.764 52.814) rotate(-41)" fill="#b5b5ff"/>
          <path id="icons8_residence" d="M10.359,0A3.74,3.74,0,0,0,7.086,1.94L0,14.908H3.662V29.816a3.755,3.755,0,0,0,3.727,3.727H33.478A3.755,3.755,0,0,0,37.2,29.816V14.908H41L33.776,1.914h0A3.736,3.736,0,0,0,30.519,0Zm0,3.727h20.16v0l4.149,7.45h-6.34L20.433,7.236l-7.895,3.945H6.282ZM20.433,11.4l5.591,2.8V29.816H22.3V24.226a1.864,1.864,0,1,0-3.727,0v5.591H14.843V14.195ZM7.389,14.908h3.727V29.816H7.389Zm13.045,0A1.864,1.864,0,1,0,22.3,16.772,1.864,1.864,0,0,0,20.433,14.908Zm9.318,0h3.727V29.816H29.751Z" transform="translate(339.247 176.811) rotate(13)" fill="#b5b5ff"/>
          <path id="icons8_roofing" d="M29.816,0V6.853L22.362.033,0,20.5H5.521L22.362,5.085,39.2,20.5h5.521L41,17.088V0Zm3.727,3.727H37.27v9.951l-3.727-3.414Z" transform="translate(237.598 226.801) rotate(7)" fill="#b5b5ff"/>
          <path id="icons8_warehouse" d="M16.772,0,2.213,6.471A3.737,3.737,0,0,0,0,9.874V33.718H9a1.864,1.864,0,0,0,.608,0h14.3a1.864,1.864,0,0,0,.608,0h9.023V9.874a3.737,3.737,0,0,0-2.213-3.4l0,0Zm0,4.076,13.045,5.8V29.991H26.089V13.219H7.454V29.991H3.727V9.874Zm-5.591,12.87H22.362V29.991H18.635V28.128H14.908v1.864H11.181Z" transform="matrix(0.839, -0.545, 0.545, 0.839, 52.664, 230.126)" fill="#b5b5ff"/>
          <path id="icons8_dog_house-2" data-name="icons8_dog_house" d="M20.5,0,0,18.547H5.589v16.86H35.405V18.547h5.589Zm3.727,31.66H16.77V26.04a3.727,3.727,0,1,1,7.454,0Zm7.454,0H27.951V26.04a7.454,7.454,0,1,0-14.908,0v5.62H9.316v-16.5L20.5,5.041,31.678,15.158Z" transform="matrix(0.914, -0.407, 0.407, 0.914, 579.07, 65.153)" fill="#b5b5ff"/>
          <path id="icons8_dog_house-3" data-name="icons8_dog_house" d="M25.636,0,51.272,25.24h-6.99V48.185H6.99V25.24H0ZM20.975,43.086H30.3V35.438a4.9,4.9,0,0,0-4.662-5.1,4.9,4.9,0,0,0-4.662,5.1Zm-9.323,0h4.662V35.438c0-5.632,4.174-10.2,9.323-10.2s9.323,4.566,9.323,10.2v7.648h4.662V20.628L25.636,6.861,11.652,20.628Z" transform="translate(493.839 219.941) rotate(-20)" fill="#b5b5ff"/>
          <path id="icons8_hut_1-2" data-name="icons8_hut_1" d="M19.567,0a5.169,5.169,0,0,0-2.641.826,22.318,22.318,0,0,0-2.69,1.76,60.908,60.908,0,0,0-6.1,5.321,57.217,57.217,0,0,0-5.457,6.116C1.2,15.987,0,17.5,0,19.671a1.962,1.962,0,0,0,1.957,1.967H5.87v11.8a1.962,1.962,0,0,0,1.957,1.967H31.307a1.962,1.962,0,0,0,1.957-1.967v-11.8h3.913a1.962,1.962,0,0,0,1.957-1.967c0-2.174-1.2-3.684-2.675-5.648A57.26,57.26,0,0,0,31,7.907a60.929,60.929,0,0,0-6.1-5.321A22.259,22.259,0,0,0,22.208.83,5.171,5.171,0,0,0,19.567,0Zm0,3.965a4.766,4.766,0,0,1,.8.334,19.065,19.065,0,0,1,2.205,1.448,57.7,57.7,0,0,1,5.69,4.968,54.069,54.069,0,0,1,5.075,5.678,5.856,5.856,0,0,1,.753,1.31H5.045a5.849,5.849,0,0,1,.753-1.31,54.081,54.081,0,0,1,5.075-5.678,57.676,57.676,0,0,1,5.69-4.968A19.045,19.045,0,0,1,18.768,4.3,4.778,4.778,0,0,1,19.567,3.965ZM9.784,21.638H29.351v9.835H23.48V27.539a3.913,3.913,0,1,0-7.827,0v3.934H9.784Z" transform="translate(722.589 118.284) rotate(21)" fill="#b5b5ff"/>
        </g>
        <g id="Groupe_3" data-name="Groupe 3" transform="translate(65.332 235.829) rotate(8)">
          <g id="House_Icons" data-name="House Icons" transform="translate(519.097 0)">
            <path id="icons8_home_page-2" data-name="icons8_home_page" d="M20.5,35.407,0,16.86H5.591V0H16.772V11.24h7.454V0H35.407V16.86H41L33.543,23.6v8.243H29.816v-4.87Zm0-5.042L31.68,20.248V3.747H27.953v11.24H13.045V3.747H9.318v16.5Z" transform="translate(108.239 35.346) rotate(172)" fill="#b5b5ff"/>
            <path id="icons8_hut_1-3" data-name="icons8_hut_1" d="M19.567,35.407a5.169,5.169,0,0,1-2.641-.826,22.318,22.318,0,0,1-2.69-1.76,60.908,60.908,0,0,1-6.1-5.321,57.217,57.217,0,0,1-5.457-6.116C1.2,19.42,0,17.91,0,15.736a1.962,1.962,0,0,1,1.957-1.967H5.87V1.967A1.962,1.962,0,0,1,7.827,0H31.307a1.962,1.962,0,0,1,1.957,1.967v11.8h3.913a1.962,1.962,0,0,1,1.957,1.967c0,2.174-1.2,3.684-2.675,5.648A57.259,57.259,0,0,1,31,27.5a60.93,60.93,0,0,1-6.1,5.321,22.26,22.26,0,0,1-2.69,1.756A5.171,5.171,0,0,1,19.567,35.407Zm0-3.965a4.767,4.767,0,0,0,.8-.334,19.065,19.065,0,0,0,2.205-1.448,57.7,57.7,0,0,0,5.69-4.968,54.069,54.069,0,0,0,5.075-5.678,5.856,5.856,0,0,0,.753-1.31H5.045a5.849,5.849,0,0,0,.753,1.31,54.082,54.082,0,0,0,5.075,5.678,57.676,57.676,0,0,0,5.69,4.968,19.045,19.045,0,0,0,2.205,1.448A4.778,4.778,0,0,0,19.567,31.442ZM9.784,13.769H29.351V3.934H23.48V7.868a3.913,3.913,0,1,1-7.827,0V3.934H9.784Z" transform="translate(38.131 126.177) rotate(-167)" fill="#b5b5ff"/>
          </g>
          <path id="icons8_home_page-3" data-name="icons8_home_page" d="M20.5,35.407,0,16.86H5.591V0H16.772V11.24h7.454V0H35.407V16.86H41L33.543,23.6v8.243H29.816v-4.87Zm0-5.042L31.68,20.248V3.747H27.953v11.24H13.045V3.747H9.318v16.5Z" transform="translate(446.736 134.548) rotate(178)" fill="#b5b5ff"/>
          <path id="icons8_hut_1-4" data-name="icons8_hut_1" d="M19.567,35.407a5.169,5.169,0,0,1-2.641-.826,22.318,22.318,0,0,1-2.69-1.76,60.909,60.909,0,0,1-6.1-5.321,57.217,57.217,0,0,1-5.457-6.116C1.2,19.42,0,17.91,0,15.736a1.962,1.962,0,0,1,1.957-1.967H5.87V1.967A1.962,1.962,0,0,1,7.827,0H31.307a1.962,1.962,0,0,1,1.957,1.967v11.8h3.913a1.962,1.962,0,0,1,1.957,1.967c0,2.174-1.2,3.684-2.675,5.648A57.26,57.26,0,0,1,31,27.5a60.93,60.93,0,0,1-6.1,5.321,22.26,22.26,0,0,1-2.69,1.756A5.171,5.171,0,0,1,19.567,35.407Zm0-3.965a4.767,4.767,0,0,0,.8-.334,19.065,19.065,0,0,0,2.205-1.448,57.7,57.7,0,0,0,5.69-4.968,54.069,54.069,0,0,0,5.075-5.678,5.856,5.856,0,0,0,.753-1.31H5.045a5.849,5.849,0,0,0,.753,1.31,54.081,54.081,0,0,0,5.075,5.678,57.677,57.677,0,0,0,5.69,4.968,19.046,19.046,0,0,0,2.205,1.448A4.779,4.779,0,0,0,19.567,31.442ZM9.784,13.769H29.351V3.934H23.48V7.868a3.913,3.913,0,1,1-7.827,0V3.934H9.784Z" transform="matrix(-0.995, 0.105, -0.105, -0.995, 352.469, 75.362)" fill="#b5b5ff"/>
          <path id="icons8_residence-2" data-name="icons8_residence" d="M10.359,33.543A3.74,3.74,0,0,1,7.086,31.6L0,18.635H3.662V3.727A3.755,3.755,0,0,1,7.389,0H33.478A3.755,3.755,0,0,1,37.2,3.727V18.635H41L33.776,31.629h0a3.736,3.736,0,0,1-3.254,1.914Zm0-3.727h20.16v0l4.149-7.45h-6.34l-7.894,3.945-7.895-3.945H6.282Zm10.075-7.672,5.591-2.8V3.727H22.3V9.318a1.864,1.864,0,1,1-3.727,0V3.727H14.843V19.349ZM7.389,18.635h3.727V3.727H7.389Zm13.045,0A1.864,1.864,0,1,1,22.3,16.772,1.864,1.864,0,0,1,20.433,18.635Zm9.318,0h3.727V3.727H29.751Z" transform="translate(238.68 122.772) rotate(167)" fill="#b5b5ff"/>
          <path id="icons8_roofing-2" data-name="icons8_roofing" d="M29.816,20.5V13.645l-7.454,6.821L0,0H5.521L22.362,15.414,39.2,0h5.521L41,3.41V20.5Zm3.727-3.727H37.27V6.821l-3.727,3.414Z" transform="translate(281.454 183.018) rotate(-177)" fill="#b5b5ff"/>
          <path id="icons8_warehouse-2" data-name="icons8_warehouse" d="M16.772,33.743,2.213,27.272A3.737,3.737,0,0,1,0,23.869V.025H9a1.864,1.864,0,0,1,.608,0h14.3a1.864,1.864,0,0,1,.608,0h9.023V23.869a3.737,3.737,0,0,1-2.213,3.4l0,0Zm0-4.076,13.045-5.8V3.752H26.089V20.524H7.454V3.752H3.727V23.869ZM11.181,16.8H22.362V3.752H18.635V5.616H14.908V3.752H11.181Z" transform="matrix(-0.839, -0.545, 0.545, -0.839, 135.359, 294.215)" fill="#b5b5ff"/>
          <path id="icons8_dog_house-4" data-name="icons8_dog_house" d="M20.5,35.407,0,16.86H5.589V0H35.405V16.86h5.589Zm3.727-31.66H16.77v5.62a3.727,3.727,0,1,0,7.454,0Zm7.454,0H27.951v5.62a7.454,7.454,0,1,1-14.908,0V3.747H9.316v16.5L20.5,30.366,31.678,20.249Z" transform="matrix(-0.914, -0.407, 0.407, -0.914, 111.084, 85.318)" fill="#b5b5ff"/>
          <path id="icons8_home_page-4" data-name="icons8_home_page" d="M20.5,35.407,0,16.86H5.591V0H16.772V11.24h7.454V0H35.407V16.86H41L33.543,23.6v8.243H29.816v-4.87Zm0-5.042L31.68,20.248V3.747H27.953v11.24H13.045V3.747H9.318v16.5Z" transform="translate(45.526 190.832) rotate(172)" fill="#b5b5ff"/>
        </g>
      </g>
      <g id="House_Motif-2" data-name="House Motif" transform="translate(605.194 -3011.815)">
        <g id="Groupe_2-2" data-name="Groupe 2" transform="translate(-426.486 2704.786)">
          <path id="icons8_dog_house-5" data-name="icons8_dog_house" d="M20.5,35.407,0,16.86H5.589V0H35.405V16.86h5.589Zm3.727-31.66H16.77v5.62a3.727,3.727,0,1,0,7.454,0Zm7.454,0H27.951v5.62a7.454,7.454,0,1,1-14.908,0V3.747H9.316v16.5L20.5,30.366,31.678,20.249Z" transform="translate(21.551 211.133) rotate(20)" fill="#b5b5ff"/>
          <path id="icons8_school_house-3" data-name="icons8_school_house" d="M19.588,35.407,7.326,29.214l1.58-3.328,1.681.85V18.81L4.9,15.276a1.789,1.789,0,0,1-1.13-.7L0,12.238,1.853,9.062,3.4,10.02V0H17.777V5.556h3.595V0H35.75V10.234l1.559-.948,1.825,3.19L28.561,18.908v7.629l1.653-.868,1.636,3.3Zm-.028-4.138,5.406-2.84V21.1l-5.4,3.285-5.381-3.339v7.51Zm.025-11.2L24.966,16.8v-.127h.207l6.982-4.247V3.7H24.966V9.261H14.182V3.7H6.993v8.548l7.116,4.417h.074v.047Z" transform="matrix(0.719, 0.695, -0.695, 0.719, 24.596, 74.394)" fill="#b5b5ff"/>
          <path id="icons8_home_page-5" data-name="icons8_home_page" d="M20.5,35.407,0,16.86H5.591V0H16.772V11.24h7.454V0H35.407V16.86H41L33.543,23.6v8.243H29.816v-4.87Zm0-5.042L31.68,20.248V3.747H27.953v11.24H13.045V3.747H9.318v16.5Z" transform="matrix(0.999, -0.035, 0.035, 0.999, 220.549, 111.697)" fill="#b5b5ff"/>
          <path id="icons8_school_house-4" data-name="icons8_school_house" d="M19.588,35.407,7.326,29.214l1.58-3.328,1.681.85V18.81L4.9,15.276a1.789,1.789,0,0,1-1.13-.7L0,12.238,1.853,9.062,3.4,10.02V0H17.777V5.556h3.595V0H35.75V10.234l1.559-.948,1.825,3.19L28.561,18.908v7.629l1.653-.868,1.636,3.3Zm-.028-4.138,5.406-2.84V21.1l-5.4,3.285-5.381-3.339v7.51Zm.025-11.2L24.966,16.8v-.127h.207l6.982-4.247V3.7H24.966V9.261H14.182V3.7H6.993v8.548l7.116,4.417h.074v.047Z" transform="translate(416.879 193.193) rotate(9)" fill="#b5b5ff"/>
          <path id="icons8_hut_1-5" data-name="icons8_hut_1" d="M19.567,35.407a5.169,5.169,0,0,1-2.641-.826,22.318,22.318,0,0,1-2.69-1.76,60.908,60.908,0,0,1-6.1-5.321,57.217,57.217,0,0,1-5.457-6.116C1.2,19.42,0,17.91,0,15.736a1.962,1.962,0,0,1,1.957-1.967H5.87V1.967A1.962,1.962,0,0,1,7.827,0H31.307a1.962,1.962,0,0,1,1.957,1.967v11.8h3.913a1.962,1.962,0,0,1,1.957,1.967c0,2.174-1.2,3.684-2.675,5.648A57.26,57.26,0,0,1,31,27.5a60.929,60.929,0,0,1-6.1,5.321,22.259,22.259,0,0,1-2.69,1.756A5.171,5.171,0,0,1,19.567,35.407Zm0-3.965a4.766,4.766,0,0,0,.8-.334,19.065,19.065,0,0,0,2.205-1.448,57.7,57.7,0,0,0,5.69-4.968,54.069,54.069,0,0,0,5.075-5.678,5.856,5.856,0,0,0,.753-1.31H5.045a5.849,5.849,0,0,0,.753,1.31,54.081,54.081,0,0,0,5.075,5.678,57.676,57.676,0,0,0,5.69,4.968,19.045,19.045,0,0,0,2.205,1.448A4.778,4.778,0,0,0,19.567,31.442ZM9.784,13.769H29.351V3.934H23.48V7.868a3.913,3.913,0,1,1-7.827,0V3.934H9.784Z" transform="translate(161.993 178.889) rotate(41)" fill="#b5b5ff"/>
          <path id="icons8_residence-3" data-name="icons8_residence" d="M10.359,33.543A3.74,3.74,0,0,1,7.086,31.6L0,18.635H3.662V3.727A3.755,3.755,0,0,1,7.389,0H33.478A3.755,3.755,0,0,1,37.2,3.727V18.635H41L33.776,31.629h0a3.736,3.736,0,0,1-3.254,1.914Zm0-3.727h20.16v0l4.149-7.45h-6.34l-7.894,3.945-7.895-3.945H6.282Zm10.075-7.672,5.591-2.8V3.727H22.3V9.318a1.864,1.864,0,1,1-3.727,0V3.727H14.843V19.349ZM7.389,18.635h3.727V3.727H7.389Zm13.045,0A1.864,1.864,0,1,1,22.3,16.772,1.864,1.864,0,0,1,20.433,18.635Zm9.318,0h3.727V3.727H29.751Z" transform="translate(331.701 48.931) rotate(-13)" fill="#b5b5ff"/>
          <path id="icons8_roofing-3" data-name="icons8_roofing" d="M29.816,20.5V13.645l-7.454,6.821L0,0H5.521L22.362,15.414,39.2,0h5.521L41,3.41V20.5Zm3.727-3.727H37.27V6.821l-3.727,3.414Z" transform="translate(235.099 11.278) rotate(-7)" fill="#b5b5ff"/>
          <path id="icons8_warehouse-3" data-name="icons8_warehouse" d="M16.772,33.743,2.213,27.272A3.737,3.737,0,0,1,0,23.869V.025H9a1.864,1.864,0,0,1,.608,0h14.3a1.864,1.864,0,0,1,.608,0h9.023V23.869a3.737,3.737,0,0,1-2.213,3.4l0,0Zm0-4.076,13.045-5.8V3.752H26.089V20.524H7.454V3.752H3.727V23.869ZM11.181,16.8H22.362V3.752H18.635V5.616H14.908V3.752H11.181Z" transform="matrix(0.839, 0.545, -0.545, 0.839, 71.042, 0)" fill="#b5b5ff"/>
          <path id="icons8_dog_house-6" data-name="icons8_dog_house" d="M20.5,35.407,0,16.86H5.589V0H35.405V16.86h5.589Zm3.727-31.66H16.77v5.62a3.727,3.727,0,1,0,7.454,0Zm7.454,0H27.951v5.62a7.454,7.454,0,1,1-14.908,0V3.747H9.316v16.5L20.5,30.366,31.678,20.249Z" transform="matrix(0.914, 0.407, -0.407, 0.914, 593.472, 160.926)" fill="#b5b5ff"/>
          <path id="icons8_hut_1-6" data-name="icons8_hut_1" d="M19.567,35.407a5.169,5.169,0,0,1-2.641-.826,22.319,22.319,0,0,1-2.69-1.76,60.909,60.909,0,0,1-6.1-5.321,57.217,57.217,0,0,1-5.457-6.116C1.2,19.42,0,17.91,0,15.736a1.962,1.962,0,0,1,1.957-1.967H5.87V1.967A1.962,1.962,0,0,1,7.827,0H31.307a1.962,1.962,0,0,1,1.957,1.967v11.8h3.913a1.962,1.962,0,0,1,1.957,1.967c0,2.174-1.2,3.684-2.675,5.648A57.26,57.26,0,0,1,31,27.5a60.93,60.93,0,0,1-6.1,5.321,22.259,22.259,0,0,1-2.69,1.756A5.171,5.171,0,0,1,19.567,35.407Zm0-3.965a4.766,4.766,0,0,0,.8-.334,19.065,19.065,0,0,0,2.205-1.448,57.7,57.7,0,0,0,5.69-4.968,54.069,54.069,0,0,0,5.075-5.678,5.856,5.856,0,0,0,.753-1.31H5.045a5.849,5.849,0,0,0,.753,1.31,54.081,54.081,0,0,0,5.075,5.678,57.676,57.676,0,0,0,5.69,4.968,19.045,19.045,0,0,0,2.205,1.448A4.778,4.778,0,0,0,19.567,31.442ZM9.784,13.769H29.351V3.934H23.48V7.868a3.913,3.913,0,1,1-7.827,0V3.934H9.784Z" transform="translate(709.901 107.086) rotate(-21)" fill="#b5b5ff"/>
        </g>
        <g id="Groupe_3-2" data-name="Groupe 3" transform="translate(-402.102 2436.031) rotate(-8)">
          <g id="House_Icons-2" data-name="House Icons" transform="translate(519.097 168.038)">
            <path id="icons8_home_page-6" data-name="icons8_home_page" d="M20.5,0,0,18.547H5.591v16.86H16.772V24.167h7.454v11.24H35.407V18.547H41L33.543,11.8V3.56H29.816V8.43Zm0,5.042L31.68,15.159v16.5H27.953V20.42H13.045V31.66H9.318v-16.5Z" transform="translate(103.311 125.894) rotate(-172)" fill="#b5b5ff"/>
            <path id="icons8_hut_1-7" data-name="icons8_hut_1" d="M19.567,0a5.169,5.169,0,0,0-2.641.826,22.318,22.318,0,0,0-2.69,1.76,60.908,60.908,0,0,0-6.1,5.321,57.217,57.217,0,0,0-5.457,6.116C1.2,15.987,0,17.5,0,19.671a1.962,1.962,0,0,0,1.957,1.967H5.87v11.8a1.962,1.962,0,0,0,1.957,1.967H31.307a1.962,1.962,0,0,0,1.957-1.967v-11.8h3.913a1.962,1.962,0,0,0,1.957-1.967c0-2.174-1.2-3.684-2.675-5.648A57.259,57.259,0,0,0,31,7.907a60.929,60.929,0,0,0-6.1-5.321A22.26,22.26,0,0,0,22.208.83,5.171,5.171,0,0,0,19.567,0Zm0,3.965a4.767,4.767,0,0,1,.8.334,19.065,19.065,0,0,1,2.205,1.448,57.7,57.7,0,0,1,5.69,4.968,54.069,54.069,0,0,1,5.075,5.678,5.856,5.856,0,0,1,.753,1.31H5.045a5.849,5.849,0,0,1,.753-1.31,54.081,54.081,0,0,1,5.075-5.678,57.676,57.676,0,0,1,5.69-4.968A19.045,19.045,0,0,1,18.768,4.3,4.778,4.778,0,0,1,19.567,3.965ZM9.784,21.638H29.351v9.835H23.48V27.539a3.913,3.913,0,1,0-7.827,0v3.934H9.784Z" transform="translate(46.096 34.499) rotate(167)" fill="#b5b5ff"/>
          </g>
          <path id="icons8_home_page-7" data-name="icons8_home_page" d="M20.5,0,0,18.547H5.591v16.86H16.772V24.167h7.454v11.24H35.407V18.547H41L33.543,11.8V3.56H29.816V8.43Zm0,5.042L31.68,15.159v16.5H27.953V20.42H13.045V31.66H9.318v-16.5Z" transform="matrix(-0.999, -0.035, 0.035, -0.999, 445.5, 195.053)" fill="#b5b5ff"/>
          <path id="icons8_hut_1-8" data-name="icons8_hut_1" d="M19.567,0a5.169,5.169,0,0,0-2.641.826,22.318,22.318,0,0,0-2.69,1.76,60.909,60.909,0,0,0-6.1,5.321,57.217,57.217,0,0,0-5.457,6.116C1.2,15.987,0,17.5,0,19.671a1.962,1.962,0,0,0,1.957,1.967H5.87v11.8a1.962,1.962,0,0,0,1.957,1.967H31.307a1.962,1.962,0,0,0,1.957-1.967v-11.8h3.913a1.962,1.962,0,0,0,1.957-1.967c0-2.174-1.2-3.684-2.675-5.648A57.26,57.26,0,0,0,31,7.907a60.93,60.93,0,0,0-6.1-5.321A22.26,22.26,0,0,0,22.208.83,5.171,5.171,0,0,0,19.567,0Zm0,3.965a4.767,4.767,0,0,1,.8.334,19.065,19.065,0,0,1,2.205,1.448,57.7,57.7,0,0,1,5.69,4.968,54.069,54.069,0,0,1,5.075,5.678,5.856,5.856,0,0,1,.753,1.31H5.045a5.849,5.849,0,0,1,.753-1.31,54.081,54.081,0,0,1,5.075-5.678,57.677,57.677,0,0,1,5.69-4.968A19.046,19.046,0,0,1,18.768,4.3,4.779,4.779,0,0,1,19.567,3.965ZM9.784,21.638H29.351v9.835H23.48V27.539a3.913,3.913,0,1,0-7.827,0v3.934H9.784Z" transform="matrix(-0.995, -0.105, 0.105, -0.995, 348.768, 254.066)" fill="#b5b5ff"/>
          <path id="icons8_residence-4" data-name="icons8_residence" d="M10.359,0A3.74,3.74,0,0,0,7.086,1.94L0,14.908H3.662V29.816a3.755,3.755,0,0,0,3.727,3.727H33.478A3.755,3.755,0,0,0,37.2,29.816V14.908H41L33.776,1.914h0A3.736,3.736,0,0,0,30.519,0Zm0,3.727h20.16v0l4.149,7.45h-6.34L20.433,7.236l-7.895,3.945H6.282ZM20.433,11.4l5.591,2.8V29.816H22.3V24.226a1.864,1.864,0,1,0-3.727,0v5.591H14.843V14.195ZM7.389,14.908h3.727V29.816H7.389Zm13.045,0A1.864,1.864,0,1,0,22.3,16.772,1.864,1.864,0,0,0,20.433,14.908Zm9.318,0h3.727V29.816H29.751Z" transform="translate(231.135 204.127) rotate(-167)" fill="#b5b5ff"/>
          <path id="icons8_roofing-4" data-name="icons8_roofing" d="M29.816,0V6.854L22.362.033,0,20.5H5.521L22.362,5.085,39.2,20.5h5.521L41,17.088V0Zm3.727,3.727H37.27v9.951l-3.727-3.414Z" transform="translate(282.527 131.668) rotate(177)" fill="#b5b5ff"/>
          <path id="icons8_warehouse-4" data-name="icons8_warehouse" d="M16.772,0,2.213,6.471A3.737,3.737,0,0,0,0,9.875V33.718H9a1.864,1.864,0,0,0,.608,0h14.3a1.864,1.864,0,0,0,.608,0h9.023V9.874a3.737,3.737,0,0,0-2.213-3.4l0,0Zm0,4.076,13.045,5.8V29.991H26.089V13.219H7.454V29.991H3.727V9.875Zm-5.591,12.87H22.362V29.991H18.635V28.128H14.908v1.864H11.181Z" transform="matrix(-0.839, 0.545, -0.545, -0.839, 153.736, 28.299)" fill="#b5b5ff"/>
          <path id="icons8_dog_house-7" data-name="icons8_dog_house" d="M20.5,0,0,18.547H5.589v16.86H35.405V18.547h5.589Zm3.727,31.66H16.77V26.04a3.727,3.727,0,1,1,7.454,0Zm7.454,0H27.951V26.04a7.454,7.454,0,1,0-14.908,0v5.62H9.316v-16.5L20.5,5.041,31.678,15.158Z" transform="matrix(-0.914, 0.407, -0.407, -0.914, 125.485, 241.243)" fill="#b5b5ff"/>
          <path id="icons8_home_page-8" data-name="icons8_home_page" d="M20.5,0,0,18.547H5.591v16.86H16.772V24.167h7.454v11.24H35.407V18.547H41L33.543,11.8V3.56H29.816V8.43Zm0,5.042L31.68,15.159v16.5H27.953V20.42H13.045V31.66H9.318v-16.5Z" transform="translate(40.599 138.445) rotate(-172)" fill="#b5b5ff"/>
        </g>
      </g>
      <g id="House_Motif-3" data-name="House Motif" transform="matrix(-0.995, -0.105, 0.105, -0.995, 1323.905, 749.56)">
        <g id="Groupe_2-3" data-name="Groupe 2" transform="translate(47.197 359.64)">
          <path id="icons8_school_house-5" data-name="icons8_school_house" d="M18.589,0,6.952,5.877l1.5,3.158,1.6-.807V15.75L4.647,19.1a1.7,1.7,0,0,0-1.073.666L0,21.987,1.759,25l1.466-.91V33.6H16.87V28.328h3.411V33.6H33.926V23.889l1.479.9,1.732-3.028L27.1,15.657V8.417l1.569.824L30.225,6.11Zm-.027,3.927,5.13,2.695V13.58l-5.127-3.117-5.107,3.168V6.505Zm.023,10.628,5.107,3.107v.12h.2l6.626,4.03v8.273H23.692V24.813H13.459v5.273H6.636V21.974l6.753-4.192h.07v-.045Z" transform="matrix(-0.719, 0.695, -0.695, -0.719, 720.396, 89.238)" fill="#b5b5ff"/>
          <path id="icons8_home_page-9" data-name="icons8_home_page" d="M19.453,0,0,17.6H5.305v16H15.916V22.934H22.99V33.6H33.6v-16h5.305l-7.074-6.4V3.378H28.3V8Zm0,4.785,10.611,9.6v15.66H26.527V19.378H12.379V30.045H8.842V14.385Z" transform="matrix(-0.999, -0.035, 0.035, -0.999, 509.926, 134.048)" fill="#b5b5ff"/>
          <path id="icons8_residence-5" data-name="icons8_residence" d="M9.83,0A3.549,3.549,0,0,0,6.725,1.841L0,14.148H3.475V28.3a3.563,3.563,0,0,0,3.537,3.537H31.77A3.563,3.563,0,0,0,35.307,28.3V14.148h3.606L32.053,1.817h0A3.546,3.546,0,0,0,28.962,0Zm0,3.537H28.962v0l3.938,7.07H26.882L19.391,6.867,11.9,10.611H5.962Zm9.561,7.281L24.7,13.471V28.3H21.159V22.99a1.768,1.768,0,1,0-3.537,0V28.3H14.085V13.471ZM7.012,14.148h3.537V28.3H7.012Zm12.379,0a1.768,1.768,0,1,0,1.768,1.768A1.768,1.768,0,0,0,19.391,14.148Zm8.842,0H31.77V28.3H28.233Z" transform="translate(230.175 70.04) rotate(-167)" fill="#b5b5ff"/>
          <path id="icons8_roofing-5" data-name="icons8_roofing" d="M28.3,0V6.5L21.221.031,0,19.453H5.24L21.221,4.825,37.2,19.453h5.24l-3.537-3.236V0Zm3.537,3.537h3.537V12.98L31.832,9.74Z" transform="translate(494.92 24.48) rotate(-173)" fill="#b5b5ff"/>
          <path id="icons8_dog_house-8" data-name="icons8_dog_house" d="M19.451,0,0,17.6H5.3v16H33.6v-16h5.3Zm3.537,30.045H15.914V24.712a3.537,3.537,0,1,1,7.074,0Zm7.074,0H26.525V24.712a7.074,7.074,0,1,0-14.148,0v5.333H8.84V14.384l10.611-9.6,10.611,9.6Z" transform="matrix(-0.914, 0.407, -0.407, -0.914, 170.868, 177.882)" fill="#b5b5ff"/>
        </g>
        <g id="Groupe_3-3" data-name="Groupe 3" transform="translate(704.88 380.638) rotate(-172)">
          <g id="House_Icons-3" data-name="House Icons" transform="translate(524.739 0)">
            <path id="icons8_dog_house-9" data-name="icons8_dog_house" d="M19.451,33.6,0,16H5.3V0H33.6V16h5.3ZM22.988,3.556H15.914V8.889a3.537,3.537,0,1,0,7.074,0Zm7.074,0H26.525V8.889a7.074,7.074,0,1,1-14.148,0V3.556H8.84V19.216l10.611,9.6,10.611-9.6Z" transform="matrix(-0.914, -0.407, 0.407, -0.914, 173.402, 46.519)" fill="#b5b5ff"/>
            <path id="icons8_home_page-10" data-name="icons8_home_page" d="M19.453,33.6,0,16H5.305V0H15.916V10.667H22.99V0H33.6V16h5.305l-7.074,6.4v7.823H28.3V25.6Zm0-4.785,10.611-9.6V3.556H26.527V14.222H12.379V3.556H8.842v15.66Z" transform="translate(102.717 33.542) rotate(172)" fill="#b5b5ff"/>
            <path id="icons8_school_house-6" data-name="icons8_school_house" d="M18.589,33.6,6.952,27.724l1.5-3.158,1.6.807V17.851L4.647,14.5a1.7,1.7,0,0,1-1.073-.666L0,11.613,1.759,8.6l1.466.91V0H16.87V5.273h3.411V0H33.926V9.712l1.479-.9,1.732,3.028L27.1,17.943v7.24l1.569-.824,1.552,3.131Zm-.027-3.927,5.13-2.695V20.02l-5.127,3.117-5.107-3.168V27.1Zm.023-10.628,5.107-3.107v-.12h.2l6.626-4.03V3.515H23.692V8.788H13.459V3.515H6.636v8.112l6.753,4.192h.07v.045Z" transform="matrix(-0.719, -0.695, 0.695, -0.719, 152.656, 163.083)" fill="#b5b5ff"/>
            <path id="icons8_hut_1-9" data-name="icons8_hut_1" d="M18.569,33.6a4.905,4.905,0,0,1-2.506-.784,21.18,21.18,0,0,1-2.553-1.67A57.8,57.8,0,0,1,7.718,26.1a54.3,54.3,0,0,1-5.179-5.8C1.138,18.43,0,17,0,14.934a1.862,1.862,0,0,1,1.857-1.867H5.571V1.867A1.862,1.862,0,0,1,7.427,0H29.71a1.862,1.862,0,0,1,1.857,1.867v11.2h3.714a1.862,1.862,0,0,1,1.857,1.867c0,2.063-1.138,3.5-2.539,5.36a54.338,54.338,0,0,1-5.183,5.8,57.822,57.822,0,0,1-5.788,5.05,21.124,21.124,0,0,1-2.553,1.666A4.907,4.907,0,0,1,18.569,33.6Zm0-3.763a4.524,4.524,0,0,0,.758-.317,18.092,18.092,0,0,0,2.093-1.375,54.759,54.759,0,0,0,5.4-4.714,51.31,51.31,0,0,0,4.816-5.389A5.557,5.557,0,0,0,32.35,16.8H4.787A5.551,5.551,0,0,0,5.5,18.044a51.322,51.322,0,0,0,4.816,5.389,54.734,54.734,0,0,0,5.4,4.714,18.075,18.075,0,0,0,2.093,1.375A4.535,4.535,0,0,0,18.569,29.838ZM9.284,13.067H27.853V3.733H22.283V7.467a3.714,3.714,0,1,1-7.428,0V3.733H9.284Z" transform="translate(36.186 119.74) rotate(-167)" fill="#b5b5ff"/>
          </g>
          <path id="icons8_home_page-11" data-name="icons8_home_page" d="M19.453,33.6,0,16H5.305V0H15.916V10.667H22.99V0H33.6V16h5.305l-7.074,6.4v7.823H28.3V25.6Zm0-4.785,10.611-9.6V3.556H26.527V14.222H12.379V3.556H8.842v15.66Z" transform="matrix(-0.999, 0.035, -0.035, -0.999, 527.117, 213.91)" fill="#b5b5ff"/>
          <path id="icons8_hut_1-10" data-name="icons8_hut_1" d="M18.569,33.6a4.905,4.905,0,0,1-2.506-.784,21.18,21.18,0,0,1-2.553-1.67A57.8,57.8,0,0,1,7.718,26.1a54.3,54.3,0,0,1-5.179-5.8C1.138,18.43,0,17,0,14.934a1.862,1.862,0,0,1,1.857-1.867H5.571V1.867A1.862,1.862,0,0,1,7.427,0H29.71a1.862,1.862,0,0,1,1.857,1.867v11.2h3.714a1.862,1.862,0,0,1,1.857,1.867c0,2.063-1.138,3.5-2.539,5.36a54.338,54.338,0,0,1-5.183,5.8,57.821,57.821,0,0,1-5.788,5.05,21.124,21.124,0,0,1-2.553,1.666A4.907,4.907,0,0,1,18.569,33.6Zm0-3.763a4.523,4.523,0,0,0,.758-.317,18.092,18.092,0,0,0,2.093-1.375,54.758,54.758,0,0,0,5.4-4.714,51.31,51.31,0,0,0,4.816-5.389A5.557,5.557,0,0,0,32.35,16.8H4.787A5.551,5.551,0,0,0,5.5,18.044a51.322,51.322,0,0,0,4.816,5.389,54.733,54.733,0,0,0,5.4,4.714,18.074,18.074,0,0,0,2.093,1.375A4.535,4.535,0,0,0,18.569,29.838ZM9.284,13.067H27.853V3.733H22.283V7.467a3.714,3.714,0,1,1-7.428,0V3.733H9.284Z" transform="translate(343.518 55.065) rotate(174)" fill="#b5b5ff"/>
          <path id="icons8_residence-6" data-name="icons8_residence" d="M9.83,31.832a3.549,3.549,0,0,1-3.105-1.841L0,17.685H3.475V3.537A3.563,3.563,0,0,1,7.012,0H31.77a3.563,3.563,0,0,1,3.537,3.537V17.685h3.606l-6.86,12.331h0a3.546,3.546,0,0,1-3.088,1.817Zm0-3.537H28.962v0l3.938-7.07H26.882l-7.492,3.744L11.9,21.221H5.962Zm9.561-7.281L24.7,18.361V3.537H21.159V8.842a1.768,1.768,0,1,1-3.537,0V3.537H14.085V18.361ZM7.012,17.685h3.537V3.537H7.012Zm12.379,0a1.768,1.768,0,1,1,1.768-1.768A1.768,1.768,0,0,1,19.391,17.685Zm8.842,0H31.77V3.537H28.233Z" transform="translate(195.589 135.873) rotate(167)" fill="#b5b5ff"/>
          <path id="icons8_roofing-6" data-name="icons8_roofing" d="M28.3,19.453v-6.5l-7.074,6.473L0,0H5.24L21.221,14.628,37.2,0h5.24L38.906,3.236V19.453Zm3.537-3.537h3.537V6.473l-3.537,3.24Z" transform="translate(315.395 235.744) rotate(-177)" fill="#b5b5ff"/>
          <path id="icons8_warehouse-5" data-name="icons8_warehouse" d="M15.916,32.022,2.1,25.88A3.546,3.546,0,0,1,0,22.651V.024H8.545a1.769,1.769,0,0,1,.577,0H22.693a1.769,1.769,0,0,1,.577,0h8.562V22.651a3.546,3.546,0,0,1-2.1,3.229l0,0Zm0-3.868,12.379-5.5V3.561H24.758V19.477H7.074V3.561H3.537v19.09ZM10.611,15.94H21.221V3.561H17.685V5.329H14.148V3.561H10.611Z" transform="matrix(-0.839, -0.545, 0.545, -0.839, 128.453, 284.341)" fill="#b5b5ff"/>
          <path id="icons8_dog_house-10" data-name="icons8_dog_house" d="M19.451,33.6,0,16H5.3V0H33.6V16h5.3ZM22.988,3.556H15.914V8.889a3.537,3.537,0,1,0,7.074,0Zm7.074,0H26.525V8.889a7.074,7.074,0,1,1-14.148,0V3.556H8.84V19.216l10.611,9.6,10.611-9.6Z" transform="matrix(-0.914, -0.407, 0.407, -0.914, 105.417, 86.101)" fill="#b5b5ff"/>
        </g>
      </g>
      <g id="House_Motif-4" data-name="House Motif" transform="matrix(0.995, 0.105, -0.105, 0.995, 910.544, -59.7)">
        <g id="Groupe_2-4" data-name="Groupe 2" transform="translate(249.552 -401.778)">
          <path id="icons8_school_house-7" data-name="icons8_school_house" d="M27.288,32.488,15.652,38.365l1.5,3.158,1.6-.807v7.521l-5.4,3.354a1.7,1.7,0,0,0-1.073.666L8.7,54.475l1.759,3.014,1.466-.91v9.509H25.57V60.816h3.411v5.273H42.626V56.377l1.479.9,1.732-3.028L35.8,48.145v-7.24l1.569.824L38.925,38.6Zm-.027,3.927,5.13,2.695v6.958l-5.127-3.117L22.158,46.12V38.993Zm.023,10.628,5.107,3.107v.12h.2l6.626,4.03v8.273H32.392V57.3H22.158v5.273H15.336V54.462l6.753-4.192h.07v-.045Z" transform="matrix(-0.719, 0.695, -0.695, -0.719, 659.774, 604.973)" fill="#b5b5ff"/>
          <path id="icons8_home_page-12" data-name="icons8_home_page" d="M24.888,30.176,5.435,47.776H10.74v16H21.351V53.11h7.074V63.776H39.036v-16h5.305l-7.074-6.4V33.554H33.73v4.622Zm0,4.785,10.611,9.6v15.66H31.962V49.554H17.814V60.221H14.277V44.561Z" transform="matrix(-0.999, -0.035, 0.035, -0.999, 424.857, 662.803)" fill="#b5b5ff"/>
          <path id="icons8_residence-7" data-name="icons8_residence" d="M18.725,38.839A3.549,3.549,0,0,0,15.62,40.68L8.9,52.986H12.37V67.134a3.563,3.563,0,0,0,3.537,3.537H40.665A3.563,3.563,0,0,0,44.2,67.134V52.986h3.606l-6.86-12.331h0a3.546,3.546,0,0,0-3.088-1.817Zm0,3.537H37.857v0l3.938,7.07H35.778l-7.492-3.744L20.794,49.45H14.857Zm9.561,7.281,5.305,2.653V67.134H30.054V61.829a1.768,1.768,0,1,0-3.537,0v5.305H22.981V52.309Zm-12.379,3.33h3.537V67.134H15.907Zm12.379,0a1.768,1.768,0,1,0,1.768,1.768A1.768,1.768,0,0,0,28.286,52.986Zm8.842,0h3.537V67.134H37.128Z" transform="translate(140.657 608.292) rotate(-167)" fill="#b5b5ff"/>
          <path id="icons8_roofing-7" data-name="icons8_roofing" d="M28.3,31.263v6.5l-7.074-6.473L0,50.716H5.24L21.221,36.088,37.2,50.716h5.24l-3.537-3.236V31.263ZM31.832,34.8h3.537v9.443L31.832,41Z" transform="translate(401.662 553.918) rotate(-173)" fill="#b5b5ff"/>
          <path id="icons8_dog_house-11" data-name="icons8_dog_house" d="M24.887,26.349,5.436,43.949h5.3v16h28.3v-16h5.3Zm3.537,30.045H21.35V51.061a3.537,3.537,0,1,1,7.074,0Zm7.074,0H31.961V51.061a7.074,7.074,0,1,0-14.148,0v5.333H14.277V40.733l10.611-9.6,10.611,9.6Z" transform="matrix(-0.914, 0.407, -0.407, -0.914, 97.103, 698.15)" fill="#b5b5ff"/>
        </g>
        <g id="Groupe_3-4" data-name="Groupe 3" transform="translate(756.154 756.746) rotate(-172)">
          <g id="House_Icons-4" data-name="House Icons" transform="translate(534.202 471.198)">
            <path id="icons8_dog_house-12" data-name="icons8_dog_house" d="M24.7,72.25,5.251,54.649h5.3v-16h28.3v16h5.3ZM28.239,42.2H21.165v5.333a3.537,3.537,0,1,0,7.074,0Zm7.074,0H31.776v5.333a7.074,7.074,0,1,1-14.148,0V42.2H14.091V57.865l10.611,9.6,10.611-9.6Z" transform="matrix(-0.914, -0.407, 0.407, -0.914, 180.932, 254.239)" fill="#b5b5ff"/>
            <path id="icons8_home_page-13" data-name="icons8_home_page" d="M24.7,22.67,5.25,5.07h5.305v-16H21.166V-.264H28.24V-10.93H38.85v16h5.305l-7.074,6.4v7.823H33.545V14.67Zm0-4.785,10.611-9.6V-7.375H31.777V3.292H17.629V-7.375H14.092V8.285Z" transform="translate(124.847 192.265) rotate(172)" fill="#b5b5ff"/>
            <path id="icons8_school_house-8" data-name="icons8_school_house" d="M27.419,75.7,15.782,69.822l1.5-3.158,1.6.807V59.949l-5.4-3.354A1.7,1.7,0,0,1,12.4,55.93L8.83,53.712,10.589,50.7l1.466.91V42.1H25.7v5.273h3.411V42.1H42.756V51.81l1.479-.9,1.732,3.028-10.034,6.1v7.24l1.569-.824,1.552,3.131Zm-.027-3.927,5.13-2.695V62.119L27.4,65.236l-5.107-3.168v7.127Zm.023-10.628,5.107-3.107v-.12h.2l6.626-4.03V45.614H32.522v5.273H22.288V45.614H15.466v8.112l6.753,4.192h.07v.045Z" transform="matrix(-0.719, -0.695, 0.695, -0.719, 148.216, 369.777)" fill="#b5b5ff"/>
            <path id="icons8_hut_1-11" data-name="icons8_hut_1" d="M24.451,69.49a4.905,4.905,0,0,1-2.506-.784,21.179,21.179,0,0,1-2.553-1.67,57.8,57.8,0,0,1-5.792-5.05,54.3,54.3,0,0,1-5.179-5.8c-1.4-1.864-2.539-3.3-2.539-5.359a1.862,1.862,0,0,1,1.857-1.867h3.714v-11.2a1.862,1.862,0,0,1,1.857-1.867H35.592a1.862,1.862,0,0,1,1.857,1.867v11.2h3.714a1.862,1.862,0,0,1,1.857,1.867c0,2.063-1.138,3.5-2.539,5.36a54.337,54.337,0,0,1-5.183,5.8,57.821,57.821,0,0,1-5.788,5.05A21.124,21.124,0,0,1,26.957,68.7,4.907,4.907,0,0,1,24.451,69.49Zm0-3.763a4.523,4.523,0,0,0,.758-.317A18.091,18.091,0,0,0,27.3,64.035a54.759,54.759,0,0,0,5.4-4.714,51.31,51.31,0,0,0,4.816-5.389,5.557,5.557,0,0,0,.715-1.243H10.669a5.551,5.551,0,0,0,.714,1.243A51.322,51.322,0,0,0,16.2,59.321a54.734,54.734,0,0,0,5.4,4.714,18.075,18.075,0,0,0,2.093,1.375A4.534,4.534,0,0,0,24.451,65.727ZM15.166,48.956H33.735V39.623H28.164v3.733a3.714,3.714,0,1,1-7.428,0V39.623H15.166Z" transform="translate(52.296 326.31) rotate(-167)" fill="#b5b5ff"/>
          </g>
          <path id="icons8_home_page-14" data-name="icons8_home_page" d="M24.7,22.67,5.25,5.07h5.305v-16H21.166V-.264H28.24V-10.93H38.85v16h5.305l-7.074,6.4v7.823H33.545V14.67Zm0-4.785,10.611-9.6V-7.375H31.777V3.292H17.629V-7.375H14.092V8.285Z" transform="matrix(-0.999, 0.035, -0.035, -0.999, 559.898, 844.279)" fill="#b5b5ff"/>
          <path id="icons8_hut_1-12" data-name="icons8_hut_1" d="M24.451,69.49a4.905,4.905,0,0,1-2.506-.784,21.18,21.18,0,0,1-2.553-1.67,57.8,57.8,0,0,1-5.792-5.05,54.3,54.3,0,0,1-5.179-5.8c-1.4-1.864-2.539-3.3-2.539-5.359a1.862,1.862,0,0,1,1.857-1.867h3.714v-11.2a1.862,1.862,0,0,1,1.857-1.867H35.592a1.862,1.862,0,0,1,1.857,1.867v11.2h3.714a1.862,1.862,0,0,1,1.857,1.867c0,2.063-1.138,3.5-2.539,5.36a54.34,54.34,0,0,1-5.183,5.8,57.819,57.819,0,0,1-5.788,5.05A21.123,21.123,0,0,1,26.957,68.7,4.907,4.907,0,0,1,24.451,69.49Zm0-3.763a4.523,4.523,0,0,0,.758-.317A18.092,18.092,0,0,0,27.3,64.035a54.759,54.759,0,0,0,5.4-4.714,51.31,51.31,0,0,0,4.816-5.389,5.558,5.558,0,0,0,.715-1.243H10.669a5.551,5.551,0,0,0,.714,1.243A51.322,51.322,0,0,0,16.2,59.321a54.732,54.732,0,0,0,5.4,4.714,18.073,18.073,0,0,0,2.093,1.375A4.534,4.534,0,0,0,24.451,65.727ZM15.166,48.956H33.735V39.623H28.164v3.733a3.714,3.714,0,1,1-7.428,0V39.623H15.166Z" transform="translate(381.035 731.618) rotate(174)" fill="#b5b5ff"/>
          <path id="icons8_residence-8" data-name="icons8_residence" d="M18.823,73.473a3.549,3.549,0,0,1-3.105-1.841L8.993,59.325h3.475V45.178A3.563,3.563,0,0,1,16,41.641H40.763A3.563,3.563,0,0,1,44.3,45.178V59.325h3.606l-6.86,12.331h0a3.546,3.546,0,0,1-3.088,1.817Zm0-3.537H37.955v0l3.938-7.07H35.876l-7.492,3.744-7.492-3.744H14.955Zm9.561-7.281L33.689,60V45.178H30.152v5.305a1.768,1.768,0,1,1-3.537,0V45.178H23.079V60ZM16,59.325h3.537V45.178H16Zm12.379,0a1.768,1.768,0,1,1,1.768-1.768A1.768,1.768,0,0,1,28.384,59.325Zm8.842,0h3.537V45.178H37.226Z" transform="translate(241.634 815.899) rotate(167)" fill="#b5b5ff"/>
          <path id="icons8_roofing-8" data-name="icons8_roofing" d="M28.3,19.453v-6.5l-7.074,6.473L0,0H5.24L21.221,14.628,37.2,0h5.24L38.906,3.236V19.453Zm3.537-3.537h3.537V6.473l-3.537,3.24Z" transform="translate(343.311 877.219) rotate(-177)" fill="#b5b5ff"/>
          <path id="icons8_warehouse-6" data-name="icons8_warehouse" d="M27.971,75.417,14.155,69.276a3.546,3.546,0,0,1-2.1-3.229V43.419H20.6a1.769,1.769,0,0,1,.577,0H34.748a1.769,1.769,0,0,1,.577,0h8.563V66.046a3.546,3.546,0,0,1-2.1,3.229l0,0Zm0-3.868,12.379-5.5V46.956H36.813V62.872H19.129V46.956H15.592v19.09ZM22.666,59.335H33.276V46.956H29.739v1.768H26.2V46.956H22.666Z" transform="matrix(-0.839, -0.545, 0.545, -0.839, 142.844, 968.776)" fill="#b5b5ff"/>
          <path id="icons8_dog_house-13" data-name="icons8_dog_house" d="M24.7,72.25,5.251,54.649h5.3v-16h28.3v16h5.3ZM28.239,42.2H21.165v5.333a3.537,3.537,0,1,0,7.074,0Zm7.074,0H31.776v5.333a7.074,7.074,0,1,1-14.148,0V42.2H14.091V57.865l10.611,9.6,10.611-9.6Z" transform="matrix(-0.914, -0.407, 0.407, -0.914, 122.409, 765.02)" fill="#b5b5ff"/>
        </g>
      </g>
      <g id="House_Motif-5" data-name="House Motif" transform="translate(1325.992 -27.241) rotate(3)">
        <g id="Groupe_2-5" data-name="Groupe 2" transform="translate(49.271 375.435)">
          <path id="icons8_dog_house-14" data-name="icons8_dog_house" d="M20.306,35.076,0,16.7H5.537V0H35.075V16.7h5.537ZM24,3.712H16.613V9.279a3.692,3.692,0,1,0,7.384,0Zm7.384,0H27.69V9.279a7.385,7.385,0,1,1-14.769,0V3.712H9.229V20.06L20.306,30.082,31.382,20.06Z" transform="translate(730.686 64.859) rotate(-160)" fill="#b5b5ff"/>
          <path id="icons8_school_house-9" data-name="icons8_school_house" d="M19.405,35.076,7.258,28.941l1.565-3.3,1.666.842V18.635l-5.637-3.5a1.773,1.773,0,0,1-1.12-.7L0,12.123,1.836,8.977l1.53.95V0H17.611V5.5h3.561V0H35.416V10.138L36.96,9.2l1.808,3.161L28.294,18.732v7.558l1.638-.86L31.553,28.7Zm-.028-4.1,5.356-2.813V20.9l-5.352,3.254L14.05,20.846v7.44ZM19.4,19.882l5.331-3.243v-.126h.205l6.917-4.207V3.67H24.733v5.5H14.05V3.67H6.927v8.468l7.049,4.376h.073v.047Z" transform="matrix(-0.719, -0.695, 0.695, -0.719, 727.67, 200.321)" fill="#b5b5ff"/>
          <path id="icons8_home_page-15" data-name="icons8_home_page" d="M20.307,35.076,0,16.7H5.538V0H16.615V11.135H24V0H35.076V16.7h5.538l-7.384,6.68V31.55H29.538V26.725Zm0-4.995L31.384,20.059V3.712H27.692V14.847H12.923V3.712H9.231V20.059Z" transform="matrix(-0.999, 0.035, -0.035, -0.999, 533.546, 163.367)" fill="#b5b5ff"/>
          <path id="icons8_school_house-10" data-name="icons8_school_house" d="M19.405,35.076,7.258,28.941l1.565-3.3,1.666.842V18.635l-5.637-3.5a1.773,1.773,0,0,1-1.12-.7L0,12.123,1.836,8.977l1.53.95V0H17.611V5.5h3.561V0H35.416V10.138L36.96,9.2l1.808,3.161L28.294,18.732v7.558l1.638-.86L31.553,28.7Zm-.028-4.1,5.356-2.813V20.9l-5.352,3.254L14.05,20.846v7.44ZM19.4,19.882l5.331-3.243v-.125h.205l6.917-4.207V3.67H24.733v5.5H14.05V3.67H6.927v8.468l7.049,4.376h.073v.047Z" transform="translate(340.163 40.709) rotate(-171)" fill="#b5b5ff"/>
          <path id="icons8_hut_1-13" data-name="icons8_hut_1" d="M19.384,35.076a5.121,5.121,0,0,1-2.616-.818A22.11,22.11,0,0,1,14.1,32.515a60.34,60.34,0,0,1-6.046-5.271A56.683,56.683,0,0,1,2.65,21.184C1.188,19.239,0,17.743,0,15.59a1.944,1.944,0,0,1,1.938-1.949H5.815V1.949A1.944,1.944,0,0,1,7.754,0H31.015a1.944,1.944,0,0,1,1.938,1.948V13.641H36.83a1.944,1.944,0,0,1,1.938,1.948c0,2.154-1.188,3.65-2.65,5.6a56.725,56.725,0,0,1-5.41,6.059,60.36,60.36,0,0,1-6.042,5.271A22.051,22.051,0,0,1,22,34.254,5.123,5.123,0,0,1,19.384,35.076Zm0-3.928a4.722,4.722,0,0,0,.791-.331,18.887,18.887,0,0,0,2.185-1.435A57.164,57.164,0,0,0,28,24.461a53.564,53.564,0,0,0,5.028-5.625,5.8,5.8,0,0,0,.746-1.3H5a5.794,5.794,0,0,0,.746,1.3,53.576,53.576,0,0,0,5.028,5.625,57.138,57.138,0,0,0,5.637,4.921,18.867,18.867,0,0,0,2.185,1.435A4.734,4.734,0,0,0,19.384,31.149ZM9.692,13.641H29.076V3.9H23.261v3.9a3.877,3.877,0,1,1-7.754,0V3.9H9.692Z" transform="translate(547.672 61.339) rotate(174)" fill="#b5b5ff"/>
          <path id="icons8_residence-9" data-name="icons8_residence" d="M10.262,33.23A3.7,3.7,0,0,1,7.02,31.308L0,18.461H3.627V3.692A3.72,3.72,0,0,1,7.32,0H33.165a3.72,3.72,0,0,1,3.692,3.692V18.461h3.764L33.461,31.334h0a3.7,3.7,0,0,1-3.224,1.9Zm0-3.692H30.234v0l4.111-7.381H28.063l-7.821,3.909-7.821-3.909h-6.2Zm9.981-7.6,5.538-2.769V3.692H22.089V9.231a1.846,1.846,0,1,1-3.692,0V3.692H14.7V19.168ZM7.32,18.461h3.692V3.692H7.32Zm12.923,0a1.846,1.846,0,1,1,1.846-1.846A1.846,1.846,0,0,1,20.242,18.461Zm9.231,0h3.692V3.692H29.473Z" transform="translate(247.759 227.509) rotate(167)" fill="#b5b5ff"/>
          <path id="icons8_roofing-9" data-name="icons8_roofing" d="M29.538,20.307V13.518l-7.384,6.757L0,0H5.47L22.153,15.27,38.837,0h5.47L40.615,3.379V20.307Zm3.692-3.692h3.692V6.757L33.23,10.139Z" transform="translate(519.132 262.847) rotate(173)" fill="#b5b5ff"/>
          <path id="icons8_dog_house-15" data-name="icons8_dog_house" d="M20.306,35.076,0,16.7H5.537V0H35.075V16.7h5.537ZM24,3.712H16.613V9.279a3.692,3.692,0,1,0,7.384,0Zm7.384,0H27.69V9.279a7.385,7.385,0,1,1-14.769,0V3.712H9.229V20.06L20.306,30.082,31.382,20.06Z" transform="matrix(-0.914, -0.407, 0.407, -0.914, 164.106, 114.597)" fill="#b5b5ff"/>
          <path id="icons8_hut_1-14" data-name="icons8_hut_1" d="M19.384,35.076a5.121,5.121,0,0,1-2.616-.818A22.109,22.109,0,0,1,14.1,32.515a60.339,60.339,0,0,1-6.046-5.271A56.682,56.682,0,0,1,2.65,21.184C1.188,19.239,0,17.743,0,15.589a1.944,1.944,0,0,1,1.938-1.949H5.815V1.949A1.944,1.944,0,0,1,7.754,0H31.015a1.944,1.944,0,0,1,1.938,1.948V13.641H36.83a1.944,1.944,0,0,1,1.938,1.948c0,2.154-1.188,3.65-2.65,5.6a56.724,56.724,0,0,1-5.41,6.059,60.361,60.361,0,0,1-6.042,5.271A22.052,22.052,0,0,1,22,34.254,5.123,5.123,0,0,1,19.384,35.076Zm0-3.928a4.722,4.722,0,0,0,.791-.331,18.887,18.887,0,0,0,2.185-1.435A57.164,57.164,0,0,0,28,24.461a53.564,53.564,0,0,0,5.028-5.625,5.8,5.8,0,0,0,.746-1.3H5a5.794,5.794,0,0,0,.746,1.3,53.576,53.576,0,0,0,5.028,5.625,57.138,57.138,0,0,0,5.637,4.921,18.868,18.868,0,0,0,2.185,1.435A4.734,4.734,0,0,0,19.384,31.149ZM9.692,13.641H29.076V3.9H23.261v3.9a3.877,3.877,0,1,1-7.754,0V3.9H9.692Z" transform="translate(48.764 167.934) rotate(159)" fill="#b5b5ff"/>
        </g>
        <g id="Groupe_3-5" data-name="Groupe 3" transform="translate(777.149 293.94) rotate(172)">
          <g id="House_Icons-5" data-name="House Icons" transform="translate(547.785 126.583)">
            <path id="icons8_dog_house-16" data-name="icons8_dog_house" d="M20.306,0,0,18.373H5.537v16.7H35.074v-16.7h5.537ZM24,31.365H16.613V25.8A3.692,3.692,0,1,1,24,25.8Zm7.385,0H27.69V25.8a7.385,7.385,0,1,0-14.769,0v5.568H9.229V15.016L20.306,4.994,31.382,15.016Z" transform="matrix(-0.914, 0.407, -0.407, -0.914, 195.285, 153.728)" fill="#b5b5ff"/>
            <path id="icons8_home_page-16" data-name="icons8_home_page" d="M20.307,0,0,18.374H5.538v16.7H16.615V23.941H24V35.076H35.076v-16.7h5.538l-7.384-6.68V3.527H29.538V8.351Zm0,4.995L31.384,15.017V31.365H27.692V20.23H12.923V31.365H9.231V15.017Z" transform="translate(102.347 169.965) rotate(-172)" fill="#b5b5ff"/>
            <path id="icons8_school_house-11" data-name="icons8_school_house" d="M19.405,0,7.258,6.135l1.565,3.3,1.666-.842v7.852l-5.637,3.5a1.773,1.773,0,0,0-1.12.7L0,22.953,1.836,26.1l1.53-.95v9.927H17.611v-5.5h3.561v5.5H35.416V24.938l1.544.939,1.808-3.161L28.294,16.345V8.787l1.638.86,1.621-3.268Zm-.028,4.1,5.356,2.813v7.264l-5.352-3.254L14.05,14.231V6.791ZM19.4,15.195l5.331,3.243v.126h.205l6.917,4.207v8.636H24.733V25.9H14.05v5.5H6.927V22.939l7.049-4.376h.073v-.047Z" transform="matrix(-0.719, 0.695, -0.695, -0.719, 183.727, 25.232)" fill="#b5b5ff"/>
            <path id="icons8_hut_1-15" data-name="icons8_hut_1" d="M19.384,0a5.121,5.121,0,0,0-2.616.818A22.11,22.11,0,0,0,14.1,2.561,60.339,60.339,0,0,0,8.057,7.833,56.683,56.683,0,0,0,2.65,13.892C1.188,15.837,0,17.334,0,19.487a1.944,1.944,0,0,0,1.938,1.949H5.815V33.128a1.944,1.944,0,0,0,1.938,1.949H31.015a1.944,1.944,0,0,0,1.938-1.948V21.436H36.83a1.944,1.944,0,0,0,1.938-1.948c0-2.154-1.188-3.65-2.65-5.6a56.725,56.725,0,0,0-5.41-6.059,60.36,60.36,0,0,0-6.042-5.271A22.052,22.052,0,0,0,22,.822,5.123,5.123,0,0,0,19.384,0Zm0,3.928a4.722,4.722,0,0,1,.791.331A18.886,18.886,0,0,1,22.36,5.694,57.163,57.163,0,0,1,28,10.615a53.563,53.563,0,0,1,5.028,5.625,5.8,5.8,0,0,1,.746,1.3H5a5.8,5.8,0,0,1,.746-1.3,53.577,53.577,0,0,1,5.028-5.625,57.138,57.138,0,0,1,5.637-4.921,18.867,18.867,0,0,1,2.185-1.435A4.734,4.734,0,0,1,19.384,3.928ZM9.692,21.436H29.076v9.743H23.261v-3.9a3.877,3.877,0,1,0-7.754,0v3.9H9.692Z" transform="translate(45.665 79.424) rotate(167)" fill="#b5b5ff"/>
          </g>
          <path id="icons8_home_page-17" data-name="icons8_home_page" d="M20.307,0,0,18.374H5.538v16.7H16.615V23.941H24V35.076H35.076v-16.7h5.538l-7.384-6.68V3.527H29.538V8.351Zm0,4.995L31.384,15.017V31.365H27.692V20.23H12.923V31.365H9.231V15.017Z" transform="matrix(-0.999, -0.035, 0.035, -0.999, 549.044, 108.579)" fill="#b5b5ff"/>
          <path id="icons8_hut_1-16" data-name="icons8_hut_1" d="M19.384,0a5.121,5.121,0,0,0-2.616.818A22.11,22.11,0,0,0,14.1,2.561,60.34,60.34,0,0,0,8.057,7.833,56.682,56.682,0,0,0,2.65,13.892C1.188,15.837,0,17.334,0,19.487a1.944,1.944,0,0,0,1.938,1.949H5.815V33.128a1.944,1.944,0,0,0,1.938,1.949H31.015a1.944,1.944,0,0,0,1.938-1.948V21.436H36.83a1.944,1.944,0,0,0,1.938-1.948c0-2.154-1.188-3.65-2.65-5.6a56.725,56.725,0,0,0-5.41-6.059,60.36,60.36,0,0,0-6.042-5.271A22.052,22.052,0,0,0,22,.822,5.123,5.123,0,0,0,19.384,0Zm0,3.928a4.721,4.721,0,0,1,.791.331A18.887,18.887,0,0,1,22.36,5.694,57.164,57.164,0,0,1,28,10.615a53.564,53.564,0,0,1,5.028,5.625,5.8,5.8,0,0,1,.746,1.3H5a5.794,5.794,0,0,1,.746-1.3,53.576,53.576,0,0,1,5.028-5.625,57.139,57.139,0,0,1,5.637-4.921,18.868,18.868,0,0,1,2.185-1.435A4.734,4.734,0,0,1,19.384,3.928ZM9.692,21.436H29.076v9.743H23.261v-3.9a3.877,3.877,0,1,0-7.754,0v3.9H9.692Z" transform="matrix(-0.995, -0.105, 0.105, -0.995, 354.939, 274.23)" fill="#b5b5ff"/>
          <path id="icons8_residence-10" data-name="icons8_residence" d="M10.262,0A3.7,3.7,0,0,0,7.02,1.922L0,14.769H3.627V29.538A3.72,3.72,0,0,0,7.32,33.23H33.165a3.72,3.72,0,0,0,3.692-3.692V14.769h3.764L33.461,1.9h0A3.7,3.7,0,0,0,30.234,0Zm0,3.692H30.234v0l4.111,7.381H28.063L20.242,7.168l-7.821,3.909h-6.2Zm9.981,7.6,5.538,2.769V29.538H22.089V24A1.846,1.846,0,1,0,18.4,24v5.538H14.7V14.062ZM7.32,14.769h3.692V29.538H7.32Zm12.923,0a1.846,1.846,0,1,0,1.846,1.846A1.846,1.846,0,0,0,20.242,14.769Zm9.231,0h3.692V29.538H29.473Z" transform="translate(196.704 187.366) rotate(-167)" fill="#b5b5ff"/>
          <path id="icons8_roofing-10" data-name="icons8_roofing" d="M29.538,0V6.79L22.153.032,0,20.307H5.47L22.153,5.037l16.684,15.27h5.47l-3.692-3.379V0ZM33.23,3.692h3.692V13.55L33.23,10.168Z" transform="translate(330.31 71.011) rotate(177)" fill="#b5b5ff"/>
          <path id="icons8_warehouse-7" data-name="icons8_warehouse" d="M16.615,0,2.192,6.411A3.7,3.7,0,0,0,0,9.782V33.4H8.921a1.846,1.846,0,0,0,.6,0H23.689a1.846,1.846,0,0,0,.6,0H33.23V9.782a3.7,3.7,0,0,0-2.192-3.371l0,0Zm0,4.038L29.538,9.782V29.711H25.846V13.1H7.384V29.711H3.692V9.782Zm-5.538,12.75H22.153V29.711H18.461V27.865H14.769v1.846H11.077Z" transform="matrix(-0.839, 0.545, -0.545, -0.839, 152.301, 28.035)" fill="#b5b5ff"/>
          <path id="icons8_dog_house-17" data-name="icons8_dog_house" d="M20.306,0,0,18.373H5.537v16.7H35.074v-16.7h5.537ZM24,31.365H16.613V25.8A3.692,3.692,0,1,1,24,25.8Zm7.385,0H27.69V25.8a7.385,7.385,0,1,0-14.769,0v5.568H9.229V15.016L20.306,4.994,31.382,15.016Z" transform="matrix(-0.914, 0.407, -0.407, -0.914, 124.313, 238.991)" fill="#b5b5ff"/>
          <path id="icons8_home_page-18" data-name="icons8_home_page" d="M20.307,0,0,18.374H5.538v16.7H16.615V23.941H24V35.076H35.076v-16.7h5.538l-7.384-6.68V3.527H29.538V8.351Zm0,4.995L31.384,15.017V31.365H27.692V20.23H12.923V31.365H9.231V15.017Z" transform="translate(40.219 137.153) rotate(-172)" fill="#b5b5ff"/>
        </g>
      </g>
    </g>
  </g>
</svg>
