<svg xmlns="http://www.w3.org/2000/svg" xmlns:xlink="http://www.w3.org/1999/xlink" width="804" height="1148" viewBox="0 0 804 1148">
  <defs>
    <linearGradient id="linear-gradient" x1="0.64" y1="0.357" x2="0.584" y2="1.198" gradientUnits="objectBoundingBox">
      <stop offset="0" stop-color="#546bff"/>
      <stop offset="1" stop-color="#7db1ff"/>
    </linearGradient>
    <clipPath id="clip-path">
      <rect id="BG" width="804" height="1148" transform="translate(1116 2182)" fill="#f7faff"/>
    </clipPath>
    <clipPath id="clip-path-2">
      <path id="Polygone_54" data-name="Polygone 54" d="M845.465,0a50,50,0,0,1,43.263,24.934l262.458,453a50,50,0,0,1,0,50.132l-262.458,453a50,50,0,0,1-43.263,24.934H320.244a50,50,0,0,1-43.263-24.934l-262.458-453a50,50,0,0,1,0-50.132l262.458-453A50,50,0,0,1,320.244,0Z" transform="matrix(-0.407, -0.914, 0.914, -0.407, 474.136, 1474.101)" fill="url(#linear-gradient)"/>
    </clipPath>
    <clipPath id="clip-path-3">
      <rect id="BG-2" data-name="BG" width="804" height="1148" transform="translate(1116 2342)" fill="#f7faff"/>
    </clipPath>
    <clipPath id="clip-path-4">
      <path id="Polygone_60" data-name="Polygone 60" d="M845.465,0a50,50,0,0,1,43.263,24.934l262.458,453a50,50,0,0,1,0,50.132l-262.458,453a50,50,0,0,1-43.263,24.934H320.244a50,50,0,0,1-43.263-24.934l-262.458-453a50,50,0,0,1,0-50.132l262.458-453A50,50,0,0,1,320.244,0Z" transform="translate(2377.228 2930.032) rotate(150)" fill="url(#linear-gradient)"/>
    </clipPath>
    <linearGradient id="linear-gradient-4" x1="0.521" y1="0.204" x2="0.12" y2="1.663" gradientUnits="objectBoundingBox">
      <stop offset="0" stop-color="#fff" stop-opacity="0"/>
      <stop offset="1" stop-color="#fff"/>
    </linearGradient>
  </defs>
  <g id="Bottom_BG_home_de_ménage" data-name="Bottom BG+home de ménage" transform="translate(-1116 -2342)">
    <g id="Bottom_BG" data-name="Bottom BG" transform="translate(0 160)" clip-path="url(#clip-path)">
      <g id="Bottom_BG-2" data-name="Bottom BG" transform="matrix(-0.105, -0.995, 0.995, -0.105, 234.486, 2829.803)">
        <path id="Polygone_53" data-name="Polygone 53" d="M845.465,0a50,50,0,0,1,43.263,24.934l262.458,453a50,50,0,0,1,0,50.132l-262.458,453a50,50,0,0,1-43.263,24.934H320.244a50,50,0,0,1-43.263-24.934l-262.458-453a50,50,0,0,1,0-50.132l262.458-453A50,50,0,0,1,320.244,0Z" transform="matrix(-0.407, -0.914, 0.914, -0.407, -293.822, 2123.663)" fill="url(#linear-gradient)"/>
        <g id="Houses" transform="translate(-767.959 649.562)" opacity="0.4" clip-path="url(#clip-path-2)">
          <g id="Houses_Motif" data-name="Houses Motif" transform="translate(-15.428 1227.752) rotate(-74)">
            <g id="House_Motif" data-name="House Motif" transform="translate(0 537.039)">
              <g id="Groupe_2" data-name="Groupe 2" transform="translate(0 0)">
                <path id="icons8_dog_house" d="M18.3,0,0,16.558H4.99V31.611h26.62V16.558H36.6Zm3.327,28.266H14.972V23.248a3.328,3.328,0,1,1,6.655,0Zm6.655,0H24.954V23.248a6.655,6.655,0,1,0-13.31,0v5.018H8.317V13.533L18.3,4.5l9.982,9.032Z" transform="translate(8.429 12.518) rotate(-20)" fill="#5d7aff"/>
                <path id="icons8_school_house" d="M17.488,0,6.541,5.529,7.951,8.5l1.5-.759v7.076l-5.08,3.155a1.6,1.6,0,0,0-1.009.627L0,20.685l1.655,2.835,1.379-.856v8.946H15.871V26.65H19.08v4.961H31.917V22.475l1.392.846,1.63-2.848L25.5,14.73V7.919l1.476.775,1.461-2.945Zm-.025,3.695L22.289,6.23v6.546L17.466,9.844l-4.8,2.981V6.12Zm.022,10,4.8,2.923v.113h.185l6.234,3.792V28.3H22.289V23.343H12.662V28.3H6.243V20.673L12.6,16.729h.066v-.042Z" transform="matrix(0.719, -0.695, 0.695, 0.719, 0, 141.563)" fill="#5d7aff"/>
                <path id="icons8_home_page" d="M18.3,0,0,16.558H4.991V31.611h9.982V21.576h6.655V31.611h9.982V16.558H36.6l-6.655-6.02V3.178H26.62V7.526Zm0,4.5,9.982,9.032V28.266H24.956V18.231H11.646V28.266H8.319V13.534Z" transform="matrix(0.999, 0.035, -0.035, 0.999, 198.007, 99.406)" fill="#5d7aff"/>
                <path id="icons8_school_house-2" data-name="icons8_school_house" d="M17.488,0,6.541,5.529,7.951,8.5l1.5-.759v7.076l-5.08,3.155a1.6,1.6,0,0,0-1.009.627L0,20.685l1.655,2.835,1.379-.856v8.946H15.871V26.65H19.08v4.961H31.917V22.475l1.392.846,1.63-2.848L25.5,14.73V7.919l1.476.775,1.461-2.945Zm-.025,3.695L22.289,6.23v6.546L17.466,9.844l-4.8,2.981V6.12Zm.022,10,4.8,2.923v.113h.185l6.234,3.792V28.3H22.289V23.343H12.662V28.3H6.243V20.673L12.6,16.729h.066v-.042Z" transform="translate(367.241 27.017) rotate(-9)" fill="#5d7aff"/>
                <path id="icons8_hut_1" d="M17.469,0a4.615,4.615,0,0,0-2.358.737,19.925,19.925,0,0,0-2.4,1.571A54.379,54.379,0,0,0,7.261,7.059,51.082,51.082,0,0,0,2.388,12.52C1.071,14.273,0,15.621,0,17.562a1.752,1.752,0,0,0,1.747,1.756H5.241V29.855a1.752,1.752,0,0,0,1.747,1.756H27.951A1.752,1.752,0,0,0,29.7,29.855V19.318h3.494a1.752,1.752,0,0,0,1.747-1.756c0-1.941-1.071-3.289-2.388-5.042a51.121,51.121,0,0,0-4.876-5.461,54.4,54.4,0,0,0-5.446-4.751,19.873,19.873,0,0,0-2.4-1.567A4.617,4.617,0,0,0,17.469,0Zm0,3.54a4.255,4.255,0,0,1,.713.3,17.021,17.021,0,0,1,1.969,1.293,51.517,51.517,0,0,1,5.08,4.435,48.272,48.272,0,0,1,4.531,5.07,5.228,5.228,0,0,1,.672,1.17H4.5a5.222,5.222,0,0,1,.672-1.17,48.283,48.283,0,0,1,4.531-5.07,51.493,51.493,0,0,1,5.08-4.435,17,17,0,0,1,1.969-1.293A4.266,4.266,0,0,1,17.469,3.54ZM8.735,19.318H26.2V28.1H20.963V24.586a3.494,3.494,0,1,0-6.988,0V28.1H8.735Z" transform="translate(123.887 47.152) rotate(-41)" fill="#5d7aff"/>
                <path id="icons8_residence" d="M9.248,0A3.339,3.339,0,0,0,6.327,1.732L0,13.31H3.269V26.62A3.352,3.352,0,0,0,6.6,29.947H29.889a3.352,3.352,0,0,0,3.327-3.327V13.31h3.393l-6.453-11.6h0A3.336,3.336,0,0,0,27.247,0Zm0,3.327h18v0l3.7,6.652H25.291L18.243,6.46,11.194,9.982H5.609Zm8.995,6.85,4.991,2.5V26.62H19.906V21.629a1.664,1.664,0,1,0-3.327,0V26.62H13.251V12.673ZM6.6,13.31H9.924V26.62H6.6Zm11.646,0a1.664,1.664,0,1,0,1.664,1.664A1.664,1.664,0,0,0,18.243,13.31Zm8.319,0h3.327V26.62H26.561Z" transform="translate(302.876 157.855) rotate(13)" fill="#5d7aff"/>
                <path id="icons8_roofing" d="M26.62,0V6.119L19.965.029,0,18.3H4.929L19.965,4.54,35,18.3H39.93L36.6,15.256V0Zm3.327,3.327h3.327v8.884L29.947,9.164Z" transform="translate(212.125 202.486) rotate(7)" fill="#5d7aff"/>
                <path id="icons8_warehouse" d="M14.974,0l-13,5.778A3.336,3.336,0,0,0,0,8.816V30.1H8.039a1.664,1.664,0,0,0,.543,0H21.349a1.664,1.664,0,0,0,.543,0h8.055V8.816a3.336,3.336,0,0,0-1.976-3.038l0,0Zm0,3.639L26.62,8.816v17.96H23.292V11.8H6.655V26.776H3.327V8.816ZM9.982,15.13h9.982V26.776H16.637V25.112H13.31v1.664H9.982Z" transform="matrix(0.839, -0.545, 0.545, 0.839, 47.018, 205.454)" fill="#5d7aff"/>
                <path id="icons8_dog_house-2" data-name="icons8_dog_house" d="M18.3,0,0,16.558H4.99V31.611h26.62V16.558H36.6Zm3.327,28.266H14.972V23.248a3.328,3.328,0,1,1,6.655,0Zm6.655,0H24.954V23.248a6.655,6.655,0,1,0-13.31,0v5.018H8.317V13.533L18.3,4.5l9.982,9.032Z" transform="matrix(0.914, -0.407, 0.407, 0.914, 516.988, 58.168)" fill="#5d7aff"/>
                <path id="icons8_dog_house-3" data-name="icons8_dog_house" d="M22.888,0,45.776,20.979H39.535V40.05H6.241V20.979H0ZM18.726,35.812H27.05V29.455a4.162,4.162,0,1,0-8.324,0Zm-8.324,0h4.162V29.455a8.325,8.325,0,1,1,16.647,0v6.357h4.162V17.145L22.888,5.7,10.4,17.145Z" transform="translate(411.054 197.186) rotate(-20)" fill="#5d7aff"/>
                <path id="icons8_hut_1-2" data-name="icons8_hut_1" d="M17.469,0a4.615,4.615,0,0,0-2.358.737,19.925,19.925,0,0,0-2.4,1.571A54.379,54.379,0,0,0,7.261,7.059,51.082,51.082,0,0,0,2.388,12.52C1.071,14.273,0,15.621,0,17.562a1.752,1.752,0,0,0,1.747,1.756H5.241V29.855a1.752,1.752,0,0,0,1.747,1.756H27.951A1.752,1.752,0,0,0,29.7,29.855V19.318h3.494a1.752,1.752,0,0,0,1.747-1.756c0-1.941-1.071-3.289-2.388-5.042a51.121,51.121,0,0,0-4.876-5.461,54.4,54.4,0,0,0-5.446-4.751,19.873,19.873,0,0,0-2.4-1.567A4.617,4.617,0,0,0,17.469,0Zm0,3.54a4.255,4.255,0,0,1,.713.3,17.021,17.021,0,0,1,1.969,1.293,51.517,51.517,0,0,1,5.08,4.435,48.272,48.272,0,0,1,4.531,5.07,5.228,5.228,0,0,1,.672,1.17H4.5a5.222,5.222,0,0,1,.672-1.17,48.283,48.283,0,0,1,4.531-5.07,51.493,51.493,0,0,1,5.08-4.435,17,17,0,0,1,1.969-1.293A4.266,4.266,0,0,1,17.469,3.54ZM8.735,19.318H26.2V28.1H20.963V24.586a3.494,3.494,0,1,0-6.988,0V28.1H8.735Z" transform="translate(645.121 105.603) rotate(21)" fill="#5d7aff"/>
              </g>
              <g id="Groupe_3" data-name="Groupe 3" transform="translate(58.292 210.796) rotate(8)">
                <g id="House_Icons" data-name="House Icons" transform="translate(463.445 0)">
                  <path id="icons8_home_page-2" data-name="icons8_home_page" d="M18.3,31.611,0,15.053H4.991V0h9.982V10.035h6.655V0h9.982V15.053H36.6l-6.655,6.02v7.36H26.62V24.085Zm0-4.5,9.982-9.032V3.345H24.956V13.38H11.646V3.345H8.319V18.077Z" transform="translate(96.635 31.303) rotate(172)" fill="#5d7aff"/>
                  <path id="icons8_hut_1-3" data-name="icons8_hut_1" d="M17.469,31.611a4.615,4.615,0,0,1-2.358-.737,19.925,19.925,0,0,1-2.4-1.571,54.378,54.378,0,0,1-5.449-4.751,51.083,51.083,0,0,1-4.872-5.461C1.071,17.338,0,15.99,0,14.049a1.752,1.752,0,0,1,1.747-1.756H5.241V1.756A1.752,1.752,0,0,1,6.988,0H27.951A1.752,1.752,0,0,1,29.7,1.756V12.293h3.494a1.752,1.752,0,0,1,1.747,1.756c0,1.941-1.071,3.289-2.388,5.042a51.12,51.12,0,0,1-4.876,5.461A54.4,54.4,0,0,1,22.229,29.3a19.873,19.873,0,0,1-2.4,1.567A4.616,4.616,0,0,1,17.469,31.611Zm0-3.54a4.256,4.256,0,0,0,.713-.3,17.021,17.021,0,0,0,1.969-1.293,51.517,51.517,0,0,0,5.08-4.435,48.272,48.272,0,0,0,4.531-5.07,5.228,5.228,0,0,0,.672-1.17H4.5a5.222,5.222,0,0,0,.672,1.17,48.283,48.283,0,0,0,4.531,5.07,51.493,51.493,0,0,0,5.08,4.435,17,17,0,0,0,1.969,1.293A4.266,4.266,0,0,0,17.469,28.071ZM8.735,12.293H26.2V3.512H20.963V7.025a3.494,3.494,0,1,1-6.988,0V3.512H8.735Z" transform="translate(34.043 112.397) rotate(-167)" fill="#5d7aff"/>
                </g>
                <path id="icons8_home_page-3" data-name="icons8_home_page" d="M18.3,31.611,0,15.053H4.991V0h9.982V10.035h6.655V0h9.982V15.053H36.6l-6.655,6.02v7.36H26.62V24.085Zm0-4.5,9.982-9.032V3.345H24.956V13.38H11.646V3.345H8.319V18.077Z" transform="translate(398.841 119.87) rotate(178)" fill="#5d7aff"/>
                <path id="icons8_hut_1-4" data-name="icons8_hut_1" d="M17.469,31.611a4.615,4.615,0,0,1-2.358-.737,19.925,19.925,0,0,1-2.4-1.571,54.379,54.379,0,0,1-5.449-4.751,51.082,51.082,0,0,1-4.872-5.461C1.071,17.338,0,15.99,0,14.049a1.752,1.752,0,0,1,1.747-1.756H5.241V1.756A1.752,1.752,0,0,1,6.988,0H27.951A1.752,1.752,0,0,1,29.7,1.756V12.293h3.494a1.752,1.752,0,0,1,1.747,1.756c0,1.941-1.071,3.289-2.388,5.042a51.121,51.121,0,0,1-4.876,5.461A54.4,54.4,0,0,1,22.229,29.3a19.873,19.873,0,0,1-2.4,1.567A4.616,4.616,0,0,1,17.469,31.611Zm0-3.54a4.256,4.256,0,0,0,.713-.3,17.021,17.021,0,0,0,1.969-1.293,51.517,51.517,0,0,0,5.08-4.435,48.272,48.272,0,0,0,4.531-5.07,5.228,5.228,0,0,0,.672-1.17H4.5a5.222,5.222,0,0,0,.672,1.17,48.283,48.283,0,0,0,4.531,5.07,51.493,51.493,0,0,0,5.08,4.435,17,17,0,0,0,1.969,1.293A4.267,4.267,0,0,0,17.469,28.071ZM8.735,12.293H26.2V3.512H20.963V7.025a3.494,3.494,0,1,1-6.988,0V3.512H8.735Z" transform="matrix(-0.995, 0.105, -0.105, -0.995, 314.681, 67.03)" fill="#5d7aff"/>
                <path id="icons8_residence-2" data-name="icons8_residence" d="M9.248,29.947a3.339,3.339,0,0,1-2.921-1.732L0,16.637H3.269V3.327A3.352,3.352,0,0,1,6.6,0H29.889a3.352,3.352,0,0,1,3.327,3.327v13.31h3.393l-6.453,11.6h0a3.336,3.336,0,0,1-2.905,1.709Zm0-3.327h18v0l3.7-6.652H25.291l-7.048,3.522-7.048-3.522H5.609Zm8.995-6.85,4.991-2.5V3.327H19.906V8.319a1.664,1.664,0,1,1-3.327,0V3.327H13.251V17.274ZM6.6,16.637H9.924V3.327H6.6Zm11.646,0a1.664,1.664,0,1,1,1.664-1.664A1.664,1.664,0,0,1,18.243,16.637Zm8.319,0h3.327V3.327H26.561Z" transform="translate(213.091 109.357) rotate(167)" fill="#5d7aff"/>
                <path id="icons8_roofing-2" data-name="icons8_roofing" d="M26.62,18.3V12.182l-6.655,6.089L0,0H4.929L19.965,13.762,35,0H39.93L36.6,3.045V18.3Zm3.327-3.327h3.327V6.09L29.947,9.138Z" transform="translate(251.279 163.144) rotate(-177)" fill="#5d7aff"/>
                <path id="icons8_warehouse-2" data-name="icons8_warehouse" d="M14.974,30.126l-13-5.778A3.336,3.336,0,0,1,0,21.31V.022H8.039a1.664,1.664,0,0,1,.543,0H21.349a1.664,1.664,0,0,1,.543,0h8.055V21.31a3.336,3.336,0,0,1-1.976,3.038l0,0Zm0-3.639L26.62,21.31V3.35H23.292V18.323H6.655V3.35H3.327V21.31ZM9.982,15h9.982V3.35H16.637V5.013H13.31V3.35H9.982Z" transform="matrix(-0.839, -0.545, 0.545, -0.839, 120.847, 262.42)" fill="#5d7aff"/>
                <path id="icons8_dog_house-4" data-name="icons8_dog_house" d="M18.3,31.611,0,15.053H4.99V0h26.62V15.053H36.6ZM21.627,3.345H14.972V8.363a3.328,3.328,0,1,0,6.655,0Zm6.655,0H24.954V8.363a6.655,6.655,0,1,1-13.31,0V3.345H8.317V18.078L18.3,27.11l9.982-9.032Z" transform="matrix(-0.914, -0.407, 0.407, -0.914, 99.174, 75.918)" fill="#5d7aff"/>
                <path id="icons8_home_page-4" data-name="icons8_home_page" d="M18.3,31.611,0,15.053H4.991V0h9.982V10.035h6.655V0h9.982V15.053H36.6l-6.655,6.02v7.36H26.62V24.085Zm0-4.5,9.982-9.032V3.345H24.956V13.38H11.646V3.345H8.319V18.077Z" transform="translate(40.645 170.121) rotate(172)" fill="#5d7aff"/>
              </g>
            </g>
            <g id="House_Motif-2" data-name="House Motif" transform="translate(189.433 0)">
              <g id="Groupe_2-2" data-name="Groupe 2" transform="translate(0 317.891)">
                <path id="icons8_dog_house-5" data-name="icons8_dog_house" d="M18.3,31.611,0,15.053H4.99V0h26.62V15.053H36.6ZM21.627,3.345H14.972V8.363a3.328,3.328,0,1,0,6.655,0Zm6.655,0H24.954V8.363a6.655,6.655,0,1,1-13.31,0V3.345H8.317V18.078L18.3,27.11l9.982-9.032Z" transform="translate(19.241 188.498) rotate(20)" fill="#5d7aff"/>
                <path id="icons8_school_house-3" data-name="icons8_school_house" d="M17.488,31.611,6.541,26.082l1.41-2.971,1.5.759V16.794l-5.08-3.155a1.6,1.6,0,0,1-1.009-.627L0,10.926,1.655,8.09l1.379.856V0H15.871V4.961H19.08V0H31.917V9.136l1.392-.846,1.63,2.848L25.5,16.881v6.811l1.476-.775,1.461,2.945Zm-.025-3.695,4.826-2.535V18.835l-4.823,2.932-4.8-2.981v6.7Zm.022-10,4.8-2.923v-.113h.185l6.234-3.792V3.307H22.289V8.268H12.662V3.307H6.243v7.631L12.6,14.882h.066v.042Z" transform="matrix(0.719, 0.695, -0.695, 0.719, 21.959, 66.418)" fill="#5d7aff"/>
                <path id="icons8_home_page-5" data-name="icons8_home_page" d="M18.3,31.611,0,15.053H4.991V0h9.982V10.035h6.655V0h9.982V15.053H36.6l-6.655,6.02v7.36H26.62V24.085Zm0-4.5,9.982-9.032V3.345H24.956V13.38H11.646V3.345H8.319V18.077Z" transform="matrix(0.999, -0.035, 0.035, 0.999, 196.904, 99.722)" fill="#5d7aff"/>
                <path id="icons8_school_house-4" data-name="icons8_school_house" d="M17.488,31.611,6.541,26.082l1.41-2.971,1.5.759V16.794l-5.08-3.155a1.6,1.6,0,0,1-1.009-.627L0,10.926,1.655,8.09l1.379.856V0H15.871V4.961H19.08V0H31.917V9.136l1.392-.846,1.63,2.848L25.5,16.881v6.811l1.476-.775,1.461,2.945Zm-.025-3.695,4.826-2.535V18.835l-4.823,2.932-4.8-2.981v6.7Zm.022-10,4.8-2.923v-.113h.185l6.234-3.792V3.307H22.289V8.268H12.662V3.307H6.243v7.631L12.6,14.882h.066v.042Z" transform="translate(372.186 172.481) rotate(9)" fill="#5d7aff"/>
                <path id="icons8_hut_1-5" data-name="icons8_hut_1" d="M17.469,31.611a4.615,4.615,0,0,1-2.358-.737,19.925,19.925,0,0,1-2.4-1.571,54.378,54.378,0,0,1-5.449-4.751,51.083,51.083,0,0,1-4.872-5.461C1.071,17.338,0,15.99,0,14.049a1.752,1.752,0,0,1,1.747-1.756H5.241V1.756A1.752,1.752,0,0,1,6.988,0H27.951A1.752,1.752,0,0,1,29.7,1.756V12.293h3.494a1.752,1.752,0,0,1,1.747,1.756c0,1.941-1.071,3.289-2.388,5.042a51.121,51.121,0,0,1-4.876,5.461A54.4,54.4,0,0,1,22.229,29.3a19.872,19.872,0,0,1-2.4,1.567A4.616,4.616,0,0,1,17.469,31.611Zm0-3.54a4.255,4.255,0,0,0,.713-.3,17.021,17.021,0,0,0,1.969-1.293,51.518,51.518,0,0,0,5.08-4.435,48.273,48.273,0,0,0,4.531-5.07,5.228,5.228,0,0,0,.672-1.17H4.5a5.222,5.222,0,0,0,.672,1.17,48.283,48.283,0,0,0,4.531,5.07,51.493,51.493,0,0,0,5.08,4.435,17,17,0,0,0,1.969,1.293A4.266,4.266,0,0,0,17.469,28.071ZM8.735,12.293H26.2V3.512H20.963V7.025a3.494,3.494,0,1,1-6.988,0V3.512H8.735Z" transform="translate(144.626 159.711) rotate(41)" fill="#5d7aff"/>
                <path id="icons8_residence-3" data-name="icons8_residence" d="M9.248,29.947a3.339,3.339,0,0,1-2.921-1.732L0,16.637H3.269V3.327A3.352,3.352,0,0,1,6.6,0H29.889a3.352,3.352,0,0,1,3.327,3.327v13.31h3.393l-6.453,11.6h0a3.336,3.336,0,0,1-2.905,1.709Zm0-3.327h18v0l3.7-6.652H25.291l-7.048,3.522-7.048-3.522H5.609Zm8.995-6.85,4.991-2.5V3.327H19.906V8.319a1.664,1.664,0,1,1-3.327,0V3.327H13.251V17.274ZM6.6,16.637H9.924V3.327H6.6Zm11.646,0a1.664,1.664,0,1,1,1.664-1.664A1.664,1.664,0,0,1,18.243,16.637Zm8.319,0h3.327V3.327H26.561Z" transform="translate(296.14 43.685) rotate(-13)" fill="#5d7aff"/>
                <path id="icons8_roofing-3" data-name="icons8_roofing" d="M26.62,18.3V12.182l-6.655,6.089L0,0H4.929L19.965,13.762,35,0H39.93L36.6,3.045V18.3Zm3.327-3.327h3.327V6.09L29.947,9.138Z" transform="translate(209.894 10.069) rotate(-7)" fill="#5d7aff"/>
                <path id="icons8_warehouse-3" data-name="icons8_warehouse" d="M14.974,30.125l-13-5.778A3.336,3.336,0,0,1,0,21.31V.022H8.039a1.664,1.664,0,0,1,.543,0H21.349a1.664,1.664,0,0,1,.543,0h8.055V21.31a3.336,3.336,0,0,1-1.976,3.038l0,0Zm0-3.639L26.62,21.31V3.35H23.292V18.323H6.655V3.35H3.327V21.31ZM9.982,15h9.982V3.35H16.637V5.013H13.31V3.35H9.982Z" transform="matrix(0.839, 0.545, -0.545, 0.839, 63.425, 0)" fill="#5d7aff"/>
                <path id="icons8_dog_house-6" data-name="icons8_dog_house" d="M18.3,31.611,0,15.053H4.99V0h26.62V15.053H36.6ZM21.627,3.345H14.972V8.363a3.328,3.328,0,1,0,6.655,0Zm6.655,0H24.954V8.363a6.655,6.655,0,1,1-13.31,0V3.345H8.317V18.078L18.3,27.11l9.982-9.032Z" transform="matrix(0.914, 0.407, -0.407, 0.914, 529.846, 143.674)" fill="#5d7aff"/>
                <path id="icons8_hut_1-6" data-name="icons8_hut_1" d="M17.469,31.611a4.615,4.615,0,0,1-2.358-.737,19.926,19.926,0,0,1-2.4-1.571,54.379,54.379,0,0,1-5.449-4.751,51.082,51.082,0,0,1-4.872-5.461C1.071,17.338,0,15.99,0,14.049a1.752,1.752,0,0,1,1.747-1.756H5.241V1.756A1.752,1.752,0,0,1,6.988,0H27.951A1.752,1.752,0,0,1,29.7,1.756V12.293h3.494a1.752,1.752,0,0,1,1.747,1.756c0,1.941-1.071,3.289-2.388,5.042a51.121,51.121,0,0,1-4.876,5.461A54.4,54.4,0,0,1,22.229,29.3a19.873,19.873,0,0,1-2.4,1.567A4.616,4.616,0,0,1,17.469,31.611Zm0-3.54a4.255,4.255,0,0,0,.713-.3,17.021,17.021,0,0,0,1.969-1.293,51.517,51.517,0,0,0,5.08-4.435,48.273,48.273,0,0,0,4.531-5.07,5.228,5.228,0,0,0,.672-1.17H4.5a5.222,5.222,0,0,0,.672,1.17,48.283,48.283,0,0,0,4.531,5.07,51.493,51.493,0,0,0,5.08,4.435,17,17,0,0,0,1.969,1.293A4.266,4.266,0,0,0,17.469,28.071ZM8.735,12.293H26.2V3.512H20.963V7.025a3.494,3.494,0,1,1-6.988,0V3.512H8.735Z" transform="translate(633.792 95.605) rotate(-21)" fill="#5d7aff"/>
              </g>
              <g id="Groupe_3-2" data-name="Groupe 3" transform="translate(21.77 77.948) rotate(-8)">
                <g id="House_Icons-2" data-name="House Icons" transform="translate(463.445 150.023)">
                  <path id="icons8_home_page-6" data-name="icons8_home_page" d="M18.3,0,0,16.558H4.991V31.611h9.982V21.576h6.655V31.611h9.982V16.558H36.6l-6.655-6.02V3.178H26.62V7.526Zm0,4.5,9.982,9.032V28.266H24.956V18.231H11.646V28.266H8.319V13.534Z" transform="translate(92.235 112.397) rotate(-172)" fill="#5d7aff"/>
                  <path id="icons8_hut_1-7" data-name="icons8_hut_1" d="M17.469,0a4.615,4.615,0,0,0-2.358.737,19.925,19.925,0,0,0-2.4,1.571A54.378,54.378,0,0,0,7.261,7.059,51.083,51.083,0,0,0,2.388,12.52C1.071,14.273,0,15.621,0,17.562a1.752,1.752,0,0,0,1.747,1.756H5.241V29.855a1.752,1.752,0,0,0,1.747,1.756H27.951A1.752,1.752,0,0,0,29.7,29.855V19.318h3.494a1.752,1.752,0,0,0,1.747-1.756c0-1.941-1.071-3.289-2.388-5.042a51.12,51.12,0,0,0-4.876-5.461,54.4,54.4,0,0,0-5.446-4.751,19.873,19.873,0,0,0-2.4-1.567A4.617,4.617,0,0,0,17.469,0Zm0,3.54a4.256,4.256,0,0,1,.713.3,17.021,17.021,0,0,1,1.969,1.293,51.518,51.518,0,0,1,5.08,4.435,48.273,48.273,0,0,1,4.531,5.07,5.228,5.228,0,0,1,.672,1.17H4.5a5.222,5.222,0,0,1,.672-1.17,48.283,48.283,0,0,1,4.531-5.07,51.493,51.493,0,0,1,5.08-4.435,17,17,0,0,1,1.969-1.293A4.266,4.266,0,0,1,17.469,3.54ZM8.735,19.318H26.2V28.1H20.963V24.586a3.494,3.494,0,1,0-6.988,0V28.1H8.735Z" transform="translate(41.154 30.801) rotate(167)" fill="#5d7aff"/>
                </g>
                <path id="icons8_home_page-7" data-name="icons8_home_page" d="M18.3,0,0,16.558H4.991V31.611h9.982V21.576h6.655V31.611h9.982V16.558H36.6l-6.655-6.02V3.178H26.62V7.526Zm0,4.5,9.982,9.032V28.266H24.956V18.231H11.646V28.266H8.319V13.534Z" transform="matrix(-0.999, -0.035, 0.035, -0.999, 397.738, 174.141)" fill="#5d7aff"/>
                <path id="icons8_hut_1-8" data-name="icons8_hut_1" d="M17.469,0a4.615,4.615,0,0,0-2.358.737,19.925,19.925,0,0,0-2.4,1.571A54.379,54.379,0,0,0,7.261,7.059,51.082,51.082,0,0,0,2.388,12.52C1.071,14.273,0,15.621,0,17.562a1.752,1.752,0,0,0,1.747,1.756H5.241V29.855a1.752,1.752,0,0,0,1.747,1.756H27.951A1.752,1.752,0,0,0,29.7,29.855V19.318h3.494a1.752,1.752,0,0,0,1.747-1.756c0-1.941-1.071-3.289-2.388-5.042a51.121,51.121,0,0,0-4.876-5.461,54.4,54.4,0,0,0-5.446-4.751,19.873,19.873,0,0,0-2.4-1.567A4.616,4.616,0,0,0,17.469,0Zm0,3.54a4.256,4.256,0,0,1,.713.3,17.021,17.021,0,0,1,1.969,1.293,51.517,51.517,0,0,1,5.08,4.435,48.272,48.272,0,0,1,4.531,5.07,5.228,5.228,0,0,1,.672,1.17H4.5a5.222,5.222,0,0,1,.672-1.17,48.283,48.283,0,0,1,4.531-5.07,51.493,51.493,0,0,1,5.08-4.435,17,17,0,0,1,1.969-1.293A4.267,4.267,0,0,1,17.469,3.54ZM8.735,19.318H26.2V28.1H20.963V24.586a3.494,3.494,0,1,0-6.988,0V28.1H8.735Z" transform="matrix(-0.995, -0.105, 0.105, -0.995, 311.376, 226.828)" fill="#5d7aff"/>
                <path id="icons8_residence-4" data-name="icons8_residence" d="M9.248,0A3.339,3.339,0,0,0,6.327,1.732L0,13.31H3.269V26.62A3.352,3.352,0,0,0,6.6,29.947H29.889a3.352,3.352,0,0,0,3.327-3.327V13.31h3.393l-6.453-11.6h0A3.336,3.336,0,0,0,27.247,0Zm0,3.327h18v0l3.7,6.652H25.291L18.243,6.46,11.194,9.982H5.609Zm8.995,6.85,4.991,2.5V26.62H19.906V21.629a1.664,1.664,0,1,0-3.327,0V26.62H13.251V12.673ZM6.6,13.31H9.924V26.62H6.6Zm11.646,0a1.664,1.664,0,1,0,1.664,1.664A1.664,1.664,0,0,0,18.243,13.31Zm8.319,0h3.327V26.62H26.561Z" transform="translate(206.355 182.242) rotate(-167)" fill="#5d7aff"/>
                <path id="icons8_roofing-4" data-name="icons8_roofing" d="M26.62,0V6.119L19.965.029,0,18.3H4.929L19.965,4.54,35,18.3H39.93L36.6,15.256V0Zm3.327,3.327h3.327v8.884L29.947,9.164Z" transform="translate(252.237 117.552) rotate(177)" fill="#5d7aff"/>
                <path id="icons8_warehouse-4" data-name="icons8_warehouse" d="M14.974,0l-13,5.778A3.336,3.336,0,0,0,0,8.816V30.1H8.039a1.664,1.664,0,0,0,.543,0H21.349a1.664,1.664,0,0,0,.543,0h8.055V8.816a3.336,3.336,0,0,0-1.976-3.038l0,0Zm0,3.639L26.62,8.816v17.96H23.292V11.8H6.655V26.776H3.327V8.816ZM9.982,15.13h9.982V26.776H16.637V25.112H13.31v1.664H9.982Z" transform="matrix(-0.839, 0.545, -0.545, -0.839, 137.254, 25.265)" fill="#5d7aff"/>
                <path id="icons8_dog_house-7" data-name="icons8_dog_house" d="M18.3,0,0,16.558H4.99V31.611h26.62V16.558H36.6Zm3.327,28.266H14.972V23.248a3.328,3.328,0,1,1,6.655,0Zm6.655,0H24.954V23.248a6.655,6.655,0,1,0-13.31,0v5.018H8.317V13.533L18.3,4.5l9.982,9.032Z" transform="matrix(-0.914, 0.407, -0.407, -0.914, 112.032, 215.38)" fill="#5d7aff"/>
                <path id="icons8_home_page-8" data-name="icons8_home_page" d="M18.3,0,0,16.558H4.991V31.611h9.982V21.576h6.655V31.611h9.982V16.558H36.6l-6.655-6.02V3.178H26.62V7.526Zm0,4.5,9.982,9.032V28.266H24.956V18.231H11.646V28.266H8.319V13.534Z" transform="translate(36.246 123.603) rotate(-172)" fill="#5d7aff"/>
              </g>
            </g>
            <g id="House_Motif-3" data-name="House Motif" transform="matrix(-0.995, -0.105, 0.105, -0.995, 1211.853, 1261.202)">
              <g id="Groupe_2-3" data-name="Groupe 2" transform="translate(150.756 321.083)">
                <path id="icons8_school_house-5" data-name="icons8_school_house" d="M16.6,0,6.207,5.247l1.338,2.82,1.425-.72v6.715L4.149,17.056a1.516,1.516,0,0,0-.958.595L0,19.63l1.57,2.691,1.309-.812V30H15.061V25.291h3.046V30H30.289v-8.67l1.321.8,1.547-2.7L24.2,13.979V7.515l1.4.736,1.386-2.8Zm-.024,3.506,4.58,2.406v6.212L16.575,9.342,12.016,12.17V5.808Zm.021,9.489,4.559,2.774v.107h.175l5.916,3.6V26.86H21.152V22.152H12.016V26.86H5.925V19.618l6.029-3.742h.062v-.04Z" transform="matrix(-0.719, 0.695, -0.695, -0.719, 534.543, 79.671)" fill="#5d7aff"/>
                <path id="icons8_home_page-9" data-name="icons8_home_page" d="M17.367,0,0,15.714H4.737V30H14.21V20.475h6.315V30H30V15.714h4.737L28.419,10V3.016H25.262V7.142Zm0,4.272,9.473,8.571V26.824H23.683V17.3H11.052v9.523H7.894V12.843Z" transform="matrix(-0.999, -0.035, 0.035, -0.999, 346.638, 119.677)" fill="#5d7aff"/>
                <path id="icons8_residence-5" data-name="icons8_residence" d="M8.776,0A3.168,3.168,0,0,0,6,1.644L0,12.631H3.1V25.262A3.181,3.181,0,0,0,6.26,28.419h22.1a3.181,3.181,0,0,0,3.158-3.158V12.631h3.219L28.617,1.622h0A3.166,3.166,0,0,0,25.857,0Zm0,3.158H25.857v0l3.515,6.312H24L17.312,6.13,10.623,9.473h-5.3Zm8.536,6.5,4.737,2.368V25.262H18.891V20.525a1.579,1.579,0,1,0-3.158,0v4.737H12.575V12.026ZM6.26,12.631H9.418V25.262H6.26Zm11.052,0a1.579,1.579,0,1,0,1.579,1.579A1.579,1.579,0,0,0,17.312,12.631Zm7.894,0h3.158V25.262H25.206Z" transform="translate(96.879 62.531) rotate(-167)" fill="#5d7aff"/>
                <path id="icons8_roofing-5" data-name="icons8_roofing" d="M25.262,0V5.807L18.946.028,0,17.367H4.678L18.946,4.308,33.215,17.367h4.678l-3.158-2.889V0Zm3.158,3.158h3.158v8.431L28.419,8.7Z" transform="translate(333.241 21.856) rotate(-173)" fill="#5d7aff"/>
                <path id="icons8_dog_house-8" data-name="icons8_dog_house" d="M17.366,0,0,15.713H4.735V30H30V15.713h4.735Zm3.158,26.824H14.208V22.062a3.158,3.158,0,1,1,6.315,0Zm6.315,0H23.681V22.062a6.316,6.316,0,1,0-12.631,0v4.762H7.893V12.842l9.473-8.571,9.473,8.571Z" transform="matrix(-0.914, 0.407, -0.407, -0.914, 43.93, 158.811)" fill="#5d7aff"/>
              </g>
              <g id="Groupe_3-3" data-name="Groupe 3" transform="translate(567.531 331.147) rotate(-172)">
                <g id="House_Icons-3" data-name="House Icons" transform="translate(406.096 0)">
                  <path id="icons8_dog_house-9" data-name="icons8_dog_house" d="M17.366,30,0,14.285H4.735V0H30V14.285h4.735ZM20.524,3.174H14.208V7.936a3.158,3.158,0,1,0,6.315,0Zm6.315,0H23.681V7.936a6.316,6.316,0,1,1-12.631,0V3.174H7.893V17.156l9.473,8.571,9.473-8.571Z" transform="matrix(-0.914, -0.407, 0.407, -0.914, 154.812, 41.531)" fill="#5d7aff"/>
                  <path id="icons8_home_page-10" data-name="icons8_home_page" d="M17.367,30,0,14.285H4.737V0H14.21V9.523h6.315V0H30V14.285h4.737L28.419,20v6.984H25.262V22.856Zm0-4.272,9.473-8.571V3.174H23.683V12.7H11.052V3.174H7.894V17.155Z" transform="translate(91.705 29.946) rotate(172)" fill="#5d7aff"/>
                  <path id="icons8_school_house-6" data-name="icons8_school_house" d="M16.6,30,6.207,24.751l1.338-2.82,1.425.72V15.937L4.149,12.943a1.516,1.516,0,0,1-.958-.595L0,10.368,1.57,7.677l1.309.812V0H15.061V4.708h3.046V0H30.289V8.67l1.321-.8,1.547,2.7L24.2,16.02v6.464l1.4-.736,1.386,2.8Zm-.024-3.506,4.58-2.406V17.874l-4.577,2.783-4.559-2.829V24.19ZM16.593,17l4.559-2.774v-.107h.175l5.916-3.6V3.138H21.152V7.846H12.016V3.138H5.925V10.38l6.029,3.742h.062v.04Z" transform="matrix(-0.719, -0.695, 0.695, -0.719, 136.29, 145.599)" fill="#5d7aff"/>
                  <path id="icons8_hut_1-9" data-name="icons8_hut_1" d="M16.578,30a4.379,4.379,0,0,1-2.237-.7,18.909,18.909,0,0,1-2.279-1.491A51.6,51.6,0,0,1,6.89,23.3a48.476,48.476,0,0,1-4.624-5.182C1.016,16.454,0,15.174,0,13.333a1.662,1.662,0,0,1,1.658-1.667H4.973v-10A1.662,1.662,0,0,1,6.631,0H26.525a1.662,1.662,0,0,1,1.658,1.666v10H31.5a1.662,1.662,0,0,1,1.658,1.666c0,1.842-1.016,3.121-2.267,4.785A48.513,48.513,0,0,1,26.263,23.3a51.622,51.622,0,0,1-5.168,4.508A18.859,18.859,0,0,1,18.815,29.3,4.381,4.381,0,0,1,16.578,30Zm0-3.359a4.039,4.039,0,0,0,.677-.283,16.152,16.152,0,0,0,1.868-1.227,48.889,48.889,0,0,0,4.821-4.209,45.81,45.81,0,0,0,4.3-4.811A4.961,4.961,0,0,0,28.882,15H4.274a4.956,4.956,0,0,0,.638,1.11,45.82,45.82,0,0,0,4.3,4.811,48.866,48.866,0,0,0,4.821,4.209A16.137,16.137,0,0,0,15.9,26.356,4.049,4.049,0,0,0,16.578,26.639ZM8.289,11.666H24.867V3.333H19.894V6.666a3.316,3.316,0,1,1-6.631,0V3.333H8.289Z" transform="translate(32.306 106.903) rotate(-167)" fill="#5d7aff"/>
                </g>
                <path id="icons8_home_page-11" data-name="icons8_home_page" d="M17.367,30,0,14.285H4.737V0H14.21V9.523h6.315V0H30V14.285h4.737L28.419,20v6.984H25.262V22.856Zm0-4.272,9.473-8.571V3.174H23.683V12.7H11.052V3.174H7.894V17.155Z" transform="matrix(-0.999, 0.035, -0.035, -0.999, 408.219, 190.977)" fill="#5d7aff"/>
                <path id="icons8_hut_1-10" data-name="icons8_hut_1" d="M16.578,30a4.379,4.379,0,0,1-2.237-.7,18.909,18.909,0,0,1-2.279-1.491A51.6,51.6,0,0,1,6.89,23.3a48.477,48.477,0,0,1-4.624-5.182C1.016,16.454,0,15.174,0,13.333a1.662,1.662,0,0,1,1.658-1.667H4.973v-10A1.662,1.662,0,0,1,6.631,0H26.525a1.662,1.662,0,0,1,1.658,1.666v10H31.5a1.662,1.662,0,0,1,1.658,1.666c0,1.842-1.016,3.121-2.267,4.785A48.513,48.513,0,0,1,26.263,23.3a51.622,51.622,0,0,1-5.168,4.508A18.859,18.859,0,0,1,18.815,29.3,4.381,4.381,0,0,1,16.578,30Zm0-3.359a4.038,4.038,0,0,0,.677-.283,16.152,16.152,0,0,0,1.868-1.227,48.888,48.888,0,0,0,4.821-4.209,45.809,45.809,0,0,0,4.3-4.811A4.961,4.961,0,0,0,28.882,15H4.274a4.956,4.956,0,0,0,.638,1.11,45.82,45.82,0,0,0,4.3,4.811,48.866,48.866,0,0,0,4.821,4.209A16.136,16.136,0,0,0,15.9,26.356,4.048,4.048,0,0,0,16.578,26.639ZM8.289,11.666H24.867V3.333H19.894V6.666a3.316,3.316,0,1,1-6.631,0V3.333H8.289Z" transform="translate(244.304 49.161) rotate(174)" fill="#5d7aff"/>
                <path id="icons8_residence-6" data-name="icons8_residence" d="M8.776,28.419A3.168,3.168,0,0,1,6,26.776L0,15.789H3.1V3.158A3.181,3.181,0,0,1,6.26,0h22.1a3.181,3.181,0,0,1,3.158,3.158V15.789h3.219L28.617,26.8h0a3.166,3.166,0,0,1-2.757,1.622Zm0-3.158H25.857v0l3.515-6.312H24l-6.689,3.343-6.689-3.343h-5.3Zm8.536-6.5,4.737-2.368V3.158H18.891V7.894a1.579,1.579,0,1,1-3.158,0V3.158H12.575V16.393ZM6.26,15.789H9.418V3.158H6.26Zm11.052,0a1.579,1.579,0,1,1,1.579-1.579A1.579,1.579,0,0,1,17.312,15.789Zm7.894,0h3.158V3.158H25.206Z" transform="translate(112.234 121.306) rotate(167)" fill="#5d7aff"/>
                <path id="icons8_roofing-6" data-name="icons8_roofing" d="M25.262,17.367V11.561L18.946,17.34,0,0H4.678L18.946,13.059,33.215,0h4.678L34.735,2.889V17.367Zm3.158-3.158h3.158V5.779L28.419,8.671Z" transform="translate(219.196 210.47) rotate(-177)" fill="#5d7aff"/>
                <path id="icons8_warehouse-5" data-name="icons8_warehouse" d="M14.21,28.589,1.875,23.106A3.166,3.166,0,0,1,0,20.222V.021H7.629a1.579,1.579,0,0,1,.515,0H20.26a1.579,1.579,0,0,1,.515,0h7.645v20.2a3.166,3.166,0,0,1-1.875,2.883l0,0Zm0-3.454,11.052-4.912V3.179H22.1v14.21H6.315V3.179H3.158V20.222Zm-4.737-10.9h9.473V3.179H15.789V4.758H12.631V3.179H9.473Z" transform="matrix(-0.839, -0.545, 0.545, -0.839, 52.296, 253.857)" fill="#5d7aff"/>
                <path id="icons8_dog_house-10" data-name="icons8_dog_house" d="M17.366,30,0,14.285H4.735V0H30V14.285h4.735ZM20.524,3.174H14.208V7.936a3.158,3.158,0,1,0,6.315,0Zm6.315,0H23.681V7.936a6.316,6.316,0,1,1-12.631,0V3.174H7.893V17.156l9.473,8.571,9.473-8.571Z" transform="matrix(-0.914, -0.407, 0.407, -0.914, 31.729, 76.87)" fill="#5d7aff"/>
              </g>
            </g>
            <g id="House_Motif-4" data-name="House Motif" transform="matrix(0.995, 0.105, -0.105, 0.995, 903.28, 308.953)">
              <g id="Groupe_2-4" data-name="Groupe 2" transform="translate(0 321.083)">
                <path id="icons8_school_house-7" data-name="icons8_school_house" d="M16.6,0,6.207,5.247l1.338,2.82,1.425-.72v6.715L4.149,17.056a1.516,1.516,0,0,0-.958.595L0,19.63l1.57,2.691,1.309-.812V30H15.061V25.291h3.046V30H30.289v-8.67l1.321.8,1.547-2.7L24.2,13.979V7.515l1.4.736,1.386-2.8Zm-.024,3.506,4.58,2.406v6.212L16.575,9.342,12.016,12.17V5.808Zm.021,9.489,4.559,2.774v.107h.175l5.916,3.6V26.86H21.152V22.152H12.016V26.86H5.925V19.618l6.029-3.742h.062v-.04Z" transform="matrix(-0.719, 0.695, -0.695, -0.719, 749.977, 79.671)" fill="#5d7aff"/>
                <path id="icons8_home_page-12" data-name="icons8_home_page" d="M17.367,0,0,15.714H4.737V30H14.21V20.475h6.315V30H30V15.714h4.737L28.419,10V3.016H25.262V7.142Zm0,4.272,9.473,8.571V26.824H23.683V17.3H11.052v9.523H7.894V12.843Z" transform="matrix(-0.999, -0.035, 0.035, -0.999, 562.071, 119.677)" fill="#5d7aff"/>
                <path id="icons8_residence-7" data-name="icons8_residence" d="M8.776,0A3.168,3.168,0,0,0,6,1.644L0,12.631H3.1V25.262A3.181,3.181,0,0,0,6.26,28.419h22.1a3.181,3.181,0,0,0,3.158-3.158V12.631h3.219L28.617,1.622h0A3.166,3.166,0,0,0,25.857,0Zm0,3.158H25.857v0l3.515,6.312H24L17.312,6.13,10.623,9.473h-5.3Zm8.536,6.5,4.737,2.368V25.262H18.891V20.525a1.579,1.579,0,1,0-3.158,0v4.737H12.575V12.026ZM6.26,12.631H9.418V25.262H6.26Zm11.052,0a1.579,1.579,0,1,0,1.579,1.579A1.579,1.579,0,0,0,17.312,12.631Zm7.894,0h3.158V25.262H25.206Z" transform="translate(312.312 62.531) rotate(-167)" fill="#5d7aff"/>
                <path id="icons8_roofing-7" data-name="icons8_roofing" d="M25.262,0V5.807L18.946.028,0,17.367H4.678L18.946,4.308,33.215,17.367h4.678l-3.158-2.889V0Zm3.158,3.158h3.158v8.431L28.419,8.7Z" transform="translate(548.674 21.856) rotate(-173)" fill="#5d7aff"/>
                <path id="icons8_dog_house-11" data-name="icons8_dog_house" d="M10.215,32.546,0,11.471l4.39,1.774L9.741,0,33.164,9.463,27.812,22.708l4.39,1.774ZM23.191,8.858,17.336,6.492l-1.784,4.415a3.158,3.158,0,1,0,5.856,2.366Zm5.856,2.366-2.928-1.183-1.784,4.415A6.316,6.316,0,1,1,12.624,9.724l1.784-4.415L11.48,4.126,6.242,17.09l5.573,11.5,11.994-4.4Z" transform="matrix(-0.914, -0.407, 0.407, -0.914, 30.297, 106.76)" fill="#5d7aff"/>
              </g>
              <g id="Groupe_3-4" data-name="Groupe 3" transform="translate(632.209 331.147) rotate(-172)">
                <g id="House_Icons-4" data-name="House Icons" transform="translate(406.096 0)">
                  <path id="icons8_dog_house-12" data-name="icons8_dog_house" d="M17.366,30,0,14.285H4.735V0H30V14.285h4.735ZM20.524,3.174H14.208V7.936a3.158,3.158,0,1,0,6.315,0Zm6.315,0H23.681V7.936a6.316,6.316,0,1,1-12.631,0V3.174H7.893V17.156l9.473,8.571,9.473-8.571Z" transform="matrix(-0.914, -0.407, 0.407, -0.914, 154.812, 41.531)" fill="#5d7aff"/>
                  <path id="icons8_home_page-13" data-name="icons8_home_page" d="M17.367,30,0,14.285H4.737V0H14.21V9.523h6.315V0H30V14.285h4.737L28.419,20v6.984H25.262V22.856Zm0-4.272,9.473-8.571V3.174H23.683V12.7H11.052V3.174H7.894V17.155Z" transform="translate(91.705 29.946) rotate(172)" fill="#5d7aff"/>
                  <path id="icons8_school_house-8" data-name="icons8_school_house" d="M16.6,30,6.207,24.751l1.338-2.82,1.425.72V15.937L4.149,12.943a1.516,1.516,0,0,1-.958-.595L0,10.368,1.57,7.677l1.309.812V0H15.061V4.708h3.046V0H30.289V8.67l1.321-.8,1.547,2.7L24.2,16.02v6.464l1.4-.736,1.386,2.8Zm-.024-3.506,4.58-2.406V17.874l-4.577,2.783-4.559-2.829V24.19ZM16.593,17l4.559-2.774v-.107h.175l5.916-3.6V3.138H21.152V7.846H12.016V3.138H5.925V10.38l6.029,3.742h.062v.04Z" transform="matrix(-0.719, -0.695, 0.695, -0.719, 136.29, 145.599)" fill="#5d7aff"/>
                  <path id="icons8_hut_1-11" data-name="icons8_hut_1" d="M16.578,30a4.38,4.38,0,0,1-2.237-.7,18.909,18.909,0,0,1-2.279-1.491A51.6,51.6,0,0,1,6.89,23.3a48.477,48.477,0,0,1-4.624-5.182C1.016,16.454,0,15.174,0,13.333a1.662,1.662,0,0,1,1.658-1.667H4.973v-10A1.662,1.662,0,0,1,6.631,0H26.525a1.662,1.662,0,0,1,1.658,1.666v10H31.5a1.662,1.662,0,0,1,1.658,1.666c0,1.842-1.016,3.121-2.267,4.785A48.512,48.512,0,0,1,26.263,23.3a51.622,51.622,0,0,1-5.168,4.508A18.86,18.86,0,0,1,18.815,29.3,4.381,4.381,0,0,1,16.578,30Zm0-3.359a4.038,4.038,0,0,0,.677-.283,16.152,16.152,0,0,0,1.868-1.227,48.888,48.888,0,0,0,4.821-4.209,45.81,45.81,0,0,0,4.3-4.811A4.961,4.961,0,0,0,28.882,15H4.274a4.956,4.956,0,0,0,.638,1.11,45.82,45.82,0,0,0,4.3,4.811,48.866,48.866,0,0,0,4.821,4.209A16.137,16.137,0,0,0,15.9,26.356,4.048,4.048,0,0,0,16.578,26.639ZM8.289,11.666H24.867V3.333H19.894V6.666a3.316,3.316,0,1,1-6.631,0V3.333H8.289Z" transform="translate(32.306 106.903) rotate(-167)" fill="#5d7aff"/>
                </g>
                <path id="icons8_home_page-14" data-name="icons8_home_page" d="M17.367,30,0,14.285H4.737V0H14.21V9.523h6.315V0H30V14.285h4.737L28.419,20v6.984H25.262V22.856Zm0-4.272,9.473-8.571V3.174H23.683V12.7H11.052V3.174H7.894V17.155Z" transform="matrix(-0.999, 0.035, -0.035, -0.999, 408.219, 190.977)" fill="#5d7aff"/>
                <path id="icons8_hut_1-12" data-name="icons8_hut_1" d="M16.578,30a4.379,4.379,0,0,1-2.237-.7,18.909,18.909,0,0,1-2.279-1.491A51.6,51.6,0,0,1,6.89,23.3a48.477,48.477,0,0,1-4.624-5.182C1.016,16.454,0,15.174,0,13.333a1.662,1.662,0,0,1,1.658-1.667H4.973v-10A1.662,1.662,0,0,1,6.631,0H26.525a1.662,1.662,0,0,1,1.658,1.666v10H31.5a1.662,1.662,0,0,1,1.658,1.666c0,1.842-1.016,3.121-2.267,4.785A48.515,48.515,0,0,1,26.263,23.3a51.62,51.62,0,0,1-5.168,4.508A18.859,18.859,0,0,1,18.815,29.3,4.381,4.381,0,0,1,16.578,30Zm0-3.359a4.038,4.038,0,0,0,.677-.283,16.152,16.152,0,0,0,1.868-1.227,48.888,48.888,0,0,0,4.821-4.209,45.809,45.809,0,0,0,4.3-4.811A4.962,4.962,0,0,0,28.882,15H4.274a4.956,4.956,0,0,0,.638,1.11,45.82,45.82,0,0,0,4.3,4.811,48.865,48.865,0,0,0,4.821,4.209A16.136,16.136,0,0,0,15.9,26.356,4.049,4.049,0,0,0,16.578,26.639ZM8.289,11.666H24.867V3.333H19.894V6.666a3.316,3.316,0,1,1-6.631,0V3.333H8.289Z" transform="translate(244.304 49.161) rotate(174)" fill="#5d7aff"/>
                <path id="icons8_residence-8" data-name="icons8_residence" d="M8.776,28.419A3.168,3.168,0,0,1,6,26.776L0,15.789H3.1V3.158A3.181,3.181,0,0,1,6.26,0h22.1a3.181,3.181,0,0,1,3.158,3.158V15.789h3.219L28.617,26.8h0a3.166,3.166,0,0,1-2.757,1.622Zm0-3.158H25.857v0l3.515-6.312H24l-6.689,3.343-6.689-3.343h-5.3Zm8.536-6.5,4.737-2.368V3.158H18.891V7.894a1.579,1.579,0,0,1-3.158,0V3.158H12.575V16.393ZM6.26,15.789H9.418V3.158H6.26Zm11.052,0a1.579,1.579,0,1,1,1.579-1.579A1.579,1.579,0,0,1,17.312,15.789Zm7.894,0h3.158V3.158H25.206Z" transform="translate(112.234 121.306) rotate(167)" fill="#5d7aff"/>
                <path id="icons8_roofing-8" data-name="icons8_roofing" d="M25.262,17.367V11.561L18.946,17.34,0,0H4.678L18.946,13.059,33.215,0h4.678L34.735,2.889V17.367Zm3.158-3.158h3.158V5.779L28.419,8.671Z" transform="translate(219.196 210.47) rotate(-177)" fill="#5d7aff"/>
                <path id="icons8_warehouse-6" data-name="icons8_warehouse" d="M14.21,28.589,1.875,23.106A3.166,3.166,0,0,1,0,20.222V.021H7.629a1.579,1.579,0,0,1,.515,0H20.26a1.579,1.579,0,0,1,.515,0h7.645v20.2a3.166,3.166,0,0,1-1.875,2.883l0,0Zm0-3.454,11.052-4.912V3.179H22.1v14.21H6.315V3.179H3.158V20.222Zm-4.737-10.9h9.473V3.179H15.789V4.758H12.631V3.179H9.473Z" transform="matrix(-0.839, -0.545, 0.545, -0.839, 52.296, 253.856)" fill="#5d7aff"/>
                <path id="icons8_dog_house-13" data-name="icons8_dog_house" d="M17.366,30,0,14.285H4.735V0H30V14.285h4.735ZM20.524,3.174H14.208V7.936a3.158,3.158,0,1,0,6.315,0Zm6.315,0H23.681V7.936a6.316,6.316,0,1,1-12.631,0V3.174H7.893V17.156l9.473,8.571,9.473-8.571Z" transform="matrix(-0.914, -0.407, 0.407, -0.914, 31.729, 76.87)" fill="#5d7aff"/>
              </g>
            </g>
            <g id="House_Motif-5" data-name="House Motif" transform="translate(1213.717 567.682) rotate(3)">
              <g id="Groupe_2-5" data-name="Groupe 2" transform="translate(43.988 335.185)">
                <path id="icons8_dog_house-14" data-name="icons8_dog_house" d="M18.129,31.316,0,14.912H4.943V0H31.314V14.912h4.943Zm3.3-28H14.832V8.285a3.3,3.3,0,1,0,6.593,0Zm6.593,0h-3.3V8.285a6.593,6.593,0,1,1-13.186,0V3.314h-3.3v14.6l9.889,8.947,9.889-8.947Z" transform="translate(652.349 57.905) rotate(-160)" fill="#5d7aff"/>
                <path id="icons8_school_house-9" data-name="icons8_school_house" d="M17.325,31.316,6.48,25.838l1.4-2.943,1.487.752v-7.01L4.331,13.511a1.583,1.583,0,0,1-1-.621L0,10.824,1.639,8.015l1.366.848V0H15.723V4.914H18.9V0H31.619V9.051L33,8.213l1.614,2.822-9.352,5.689v6.748l1.462-.768,1.447,2.918Zm-.025-3.66,4.781-2.512V18.659L17.3,21.564l-4.76-2.953v6.642Zm.022-9.905,4.76-2.9v-.112h.183l6.175-3.756V3.276H22.081V8.19H12.543V3.276H6.185v7.56l6.293,3.907h.065v.042Z" transform="matrix(-0.719, -0.695, 0.695, -0.719, 649.656, 178.845)" fill="#5d7aff"/>
                <path id="icons8_home_page-15" data-name="icons8_home_page" d="M18.13,31.316,0,14.912H4.945V0h9.889V9.941h6.593V0h9.889V14.912H36.26l-6.593,5.964v7.291h-3.3V23.86Zm0-4.459,9.889-8.948V3.314h-3.3v9.941H11.537V3.314h-3.3V17.909Z" transform="matrix(-0.999, 0.035, -0.035, -0.999, 476.345, 145.852)" fill="#5d7aff"/>
                <path id="icons8_school_house-10" data-name="icons8_school_house" d="M17.325,31.316,6.48,25.838l1.4-2.943,1.487.752v-7.01L4.331,13.511a1.583,1.583,0,0,1-1-.621L0,10.824,1.639,8.015l1.366.848V0H15.723V4.914H18.9V0H31.619V9.051L33,8.213l1.614,2.822-9.352,5.689v6.748l1.462-.768,1.447,2.918Zm-.025-3.66,4.781-2.512V18.659L17.3,21.564l-4.76-2.953v6.642Zm.022-9.905,4.76-2.9v-.112h.183l6.175-3.756V3.276H22.081V8.19H12.543V3.276H6.185v7.56l6.293,3.907h.065v.042Z" transform="translate(303.694 36.345) rotate(-171)" fill="#5d7aff"/>
                <path id="icons8_hut_1-13" data-name="icons8_hut_1" d="M17.306,31.316a4.572,4.572,0,0,1-2.336-.731,19.739,19.739,0,0,1-2.38-1.556,53.871,53.871,0,0,1-5.4-4.706,50.606,50.606,0,0,1-4.827-5.41C1.061,17.176,0,15.841,0,13.918a1.735,1.735,0,0,1,1.73-1.74H5.192V1.74A1.735,1.735,0,0,1,6.922,0H27.69A1.735,1.735,0,0,1,29.42,1.74V12.178h3.461a1.735,1.735,0,0,1,1.731,1.74c0,1.923-1.061,3.258-2.366,5a50.644,50.644,0,0,1-4.83,5.41,53.889,53.889,0,0,1-5.395,4.706,19.687,19.687,0,0,1-2.38,1.553A4.573,4.573,0,0,1,17.306,31.316Zm0-3.507a4.216,4.216,0,0,0,.706-.3,16.862,16.862,0,0,0,1.95-1.281A51.035,51.035,0,0,0,25,21.839a47.821,47.821,0,0,0,4.489-5.022,5.179,5.179,0,0,0,.666-1.159H4.462a5.173,5.173,0,0,0,.666,1.159,47.832,47.832,0,0,0,4.489,5.022,51.013,51.013,0,0,0,5.033,4.394,16.845,16.845,0,0,0,1.95,1.281A4.226,4.226,0,0,0,17.306,27.809ZM8.653,12.178H25.959V3.48H20.767v3.48a3.461,3.461,0,1,1-6.922,0V3.48H8.653Z" transform="translate(488.956 54.763) rotate(174)" fill="#5d7aff"/>
                <path id="icons8_residence-9" data-name="icons8_residence" d="M9.162,29.668a3.308,3.308,0,0,1-2.894-1.716L0,16.482H3.238V3.3A3.321,3.321,0,0,1,6.535,0H29.61a3.321,3.321,0,0,1,3.3,3.3V16.482h3.361L29.874,27.974h0a3.3,3.3,0,0,1-2.878,1.693Zm0-3.3H26.992v0l3.67-6.59H25.055l-6.982,3.49-6.982-3.49H5.556Zm8.911-6.786,4.945-2.472V3.3h-3.3V8.241a1.648,1.648,0,1,1-3.3,0V3.3h-3.3V17.113Zm-11.537-3.1h3.3V3.3h-3.3Zm11.537,0a1.648,1.648,0,1,1,1.648-1.648A1.648,1.648,0,0,1,18.072,16.482Zm8.241,0h3.3V3.3h-3.3Z" transform="translate(221.197 203.118) rotate(167)" fill="#5d7aff"/>
                <path id="icons8_roofing-9" data-name="icons8_roofing" d="M26.371,18.13V12.069L19.778,18.1,0,0H4.883L19.778,13.633,34.673,0h4.883l-3.3,3.016V18.13Zm3.3-3.3h3.3v-8.8l-3.3,3.02Z" transform="translate(463.476 234.668) rotate(173)" fill="#5d7aff"/>
                <path id="icons8_dog_house-15" data-name="icons8_dog_house" d="M18.129,31.316,0,14.912H4.943V0H31.314V14.912h4.943Zm3.3-28H14.832V8.285a3.3,3.3,0,1,0,6.593,0Zm6.593,0h-3.3V8.285a6.593,6.593,0,1,1-13.186,0V3.314h-3.3v14.6l9.889,8.947,9.889-8.947Z" transform="matrix(-0.914, -0.407, 0.407, -0.914, 146.512, 102.311)" fill="#5d7aff"/>
                <path id="icons8_hut_1-14" data-name="icons8_hut_1" d="M17.306,31.316a4.572,4.572,0,0,1-2.336-.731,19.739,19.739,0,0,1-2.38-1.556,53.871,53.871,0,0,1-5.4-4.706,50.605,50.605,0,0,1-4.827-5.41C1.061,17.176,0,15.841,0,13.918a1.735,1.735,0,0,1,1.73-1.74H5.192V1.74A1.735,1.735,0,0,1,6.922,0H27.69A1.735,1.735,0,0,1,29.42,1.74V12.178h3.461a1.735,1.735,0,0,1,1.731,1.74c0,1.923-1.061,3.258-2.366,5a50.643,50.643,0,0,1-4.83,5.41,53.89,53.89,0,0,1-5.395,4.706,19.688,19.688,0,0,1-2.38,1.553A4.573,4.573,0,0,1,17.306,31.316Zm0-3.507a4.216,4.216,0,0,0,.706-.3,16.862,16.862,0,0,0,1.95-1.281A51.035,51.035,0,0,0,25,21.839a47.821,47.821,0,0,0,4.489-5.022,5.179,5.179,0,0,0,.666-1.159H4.462a5.173,5.173,0,0,0,.666,1.159,47.832,47.832,0,0,0,4.489,5.022,51.012,51.012,0,0,0,5.033,4.394,16.845,16.845,0,0,0,1.95,1.281A4.227,4.227,0,0,0,17.306,27.809ZM8.653,12.178H25.959V3.48H20.767v3.48a3.461,3.461,0,1,1-6.922,0V3.48H8.653Z" transform="translate(43.536 149.93) rotate(159)" fill="#5d7aff"/>
              </g>
              <g id="Groupe_3-5" data-name="Groupe 3" transform="translate(693.831 262.427) rotate(172)">
                <g id="House_Icons-5" data-name="House Icons" transform="translate(489.057 113.012)">
                  <path id="icons8_dog_house-16" data-name="icons8_dog_house" d="M18.129,0,0,16.4H4.943V31.316H31.314V16.4h4.943Zm3.3,28H14.832V23.031a3.3,3.3,0,1,1,6.593,0Zm6.593,0h-3.3V23.031a6.593,6.593,0,1,0-13.186,0V28h-3.3v-14.6l9.889-8.947,9.889,8.947Z" transform="matrix(-0.914, 0.407, -0.407, -0.914, 174.348, 137.247)" fill="#5d7aff"/>
                  <path id="icons8_home_page-16" data-name="icons8_home_page" d="M18.13,0,0,16.4H4.945V31.316h9.889V21.374h6.593v9.941h9.889V16.4H36.26L29.668,10.44V3.149h-3.3V7.456Zm0,4.459,9.889,8.948V28h-3.3V18.061H11.537V28h-3.3V13.407Z" transform="translate(91.374 151.743) rotate(-172)" fill="#5d7aff"/>
                  <path id="icons8_school_house-11" data-name="icons8_school_house" d="M17.325,0,6.48,5.477l1.4,2.943,1.487-.752v7.01L4.331,17.8a1.583,1.583,0,0,0-1,.621L0,20.492,1.639,23.3l1.366-.848v8.862H15.723V26.4H18.9v4.914H31.619V22.265L33,23.1l1.614-2.822-9.352-5.689V7.845l1.462.768L28.17,5.695ZM17.3,3.66l4.781,2.512v6.485L17.3,9.752,12.543,12.7V6.063Zm.022,9.905,4.76,2.9v.112h.183l6.175,3.756V28.04H22.081V23.125H12.543V28.04H6.185v-7.56l6.293-3.907h.065v-.042Z" transform="matrix(-0.719, 0.695, -0.695, -0.719, 164.029, 22.527)" fill="#5d7aff"/>
                  <path id="icons8_hut_1-15" data-name="icons8_hut_1" d="M17.306,0A4.572,4.572,0,0,0,14.97.731a19.74,19.74,0,0,0-2.38,1.556,53.87,53.87,0,0,0-5.4,4.706A50.606,50.606,0,0,0,2.366,12.4C1.061,14.139,0,15.475,0,17.4a1.735,1.735,0,0,0,1.73,1.74H5.192V29.576a1.735,1.735,0,0,0,1.73,1.74H27.69a1.735,1.735,0,0,0,1.731-1.74V19.137h3.461a1.735,1.735,0,0,0,1.731-1.74c0-1.923-1.061-3.258-2.366-5a50.643,50.643,0,0,0-4.83-5.41,53.889,53.889,0,0,0-5.395-4.706A19.688,19.688,0,0,0,19.642.734,4.573,4.573,0,0,0,17.306,0Zm0,3.507a4.216,4.216,0,0,1,.706.3,16.861,16.861,0,0,1,1.95,1.281A51.035,51.035,0,0,1,25,9.477,47.821,47.821,0,0,1,29.485,14.5a5.18,5.18,0,0,1,.666,1.159H4.462A5.173,5.173,0,0,1,5.128,14.5,47.833,47.833,0,0,1,9.616,9.477a51.012,51.012,0,0,1,5.033-4.394A16.844,16.844,0,0,1,16.6,3.8,4.226,4.226,0,0,1,17.306,3.507ZM8.653,19.137H25.959v8.7H20.767v-3.48a3.461,3.461,0,1,0-6.922,0v3.48H8.653Z" transform="translate(40.77 70.909) rotate(167)" fill="#5d7aff"/>
                </g>
                <path id="icons8_home_page-17" data-name="icons8_home_page" d="M18.13,0,0,16.4H4.945V31.316h9.889V21.374h6.593v9.941h9.889V16.4H36.26L29.668,10.44V3.149h-3.3V7.456Zm0,4.459,9.889,8.948V28h-3.3V18.061H11.537V28h-3.3V13.407Z" transform="matrix(-0.999, -0.035, 0.035, -0.999, 490.181, 96.938)" fill="#5d7aff"/>
                <path id="icons8_hut_1-16" data-name="icons8_hut_1" d="M17.306,0A4.572,4.572,0,0,0,14.97.731a19.739,19.739,0,0,0-2.38,1.556,53.871,53.871,0,0,0-5.4,4.706A50.605,50.605,0,0,0,2.366,12.4C1.061,14.139,0,15.475,0,17.4a1.735,1.735,0,0,0,1.73,1.74H5.192V29.576a1.735,1.735,0,0,0,1.73,1.74H27.69a1.735,1.735,0,0,0,1.731-1.74V19.137h3.461a1.735,1.735,0,0,0,1.731-1.74c0-1.923-1.061-3.258-2.366-5a50.643,50.643,0,0,0-4.83-5.41,53.889,53.889,0,0,0-5.395-4.706A19.688,19.688,0,0,0,19.642.734,4.573,4.573,0,0,0,17.306,0Zm0,3.507a4.215,4.215,0,0,1,.706.3,16.862,16.862,0,0,1,1.95,1.281A51.036,51.036,0,0,1,25,9.477,47.821,47.821,0,0,1,29.485,14.5a5.18,5.18,0,0,1,.666,1.159H4.462A5.173,5.173,0,0,1,5.128,14.5,47.832,47.832,0,0,1,9.616,9.477a51.014,51.014,0,0,1,5.033-4.394A16.845,16.845,0,0,1,16.6,3.8,4.227,4.227,0,0,1,17.306,3.507ZM8.653,19.137H25.959v8.7H20.767v-3.48a3.461,3.461,0,1,0-6.922,0v3.48H8.653Z" transform="matrix(-0.995, -0.105, 0.105, -0.995, 316.886, 244.83)" fill="#5d7aff"/>
                <path id="icons8_residence-10" data-name="icons8_residence" d="M9.162,0A3.308,3.308,0,0,0,6.268,1.716L0,13.186H3.238V26.371a3.321,3.321,0,0,0,3.3,3.3H29.61a3.321,3.321,0,0,0,3.3-3.3V13.186h3.361L29.874,1.693h0A3.3,3.3,0,0,0,26.992,0Zm0,3.3H26.992v0l3.67,6.59H25.055L18.072,6.4,11.09,9.889H5.556Zm8.911,6.786,4.945,2.472V26.371h-3.3V21.427a1.648,1.648,0,1,0-3.3,0v4.945h-3.3V12.555Zm-11.537,3.1h3.3V26.371h-3.3Zm11.537,0a1.648,1.648,0,1,0,1.648,1.648A1.648,1.648,0,0,0,18.072,13.186Zm8.241,0h3.3V26.371h-3.3Z" transform="translate(175.615 167.279) rotate(-167)" fill="#5d7aff"/>
                <path id="icons8_roofing-10" data-name="icons8_roofing" d="M26.371,0V6.062L19.778.029,0,18.13H4.883L19.778,4.5,34.673,18.13h4.883l-3.3-3.016V0Zm3.3,3.3h3.3v8.8l-3.3-3.02Z" transform="translate(294.898 63.398) rotate(177)" fill="#5d7aff"/>
                <path id="icons8_warehouse-7" data-name="icons8_warehouse" d="M14.834,0,1.957,5.724A3.3,3.3,0,0,0,0,8.734V29.822H7.964a1.648,1.648,0,0,0,.538,0H21.15a1.649,1.649,0,0,0,.538,0h7.98V8.734a3.3,3.3,0,0,0-1.957-3.01l0,0Zm0,3.605L26.371,8.734V26.526h-3.3V11.692H6.593V26.526H3.3V8.734ZM9.889,14.988h9.889V26.526h-3.3V24.878h-3.3v1.648h-3.3Z" transform="matrix(-0.839, 0.545, -0.545, -0.839, 135.973, 25.029)" fill="#5d7aff"/>
                <path id="icons8_dog_house-17" data-name="icons8_dog_house" d="M18.129,0,0,16.4H4.943V31.316H31.314V16.4h4.943Zm3.3,28H14.832V23.031a3.3,3.3,0,1,1,6.593,0Zm6.593,0h-3.3V23.031a6.593,6.593,0,1,0-13.186,0V28h-3.3v-14.6l9.889-8.947,9.889,8.947Z" transform="matrix(-0.914, 0.407, -0.407, -0.914, 110.986, 213.369)" fill="#5d7aff"/>
                <path id="icons8_home_page-18" data-name="icons8_home_page" d="M18.13,0,0,16.4H4.945V31.316h9.889V21.374h6.593v9.941h9.889V16.4H36.26L29.668,10.44V3.149h-3.3V7.456Zm0,4.459,9.889,8.948V28h-3.3V18.061H11.537V28h-3.3V13.407Z" transform="translate(35.908 122.448) rotate(-172)" fill="#5d7aff"/>
              </g>
            </g>
          </g>
        </g>
      </g>
    </g>
    <g id="Home_ménage_illustrat" data-name="Home ménage illustrat" clip-path="url(#clip-path-3)">
      <g id="Homme_Likdom" data-name="Homme Likdom" transform="translate(0 130)" clip-path="url(#clip-path-4)">
        <g id="Homme_Likdom-2" data-name="Homme Likdom" transform="translate(1293.968 2344.486)">
          <path id="Tracé_5026" data-name="Tracé 5026" d="M124.483,371.53c.407.825-53.737,87.357-66.6,244.814l-16.664,194" transform="translate(-1.24 -11.276)" fill="none" stroke="#f0a38b" stroke-width="40"/>
          <path id="Tracé_5027" data-name="Tracé 5027" d="M84.443,828.673s4.947-36.2-20.99-38.8-1.271,18.721-1.271,18.721h0s8.643,30.069,16.111,31.04C81.407,840.041,84.443,828.673,84.443,828.673Z" transform="translate(-1.552 -23.886)" fill="#c8deff"/>
          <path id="Tracé_5028" data-name="Tracé 5028" d="M12.2,726.92,10.42,796.109l51.7,6.451,17.508-67.23Z" transform="translate(-0.316 -21.991)" fill="#c8deff"/>
          <path id="Tracé_5029" data-name="Tracé 5029" d="M61.807,804.412S67.142,833,63.34,859.352s-44.755,10.2-52.757,1.416-18.915-38.586-.475-62.807S61.807,804.412,61.807,804.412Z" transform="translate(-0.003 -23.862)" fill="#c8deff"/>
          <path id="Tracé_5030" data-name="Tracé 5030" d="M41.22,481.142C44.508,351.387,144.9,311.55,144.9,311.55l20.37,94.04c-45.2,14.783-54.2,75.552-54.2,75.552Z" transform="translate(-1.24 -9.423)" fill="#fff"/>
          <path id="Tracé_5031" data-name="Tracé 5031" d="M125.655,1233.98,63.78,1247.124v14.783H168.9V1233.98Z" transform="translate(-1.918 -37.33)" fill="#3d5b8e"/>
          <path id="Tracé_5032" data-name="Tracé 5032" d="M336.752,369.666c-6.3,102.566-38.052,353.9-38.052,353.9-74.01,0-205.85-183.7-205.85-287.115S147.315,318.2,173.058,309.44h134.1C327.974,316.773,336.752,339.315,336.752,369.666Z" transform="translate(-3.735 -9.385)" fill="#fff"/>
          <path id="Tracé_5033" data-name="Tracé 5033" d="M159.614,309.44c-35.307,18.8-54.474,63.5-54.474,105.117H131.7c3.4-59.169,7.76-89.782,48.848-105.117Z" transform="translate(-3.695 -9.354)" fill="#d8dade"/>
          <path id="Tracé_5034" data-name="Tracé 5034" d="M290.524,309.44c-35.307,18.8-54.474,63.5-54.474,105.117h26.558c3.4-59.169,7.76-89.782,48.848-105.117Z" transform="translate(-8.291 -9.354)" fill="#d8dade"/>
          <path id="Tracé_5035" data-name="Tracé 5035" d="M92.85,790.88l16.432,201.185,17.246,226.472s26.267,18.614,43.514,0l19.71-134.673-7.382-91.8L212.75,790.88Z" transform="translate(-3.335 -24.029)" fill="#27425f"/>
          <path id="Tracé_5036" data-name="Tracé 5036" d="M154.345,793.09,144.5,993.45l13.678,232.972c4.53-.572,13.414-5.675,13.414-5.675l19.71-134.683-7.382-91.789L214.3,793.09Z" transform="translate(-5.064 -24.096)" fill="#20345d"/>
          <path id="Tracé_5037" data-name="Tracé 5037" d="M317.042,781.826H92.85V417.81H267.777L246.7,572.232l70.343,85.407Z" transform="translate(-3.636 -12.669)" fill="#27425f"/>
          <path id="Tracé_5038" data-name="Tracé 5038" d="M286.632,1233.98H248.987l-15.6,13.143v14.783h69.528v-14.783Z" transform="translate(-8.177 -37.33)" fill="#3d5b8e"/>
          <path id="Tracé_5039" data-name="Tracé 5039" d="M320.289,793.09l-5.742,201.775L286.6,1222.872s-20.525,17.741-37.781-.974l-19.71-135.365L236.5,994.3,200.37,793.09Z" transform="translate(-7.192 -26.24)" fill="#27425f"/>
          <path id="Tracé_5040" data-name="Tracé 5040" d="M239.59,1248.27h57.491" transform="translate(-8.353 -37.758)" fill="#d8dade"/>
          <path id="Tracé_5041" data-name="Tracé 5041" d="M147.314,309.44c-35.327,18.8-54.484,63.5-54.484,105.117h26.548c4.113-66.522,22.455-89.782,63.515-105.117Z" transform="translate(-3.284 -9.354)" fill="#27425f"/>
          <path id="Tracé_5042" data-name="Tracé 5042" d="M275.426,309.44C225.9,324.776,221,372.945,221,414.557h27.674c-1.639-61.866,17.12-86.687,62.38-105.117Z" transform="translate(-7.813 -9.354)" fill="#27425f"/>
          <path id="Tracé_5043" data-name="Tracé 5043" d="M104.918,505c3.967,0,7.178,56.656,7.178,126.554s-3.211,126.612-7.178,126.612S97.74,701.5,97.74,631.612,100.951,505,104.918,505Z" transform="translate(-3.359 -15.296)" fill="#2d4a6a"/>
          <path id="Tracé_5044" data-name="Tracé 5044" d="M158.694,309.44c3.967,0-45.686,28.052-45.453,75.552l-7.915,88.142c-8.352,0-7.159,7.081-7.585-84.068C97.507,341.566,154.726,309.459,158.694,309.44Z" transform="translate(-3.415 -9.359)" fill="#2d4a6a"/>
          <path id="Tracé_5045" data-name="Tracé 5045" d="M287.383,309.44c3.977,0-45.677,28.052-45.453,75.552l-7.915,60.993c-8.352,0-7.585-18.284-7.585-56.919C226.429,341.566,283.416,309.459,287.383,309.44Z" transform="translate(-7.905 -9.357)" fill="#2d4a6a"/>
          <path id="Tracé_5046" data-name="Tracé 5046" d="M227.072,493.512c0,38.159-25.375,69.1-56.676,69.1s-56.676-30.942-56.676-69.1S139.1,464.063,170.4,464.063,227.072,455.343,227.072,493.512Z" transform="translate(-4.069 -14.01)" fill="#3d5b8e"/>
          <path id="Tracé_5047" data-name="Tracé 5047" d="M338.98,371.53c.417.825,69.839,88.918,56.938,246.376L177.43,590.167" transform="translate(-6.789 -11.251)" fill="none" stroke="#f0a38b" stroke-width="40"/>
          <path id="Tracé_5052" data-name="Tracé 5052" d="M421.742,481.142C418.463,351.387,318.07,311.55,318.07,311.55L297.7,405.59c45.2,14.783,54.2,75.552,54.2,75.552Z" transform="translate(-10.71 -9.423)" fill="#fff"/>
          <path id="Tracé_5053" data-name="Tracé 5053" d="M258.091,311.55c-18.43,15.093-73.719,56.54-84.282,43.6s-5.82-28.508,12.61-43.6Z" transform="translate(-5.949 -9.414)" fill="#f0a38b"/>
          <path id="Tracé_5054" data-name="Tracé 5054" d="M151.335,187.259c0,13.231-8.934,23.959-19.962,23.959s-19.962-10.728-19.962-23.959,8.934-23.959,19.962-23.959S151.335,173.979,151.335,187.259Z" transform="translate(-3.861 -4.886)" fill="#f0a38b"/>
          <path id="Tracé_5055" data-name="Tracé 5055" d="M333.144,187.259c0,13.231-8.943,23.959-19.972,23.959s-19.962-10.728-19.962-23.959,8.943-23.959,19.962-23.959S333.144,173.979,333.144,187.259Z" transform="translate(-10.155 -4.886)" fill="#f0a38b"/>
          <path id="Tracé_5056" data-name="Tracé 5056" d="M239.153,320.563,196.59,317.77h0c.1-2.988.058-28.285,0-50.575l42.679-.175C239.424,317.2,239.23,319.554,239.153,320.563Z" transform="translate(-6.817 -8.067)" fill="#f0a38b"/>
          <path id="Tracé_5057" data-name="Tracé 5057" d="M232.7,305.7s-38.188,9.448-36.18-38.508l42.679-.175S241.321,305.7,232.7,305.7Z" transform="translate(-6.812 -8.066)" fill="#e8846c"/>
          <g id="Phone" transform="translate(-6 -14)">
            <path id="Tracé_7209" data-name="Tracé 7209" d="M108.737,517.7,107.1,483l82.862,25.473-36.379,44.664-10.821-41.368Z" opacity="0.55" fill="url(#linear-gradient-4)"/>
            <rect id="Rectangle_723" data-name="Rectangle 723" width="39" height="47" rx="4" transform="matrix(0.978, -0.208, 0.208, 0.978, 106.495, 517.546)" fill="#c8deff"/>
            <rect id="Rectangle_724" data-name="Rectangle 724" width="38" height="46" rx="4" transform="matrix(0.978, -0.208, 0.208, 0.978, 106.473, 518.338)" fill="#5493ff"/>
            <g id="Ellipse_171" data-name="Ellipse 171" transform="translate(123.032 518.514)" fill="#272c35" stroke="#242424" stroke-width="1">
              <circle cx="3.5" cy="3.5" r="3.5" stroke="none"/>
              <circle cx="3.5" cy="3.5" r="3" fill="none"/>
            </g>
            <line id="Ligne_58" data-name="Ligne 58" y1="2" x2="6" transform="translate(125.209 527.26) rotate(7)" fill="none" stroke="#203b68" stroke-linecap="round" stroke-width="1"/>
            <line id="Ligne_59" data-name="Ligne 59" y1="2" x2="6" transform="translate(125.676 529.618) rotate(7)" fill="none" stroke="#203b68" stroke-linecap="round" stroke-width="1"/>
          </g>
          <path id="Tracé_5048" data-name="Tracé 5048" d="M139.28,597.687s40.574-5.15,39.963,20.9-25.045,5.665-25.045,5.665Z" transform="translate(-8.826 -59.061)" fill="#c8deff"/>
          <path id="Tracé_5049" data-name="Tracé 5049" d="M165.45,617.9c-.194-2.318,5.733-10.068,5.733-10.068s-13.745-10.554-31.9-10.137C151.4,602.016,161.57,614.674,165.45,617.9Z" transform="translate(-8.812 -59.072)" fill="#7395cf"/>
          <path id="Tracé_5050" data-name="Tracé 5050" d="M234.439,676.117l-68.879-6.8v-52.1l68.879-9.069Z" transform="translate(-9.799 -59.394)" fill="#c8deff"/>
          <path id="Tracé_5051" data-name="Tracé 5051" d="M163.819,616.839S157.1,595,130.48,595.5s-26.025,60.469-18.3,69.5,25.326,19.225,51.642,3.938S163.819,616.839,163.819,616.839Z" transform="translate(-7.768 -59.013)" fill="#c8deff"/>
          <path id="Tracé_5058" data-name="Tracé 5058" d="M317.033,135.279c0,64.669-44.387,152.094-99.152,152.094S118.71,199.948,118.71,135.279s44.4-82.1,99.22-82.1S317.033,70.611,317.033,135.279Z" transform="translate(-4.517 -1.58)" fill="#f0a38b"/>
          <path id="Tracé_5059" data-name="Tracé 5059" d="M293.5,122.4c8.119,29.1,23.28,42.834,10.893,93.652.175,1.94,16.577-37.829,20.952-93.652Z" transform="translate(-10.136 -3.658)" fill="#1b0900"/>
          <path id="Tracé_5060" data-name="Tracé 5060" d="M136.536,212.426c-.339,3.7-42.99-106.7-4.248-170.649,6.285,19.991,18.74,19.991,18.74,19.991S172.474-13.493,263.545,2.114c-15.7,13.134,0,24.628,0,24.628S287.737-2.852,361.407,41.5c0,0,7.954,55.289-43.785,83.1S227.3,117.92,206.345,104.758c0,0-48.286-2.842-67.763,42.437C132.083,162.307,136.264,185.781,136.536,212.426Z" transform="translate(-5.257 0.016)" fill="#1b0900"/>
          <path id="Tracé_5061" data-name="Tracé 5061" d="M193,249.08c0,11.64,12.115,21.146,27.072,21.146s27.053-9.467,27.053-21.146Z" transform="translate(-6.721 -7.522)" fill="#fff"/>
          <path id="Tracé_5062" data-name="Tracé 5062" d="M230.181,178.09,216.63,235.057l30.807,1.979-23.7-2.949Z" transform="translate(-21.695 -5.329)" fill="#272b33"/>
          <path id="Tracé_5063" data-name="Tracé 5063" d="M.014,4.53C.364,2.881,9.714,0,9.714,0L51.753,14.346S-.994,9.438.014,4.53Z" transform="translate(223.594 151.367) rotate(-9)" fill="#1b0900"/>
          <path id="Tracé_5064" data-name="Tracé 5064" d="M51.758,4.53c-.349-1.649-9.7-4.53-9.7-4.53L0,14.346S52.777,9.438,51.758,4.53Z" transform="translate(149.656 142.423) rotate(11)" fill="#1b0900"/>
          <path id="Tracé_5065" data-name="Tracé 5065" d="M10.466,15.132c0,8.352-2.347,15.122-5.238,15.122S0,23.464,0,15.132,2.338,0,5.228,0,10.466,6.771,10.466,15.132Z" transform="translate(229.803 175.995) rotate(-18)" fill="#1b0900"/>
          <path id="Tracé_5066" data-name="Tracé 5066" d="M10.457,15.132c0,8.352-2.338,15.122-5.228,15.122S0,23.464,0,15.132,2.338,0,5.228,0,10.457,6.771,10.457,15.132Z" transform="translate(175.355 177.4) rotate(-17)" fill="#1b0900"/>
        </g>
      </g>
    </g>
  </g>
</svg>
