<svg xmlns="http://www.w3.org/2000/svg" xmlns:xlink="http://www.w3.org/1999/xlink" width="1920" height="1338" viewBox="0 0 1920 1338">
  <defs>
    <linearGradient id="linear-gradient" x1="0.64" y1="0.357" x2="0.584" y2="1.198" gradientUnits="objectBoundingBox">
      <stop offset="0" stop-color="#546bff"/>
      <stop offset="1" stop-color="#7db1ff"/>
    </linearGradient>
    <clipPath id="clip-path">
      <rect id="BG" width="1920" height="1338" transform="translate(0 913)" fill="#f7faff"/>
    </clipPath>
    <clipPath id="clip-path-2">
      <path id="Polygone_54" data-name="Polygone 54" d="M1055.573,0a50,50,0,0,1,43.263,24.934L1431.33,598.81a50,50,0,0,1,0,50.132l-332.494,573.876a50,50,0,0,1-43.263,24.934H390.28a50,50,0,0,1-43.263-24.934L14.523,648.941a50,50,0,0,1,0-50.132L347.017,24.934A50,50,0,0,1,390.28,0Z" transform="matrix(-0.407, -0.914, 0.914, -0.407, -179.877, 2477.921)" fill="url(#linear-gradient)"/>
    </clipPath>
    <linearGradient id="linear-gradient-3" x1="0.137" y1="0.045" x2="0.841" y2="1.032" gradientUnits="objectBoundingBox">
      <stop offset="0" stop-color="#ffda1c"/>
      <stop offset="1" stop-color="#feb705"/>
    </linearGradient>
    <linearGradient id="linear-gradient-4" x1="1.026" y1="0.5" x2="0.247" y2="0.5" xlink:href="#linear-gradient-3"/>
    <linearGradient id="linear-gradient-5" x1="0.665" y1="1.13" x2="0.527" y2="0.415" xlink:href="#linear-gradient-3"/>
    <linearGradient id="linear-gradient-6" x1="0.828" y1="0.339" x2="0.566" y2="0.461" xlink:href="#linear-gradient-3"/>
    <linearGradient id="linear-gradient-7" x1="1.665" y1="1.13" x2="1.527" y2="0.415" xlink:href="#linear-gradient-3"/>
    <linearGradient id="linear-gradient-8" x1="0.898" y1="0.689" x2="0.567" y2="0.528" xlink:href="#linear-gradient-3"/>
    <radialGradient id="radial-gradient" cx="0.497" cy="-0.46" r="1.184" gradientUnits="objectBoundingBox">
      <stop offset="0.655" stop-color="#871233"/>
      <stop offset="0.718" stop-color="#8e1336"/>
      <stop offset="0.812" stop-color="#a3163e"/>
      <stop offset="0.9" stop-color="#bc1948"/>
    </radialGradient>
    <linearGradient id="linear-gradient-33" x1="0.246" y1="0.058" x2="0.752" y2="0.938" xlink:href="#linear-gradient-3"/>
  </defs>
  <g id="Mid_BG_femme_de_ménage" data-name="Mid BG+femme de ménage" transform="translate(0 -1003)">
    <g id="Mid_BG" data-name="Mid BG" transform="translate(0 90)" clip-path="url(#clip-path)">
      <g id="BG-2" data-name="BG">
        <path id="Polygone_53" data-name="Polygone 53" d="M1055.573,0a50,50,0,0,1,43.263,24.934L1431.33,598.81a50,50,0,0,1,0,50.132l-332.494,573.876a50,50,0,0,1-43.263,24.934H390.28a50,50,0,0,1-43.263-24.934L14.523,648.941a50,50,0,0,1,0-50.132L347.017,24.934A50,50,0,0,1,390.28,0Z" transform="matrix(-0.407, -0.914, 0.914, -0.407, -179.877, 2477.921)" fill="url(#linear-gradient)"/>
        <g id="Houses" opacity="0.4" clip-path="url(#clip-path-2)">
          <g id="Houses_Motif" data-name="Houses Motif" transform="translate(69.208 2141.912) rotate(-74)">
            <g id="House_Motif" data-name="House Motif" transform="translate(-33.473 -61.564)">
              <g id="Groupe_2" data-name="Groupe 2" transform="translate(0 0)">
                <path id="icons8_dog_house" d="M20.5,0,0,18.547H5.589v16.86H35.405V18.547h5.589Zm3.727,31.66H16.77V26.04a3.727,3.727,0,1,1,7.454,0Zm7.454,0H27.951V26.04a7.454,7.454,0,1,0-14.908,0v5.62H9.316v-16.5L20.5,5.041,31.678,15.158Z" transform="translate(9.442 14.021) rotate(-20)" fill="#5d7aff"/>
                <path id="icons8_school_house" d="M19.588,0,7.326,6.193l1.58,3.328,1.681-.85V16.6L4.9,20.131a1.789,1.789,0,0,0-1.13.7L0,23.169l1.853,3.176L3.4,25.387v10.02H17.777V29.851h3.595v5.556H35.75V25.173l1.559.948,1.825-3.19L28.561,16.5V8.87l1.653.868,1.636-3.3ZM19.56,4.138l5.406,2.84V14.31l-5.4-3.285-5.381,3.339V6.855Zm.025,11.2,5.381,3.274v.127h.207l6.982,4.247V31.7H24.966V26.146H14.182V31.7H6.993V23.155l7.116-4.417h.074v-.047Z" transform="matrix(0.719, -0.695, 0.695, 0.719, 0, 158.562)" fill="#5d7aff"/>
                <path id="icons8_home_page" d="M20.5,0,0,18.547H5.591v16.86H16.772V24.167h7.454v11.24H35.407V18.547H41L33.543,11.8V3.56H29.816V8.43Zm0,5.042L31.68,15.159v16.5H27.953V20.42H13.045V31.66H9.318v-16.5Z" transform="matrix(0.999, 0.035, -0.035, 0.999, 221.785, 111.343)" fill="#5d7aff"/>
                <path id="icons8_school_house-2" data-name="icons8_school_house" d="M19.588,0,7.326,6.193l1.58,3.328,1.681-.85V16.6L4.9,20.131a1.789,1.789,0,0,0-1.13.7L0,23.169l1.853,3.176L3.4,25.387v10.02H17.777V29.851h3.595v5.556H35.75V25.173l1.559.948,1.825-3.19L28.561,16.5V8.87l1.653.868,1.636-3.3ZM19.56,4.138l5.406,2.84V14.31l-5.4-3.285-5.381,3.339V6.855Zm.025,11.2,5.381,3.274v.127h.207l6.982,4.247V31.7H24.966V26.146H14.182V31.7H6.993V23.155l7.116-4.417h.074v-.047Z" transform="translate(411.34 30.261) rotate(-9)" fill="#5d7aff"/>
                <path id="icons8_hut_1" d="M19.567,0a5.169,5.169,0,0,0-2.641.826,22.318,22.318,0,0,0-2.69,1.76,60.908,60.908,0,0,0-6.1,5.321,57.217,57.217,0,0,0-5.457,6.116C1.2,15.987,0,17.5,0,19.671a1.962,1.962,0,0,0,1.957,1.967H5.87v11.8a1.962,1.962,0,0,0,1.957,1.967H31.307a1.962,1.962,0,0,0,1.957-1.967v-11.8h3.913a1.962,1.962,0,0,0,1.957-1.967c0-2.174-1.2-3.684-2.675-5.648A57.26,57.26,0,0,0,31,7.907a60.929,60.929,0,0,0-6.1-5.321A22.259,22.259,0,0,0,22.208.83,5.171,5.171,0,0,0,19.567,0Zm0,3.965a4.766,4.766,0,0,1,.8.334,19.065,19.065,0,0,1,2.205,1.448,57.7,57.7,0,0,1,5.69,4.968,54.069,54.069,0,0,1,5.075,5.678,5.856,5.856,0,0,1,.753,1.31H5.045a5.849,5.849,0,0,1,.753-1.31,54.081,54.081,0,0,1,5.075-5.678,57.676,57.676,0,0,1,5.69-4.968A19.045,19.045,0,0,1,18.768,4.3,4.778,4.778,0,0,1,19.567,3.965ZM9.784,21.638H29.351v9.835H23.48V27.539a3.913,3.913,0,1,0-7.827,0v3.934H9.784Z" transform="translate(138.764 52.814) rotate(-41)" fill="#5d7aff"/>
                <path id="icons8_residence" d="M10.359,0A3.74,3.74,0,0,0,7.086,1.94L0,14.908H3.662V29.816a3.755,3.755,0,0,0,3.727,3.727H33.478A3.755,3.755,0,0,0,37.2,29.816V14.908H41L33.776,1.914h0A3.736,3.736,0,0,0,30.519,0Zm0,3.727h20.16v0l4.149,7.45h-6.34L20.433,7.236l-7.895,3.945H6.282ZM20.433,11.4l5.591,2.8V29.816H22.3V24.226a1.864,1.864,0,1,0-3.727,0v5.591H14.843V14.195ZM7.389,14.908h3.727V29.816H7.389Zm13.045,0A1.864,1.864,0,1,0,22.3,16.772,1.864,1.864,0,0,0,20.433,14.908Zm9.318,0h3.727V29.816H29.751Z" transform="translate(339.247 176.811) rotate(13)" fill="#5d7aff"/>
                <path id="icons8_roofing" d="M29.816,0V6.853L22.362.033,0,20.5H5.521L22.362,5.085,39.2,20.5h5.521L41,17.088V0Zm3.727,3.727H37.27v9.951l-3.727-3.414Z" transform="translate(237.598 226.801) rotate(7)" fill="#5d7aff"/>
                <path id="icons8_warehouse" d="M16.772,0,2.213,6.471A3.737,3.737,0,0,0,0,9.874V33.718H9a1.864,1.864,0,0,0,.608,0h14.3a1.864,1.864,0,0,0,.608,0h9.023V9.874a3.737,3.737,0,0,0-2.213-3.4l0,0Zm0,4.076,13.045,5.8V29.991H26.089V13.219H7.454V29.991H3.727V9.874Zm-5.591,12.87H22.362V29.991H18.635V28.128H14.908v1.864H11.181Z" transform="matrix(0.839, -0.545, 0.545, 0.839, 52.664, 230.126)" fill="#5d7aff"/>
                <path id="icons8_dog_house-2" data-name="icons8_dog_house" d="M20.5,0,0,18.547H5.589v16.86H35.405V18.547h5.589Zm3.727,31.66H16.77V26.04a3.727,3.727,0,1,1,7.454,0Zm7.454,0H27.951V26.04a7.454,7.454,0,1,0-14.908,0v5.62H9.316v-16.5L20.5,5.041,31.678,15.158Z" transform="matrix(0.914, -0.407, 0.407, 0.914, 579.07, 65.153)" fill="#5d7aff"/>
                <path id="icons8_dog_house-3" data-name="icons8_dog_house" d="M25.636,0,51.272,23.5h-6.99V44.86H6.99V23.5H0ZM20.975,40.113H30.3V32.992a4.662,4.662,0,1,0-9.323,0Zm-9.323,0h4.662V32.992a9.325,9.325,0,1,1,18.646,0v7.121h4.662V19.2L25.636,6.387,11.652,19.2Z" transform="translate(460.415 220.865) rotate(-20)" fill="#5d7aff"/>
                <path id="icons8_hut_1-2" data-name="icons8_hut_1" d="M19.567,0a5.169,5.169,0,0,0-2.641.826,22.318,22.318,0,0,0-2.69,1.76,60.908,60.908,0,0,0-6.1,5.321,57.217,57.217,0,0,0-5.457,6.116C1.2,15.987,0,17.5,0,19.671a1.962,1.962,0,0,0,1.957,1.967H5.87v11.8a1.962,1.962,0,0,0,1.957,1.967H31.307a1.962,1.962,0,0,0,1.957-1.967v-11.8h3.913a1.962,1.962,0,0,0,1.957-1.967c0-2.174-1.2-3.684-2.675-5.648A57.26,57.26,0,0,0,31,7.907a60.929,60.929,0,0,0-6.1-5.321A22.259,22.259,0,0,0,22.208.83,5.171,5.171,0,0,0,19.567,0Zm0,3.965a4.766,4.766,0,0,1,.8.334,19.065,19.065,0,0,1,2.205,1.448,57.7,57.7,0,0,1,5.69,4.968,54.069,54.069,0,0,1,5.075,5.678,5.856,5.856,0,0,1,.753,1.31H5.045a5.849,5.849,0,0,1,.753-1.31,54.081,54.081,0,0,1,5.075-5.678,57.676,57.676,0,0,1,5.69-4.968A19.045,19.045,0,0,1,18.768,4.3,4.778,4.778,0,0,1,19.567,3.965ZM9.784,21.638H29.351v9.835H23.48V27.539a3.913,3.913,0,1,0-7.827,0v3.934H9.784Z" transform="translate(722.589 118.284) rotate(21)" fill="#5d7aff"/>
              </g>
              <g id="Groupe_3" data-name="Groupe 3" transform="translate(65.332 235.829) rotate(8)">
                <g id="House_Icons" data-name="House Icons" transform="translate(519.097 0)">
                  <path id="icons8_home_page-2" data-name="icons8_home_page" d="M20.5,35.407,0,16.86H5.591V0H16.772V11.24h7.454V0H35.407V16.86H41L33.543,23.6v8.243H29.816v-4.87Zm0-5.042L31.68,20.248V3.747H27.953v11.24H13.045V3.747H9.318v16.5Z" transform="translate(108.239 35.346) rotate(172)" fill="#5d7aff"/>
                  <path id="icons8_hut_1-3" data-name="icons8_hut_1" d="M19.567,35.407a5.169,5.169,0,0,1-2.641-.826,22.318,22.318,0,0,1-2.69-1.76,60.908,60.908,0,0,1-6.1-5.321,57.217,57.217,0,0,1-5.457-6.116C1.2,19.42,0,17.91,0,15.736a1.962,1.962,0,0,1,1.957-1.967H5.87V1.967A1.962,1.962,0,0,1,7.827,0H31.307a1.962,1.962,0,0,1,1.957,1.967v11.8h3.913a1.962,1.962,0,0,1,1.957,1.967c0,2.174-1.2,3.684-2.675,5.648A57.259,57.259,0,0,1,31,27.5a60.93,60.93,0,0,1-6.1,5.321,22.26,22.26,0,0,1-2.69,1.756A5.171,5.171,0,0,1,19.567,35.407Zm0-3.965a4.767,4.767,0,0,0,.8-.334,19.065,19.065,0,0,0,2.205-1.448,57.7,57.7,0,0,0,5.69-4.968,54.069,54.069,0,0,0,5.075-5.678,5.856,5.856,0,0,0,.753-1.31H5.045a5.849,5.849,0,0,0,.753,1.31,54.082,54.082,0,0,0,5.075,5.678,57.676,57.676,0,0,0,5.69,4.968,19.045,19.045,0,0,0,2.205,1.448A4.778,4.778,0,0,0,19.567,31.442ZM9.784,13.769H29.351V3.934H23.48V7.868a3.913,3.913,0,1,1-7.827,0V3.934H9.784Z" transform="translate(38.131 126.177) rotate(-167)" fill="#5d7aff"/>
                </g>
                <path id="icons8_home_page-3" data-name="icons8_home_page" d="M20.5,35.407,0,16.86H5.591V0H16.772V11.24h7.454V0H35.407V16.86H41L33.543,23.6v8.243H29.816v-4.87Zm0-5.042L31.68,20.248V3.747H27.953v11.24H13.045V3.747H9.318v16.5Z" transform="translate(446.736 134.548) rotate(178)" fill="#5d7aff"/>
                <path id="icons8_hut_1-4" data-name="icons8_hut_1" d="M19.567,35.407a5.169,5.169,0,0,1-2.641-.826,22.318,22.318,0,0,1-2.69-1.76,60.909,60.909,0,0,1-6.1-5.321,57.217,57.217,0,0,1-5.457-6.116C1.2,19.42,0,17.91,0,15.736a1.962,1.962,0,0,1,1.957-1.967H5.87V1.967A1.962,1.962,0,0,1,7.827,0H31.307a1.962,1.962,0,0,1,1.957,1.967v11.8h3.913a1.962,1.962,0,0,1,1.957,1.967c0,2.174-1.2,3.684-2.675,5.648A57.26,57.26,0,0,1,31,27.5a60.93,60.93,0,0,1-6.1,5.321,22.26,22.26,0,0,1-2.69,1.756A5.171,5.171,0,0,1,19.567,35.407Zm0-3.965a4.767,4.767,0,0,0,.8-.334,19.065,19.065,0,0,0,2.205-1.448,57.7,57.7,0,0,0,5.69-4.968,54.069,54.069,0,0,0,5.075-5.678,5.856,5.856,0,0,0,.753-1.31H5.045a5.849,5.849,0,0,0,.753,1.31,54.081,54.081,0,0,0,5.075,5.678,57.677,57.677,0,0,0,5.69,4.968,19.046,19.046,0,0,0,2.205,1.448A4.779,4.779,0,0,0,19.567,31.442ZM9.784,13.769H29.351V3.934H23.48V7.868a3.913,3.913,0,1,1-7.827,0V3.934H9.784Z" transform="matrix(-0.995, 0.105, -0.105, -0.995, 352.469, 75.362)" fill="#5d7aff"/>
                <path id="icons8_residence-2" data-name="icons8_residence" d="M10.359,33.543A3.74,3.74,0,0,1,7.086,31.6L0,18.635H3.662V3.727A3.755,3.755,0,0,1,7.389,0H33.478A3.755,3.755,0,0,1,37.2,3.727V18.635H41L33.776,31.629h0a3.736,3.736,0,0,1-3.254,1.914Zm0-3.727h20.16v0l4.149-7.45h-6.34l-7.894,3.945-7.895-3.945H6.282Zm10.075-7.672,5.591-2.8V3.727H22.3V9.318a1.864,1.864,0,1,1-3.727,0V3.727H14.843V19.349ZM7.389,18.635h3.727V3.727H7.389Zm13.045,0A1.864,1.864,0,1,1,22.3,16.772,1.864,1.864,0,0,1,20.433,18.635Zm9.318,0h3.727V3.727H29.751Z" transform="translate(238.68 122.772) rotate(167)" fill="#5d7aff"/>
                <path id="icons8_roofing-2" data-name="icons8_roofing" d="M29.816,20.5V13.645l-7.454,6.821L0,0H5.521L22.362,15.414,39.2,0h5.521L41,3.41V20.5Zm3.727-3.727H37.27V6.821l-3.727,3.414Z" transform="translate(281.454 183.018) rotate(-177)" fill="#5d7aff"/>
                <path id="icons8_warehouse-2" data-name="icons8_warehouse" d="M16.772,33.743,2.213,27.272A3.737,3.737,0,0,1,0,23.869V.025H9a1.864,1.864,0,0,1,.608,0h14.3a1.864,1.864,0,0,1,.608,0h9.023V23.869a3.737,3.737,0,0,1-2.213,3.4l0,0Zm0-4.076,13.045-5.8V3.752H26.089V20.524H7.454V3.752H3.727V23.869ZM11.181,16.8H22.362V3.752H18.635V5.616H14.908V3.752H11.181Z" transform="matrix(-0.839, -0.545, 0.545, -0.839, 135.359, 294.215)" fill="#5d7aff"/>
                <path id="icons8_dog_house-4" data-name="icons8_dog_house" d="M20.5,35.407,0,16.86H5.589V0H35.405V16.86h5.589Zm3.727-31.66H16.77v5.62a3.727,3.727,0,1,0,7.454,0Zm7.454,0H27.951v5.62a7.454,7.454,0,1,1-14.908,0V3.747H9.316v16.5L20.5,30.366,31.678,20.249Z" transform="matrix(-0.914, -0.407, 0.407, -0.914, 111.084, 85.318)" fill="#5d7aff"/>
                <path id="icons8_home_page-4" data-name="icons8_home_page" d="M20.5,35.407,0,16.86H5.591V0H16.772V11.24h7.454V0H35.407V16.86H41L33.543,23.6v8.243H29.816v-4.87Zm0-5.042L31.68,20.248V3.747H27.953v11.24H13.045V3.747H9.318v16.5Z" transform="translate(45.526 190.832) rotate(172)" fill="#5d7aff"/>
              </g>
            </g>
            <g id="House_Motif-2" data-name="House Motif" transform="translate(605.194 -3011.815)">
              <g id="Groupe_2-2" data-name="Groupe 2" transform="translate(-426.486 2704.786)">
                <path id="icons8_dog_house-5" data-name="icons8_dog_house" d="M20.5,35.407,0,16.86H5.589V0H35.405V16.86h5.589Zm3.727-31.66H16.77v5.62a3.727,3.727,0,1,0,7.454,0Zm7.454,0H27.951v5.62a7.454,7.454,0,1,1-14.908,0V3.747H9.316v16.5L20.5,30.366,31.678,20.249Z" transform="translate(21.551 211.133) rotate(20)" fill="#5d7aff"/>
                <path id="icons8_school_house-3" data-name="icons8_school_house" d="M19.588,35.407,7.326,29.214l1.58-3.328,1.681.85V18.81L4.9,15.276a1.789,1.789,0,0,1-1.13-.7L0,12.238,1.853,9.062,3.4,10.02V0H17.777V5.556h3.595V0H35.75V10.234l1.559-.948,1.825,3.19L28.561,18.908v7.629l1.653-.868,1.636,3.3Zm-.028-4.138,5.406-2.84V21.1l-5.4,3.285-5.381-3.339v7.51Zm.025-11.2L24.966,16.8v-.127h.207l6.982-4.247V3.7H24.966V9.261H14.182V3.7H6.993v8.548l7.116,4.417h.074v.047Z" transform="matrix(0.719, 0.695, -0.695, 0.719, 24.596, 74.394)" fill="#5d7aff"/>
                <path id="icons8_home_page-5" data-name="icons8_home_page" d="M20.5,35.407,0,16.86H5.591V0H16.772V11.24h7.454V0H35.407V16.86H41L33.543,23.6v8.243H29.816v-4.87Zm0-5.042L31.68,20.248V3.747H27.953v11.24H13.045V3.747H9.318v16.5Z" transform="matrix(0.999, -0.035, 0.035, 0.999, 220.549, 111.697)" fill="#5d7aff"/>
                <path id="icons8_school_house-4" data-name="icons8_school_house" d="M19.588,35.407,7.326,29.214l1.58-3.328,1.681.85V18.81L4.9,15.276a1.789,1.789,0,0,1-1.13-.7L0,12.238,1.853,9.062,3.4,10.02V0H17.777V5.556h3.595V0H35.75V10.234l1.559-.948,1.825,3.19L28.561,18.908v7.629l1.653-.868,1.636,3.3Zm-.028-4.138,5.406-2.84V21.1l-5.4,3.285-5.381-3.339v7.51Zm.025-11.2L24.966,16.8v-.127h.207l6.982-4.247V3.7H24.966V9.261H14.182V3.7H6.993v8.548l7.116,4.417h.074v.047Z" transform="translate(416.879 193.193) rotate(9)" fill="#5d7aff"/>
                <path id="icons8_hut_1-5" data-name="icons8_hut_1" d="M19.567,35.407a5.169,5.169,0,0,1-2.641-.826,22.318,22.318,0,0,1-2.69-1.76,60.908,60.908,0,0,1-6.1-5.321,57.217,57.217,0,0,1-5.457-6.116C1.2,19.42,0,17.91,0,15.736a1.962,1.962,0,0,1,1.957-1.967H5.87V1.967A1.962,1.962,0,0,1,7.827,0H31.307a1.962,1.962,0,0,1,1.957,1.967v11.8h3.913a1.962,1.962,0,0,1,1.957,1.967c0,2.174-1.2,3.684-2.675,5.648A57.26,57.26,0,0,1,31,27.5a60.929,60.929,0,0,1-6.1,5.321,22.259,22.259,0,0,1-2.69,1.756A5.171,5.171,0,0,1,19.567,35.407Zm0-3.965a4.766,4.766,0,0,0,.8-.334,19.065,19.065,0,0,0,2.205-1.448,57.7,57.7,0,0,0,5.69-4.968,54.069,54.069,0,0,0,5.075-5.678,5.856,5.856,0,0,0,.753-1.31H5.045a5.849,5.849,0,0,0,.753,1.31,54.081,54.081,0,0,0,5.075,5.678,57.676,57.676,0,0,0,5.69,4.968,19.045,19.045,0,0,0,2.205,1.448A4.778,4.778,0,0,0,19.567,31.442ZM9.784,13.769H29.351V3.934H23.48V7.868a3.913,3.913,0,1,1-7.827,0V3.934H9.784Z" transform="translate(161.993 178.889) rotate(41)" fill="#5d7aff"/>
                <path id="icons8_residence-3" data-name="icons8_residence" d="M10.359,33.543A3.74,3.74,0,0,1,7.086,31.6L0,18.635H3.662V3.727A3.755,3.755,0,0,1,7.389,0H33.478A3.755,3.755,0,0,1,37.2,3.727V18.635H41L33.776,31.629h0a3.736,3.736,0,0,1-3.254,1.914Zm0-3.727h20.16v0l4.149-7.45h-6.34l-7.894,3.945-7.895-3.945H6.282Zm10.075-7.672,5.591-2.8V3.727H22.3V9.318a1.864,1.864,0,1,1-3.727,0V3.727H14.843V19.349ZM7.389,18.635h3.727V3.727H7.389Zm13.045,0A1.864,1.864,0,1,1,22.3,16.772,1.864,1.864,0,0,1,20.433,18.635Zm9.318,0h3.727V3.727H29.751Z" transform="translate(331.701 48.931) rotate(-13)" fill="#5d7aff"/>
                <path id="icons8_roofing-3" data-name="icons8_roofing" d="M29.816,20.5V13.645l-7.454,6.821L0,0H5.521L22.362,15.414,39.2,0h5.521L41,3.41V20.5Zm3.727-3.727H37.27V6.821l-3.727,3.414Z" transform="translate(235.099 11.278) rotate(-7)" fill="#5d7aff"/>
                <path id="icons8_warehouse-3" data-name="icons8_warehouse" d="M16.772,33.743,2.213,27.272A3.737,3.737,0,0,1,0,23.869V.025H9a1.864,1.864,0,0,1,.608,0h14.3a1.864,1.864,0,0,1,.608,0h9.023V23.869a3.737,3.737,0,0,1-2.213,3.4l0,0Zm0-4.076,13.045-5.8V3.752H26.089V20.524H7.454V3.752H3.727V23.869ZM11.181,16.8H22.362V3.752H18.635V5.616H14.908V3.752H11.181Z" transform="matrix(0.839, 0.545, -0.545, 0.839, 71.042, 0)" fill="#5d7aff"/>
                <path id="icons8_dog_house-6" data-name="icons8_dog_house" d="M20.5,35.407,0,16.86H5.589V0H35.405V16.86h5.589Zm3.727-31.66H16.77v5.62a3.727,3.727,0,1,0,7.454,0Zm7.454,0H27.951v5.62a7.454,7.454,0,1,1-14.908,0V3.747H9.316v16.5L20.5,30.366,31.678,20.249Z" transform="matrix(0.914, 0.407, -0.407, 0.914, 593.472, 160.926)" fill="#5d7aff"/>
                <path id="icons8_hut_1-6" data-name="icons8_hut_1" d="M19.567,35.407a5.169,5.169,0,0,1-2.641-.826,22.319,22.319,0,0,1-2.69-1.76,60.909,60.909,0,0,1-6.1-5.321,57.217,57.217,0,0,1-5.457-6.116C1.2,19.42,0,17.91,0,15.736a1.962,1.962,0,0,1,1.957-1.967H5.87V1.967A1.962,1.962,0,0,1,7.827,0H31.307a1.962,1.962,0,0,1,1.957,1.967v11.8h3.913a1.962,1.962,0,0,1,1.957,1.967c0,2.174-1.2,3.684-2.675,5.648A57.26,57.26,0,0,1,31,27.5a60.93,60.93,0,0,1-6.1,5.321,22.259,22.259,0,0,1-2.69,1.756A5.171,5.171,0,0,1,19.567,35.407Zm0-3.965a4.766,4.766,0,0,0,.8-.334,19.065,19.065,0,0,0,2.205-1.448,57.7,57.7,0,0,0,5.69-4.968,54.069,54.069,0,0,0,5.075-5.678,5.856,5.856,0,0,0,.753-1.31H5.045a5.849,5.849,0,0,0,.753,1.31,54.081,54.081,0,0,0,5.075,5.678,57.676,57.676,0,0,0,5.69,4.968,19.045,19.045,0,0,0,2.205,1.448A4.778,4.778,0,0,0,19.567,31.442ZM9.784,13.769H29.351V3.934H23.48V7.868a3.913,3.913,0,1,1-7.827,0V3.934H9.784Z" transform="translate(709.901 107.086) rotate(-21)" fill="#5d7aff"/>
              </g>
              <g id="Groupe_3-2" data-name="Groupe 3" transform="translate(-402.102 2436.031) rotate(-8)">
                <g id="House_Icons-2" data-name="House Icons" transform="translate(519.097 168.038)">
                  <path id="icons8_home_page-6" data-name="icons8_home_page" d="M20.5,0,0,18.547H5.591v16.86H16.772V24.167h7.454v11.24H35.407V18.547H41L33.543,11.8V3.56H29.816V8.43Zm0,5.042L31.68,15.159v16.5H27.953V20.42H13.045V31.66H9.318v-16.5Z" transform="translate(103.311 125.894) rotate(-172)" fill="#5d7aff"/>
                  <path id="icons8_hut_1-7" data-name="icons8_hut_1" d="M19.567,0a5.169,5.169,0,0,0-2.641.826,22.318,22.318,0,0,0-2.69,1.76,60.908,60.908,0,0,0-6.1,5.321,57.217,57.217,0,0,0-5.457,6.116C1.2,15.987,0,17.5,0,19.671a1.962,1.962,0,0,0,1.957,1.967H5.87v11.8a1.962,1.962,0,0,0,1.957,1.967H31.307a1.962,1.962,0,0,0,1.957-1.967v-11.8h3.913a1.962,1.962,0,0,0,1.957-1.967c0-2.174-1.2-3.684-2.675-5.648A57.259,57.259,0,0,0,31,7.907a60.929,60.929,0,0,0-6.1-5.321A22.26,22.26,0,0,0,22.208.83,5.171,5.171,0,0,0,19.567,0Zm0,3.965a4.767,4.767,0,0,1,.8.334,19.065,19.065,0,0,1,2.205,1.448,57.7,57.7,0,0,1,5.69,4.968,54.069,54.069,0,0,1,5.075,5.678,5.856,5.856,0,0,1,.753,1.31H5.045a5.849,5.849,0,0,1,.753-1.31,54.081,54.081,0,0,1,5.075-5.678,57.676,57.676,0,0,1,5.69-4.968A19.045,19.045,0,0,1,18.768,4.3,4.778,4.778,0,0,1,19.567,3.965ZM9.784,21.638H29.351v9.835H23.48V27.539a3.913,3.913,0,1,0-7.827,0v3.934H9.784Z" transform="translate(46.096 34.499) rotate(167)" fill="#5d7aff"/>
                </g>
                <path id="icons8_home_page-7" data-name="icons8_home_page" d="M20.5,0,0,18.547H5.591v16.86H16.772V24.167h7.454v11.24H35.407V18.547H41L33.543,11.8V3.56H29.816V8.43Zm0,5.042L31.68,15.159v16.5H27.953V20.42H13.045V31.66H9.318v-16.5Z" transform="matrix(-0.999, -0.035, 0.035, -0.999, 445.5, 195.053)" fill="#5d7aff"/>
                <path id="icons8_hut_1-8" data-name="icons8_hut_1" d="M19.567,0a5.169,5.169,0,0,0-2.641.826,22.318,22.318,0,0,0-2.69,1.76,60.909,60.909,0,0,0-6.1,5.321,57.217,57.217,0,0,0-5.457,6.116C1.2,15.987,0,17.5,0,19.671a1.962,1.962,0,0,0,1.957,1.967H5.87v11.8a1.962,1.962,0,0,0,1.957,1.967H31.307a1.962,1.962,0,0,0,1.957-1.967v-11.8h3.913a1.962,1.962,0,0,0,1.957-1.967c0-2.174-1.2-3.684-2.675-5.648A57.26,57.26,0,0,0,31,7.907a60.93,60.93,0,0,0-6.1-5.321A22.26,22.26,0,0,0,22.208.83,5.171,5.171,0,0,0,19.567,0Zm0,3.965a4.767,4.767,0,0,1,.8.334,19.065,19.065,0,0,1,2.205,1.448,57.7,57.7,0,0,1,5.69,4.968,54.069,54.069,0,0,1,5.075,5.678,5.856,5.856,0,0,1,.753,1.31H5.045a5.849,5.849,0,0,1,.753-1.31,54.081,54.081,0,0,1,5.075-5.678,57.677,57.677,0,0,1,5.69-4.968A19.046,19.046,0,0,1,18.768,4.3,4.779,4.779,0,0,1,19.567,3.965ZM9.784,21.638H29.351v9.835H23.48V27.539a3.913,3.913,0,1,0-7.827,0v3.934H9.784Z" transform="matrix(-0.995, -0.105, 0.105, -0.995, 348.768, 254.066)" fill="#5d7aff"/>
                <path id="icons8_residence-4" data-name="icons8_residence" d="M10.359,0A3.74,3.74,0,0,0,7.086,1.94L0,14.908H3.662V29.816a3.755,3.755,0,0,0,3.727,3.727H33.478A3.755,3.755,0,0,0,37.2,29.816V14.908H41L33.776,1.914h0A3.736,3.736,0,0,0,30.519,0Zm0,3.727h20.16v0l4.149,7.45h-6.34L20.433,7.236l-7.895,3.945H6.282ZM20.433,11.4l5.591,2.8V29.816H22.3V24.226a1.864,1.864,0,1,0-3.727,0v5.591H14.843V14.195ZM7.389,14.908h3.727V29.816H7.389Zm13.045,0A1.864,1.864,0,1,0,22.3,16.772,1.864,1.864,0,0,0,20.433,14.908Zm9.318,0h3.727V29.816H29.751Z" transform="translate(231.135 204.127) rotate(-167)" fill="#5d7aff"/>
                <path id="icons8_roofing-4" data-name="icons8_roofing" d="M29.816,0V6.854L22.362.033,0,20.5H5.521L22.362,5.085,39.2,20.5h5.521L41,17.088V0Zm3.727,3.727H37.27v9.951l-3.727-3.414Z" transform="translate(282.527 131.668) rotate(177)" fill="#5d7aff"/>
                <path id="icons8_warehouse-4" data-name="icons8_warehouse" d="M16.772,0,2.213,6.471A3.737,3.737,0,0,0,0,9.875V33.718H9a1.864,1.864,0,0,0,.608,0h14.3a1.864,1.864,0,0,0,.608,0h9.023V9.874a3.737,3.737,0,0,0-2.213-3.4l0,0Zm0,4.076,13.045,5.8V29.991H26.089V13.219H7.454V29.991H3.727V9.875Zm-5.591,12.87H22.362V29.991H18.635V28.128H14.908v1.864H11.181Z" transform="matrix(-0.839, 0.545, -0.545, -0.839, 153.736, 28.299)" fill="#5d7aff"/>
                <path id="icons8_dog_house-7" data-name="icons8_dog_house" d="M20.5,0,0,18.547H5.589v16.86H35.405V18.547h5.589Zm3.727,31.66H16.77V26.04a3.727,3.727,0,1,1,7.454,0Zm7.454,0H27.951V26.04a7.454,7.454,0,1,0-14.908,0v5.62H9.316v-16.5L20.5,5.041,31.678,15.158Z" transform="matrix(-0.914, 0.407, -0.407, -0.914, 125.485, 241.243)" fill="#5d7aff"/>
                <path id="icons8_home_page-8" data-name="icons8_home_page" d="M20.5,0,0,18.547H5.591v16.86H16.772V24.167h7.454v11.24H35.407V18.547H41L33.543,11.8V3.56H29.816V8.43Zm0,5.042L31.68,15.159v16.5H27.953V20.42H13.045V31.66H9.318v-16.5Z" transform="translate(40.599 138.445) rotate(-172)" fill="#5d7aff"/>
              </g>
            </g>
            <g id="House_Motif-3" data-name="House Motif" transform="matrix(-0.995, -0.105, 0.105, -0.995, 1323.905, 749.56)">
              <g id="Groupe_2-3" data-name="Groupe 2" transform="translate(47.197 359.64)">
                <path id="icons8_school_house-5" data-name="icons8_school_house" d="M18.589,0,6.952,5.877l1.5,3.158,1.6-.807V15.75L4.647,19.1a1.7,1.7,0,0,0-1.073.666L0,21.987,1.759,25l1.466-.91V33.6H16.87V28.328h3.411V33.6H33.926V23.889l1.479.9,1.732-3.028L27.1,15.657V8.417l1.569.824L30.225,6.11Zm-.027,3.927,5.13,2.695V13.58l-5.127-3.117-5.107,3.168V6.505Zm.023,10.628,5.107,3.107v.12h.2l6.626,4.03v8.273H23.692V24.813H13.459v5.273H6.636V21.974l6.753-4.192h.07v-.045Z" transform="matrix(-0.719, 0.695, -0.695, -0.719, 720.396, 89.238)" fill="#5d7aff"/>
                <path id="icons8_home_page-9" data-name="icons8_home_page" d="M19.453,0,0,17.6H5.305v16H15.916V22.934H22.99V33.6H33.6v-16h5.305l-7.074-6.4V3.378H28.3V8Zm0,4.785,10.611,9.6v15.66H26.527V19.378H12.379V30.045H8.842V14.385Z" transform="matrix(-0.999, -0.035, 0.035, -0.999, 509.926, 134.048)" fill="#5d7aff"/>
                <path id="icons8_residence-5" data-name="icons8_residence" d="M9.83,0A3.549,3.549,0,0,0,6.725,1.841L0,14.148H3.475V28.3a3.563,3.563,0,0,0,3.537,3.537H31.77A3.563,3.563,0,0,0,35.307,28.3V14.148h3.606L32.053,1.817h0A3.546,3.546,0,0,0,28.962,0Zm0,3.537H28.962v0l3.938,7.07H26.882L19.391,6.867,11.9,10.611H5.962Zm9.561,7.281L24.7,13.471V28.3H21.159V22.99a1.768,1.768,0,1,0-3.537,0V28.3H14.085V13.471ZM7.012,14.148h3.537V28.3H7.012Zm12.379,0a1.768,1.768,0,1,0,1.768,1.768A1.768,1.768,0,0,0,19.391,14.148Zm8.842,0H31.77V28.3H28.233Z" transform="translate(230.175 70.04) rotate(-167)" fill="#5d7aff"/>
                <path id="icons8_roofing-5" data-name="icons8_roofing" d="M28.3,0V6.5L21.221.031,0,19.453H5.24L21.221,4.825,37.2,19.453h5.24l-3.537-3.236V0Zm3.537,3.537h3.537V12.98L31.832,9.74Z" transform="translate(494.92 24.48) rotate(-173)" fill="#5d7aff"/>
                <path id="icons8_dog_house-8" data-name="icons8_dog_house" d="M19.451,0,0,17.6H5.3v16H33.6v-16h5.3Zm3.537,30.045H15.914V24.712a3.537,3.537,0,1,1,7.074,0Zm7.074,0H26.525V24.712a7.074,7.074,0,1,0-14.148,0v5.333H8.84V14.384l10.611-9.6,10.611,9.6Z" transform="matrix(-0.914, 0.407, -0.407, -0.914, 170.868, 177.882)" fill="#5d7aff"/>
              </g>
              <g id="Groupe_3-3" data-name="Groupe 3" transform="translate(704.88 380.638) rotate(-172)">
                <g id="House_Icons-3" data-name="House Icons" transform="translate(524.739 0)">
                  <path id="icons8_dog_house-9" data-name="icons8_dog_house" d="M19.451,33.6,0,16H5.3V0H33.6V16h5.3ZM22.988,3.556H15.914V8.889a3.537,3.537,0,1,0,7.074,0Zm7.074,0H26.525V8.889a7.074,7.074,0,1,1-14.148,0V3.556H8.84V19.216l10.611,9.6,10.611-9.6Z" transform="matrix(-0.914, -0.407, 0.407, -0.914, 173.402, 46.519)" fill="#5d7aff"/>
                  <path id="icons8_home_page-10" data-name="icons8_home_page" d="M19.453,33.6,0,16H5.305V0H15.916V10.667H22.99V0H33.6V16h5.305l-7.074,6.4v7.823H28.3V25.6Zm0-4.785,10.611-9.6V3.556H26.527V14.222H12.379V3.556H8.842v15.66Z" transform="translate(102.717 33.542) rotate(172)" fill="#5d7aff"/>
                  <path id="icons8_school_house-6" data-name="icons8_school_house" d="M18.589,33.6,6.952,27.724l1.5-3.158,1.6.807V17.851L4.647,14.5a1.7,1.7,0,0,1-1.073-.666L0,11.613,1.759,8.6l1.466.91V0H16.87V5.273h3.411V0H33.926V9.712l1.479-.9,1.732,3.028L27.1,17.943v7.24l1.569-.824,1.552,3.131Zm-.027-3.927,5.13-2.695V20.02l-5.127,3.117-5.107-3.168V27.1Zm.023-10.628,5.107-3.107v-.12h.2l6.626-4.03V3.515H23.692V8.788H13.459V3.515H6.636v8.112l6.753,4.192h.07v.045Z" transform="matrix(-0.719, -0.695, 0.695, -0.719, 152.656, 163.083)" fill="#5d7aff"/>
                  <path id="icons8_hut_1-9" data-name="icons8_hut_1" d="M18.569,33.6a4.905,4.905,0,0,1-2.506-.784,21.18,21.18,0,0,1-2.553-1.67A57.8,57.8,0,0,1,7.718,26.1a54.3,54.3,0,0,1-5.179-5.8C1.138,18.43,0,17,0,14.934a1.862,1.862,0,0,1,1.857-1.867H5.571V1.867A1.862,1.862,0,0,1,7.427,0H29.71a1.862,1.862,0,0,1,1.857,1.867v11.2h3.714a1.862,1.862,0,0,1,1.857,1.867c0,2.063-1.138,3.5-2.539,5.36a54.338,54.338,0,0,1-5.183,5.8,57.822,57.822,0,0,1-5.788,5.05,21.124,21.124,0,0,1-2.553,1.666A4.907,4.907,0,0,1,18.569,33.6Zm0-3.763a4.524,4.524,0,0,0,.758-.317,18.092,18.092,0,0,0,2.093-1.375,54.759,54.759,0,0,0,5.4-4.714,51.31,51.31,0,0,0,4.816-5.389A5.557,5.557,0,0,0,32.35,16.8H4.787A5.551,5.551,0,0,0,5.5,18.044a51.322,51.322,0,0,0,4.816,5.389,54.734,54.734,0,0,0,5.4,4.714,18.075,18.075,0,0,0,2.093,1.375A4.535,4.535,0,0,0,18.569,29.838ZM9.284,13.067H27.853V3.733H22.283V7.467a3.714,3.714,0,1,1-7.428,0V3.733H9.284Z" transform="translate(36.186 119.74) rotate(-167)" fill="#5d7aff"/>
                </g>
                <path id="icons8_home_page-11" data-name="icons8_home_page" d="M19.453,33.6,0,16H5.305V0H15.916V10.667H22.99V0H33.6V16h5.305l-7.074,6.4v7.823H28.3V25.6Zm0-4.785,10.611-9.6V3.556H26.527V14.222H12.379V3.556H8.842v15.66Z" transform="matrix(-0.999, 0.035, -0.035, -0.999, 527.117, 213.91)" fill="#5d7aff"/>
                <path id="icons8_hut_1-10" data-name="icons8_hut_1" d="M18.569,33.6a4.905,4.905,0,0,1-2.506-.784,21.18,21.18,0,0,1-2.553-1.67A57.8,57.8,0,0,1,7.718,26.1a54.3,54.3,0,0,1-5.179-5.8C1.138,18.43,0,17,0,14.934a1.862,1.862,0,0,1,1.857-1.867H5.571V1.867A1.862,1.862,0,0,1,7.427,0H29.71a1.862,1.862,0,0,1,1.857,1.867v11.2h3.714a1.862,1.862,0,0,1,1.857,1.867c0,2.063-1.138,3.5-2.539,5.36a54.338,54.338,0,0,1-5.183,5.8,57.821,57.821,0,0,1-5.788,5.05,21.124,21.124,0,0,1-2.553,1.666A4.907,4.907,0,0,1,18.569,33.6Zm0-3.763a4.523,4.523,0,0,0,.758-.317,18.092,18.092,0,0,0,2.093-1.375,54.758,54.758,0,0,0,5.4-4.714,51.31,51.31,0,0,0,4.816-5.389A5.557,5.557,0,0,0,32.35,16.8H4.787A5.551,5.551,0,0,0,5.5,18.044a51.322,51.322,0,0,0,4.816,5.389,54.733,54.733,0,0,0,5.4,4.714,18.074,18.074,0,0,0,2.093,1.375A4.535,4.535,0,0,0,18.569,29.838ZM9.284,13.067H27.853V3.733H22.283V7.467a3.714,3.714,0,1,1-7.428,0V3.733H9.284Z" transform="translate(343.518 55.065) rotate(174)" fill="#5d7aff"/>
                <path id="icons8_residence-6" data-name="icons8_residence" d="M9.83,31.832a3.549,3.549,0,0,1-3.105-1.841L0,17.685H3.475V3.537A3.563,3.563,0,0,1,7.012,0H31.77a3.563,3.563,0,0,1,3.537,3.537V17.685h3.606l-6.86,12.331h0a3.546,3.546,0,0,1-3.088,1.817Zm0-3.537H28.962v0l3.938-7.07H26.882l-7.492,3.744L11.9,21.221H5.962Zm9.561-7.281L24.7,18.361V3.537H21.159V8.842a1.768,1.768,0,1,1-3.537,0V3.537H14.085V18.361ZM7.012,17.685h3.537V3.537H7.012Zm12.379,0a1.768,1.768,0,1,1,1.768-1.768A1.768,1.768,0,0,1,19.391,17.685Zm8.842,0H31.77V3.537H28.233Z" transform="translate(195.589 135.873) rotate(167)" fill="#5d7aff"/>
                <path id="icons8_roofing-6" data-name="icons8_roofing" d="M28.3,19.453v-6.5l-7.074,6.473L0,0H5.24L21.221,14.628,37.2,0h5.24L38.906,3.236V19.453Zm3.537-3.537h3.537V6.473l-3.537,3.24Z" transform="translate(315.395 235.744) rotate(-177)" fill="#5d7aff"/>
                <path id="icons8_warehouse-5" data-name="icons8_warehouse" d="M15.916,32.022,2.1,25.88A3.546,3.546,0,0,1,0,22.651V.024H8.545a1.769,1.769,0,0,1,.577,0H22.693a1.769,1.769,0,0,1,.577,0h8.562V22.651a3.546,3.546,0,0,1-2.1,3.229l0,0Zm0-3.868,12.379-5.5V3.561H24.758V19.477H7.074V3.561H3.537v19.09ZM10.611,15.94H21.221V3.561H17.685V5.329H14.148V3.561H10.611Z" transform="matrix(-0.839, -0.545, 0.545, -0.839, 128.453, 284.341)" fill="#5d7aff"/>
                <path id="icons8_dog_house-10" data-name="icons8_dog_house" d="M19.451,33.6,0,16H5.3V0H33.6V16h5.3ZM22.988,3.556H15.914V8.889a3.537,3.537,0,1,0,7.074,0Zm7.074,0H26.525V8.889a7.074,7.074,0,1,1-14.148,0V3.556H8.84V19.216l10.611,9.6,10.611-9.6Z" transform="matrix(-0.914, -0.407, 0.407, -0.914, 105.417, 86.101)" fill="#5d7aff"/>
              </g>
            </g>
            <g id="House_Motif-4" data-name="House Motif" transform="matrix(0.995, 0.105, -0.105, 0.995, 910.544, -59.7)">
              <g id="Groupe_2-4" data-name="Groupe 2" transform="translate(249.552 -401.778)">
                <path id="icons8_school_house-7" data-name="icons8_school_house" d="M27.288,32.488,15.652,38.365l1.5,3.158,1.6-.807v7.521l-5.4,3.354a1.7,1.7,0,0,0-1.073.666L8.7,54.475l1.759,3.014,1.466-.91v9.509H25.57V60.816h3.411v5.273H42.626V56.377l1.479.9,1.732-3.028L35.8,48.145v-7.24l1.569.824L38.925,38.6Zm-.027,3.927,5.13,2.695v6.958l-5.127-3.117L22.158,46.12V38.993Zm.023,10.628,5.107,3.107v.12h.2l6.626,4.03v8.273H32.392V57.3H22.158v5.273H15.336V54.462l6.753-4.192h.07v-.045Z" transform="matrix(-0.719, 0.695, -0.695, -0.719, 659.774, 604.973)" fill="#5d7aff"/>
                <path id="icons8_home_page-12" data-name="icons8_home_page" d="M24.888,30.176,5.435,47.776H10.74v16H21.351V53.11h7.074V63.776H39.036v-16h5.305l-7.074-6.4V33.554H33.73v4.622Zm0,4.785,10.611,9.6v15.66H31.962V49.554H17.814V60.221H14.277V44.561Z" transform="matrix(-0.999, -0.035, 0.035, -0.999, 424.857, 662.803)" fill="#5d7aff"/>
                <path id="icons8_residence-7" data-name="icons8_residence" d="M18.725,38.839A3.549,3.549,0,0,0,15.62,40.68L8.9,52.986H12.37V67.134a3.563,3.563,0,0,0,3.537,3.537H40.665A3.563,3.563,0,0,0,44.2,67.134V52.986h3.606l-6.86-12.331h0a3.546,3.546,0,0,0-3.088-1.817Zm0,3.537H37.857v0l3.938,7.07H35.778l-7.492-3.744L20.794,49.45H14.857Zm9.561,7.281,5.305,2.653V67.134H30.054V61.829a1.768,1.768,0,1,0-3.537,0v5.305H22.981V52.309Zm-12.379,3.33h3.537V67.134H15.907Zm12.379,0a1.768,1.768,0,1,0,1.768,1.768A1.768,1.768,0,0,0,28.286,52.986Zm8.842,0h3.537V67.134H37.128Z" transform="translate(140.657 608.292) rotate(-167)" fill="#5d7aff"/>
                <path id="icons8_roofing-7" data-name="icons8_roofing" d="M28.3,31.263v6.5l-7.074-6.473L0,50.716H5.24L21.221,36.088,37.2,50.716h5.24l-3.537-3.236V31.263ZM31.832,34.8h3.537v9.443L31.832,41Z" transform="translate(401.662 553.918) rotate(-173)" fill="#5d7aff"/>
                <path id="icons8_dog_house-11" data-name="icons8_dog_house" d="M18.035,53.014,6.593,29.408,11.511,31.4,17.5,16.56l26.235,10.6L37.745,41.995l4.917,1.987ZM32.569,26.481l-6.559-2.65-2,4.945a3.537,3.537,0,1,0,6.559,2.65Zm6.559,2.65-3.279-1.325-2,4.945a7.074,7.074,0,1,1-13.117-5.3l2-4.945-3.279-1.325L13.585,35.7l6.242,12.876,13.434-4.926Z" transform="matrix(-0.914, -0.407, 0.407, -0.914, -175.867, 635.798)" fill="#5d7aff"/>
              </g>
              <g id="Groupe_3-4" data-name="Groupe 3" transform="translate(756.154 756.746) rotate(-172)">
                <g id="House_Icons-4" data-name="House Icons" transform="translate(534.202 471.198)">
                  <path id="icons8_dog_house-12" data-name="icons8_dog_house" d="M24.7,72.25,5.251,54.649h5.3v-16h28.3v16h5.3ZM28.239,42.2H21.165v5.333a3.537,3.537,0,1,0,7.074,0Zm7.074,0H31.776v5.333a7.074,7.074,0,1,1-14.148,0V42.2H14.091V57.865l10.611,9.6,10.611-9.6Z" transform="matrix(-0.914, -0.407, 0.407, -0.914, 180.932, 254.239)" fill="#5d7aff"/>
                  <path id="icons8_home_page-13" data-name="icons8_home_page" d="M24.7,22.67,5.25,5.07h5.305v-16H21.166V-.264H28.24V-10.93H38.85v16h5.305l-7.074,6.4v7.823H33.545V14.67Zm0-4.785,10.611-9.6V-7.375H31.777V3.292H17.629V-7.375H14.092V8.285Z" transform="translate(124.847 192.265) rotate(172)" fill="#5d7aff"/>
                  <path id="icons8_school_house-8" data-name="icons8_school_house" d="M27.419,75.7,15.782,69.822l1.5-3.158,1.6.807V59.949l-5.4-3.354A1.7,1.7,0,0,1,12.4,55.93L8.83,53.712,10.589,50.7l1.466.91V42.1H25.7v5.273h3.411V42.1H42.756V51.81l1.479-.9,1.732,3.028-10.034,6.1v7.24l1.569-.824,1.552,3.131Zm-.027-3.927,5.13-2.695V62.119L27.4,65.236l-5.107-3.168v7.127Zm.023-10.628,5.107-3.107v-.12h.2l6.626-4.03V45.614H32.522v5.273H22.288V45.614H15.466v8.112l6.753,4.192h.07v.045Z" transform="matrix(-0.719, -0.695, 0.695, -0.719, 148.216, 369.777)" fill="#5d7aff"/>
                  <path id="icons8_hut_1-11" data-name="icons8_hut_1" d="M24.451,69.49a4.905,4.905,0,0,1-2.506-.784,21.179,21.179,0,0,1-2.553-1.67,57.8,57.8,0,0,1-5.792-5.05,54.3,54.3,0,0,1-5.179-5.8c-1.4-1.864-2.539-3.3-2.539-5.359a1.862,1.862,0,0,1,1.857-1.867h3.714v-11.2a1.862,1.862,0,0,1,1.857-1.867H35.592a1.862,1.862,0,0,1,1.857,1.867v11.2h3.714a1.862,1.862,0,0,1,1.857,1.867c0,2.063-1.138,3.5-2.539,5.36a54.337,54.337,0,0,1-5.183,5.8,57.821,57.821,0,0,1-5.788,5.05A21.124,21.124,0,0,1,26.957,68.7,4.907,4.907,0,0,1,24.451,69.49Zm0-3.763a4.523,4.523,0,0,0,.758-.317A18.091,18.091,0,0,0,27.3,64.035a54.759,54.759,0,0,0,5.4-4.714,51.31,51.31,0,0,0,4.816-5.389,5.557,5.557,0,0,0,.715-1.243H10.669a5.551,5.551,0,0,0,.714,1.243A51.322,51.322,0,0,0,16.2,59.321a54.734,54.734,0,0,0,5.4,4.714,18.075,18.075,0,0,0,2.093,1.375A4.534,4.534,0,0,0,24.451,65.727ZM15.166,48.956H33.735V39.623H28.164v3.733a3.714,3.714,0,1,1-7.428,0V39.623H15.166Z" transform="translate(52.296 326.31) rotate(-167)" fill="#5d7aff"/>
                </g>
                <path id="icons8_home_page-14" data-name="icons8_home_page" d="M24.7,22.67,5.25,5.07h5.305v-16H21.166V-.264H28.24V-10.93H38.85v16h5.305l-7.074,6.4v7.823H33.545V14.67Zm0-4.785,10.611-9.6V-7.375H31.777V3.292H17.629V-7.375H14.092V8.285Z" transform="matrix(-0.999, 0.035, -0.035, -0.999, 559.898, 844.279)" fill="#5d7aff"/>
                <path id="icons8_hut_1-12" data-name="icons8_hut_1" d="M24.451,69.49a4.905,4.905,0,0,1-2.506-.784,21.18,21.18,0,0,1-2.553-1.67,57.8,57.8,0,0,1-5.792-5.05,54.3,54.3,0,0,1-5.179-5.8c-1.4-1.864-2.539-3.3-2.539-5.359a1.862,1.862,0,0,1,1.857-1.867h3.714v-11.2a1.862,1.862,0,0,1,1.857-1.867H35.592a1.862,1.862,0,0,1,1.857,1.867v11.2h3.714a1.862,1.862,0,0,1,1.857,1.867c0,2.063-1.138,3.5-2.539,5.36a54.34,54.34,0,0,1-5.183,5.8,57.819,57.819,0,0,1-5.788,5.05A21.123,21.123,0,0,1,26.957,68.7,4.907,4.907,0,0,1,24.451,69.49Zm0-3.763a4.523,4.523,0,0,0,.758-.317A18.092,18.092,0,0,0,27.3,64.035a54.759,54.759,0,0,0,5.4-4.714,51.31,51.31,0,0,0,4.816-5.389,5.558,5.558,0,0,0,.715-1.243H10.669a5.551,5.551,0,0,0,.714,1.243A51.322,51.322,0,0,0,16.2,59.321a54.732,54.732,0,0,0,5.4,4.714,18.073,18.073,0,0,0,2.093,1.375A4.534,4.534,0,0,0,24.451,65.727ZM15.166,48.956H33.735V39.623H28.164v3.733a3.714,3.714,0,1,1-7.428,0V39.623H15.166Z" transform="translate(381.035 731.618) rotate(174)" fill="#5d7aff"/>
                <path id="icons8_residence-8" data-name="icons8_residence" d="M18.823,73.473a3.549,3.549,0,0,1-3.105-1.841L8.993,59.325h3.475V45.178A3.563,3.563,0,0,1,16,41.641H40.763A3.563,3.563,0,0,1,44.3,45.178V59.325h3.606l-6.86,12.331h0a3.546,3.546,0,0,1-3.088,1.817Zm0-3.537H37.955v0l3.938-7.07H35.876l-7.492,3.744-7.492-3.744H14.955Zm9.561-7.281L33.689,60V45.178H30.152v5.305a1.768,1.768,0,1,1-3.537,0V45.178H23.079V60ZM16,59.325h3.537V45.178H16Zm12.379,0a1.768,1.768,0,1,1,1.768-1.768A1.768,1.768,0,0,1,28.384,59.325Zm8.842,0h3.537V45.178H37.226Z" transform="translate(241.634 815.899) rotate(167)" fill="#5d7aff"/>
                <path id="icons8_roofing-8" data-name="icons8_roofing" d="M28.3,19.453v-6.5l-7.074,6.473L0,0H5.24L21.221,14.628,37.2,0h5.24L38.906,3.236V19.453Zm3.537-3.537h3.537V6.473l-3.537,3.24Z" transform="translate(343.311 877.219) rotate(-177)" fill="#5d7aff"/>
                <path id="icons8_warehouse-6" data-name="icons8_warehouse" d="M27.971,75.417,14.155,69.276a3.546,3.546,0,0,1-2.1-3.229V43.419H20.6a1.769,1.769,0,0,1,.577,0H34.748a1.769,1.769,0,0,1,.577,0h8.563V66.046a3.546,3.546,0,0,1-2.1,3.229l0,0Zm0-3.868,12.379-5.5V46.956H36.813V62.872H19.129V46.956H15.592v19.09ZM22.666,59.335H33.276V46.956H29.739v1.768H26.2V46.956H22.666Z" transform="matrix(-0.839, -0.545, 0.545, -0.839, 142.844, 968.776)" fill="#5d7aff"/>
                <path id="icons8_dog_house-13" data-name="icons8_dog_house" d="M24.7,72.25,5.251,54.649h5.3v-16h28.3v16h5.3ZM28.239,42.2H21.165v5.333a3.537,3.537,0,1,0,7.074,0Zm7.074,0H31.776v5.333a7.074,7.074,0,1,1-14.148,0V42.2H14.091V57.865l10.611,9.6,10.611-9.6Z" transform="matrix(-0.914, -0.407, 0.407, -0.914, 122.409, 765.02)" fill="#5d7aff"/>
              </g>
            </g>
            <g id="House_Motif-5" data-name="House Motif" transform="translate(1325.992 -27.241) rotate(3)">
              <g id="Groupe_2-5" data-name="Groupe 2" transform="translate(49.271 375.435)">
                <path id="icons8_dog_house-14" data-name="icons8_dog_house" d="M20.306,35.076,0,16.7H5.537V0H35.075V16.7h5.537ZM24,3.712H16.613V9.279a3.692,3.692,0,1,0,7.384,0Zm7.384,0H27.69V9.279a7.385,7.385,0,1,1-14.769,0V3.712H9.229V20.06L20.306,30.082,31.382,20.06Z" transform="translate(730.686 64.859) rotate(-160)" fill="#5d7aff"/>
                <path id="icons8_school_house-9" data-name="icons8_school_house" d="M19.405,35.076,7.258,28.941l1.565-3.3,1.666.842V18.635l-5.637-3.5a1.773,1.773,0,0,1-1.12-.7L0,12.123,1.836,8.977l1.53.95V0H17.611V5.5h3.561V0H35.416V10.138L36.96,9.2l1.808,3.161L28.294,18.732v7.558l1.638-.86L31.553,28.7Zm-.028-4.1,5.356-2.813V20.9l-5.352,3.254L14.05,20.846v7.44ZM19.4,19.882l5.331-3.243v-.126h.205l6.917-4.207V3.67H24.733v5.5H14.05V3.67H6.927v8.468l7.049,4.376h.073v.047Z" transform="matrix(-0.719, -0.695, 0.695, -0.719, 727.67, 200.321)" fill="#5d7aff"/>
                <path id="icons8_home_page-15" data-name="icons8_home_page" d="M20.307,35.076,0,16.7H5.538V0H16.615V11.135H24V0H35.076V16.7h5.538l-7.384,6.68V31.55H29.538V26.725Zm0-4.995L31.384,20.059V3.712H27.692V14.847H12.923V3.712H9.231V20.059Z" transform="matrix(-0.999, 0.035, -0.035, -0.999, 533.546, 163.367)" fill="#5d7aff"/>
                <path id="icons8_school_house-10" data-name="icons8_school_house" d="M19.405,35.076,7.258,28.941l1.565-3.3,1.666.842V18.635l-5.637-3.5a1.773,1.773,0,0,1-1.12-.7L0,12.123,1.836,8.977l1.53.95V0H17.611V5.5h3.561V0H35.416V10.138L36.96,9.2l1.808,3.161L28.294,18.732v7.558l1.638-.86L31.553,28.7Zm-.028-4.1,5.356-2.813V20.9l-5.352,3.254L14.05,20.846v7.44ZM19.4,19.882l5.331-3.243v-.125h.205l6.917-4.207V3.67H24.733v5.5H14.05V3.67H6.927v8.468l7.049,4.376h.073v.047Z" transform="translate(340.163 40.709) rotate(-171)" fill="#5d7aff"/>
                <path id="icons8_hut_1-13" data-name="icons8_hut_1" d="M19.384,35.076a5.121,5.121,0,0,1-2.616-.818A22.11,22.11,0,0,1,14.1,32.515a60.34,60.34,0,0,1-6.046-5.271A56.683,56.683,0,0,1,2.65,21.184C1.188,19.239,0,17.743,0,15.59a1.944,1.944,0,0,1,1.938-1.949H5.815V1.949A1.944,1.944,0,0,1,7.754,0H31.015a1.944,1.944,0,0,1,1.938,1.948V13.641H36.83a1.944,1.944,0,0,1,1.938,1.948c0,2.154-1.188,3.65-2.65,5.6a56.725,56.725,0,0,1-5.41,6.059,60.36,60.36,0,0,1-6.042,5.271A22.051,22.051,0,0,1,22,34.254,5.123,5.123,0,0,1,19.384,35.076Zm0-3.928a4.722,4.722,0,0,0,.791-.331,18.887,18.887,0,0,0,2.185-1.435A57.164,57.164,0,0,0,28,24.461a53.564,53.564,0,0,0,5.028-5.625,5.8,5.8,0,0,0,.746-1.3H5a5.794,5.794,0,0,0,.746,1.3,53.576,53.576,0,0,0,5.028,5.625,57.138,57.138,0,0,0,5.637,4.921,18.867,18.867,0,0,0,2.185,1.435A4.734,4.734,0,0,0,19.384,31.149ZM9.692,13.641H29.076V3.9H23.261v3.9a3.877,3.877,0,1,1-7.754,0V3.9H9.692Z" transform="translate(547.672 61.339) rotate(174)" fill="#5d7aff"/>
                <path id="icons8_residence-9" data-name="icons8_residence" d="M10.262,33.23A3.7,3.7,0,0,1,7.02,31.308L0,18.461H3.627V3.692A3.72,3.72,0,0,1,7.32,0H33.165a3.72,3.72,0,0,1,3.692,3.692V18.461h3.764L33.461,31.334h0a3.7,3.7,0,0,1-3.224,1.9Zm0-3.692H30.234v0l4.111-7.381H28.063l-7.821,3.909-7.821-3.909h-6.2Zm9.981-7.6,5.538-2.769V3.692H22.089V9.231a1.846,1.846,0,1,1-3.692,0V3.692H14.7V19.168ZM7.32,18.461h3.692V3.692H7.32Zm12.923,0a1.846,1.846,0,1,1,1.846-1.846A1.846,1.846,0,0,1,20.242,18.461Zm9.231,0h3.692V3.692H29.473Z" transform="translate(247.759 227.509) rotate(167)" fill="#5d7aff"/>
                <path id="icons8_roofing-9" data-name="icons8_roofing" d="M29.538,20.307V13.518l-7.384,6.757L0,0H5.47L22.153,15.27,38.837,0h5.47L40.615,3.379V20.307Zm3.692-3.692h3.692V6.757L33.23,10.139Z" transform="translate(519.132 262.847) rotate(173)" fill="#5d7aff"/>
                <path id="icons8_dog_house-15" data-name="icons8_dog_house" d="M20.306,35.076,0,16.7H5.537V0H35.075V16.7h5.537ZM24,3.712H16.613V9.279a3.692,3.692,0,1,0,7.384,0Zm7.384,0H27.69V9.279a7.385,7.385,0,1,1-14.769,0V3.712H9.229V20.06L20.306,30.082,31.382,20.06Z" transform="matrix(-0.914, -0.407, 0.407, -0.914, 164.106, 114.597)" fill="#5d7aff"/>
                <path id="icons8_hut_1-14" data-name="icons8_hut_1" d="M19.384,35.076a5.121,5.121,0,0,1-2.616-.818A22.109,22.109,0,0,1,14.1,32.515a60.339,60.339,0,0,1-6.046-5.271A56.682,56.682,0,0,1,2.65,21.184C1.188,19.239,0,17.743,0,15.589a1.944,1.944,0,0,1,1.938-1.949H5.815V1.949A1.944,1.944,0,0,1,7.754,0H31.015a1.944,1.944,0,0,1,1.938,1.948V13.641H36.83a1.944,1.944,0,0,1,1.938,1.948c0,2.154-1.188,3.65-2.65,5.6a56.724,56.724,0,0,1-5.41,6.059,60.361,60.361,0,0,1-6.042,5.271A22.052,22.052,0,0,1,22,34.254,5.123,5.123,0,0,1,19.384,35.076Zm0-3.928a4.722,4.722,0,0,0,.791-.331,18.887,18.887,0,0,0,2.185-1.435A57.164,57.164,0,0,0,28,24.461a53.564,53.564,0,0,0,5.028-5.625,5.8,5.8,0,0,0,.746-1.3H5a5.794,5.794,0,0,0,.746,1.3,53.576,53.576,0,0,0,5.028,5.625,57.138,57.138,0,0,0,5.637,4.921,18.868,18.868,0,0,0,2.185,1.435A4.734,4.734,0,0,0,19.384,31.149ZM9.692,13.641H29.076V3.9H23.261v3.9a3.877,3.877,0,1,1-7.754,0V3.9H9.692Z" transform="translate(48.764 167.934) rotate(159)" fill="#5d7aff"/>
              </g>
              <g id="Groupe_3-5" data-name="Groupe 3" transform="translate(777.149 293.94) rotate(172)">
                <g id="House_Icons-5" data-name="House Icons" transform="translate(547.785 126.583)">
                  <path id="icons8_dog_house-16" data-name="icons8_dog_house" d="M20.306,0,0,18.373H5.537v16.7H35.074v-16.7h5.537ZM24,31.365H16.613V25.8A3.692,3.692,0,1,1,24,25.8Zm7.385,0H27.69V25.8a7.385,7.385,0,1,0-14.769,0v5.568H9.229V15.016L20.306,4.994,31.382,15.016Z" transform="matrix(-0.914, 0.407, -0.407, -0.914, 195.285, 153.728)" fill="#5d7aff"/>
                  <path id="icons8_home_page-16" data-name="icons8_home_page" d="M20.307,0,0,18.374H5.538v16.7H16.615V23.941H24V35.076H35.076v-16.7h5.538l-7.384-6.68V3.527H29.538V8.351Zm0,4.995L31.384,15.017V31.365H27.692V20.23H12.923V31.365H9.231V15.017Z" transform="translate(102.347 169.965) rotate(-172)" fill="#5d7aff"/>
                  <path id="icons8_school_house-11" data-name="icons8_school_house" d="M19.405,0,7.258,6.135l1.565,3.3,1.666-.842v7.852l-5.637,3.5a1.773,1.773,0,0,0-1.12.7L0,22.953,1.836,26.1l1.53-.95v9.927H17.611v-5.5h3.561v5.5H35.416V24.938l1.544.939,1.808-3.161L28.294,16.345V8.787l1.638.86,1.621-3.268Zm-.028,4.1,5.356,2.813v7.264l-5.352-3.254L14.05,14.231V6.791ZM19.4,15.195l5.331,3.243v.126h.205l6.917,4.207v8.636H24.733V25.9H14.05v5.5H6.927V22.939l7.049-4.376h.073v-.047Z" transform="matrix(-0.719, 0.695, -0.695, -0.719, 183.727, 25.232)" fill="#5d7aff"/>
                  <path id="icons8_hut_1-15" data-name="icons8_hut_1" d="M19.384,0a5.121,5.121,0,0,0-2.616.818A22.11,22.11,0,0,0,14.1,2.561,60.339,60.339,0,0,0,8.057,7.833,56.683,56.683,0,0,0,2.65,13.892C1.188,15.837,0,17.334,0,19.487a1.944,1.944,0,0,0,1.938,1.949H5.815V33.128a1.944,1.944,0,0,0,1.938,1.949H31.015a1.944,1.944,0,0,0,1.938-1.948V21.436H36.83a1.944,1.944,0,0,0,1.938-1.948c0-2.154-1.188-3.65-2.65-5.6a56.725,56.725,0,0,0-5.41-6.059,60.36,60.36,0,0,0-6.042-5.271A22.052,22.052,0,0,0,22,.822,5.123,5.123,0,0,0,19.384,0Zm0,3.928a4.722,4.722,0,0,1,.791.331A18.886,18.886,0,0,1,22.36,5.694,57.163,57.163,0,0,1,28,10.615a53.563,53.563,0,0,1,5.028,5.625,5.8,5.8,0,0,1,.746,1.3H5a5.8,5.8,0,0,1,.746-1.3,53.577,53.577,0,0,1,5.028-5.625,57.138,57.138,0,0,1,5.637-4.921,18.867,18.867,0,0,1,2.185-1.435A4.734,4.734,0,0,1,19.384,3.928ZM9.692,21.436H29.076v9.743H23.261v-3.9a3.877,3.877,0,1,0-7.754,0v3.9H9.692Z" transform="translate(45.665 79.424) rotate(167)" fill="#5d7aff"/>
                </g>
                <path id="icons8_home_page-17" data-name="icons8_home_page" d="M20.307,0,0,18.374H5.538v16.7H16.615V23.941H24V35.076H35.076v-16.7h5.538l-7.384-6.68V3.527H29.538V8.351Zm0,4.995L31.384,15.017V31.365H27.692V20.23H12.923V31.365H9.231V15.017Z" transform="matrix(-0.999, -0.035, 0.035, -0.999, 549.044, 108.579)" fill="#5d7aff"/>
                <path id="icons8_hut_1-16" data-name="icons8_hut_1" d="M19.384,0a5.121,5.121,0,0,0-2.616.818A22.11,22.11,0,0,0,14.1,2.561,60.34,60.34,0,0,0,8.057,7.833,56.682,56.682,0,0,0,2.65,13.892C1.188,15.837,0,17.334,0,19.487a1.944,1.944,0,0,0,1.938,1.949H5.815V33.128a1.944,1.944,0,0,0,1.938,1.949H31.015a1.944,1.944,0,0,0,1.938-1.948V21.436H36.83a1.944,1.944,0,0,0,1.938-1.948c0-2.154-1.188-3.65-2.65-5.6a56.725,56.725,0,0,0-5.41-6.059,60.36,60.36,0,0,0-6.042-5.271A22.052,22.052,0,0,0,22,.822,5.123,5.123,0,0,0,19.384,0Zm0,3.928a4.721,4.721,0,0,1,.791.331A18.887,18.887,0,0,1,22.36,5.694,57.164,57.164,0,0,1,28,10.615a53.564,53.564,0,0,1,5.028,5.625,5.8,5.8,0,0,1,.746,1.3H5a5.794,5.794,0,0,1,.746-1.3,53.576,53.576,0,0,1,5.028-5.625,57.139,57.139,0,0,1,5.637-4.921,18.868,18.868,0,0,1,2.185-1.435A4.734,4.734,0,0,1,19.384,3.928ZM9.692,21.436H29.076v9.743H23.261v-3.9a3.877,3.877,0,1,0-7.754,0v3.9H9.692Z" transform="matrix(-0.995, -0.105, 0.105, -0.995, 354.939, 274.23)" fill="#5d7aff"/>
                <path id="icons8_residence-10" data-name="icons8_residence" d="M10.262,0A3.7,3.7,0,0,0,7.02,1.922L0,14.769H3.627V29.538A3.72,3.72,0,0,0,7.32,33.23H33.165a3.72,3.72,0,0,0,3.692-3.692V14.769h3.764L33.461,1.9h0A3.7,3.7,0,0,0,30.234,0Zm0,3.692H30.234v0l4.111,7.381H28.063L20.242,7.168l-7.821,3.909h-6.2Zm9.981,7.6,5.538,2.769V29.538H22.089V24A1.846,1.846,0,1,0,18.4,24v5.538H14.7V14.062ZM7.32,14.769h3.692V29.538H7.32Zm12.923,0a1.846,1.846,0,1,0,1.846,1.846A1.846,1.846,0,0,0,20.242,14.769Zm9.231,0h3.692V29.538H29.473Z" transform="translate(196.704 187.366) rotate(-167)" fill="#5d7aff"/>
                <path id="icons8_roofing-10" data-name="icons8_roofing" d="M29.538,0V6.79L22.153.032,0,20.307H5.47L22.153,5.037l16.684,15.27h5.47l-3.692-3.379V0ZM33.23,3.692h3.692V13.55L33.23,10.168Z" transform="translate(330.31 71.011) rotate(177)" fill="#5d7aff"/>
                <path id="icons8_warehouse-7" data-name="icons8_warehouse" d="M16.615,0,2.192,6.411A3.7,3.7,0,0,0,0,9.782V33.4H8.921a1.846,1.846,0,0,0,.6,0H23.689a1.846,1.846,0,0,0,.6,0H33.23V9.782a3.7,3.7,0,0,0-2.192-3.371l0,0Zm0,4.038L29.538,9.782V29.711H25.846V13.1H7.384V29.711H3.692V9.782Zm-5.538,12.75H22.153V29.711H18.461V27.865H14.769v1.846H11.077Z" transform="matrix(-0.839, 0.545, -0.545, -0.839, 152.301, 28.035)" fill="#5d7aff"/>
                <path id="icons8_dog_house-17" data-name="icons8_dog_house" d="M20.306,0,0,18.373H5.537v16.7H35.074v-16.7h5.537ZM24,31.365H16.613V25.8A3.692,3.692,0,1,1,24,25.8Zm7.385,0H27.69V25.8a7.385,7.385,0,1,0-14.769,0v5.568H9.229V15.016L20.306,4.994,31.382,15.016Z" transform="matrix(-0.914, 0.407, -0.407, -0.914, 124.313, 238.991)" fill="#5d7aff"/>
                <path id="icons8_home_page-18" data-name="icons8_home_page" d="M20.307,0,0,18.374H5.538v16.7H16.615V23.941H24V35.076H35.076v-16.7h5.538l-7.384-6.68V3.527H29.538V8.351Zm0,4.995L31.384,15.017V31.365H27.692V20.23H12.923V31.365H9.231V15.017Z" transform="translate(40.219 137.153) rotate(-172)" fill="#5d7aff"/>
              </g>
            </g>
          </g>
        </g>
      </g>
    </g>
    <g id="Likdom_illustration" data-name="Likdom illustration" transform="translate(-1081.764 -1201.5)">
      <g id="Maid" transform="translate(1343.995 2587.095)">
        <path id="Tracé_81" data-name="Tracé 81" d="M41.909,1.287C17-8.8,0,43.688,0,43.688S64.654,12.817,41.909,1.287Z" transform="translate(136.034 2.447) rotate(-3)" fill="#2d4a6a"/>
        <path id="Tracé_82" data-name="Tracé 82" d="M31.844.492C18.712-4.811,0,34.518,0,34.518S43.836,6.577,31.844.492Z" transform="translate(136.514 11.604) rotate(-3)" fill="#223b56"/>
        <path id="Tracé_83" data-name="Tracé 83" d="M4.853,1.287c24.91-10.083,41.9,42.4,41.9,42.4S-17.9,12.817,4.853,1.287Z" transform="translate(80.327 5.367) rotate(-3)" fill="#2d4a6a"/>
        <path id="Tracé_84" data-name="Tracé 84" d="M2.078.492c13.131-5.3,31.844,34.026,31.844,34.026S-9.915,6.577,2.078.492Z" transform="translate(93.624 13.852) rotate(-3)" fill="#223b56"/>
        <path id="Tracé_85" data-name="Tracé 85" d="M26.1,13.048A13.048,13.048,0,1,1,13.048,0,13.048,13.048,0,0,1,26.1,13.048Z" transform="translate(118.295 32.164) rotate(-3)" fill="#223b56"/>
        <path id="Tracé_86" data-name="Tracé 86" d="M1.493,97.7c1.59.409-21.838-131.621,72.139-89.351-49.572,25.664-70.55,89.76-70.55,89.76" transform="translate(61.978 42.411) rotate(-3)" fill="#2d4a6a"/>
        <path id="Tracé_87" data-name="Tracé 87" d="M67.187,97.7C65.6,98.108,93.983-33.922,0,8.348c49.577,25.664,65.6,89.76,65.6,89.76" transform="translate(131.475 38.769) rotate(-3)" fill="#2d4a6a"/>
        <path id="Tracé_88" data-name="Tracé 88" d="M24.554,0S35.77,73.13,0,81.967c5.931,7.177,48.789,26.951,88.752,3.808Z" transform="translate(48.207 140.966) rotate(-3)" fill="#1b0900"/>
        <path id="Tracé_89" data-name="Tracé 89" d="M64.2,0s-11.2,73.13,24.566,81.967C82.833,89.143,39.969,108.917,0,85.774Z" transform="translate(130.512 136.653) rotate(-3)" fill="#1b0900"/>
        <path id="Tracé_90" data-name="Tracé 90" d="M101.657,1388.61l-41.387,8.784v9.893h61.95V1388.61Z" transform="translate(-24.518 -562.205)" fill="#3d5b8e"/>
        <path id="Tracé_91" data-name="Tracé 91" d="M92.08,903.89l10.99,134.569,11.53,151.484s9.2,12.455,20.759,0l13.185-90.086-4.946-61.4L172.3,903.89Z" transform="translate(-37.461 -364.974)" fill="#7db1ff"/>
        <path id="Tracé_92" data-name="Tracé 92" d="M149.424,906.31,134.46,1040.351l9.241,157.172c3.025-.38,8.9-5.142,8.9-5.142l13.185-90.086-4.946-61.4,28.706-134.563Z" transform="translate(-54.706 -365.958)" fill="#5493ff"/>
        <path id="Tracé_93" data-name="Tracé 93" d="M248.243,1388.61h-14.4l-10.433,8.784v9.893h35.723v-9.893Z" transform="translate(-90.899 -562.205)" fill="#3d5b8e"/>
        <path id="Tracé_94" data-name="Tracé 94" d="M256.7,906.31l-3.843,134.3-18.671,151.751s-9.531,7.71-14.478-.653l-13.191-90.08,4.952-61.4L187.3,906.31Z" transform="translate(-76.206 -365.958)" fill="#7db1ff"/>
        <path id="Tracé_96" data-name="Tracé 96" d="M97.341,445.15c.273.546-33.534,35.373-42.146,140.69L50.45,695.457" transform="translate(-20.522 -178.313)" fill="none" stroke="#f0a38b" stroke-width="24"/>
        <path id="Tracé_97" data-name="Tracé 97" d="M35.61,492.977C37.8,406.188,104.956,379.54,104.956,379.54l13.594,62.869C88.3,452.3,82.3,492.947,82.3,492.947Z" transform="translate(-14.484 -151.617)" fill="#fff"/>
        <path id="Tracé_98" data-name="Tracé 98" d="M255.225,417.514s-55.247,78.414-27.051,195.071C189.948,644.019,92.08,531.36,92.08,462.192s36.446-79.1,53.652-84.962h89.7C249.353,382.1,255.225,397.206,255.225,417.514Z" transform="translate(-37.461 -150.677)" fill="#fff"/>
        <path id="Tracé_99" data-name="Tracé 99" d="M142,377.23c-23.623,12.574-36.44,42.478-36.44,70.312h17.757c2.278-39.554,5.207-60.058,32.674-70.312Z" transform="translate(-42.946 -150.677)" fill="#d8dade"/>
        <path id="Tracé_100" data-name="Tracé 100" d="M285.176,377.23c-23.623,12.574-36.446,42.478-36.446,70.312l8.007,10.676c12.319-43.166,14.97-70.733,42.436-80.988Z" transform="translate(-101.202 -150.677)" fill="#d8dade"/>
        <path id="Tracé_101" data-name="Tracé 101" d="M223.8,738.371c-13.357,72.388-8.4,119.51-8.4,119.51-77.9,17.675-151.911-3.737-151.911-3.737L84.76,614.11,80.443,486.658c16.221-19.572,81.718-15.782,101.622,0-11.02,115.281,36.067,154.052,36.067,154.052S237.152,693.236,223.8,738.371Z" transform="translate(-25.824 -189.793)" fill="#27425f"/>
        <path id="Tracé_102" data-name="Tracé 102" d="M104.252,589.09c2.651,0,10.367,39.145,10.367,85.905s-8.725,84.642-11.382,84.642,1.779-37.893,1.779-84.642S101.6,589.09,104.252,589.09Z" transform="translate(-41.657 -236.882)" fill="#2d4a6a"/>
        <path id="Tracé_103" data-name="Tracé 103" d="M128.526,377.23C104.9,389.8,92.08,419.708,92.08,447.542h17.746c2.752-44.483,15.017-60.058,42.484-70.312Z" transform="translate(-37.461 -150.677)" fill="#27425f"/>
        <path id="Tracé_104" data-name="Tracé 104" d="M268.64,377.23c-33.119,10.255-36.44,42.478-36.44,70.312h18.517c-1.1-41.387,11.453-57.994,41.731-70.312Z" transform="translate(-94.476 -150.677)" fill="#27425f"/>
        <path id="Tracé_105" data-name="Tracé 105" d="M190.732,565.713c0,25.5-16.975,46.22-37.911,46.22s-37.911-20.7-37.911-46.22,16.975-19.7,37.911-19.7S190.732,540.18,190.732,565.713Z" transform="translate(-46.751 -219.122)" fill="#3d5b8e"/>
        <path id="Tracé_106" data-name="Tracé 106" d="M190.7,566.158v-.445c0-25.5-16.975-19.7-37.911-19.7s-37.911-5.836-37.911,19.7v.445Z" transform="translate(-46.738 -219.122)" fill="#3d5b8e"/>
        <path id="Tracé_107" data-name="Tracé 107" d="M297.112,445.15c.273.546,32.241,44.043,23.629,149.36l-91.676-44.962" transform="translate(-79.348 -178.313)" fill="none" stroke="#f0a38b" stroke-width="24"/>
        <path id="Tracé_139" data-name="Tracé 139" d="M399.159,492.977c-2.194-86.789-69.352-113.437-69.352-113.437L316.22,442.409c30.248,9.893,36.25,50.538,36.25,50.538Z" transform="translate(-128.663 -151.617)" fill="#fff"/>
        <path id="Tracé_140" data-name="Tracé 140" d="M138.2,377.23c2.657,0-30.551,18.766-30.4,50.532l-5.285,58.96c-5.593,0-4.792,4.745-5.077-56.232C97.285,398.718,135.552,377.242,138.2,377.23Z" transform="translate(-39.642 -150.677)" fill="#2d4a6a"/>
        <path id="Tracé_141" data-name="Tracé 141" d="M279.021,377.23c2.657,0-30.557,18.766-30.4,50.532l-5.3,40.8c-5.581,0-5.065-12.23-5.065-38.071C238.222,398.718,276.335,377.242,279.021,377.23Z" transform="translate(-96.933 -150.677)" fill="#2d4a6a"/>
        <path id="Tracé_142" data-name="Tracé 142" d="M237.835,379.54c-12.342,10.083-7.521,15.059-36.428,15.059-21.613,0-23.849-4.97-11.506-15.059Z" transform="translate(-74.21 -151.617)" fill="#f0a38b"/>
        <path id="Tracé_143" data-name="Tracé 143" d="M26.713,16.014c0,8.843-5.978,16.014-13.357,16.014S0,24.851,0,16.014,5.978,0,13.357,0,26.713,7.159,26.713,16.014Z" transform="translate(65.593 135.227) rotate(-3)" fill="#f0a38b"/>
        <path id="Tracé_144" data-name="Tracé 144" d="M26.713,16.014c0,8.843-5.984,16.014-13.357,16.014S0,24.851,0,16.014,5.973,0,13.357,0,26.713,7.159,26.713,16.014Z" transform="translate(183.388 129.053) rotate(-3)" fill="#f0a38b"/>
        <path id="Tracé_145" data-name="Tracé 145" d="M234.039,366.637l-28.469-1.862h0c.065-2,.042-18.926,0-33.836l28.564-.119C234.217,364.384,234.092,365.961,234.039,366.637Z" transform="translate(-83.64 -131.793)" fill="#f0a38b"/>
        <path id="Tracé_146" data-name="Tracé 146" d="M229.65,356.689s-25.545,6.317-24.2-25.77l28.564-.119S235.409,356.689,229.65,356.689Z" transform="translate(-83.569 -131.785)" fill="#e8846c"/>
        <path id="Tracé_147" data-name="Tracé 147" d="M132.636,54.909c0,43.261-29.655,101.723-66.309,101.723S0,98.17,0,54.909,29.7,0,66.327,0,132.636,11.654,132.636,54.909Z" transform="translate(66.587 63.649) rotate(-3)" fill="#f0a38b"/>
        <path id="Tracé_148" data-name="Tracé 148" d="M0,0C5.433,19.46,15.569,28.653,7.289,62.649,7.408,63.948,18.38,37.354,21.3,0Z" transform="translate(182.184 102.556) rotate(-3)" fill="#1b0900"/>
        <path id="Tracé_149" data-name="Tracé 149" d="M13.352,123.251C13.127,125.724-55.952-9.011,122.335.479c-10.5,8.76,5.611,37.769,17.087,43.107,8.3,19.1-26.18,55.947-71.724-2.633,0,0-1.518,26.725-52.982,38.676C10.369,89.711,13.169,105.416,13.352,123.251Z" transform="translate(64.398 48.086) rotate(-3)" fill="#1b0900"/>
        <path id="Tracé_150" data-name="Tracé 150" d="M0,0C0,7.811,8.19,17.567,19.8,17.567S42.041,7.811,42.041,0c0,0-10.9,3.611-21.408,3.611A70.078,70.078,0,0,1,0,0Z" transform="translate(119.926 188.441) rotate(-3)" fill="#fff"/>
        <path id="Tracé_151" data-name="Tracé 151" d="M11.809,8.185,13.778,0l.747,9.033L20.9,31.654,0,33.03l17.129-3.547Z" transform="translate(134.61 147.645) rotate(-3)"/>
        <path id="Tracé_152" data-name="Tracé 152" d="M0,1.133,12.3,0s7.432,4.193,20.818,4.193C27.051,6.886,0,1.133,0,1.133Z" transform="translate(146.916 133.284) rotate(-16)" fill="#1b0900"/>
        <path id="Tracé_153" data-name="Tracé 153" d="M198.847,212.633l-12.3-1.133s-7.426,4.193-20.812,4.193C171.825,218.386,198.847,212.633,198.847,212.633Z" transform="translate(-70.478 -81.021)" fill="#1b0900"/>
        <path id="Tracé_154" data-name="Tracé 154" d="M6.993,10.083c0,5.593-1.56,10.124-3.5,10.124S0,15.676,0,10.083,1.584,0,3.505,0,6.993,4.508,6.993,10.083Z" transform="translate(154.698 137.481) rotate(-3)" fill="#1b0900"/>
        <path id="Tracé_155" data-name="Tracé 155" d="M7,10.083c0,5.593-1.566,10.124-3.5,10.124S0,15.676,0,10.083,1.566,0,3.5,0,7,4.508,7,10.083Z" transform="translate(112.26 139.706) rotate(-3)" fill="#1b0900"/>
        <path id="Tracé_156" data-name="Tracé 156" d="M0,0V5.931A5.742,5.742,0,0,0,5.3,1.186C4.152,2.971,0,0,0,0Z" transform="translate(158.726 137.383) rotate(-3)" fill="#1b0900"/>
        <path id="Tracé_157" data-name="Tracé 157" d="M0,0V5.931A5.792,5.792,0,0,0,5.338,1.186C4.128,2.971,0,0,0,0Z" transform="translate(116.2 139.612) rotate(-3)" fill="#1b0900"/>
        <path id="Tracé_158" data-name="Tracé 158" d="M78.415,889.519s3.3-24.216-14.039-25.96-.854,12.526-.854,12.526h0s5.783,20.094,10.771,20.758C76.38,897.128,78.415,889.519,78.415,889.519Z" transform="translate(-22.96 -348.503)" fill="#c8deff"/>
        <path id="Tracé_159" data-name="Tracé 159" d="M12.576,794.8,11.39,841.08l34.584,4.312,11.714-44.963Z" transform="translate(-4.629 -320.585)" fill="#c8deff"/>
        <path id="Tracé_160" data-name="Tracé 160" d="M41.335,872.868S44.894,892,42.367,909.641s-29.916,6.8-35.3.925-12.645-25.812-.32-42.01S41.335,872.868,41.335,872.868Z" transform="translate(0.01 -348.062)" fill="#c8deff"/>
        <path id="Tracé_108" data-name="Tracé 108" d="M4.271.443C8.245-1.621,23.238,2.974,22.828,26.12S6.079,31.145,6.079,31.145,3.691,23.172,1.2,17.273.3,2.506,4.271.443Z" transform="translate(141.437 321.057) rotate(24)" fill="#c8deff"/>
        <path id="Tracé_109" data-name="Tracé 109" d="M17.52,13.521a2.266,2.266,0,0,1,2.571-.729S12.188-.274,0,0C8.131,2.893,14.922,11.362,17.52,13.521Z" transform="translate(131.739 333.199) rotate(24)" fill="#7db1ff"/>
        <path id="Tracé_137" data-name="Tracé 137" d="M46.072,45.461,0,40.906V6.056L46.072,0Z" transform="translate(144.566 346.342) rotate(24)" fill="#c8deff"/>
        <path id="Tracé_138" data-name="Tracé 138" d="M37.635,14.276S33.145-.332,15.34.006-2.067,40.443,3.1,46.493s16.933,12.864,34.536,2.627S37.635,14.276,37.635,14.276Z" transform="translate(113.526 323.53) rotate(24)" fill="#c8deff"/>
      </g>
      <g id="_5_Stars" data-name="5 Stars" transform="translate(1287.764 2592.432)">
        <g id="icons8_christmas_star" transform="translate(290.245 26.022) rotate(7)">
          <path id="Tracé_4553" data-name="Tracé 4553" d="M19.945.6,14.414,13.007.9,14.433a1.009,1.009,0,0,0-.57,1.754L10.426,25.28,7.608,38.571A1.01,1.01,0,0,0,9.1,39.655l11.767-6.789,11.767,6.788a1.01,1.01,0,0,0,1.492-1.085L31.308,25.28,41.4,16.187a1.01,1.01,0,0,0-.57-1.754L27.321,13.006,21.789.6A1.009,1.009,0,0,0,19.945.6Z" transform="translate(0 0)" fill="url(#linear-gradient-3)"/>
          <path id="Tracé_4554" data-name="Tracé 4554" d="M6.454,13.006.922.6A.994.994,0,0,0,0,0V20.607Z" transform="translate(20.867 0)" fill="url(#linear-gradient-4)"/>
          <path id="Tracé_4555" data-name="Tracé 4555" d="M10.441,10.108h0L20.532,1.014A.99.99,0,0,0,20.825,0L0,5.433Z" transform="translate(20.867 15.174)" fill="url(#linear-gradient-5)"/>
          <path id="Tracé_4556" data-name="Tracé 4556" d="M10.441,4.675,0,0,12.807,19.021a.991.991,0,0,0,.452-1.057Z" transform="translate(20.867 20.607)" fill="url(#linear-gradient-6)"/>
          <path id="Tracé_4557" data-name="Tracé 4557" d="M10.421,10.108h0L.33,1.014A.99.99,0,0,1,.038,0L20.862,5.433Z" transform="translate(0.005 15.174)" fill="url(#linear-gradient-7)"/>
          <path id="Tracé_4558" data-name="Tracé 4558" d="M0,19a.993.993,0,0,0,1.073.044L12.84,12.26V0Z" transform="translate(8.027 20.607)" fill="url(#linear-gradient-8)"/>
        </g>
        <g id="icons8_christmas_star-2" data-name="icons8_christmas_star" transform="translate(56.948 14.378) rotate(-20)">
          <path id="Tracé_4553-2" data-name="Tracé 4553" d="M20.09.6,14.519,13.1.911,14.538A1.017,1.017,0,0,0,.338,16.3L10.5,25.464,7.663,38.852a1.017,1.017,0,0,0,1.5,1.092l11.853-6.838,11.853,6.837a1.017,1.017,0,0,0,1.5-1.092L31.536,25.464,41.7,16.3a1.017,1.017,0,0,0-.574-1.767L27.52,13.1,21.948.6A1.016,1.016,0,0,0,20.09.6Z" transform="translate(0 0)" fill="url(#linear-gradient-3)"/>
          <path id="Tracé_4554-2" data-name="Tracé 4554" d="M6.5,13.1.929.6A1,1,0,0,0,0,0V20.757Z" transform="translate(21.019 0)" fill="url(#linear-gradient-4)"/>
          <path id="Tracé_4555-2" data-name="Tracé 4555" d="M10.517,10.182h0L20.681,1.021A1,1,0,0,0,20.976,0L0,5.472Z" transform="translate(21.019 15.285)" fill="url(#linear-gradient-5)"/>
          <path id="Tracé_4556-2" data-name="Tracé 4556" d="M10.517,4.709,0,0,12.9,19.16a1,1,0,0,0,.456-1.065Z" transform="translate(21.019 20.757)" fill="url(#linear-gradient-6)"/>
          <path id="Tracé_4557-2" data-name="Tracé 4557" d="M10.5,10.182h0L.333,1.021A1,1,0,0,1,.038,0L21.014,5.472Z" transform="translate(0.005 15.285)" fill="url(#linear-gradient-7)"/>
          <path id="Tracé_4558-2" data-name="Tracé 4558" d="M0,19.141a1,1,0,0,0,1.081.045l11.853-6.837V0Z" transform="translate(8.085 20.757)" fill="url(#linear-gradient-8)"/>
        </g>
        <g id="icons8_christmas_star-3" data-name="icons8_christmas_star" transform="matrix(0.788, 0.616, -0.616, 0.788, 35.67, 183.101)">
          <path id="Tracé_4553-3" data-name="Tracé 4553" d="M29.04.872,20.986,18.938,1.317,21.014a1.47,1.47,0,0,0-.829,2.554L15.18,36.808l-4.1,19.351a1.47,1.47,0,0,0,2.173,1.579l17.133-9.884,17.133,9.883a1.471,1.471,0,0,0,2.173-1.579l-4.1-19.35L60.277,23.568a1.47,1.47,0,0,0-.829-2.554L39.779,18.937,31.725.872A1.469,1.469,0,0,0,29.04.872Z" transform="translate(0 0)" fill="url(#linear-gradient-3)"/>
          <path id="Tracé_4554-3" data-name="Tracé 4554" d="M9.4,18.937,1.342.872A1.448,1.448,0,0,0,0,0V30Z" transform="translate(30.383 0)" fill="url(#linear-gradient-4)"/>
          <path id="Tracé_4555-3" data-name="Tracé 4555" d="M15.2,14.717h0L29.894,1.476A1.441,1.441,0,0,0,30.321,0L0,7.91Z" transform="translate(30.383 22.094)" fill="url(#linear-gradient-5)"/>
          <path id="Tracé_4556-3" data-name="Tracé 4556" d="M15.2,6.807,0,0,18.647,27.695a1.444,1.444,0,0,0,.659-1.539Z" transform="translate(30.383 30.003)" fill="url(#linear-gradient-6)"/>
          <path id="Tracé_4557-3" data-name="Tracé 4557" d="M15.173,14.717h0L.481,1.476A1.441,1.441,0,0,1,.055,0L30.375,7.91Z" transform="translate(0.007 22.094)" fill="url(#linear-gradient-7)"/>
          <path id="Tracé_4558-3" data-name="Tracé 4558" d="M0,27.668a1.445,1.445,0,0,0,1.563.065L18.7,17.85V0Z" transform="translate(11.687 30.003)" fill="url(#linear-gradient-8)"/>
        </g>
        <g id="icons8_christmas_star-4" data-name="icons8_christmas_star" transform="matrix(0.788, 0.616, -0.616, 0.788, 389.479, 127.838)">
          <path id="Tracé_4553-4" data-name="Tracé 4553" d="M33.84,1.016,24.455,22.069,1.535,24.488a1.713,1.713,0,0,0-.966,2.976l17.12,15.428-4.782,22.55a1.713,1.713,0,0,0,2.532,1.84L35.4,55.763,55.369,67.28a1.714,1.714,0,0,0,2.532-1.84L53.119,42.891,70.24,27.464a1.713,1.713,0,0,0-.966-2.976l-22.92-2.421L36.969,1.016A1.712,1.712,0,0,0,33.84,1.016Z" transform="translate(0 0)" fill="url(#linear-gradient-3)"/>
          <path id="Tracé_4554-4" data-name="Tracé 4554" d="M10.949,22.067,1.564,1.016A1.687,1.687,0,0,0,0,0V34.962Z" transform="translate(35.404 0)" fill="url(#linear-gradient-4)"/>
          <path id="Tracé_4555-4" data-name="Tracé 4555" d="M17.715,17.15v0L34.835,1.72a1.68,1.68,0,0,0,.5-1.72L0,9.217Z" transform="translate(35.404 25.745)" fill="url(#linear-gradient-5)"/>
          <path id="Tracé_4556-4" data-name="Tracé 4556" d="M17.715,7.932,0,0,21.729,32.272a1.682,1.682,0,0,0,.768-1.794Z" transform="translate(35.404 34.963)" fill="url(#linear-gradient-6)"/>
          <path id="Tracé_4557-4" data-name="Tracé 4557" d="M17.681,17.15v0L.561,1.72A1.68,1.68,0,0,1,.064,0L35.4,9.217Z" transform="translate(0.008 25.745)" fill="url(#linear-gradient-7)"/>
          <path id="Tracé_4558-4" data-name="Tracé 4558" d="M0,32.242a1.684,1.684,0,0,0,1.821.075L21.786,20.8V0Z" transform="translate(13.619 34.963)" fill="url(#linear-gradient-8)"/>
        </g>
        <g id="icons8_christmas_star-5" data-name="icons8_christmas_star" transform="translate(296.45 100.903) rotate(11)">
          <path id="Tracé_4553-5" data-name="Tracé 4553" d="M29.04.872,20.986,18.938,1.317,21.014a1.47,1.47,0,0,0-.829,2.554L15.18,36.808l-4.1,19.351a1.47,1.47,0,0,0,2.173,1.579l17.133-9.884,17.133,9.883a1.471,1.471,0,0,0,2.173-1.579l-4.1-19.35L60.277,23.568a1.47,1.47,0,0,0-.829-2.554L39.779,18.937,31.725.872A1.469,1.469,0,0,0,29.04.872Z" transform="translate(0 0)" fill="url(#linear-gradient-3)"/>
          <path id="Tracé_4554-5" data-name="Tracé 4554" d="M9.4,18.937,1.342.872A1.448,1.448,0,0,0,0,0V30Z" transform="translate(30.383 0)" fill="url(#linear-gradient-4)"/>
          <path id="Tracé_4555-5" data-name="Tracé 4555" d="M15.2,14.717h0L29.894,1.476A1.441,1.441,0,0,0,30.321,0L0,7.91Z" transform="translate(30.383 22.094)" fill="url(#linear-gradient-5)"/>
          <path id="Tracé_4556-5" data-name="Tracé 4556" d="M15.2,6.807,0,0,18.647,27.695a1.444,1.444,0,0,0,.659-1.539Z" transform="translate(30.383 30.003)" fill="url(#linear-gradient-6)"/>
          <path id="Tracé_4557-5" data-name="Tracé 4557" d="M15.173,14.717h0L.481,1.476A1.441,1.441,0,0,1,.055,0L30.375,7.91Z" transform="translate(0.007 22.094)" fill="url(#linear-gradient-7)"/>
          <path id="Tracé_4558-5" data-name="Tracé 4558" d="M0,27.668a1.445,1.445,0,0,0,1.563.065L18.7,17.85V0Z" transform="translate(11.687 30.003)" fill="url(#linear-gradient-8)"/>
        </g>
      </g>
      <g id="icons8_prize" transform="translate(1395.417 2871.31)">
        <path id="Tracé_4559" data-name="Tracé 4559" d="M43.4,27.765H14V54.573a1.47,1.47,0,0,0,2.226,1.26L28.7,48.348l12.476,7.485a1.469,1.469,0,0,0,2.226-1.26Z" transform="translate(-2.239 11.583)" fill="url(#radial-gradient)"/>
        <path id="Tracé_4560" data-name="Tracé 4560" d="M57.509,24.955l-1.85-1.111A3.537,3.537,0,0,1,54.1,21.706c-.006-.016-.007-.032-.013-.05A3.527,3.527,0,0,1,54.363,19l1.048-1.886A2.924,2.924,0,0,0,52.9,12.77l-2.177-.038A3.533,3.533,0,0,1,48.3,11.654l-.021-.021A3.525,3.525,0,0,1,47.2,9.2l-.037-2.177a2.924,2.924,0,0,0-4.343-2.507L40.932,5.567a3.529,3.529,0,0,1-2.657.278c-.016-.006-.032-.007-.05-.013A3.537,3.537,0,0,1,36.088,4.27l-1.111-1.85a2.925,2.925,0,0,0-5.015,0L28.856,4.263A3.575,3.575,0,0,1,26.7,5.838a.215.215,0,0,1-.029.007,3.543,3.543,0,0,1-2.679-.281L22.115,4.522a2.924,2.924,0,0,0-4.343,2.507L17.732,9.2a3.539,3.539,0,0,1-1.078,2.429.091.091,0,0,0-.021.021,3.529,3.529,0,0,1-2.429,1.078l-2.177.037A2.923,2.923,0,0,0,9.521,17.11L10.569,19a3.529,3.529,0,0,1,.278,2.657c-.007.016-.01.034-.016.05a3.543,3.543,0,0,1-1.561,2.138L7.42,24.952a2.925,2.925,0,0,0,0,5.015l1.85,1.111a3.537,3.537,0,0,1,1.561,2.138c.006.016.007.032.013.05a3.527,3.527,0,0,1-.278,2.657L9.518,37.809a2.924,2.924,0,0,0,2.507,4.343l2.177.037a3.533,3.533,0,0,1,2.429,1.078l.021.021a3.529,3.529,0,0,1,1.078,2.429l.037,2.177A2.924,2.924,0,0,0,22.109,50.4L24,49.352a3.529,3.529,0,0,1,2.657-.278c.016.006.034.007.05.013a3.537,3.537,0,0,1,2.138,1.561l1.111,1.85a2.925,2.925,0,0,0,5.015,0l1.111-1.85a3.537,3.537,0,0,1,2.138-1.561c.016-.006.034-.007.05-.013a3.527,3.527,0,0,1,2.657.278L42.808,50.4a2.924,2.924,0,0,0,4.343-2.507l.037-2.177a3.533,3.533,0,0,1,1.078-2.429l.021-.021a3.529,3.529,0,0,1,2.429-1.078l2.177-.037A2.924,2.924,0,0,0,55.4,37.809l-1.048-1.886a3.529,3.529,0,0,1-.278-2.657c.006-.016.007-.032.013-.05a3.537,3.537,0,0,1,1.561-2.138l1.85-1.111A2.918,2.918,0,0,0,57.509,24.955Z" transform="translate(-6.001 -1.002)" fill="url(#linear-gradient-33)"/>
        <ellipse id="Ellipse_51" data-name="Ellipse 51" cx="14.829" cy="14.211" rx="14.829" ry="14.211" transform="translate(11.269 12.165)" fill="none" stroke="#ffdf26" stroke-width="2"/>
      </g>
      <path id="Polygone_15" data-name="Polygone 15" d="M22.362,3.415a1.2,1.2,0,0,1,2.277,0l4.547,13.641a1.2,1.2,0,0,0,.759.759l13.641,4.547a1.2,1.2,0,0,1,0,2.277L29.944,29.185a1.2,1.2,0,0,0-.759.759L24.638,43.585a1.2,1.2,0,0,1-2.277,0L17.815,29.944a1.2,1.2,0,0,0-.759-.759L3.415,24.638a1.2,1.2,0,0,1,0-2.277l13.641-4.547a1.2,1.2,0,0,0,.759-.759Z" transform="translate(1830.764 2666.5)" fill="#75a3ff"/>
      <path id="Polygone_16" data-name="Polygone 16" d="M32.887,4.838a1.7,1.7,0,0,1,3.226,0l6.743,20.23a1.7,1.7,0,0,0,1.075,1.075l20.23,6.743a1.7,1.7,0,0,1,0,3.226l-20.23,6.743a1.7,1.7,0,0,0-1.075,1.075l-6.743,20.23a1.7,1.7,0,0,1-3.226,0l-6.743-20.23a1.7,1.7,0,0,0-1.075-1.075L4.838,36.113a1.7,1.7,0,0,1,0-3.226l20.23-6.743a1.7,1.7,0,0,0,1.075-1.075Z" transform="translate(1768.764 2579.5)" fill="#75a3ff"/>
      <path id="Polygone_17" data-name="Polygone 17" d="M21.554,3.906a.7.7,0,0,1,1.379,0l2.562,14.518a.7.7,0,0,0,.568.568L40.58,21.554a.7.7,0,0,1,0,1.379L26.062,25.494a.7.7,0,0,0-.568.568L22.932,40.58a.7.7,0,0,1-1.379,0L18.992,26.062a.7.7,0,0,0-.568-.568L3.906,22.932a.7.7,0,0,1,0-1.379l14.518-2.562a.7.7,0,0,0,.568-.568Z" transform="translate(1352.995 2703.273)" fill="#f7faff"/>
    </g>
  </g>
</svg>
