<svg xmlns="http://www.w3.org/2000/svg" width="293.674" height="635.049" viewBox="0 0 293.674 635.049">
  <g id="Calendar_Isometric" data-name="Calendar Isometric" transform="translate(-73.157 -0.014)">
    <g id="Calendar" transform="translate(140.772 0.014)">
      <path id="Tracé_5225" data-name="Tracé 5225" d="M320.42,513.241l-208.51-120.4V97.05L320.42,217.428Z" transform="translate(-109.618 77.971)" fill="#deeaff"/>
      <path id="Tracé_5226" data-name="Tracé 5226" d="M140.718,136.054l-23.228-13.4V109.58l23.228,13.4Z" transform="translate(-105.135 88.038)" fill="#3f6fc0"/>
      <path id="Tracé_5227" data-name="Tracé 5227" d="M156.048,144.9,132.82,131.5V118.43l23.228,13.4Z" transform="translate(-92.819 95.148)" fill="#3f6fc0"/>
      <path id="Tracé_5228" data-name="Tracé 5228" d="M171.158,153.642,147.93,140.225V127.15l23.228,13.417Z" transform="translate(-80.679 102.154)" fill="#3f6fc0"/>
      <path id="Tracé_5229" data-name="Tracé 5229" d="M186.488,162.492,163.26,149.075V136l23.228,13.417Z" transform="translate(-68.363 109.264)" fill="#3f6fc0"/>
      <path id="Tracé_5230" data-name="Tracé 5230" d="M201.77,171.322,178.56,157.9V144.83l23.21,13.417Z" transform="translate(-56.071 116.358)" fill="#3f6fc0"/>
      <path id="Tracé_5231" data-name="Tracé 5231" d="M217.108,180.172,193.88,166.755V153.68L217.108,167.1Z" transform="translate(-43.762 123.468)" fill="#345b9e"/>
      <path id="Tracé_5232" data-name="Tracé 5232" d="M232.24,188.912l-23.21-13.417V162.42l23.21,13.417Z" transform="translate(-31.591 130.49)" fill="#345b9e"/>
      <path id="Tracé_5233" data-name="Tracé 5233" d="M140.748,162.137,117.52,148.72V123.49l23.228,13.4Z" transform="translate(-105.111 99.213)" fill="#7cacff"/>
      <path id="Tracé_5234" data-name="Tracé 5234" d="M156.06,170.987,132.85,157.57V132.34l23.21,13.4Z" transform="translate(-92.794 106.323)" fill="#7cacff"/>
      <path id="Tracé_5235" data-name="Tracé 5235" d="M171.17,179.707l-23.21-13.4V141.06l23.21,13.417Z" transform="translate(-80.655 113.329)" fill="#7cacff"/>
      <path id="Tracé_5236" data-name="Tracé 5236" d="M186.508,188.557l-23.228-13.4V149.91l23.228,13.4Z" transform="translate(-68.347 120.439)" fill="#7cacff"/>
      <path id="Tracé_5237" data-name="Tracé 5237" d="M201.808,197.387l-23.228-13.4V158.74l23.228,13.417Z" transform="translate(-56.055 127.533)" fill="#7cacff"/>
      <path id="Tracé_5238" data-name="Tracé 5238" d="M217.138,206.237l-23.228-13.4V167.59l23.228,13.417Z" transform="translate(-43.738 134.643)" fill="#7cacff"/>
      <path id="Tracé_5239" data-name="Tracé 5239" d="M232.278,214.977l-23.228-13.4V176.33l23.228,13.417Z" transform="translate(-31.575 141.665)" fill="#7cacff"/>
      <path id="Tracé_5240" data-name="Tracé 5240" d="M140.748,183.277l-23.228-13.4V144.63l23.228,13.417Z" transform="translate(-105.111 116.197)" fill="#213962"/>
      <path id="Tracé_5241" data-name="Tracé 5241" d="M156.068,192.127l-23.228-13.4V153.48L156.068,166.9Z" transform="translate(-92.802 123.307)" fill="#213962"/>
      <path id="Tracé_5242" data-name="Tracé 5242" d="M171.17,200.839l-23.21-13.4V162.21l23.21,13.4Z" transform="translate(-80.655 130.321)" fill="#213962"/>
      <path id="Tracé_5243" data-name="Tracé 5243" d="M186.508,209.7,163.28,196.3V171.05l23.228,13.417Z" transform="translate(-68.347 137.423)" fill="#213962"/>
      <path id="Tracé_5244" data-name="Tracé 5244" d="M201.808,218.527l-23.228-13.4V179.88L201.808,193.3Z" transform="translate(-56.055 144.517)" fill="#213962"/>
      <path id="Tracé_5245" data-name="Tracé 5245" d="M217.12,227.369l-23.21-13.4V188.74l23.21,13.4Z" transform="translate(-43.738 151.635)" fill="#467ad4"/>
      <path id="Tracé_5246" data-name="Tracé 5246" d="M232.278,236.127,209.05,222.71V197.48l23.228,13.4Z" transform="translate(-31.575 158.657)" fill="#467ad4"/>
      <path id="Tracé_5247" data-name="Tracé 5247" d="M140.47,202.757l-23.21-13.4V164.11l23.21,13.417Z" transform="translate(-105.32 131.848)" fill="#213962"/>
      <path id="Tracé_5248" data-name="Tracé 5248" d="M155.808,211.607l-23.228-13.4V172.96l23.228,13.417Z" transform="translate(-93.011 138.958)" fill="#213962"/>
      <path id="Tracé_5249" data-name="Tracé 5249" d="M170.918,220.337,147.69,206.92V181.69l23.228,13.4Z" transform="translate(-80.872 145.971)" fill="#213962"/>
      <path id="Tracé_5250" data-name="Tracé 5250" d="M186.248,229.187,163.02,215.77V190.54l23.228,13.4Z" transform="translate(-68.556 153.082)" fill="#213962"/>
      <path id="Tracé_5251" data-name="Tracé 5251" d="M201.548,238.017,178.32,224.6V199.37l23.228,13.4Z" transform="translate(-56.263 160.176)" fill="#213962"/>
      <path id="Tracé_5252" data-name="Tracé 5252" d="M216.86,246.867,193.65,233.45V208.22l23.21,13.4Z" transform="translate(-43.947 167.286)" fill="#467ad4"/>
      <path id="Tracé_5253" data-name="Tracé 5253" d="M232,255.607,208.79,242.19V216.96l23.21,13.4Z" transform="translate(-31.784 174.308)" fill="#467ad4"/>
      <path id="Tracé_5254" data-name="Tracé 5254" d="M140.848,222.607,117.62,209.19V183.96l23.228,13.4Z" transform="translate(-105.03 147.795)" fill="#213962"/>
      <path id="Tracé_5255" data-name="Tracé 5255" d="M156.178,231.457,132.95,218.04V192.81l23.228,13.4Z" transform="translate(-92.714 154.905)" fill="#213962"/>
      <path id="Tracé_5256" data-name="Tracé 5256" d="M171.288,240.177l-23.228-13.4V201.53l23.228,13.417Z" transform="translate(-80.575 161.911)" fill="#213962"/>
      <path id="Tracé_5257" data-name="Tracé 5257" d="M186.618,249.027l-23.228-13.4V210.38L186.618,223.8Z" transform="translate(-68.258 169.021)" fill="#213962"/>
      <path id="Tracé_5258" data-name="Tracé 5258" d="M201.9,257.857l-23.21-13.4V219.21l23.21,13.417Z" transform="translate(-55.966 176.115)" fill="#213962"/>
      <path id="Tracé_5259" data-name="Tracé 5259" d="M217.238,266.707l-23.228-13.4V228.06l23.228,13.417Z" transform="translate(-43.658 183.226)" fill="#467ad4"/>
      <path id="Tracé_5260" data-name="Tracé 5260" d="M232.378,275.447l-23.228-13.4.018-25.248,23.21,13.417Z" transform="translate(-31.494 190.247)" fill="#467ad4"/>
      <path id="Tracé_5261" data-name="Tracé 5261" d="M140.848,243.747l-23.228-13.4V205.1l23.228,13.417Z" transform="translate(-105.03 164.779)" fill="#213962"/>
      <path id="Tracé_5262" data-name="Tracé 5262" d="M156.178,252.6,132.95,239.2V213.95l23.228,13.417Z" transform="translate(-92.714 171.889)" fill="#213962"/>
      <path id="Tracé_5263" data-name="Tracé 5263" d="M171.288,261.309l-23.228-13.4V222.68l23.228,13.4Z" transform="translate(-80.575 178.903)" fill="#213962"/>
      <path id="Tracé_5264" data-name="Tracé 5264" d="M186.618,270.167l-23.228-13.4V231.52l23.228,13.417Z" transform="translate(-68.258 186.005)" fill="#213962"/>
      <path id="Tracé_5265" data-name="Tracé 5265" d="M201.9,279.007,178.69,265.59V240.36l23.21,13.4Z" transform="translate(-55.966 193.107)" fill="#213962"/>
      <path id="Tracé_5266" data-name="Tracé 5266" d="M217.238,287.839l-23.228-13.4V249.21l23.228,13.4Z" transform="translate(-43.658 200.218)" fill="#467ad4"/>
      <path id="Tracé_5267" data-name="Tracé 5267" d="M232.378,296.6,209.15,283.18V257.95l23.228,13.4Z" transform="translate(-31.494 207.24)" fill="#467ad4"/>
      <path id="Tracé_5268" data-name="Tracé 5268" d="M140.588,263.219l-23.228-13.4V224.59l23.228,13.4Z" transform="translate(-105.239 180.438)" fill="#213962"/>
      <path id="Tracé_5269" data-name="Tracé 5269" d="M155.918,272.077l-23.228-13.4V233.43l23.228,13.417Z" transform="translate(-92.923 187.54)" fill="#213962"/>
      <path id="Tracé_5270" data-name="Tracé 5270" d="M171.028,280.807,147.8,267.39V242.16l23.228,13.4Z" transform="translate(-80.783 194.554)" fill="#213962"/>
      <path id="Tracé_5271" data-name="Tracé 5271" d="M186.34,289.657,163.13,276.24V251.01l23.21,13.4Z" transform="translate(-68.467 201.664)" fill="#7cacff"/>
      <path id="Tracé_5272" data-name="Tracé 5272" d="M201.648,298.487,178.42,285.07V259.84l23.228,13.4Z" transform="translate(-56.183 208.758)" fill="#7cacff"/>
      <path id="Tracé_5273" data-name="Tracé 5273" d="M216.978,307.337,193.75,293.92V268.69l23.228,13.4Z" transform="translate(-43.867 215.868)" fill="#7cacff"/>
      <path id="Tracé_5274" data-name="Tracé 5274" d="M232.118,316.077,208.89,302.66V277.43l23.228,13.4Z" transform="translate(-31.703 222.89)" fill="#7cacff"/>
      <path id="Tracé_5275" data-name="Tracé 5275" d="M163.02,283.4l105.752,61.063V332.835L163.02,271.79Z" transform="translate(-68.556 218.359)" fill="#7cacff"/>
      <path id="Tracé_5276" data-name="Tracé 5276" d="M127.167,91.84l-15.257,9.4L320.42,221.613l15.257-9.4Z" transform="translate(-109.618 73.785)" fill="#fff"/>
      <path id="Tracé_5277" data-name="Tracé 5277" d="M227.53,463.8l15.257-9.4V158.59l-15.257,9.4Z" transform="translate(-16.728 127.413)" fill="#99beff"/>
      <path id="Tracé_5278" data-name="Tracé 5278" d="M320.42,278.084,111.91,157.706V5.21L320.42,125.588Z" transform="translate(-109.618 4.186)" fill="#deeaff"/>
      <path id="Tracé_5279" data-name="Tracé 5279" d="M304.936,248.918,117.49,140.713V14.33l187.446,108.2Z" transform="translate(-105.135 11.513)" fill="#3f6fc0"/>
      <path id="Tracé_5280" data-name="Tracé 5280" d="M161.74,88.022a9.883,9.883,0,0,0,2.362,1.912c2.615,1.5,4.346.271,4.346-6.2V53.884l-4.436-2.6V43.37l19.675,11.361v7.917l-4.346-2.507V89.988c0,10.694-3.967,14.427-14.752,8.278a14.321,14.321,0,0,1-2.777-2.272Z" transform="translate(-69.584 34.844)" fill="#eaf2ff"/>
      <path id="Tracé_5281" data-name="Tracé 5281" d="M195.577,102.247V94.33l4.959,2.867-1.082-4.743-10.73-6.2-1.1,3.481,4.076,2.362v7.917L175,90.4V82.482l3.607,2.056,7.051-22.452-2.146-1.244V53.05l20.108,11.6,9.251,39.675,3.607,2.11v7.845Zm1.93-18.16-3.445-15.058-3.408,11.091Z" transform="translate(-58.931 42.621)" fill="#eaf2ff"/>
      <path id="Tracé_5282" data-name="Tracé 5282" d="M235.827,93.219v34.445l-11.235-6.492L211.247,90.514v15.221l4.022,2.326v7.809L199.2,106.582V98.719l3.084,1.8V73.85l-3.03-1.8V64.31l15.022,8.674L227.1,102.56V88.133l-3.607-2.056V78.323l15.744,9.017v7.809Z" transform="translate(-39.488 51.667)" fill="#eaf2ff"/>
      <path id="Tracé_5283" data-name="Tracé 5283" d="M150.751,58.165c0,.451-.307.631-.685.4L147.2,56.921l2.128,3.012c.307.433.379.974.144,1.208a.451.451,0,0,1-.559,0,1.424,1.424,0,0,1-.415-.4l-3.607-5.176L142.87,54.4l.721,1.028c.307.433.379.974.144,1.208a.451.451,0,0,1-.559,0,1.424,1.424,0,0,1-.415-.4l-2.254-3.21-2.074-1.19,5.266,9.576c.27.469.252.956,0,1.1a.451.451,0,0,1-.469,0,1.641,1.641,0,0,1-.5-.541l-5.194-9.432v2.669l1.641,3.607c.234.5.162.956-.144,1.028s-.739-.234-.974-.721l-.523-1.154v2.344l2.669,5.753c.216.487.162.956-.162,1.046s-.739-.252-.956-.739l-1.551-3.39v2.849c0,.433-.307.613-.7.4a1.533,1.533,0,0,1-.685-1.208V62.132l-1.551,1.587c-.126.144-.343.126-.559,0a1.317,1.317,0,0,1-.4-.379c-.325-.451-.4-.992-.162-1.226l2.669-2.759V57.1l-.523.541a.433.433,0,0,1-.559,0,1.37,1.37,0,0,1-.415-.379c-.307-.451-.379-.992-.162-1.226l1.659-1.8V51.546L130.462,54.4a.487.487,0,0,1-.487,0,1.479,1.479,0,0,1-.5-.541c-.252-.469-.234-.974,0-1.118l5.573-2.8-1.479-.848-2.272.6a.559.559,0,0,1-.4,0,1.389,1.389,0,0,1-.559-.667c-.234-.469-.162-.938.144-1.01l.721-.2-2.02-1.172-3.607.974a.523.523,0,0,1-.415-.09,1.425,1.425,0,0,1-.559-.649c-.234-.487-.162-.956.144-1.028l2.128-.559-3.3-1.912a1.551,1.551,0,0,1-.7-1.208c0-.433.325-.613.7-.4l3.336,1.93-2.146-3.03c-.325-.433-.4-.974-.162-1.208s.649,0,.956.379l3.733,5.23,1.966,1.136-.739-1.028c-.307-.433-.379-.974-.144-1.208s.649,0,.956.379l2.308,3.246,1.605.92-5.41-9.63c-.252-.469-.234-.974,0-1.118s.721.144.992.613l5.194,9.432V45.4l-1.623-3.607c-.234-.5-.144-.956.162-1.046s.739.252.956.757l.5,1.082v-2.2l-2.651-5.789c-.216-.487-.144-.938.162-1.028s.739.252.974.739l1.515,3.336V34.36c0-.451.307-.631.685-.4a1.5,1.5,0,0,1,.7,1.19v3.3l1.587-1.587c.216-.234.649,0,.956.379s.379.992.144,1.208l-2.561,2.741v2.326l.559-.559c.216-.216.649,0,.974.4a1.007,1.007,0,0,1,.144,1.208l-1.677,1.677v2.417l5.681-2.849c.271-.126.721.144.974.613s.252.974,0,1.118l-5.555,2.777,1.8,1.082,2.308-.577a1.242,1.242,0,0,1,.974.757c.234.487.144.938-.162,1.01l-.739.18,1.966,1.154,3.733-.938a1.215,1.215,0,0,1,.974.739c.234.487.144.956-.162,1.028l-2.164.541,2.9,1.677a1.515,1.515,0,0,1,.685,1.19Z" transform="translate(-100.812 26.956)" fill="#f0f0f0"/>
      <path id="Tracé_5284" data-name="Tracé 5284" d="M161.083,51.066c0,.2-.144.289-.325.18l-1.371-.775L160.4,51.9c.144.216.18.469,0,.577s-.162,0-.271,0a.848.848,0,0,1-.2-.18l-1.8-2.471-.956-.559.343.5c.144.2.18.451,0,.559s-.162,0-.271,0a.848.848,0,0,1-.2-.18l-1.064-1.533-.992-.559,2.525,4.581c.126.216.108.451,0,.523a.2.2,0,0,1-.216,0,.667.667,0,0,1-.253-.252l-2.471-4.472V49.7l.794,1.7a.686.686,0,0,1,0,.487.74.74,0,0,1-.469-.361l-.252-.541v1.118l1.28,2.741a.7.7,0,0,1,0,.487.74.74,0,0,1-.469-.361l-.739-1.569v1.353c0,.2-.144.289-.325.18a.721.721,0,0,1-.325-.559V52.978l-.739.757h-.27a.559.559,0,0,1-.18-.18.487.487,0,0,1-.09-.577l1.28-1.3V50.6l-.252.252h-.27a.6.6,0,0,1-.2-.18.5.5,0,0,1,0-.577l.794-.812V47.946l-2.705,1.371a.234.234,0,0,1-.216,0,.848.848,0,0,1-.252-.252c-.126-.234-.108-.469,0-.541l2.651-1.316-.7-.415-1.082.289a.27.27,0,0,1-.2,0,.631.631,0,0,1-.252-.307.687.687,0,0,1,0-.487h.343l-.974-.559-1.8.451a.271.271,0,0,1-.2,0,.631.631,0,0,1-.252-.307c-.108-.234-.09-.451,0-.487l.992-.271-1.335-1.064a.757.757,0,0,1-.343-.577c0-.2.162-.289.343-.18l1.587.9-1.028-1.425c-.144-.216-.18-.469,0-.577s.307,0,.451.18l1.8,2.489.938.541-.343-.5c-.144-.2-.18-.451,0-.559s.307,0,.451.162l1.1,1.551.757.433-2.525-4.563c-.126-.234-.108-.469,0-.541s.343,0,.469.289l2.471,4.49v-1.1l-.775-1.677a.687.687,0,0,1,0-.487.76.76,0,0,1,.469.343l.234.523V42.68l-1.262-2.741a.687.687,0,0,1,0-.487.76.76,0,0,1,.469.343l.721,1.587V39.831c0-.2.144-.289.325-.18a.739.739,0,0,1,.325.577v1.551l.757-.757c.108-.108.307,0,.451.2s.18.469,0,.559l-1.28,1.28v.992l.27-.271c.108-.09.307,0,.469.2s.18.469,0,.559l-.812.812V46.5l2.705-1.371a.443.443,0,0,1,.469.289c.126.289.108.469,0,.541l-2.651,1.316.9.523,1.1-.289a.568.568,0,0,1,.451.361.686.686,0,0,1,0,.487h-.361l.938.541,1.8-.451a.568.568,0,0,1,.451.361.686.686,0,0,1,0,.487l-1.028.252,1.389.793a.739.739,0,0,1,.271.721Z" transform="translate(-80.775 31.692)" fill="#f0f0f0"/>
      <path id="Tracé_5285" data-name="Tracé 5285" d="M137.819,86.208a.216.216,0,0,1-.343.2l-1.353-.794,1.01,1.443c.144.2.18.469,0,.577a.252.252,0,0,1-.27,0,.686.686,0,0,1-.2-.2l-1.8-2.453-.812-.577.343.487c.144.216.18.469,0,.577a.252.252,0,0,1-.27,0,.9.9,0,0,1-.2-.18l-1.064-1.533-.992-.577,2.525,4.581c.126.234.108.469,0,.523a.2.2,0,0,1-.216,0,.739.739,0,0,1-.252-.271l-2.471-4.472V84.8l.794,1.7a.3.3,0,1,1-.469.144l-.253-.541v1.118l1.28,2.723a.815.815,0,0,1,0,.487c0,.036-.343-.108-.451-.343l-.739-1.587v1.317c0,.216-.144.289-.325.2a.739.739,0,0,1-.325-.577V88.066l-.739.757a.252.252,0,0,1-.271,0,.9.9,0,0,1-.2-.18c-.144-.216-.18-.469,0-.577l1.28-1.316V85.667l-.252.271a.252.252,0,0,1-.27,0,.631.631,0,0,1-.2-.18c-.144-.216-.18-.469,0-.577l.487-.775V83.07L128.1,84.423a.271.271,0,0,1-.234,0,.7.7,0,0,1-.234-.271c-.126-.216-.108-.451,0-.523l2.651-1.335-.7-.4-1.082.289a.271.271,0,0,1-.2,0,.992.992,0,0,1-.271-.325c0-.216,0-.451,0-.487l.361-.09-.974-.559-1.8.469a.27.27,0,0,1-.2,0,.757.757,0,0,1-.018-.4v-.487l1.01-.271-1.569-.92a.7.7,0,0,1-.325-.559c0-.216.144-.307.325-.2l1.587.92-1.01-1.443a.523.523,0,0,1,0-.577c.108-.108.325,0,.469.18l1.8,2.489.938.541-.343-.487a.523.523,0,0,1,0-.577c.108-.108.325,0,.469.18l1.1,1.533.757.451-2.525-4.581c-.126-.216-.108-.469,0-.523s.343,0,.469.289l2.254,4.472V80.149l-.775-1.677a.741.741,0,0,1,0-.5.683.683,0,0,1,.451.361l.252.523V77.768l-1.262-2.741a.309.309,0,1,1,.469-.144l.721,1.569V74.919c0-.216.144-.289.325-.2a.739.739,0,0,1,.325.577v1.569l.757-.757c.108-.108.307,0,.451.18s.18.469,0,.577l-1.28,1.28v1.118l.27-.271c.108-.108.307,0,.451.18a.487.487,0,0,1,0,.577l-.794.794V81.7l2.705-1.353a.443.443,0,0,1,.469.289c.126.289.108.469,0,.523l-2.651,1.335.9.5,1.082-.271a.567.567,0,0,1,.469.361.687.687,0,0,1,0,.487h-.361l.938.541,1.8-.433a.567.567,0,0,1,.469.361.634.634,0,0,1,0,.469l-1.028.271,1.371.793A.757.757,0,0,1,137.819,86.208Z" transform="translate(-99.495 59.868)" fill="#f0f0f0"/>
      <path id="Tracé_5286" data-name="Tracé 5286" d="M187.239,96.961c0,.2-.144.289-.325.18l-1.371-.775,1.01,1.425c.144.216.18.469,0,.577s-.162,0-.27,0l-.2-.18-1.8-2.471-.956-.559.343.487c.144.216.18.469,0,.577s-.162,0-.27,0a.848.848,0,0,1-.2-.18l-1.064-1.533-.992-.559,2.525,4.563c.126.234.108.469,0,.541a.252.252,0,0,1-.216,0,.847.847,0,0,1-.252-.252l-2.471-4.49v1.28l.793,1.677a.752.752,0,0,1,0,.5c0,.054-.361-.126-.469-.361l-.252-.541v1.118l1.28,2.723a.753.753,0,0,1,0,.5c0,.054-.361-.126-.469-.361l-.739-1.587v1.353c0,.216-.144.307-.325.2a.739.739,0,0,1-.325-.577V98.836l-.739.757h-.271a.56.56,0,0,1-.18-.18c-.162-.2-.2-.469-.09-.577l1.28-1.316V96.456l-.252.252H179.7a.6.6,0,0,1-.2-.18c-.144-.2-.18-.469,0-.577l.794-.812V93.787l-2.705,1.353a.2.2,0,0,1-.216,0,.74.74,0,0,1-.253-.271c-.126-.216-.108-.451,0-.523l2.651-1.316-.7-.415-1.082.289a.27.27,0,0,1-.2,0,.848.848,0,0,1-.252-.307.686.686,0,0,1,0-.487L177.88,92l-.974-.559-1.8.469a.27.27,0,0,1-.2,0,.631.631,0,0,1-.252-.307c-.108-.234-.09-.451,0-.487l1.01-.271-1.569-.9a.757.757,0,0,1-.343-.577c0-.216.162-.289.343-.2l1.587.92-1.028-1.443c-.144-.2-.18-.451,0-.559s.307,0,.451.18l1.8,2.471.938.541-.343-.487c-.144-.2-.18-.469,0-.577s.307,0,.451.18l1.1,1.551.757.433L177.285,87.8c-.126-.216-.108-.451,0-.523s.343,0,.469.289l2.525,4.418V90.9l-.775-1.677a.3.3,0,1,1,.469-.144l.234.523V88.521l-1.262-2.741a.3.3,0,1,1,.469-.144l.721,1.587V85.671c0-.2.144-.289.325-.18a.7.7,0,0,1,.325.559v1.569l.757-.757c.108-.108.307,0,.451.18a.487.487,0,0,1,0,.577l-1.28,1.28v1.118l.27-.271c.108-.108.325,0,.469.2s.18.451,0,.559l-.812.794v1.154l2.705-1.353a.443.443,0,0,1,.469.289c.126.289.108.469,0,.541l-2.651,1.316.9.5,1.1-.271a.568.568,0,0,1,.451.361.687.687,0,0,1,0,.487h-.361l.956.541,1.8-.451a.568.568,0,0,1,.451.361.687.687,0,0,1,0,.487l-1.028.252,1.389.794a.739.739,0,0,1,.415.649Z" transform="translate(-59.935 68.52)" fill="#f0f0f0"/>
      <path id="Tracé_5287" data-name="Tracé 5287" d="M221.525,137.928c0,.216-.144.307-.325.2l-1.353-.794.992,1.443c.162.2.2.469.09.559a.2.2,0,0,1-.271,0,.469.469,0,0,1-.2-.18l-1.8-2.471-.974-.541.343.487c.162.2.2.469,0,.577a.252.252,0,0,1-.27,0,.523.523,0,0,1-.2-.2l-1.082-1.515-.974-.577,2.525,4.581c.108.216.108.451,0,.523a.271.271,0,0,1-.234,0,.577.577,0,0,1-.234-.27l-2.471-4.472v1.262l.775,1.7a.686.686,0,0,1,0,.487c0,.036-.343-.108-.451-.343l-.252-.541v1.1l1.262,2.741a.687.687,0,0,1,0,.487c0,.036-.343-.108-.469-.343l-.721-1.587v1.353c0,.216-.144.289-.325.2a.776.776,0,0,1-.343-.577V139.84l-.739.757a.216.216,0,0,1-.252,0,.631.631,0,0,1-.2-.18c-.144-.216-.18-.469,0-.577l1.262-1.316v-1.082l-.252.252a.2.2,0,0,1-.253,0,.632.632,0,0,1-.2-.18c-.144-.216-.18-.469,0-.577l.775-.83v-1.352L212,136.107h-.216a.469.469,0,0,1-.234-.252c-.126-.216-.126-.469,0-.523L214.185,134l-.7-.4-1.064.289a.27.27,0,0,1-.2,0,.649.649,0,0,1-.27-.307.687.687,0,0,1,0-.487l.343-.09-.956-.559-1.8.469a.271.271,0,0,1-.2,0,.811.811,0,0,1-.27-.325.7.7,0,0,1,0-.487l1.01-.271-1.569-.9a.721.721,0,0,1-.325-.559c0-.216.144-.307.325-.2l1.587.92-1.028-1.443c-.144-.216-.18-.469,0-.577s.307,0,.451.18l1.8,2.489.938.541-.361-.487c-.144-.216-.18-.469,0-.577s.307,0,.451.18l1.1,1.533.757.433L211.7,128.8c-.126-.234-.126-.469,0-.541s.343,0,.469.289l2.471,4.491v-1.082l-.775-1.7a.381.381,0,0,1,.09-.487c.09-.036.343.126.451.361l.234.523v-1.082l-1.244-2.759a.687.687,0,0,1,0-.487c0-.036.343.126.451.361l.721,1.569v-1.533a.216.216,0,0,1,.343-.2.74.74,0,0,1,.325.577v1.569l.739-.757c.108-.108.325,0,.469.18s.18.469,0,.577l-1.28,1.28v1.1l.271-.252c0-.108.307,0,.451.18s.18.469,0,.577l-.794.794v1.154l2.705-1.353a.424.424,0,0,1,.451.289c.126.289.126.451,0,.523L215.61,134.3l.884.5,1.1-.271a.59.59,0,0,1,.469.361.634.634,0,0,1,0,.469l-.343.09.938.541,1.8-.433a.564.564,0,0,1,.469.343.381.381,0,0,1-.09.487l-1.01.252,1.371.812a.7.7,0,0,1,.325.469Z" transform="translate(-32.274 101.492)" fill="#f0f0f0"/>
      <path id="Tracé_5288" data-name="Tracé 5288" d="M213.683,110.575c0,.144-.108.216-.234.126l-.992-.559.739,1.046c.108.144.126.343,0,.415s-.126,0-.2,0a.36.36,0,0,1-.144-.144l-1.262-1.8-.7-.415.253.361c.108.144.126.343,0,.415a.144.144,0,0,1-.2,0,.325.325,0,0,1-.144-.126L210,108.771l-.721-.415,1.8,3.336a.516.516,0,0,1,0,.379.144.144,0,0,1-.162,0,.433.433,0,0,1-.18-.18l-1.8-3.264v.92l.577,1.226v.361a.348.348,0,0,1-.343-.252l-.18-.4v.812l.92,2a.467.467,0,0,1,0,.361c0,.036-.252-.09-.325-.271l-.541-1.154v.992c0,.162-.108.216-.234.144a.523.523,0,0,1-.252-.415v-1.01l-.523.559a.2.2,0,0,1-.2,0,.487.487,0,0,1-.2-.559l.92-.956V110.2l-.18.2a.162.162,0,0,1-.18,0,.488.488,0,0,1-.144-.126c-.108-.162-.144-.343,0-.433l.559-.6v-.956l-1.966.974h-.162a.433.433,0,0,1-.18-.18c-.09-.162,0-.343,0-.4l1.93-.956-.5-.307-.794.216a.307.307,0,0,1-.144,0,.577.577,0,0,1-.2-.216c0-.18,0-.325,0-.361h.252l-.7-.4-1.262.325a.216.216,0,0,1-.144,0,.649.649,0,0,1-.2-.234c0-.162,0-.325,0-.343l.739-.2-1.136-.667a.523.523,0,0,1-.253-.415c0-.162.108-.216.253-.144l1.154.667-.739-1.046c-.108-.144-.144-.343,0-.415s.234,0,.343.126l1.3,1.8.685.4-.27-.361c-.108-.162-.126-.343,0-.415s.234,0,.343.126l.794,1.118.559.325-1.8-3.336c-.09-.162-.09-.343,0-.4s.253,0,.325.216l1.8,3.264v-.794l-.559-1.226v-.361a.379.379,0,0,1,.343.271l.162.379v-.794l-.9-2a.447.447,0,0,1,0-.361.543.543,0,0,1,.325.252l.523,1.154v-1.118c0-.162.108-.216.252-.144a.541.541,0,0,1,.234.415v.938l.559-.541a.482.482,0,0,1,.325.126c.108.126.126.343,0,.415l-.938.938v.866l.2-.18a.518.518,0,0,1,.343.126c.108.126.126.343,0,.415l-.577.577v.866l1.966-.992a.313.313,0,0,1,.343.216.484.484,0,0,1,0,.379l-1.93.974.649.379.793-.2c.108,0,.252,0,.343.252a.409.409,0,0,1,0,.361h-.271l.685.4,1.3-.325c.108,0,.252,0,.343.271s0,.325,0,.343l-.757.2,1.01.577A.523.523,0,0,1,213.683,110.575Z" transform="translate(-35.72 82.083)" fill="#f0f0f0"/>
      <path id="Tracé_5289" data-name="Tracé 5289" d="M182.768,115.083c0,.162-.108.216-.234.144l-.992-.577.739,1.046c.108.162.126.343,0,.415a.144.144,0,0,1-.2,0,.325.325,0,0,1-.144-.126l-1.262-1.8-.7-.4.252.361a.361.361,0,0,1,0,.415.2.2,0,0,1-.2,0,.361.361,0,0,1-.144-.144l-.793-1.1-.721-.433,1.8,3.354v.379a.18.18,0,0,1-.162,0,.487.487,0,0,1-.18-.2l-1.8-3.264v.92l.577,1.244v.361c0,.036-.253,0-.343-.252l-.18-.415v.83l.938,1.984v.361c0,.036-.271,0-.343-.252l-.541-1.154v.992c0,.144-.108.216-.234.126a.541.541,0,0,1-.252-.415v-1.01l-.523.559a.144.144,0,0,1-.2,0s-.09,0-.144-.126-.126-.343,0-.415l.92-.956v-.793l-.18.18h-.18a.324.324,0,0,1-.144-.126c-.108-.144-.144-.343,0-.415l.559-.6v-1.064l-1.966.992a.18.18,0,0,1-.162,0,.487.487,0,0,1-.18-.2.524.524,0,0,1,0-.379l1.93-.974-.5-.289-.794.2a.216.216,0,0,1-.144,0,.649.649,0,0,1-.2-.234v-.343h.252l-.7-.415-1.262.343a.162.162,0,0,1-.144,0,.577.577,0,0,1-.2-.216c0-.162,0-.325,0-.361l.739-.2L173.282,110a.541.541,0,0,1-.252-.433c0-.144.108-.216.252-.126l1.154.667-.739-1.046c-.108-.162-.144-.343,0-.433s.234,0,.343.144l1.3,1.8.685.4-.271-.361c-.108-.144-.126-.343,0-.415s.234,0,.343.126l.793,1.118.559.325-1.8-3.336v-.379c0-.054.252,0,.343.2l1.8,3.282v-.793l-.559-1.226v-.361a.337.337,0,0,1,.343.252l.162.379v-.793l-.9-2a.467.467,0,0,1,0-.361c0-.036.252,0,.325.271l.523,1.154v-1.136a.162.162,0,0,1,.252-.144.577.577,0,0,1,.234.433v1.136l.559-.559a.446.446,0,0,1,.325.144c.108.144.126.343,0,.415l-.938.938v.812l.2-.2a.477.477,0,0,1,.343.144c.108.144.126.343,0,.415l-.577.577v.848l1.966-.992a.317.317,0,0,1,.343.2c.09.2.09.343,0,.4l-1.93.974.649.361.794-.2c.108,0,.252,0,.343.271s0,.325,0,.343h-.27l.685.4,1.3-.325a.446.446,0,0,1,.343.252.467.467,0,0,1,0,.361l-.757.18,1.01.577a.541.541,0,0,1,.216.415Z" transform="translate(-60.513 85.654)" fill="#f0f0f0"/>
      <path id="Tracé_5290" data-name="Tracé 5290" d="M146.7,70.555c0,.144-.108.216-.234.144l-.992-.577.739,1.046c.108.144.126.343,0,.415s-.108,0-.18,0a.325.325,0,0,1-.144-.126l-1.262-1.8-.7-.415.253.361c.108.162.126.343,0,.415a.144.144,0,0,1-.2,0,.325.325,0,0,1-.144-.126l-.793-1.118-.721-.415,1.8,3.336v.4a.252.252,0,0,1-.162,0,.649.649,0,0,1-.18-.2l-1.8-3.264v.92l.577,1.226v.361a.348.348,0,0,1-.343-.252l-.18-.4v.812l.92,2v.361c0,.036-.252-.09-.325-.252l-.541-1.172v.992c0,.162-.108.216-.234.144a.523.523,0,0,1-.252-.415v-1.01l-.523.559a.2.2,0,0,1-.2,0,.486.486,0,0,1-.144-.126.4.4,0,0,1,0-.433l.92-.956v-.794l-.18.2h-.18a.487.487,0,0,1-.144-.126c-.108-.162-.144-.343,0-.433l.559-.6v-.956l-1.966.992a.2.2,0,0,1-.162,0,.433.433,0,0,1-.18-.18.516.516,0,0,1,0-.379l1.93-.974-.5-.307-.794.216a.162.162,0,0,1-.144,0,.469.469,0,0,1-.2-.216v-.361h.253l-.7-.4-1.262.343a.307.307,0,0,1-.144,0,.523.523,0,0,1-.2-.234v-.343l.739-.2-1.136-.667a.487.487,0,0,1-.252-.415c0-.144.108-.216.252-.144l1.154.667-.757-1.046a.361.361,0,0,1,0-.415.518.518,0,0,1,.343.126l1.3,1.8.685.4-.271-.361c-.108-.162-.126-.343,0-.415s.234,0,.343.126l.793,1.118.559.325-1.8-3.336c-.09-.162-.09-.343,0-.4s.252,0,.325.216l1.8,3.264V66.3l-.559-1.226V64.73a.337.337,0,0,1,.343.252l.162.379v-.793l-.9-2a.458.458,0,0,1,0-.361c0-.036.252,0,.325.252l.523,1.154V62.494c0-.162.108-.216.252-.144a.541.541,0,0,1,.234.415v.884l.559-.541a.482.482,0,0,1,.325.126.4.4,0,0,1,0,.433l-.938.92v.866l.2-.18a.518.518,0,0,1,.343.126c.108.126.126.343,0,.415l-.577.6v.848l1.966-.992a.313.313,0,0,1,.343.216c.09.216.09.343,0,.4l-1.93.956.649.379.794-.2c.108,0,.253,0,.343.252a.408.408,0,0,1,0,.361h-.27l.685.4,1.3-.325c.108,0,.252,0,.343.271s0,.325,0,.343l-.757.2,1.01.577A.523.523,0,0,1,146.7,70.555Z" transform="translate(-89.476 49.967)" fill="#f0f0f0"/>
      <path id="Tracé_5291" data-name="Tracé 5291" d="M129.854,28.66c0,.162-.108.216-.252.144l-.992-.577.739,1.046c.108.144.144.343,0,.415a.144.144,0,0,1-.2,0l-.144-.126-1.262-1.8-.7-.415.252.361c.108.162.144.343,0,.415s-.126,0-.2,0l-.144-.144-.775-1.118-.721-.415,1.8,3.336v.4a.18.18,0,0,1-.162,0,.451.451,0,0,1-.162-.2l-1.8-3.264v.92l.559,1.244v.343a.321.321,0,0,1-.325-.252l-.18-.4v.812l.92,2v.361c0,.036-.252-.09-.343-.252l-.523-1.154v.974c0,.162-.108.216-.252.144a.541.541,0,0,1-.234-.415v-1.01l-.541.559h-.18a.325.325,0,0,1-.144-.126c-.108-.162-.144-.343,0-.433l.92-.956V28.3l-.18.18a.144.144,0,0,1-.2,0s-.09,0-.144-.126-.126-.343,0-.415l.577-.6V26.37l-1.966.992a.253.253,0,0,1-.162,0,.649.649,0,0,1-.18-.2c0-.162,0-.343,0-.379l1.93-.974-.523-.289-.775.2a.2.2,0,0,1-.144,0,.649.649,0,0,1-.2-.234v-.361h.252l-.7-.4-1.262.343a.216.216,0,0,1-.144,0,.577.577,0,0,1-.2-.216v-.361l.739-.2L120.4,23.5a.523.523,0,0,1-.234-.415c0-.144.108-.216.234-.144l1.172.685-.757-1.064a.361.361,0,0,1,0-.415.518.518,0,0,1,.343.126l1.28,1.8.685.4-.252-.361c-.108-.144-.126-.343,0-.415s.234,0,.343.126l.793,1.118.559.325-1.8-3.336v-.4c0-.054.252,0,.343.216l1.8,3.264v-.775L124.354,23v-.343a.321.321,0,0,1,.325.252l.18.379v-.794l-.92-2V20.13a.4.4,0,0,1,.343.252l.523,1.154V20.419c0-.162.108-.216.234-.144a.523.523,0,0,1,.252.415v1.154l.541-.559a.477.477,0,0,1,.343.144.361.361,0,0,1,0,.415l-.938.938v.812l.18-.2a.518.518,0,0,1,.343.126c.108.126.126.343,0,.415l-.577.6v.775l1.966-.974a.4.4,0,0,1,.343.2.558.558,0,0,1,0,.4l-1.93.956.649.379.812-.2a.4.4,0,0,1,.325.252.563.563,0,0,1,0,.361H127.1l.685.4,1.3-.325a.391.391,0,0,1,.325.271.491.491,0,0,1,0,.343l-.739.2.992.577A.523.523,0,0,1,129.854,28.66Z" transform="translate(-102.982 16.173)" fill="#f0f0f0"/>
      <path id="Tracé_5292" data-name="Tracé 5292" d="M215.469,128.353c0,.433-.307.613-.685.4l-2.867-1.659,2.11,3.03c.325.433.4.974.162,1.19s-.343.126-.559,0a1.154,1.154,0,0,1-.415-.379l-3.607-5.194-2.038-1.172.739,1.046c.307.433.379.974.144,1.19s-.343.126-.559,0a1.154,1.154,0,0,1-.415-.379l-2.254-3.21-2.092-1.208,5.41,9.63c.252.469.234.974,0,1.118a.5.5,0,0,1-.469,0,1.28,1.28,0,0,1-.505-.559l-5.212-9.414v2.669l1.659,3.607c.234.487.162.938-.162,1.028s-.739-.252-.956-.739l-.541-1.136v2.344l2.669,5.753c.234.487.162.938-.144,1.028s-.739-.252-.974-.739l-1.785-3.463v2.849c0,.451-.307.631-.685.415a1.6,1.6,0,0,1-.7-1.208v-2.9L199.2,133.89c-.144.144-.343.126-.559,0a1.353,1.353,0,0,1-.415-.379c-.307-.433-.379-.974-.162-1.208l2.669-2.777v-2.272l-.523.559c-.126.144-.343.126-.559,0a1.353,1.353,0,0,1-.415-.379c-.289-.433-.379-.974-.144-1.208l1.641-1.8v-2.8l-5.681,2.849a.5.5,0,0,1-.469,0,1.551,1.551,0,0,1-.5-.559c-.27-.469-.234-.974,0-1.1l5.573-2.8-1.5-.866-2.254.613a.523.523,0,0,1-.415-.09,1.55,1.55,0,0,1-.559-.649c-.216-.487-.144-.938.162-1.028l.721-.2-2.038-1.172-3.607.974a.6.6,0,0,1-.415,0,1.677,1.677,0,0,1-.559-.649c-.216-.487-.162-.956.162-1.028l2.11-.577-3.3-1.8a1.587,1.587,0,0,1-.685-1.208c0-.451.307-.631.685-.4l3.354,1.93-2.164-3.03c-.307-.451-.379-.974-.162-1.208s.667,0,.974.361l3.661,5.1,1.966,1.136-.739-1.028c-.307-.451-.379-.992-.162-1.208s.667,0,.974.361l2.308,3.246,1.605.92-5.41-9.612c-.252-.487-.234-.974,0-1.118s.721.126.974.6l5.194,9.432v-2.272l-1.605-3.607c-.234-.487-.162-.956.144-1.028s.739.252.974.739l.487,1.1v-2.272l-2.633-5.789c-.216-.487-.144-.956.162-1.028s.739.252.956.739l1.515,3.318v-3.246c0-.433.325-.613.7-.4a1.533,1.533,0,0,1,.685,1.208v3.282l1.587-1.587c.216-.216.667,0,.974.4s.379.974.144,1.19l-2.705,2.705v2.344l.577-.559c.216-.216.649,0,.956.4s.379.974.144,1.19l-1.677,1.677v2.435l5.7-2.849c.271-.144.7.126.974.6s.234.974,0,1.118l-5.392,2.885,1.8,1.082,2.308-.577a1.169,1.169,0,0,1,.974.739c.216.487.162.956-.144,1.028l-.757.18,1.984,1.136,3.715-.938a1.194,1.194,0,0,1,.974.757c.216.487.162.938-.162,1.01l-2.146.541,2.9,1.677a1.533,1.533,0,0,1,.812,1.208Z" transform="translate(-48.904 83.277)" fill="#f0f0f0"/>
      <path id="Tracé_5293" data-name="Tracé 5293" d="M188.989,112.488c0,.775-.541,1.1-1.208.7l-5.14-2.849,3.733,5.41c.559.757.667,1.8.271,2.11s-.613.216-.992,0a2.543,2.543,0,0,1-.721-.685l-6.42-9.125-3.607-2.074,1.28,1.8c.541.775.667,1.8.27,2.128a.811.811,0,0,1-.992,0,2.326,2.326,0,0,1-.721-.685l-3.986-5.663-3.607-2.11,9.36,16.97c.451.83.415,1.7,0,1.948a.866.866,0,0,1-.83,0,2.6,2.6,0,0,1-.884-.974l-9.251-16.808v4.689l2.9,6.258c.4.866.271,1.677-.27,1.8s-1.3-.433-1.7-1.28l-.938-2.02v4.148l4.689,10.135c.4.848.289,1.659-.252,1.8s-1.316-.415-1.8-1.3l-2.633-5.861v5.013c0,.775-.559,1.1-1.226.7a2.705,2.705,0,0,1-1.226-2.11v-5.1l-2.723,2.813c-.234.252-.613.216-.992,0a2.687,2.687,0,0,1-.7-.667c-.541-.775-.685-1.8-.27-2.128l4.689-4.869v-4l-.92.956a.775.775,0,0,1-.992,0,2.489,2.489,0,0,1-.721-.667c-.541-.775-.667-1.8-.289-2.146l2.922-3.012v-4.905l-10.009,5.013a.884.884,0,0,1-.83-.09,2.8,2.8,0,0,1-.9-.974c-.451-.83-.415-1.8,0-1.948l9.811-4.923-2.615-1.5-3.986,1.046a.992.992,0,0,1-.721-.144,2.651,2.651,0,0,1-.992-1.154c-.4-.848-.271-1.659.27-1.8l1.28-.343-3.607-2.056-6.42,1.8a.974.974,0,0,1-.721-.144,2.543,2.543,0,0,1-.992-1.154c-.4-.848-.289-1.677.271-1.8l3.733-1.01L140.838,86.3a2.687,2.687,0,0,1-1.208-2.11c0-.775.541-1.1,1.208-.7l5.9,3.39-3.805-5.41c-.541-.757-.667-1.8-.271-2.11s1.154-.126,1.7.649l6.763,9.2,3.481,2-1.3-1.8c-.559-.775-.685-1.8-.289-2.128s1.154-.126,1.7.631l4.076,5.735,2.813,1.623-9.36-16.952c-.451-.848-.415-1.713,0-1.966s1.262.234,1.713,1.064l9.143,16.7V90l-2.849-6.24c-.415-.866-.271-1.677.27-1.8s1.316.451,1.713,1.316l.866,1.93V81.18L158.44,70.991c-.379-.866-.271-1.677.289-1.8s1.3.451,1.7,1.316l2.669,5.843V70.667c0-.775.559-1.1,1.226-.7a2.705,2.705,0,0,1,1.226,2.11V77.88l2.777-2.8c.4-.4,1.154,0,1.7.685s.685,1.8.27,2.11l-4.743,4.707V86.7l.992-.974c.379-.4,1.154,0,1.7.685s.667,1.8.27,2.11l-2.958,2.958v4.274l10.009-5.013c.487-.234,1.262.234,1.8,1.064s.415,1.8,0,1.966l-10.009,4.905,3.3,1.912,4.058-1.028c.559-.126,1.335.469,1.713,1.335s.27,1.659-.271,1.8l-1.316.325,3.553,1.912,6.564-1.641c.541-.144,1.316.451,1.8,1.316s.27,1.659-.289,1.8l-3.787.938,5.013,2.994a2.687,2.687,0,0,1,1.3,2.146Z" transform="translate(-87.347 55.572)" fill="#f0f0f0"/>
      <path id="Tracé_5294" data-name="Tracé 5294" d="M111.91,9.4,127.167,0l208.51,120.378-15.257,9.4Z" transform="translate(-109.618)" fill="#fff"/>
      <path id="Tracé_5295" data-name="Tracé 5295" d="M227.53,228.642l15.257-9.4V66.75l-15.257,9.4Z" transform="translate(-16.728 53.628)" fill="#99beff"/>
      <path id="Tracé_5296" data-name="Tracé 5296" d="M130.424,120.823c0,.848-.343,1.407-.866,1.569h-.144a59.924,59.924,0,0,1-6.15,1.19h-.2a7.768,7.768,0,0,0-1.515.09h-.541a8.494,8.494,0,0,1-4.761-1.407,4.885,4.885,0,0,1-.433-.343l-.667-.631-.234-.252a15.473,15.473,0,0,1-4.13-8.4c-.9-6.258,2.579-11.325,4.725-13.94h0a41.064,41.064,0,0,1,9.288-8.819l.577-.4h0a2.525,2.525,0,0,1,1.5-.469,1.911,1.911,0,0,1,1.154.325,5.1,5.1,0,0,1,2.326,4,1.515,1.515,0,0,1-.775,1.533h0a53.869,53.869,0,0,0-8.007,6.871,16.231,16.231,0,0,0-3.318,10.82h0c1.082,5.951,7.646,3.968,7.971,3.877a1.8,1.8,0,0,1,.577-.108h0a1.8,1.8,0,0,1,1.262.307,5.1,5.1,0,0,1,2.362,4.184Z" transform="translate(-110.639 71.511)" fill="#4172c6"/>
      <path id="Tracé_5297" data-name="Tracé 5297" d="M144.15,128.824a1.5,1.5,0,0,1-.866,1.569h-.162a57.151,57.151,0,0,1-6.132,1.208H136.7l-1.425.108h-.541a8.368,8.368,0,0,1-4.761-1.407l-.451-.343c-.162-.18-.4-.361-.649-.631a2.865,2.865,0,0,1-.234-.234,15.6,15.6,0,0,1-4.148-8.422c-.884-6.24,2.6-11.325,4.743-13.94h0a40.234,40.234,0,0,1,9.288-8.819l.577-.4h0a2.561,2.561,0,0,1,1.5-.487,2.218,2.218,0,0,1,1.154.325,5.122,5.122,0,0,1,2.326,4.022,1.515,1.515,0,0,1-.775,1.515h0a54.282,54.282,0,0,0-8.025,6.853,16.231,16.231,0,0,0-3.3,10.82h0c1.082,5.951,7.646,3.968,7.971,3.877a2.345,2.345,0,0,1,.559-.108h0a2.074,2.074,0,0,1,1.262.307,5.14,5.14,0,0,1,2.38,4.184Z" transform="translate(-99.622 77.955)" fill="#4172c6"/>
      <path id="Tracé_5298" data-name="Tracé 5298" d="M157.44,136.344a1.5,1.5,0,0,1-.866,1.569h-.162a57.148,57.148,0,0,1-6.132,1.208h-.2a6.419,6.419,0,0,0-1.515.108h-.541a8.494,8.494,0,0,1-4.761-1.407,4.886,4.886,0,0,1-.433-.343c-.18-.18-.415-.379-.667-.649a1.443,1.443,0,0,1-.234-.234,15.473,15.473,0,0,1-4.148-8.4c-.884-6.258,2.6-11.343,4.743-13.94h0a40.649,40.649,0,0,1,9.288-8.819l.577-.4h0a2.705,2.705,0,0,1,1.5-.487,2.092,2.092,0,0,1,1.154.343,5.1,5.1,0,0,1,2.326,4,1.479,1.479,0,0,1-.775,1.515,54.589,54.589,0,0,0-8.007,6.853,16.231,16.231,0,0,0-3.318,10.82h0c1.082,5.951,7.646,3.967,7.971,3.877a1.7,1.7,0,0,1,.559-.108h0a1.8,1.8,0,0,1,1.262.307,5.1,5.1,0,0,1,2.38,4.184Z" transform="translate(-88.945 83.996)" fill="#4172c6"/>
      <path id="Tracé_5299" data-name="Tracé 5299" d="M170.73,143.974a1.5,1.5,0,0,1-.866,1.569H169.7a57.161,57.161,0,0,1-6.132,1.208h-.289a14.042,14.042,0,0,1-1.425.108h-.541a8.494,8.494,0,0,1-4.761-1.407,3.853,3.853,0,0,1-.433-.361c-.18-.162-.415-.361-.667-.631l-.234-.234a15.473,15.473,0,0,1-4.148-8.4c-.884-6.258,2.6-11.325,4.743-13.94h0a40.649,40.649,0,0,1,9.288-8.819l.577-.4h0a2.7,2.7,0,0,1,1.5-.487,2.092,2.092,0,0,1,1.154.343,5.1,5.1,0,0,1,2.326,4,1.479,1.479,0,0,1-.775,1.515h0a54.59,54.59,0,0,0-8.007,6.853,16.231,16.231,0,0,0-3.318,10.821h0c1.082,5.951,7.646,3.967,7.971,3.877a1.8,1.8,0,0,1,.577-.108h0a1.8,1.8,0,0,1,1.262.307,5.1,5.1,0,0,1,2.362,4.184Z" transform="translate(-78.267 90.126)" fill="#4172c6"/>
      <path id="Tracé_5300" data-name="Tracé 5300" d="M184.45,152.04c0,.848-.343,1.389-.866,1.551h-.162a58.4,58.4,0,0,1-6.132,1.19h-2.254a8.494,8.494,0,0,1-4.761-1.407l-.451-.343c-.162-.18-.4-.379-.649-.631s-.144-.162-.234-.234a15.6,15.6,0,0,1-4.148-8.422c-.884-6.258,2.6-11.325,4.743-13.94h0a40.831,40.831,0,0,1,9.288-8.837l.577-.379h0a2.669,2.669,0,0,1,1.5-.469,2.218,2.218,0,0,1,1.154.325,5.1,5.1,0,0,1,2.326,4,1.515,1.515,0,0,1-.775,1.533h0a55.9,55.9,0,0,0-8.025,6.871,16.231,16.231,0,0,0-3.3,10.82h0c1.082,5.951,7.646,3.967,7.971,3.877a2.346,2.346,0,0,1,.559-.108h0a2.092,2.092,0,0,1,1.262.307A5.122,5.122,0,0,1,184.45,152.04Z" transform="translate(-67.244 96.506)" fill="#4172c6"/>
      <path id="Tracé_5301" data-name="Tracé 5301" d="M197.74,159.464a1.5,1.5,0,0,1-.866,1.569h-.162a57.17,57.17,0,0,1-6.132,1.208h-.289l-1.425.216h-.541a8.494,8.494,0,0,1-4.761-1.407,3.862,3.862,0,0,1-.433-.361c-.18-.162-.415-.361-.667-.631a1.442,1.442,0,0,1-.234-.234,15.545,15.545,0,0,1-4.148-8.4c-.884-6.258,2.6-11.343,4.743-13.958h0a40.649,40.649,0,0,1,9.288-8.819l.577-.4h0a2.561,2.561,0,0,1,1.5-.487,2.218,2.218,0,0,1,1.154.325,5.122,5.122,0,0,1,2.326,4.022,1.515,1.515,0,0,1-.775,1.515h0a54.28,54.28,0,0,0-8.025,6.853,16.375,16.375,0,0,0-3.3,10.82h0c1.082,5.933,7.646,3.949,7.971,3.877a1.693,1.693,0,0,1,.559-.108h0a1.93,1.93,0,0,1,1.262.289A5.176,5.176,0,0,1,197.74,159.464Z" transform="translate(-56.567 102.644)" fill="#4172c6"/>
      <path id="Tracé_5302" data-name="Tracé 5302" d="M211.022,167.032a1.5,1.5,0,0,1-.866,1.569h-.162a57.154,57.154,0,0,1-6.132,1.208h-.289a14.037,14.037,0,0,1-1.425.108h-.523a8.494,8.494,0,0,1-4.761-1.407,3.866,3.866,0,0,1-.433-.361c-.18-.162-.415-.361-.667-.631a2.847,2.847,0,0,1-.234-.234,15.545,15.545,0,0,1-4.148-8.4c-.884-6.258,2.6-11.343,4.743-13.958h0a40.648,40.648,0,0,1,9.288-8.819l.577-.4h0a2.561,2.561,0,0,1,1.5-.487,2.218,2.218,0,0,1,1.154.325,5.122,5.122,0,0,1,2.326,4.022,1.515,1.515,0,0,1-.775,1.515h0a54.28,54.28,0,0,0-8.025,6.853,16.375,16.375,0,0,0-3.3,10.82h0c1.082,5.933,7.646,3.967,7.971,3.877a1.8,1.8,0,0,1,.577-.108h0a1.8,1.8,0,0,1,1.262.307A5.1,5.1,0,0,1,211.022,167.032Z" transform="translate(-45.882 108.637)" fill="#4172c6"/>
      <path id="Tracé_5303" data-name="Tracé 5303" d="M224.75,175.04c0,.848-.343,1.407-.866,1.569a.45.45,0,0,1-.162,0,59.269,59.269,0,0,1-6.132,1.19H217.3a14.046,14.046,0,0,1-1.425.09h-.541a8.494,8.494,0,0,1-4.761-1.407l-.451-.343c-.162-.18-.4-.379-.649-.631a3.227,3.227,0,0,1-.234-.252,15.473,15.473,0,0,1-4.148-8.4c-.884-6.258,2.6-11.325,4.725-13.94h0a40.828,40.828,0,0,1,9.288-8.837l.577-.4h0a2.615,2.615,0,0,1,1.515-.469,2.056,2.056,0,0,1,1.154.325,5.1,5.1,0,0,1,2.326,4,1.515,1.515,0,0,1-.775,1.533h0a55.906,55.906,0,0,0-8.025,6.871,16.23,16.23,0,0,0-3.3,10.82h0c1.082,5.951,7.646,3.967,7.971,3.877a1.7,1.7,0,0,1,.559-.108h0a1.8,1.8,0,0,1,1.262.307A5.1,5.1,0,0,1,224.75,175.04Z" transform="translate(-34.867 115.056)" fill="#4172c6"/>
    </g>
    <g id="pen" transform="translate(73.157 555.769)">
      <path id="Tracé_5304" data-name="Tracé 5304" d="M120.006,329.109l-.7-.09a5.416,5.416,0,0,0-.83,0,7.931,7.931,0,0,0-1.136,0,23.913,23.913,0,0,0-6.727,1.3,37.678,37.678,0,0,0-4.184,1.641c-1.461.649-2.958,1.371-4.454,2.2s-3.03,1.677-4.545,2.633S94.4,338.7,92.9,339.7s-2.958,2.038-4.4,3.03-2.849,2-4.2,2.922l-1.01.685-.5.343-.523.379c-.7.487-1.353,1.01-2,1.533a23.586,23.586,0,0,0-3.282,3.3,16.354,16.354,0,0,0-2.164,3.39,12.627,12.627,0,0,0-1.028,2.994,8.621,8.621,0,0,0-.18,2.074,4.739,4.739,0,0,0,0,.6v.234a1.064,1.064,0,0,0,2.11,0v-.7a10.949,10.949,0,0,1,.451-1.479,11.142,11.142,0,0,1,1.19-2.182,16.066,16.066,0,0,1,2.38-2.561,26.9,26.9,0,0,1,3.084-2.525c1.154-.83,2.471-1.533,3.949-2.471s2.922-1.8,4.382-2.8l4.418-2.94c1.479-1.01,2.94-1.984,4.4-2.921s2.867-1.894,4.256-2.741,2.759-1.659,4.058-2.362,2.543-1.353,3.607-1.894a26.634,26.634,0,0,1,3.21-1.3,23.023,23.023,0,0,1,2.525-.721c.361-.09.667-.126.956-.18a6.244,6.244,0,0,1,.7,0h.685a1.082,1.082,0,0,0,0-2.146Z" transform="translate(-72.786 -291.435)" fill="#689fff"/>
      <path id="Tracé_5305" data-name="Tracé 5305" d="M119.3,328.729h-.685a5.416,5.416,0,0,0-.812,0,7.633,7.633,0,0,0-1.1,0,20.605,20.605,0,0,0-2.922.4,34.736,34.736,0,0,0-3.607,1.028,43.045,43.045,0,0,0-4.112,1.677c-1.425.667-2.9,1.389-4.382,2.236s-2.994,1.7-4.49,2.651-3.012,1.912-4.509,2.9l-4.4,3.012L84,345.464a49.143,49.143,0,0,0-4.022,2.867,22.636,22.636,0,0,0-3.246,3.174,15.869,15.869,0,0,0-2.164,3.246,11.344,11.344,0,0,0-1.046,2.849,8.351,8.351,0,0,0-.234,1.984v.541a2.035,2.035,0,0,0,0,.216.715.715,0,0,0,1.425-.054v-.216a1.8,1.8,0,0,1,0-.4,7.393,7.393,0,0,1,.415-1.587,11.986,11.986,0,0,1,1.154-2.326,18.5,18.5,0,0,1,2.128-2.651,26.3,26.3,0,0,1,3.12-2.651c1.172-.866,2.507-1.623,3.967-2.543s2.885-1.8,4.346-2.813l4.563-2.957c1.479-.992,2.958-1.984,4.418-2.922s2.9-1.8,4.31-2.705,2.8-1.659,4.112-2.344a41.557,41.557,0,0,1,3.787-1.8c1.19-.469,2.308-.92,3.3-1.244a21.642,21.642,0,0,1,2.6-.649l.974-.144a4.06,4.06,0,0,1,.739,0h.6a.721.721,0,0,0,0-1.425Z" transform="translate(-73.032 -291.668)" fill="#92baff"/>
      <path id="Tracé_5306" data-name="Tracé 5306" d="M194.342,308.2A212.8,212.8,0,0,0,162.1,321.095c-9.486,4.563-24.31,13.526-32.678,18.341-22.4,13.255-42.362,27.935-52.642,35.148a6.835,6.835,0,0,0,4.166,12.8,6.4,6.4,0,0,0,2.4-.812h0c8.566-5.248,32.948-17.944,54.3-32.263,9.973-6.727,26.023-17.727,34.77-24.382A131.2,131.2,0,0,0,195.1,309.283a.7.7,0,0,0-.757-1.082Z" transform="translate(-73.146 -308.164)" fill="#203860"/>
      <path id="Tracé_5307" data-name="Tracé 5307" d="M145.17,308.206s-3.986,1.1-10.82,3.607h.108a4.761,4.761,0,0,1,4.22,4.112,3.861,3.861,0,0,1,0,1.118c2.308-2.272,4.563-4.707,7.322-7.755a.721.721,0,0,0-.83-1.082Z" transform="translate(-23.975 -308.17)" fill="#92baff"/>
      <path id="Tracé_5308" data-name="Tracé 5308" d="M106.326,325.51,101.89,328.2s7.971,1.1,9.63,14.319l4.04-2.705S115.993,329.153,106.326,325.51Z" transform="translate(-50.053 -294.238)" fill="#92baff"/>
      <path id="Tracé_5309" data-name="Tracé 5309" d="M81.828,344.022l-5.23,3.769s-4.166,3.138-2.8,6.925,5.032,1.172,5.663-1.8S88.357,339.478,81.828,344.022Z" transform="translate(-72.841 -280.271)" fill="#2e508a"/>
    </g>
  </g>
</svg>
