<svg xmlns="http://www.w3.org/2000/svg" width="111" height="141" viewBox="0 0 111 141">
  <g id="Cleaning_kichen" data-name="Cleaning kichen" transform="translate(0 -9.478)">
    <g id="Layer_2" data-name="Layer 2" transform="translate(0 9.478)">
      <path id="Tracé_222" data-name="Tracé 222" d="M43.665,64.867H24.57s.567-3.078,2.315-3.564a40.978,40.978,0,0,1,4.953-1.03,22.359,22.359,0,0,1,6.573-.127c4.27.683,4.629,1.157,4.629,1.157Z" transform="translate(4.115 -0.397)" fill="#9a706f"/>
      <path id="Tracé_223" data-name="Tracé 223" d="M42.684,64.871H37.511a44.208,44.208,0,0,0-6.7-4.629,22.359,22.359,0,0,1,6.573-.127c4.27.683,4.629,1.157,4.629,1.157Z" transform="translate(5.137 -0.402)" fill="#272b6a"/>
      <path id="Tracé_224" data-name="Tracé 224" d="M25,51.76S23.63,65.485,21.7,65.925a39.149,39.149,0,0,1-5.983.405,21.317,21.317,0,0,1-5.5-.405c-1.5-.579-3.067-14.13-3.067-14.13H25Z" transform="translate(1.124 -1.657)" fill="#2b91be"/>
      <path id="Tracé_225" data-name="Tracé 225" d="M23.831,51.76s-1.366,13.725-3.3,14.165a39.149,39.149,0,0,1-5.983.405c3.136-3.969,5.3-11.1,6.2-14.547Z" transform="translate(2.423 -1.656)" fill="#1f89ae"/>
      <rect id="Rectangle_48" data-name="Rectangle 48" width="58.72" height="2.858" transform="translate(7.742 132.054)" fill="#cdb9b9"/>
      <path id="Tracé_226" data-name="Tracé 226" d="M60.178,122.97v2.858H39.96l.718-2.858Z" transform="translate(6.698 9.084)" fill="#baa8a8"/>
      <path id="Tracé_227" data-name="Tracé 227" d="M101.14,64.14,101,78.224v.266l-.174,17.695v.255l-.174,17.695v.255l-.174,17.706v.255l-.023,2.731H57.43V64.14Z" transform="translate(9.837 -0.168)" fill="#cdb9b9"/>
      <path id="Tracé_228" data-name="Tracé 228" d="M98.268,64.14l-.139,14.084v.266l-.174,17.695v.255l-.174,17.695v.266l-.174,17.695v2.986H75.69c2.5-12.533,11.92-59.727,13.98-70.941Z" transform="translate(12.709 -0.168)" fill="#baa8a8"/>
      <rect id="Rectangle_49" data-name="Rectangle 49" width="43.571" height="0.255" transform="translate(67.267 78.393)" fill="#403651"/>
      <rect id="Rectangle_50" data-name="Rectangle 50" width="0.255" height="43.398" transform="translate(67.266 96.121) rotate(-88.99)" fill="#403651"/>
      <rect id="Rectangle_51" data-name="Rectangle 51" width="0.255" height="43.224" transform="translate(67.498 114.077) rotate(-88.854)" fill="#403651"/>
      <rect id="Rectangle_52" data-name="Rectangle 52" width="43.05" height="0.255" transform="translate(67.267 131.927)" fill="#403651"/>
      <path id="Tracé_229" data-name="Tracé 229" d="M65.5,64.14v68.082H6.783l-.2-19.338-.312-32.01-.012-.255L6.1,64.14Z" transform="translate(0.959 -0.168)" fill="#5b4e6c"/>
      <path id="Tracé_230" data-name="Tracé 230" d="M26.329,64.14,6.586,112.884,6.1,64.14Z" transform="translate(0.959 0.061)" fill="#6a5e7c"/>
      <path id="Tracé_231" data-name="Tracé 231" d="M59.382,89.69l-.637,29.557h-47.1L11.02,89.69Z" transform="translate(1.733 3.85)" fill="#9a8382"/>
      <path id="Tracé_232" data-name="Tracé 232" d="M31.882,89.69,16.051,119.247H11.63L24.152,89.69Z" transform="translate(1.829 3.85)" fill="#a89595"/>
      <path id="Tracé_233" data-name="Tracé 233" d="M60.061,64.14v68.082H40.7L58.013,64.14Z" transform="translate(6.818 -0.168)" fill="#4b415b"/>
      <path id="Tracé_234" data-name="Tracé 234" d="M55.164,89.69l-.636,29.557H37.84l9.2-29.557Z" transform="translate(6.331 3.85)" fill="#867474"/>
      <path id="Tracé_235" data-name="Tracé 235" d="M88.707,78.155C88.094,82.877,86.2,96.116,86.2,96.116c1.157,1.817,3.125,6.029,2.315,15.4S83.5,133.507,83.5,133.507l-.486.116-.706.174s-2.615-30.645-2.893-33.653S77.3,77.357,77.3,77.357l-.3.382h0c-1,1.273-4.236,5.439-6.377,8.772-2.581,3.981-8.807,12.452-8.807,12.452,3.576,3.345,5.786,8.98,6.758,14.489s2.048,21.028,2.048,21.028l-.174-.093-1.157-.637s-6.307-13.98-9.652-21.143-6.712-13.424-6.6-13.887,4.942-11.573,6.423-15.461,8.518-18.979,8.518-18.979a19.674,19.674,0,0,0,9.258.278,19.905,19.905,0,0,0,7.314-3.032,12.857,12.857,0,0,0,2.7-2.245C89.437,62.868,89.321,73.433,88.707,78.155Z" transform="translate(9.146 -0.932)" fill="#a6ddeb"/>
      <path id="Tracé_236" data-name="Tracé 236" d="M84.634,78.155c-.613,4.722-2.511,17.961-2.511,17.961,1.157,1.817,3.125,6.029,2.315,15.4s-5.011,21.988-5.011,21.988l-.486.116c.741-4.166,3.8-21.514,4.016-25.634A34.244,34.244,0,0,0,81.22,97.412s1.053-18.25,1.157-23.273a54.913,54.913,0,0,0-1.9-12.614,12.857,12.857,0,0,0,2.7-2.245C85.363,62.868,85.247,73.433,84.634,78.155Z" transform="translate(13.22 -0.932)" fill="#66c8ce"/>
      <path id="Tracé_237" data-name="Tracé 237" d="M76.231,72.9v2.7c-1,1.273-4.236,5.439-6.377,8.772-2.581,3.981-8.807,12.452-8.807,12.452,3.576,3.345,5.786,8.98,6.758,14.489s2.048,21.028,2.048,21.028l-.174-.093c-.428-3.125-1.516-10.485-2.315-14.512-1.018-5.115-2.893-12.73-4.942-15.426S57.9,96.335,57.9,96.335s6.4-8.182,11.179-13.644a62.618,62.618,0,0,0,7.152-9.79Z" transform="translate(9.693 1.21)" fill="#66c8ce"/>
      <path id="Tracé_238" data-name="Tracé 238" d="M99.267,49.255a7.9,7.9,0,0,0-1.84.116,9.258,9.258,0,0,0-3.472,1.435s-.787-.451-1.967-1.157h0c-1.261-.8-3-1.9-4.71-3.113-3.3-2.315-6.087-4.629-6.087-4.629s-.162,6.191-.22,8.24.324,3.321,2.095,5.52A18.7,18.7,0,0,1,86.884,64.2a12.615,12.615,0,0,1-2.592,2.176,20.044,20.044,0,0,1-7.418,3.1,19.674,19.674,0,0,1-9.258-.278c0-2.315-.278-14.894-.336-16.028a2.963,2.963,0,0,0-.2-.845,10.172,10.172,0,0,0-1.1-1.921h0V50.32h0a58.049,58.049,0,0,1-3.622,6.134,17.926,17.926,0,0,1-5.856,5.208,20.509,20.509,0,0,0,0-2.523c-.208-3.31-1.3-4.305-1.3-4.305s1.736-4.363,3.159-8.1c.949-2.453,1.979-5.694,3.009-8.68.521-1.528,1.042-2.986,1.539-4.236.139-.347.289-.671.44-.961,1.354-2.662,3.182-2.523,4.247-2.4h0l.544,1.042c.347.509.694.856,1.007.845.81,0,1.759-1.828,2.095-3.078l-.081-.324.208-.093c1-1,2.534-1.157,4.409-.81A17.949,17.949,0,0,1,79.258,29.2c.463.2.937.428,1.423.671,4.1,2.048,11.573,9.883,14.489,13.066l.3.324h0A19.766,19.766,0,0,1,99.267,49.255Z" transform="translate(9.488 -5.288)" fill="#263b7f"/>
      <path id="Tracé_239" data-name="Tracé 239" d="M74.7,28.023c-1.018,1.342-3.831,4.7-6.828,5a24.3,24.3,0,0,1-5.694-.139c1.435-2.685,3.263-2.546,4.328-2.419h0l.544,1.042c.347.509.694.856,1.007.845.81,0,1.759-1.828,2.095-3.078l-.081-.324.208-.093C71.288,27.861,72.827,27.664,74.7,28.023Z" transform="translate(10.372 -5.153)" fill="#212a60"/>
      <path id="Tracé_240" data-name="Tracé 240" d="M65.728,47.47A58.048,58.048,0,0,1,62.106,53.6a17.926,17.926,0,0,1-5.856,5.208,20.507,20.507,0,0,0,0-2.523,21.131,21.131,0,0,0,4.71-4.629A27.311,27.311,0,0,0,64.316,46a7.858,7.858,0,0,0,1.412,1.47Z" transform="translate(9.367 -2.519)" fill="#212a60"/>
      <path id="Tracé_241" data-name="Tracé 241" d="M66.234,47.988l-.625,1.273a10.173,10.173,0,0,0-1.1-1.921A2.87,2.87,0,0,0,66.234,47.988Z" transform="translate(10.699 -2.296)" fill="#212a60"/>
      <path id="Tracé_242" data-name="Tracé 242" d="M93.788,47.162a7.9,7.9,0,0,0-1.84.116,48.7,48.7,0,0,0-1.9-6.087,19.766,19.766,0,0,1,3.738,5.972Z" transform="translate(14.967 -3.231)" fill="#212a60"/>
      <path id="Tracé_243" data-name="Tracé 243" d="M78.428,48.545a7.506,7.506,0,0,0,2.095,5.52,18.7,18.7,0,0,1,3.819,8.529,12.614,12.614,0,0,1-2.592,2.176c-1.157-3.553-3.02-9.594-3.726-11.168a20.542,20.542,0,0,1-1.25-5.786,7.221,7.221,0,0,1-5.393.44,17.2,17.2,0,0,0,4.247-2.789c1.516-1.539,1.157-7.557,1.157-7.557s6.886,5.231,8.992,6.944c1.354,1.157,2.7,2.234,3.692,3.206-1.285-.787-3.02-1.886-4.733-3.1-3.3-2.315-6.087-4.629-6.087-4.629S78.486,46.5,78.428,48.545Z" transform="translate(12.031 -3.762)" fill="#212a60"/>
      <path id="Tracé_244" data-name="Tracé 244" d="M72.754,19.678c-.116,1.643-2.789,2.963-2.789,2.963a6.747,6.747,0,0,1-.127,2.315,2.226,2.226,0,0,1-.127.532,9.177,9.177,0,0,1-1.794,3.541h0a7.742,7.742,0,0,1-1.238,1.285l-.116.093c-1.157.856-2.615.926-6.307.567-5.15-.555-5.15-3.449-5.15-5.289a27.428,27.428,0,0,0-.775-4.93,1.157,1.157,0,0,0,.706-.255,28.329,28.329,0,0,0,3.379-2.488,15.531,15.531,0,0,0,3.75-4.722c.706,1.25,3.113,4.8,5.1,5.786a1.747,1.747,0,0,0,.3.139c2.048.8,2.731-1.539,3.4-2.048S72.869,18.035,72.754,19.678Z" transform="translate(9.096 -7.388)" fill="#f1b5ab"/>
      <path id="Tracé_245" data-name="Tracé 245" d="M71,19.166c-.116,1.643-2.789,2.963-2.789,2.963a6.747,6.747,0,0,1-.127,2.315,2.226,2.226,0,0,1-.127.532,9.177,9.177,0,0,1-1.794,3.541h0c.88-3.275,0-7.569-.66-9.953a1.748,1.748,0,0,0,.3.139c2.048.8,2.731-1.539,3.4-2.048S71.113,17.523,71,19.166Z" transform="translate(10.884 -6.876)" fill="#f5948d"/>
      <path id="Tracé_246" data-name="Tracé 246" d="M69.884,29.12a3.322,3.322,0,0,1-.127.845c-.336,1.25-1.285,3.032-2.095,3.078-.312,0-.66-.336-1.007-.845a12.88,12.88,0,0,1-.937-1.747c-.278-.567-.532-1.261-.718-1.724a8.738,8.738,0,0,0,1.25-1.273,9.177,9.177,0,0,0,1.794-3.541.752.752,0,0,1,0-.15.655.655,0,0,1,.081-.382l.081.255c.509,1.539,1.157,3.368,1.423,4.525a6.505,6.505,0,0,1,.255.961Z" transform="translate(10.797 -5.85)" fill="#f1b5ab"/>
      <path id="Tracé_247" data-name="Tracé 247" d="M69.629,28.09A15.982,15.982,0,0,1,65.683,30.4c-.243-.555-.5-1.25-.683-1.713a8.738,8.738,0,0,0,1.25-1.273,9.177,9.177,0,0,0,1.794-3.541.752.752,0,0,1,0-.15l.162-.127C68.75,25.1,69.351,26.933,69.629,28.09Z" transform="translate(10.796 -5.815)" fill="#f5948d"/>
      <path id="Tracé_248" data-name="Tracé 248" d="M58.351,58c-.972,1.308-5.624,4.155-15.461,4.1,0,0,.231-.6.555-1.412.509-1.157,1.215-2.893,1.655-3.68a34.926,34.926,0,0,0,5.856-2.072,26.166,26.166,0,0,0,6.11-3.761c.174,0,.949.752,1.285,3.02,0,.37.093.718.116,1.053A10.219,10.219,0,0,1,58.351,58Z" transform="translate(7.168 -1.737)" fill="#f1b5ab"/>
      <path id="Tracé_249" data-name="Tracé 249" d="M58.351,57.444c-.972,1.308-5.624,4.155-15.461,4.1,0,0,.231-.6.555-1.412A58.673,58.673,0,0,0,53,58.359a19.118,19.118,0,0,0,5.462-3.669,10.219,10.219,0,0,1-.116,2.754Z" transform="translate(7.168 -1.197)" fill="#f5948d"/>
      <path id="Tracé_250" data-name="Tracé 250" d="M94.647,59.251l-.637.127a22.172,22.172,0,0,0-2.986.961c-.185-1.053-.694-3.726-1.4-6.3a25.379,25.379,0,0,1-.914-6.087,9.594,9.594,0,0,1,3.333-1.632A9.109,9.109,0,0,1,93.837,46C95.434,49.067,94.832,57.7,94.647,59.251Z" transform="translate(14.756 -2.522)" fill="#f1b5ab"/>
      <path id="Tracé_251" data-name="Tracé 251" d="M94.194,59.251l-.637.127a49.763,49.763,0,0,0-.405-6.816,45.041,45.041,0,0,0-1.562-6.238A9.108,9.108,0,0,1,93.384,46C94.981,49.067,94.379,57.7,94.194,59.251Z" transform="translate(15.209 -2.52)" fill="#f5948d"/>
      <path id="Tracé_252" data-name="Tracé 252" d="M69.241,124.462A3.993,3.993,0,0,0,65.665,123c-2.384.22-3.865,2.835-3.865,2.835h7.441Z" transform="translate(10.279 9.085)" fill="#d64e27"/>
      <path id="Tracé_253" data-name="Tracé 253" d="M77.17,125.764h5.462l-2.893-2.384H78.512Z" transform="translate(12.941 9.149)" fill="#d64e27"/>
      <path id="Tracé_254" data-name="Tracé 254" d="M60.045,19.424c-.509.1-.509-1.319.579-1.828a3.935,3.935,0,0,1,2.777.347,12.556,12.556,0,0,0-2.106.486A3.021,3.021,0,0,0,60.045,19.424Z" transform="translate(9.914 -6.728)" fill="#e35933"/>
      <path id="Tracé_255" data-name="Tracé 255" d="M79.739,32.273c-3.472-1.528-6.353-1.944-7.927-.37l-.174.139a39.349,39.349,0,0,1-1.609-5.786,7.082,7.082,0,0,0,.255-2.824s2.673-1.319,2.789-2.963-1.157-3.009-1.828-2.5-1.354,2.847-3.4,2.048-4.629-4.629-5.4-5.972a15.531,15.531,0,0,1-3.75,4.722,28.33,28.33,0,0,1-3.379,2.488c-1.377.555-2.592.683-2.928.127a1.158,1.158,0,0,1-.069-.162c-.37-1.157.382-5.335,3.067-8.193s4.5-4.791,7.407-4.837c3.24,0,7.58,5.046,10.253,8.992.521.775.984,1.516,1.366,2.153l.255.451a84.632,84.632,0,0,1,4.155,9.86C79.242,30.78,79.577,31.717,79.739,32.273Z" transform="translate(8.801 -8.19)" fill="#e35933"/>
      <path id="Tracé_256" data-name="Tracé 256" d="M67.018,30.443h0a4.073,4.073,0,0,0-1.7,0h0c-1.018.266-2.153,1.157-3.055,3.356-.5,1.25-1.018,2.708-1.539,4.236L59.9,31.5l-.37-2.916c3.692.359,5.242.2,6.423-.66Z" transform="translate(9.902 -5.236)" fill="#e35933"/>
      <path id="Tracé_257" data-name="Tracé 257" d="M65.782,49.34h0a3.368,3.368,0,0,1-2.21-1.643c-1.69-2.974,0-8.633.127-8.865a.127.127,0,0,1,.162-.081.116.116,0,0,1,.081.15s-1.782,5.786-.15,8.668a3.078,3.078,0,0,0,2.048,1.516.131.131,0,1,1-.058.255Z" transform="translate(10.427 -3.607)" fill="#a6ddeb"/>
      <path id="Tracé_258" data-name="Tracé 258" d="M73.708,47.18a.139.139,0,0,1-.127-.1.116.116,0,0,1,.093-.15,5.786,5.786,0,0,0,3.31-4.768.15.15,0,0,1,.139-.127.127.127,0,0,1,.116.139,5.983,5.983,0,0,1-3.472,5Z" transform="translate(12.214 -3.103)" fill="#a6ddeb"/>
      <path id="Tracé_259" data-name="Tracé 259" d="M78.36,41.029h-.093a13.193,13.193,0,0,1-3.217-5.312.127.127,0,1,1,.255,0,12.626,12.626,0,0,0,3.159,5.092.127.127,0,0,1,0,.174A.1.1,0,0,1,78.36,41.029Z" transform="translate(12.458 -4.074)" fill="#a6ddeb"/>
      <path id="Tracé_260" data-name="Tracé 260" d="M74.248,77.183a.174.174,0,0,1-.162-.15l-.926-7.939a.15.15,0,0,1,.139-.174.162.162,0,0,1,.174.139L74.41,77a.162.162,0,0,1-.139.174Z" transform="translate(12.131 0.944)" fill="#732d29"/>
      <path id="Tracé_261" data-name="Tracé 261" d="M68.766,18.239a4.628,4.628,0,0,1,.417-.81.069.069,0,0,0,0-.116.081.081,0,0,0-.116,0,4.93,4.93,0,0,0-.775,2.141h0a5.125,5.125,0,0,0,0,.764.093.093,0,0,0,.093.081.081.081,0,0,0,.081-.081,4.074,4.074,0,0,1,0-.671h0c.231,0,.845,0,1.007-.44S68.986,18.343,68.766,18.239Zm.521.81c-.1.266-.567.324-.822.324a4.963,4.963,0,0,1,.243-.972c.2.1.683.37.579.648Z" transform="translate(11.322 -6.759)" fill="#983222"/>
      <path id="Tracé_262" data-name="Tracé 262" d="M59.19,26.53a.961.961,0,0,1-.532-.162.069.069,0,0,1,0-.069,27.511,27.511,0,0,0-.243-3.622,9.525,9.525,0,0,0-.6-2.2.078.078,0,0,1,.116-.1,9.131,9.131,0,0,1,.625,2.234,29.9,29.9,0,0,1,.243,3.611.833.833,0,0,0,.613.069A1.724,1.724,0,0,0,60.37,25.2a.081.081,0,0,1,.116,0,.093.093,0,0,1,0,.1,1.921,1.921,0,0,1-1.076,1.157Z" transform="translate(9.59 -6.278)" fill="#983222"/>
      <path id="Tracé_263" data-name="Tracé 263" d="M61.391,26.878a.1.1,0,0,1-.081-.069.093.093,0,0,1,.069-.1A4.039,4.039,0,0,0,64,25a.081.081,0,0,1,.116,0,.093.093,0,0,1,0,.116A4.155,4.155,0,0,1,61.38,26.89Z" transform="translate(10.174 -5.599)" fill="#983222"/>
      <path id="Tracé_264" data-name="Tracé 264" d="M57.324,22.407c.231.6.15,1.157-.162,1.319s-.752-.289-.984-.9-.15-1.157.162-1.319S57.15,21.794,57.324,22.407Z" transform="translate(9.294 -6.101)" fill="#1e1724"/>
      <path id="Tracé_265" data-name="Tracé 265" d="M61.528,20.827c.231.613.162,1.157-.139,1.319s-.729-.3-.961-.914-.162-1.157.139-1.308S61.308,20.213,61.528,20.827Z" transform="translate(9.998 -6.349)" fill="#1e1724"/>
      <path id="Tracé_266" data-name="Tracé 266" d="M57.947,20.4a3.715,3.715,0,0,0-2.465-.15c-.718.347-.764,1.157-.3,1.366s.463,0,1.088-.486A5.451,5.451,0,0,1,57.947,20.4Z" transform="translate(9.108 -6.316)" fill="#e35933"/>
      <path id="Tracé_267" data-name="Tracé 267" d="M65.86,28l1.157,2.465h0a4.074,4.074,0,0,0-1.7,0h0A23.839,23.839,0,0,0,59.9,31.518L59.53,28.6C63.118,28.984,64.7,28.822,65.86,28Z" transform="translate(9.902 -5.13)" fill="#cf3d28"/>
      <path id="Tracé_268" data-name="Tracé 268" d="M79.727,31.674c-3.472-1.528-6.353-1.944-7.927-.37l-.174.139a39.349,39.349,0,0,1-1.609-5.786,7.083,7.083,0,0,0,.255-2.824s2.673-1.319,2.789-2.963-1.157-3.009-1.828-2.5-1.354,2.847-3.4,2.048-4.629-4.629-5.4-5.972a15.531,15.531,0,0,1-3.75,4.722A28.33,28.33,0,0,1,55.3,20.656c-1.377.555-2.592.683-2.928.127a1.158,1.158,0,0,1-.069-.162,18.077,18.077,0,0,0,6.319-3.7A13.4,13.4,0,0,0,62.368,12s3.923,6.839,7.939,5.3a8.656,8.656,0,0,1,2.731-.671c.521.775.984,1.516,1.366,2.153-.3,2.106-.579,5.879.937,7.557a16.676,16.676,0,0,0,3.472,2.754C79.23,30.181,79.565,31.118,79.727,31.674Z" transform="translate(8.814 -7.591)" fill="#cf3d28"/>
      <path id="Tracé_269" data-name="Tracé 269" d="M46.216,58.8c-.428.972-.8,2-1.065,2.8s-.509,1.539-.509,1.539a20.183,20.183,0,0,1-4.212,0,11.26,11.26,0,0,1-4.837-1.6s-2.315,1.25-2.662.8.683-1.308.683-1.308c-.521-.521-3.7.278-3.7.278a2.269,2.269,0,0,1,.347-.717c.116-.174.255-.382.451-.636a8.888,8.888,0,0,1,5.566-2.685c1.875,0,2.731.521,3.981,0s6.6-3.206,7.164-2.315C47.6,55.278,47.1,56.748,46.216,58.8Z" transform="translate(5.005 -1.188)" fill="#f79738"/>
      <path id="Tracé_270" data-name="Tracé 270" d="M45.117,60.893c-.3.891-.474,1.528-.474,1.528a20.182,20.182,0,0,1-4.212.012,11.26,11.26,0,0,1-4.837-1.6s-2.315,1.25-2.662.8.683-1.308.683-1.308c-.521-.521-3.7.278-3.7.278a2.269,2.269,0,0,1,.347-.718,4.768,4.768,0,0,1,1.933-.636h4.085a29.35,29.35,0,0,0,4.444,1.574,20.369,20.369,0,0,0,4.4.069Z" transform="translate(4.997 -0.501)" fill="#e18726"/>
      <path id="Tracé_271" data-name="Tracé 271" d="M95.455,62.308a13.239,13.239,0,0,1-1.366,3.472,11.249,11.249,0,0,1,0,4.317c-.289.868-.5,1.157-.66,1.157s-.185-.127-.266-.289c0,.093.15.775-1.065,1.354s-1.84.208-2.048-.15h0a.243.243,0,0,1,0-.116c-.116-.405.451-3.472.336-3.576s-1.643.729-2.095.567a.208.208,0,0,1-.127-.15c-.185-.382.59-1.539,1.319-2.21A4.1,4.1,0,0,0,90.571,65.2s-.116-1.238-.289-3.229S90,59.01,90,59.01s.44-.2,1.157-.463a19.674,19.674,0,0,1,3.622-1.088h0a4.421,4.421,0,0,1,1.551,0,34.718,34.718,0,0,1-.88,4.849Z" transform="translate(14.666 -0.812)" fill="#f79738"/>
      <path id="Tracé_272" data-name="Tracé 272" d="M94.735,62.315a13.239,13.239,0,0,1-1.366,3.472,11.249,11.249,0,0,1,0,4.317c-.289.868-.5,1.157-.66,1.157.174-1.967.127-5.092.127-5.092a11.421,11.421,0,0,1,.532-2.662,27.543,27.543,0,0,0,.671-6.087,4.421,4.421,0,0,1,1.551,0,34.717,34.717,0,0,1-.856,4.9Z" transform="translate(15.385 -0.814)" fill="#e18726"/>
      <path id="Tracé_273" data-name="Tracé 273" d="M90.961,66.906a12.73,12.73,0,0,1-.914,3.958.243.243,0,0,1,0-.116c-.116-.405.451-3.472.336-3.576s-1.643.729-2.095.567a.208.208,0,0,1-.127-.15c.764-.66,1.805-1.771,2.234-1.678S90.961,66.906,90.961,66.906Z" transform="translate(14.67 0.499)" fill="#e18726"/>
      <rect id="Rectangle_53" data-name="Rectangle 53" width="52.447" height="4.317" transform="translate(11.156 85.861)" fill="#403651"/>
      <rect id="Rectangle_54" data-name="Rectangle 54" width="4.606" height="4.849" transform="translate(11.156 69.632)" fill="none" stroke="#9a706f" stroke-width="0.75"/>
      <rect id="Rectangle_55" data-name="Rectangle 55" width="4.606" height="4.849" transform="translate(17.725 69.632)" fill="none" stroke="#9a706f" stroke-width="0.75"/>
      <rect id="Rectangle_56" data-name="Rectangle 56" width="4.606" height="4.849" transform="translate(49.256 69.632)" fill="none" stroke="#9a706f" stroke-width="0.75"/>
      <rect id="Rectangle_57" data-name="Rectangle 57" width="4.606" height="4.849" transform="translate(56.427 69.632)" fill="none" stroke="#9a706f" stroke-width="0.75"/>
      <rect id="Rectangle_58" data-name="Rectangle 58" width="18.84" height="4.444" transform="translate(26.688 70.036)" fill="none" stroke="#9a706f" stroke-width="0.75"/>
      <path id="Tracé_274" data-name="Tracé 274" d="M58.747,119.247h-47.1L11.01,89.69H59.384Z" transform="translate(1.732 3.85)" fill="none" stroke="#725051" stroke-width="0.75"/>
      <path id="Tracé_275" data-name="Tracé 275" d="M12.325,53.721a42.6,42.6,0,0,1-5.948-.312.336.336,0,0,1-.266-.37.347.347,0,0,1,.393-.278,53.071,53.071,0,0,0,6.747.3h0a.347.347,0,0,1,0,.683Z" transform="translate(0.961 -1.476)" fill="#52b9ca"/>
      <path id="Tracé_276" data-name="Tracé 276" d="M21.216,53.8a.336.336,0,0,1-.035-.671l2.812-.3a.347.347,0,0,1,.382.3.336.336,0,0,1-.3.37l-2.824.3Z" transform="translate(3.466 -1.465)" fill="#52b9ca"/>
      <path id="Tracé_277" data-name="Tracé 277" d="M47.133,113.36,44.4,124.481l-.694,2.858H20.076l-.474-2.858L17.75,113.36Z" transform="translate(2.996 7.573)" fill="#857490" opacity="0.4"/>
      <path id="Tracé_278" data-name="Tracé 278" d="M65.479,78.4v.243H6.25V78.39C13.738,78.39,55.8,78.436,65.479,78.4Z" transform="translate(0.983 2.397)" fill="#9a706f"/>
      <path id="Tracé_279" data-name="Tracé 279" d="M21.664,65.165a3.206,3.206,0,0,1,.845-3.09,1.782,1.782,0,0,1,2.534.417s-.139-2.037.625-2.164,1.273,1.157,1.273,1.157.093-3.426,2.072-3.831,4.062,3.472,4.062,3.472.486-1.585,1.539-1.585,1.342,2.951,1.342,2.951.926-2.234,2.939-1.412.532,4.155.532,4.155Z" transform="translate(3.609 -0.756)" fill="#c6e8f0"/>
      <path id="Tracé_280" data-name="Tracé 280" d="M24.8,58.732c1.389-.579.058-3.044-1.157-1.944S23.413,59.311,24.8,58.732Z" transform="translate(3.831 -0.912)" fill="#c6e8f0"/>
      <path id="Tracé_281" data-name="Tracé 281" d="M28.67,55.771a.741.741,0,1,1,.741.741A.741.741,0,0,1,28.67,55.771Z" transform="translate(4.755 -1.134)" fill="#c6e8f0"/>
      <path id="Tracé_282" data-name="Tracé 282" d="M29.539,60.814a1.5,1.5,0,1,1-1.5-1.5,1.5,1.5,0,0,1,1.5,1.5Z" transform="translate(4.403 -0.491)" fill="#9cd9e7"/>
      <path id="Tracé_283" data-name="Tracé 283" d="M32.056,62.6A1.053,1.053,0,1,1,31,61.55,1.053,1.053,0,0,1,32.056,62.6Z" transform="translate(4.968 -0.151)" fill="#9cd9e7"/>
      <path id="Tracé_284" data-name="Tracé 284" d="M8.51,54.13h2.824s.428,8.772-.671,8.807S8.51,54.13,8.51,54.13Z" transform="translate(1.338 -1.286)" fill="#36a5cc"/>
      <path id="Tracé_285" data-name="Tracé 285" d="M43.541,112.82l-1.5,18.84H19.493l-1.146-9.223-.058-.44-.22-1.771-.069-.5-.81-6.573h.59l6.677-.093H24.8l15.033-.2Z" transform="translate(2.894 7.488)" fill="#ffc40c"/>
      <path id="Tracé_286" data-name="Tracé 286" d="M24.674,131.627h-.336c-.255-5.034-.706-14.431-.868-18.6h.336C23.968,117.069,24.407,126.246,24.674,131.627Z" transform="translate(3.892 7.521)" fill="#45201f"/>
      <path id="Tracé_287" data-name="Tracé 287" d="M19.222,124.21,17.591,130.3l-6.215.5L0,131.721s2.06-6.423,2.06-6.77l14.049-.613Z" transform="translate(0 9.279)" fill="#a6d6b4"/>
      <path id="Tracé_288" data-name="Tracé 288" d="M41.573,112.82l-1.5,18.84H30c2.812-4.884,6.319-14.489,7.823-18.794Z" transform="translate(5.001 7.488)" fill="#f7981d"/>
      <path id="Tracé_289" data-name="Tracé 289" d="M21.95,131.613H19.485l-1.157-9.258-.058-.44-.15-1.736-.069-.5-.81-6.562h.59C18.675,117.344,21.105,127.945,21.95,131.613Z" transform="translate(2.864 7.535)" fill="#f7981d"/>
      <path id="Tracé_290" data-name="Tracé 290" d="M18.351,122.383h-.069l-1.157-.5s-.069,0-.093-.093a.231.231,0,0,1,0-.127l.845-1.886a.174.174,0,0,1,.22-.081.162.162,0,0,1,.093.22l-.775,1.724.845.37,5.358-8.726a.174.174,0,1,1,.289.174l-5.439,8.853a.139.139,0,0,1-.116.069Z" transform="translate(2.831 7.542)" fill="#45201f"/>
      <path id="Tracé_291" data-name="Tracé 291" d="M43.631,112.932a.532.532,0,0,1-.521.532H17.442a.532.532,0,0,1-.532-.532.521.521,0,0,1,.521-.521H43.018a.521.521,0,0,1,.613.521Z" transform="translate(2.848 7.422)" fill="#f7981d"/>
      <path id="Tracé_292" data-name="Tracé 292" d="M41.043,112.931a.532.532,0,0,1-.521.532H33.37l.3-1.053h6.8a.521.521,0,0,1,.567.521Z" transform="translate(5.551 7.423)" fill="#d68028"/>
      <path id="Tracé_293" data-name="Tracé 293" d="M17.678,124.21,16.046,130.3l-6.226.5,4.756-6.458Z" transform="translate(1.544 9.279)" fill="#83c392"/>
      <path id="Tracé_294" data-name="Tracé 294" d="M13.159,132.812l5.682-.116v2.384H6.69v-1.713l3.622-.555.069-.59L17.395,64.14h2.4l-6.573,68.082Z" transform="translate(1.052 -0.168)" fill="#857490" opacity="0.4"/>
      <path id="Tracé_295" data-name="Tracé 295" d="M22.363,40.29l-6.631,52.6-5.8,45.944H7.77l5.659-44.705L20.257,40.29Z" transform="translate(1.222 -3.919)" fill="#263b7f"/>
      <path id="Tracé_296" data-name="Tracé 296" d="M15.732,85.74l-5.8,45.944H7.77l5.659-44.705Z" transform="translate(1.222 3.229)" fill="#212a60"/>
      <path id="Tracé_297" data-name="Tracé 297" d="M23.456,109.226a1.678,1.678,0,1,1-1.666-1.666A1.678,1.678,0,0,1,23.456,109.226Z" transform="translate(3.336 6.661)" fill="#c6e8f0"/>
      <path id="Tracé_298" data-name="Tracé 298" d="M35.365,105.681a2.592,2.592,0,1,1-2.581-2.581A2.592,2.592,0,0,1,35.365,105.681Z" transform="translate(5.014 6.108)" fill="#c6e8f0"/>
      <path id="Tracé_299" data-name="Tracé 299" d="M28.589,110.585a1.03,1.03,0,1,1-1.024-.921A1.03,1.03,0,0,1,28.589,110.585Z" transform="translate(4.402 6.992)" fill="#c6e8f0"/>
      <path id="Tracé_300" data-name="Tracé 300" d="M21.31,112.659s.312-1.516,1.458-1.609a4.05,4.05,0,0,1,2.315.81,2.685,2.685,0,0,1,1.736-.81c.868,0,1.018,1.574,1.018,1.574s3.379-2.442,5.914,0Z" transform="translate(3.554 7.21)" fill="#c6e8f0"/>
    </g>
  </g>
</svg>
