<svg id="Two_Cleaners" data-name="Two Cleaners" xmlns="http://www.w3.org/2000/svg" width="97" height="121" viewBox="0 0 97 121">
  <path id="Tracé_302" data-name="Tracé 302" d="M84.3,13.174s-.236,3.466-1.133,4.165a2.569,2.569,0,0,0-2.645-.491A5.762,5.762,0,0,0,78.291,18.4c-.17.2-.264.331-.264.331s-1.634.453-2.947-2.04-2.371-3.882-2.664-6.017a6.111,6.111,0,0,1-.057-.822,5.176,5.176,0,0,1,1.37-3.636c.689-.614,1.3-.453,2.579-.123a7.094,7.094,0,0,0,1.058.17h0a7.556,7.556,0,0,0,3.551-.312c.945-.538,2.409-1.247,2.5-.633V7.583a11.777,11.777,0,0,0,.331,2.834C83.959,11.323,84.148,12.305,84.3,13.174Z" transform="translate(-3.665 -0.276)" fill="#f1b5ab"/>
  <path id="Tracé_303" data-name="Tracé 303" d="M78.244,18.678c-.17.2-.264.331-.264.331s-1.634.453-2.947-2.04-2.324-3.882-2.616-6.017a6.108,6.108,0,0,1-.057-.822,53.271,53.271,0,0,0,2.919,5.478,8.548,8.548,0,0,0,2.966,3.07Z" transform="translate(-3.689 -0.556)" fill="#f5948d"/>
  <path id="Tracé_304" data-name="Tracé 304" d="M83.734,5.448c-.793.945-2.635,2.059-6.064.831a7.556,7.556,0,0,0,3.542-.331c.945-.538,2.409-1.247,2.5-.633C83.724,5.316,83.724,5.373,83.734,5.448Z" transform="translate(-3.959 -0.276)" fill="#f5948d"/>
  <path id="Tracé_305" data-name="Tracé 305" d="M32.16,61.534c-.945,3.1-3.192,9.445-3.192,9.445a19.938,19.938,0,0,1-.1,3.674.945.945,0,0,1-.123.283c-.416.491-.633-.123-.633-.123s-.6,3.6-1.285,3.23.076-5.724.321-6.706.945-8.095,1.143-10.834.945-10.39,1.388-11.334c0,0,.387.094,2.021.425a9.74,9.74,0,0,1,1.388.359,7.85,7.85,0,0,1,1.162.463C34.068,51.626,33.048,58.455,32.16,61.534Z" transform="translate(-1.351 -3.202)" fill="#f1b5ab"/>
  <path id="Tracé_306" data-name="Tracé 306" d="M32.291,61.581c-.945,3.1-3.192,9.445-3.192,9.445a19.939,19.939,0,0,1-.1,3.674c0-1.417-.113-3.778-.085-3.844s2.834-9.729,3.277-12.675c.387-2.758.623-5.771,1.03-8.161a7.848,7.848,0,0,1,1.162.463C34.2,51.673,33.179,58.5,32.291,61.581Z" transform="translate(-1.474 -3.237)" fill="#f5948d"/>
  <path id="Tracé_307" data-name="Tracé 307" d="M94.255,119.963l-1.237.746-.142.085-.132.076-.652-1.71c-1.625-4.326-5.771-15.6-6.3-19.306A11.334,11.334,0,0,1,87.105,92.3a98.7,98.7,0,0,1-2.947-9.936c-.7-3.07-2.163-8.208-3.145-11.561v-.057L80.4,68.676h0c-.217-.746-.359-1.19-.359-1.19h-.057l-.217.113-.548.283a.227.227,0,0,1,0,.076c-3.041,10.682-3.041,10.626-4.137,15.953-1.058,5.072-2.692,9.644-3.835,14.309-.586,2.39-1.974,8.113-3.183,13.129l-2.135,8.9-.765.123H65l-.945.142s-2.541-17.181-1.728-21.554a21.166,21.166,0,0,1,3.844-8.095s-.652-14.168-.491-19.3c0-1,.1-2.087.208-3.183v-.217c.283-2.985.746-6.007,1.02-7.651v-.17c.113-.68.189-1.077.189-1.077l.623.094c.841.113,2.494.331,4.534.491h.161c1.728.123,3.712.217,5.667.17a27.043,27.043,0,0,0,2.834-.208h.189a42.567,42.567,0,0,0,4.817-.945l.17-.047c1.955-.5,3.24-.945,3.24-.945s.066.463.179,1.2a1.039,1.039,0,0,1,0,.17c.236,1.521.614,4.043.945,6.234a2.585,2.585,0,0,1,0,.264c.132.86.255,1.653.359,2.3.538,3.268,1.965,17.492,2.3,22.234S94.255,119.963,94.255,119.963Z" transform="translate(-3.017 -4.168)" fill="#1d4ea1"/>
  <path id="Tracé_308" data-name="Tracé 308" d="M68.064,111.431l-2.135,8.9-.765.123H65l-.945.142s-2.541-17.181-1.728-21.554a21.166,21.166,0,0,1,3.844-8.095s-.652-14.168-.491-19.3c0-1,.1-2.087.208-3.183v-.217c.283-2.985.746-6.007,1.02-7.651v-.17c.113-.68.189-1.077.189-1.077l.623.094c-.142,4.184-.255,13.478-.123,22.1a93.772,93.772,0,0,1-.236,11.769S64.059,103.412,68.064,111.431Z" transform="translate(-3.169 -4.249)" fill="#1d427f"/>
  <path id="Tracé_309" data-name="Tracé 309" d="M81,68.05Z" transform="translate(-4.151 -4.277)" fill="#892e28"/>
  <path id="Tracé_310" data-name="Tracé 310" d="M93.163,119.795c-1.625-4.326-5.771-15.6-6.3-19.306a11.334,11.334,0,0,1,1.313-7.556A98.7,98.7,0,0,1,85.229,83c-.7-3.07-2.163-8.208-3.145-11.561v-.057L81.47,69.31l8.378,23.1a92,92,0,0,0-.321,9.993C89.621,107.176,91.85,115.384,93.163,119.795Z" transform="translate(-4.088 -4.802)" fill="#1d427f"/>
  <path id="Tracé_311" data-name="Tracé 311" d="M53.453,97a23.547,23.547,0,0,1-.293,11.334c-.973,3.589-2.409,10.106-2.409,10.106l-.1.057-.264.123h0l-.161.057c-.765.236-.945-.208-.945-.208s-1.105-6.413-1.6-11.646-1.889-13.082-2.409-19.249c-.444-5.535-1.766-15.651-2.04-17.672a1.094,1.094,0,0,0-.047-.359l-.076.2h0c-.368,1.039-2.154,5.96-3.315,9.124-1.313,3.551-4.373,11.57-4.373,11.57a31.169,31.169,0,0,1,2.324,5.96c.869,3.23.283,7.037-.529,10.588S34.648,118.8,34.648,118.8l-.161.066-.17.057H34.26a2.012,2.012,0,0,1-1.54-.34v-.123c-.094-.869-.689-6.375-1.171-10.947-.633-4.949-2.05-15.783-2.05-15.783s.7-7.849,1.511-13.223c.179-1.171.463-2.645.793-4.25.425-2.059.945-4.326,1.436-6.413.255-1.058.5-2.078.737-2.985a.467.467,0,0,1,.076-.312c.312-1.209.6-2.239.8-2.956v-.161a6,6,0,0,1,.321-.9s1.37,1,6.017.642c5.667-.434,7.84-3.089,7.84-3.089l-.076-.217h0s.425.51,1.02,1.313l.1.123c.548.737,1.228,1.691,1.889,2.7l.094.151a20.638,20.638,0,0,1,1.53,2.834c1.351,3.1-.236,10.39-.812,14.394s-1.965,11.485-1.965,11.485A28.941,28.941,0,0,1,53.453,97Z" transform="translate(-1.469 -4.167)" fill="#263b7f"/>
  <path id="Tracé_312" data-name="Tracé 312" d="M53.588,97a23.547,23.547,0,0,1-.293,11.334c-.973,3.589-2.409,10.106-2.409,10.106l-.1.057-.264.123h0c.453-2.928,1.823-12.364,1.407-17.946-.548-6.7-2.267-7.736-2.267-7.736l-.246.945c.066-.236.17-.633.331-1.228.945-3.353,2.125-15.537,2.125-15.537S47.95,69.376,45.107,66.5s-5.913-1.738-8.132.652a66.552,66.552,0,0,0-5.034,7.141c.425-2.059.945-4.326,1.436-6.413.255-1.058.5-2.078.737-2.985a.467.467,0,0,1,.076-.312c.312-1.209.6-2.239.8-2.956v-.161a6,6,0,0,1,.321-.9s1.37,1,6.017.642c5.667-.434,7.84-3.089,7.84-3.089l-.076-.217h0s.425.51,1.02,1.313l.1.123c.548.737,1.228,1.691,1.889,2.7l.094.151a20.637,20.637,0,0,1,1.53,2.834c1.351,3.1-.236,10.39-.812,14.394S50.953,90.9,50.953,90.9A28.94,28.94,0,0,1,53.588,97Z" transform="translate(-1.596 -4.169)" fill="#212a60"/>
  <path id="Tracé_313" data-name="Tracé 313" d="M39.983,79.594c-1.313,3.551-4.373,11.57-4.373,11.57a31.169,31.169,0,0,1,2.324,5.96c.869,3.23.283,7.037-.529,10.588s-2.569,11.816-2.569,11.816l-.161.066-.17.057h-.057c.718-3.287,2.3-10.494,2.144-14.6-.208-5.393-2.352-13.488-2.352-13.488s4.345-10.805,6.224-15.953S43.3,70.46,43.3,70.46C42.93,71.508,41.144,76.429,39.983,79.594Z" transform="translate(-1.74 -4.865)" fill="#212a60"/>
  <path id="Tracé_314" data-name="Tracé 314" d="M48.219,44.946h0l-.057-.1a1.889,1.889,0,0,1-.057.472v.057a2.645,2.645,0,0,1-.642,1.105h0l-.236.208h0a35.4,35.4,0,0,0,.491,4.543,37.847,37.847,0,0,0,1.36,5.148l.076.217A6.876,6.876,0,0,1,47.936,57.6a13.733,13.733,0,0,1-6.612,2.078c-.708.057-1.351.076-1.889.076-3.117,0-4.1-.718-4.1-.718.331-2.673-.6-9.143-.793-10.475a1.89,1.89,0,0,1,0-.217h0v1.03h0a8.727,8.727,0,0,0-1.067-.416,30.706,30.706,0,0,0-3.485-.822,3.992,3.992,0,0,1,.1-.775,1.039,1.039,0,0,1,0-.17,64.508,64.508,0,0,1,1.067-6.376c.652-2.616,1.388-6.989,2.654-7.811A12.458,12.458,0,0,1,38.5,31.43h.208q1.615-.151,2.919-.17h.17c3.929,0,5.762.727,6.385,1.067l.142.085h.066c.368.246,1.266,1.549,2.569,4.043a47.077,47.077,0,0,1,2.4,6.262l.057.161h0c.179.567.283.945.283.945a9.691,9.691,0,0,0-4.364,1.313c-.463.283-.718.519-.718.586Z" transform="translate(-1.496 -2.032)" fill="#f79738"/>
  <path id="Tracé_315" data-name="Tracé 315" d="M34.6,50.392a8.728,8.728,0,0,0-1.067-.416l.227-1.426a1.162,1.162,0,0,1,.822,1.039C34.588,49.8,34.6,50.08,34.6,50.392Z" transform="translate(-1.717 -3.055)" fill="#e47d25"/>
  <path id="Tracé_316" data-name="Tracé 316" d="M49.968,57.158l.076.217a6.876,6.876,0,0,1-1.218,1.011,25.313,25.313,0,0,1-1.36-5.932,26.343,26.343,0,0,0-.6-4.486s2.059-2.21,1.483-3.778l1.889,1.615c-.463.283-.718.519-.718.586l-.378-.765h0l-.057-.1a1.889,1.889,0,0,1-.057.472v.057a2.645,2.645,0,0,1-.642,1.105h0l-.236.208h0a35.4,35.4,0,0,0,.491,4.543,37.845,37.845,0,0,0,1.322,5.252Z" transform="translate(-2.395 -2.818)" fill="#e47d25"/>
  <path id="Tracé_317" data-name="Tracé 317" d="M96.151,38.171l-.293-.123h-.1c-.227-.066-.557-.151-.945-.236h-.17a12.43,12.43,0,0,0-2.3-.227,15.175,15.175,0,0,0-1.889.076c-1.313.094-2.333.246-2.333.246v.085h0l.3,2.087v.076H81.6c-3.438,0-6.5-.406-7.358,0-.463.236-1.464.737-2.333,1.2a10.5,10.5,0,0,0-1.436.888.3.3,0,0,0-.076.085,2.975,2.975,0,0,0-.387.945h0c-.2.756-.142,1.672,1.039,1.7h.331a8.5,8.5,0,0,0,1.077-.1h0a18.3,18.3,0,0,0,2.758-.727h.236a7.905,7.905,0,0,1,1.2.123l.255.047a7.557,7.557,0,0,1,1.36.4c.756.312,2.89,1.417,5.176,2.494,1.124.529,2.286,1.048,3.334,1.464q.928.372,1.889.652l.784.217c-.151,3.344-.293,6.413-.293,6.413s-.671.236-1.785.567a38.791,38.791,0,0,1-9.445,1.6,68.317,68.317,0,0,1-10.39-.689l-.6-.085-.538-4.789.331-2.38h0c.066-.51.151-1.124.246-1.889a25.832,25.832,0,0,1,2.956-8.34s-.945-.246-3.986.368c-1.266.264-2.409.576-3.3.85-1.218.387-1.974.7-1.974.7-.113-.434-.227-.878-.331-1.341a1.1,1.1,0,0,1,0-.17C59.391,36,58.984,30.71,59.967,29.1h0c1.105-1.795,3.438-3.665,7.868-5.006,1.889-.567,3.277-1.011,4.439-1.351a22.669,22.669,0,0,1,3.778-.9l3.6.274s1.757.633,3.835,1.417c1.728.642,3.684,1.388,5.034,1.946a8.793,8.793,0,0,1,5.28,5.478c.586,1.587,1.455,4.326,1.946,5.932a.216.216,0,0,0,.066.189h0c.123.387.208.689.264.878A1.3,1.3,0,0,1,96.151,38.171Z" transform="translate(-2.863 -1.438)" fill="#f79738"/>
  <path id="Tracé_318" data-name="Tracé 318" d="M84.259,23.561A11.23,11.23,0,0,1,73,22.767a22.669,22.669,0,0,1,3.778-.9l3.6.274S82.181,22.777,84.259,23.561Z" transform="translate(-3.701 -1.207)" fill="#e47d25"/>
  <path id="Tracé_319" data-name="Tracé 319" d="M62.64,41.622c-1.218.387-1.974.7-1.974.7-.113-.434-.227-.878-.331-1.341a1.1,1.1,0,0,1,0-.17c-.945-4.345-1.351-9.634-.368-11.24h0A31.7,31.7,0,0,0,62.64,41.622Z" transform="translate(-3.036 -1.881)" fill="#e47d25"/>
  <path id="Tracé_320" data-name="Tracé 320" d="M89.945,50.95c-.151,3.344-.293,6.413-.293,6.413s-.671.236-1.785.567c.34-2.1.85-5.365.888-6.47a8.5,8.5,0,0,1-2.427-.945s-2.135,2.9-8.189,3.986a53.11,53.11,0,0,1-9.88.945l-.236,3.344-.6-.085-.538-4.789.331-2.38h0c4.723-.434,14.772-1.341,15.018-1.332A11.26,11.26,0,0,0,83.9,48.57c1.124.529,2.286,1.048,3.334,1.464q.928.372,1.889.652Z" transform="translate(-3.278 -3.084)" fill="#e47d25"/>
  <path id="Tracé_321" data-name="Tracé 321" d="M88.41,40.682V31.35l3.6,6.819c-1.313.094-2.333.246-2.333.246V38.5h0l.3,2.087v.076H88.41Z" transform="translate(-4.473 -1.986)" fill="#e47d25"/>
  <path id="Tracé_322" data-name="Tracé 322" d="M69.605,33.24a64.312,64.312,0,0,1,2.985,9.313l-3.07,2.021,1.4-1.634s-.057-2.125-.387-4.505S69.605,33.24,69.605,33.24Z" transform="translate(-3.553 -2.111)" fill="#e47d25"/>
  <path id="Tracé_323" data-name="Tracé 323" d="M90.618,65.54a24.387,24.387,0,0,1-3.778-5.45c1.162-.283,2.125-.557,2.834-.784a1.04,1.04,0,0,0,0-.17c-.718.227-1.691.519-2.881.812-.217-.406-.4-.765-.538-1.048l-.17.047c.142.274.321.633.538,1.039a47.68,47.68,0,0,1-5.752,1c.217-.614.368-1.067.4-1.115h-.189c-.057.189-.2.586-.387,1.115-.368,0-.746.085-1.143.113a44.92,44.92,0,0,1-7.424,0c.2-.472.349-.878.453-1.162h-.161c-.113.293-.264.7-.472,1.171-1.143-.1-2.163-.227-3-.359a.085.085,0,0,0-.113,0h0c-.746-.113-1.341-.227-1.747-.312v.17c.406.085.945.189,1.7.293a29.979,29.979,0,0,0-1.625,6.517c-.4.321-.784.6-1.1.841v.217c.312-.227.689-.51,1.1-.831a29.767,29.767,0,0,0-.246,2.994c-.113,5.025,0,20.836,0,21.629-.236.293-2.427,3.022-3.089,8.623-.614,5.1.945,16.557,1.388,19.6h.161c-.434-3.032-1.993-14.47-1.388-19.552.7-5.847,3.051-8.5,3.07-8.557,0-.17-.085-16.529,0-21.667a29.676,29.676,0,0,1,.2-3.221,20.563,20.563,0,0,0,2.5-2.324,15.716,15.716,0,0,0,2.286-3.891c1.237.1,2.616.17,4.071.17a28.367,28.367,0,0,0,3.438-.142l1.067-.1c-.3.9-.708,2.078-1.067,3.145a.076.076,0,0,0,0,.1h0a.085.085,0,0,0,.076-.057c.255-.727.737-2.163,1.1-3.221a47.144,47.144,0,0,0,5.932-1.039A22.857,22.857,0,0,0,90.637,65.8,2.591,2.591,0,0,0,90.618,65.54Zm-20.968-.51a20.487,20.487,0,0,1-2.342,2.2,30.1,30.1,0,0,1,1.587-6.347c.831.123,1.889.246,2.975.34A14.952,14.952,0,0,1,69.649,65.03Z" transform="translate(-3.101 -4.224)" fill="#a6ddeb"/>
  <path id="Tracé_324" data-name="Tracé 324" d="M94.019,121.219l-.142.085a1,1,0,0,0-.094-.283c-2.05-6.4-3.362-10.928-3.882-13.469-.161-.793-.34-1.568-.519-2.314-.86-3.693-1.681-7.178-.463-12.581l-6.9-21.346v-.057l-1.058-3.211h0l-.217.161-.5.349h0a.076.076,0,0,1,0-.113l1.889-1.351a.085.085,0,0,1,.113,0,.094.094,0,0,1,0,.113l-1.181.746h.057L89.079,92.6c-1.209,5.384-.4,8.86.463,12.534.179.746.359,1.53.52,2.314.519,2.531,1.823,7.065,3.882,13.459Z" transform="translate(-4.018 -4.677)" fill="#a6ddeb"/>
  <path id="Tracé_325" data-name="Tracé 325" d="M3.155,123.59A4.9,4.9,0,0,0,0,127.755H5.327a24.718,24.718,0,0,1,1.02-3.778Z" transform="translate(0 -7.813)" fill="#263b7f"/>
  <path id="Tracé_326" data-name="Tracé 326" d="M86.195,49.364c-.576.387-6.517,3.627-11.844,4.288-5.6.7-8.378.775-10.257-1.511s-3.353-9.2-3.353-9.2A4.1,4.1,0,0,1,62.516,42a19.137,19.137,0,0,1,2.39-.671,15.755,15.755,0,0,1,5.355-.538c0,.623.123,1.625.208,2.56-.283.387-1.19,2.6.652,2.635a14.659,14.659,0,0,0,4.335-.888,8.746,8.746,0,0,1,2.919.567h0c.86.359,3.495,1.738,6.111,2.928Z" transform="translate(-2.938 -2.596)" fill="#f1b5ab"/>
  <path id="Tracé_327" data-name="Tracé 327" d="M98.668,47.88a3.448,3.448,0,0,1-.756,2.3c-1.691,1.766-4.883.945-7.764.217l-.784-.217a22.113,22.113,0,0,1-2.626-.945c-3.06-1.285-6.763-3.23-7.811-3.674h0a8.746,8.746,0,0,0-2.919-.567,14.659,14.659,0,0,1-4.335.888,1.086,1.086,0,0,1-.945-.416c-.463-.671.085-1.936.293-2.22a26.655,26.655,0,0,1,3.844-2.172c.86-.425,3.92-.057,7.358,0s6.819,0,6.819,0v-.113h0l-.312-2.125s.945-.132,2.125-.227c.652-.057,1.388-.094,2.125-.094a13.035,13.035,0,0,1,3.778.6h0C97.629,41.731,98.772,45.358,98.668,47.88Z" transform="translate(-3.482 -2.451)" fill="#f1b5ab"/>
  <path id="Tracé_328" data-name="Tracé 328" d="M32.507,122.183v-.123a5.553,5.553,0,0,0-1.218.123c-1.643.368-4.288,2.654-4.288,2.654h7.443s-.057-2.229,0-2.494A1.946,1.946,0,0,1,32.507,122.183Z" transform="translate(-1.374 -7.728)" fill="#d64e27"/>
  <path id="Tracé_329" data-name="Tracé 329" d="M50.29,122.057l-1.19,3.192s1.842.085,3.674,0A24.293,24.293,0,0,0,51.839,122l-.1.057C50.564,122.671,50.29,122.057,50.29,122.057Z" transform="translate(-2.508 -7.725)" fill="#d64e27"/>
  <path id="Tracé_330" data-name="Tracé 330" d="M70.329,10.485c-.8.4-.34,4.25,2.286,3.778a18.012,18.012,0,0,0-1.691-3.778.6.6,0,0,0-.6,0Z" transform="translate(-3.578 -0.571)" fill="#f1b5ab"/>
  <path id="Tracé_331" data-name="Tracé 331" d="M74.068,9.8c-.208-.406.529-1.02,1.965-1.228a2.342,2.342,0,0,1,1.955.331s.113.331-1.313.453a15.311,15.311,0,0,0-2.607.444Z" transform="translate(-3.781 -0.465)" fill="#441211"/>
  <path id="Tracé_332" data-name="Tracé 332" d="M81.9,8.653c-.349-.227,1.02-1.143,2.371-.945v.633S82.35,8.927,81.9,8.653Z" transform="translate(-4.108 -0.42)" fill="#441211"/>
  <path id="Tracé_333" data-name="Tracé 333" d="M64.2,124.17a9.181,9.181,0,0,1,4-1.03,3.145,3.145,0,0,1,2.654,1.889H64.247Z" transform="translate(-3.27 -7.788)" fill="#d64e27"/>
  <path id="Tracé_334" data-name="Tracé 334" d="M94.54,124.47a5.138,5.138,0,0,1,3.551-1.71c2.05,0,3.721,2.172,3.721,2.172s-6.706.151-7.273.085Z" transform="translate(-4.813 -7.767)" fill="#d64e27"/>
  <path id="Tracé_335" data-name="Tracé 335" d="M84.163,12.892c.69,1.728,1.067,3.712-.888,5.355a7.134,7.134,0,0,1-.586.416,7.641,7.641,0,0,1-2.05.86,9.162,9.162,0,0,1-3.873.246l-.255-.047-.3-.085a2.946,2.946,0,0,1-.463-.17c-1.795-.812-2.494-2.739-2.985-5.082a2.7,2.7,0,0,0-.161-.661,18.012,18.012,0,0,0-1.691-3.778c-.264-.472-.5-.9-.68-1.237-.623-1.209-.453-3.429,1.417-5.667h0A7.953,7.953,0,0,1,77.551,0a12.713,12.713,0,0,1,6.328,1.464,1.672,1.672,0,0,1,.623.822c.557,1.4.066,3.778-.142,4.779-.123.614-.3,1.37-.453,1.965s-.255,1.058-.255,1.058c-.463-1.417-.293-4.5-.378-5.119s-1.549.094-2.5.633a8.274,8.274,0,0,1-4.609.2c-1.275-.331-1.889-.491-2.579.123a5.2,5.2,0,0,0-1.36,3.891h0v.567c.293,2.125,1.313,3.514,2.616,6.007a3.6,3.6,0,0,0,2.078,1.993h0a1.813,1.813,0,0,0,.869.047,5.667,5.667,0,0,1,2.494-1.889,2.569,2.569,0,0,1,2.7.491C83.936,16.359,84.163,12.892,84.163,12.892Z" transform="translate(-3.529 0.006)" fill="#591813"/>
  <path id="Tracé_336" data-name="Tracé 336" d="M40.84,39.407V40.8l5.431-.689V38.67Z" transform="translate(-2.083 -2.433)" fill="#263b7f"/>
  <path id="Tracé_337" data-name="Tracé 337" d="M81.21,34.459l.368,2.04s4.5-1.143,6.045-1.02l-.69-1.889a22.668,22.668,0,0,0-5.724.869Z" transform="translate(-4.073 -2.114)" fill="#d64e27"/>
  <path id="Tracé_338" data-name="Tracé 338" d="M51.986,120.325a2.115,2.115,0,0,1-.548-.057,1.946,1.946,0,0,1-1.54-1.5c-.4-1.511.586-3.778,2.276-5.223a8.246,8.246,0,0,1,3.882-1.889A87.471,87.471,0,0,0,57.285,93.4a43.741,43.741,0,0,0-7.339-21.129c-4.562-6.725-9.653-8.586-12.666-7.462-2.135.784-5.667,5.743-9.389,13.3-1.946,4-9.691,19.835-11.7,24.907s-6.536,16.454-6.612,16.567a.812.812,0,0,1-1.058.463.822.822,0,0,1-.463-1.067c.047-.113,4.609-11.551,6.612-16.557s9.795-21.025,11.759-25c2.834-5.771,6.961-12.921,10.276-14.168a8.746,8.746,0,0,1,6.895.793,21.516,21.516,0,0,1,7.7,7.244,45.422,45.422,0,0,1,7.622,21.951,90.759,90.759,0,0,1-1.152,18.106,33.523,33.523,0,0,1,4.723.057.814.814,0,0,1-.1,1.625,29.5,29.5,0,0,0-4.959,0q-.123.529-.255.945C55.585,119.541,53.214,120.325,51.986,120.325Zm3.655-6.923a6.7,6.7,0,0,0-2.4,1.379,4.363,4.363,0,0,0-1.766,3.58c.057.227.151.283.3.312,1.105.236,2.72-1.247,3.778-5.11A.246.246,0,0,0,55.641,113.4Z" transform="translate(-0.444 -4.445)" fill="#b15026"/>
  <path id="Tracé_339" data-name="Tracé 339" d="M7.921,122c-.68.264-5.119,1.247-5.082,2.04s6-.661,6-.661Z" transform="translate(-0.158 -7.725)" fill="#ab463e"/>
  <path id="Tracé_340" data-name="Tracé 340" d="M84.629,105.09l-.482,5.157-.387,4L83,122.261c0,1.19-3.778,2.163-8.5,2.163H73.04c-3.967-.179-6.98-1.067-6.98-2.135l-.85-7.991-.057-.491c-.123-1.19-.255-2.371-.378-3.466-.3-2.834-.557-5.072-.586-5.129.236.6,1.643,1.143,3.778,1.5a39.464,39.464,0,0,0,6.451.482C79.935,107.168,84.44,106.242,84.629,105.09Z" transform="translate(-3.217 -6.787)" fill="#a6ddeb"/>
  <path id="Tracé_341" data-name="Tracé 341" d="M73.09,124.4c-3.967-.179-6.98-1.067-6.98-2.135l-.85-7.991-.057-.491c-.123-1.19-.255-2.371-.378-3.466-.3-2.834-.557-5.072-.586-5.129.236.6,1.643,1.143,3.778,1.5C69.1,112.349,71,120.746,73.09,124.4Z" transform="translate(-3.265 -6.792)" fill="#66c8ce"/>
  <path id="Tracé_342" data-name="Tracé 342" d="M84.641,104.873c0,1.2-4.581,2.163-10.22,2.163a40.046,40.046,0,0,1-6.536-.491c-2.05-.368-3.41-.945-3.646-1.492a.548.548,0,0,1,0-.179c0-.756,1.823-1.417,4.581-1.8a41.431,41.431,0,0,1,5.667-.359C80.07,102.71,84.641,103.683,84.641,104.873Z" transform="translate(-3.219 -6.486)" fill="#e69548"/>
  <path id="Tracé_343" data-name="Tracé 343" d="M84.185,110.55l-.387,4a47.132,47.132,0,0,1-9.549,1.143,34.454,34.454,0,0,1-4.307-.076,14.923,14.923,0,0,1-4.647-1l-.057-.491c-.123-1.19-.255-2.371-.378-3.466a17.624,17.624,0,0,0,4.146,1.03,33.793,33.793,0,0,0,5.431.227A32.227,32.227,0,0,0,84.185,110.55Z" transform="translate(-3.256 -7.09)" fill="#a3d6b7"/>
  <path id="Tracé_344" data-name="Tracé 344" d="M78.73,124.316a4.307,4.307,0,1,1,4.307,4.3A4.307,4.307,0,0,1,78.73,124.316Z" transform="translate(-3.936 -7.614)" fill="#703e3e"/>
  <path id="Tracé_345" data-name="Tracé 345" d="M83.094,127.7a3.325,3.325,0,1,1,3.315-3.325A3.325,3.325,0,0,1,83.094,127.7Z" transform="translate(-4.063 -7.672)" fill="#e78234"/>
  <path id="Tracé_346" data-name="Tracé 346" d="M65.37,125.359a2.229,2.229,0,1,1,2.229,2.229A2.229,2.229,0,0,1,65.37,125.359Z" transform="translate(-3.337 -7.788)" fill="#703e3e"/>
  <path id="Tracé_347" data-name="Tracé 347" d="M67.657,126.664a1.247,1.247,0,1,1,1.247-1.247A1.247,1.247,0,0,1,67.657,126.664Z" transform="translate(-3.396 -7.845)" fill="#e78234"/>
  <path id="Tracé_348" data-name="Tracé 348" d="M49.276,32.435c-1.02,1.889-1.606,6.054-1.615,6.1a.076.076,0,0,1-.076.066h0a.094.094,0,0,1-.076-.094,23.1,23.1,0,0,1,1.634-6.158Z" transform="translate(-2.431 -2.043)" fill="#601112"/>
  <path id="Tracé_349" data-name="Tracé 349" d="M39.387,35.615v1.247l-.2,7.216a.085.085,0,0,1-.085.076h0a.085.085,0,0,1-.085-.085l.246-8.416L36.8,33.962a.066.066,0,0,1,0-.057.057.057,0,0,1,0-.066c.68-.756,1.71-1.889,2.087-2.4h.208c-.321.472-1.4,1.672-2.116,2.456L39.4,35.558a.113.113,0,0,1-.009.057Z" transform="translate(-1.881 -2)" fill="#601112"/>
  <path id="Tracé_350" data-name="Tracé 350" d="M39.445,36.863a.076.076,0,0,1-.066-.047.066.066,0,0,1,0-.1l3.967-2.257L42.1,31.243a.094.094,0,0,1,.047-.1.085.085,0,0,1,.113.047l1.266,3.277a.094.094,0,0,1,0,.094l-4.033,2.3Z" transform="translate(-2.009 -1.965)" fill="#601112"/>
  <path id="Tracé_351" data-name="Tracé 351" d="M53.017,101.517a24.132,24.132,0,0,0-2.834-8.5c0-.349.406-3.958.671-9.1.1-1.813.34-3.778.576-5.667.463-3.778.945-7.736.283-10.607a35.3,35.3,0,0,0-1.643-5.2,6.167,6.167,0,0,0,.737,0,5.667,5.667,0,0,0,1.6-.227l-.094-.151a5.582,5.582,0,0,1-2.3.161,15.773,15.773,0,0,0-.945-2.069c.548-.283,1.02-.548,1.407-.793l-.1-.123a19.58,19.58,0,0,1-7.405,2.654,17.946,17.946,0,0,1-7.745-.387v.161c.321.094.756.208,1.285.312a17.522,17.522,0,0,1-2.182,2.7.493.493,0,0,1-.076.312,17.341,17.341,0,0,0,2.333-2.919,17.86,17.86,0,0,0,3.174.274,22.4,22.4,0,0,0,3.192-.236,20.7,20.7,0,0,0,3.835-.945,7.651,7.651,0,0,0,3.089,1.256,36.478,36.478,0,0,1,1.653,5.252c.642,2.834.161,6.763-.293,10.55-.236,1.889-.482,3.882-.576,5.667-.283,5.374-.68,9.077-.68,9.115a23.764,23.764,0,0,1,2.937,8.51c.359,3.778-1.889,14.81-2.427,17.237l.179-.066C51.156,116.1,53.376,105.295,53.017,101.517ZM46.963,61.082a18.69,18.69,0,0,0,1.889-.812,17.616,17.616,0,0,1,.945,1.965A7.169,7.169,0,0,1,46.963,61.082Z" transform="translate(-1.72 -4.243)" fill="#a6ddeb"/>
  <path id="Tracé_352" data-name="Tracé 352" d="M43.473,70.469a.085.085,0,0,1-.17,0,.246.246,0,0,0,0-.094h0a7.66,7.66,0,0,0-.529-1.105c-.434,1.152-3,7.981-4.307,12.128-.812,2.616-1.936,5.592-2.673,7.556-.463,1.247-.869,2.324-.878,2.494a24.463,24.463,0,0,1,2.267,9.02c.189,3.778-1.823,15.3-2.5,19.032l-.17.057c.652-3.627,2.7-15.273,2.512-19.089a24.69,24.69,0,0,0-2.22-8.916h0c-.057-.076,0-.264.878-2.607.737-1.974,1.889-4.94,2.673-7.556,1.407-4.524,4.345-12.279,4.373-12.279a420.972,420.972,0,0,0,.151,0,8.728,8.728,0,0,1,.6,1.36Z" transform="translate(-1.754 -4.79)" fill="#a6ddeb"/>
  <path id="Tracé_353" data-name="Tracé 353" d="M79.018,34.443a.085.085,0,0,1-.085-.057c-.86-2.6-2.172-6.517-2.314-6.753a.074.074,0,0,1,.113-.094s.132.076,2.257,6.5l.945-6.187a.082.082,0,1,1,.161.028l-.945,6.527a.076.076,0,0,1-.076.066Z" transform="translate(-3.914 -1.738)" fill="#601112"/>
  <path id="Tracé_354" data-name="Tracé 354" d="M79.115,34.5a.085.085,0,0,1-.085-.066l-.68-5.809a.085.085,0,0,1,.17,0l.671,5.8a.076.076,0,0,1-.076.094Z" transform="translate(-4.013 -1.801)" fill="#601112"/>
  <path id="Tracé_355" data-name="Tracé 355" d="M90.116,41.28a.085.085,0,0,1-.076-.076.076.076,0,0,1,.076-.085s1.4-.076,2.163-.179a.066.066,0,0,1,.085.066.076.076,0,0,1-.066.094c-.774.1-2.163.179-2.172.179Z" transform="translate(-4.563 -2.571)" fill="#601112"/>
  <path id="Tracé_356" data-name="Tracé 356" d="M70.752,11.4a.08.08,0,1,0-.113.113,3.552,3.552,0,0,1,.633.642h0c-.094.113-.406.51-.236.718a.378.378,0,0,0,.3.094,1.474,1.474,0,0,0,.4-.057,1.973,1.973,0,0,1,.123.491.085.085,0,0,0,.085.066h0a.076.076,0,0,0,.066-.094A3.277,3.277,0,0,0,70.752,11.4Zm.4,1.4c-.057-.057.085-.312.236-.491a3.042,3.042,0,0,1,.283.491c-.208.047-.463.113-.519,0Z" transform="translate(-3.615 -0.625)" fill="#983222"/>
  <path id="Tracé_357" data-name="Tracé 357" d="M81.414,14.358a2.522,2.522,0,0,1-1.266-.349.066.066,0,0,1,0-.1.076.076,0,0,1,.113,0,2.3,2.3,0,0,0,2.04.151,7.2,7.2,0,0,1-1.133-2.04,6.611,6.611,0,0,1,0-3.07.066.066,0,0,1,.094-.057.076.076,0,0,1,.057.094,6.725,6.725,0,0,0,0,2.975,7.046,7.046,0,0,0,1.171,2.078.057.057,0,0,1,0,.066.076.076,0,0,1,0,.057,2.352,2.352,0,0,1-1.077.2Z" transform="translate(-4.098 -0.487)" fill="#983222"/>
  <path id="Tracé_358" data-name="Tracé 358" d="M77.66,15.05a8.406,8.406,0,0,0,3.136.264,15.358,15.358,0,0,1,2.031-.264s-.7,2.012-2.276,2.1S77.66,15.05,77.66,15.05Z" transform="translate(-3.962 -0.829)" fill="#fff"/>
  <path id="Tracé_359" data-name="Tracé 359" d="M76.661,11.1c0,.567-.094,1.039-.283,1.048S76,11.705,76,11.138s.094-1.039.283-1.048S76.633,10.534,76.661,11.1Z" transform="translate(-3.893 -0.554)" fill="#601112"/>
  <path id="Tracé_360" data-name="Tracé 360" d="M82.53,10.331c0,.576-.1,1.039-.293,1.058s-.359-.444-.387-1.02.094-1.039.283-1.048S82.492,9.764,82.53,10.331Z" transform="translate(-4.108 -0.511)" fill="#601112"/>
  <path id="Tracé_361" data-name="Tracé 361" d="M65.146,41.425a.076.076,0,0,1-.076-.066.085.085,0,0,1,.066-.094,16.888,16.888,0,0,1,5.374-.576.066.066,0,0,1,.066.085.076.076,0,0,1-.094.076,17.379,17.379,0,0,0-5.318.576Z" transform="translate(-3.318 -2.555)" fill="#601112"/>
  <path id="Tracé_362" data-name="Tracé 362" d="M70.063,39.4h0a.066.066,0,0,1-.076,0,15.811,15.811,0,0,0-9.577,2.05,1.1,1.1,0,0,1,0-.17,16.057,16.057,0,0,1,9.634-2.04h0a.085.085,0,0,1,.019.161Z" transform="translate(-3.067 -2.463)" fill="#601112"/>
  <path id="Tracé_363" data-name="Tracé 363" d="M97.526,37.954c-3.013-1.171-7.273-.406-7.9-.283h-.085a.085.085,0,0,1-.094-.057h0a.094.094,0,0,1,.066-.076H89.6c.633-.123,4.826-.878,7.868.255C97.46,37.832,97.526,37.9,97.526,37.954Z" transform="translate(-4.53 -2.336)" fill="#601112"/>
  <path id="Tracé_364" data-name="Tracé 364" d="M34.486,49.156h-.076A13.3,13.3,0,0,0,30,47.966a1.039,1.039,0,0,1,0-.17,14.782,14.782,0,0,1,4.222,1.1l-.066-.094c-.274-.17-3.655-2.4-2.3-7.641a.082.082,0,1,1,.161.038c-1.388,5.318,2.2,7.452,2.229,7.471h0l.17.264h0l.066.1a.085.085,0,0,1,0,.123Z" transform="translate(-1.531 -2.602)" fill="#601112"/>
  <path id="Tracé_365" data-name="Tracé 365" d="M54.183,43.454a7.471,7.471,0,0,0-5.157,2,.6.6,0,0,1,0,.066h0q-.057.2-.113.368v.057a3.514,3.514,0,0,1-.642,1.105h0a2.836,2.836,0,0,1-.236.236,3.534,3.534,0,0,1-.51.368,3.91,3.91,0,0,1-1.946.472,5.384,5.384,0,0,1-1.37-.179.085.085,0,0,1,0-.1.076.076,0,0,1,.1,0,4.638,4.638,0,0,0,3.183-.293,3.183,3.183,0,0,0,1.483-2.116l-1.8-3.655a.076.076,0,0,1,0-.1.066.066,0,0,1,.1,0l1.776,3.58A7.556,7.556,0,0,1,54.2,43.275Z" transform="translate(-2.243 -2.633)" fill="#601112"/>
  <path id="Tracé_366" data-name="Tracé 366" d="M78.207,28.186a1.416,1.416,0,0,0-.189-.151c-.831-.567-3.778-1.974-3.778-1.974l.822-1.993c.614-1.492,1.36-3.277,1.388-3.277h0l.3.085.255.047a15.113,15.113,0,0,0,.378,3.721s0,0,0,.047C77.876,26.391,78.207,28.186,78.207,28.186Z" transform="translate(-3.791 -1.312)" fill="#2b91be"/>
  <path id="Tracé_367" data-name="Tracé 367" d="M83.694,25.927c-1.322.529-4.949,2.125-5.214,2.248a18.57,18.57,0,0,0,1.436-3.561c.491-1.436.945-2.975,1.218-3.9h0l.378-.113,1.417,3.5Z" transform="translate(-4.003 -1.301)" fill="#2b91be"/>
  <path id="Tracé_368" data-name="Tracé 368" d="M82.7,18.842a7.641,7.641,0,0,1-2.05.86,9.162,9.162,0,0,1-3.873.246l-.255-.047-.3-.085a2.947,2.947,0,0,1-.463-.17c-1.795-.812-2.494-2.739-2.985-5.082a2.7,2.7,0,0,0-.161-.661,18.012,18.012,0,0,0-1.691-3.778c-.264-.472-.5-.9-.68-1.237-.623-1.209-.453-3.429,1.417-5.667A12.147,12.147,0,0,0,72.234,10h0v.567c.293,2.125,1.313,3.514,2.616,6.007a3.6,3.6,0,0,0,2.078,1.993h0a8.18,8.18,0,0,0,5.771.274Z" transform="translate(-3.538 -0.173)" fill="#441211"/>
  <path id="Tracé_369" data-name="Tracé 369" d="M85.156,7.219c-.123.614-.3,1.37-.453,1.965s-.255,1.058-.255,1.058c-.463-1.417-.293-4.5-.378-5.119A10.03,10.03,0,0,0,85.3,2.44C85.893,3.838,85.364,6.237,85.156,7.219Z" transform="translate(-4.232 -0.129)" fill="#441211"/>
  <path id="Tracé_370" data-name="Tracé 370" d="M77.443,24.644a7.282,7.282,0,0,1-2.333-.576c.614-1.492,1.36-3.277,1.388-3.277h0l.3.085.255.047A15.113,15.113,0,0,0,77.443,24.644Z" transform="translate(-3.842 -1.147)" fill="#0a4e8d"/>
  <path id="Tracé_371" data-name="Tracé 371" d="M83,24.066a17.492,17.492,0,0,1-3.022.548c.491-1.436.945-2.975,1.218-3.9h0l.378-.113Z" transform="translate(-4.088 -1.137)" fill="#0a4e8d"/>
  <path id="Tracé_372" data-name="Tracé 372" d="M67.885,106.566c-2.05-.368-3.41-.945-3.646-1.492a.548.548,0,0,1,0-.179c0-.756,1.823-1.417,4.581-1.8a4.534,4.534,0,0,0-.935,3.476Z" transform="translate(-3.278 -6.504)" fill="#d2833b"/>
  <path id="Tracé_373" data-name="Tracé 373" d="M67.031,104.529a.652.652,0,0,1-.189,0,.5.5,0,0,1-.264-.642L68.3,99.646a.472.472,0,0,1,.425-.3l11.032-.614a.51.51,0,0,1,.5.34l1.341,4.42a.491.491,0,0,1-.321.614.5.5,0,0,1-.614-.331l-1.237-4.043-10.39.576-1.6,3.92a.491.491,0,0,1-.406.3Z" transform="translate(-3.358 -6.244)" fill="#d45927"/>
  <path id="Tracé_374" data-name="Tracé 374" d="M55.872,50.316a13.535,13.535,0,0,1-1.285,2.531,19.107,19.107,0,0,1-3.91,4.723,35.259,35.259,0,0,1-8.132,4.4c-.161,1.152-1.143,2.616-1.6,2.579h-.066c-.349-.132-.094-.945-.094-.945s-.86,1.634-1.351,1.558.255-1.53.321-1.672c-.576.784-1.587,1.889-1.889,1.625s1.351-3.06,1.351-3.06-1.228.812-1.473.652.491-.945,1.228-1.672a5.063,5.063,0,0,1,2.7-.945c.359,0,1.955-1.757,4.043-4.128l.094-.1h0c2.068-2.38,4.883-6.1,4.883-6.1-.208-.283-1.719-3.429-1.719-3.429a4.722,4.722,0,0,1,.661-.453,13.5,13.5,0,0,1,1.813-.907c1.889-.737,2.654-.453,2.654-.453A22.592,22.592,0,0,1,55.872,50.316Z" transform="translate(-1.895 -2.86)" fill="#f1b5ab"/>
  <path id="Tracé_375" data-name="Tracé 375" d="M51.729,50.068a67.43,67.43,0,0,1-5.459,5.856c2.068-2.38,4.883-6.1,4.883-6.1-.208-.283-1.719-3.429-1.719-3.429a4.723,4.723,0,0,1,.661-.453A9.587,9.587,0,0,1,51.729,50.068Z" transform="translate(-2.36 -2.916)" fill="#f5948d"/>
  <path id="Tracé_376" data-name="Tracé 376" d="M54.775,53.34a19.108,19.108,0,0,1-3.91,4.723,35.259,35.259,0,0,1-8.132,4.4c-.161,1.152-1.143,2.616-1.6,2.579H41.07a17.691,17.691,0,0,0,1.313-2.975,46.121,46.121,0,0,0,6.848-3.882,30.4,30.4,0,0,0,5.544-4.845Z" transform="translate(-2.076 -3.393)" fill="#f5948d"/>
  <path id="Tracé_377" data-name="Tracé 377" d="M86.195,49.437c-.576.387-6.517,3.627-11.844,4.288-5.6.7-8.378.775-10.257-1.511s-3.353-9.2-3.353-9.2a4.1,4.1,0,0,1,1.776-.945c.359,1.766,1.3,7.414,4.354,9.738,0,0,5.478,1.228,10.078,0A33.9,33.9,0,0,0,84.5,48.691Z" transform="translate(-2.938 -2.676)" fill="#f5948d"/>
  <path id="Tracé_378" data-name="Tracé 378" d="M70.34,48.83h0Z" transform="translate(-3.605 -3.067)" fill="#f5948d"/>
  <path id="Tracé_379" data-name="Tracé 379" d="M98.679,48.176a3.447,3.447,0,0,1-.756,2.3c-1.691,1.766-4.883.945-7.764.217l-.784-.217a22.11,22.11,0,0,1-2.626-.945c-3.06-1.285-6.763-3.23-7.811-3.674h0a8.746,8.746,0,0,0-2.919-.567,14.659,14.659,0,0,1-4.335.888,1.086,1.086,0,0,1-.945-.416A13.988,13.988,0,0,0,74.386,44.7a5.214,5.214,0,0,1,2.9-.85,88.783,88.783,0,0,0,11.4,3.589C93.985,48.714,96.96,48.714,98.679,48.176Z" transform="translate(-3.492 -2.776)" fill="#f5948d"/>
  <path id="Tracé_380" data-name="Tracé 380" d="M91.875,40.87l-1.813.142h0l-.312-2.125s.945-.132,2.125-.227Z" transform="translate(-4.547 -2.433)" fill="#f5948d"/>
  <path id="Tracé_381" data-name="Tracé 381" d="M87.307,49.256h0c-1.124-.416-5.015-2.276-8.085-3.778a4.442,4.442,0,0,0-3.391-.6l-.482.085a8.02,8.02,0,0,0-1.275.34,4.477,4.477,0,0,1-2.626.321,1.473,1.473,0,0,1-.945-.661,1.039,1.039,0,0,1-.066-.737,3.778,3.778,0,0,1,.453-1.322c0-.264-.179-2.163-.189-2.342a46.508,46.508,0,0,0-1.152-7.651.076.076,0,1,1,.151,0,46.358,46.358,0,0,1,1.143,7.632c0,.189.189,2.342.2,2.361a3.712,3.712,0,0,0-.463,1.417.822.822,0,0,0,.057.623,1.3,1.3,0,0,0,.831.586,4.383,4.383,0,0,0,2.522-.321,8.69,8.69,0,0,1,1.3-.349l.482-.085a4.6,4.6,0,0,1,3.495.614c3.06,1.483,6.942,3.344,8.066,3.778a.085.085,0,0,1,.047.1A.076.076,0,0,1,87.307,49.256Z" transform="translate(-3.426 -2.099)" fill="#601112"/>
  <path id="Tracé_382" data-name="Tracé 382" d="M97.754,38.7l-.293-.123h-.1a6.688,6.688,0,0,0-.945-.236h-.17a12.846,12.846,0,0,0-1.889-.142h0a31.782,31.782,0,0,0-4.628.321h0a.094.094,0,0,1-.094-.057c-.076-.312-.161-.7-.255-1.133h0c-.482-2.267-1.086-5.837-1.086-5.932a.085.085,0,0,1,.085-.085c.047,0,.076,0,.085.085s.576,3.57,1.067,5.837a.8.8,0,0,0,0,.161c.076.378.151.7.217.945a32.4,32.4,0,0,1,4.581-.312h0a9.445,9.445,0,0,1,3.325.5A1.305,1.305,0,0,1,97.754,38.7Z" transform="translate(-4.466 -1.979)" fill="#601112"/>
  <path id="Tracé_383" data-name="Tracé 383" d="M42.179,30.1h0a5.242,5.242,0,0,1-.491,2.777c-.661,1.228-1.681,2.541-2.3,2.418s-.359-2.749-.236-3.778a3.306,3.306,0,0,0-.189-1.332,8.435,8.435,0,0,0-.548-1.256h.142a6.763,6.763,0,0,0,3.655-2.664C42.208,27.186,42.236,29.349,42.179,30.1Z" transform="translate(-1.962 -1.663)" fill="#f1b5ab"/>
  <path id="Tracé_384" data-name="Tracé 384" d="M42.178,30.1a5.78,5.78,0,0,1-3.24.085,8.435,8.435,0,0,0-.548-1.256h.142a6.763,6.763,0,0,0,3.655-2.664C42.206,27.186,42.234,29.349,42.178,30.1Z" transform="translate(-1.961 -1.654)" fill="#f5948d"/>
  <path id="Tracé_385" data-name="Tracé 385" d="M81.054,20.67h0c-.2.765-.567,1.946-.945,3.145a21.168,21.168,0,0,1-1.71,4.316s-.331-1.795-.8-3.495a3.361,3.361,0,0,0-.132-.576,16.218,16.218,0,0,1-.255-3.192,9.162,9.162,0,0,0,3.844-.2Z" transform="translate(-3.943 -1.305)" fill="#f1b5ab"/>
  <path id="Tracé_386" data-name="Tracé 386" d="M81.054,20.67h0c-.2.765-.567,1.946-.945,3.145a7.481,7.481,0,0,1-2.645.246,16.217,16.217,0,0,1-.255-3.192,9.162,9.162,0,0,0,3.844-.2Z" transform="translate(-3.943 -1.141)" fill="#f5948d"/>
  <path id="Tracé_387" data-name="Tracé 387" d="M50.994,26.716a3.882,3.882,0,0,1-2.257.434,3.5,3.5,0,0,1-3.022-2.834c-.434-2.239.17-6.064,0-7.074s-.264-.945-.708-1.011a4.987,4.987,0,0,1-.756-2.182,4.288,4.288,0,0,1,.189-1.162A2.682,2.682,0,0,1,47.272,11c3.051,0,4.468,3.268,4.25,5.847s-1.889,5.884-1.247,6.536,2.021,0,2.324-.6A3.41,3.41,0,0,1,50.994,26.716Z" transform="translate(-2.25 -0.603)" fill="#d0412b"/>
  <path id="Tracé_388" data-name="Tracé 388" d="M48.736,27.249a3.5,3.5,0,0,1-3.022-2.834c-.434-2.239.17-6.064,0-7.074s-.264-.945-.708-1.011a4.987,4.987,0,0,1-.756-2.182,4.288,4.288,0,0,1,.189-1.162c1.691-.529,3.7-.312,3.627,3.1-.085,4.014-1.719,6.2-.9,8.586a7.452,7.452,0,0,0,1.568,2.579Z" transform="translate(-2.259 -0.702)" fill="#c02c26"/>
  <path id="Tracé_389" data-name="Tracé 389" d="M45.652,22.694a6.819,6.819,0,0,1-2.361,2.239,6.357,6.357,0,0,1-.945,1.71,9.5,9.5,0,0,1-.642.765,6.47,6.47,0,0,1-3.192,2.04h-.151A4.439,4.439,0,0,1,33.308,26.8c-1.2-2.324-1.03-7.688-.425-8.378,3,.557,6.045-.586,6.989-.85s1.124,0,1.983,1.237a5.269,5.269,0,0,1,.444.765h0a17.087,17.087,0,0,1,.945,3.051A2.834,2.834,0,0,1,44.3,21.06a2.286,2.286,0,0,1,.878-.519C45.955,20.37,46.125,21.532,45.652,22.694Z" transform="translate(-1.639 -0.964)" fill="#f1b5ab"/>
  <path id="Tracé_390" data-name="Tracé 390" d="M46.2,22.819a6.819,6.819,0,0,1-2.361,2.239,6.357,6.357,0,0,1-.945,1.71,9.5,9.5,0,0,1-.642.765c1.181-2.616.831-6.234.6-7.8a17.087,17.087,0,0,1,.945,3.051,2.834,2.834,0,0,1,1.058-1.6,2.286,2.286,0,0,1,.878-.519C46.5,20.5,46.67,21.657,46.2,22.819Z" transform="translate(-2.157 -1.246)" fill="#f5948d"/>
  <path id="Tracé_391" data-name="Tracé 391" d="M45.136,14.187a1.549,1.549,0,0,0-1.6.491,11.231,11.231,0,0,1,.841,2.163C46.411,16.359,46.071,14.5,45.136,14.187Z" transform="translate(-2.227 -0.778)" fill="#263b7f"/>
  <path id="Tracé_392" data-name="Tracé 392" d="M44.28,20.778a2.834,2.834,0,0,0-1.011,1.549,18.7,18.7,0,0,0-.708-2.39,6.168,6.168,0,0,0-.718-1.436c-.86-1.2-1.039-1.492-1.983-1.237s-3.986,1.407-6.989.85c-.86-.161-1.143-1.5-.463-2.626s5.667-3.693,8.368-2.966A3.778,3.778,0,0,1,42.9,14.582v.066a11.41,11.41,0,0,1,.841,2.1A11.6,11.6,0,0,1,44.28,20.778Z" transform="translate(-1.622 -0.682)" fill="#d0412b"/>
  <path id="Tracé_393" data-name="Tracé 393" d="M45.162,21.878a.085.085,0,0,0-.123,0A4.553,4.553,0,0,0,44,23.72a.094.094,0,0,0,.076.094h0a.085.085,0,0,0,.085-.076,1.473,1.473,0,0,1,.085-.321.623.623,0,0,0,.246.057.387.387,0,0,0,.283-.113c.227-.217.076-.765,0-.945.179-.246.331-.416.34-.425a.085.085,0,0,0,.047-.113Zm-.472,1.36a.3.3,0,0,1-.349,0A3.863,3.863,0,0,1,44.7,22.6C44.756,22.851,44.784,23.144,44.689,23.239Z" transform="translate(-2.253 -1.206)" fill="#983222"/>
  <path id="Tracé_394" data-name="Tracé 394" d="M35.637,26.5H35a.113.113,0,0,1-.076,0,.1.1,0,0,1,0-.076l1.294-3.778a.094.094,0,0,1,.1-.057.085.085,0,0,1,.057.113l-1.247,3.665h1.162a.614.614,0,0,0,.444-.142.18.18,0,0,0,0-.1.1.1,0,0,1,.076-.094.085.085,0,0,1,.094.076.331.331,0,0,1-.085.236.765.765,0,0,1-.567.2Z" transform="translate(-1.786 -1.421)" fill="#983222"/>
  <path id="Tracé_395" data-name="Tracé 395" d="M36.37,27.954a4.373,4.373,0,0,0,1.955-.17c1.03-.349,1.719-.614,1.719-.614a3.948,3.948,0,0,1-2.135,1.662A1.332,1.332,0,0,1,36.37,27.954Z" transform="translate(-1.858 -1.707)" fill="#fff"/>
  <path id="Tracé_396" data-name="Tracé 396" d="M38.32,21.437c-.066-.208.68-1,1.662-1.067a3.542,3.542,0,0,1,1.889.538,11.41,11.41,0,0,0-2.116.123,8.246,8.246,0,0,0-1.436.406Z" transform="translate(-1.958 -1.124)" fill="#d0412b"/>
  <path id="Tracé_397" data-name="Tracé 397" d="M35.77,21.864a2.182,2.182,0,0,0-1.294-.765,1.955,1.955,0,0,0-1.436.387,4.4,4.4,0,0,0,1.37.217,7.2,7.2,0,0,1,1.36.161Z" transform="translate(-1.689 -1.164)" fill="#d0412b"/>
  <path id="Tracé_398" data-name="Tracé 398" d="M35.387,23.141c-.057.434-.264.765-.463.737s-.3-.406-.246-.841.264-.765.463-.737S35.444,22.7,35.387,23.141Z" transform="translate(-1.775 -1.231)" fill="#601112"/>
  <path id="Tracé_399" data-name="Tracé 399" d="M40.588,22.571c-.057.434-.264.765-.453.737s-.312-.4-.255-.831.264-.775.463-.746S40.644,22.136,40.588,22.571Z" transform="translate(-2.042 -1.199)" fill="#601112"/>
  <path id="Tracé_400" data-name="Tracé 400" d="M44.9,20.91a2.834,2.834,0,0,0-1.011,1.549,18.7,18.7,0,0,0-.708-2.39,28.062,28.062,0,0,0,.378-5.289,11.41,11.41,0,0,1,.8,2.1A11.6,11.6,0,0,1,44.9,20.91Z" transform="translate(-2.21 -0.814)" fill="#c02c26"/>
  <path id="Tracé_401" data-name="Tracé 401" d="M69.942,115.579a14.924,14.924,0,0,1-4.647-1l-.057-.491c-.123-1.19-.255-2.371-.378-3.466a17.624,17.624,0,0,0,4.146,1.03C69.252,112.717,69.63,114.36,69.942,115.579Z" transform="translate(-3.309 -7.094)" fill="#89c09c"/>
</svg>
