<svg xmlns="http://www.w3.org/2000/svg" width="56" height="123" viewBox="0 0 56 123">
  <g id="Students" transform="translate(-70 -397)">
    <g id="Boy" transform="translate(70 397)">
      <g id="OBJECTS">
        <path id="Tracé_591" data-name="Tracé 591" d="M13.106,170.231V165s6.85.761,6.766,3.72-.761,10.507-1.607,9.989c-.721-.448-5.595-6.641-7.048-8.478Z" transform="translate(18.886 -117.504)" fill="#edb838"/>
        <path id="Tracé_592" data-name="Tracé 592" d="M18.709,173.445V169.53c1.439.541,5.231,2.078,5.231,3.243,0,1.436-1.014,13.227-2.369,14.308-.764.61-3.145.823-5.072.892V173.445Z" transform="translate(13.283 -120.752)" fill="#ffd455"/>
        <path id="Tracé_593" data-name="Tracé 593" d="M85.16,374.48l.108,4.566.081,3.31,4.92.151.183-3.371.209-3.848Z" transform="translate(-73.181 -266.704)" fill="#ffa07f"/>
        <path id="Tracé_594" data-name="Tracé 594" d="M85.16,374.48l.108,4.566a47.8,47.8,0,0,0,5.185.09l.209-3.848Z" transform="translate(-73.181 -266.704)" fill="#ff7d6f"/>
        <path id="Tracé_595" data-name="Tracé 595" d="M80.77,405.864a.953.953,0,0,1,.514-.779c1.032-.491,4.822-2.034,5.836-2.88a8.3,8.3,0,0,0,1.721-2.665l7.129.186a56.544,56.544,0,0,1,.9,6.138Z" transform="translate(-78.014 -284.48)" fill="#161818"/>
        <rect id="Rectangle_90" data-name="Rectangle 90" width="16.101" height="1.616" transform="translate(2.759 121.384)" fill="#fff0e7"/>
        <path id="Tracé_596" data-name="Tracé 596" d="M111.623,407.306l.035.055c.078.142.128.36-.058.445a.505.505,0,0,1-.308,0,3.315,3.315,0,0,1-.994-.4,2.55,2.55,0,0,1-.913-.724c-.227-.34.084-.657.468-.581A2.875,2.875,0,0,1,111.623,407.306Z" transform="translate(-101.227 -289.127)" fill="#fff0e7"/>
        <path id="Tracé_597" data-name="Tracé 597" d="M115.785,410.284l.032.055c.081.142.131.36-.055.445a.506.506,0,0,1-.308,0,3.315,3.315,0,0,1-.994-.4,2.5,2.5,0,0,1-.913-.724c-.227-.34.084-.66.468-.581A2.875,2.875,0,0,1,115.785,410.284Z" transform="translate(-106.588 -291.24)" fill="#fff0e7"/>
        <path id="Tracé_598" data-name="Tracé 598" d="M120.953,412.253l.035.058c.078.139.128.357-.058.445a.506.506,0,0,1-.308,0,3.269,3.269,0,0,1-.994-.4,2.549,2.549,0,0,1-.913-.724c-.227-.34.084-.657.468-.581A2.874,2.874,0,0,1,120.953,412.253Z" transform="translate(-113.204 -292.639)" fill="#fff0e7"/>
        <path id="Tracé_599" data-name="Tracé 599" d="M28.591,392.264a9.681,9.681,0,0,0,.134-2.157l5.813-1.177c.677,1.54,1.744,5.261,2.325,7.266.23.817.375,1.354.375,1.354s-3.284,2.325-4.179,2.389-5.6-1.119-5.6-1.718c0-.172.067-.706.171-1.389A31.53,31.53,0,0,1,28.591,392.264Z" transform="translate(-3.122 -276.954)" fill="#fff0e7"/>
        <path id="Tracé_600" data-name="Tracé 600" d="M29.843,390.127l5.813-1.177c.677,1.54,1.744,5.261,2.325,7.266-.886.6-3.1,2.069-3.8,2.127a16.463,16.463,0,0,1-5.426-1.491,30.289,30.289,0,0,1,.947-4.58A8.691,8.691,0,0,0,29.843,390.127Z" transform="translate(-4.238 -276.968)" fill="#161818"/>
        <path id="Tracé_601" data-name="Tracé 601" d="M38.79,376.767l.4,2.688.238,1.613,4.45-.9-.1-1.636-.131-2.125Z" transform="translate(-13.038 -268.073)" fill="#ffa07f"/>
        <path id="Tracé_602" data-name="Tracé 602" d="M39.14,376.767l.4,2.688a9.8,9.8,0,0,0,4.586-.921L44,376.41Z" transform="translate(-13.388 -268.073)" fill="#ff7d6f"/>
        <path id="Tracé_603" data-name="Tracé 603" d="M41.959,402.867l.061.026c.145.067.32.209.221.389a.5.5,0,0,1-.241.195,3.313,3.313,0,0,1-1.032.291,2.508,2.508,0,0,1-1.163-.029c-.384-.134-.328-.581.026-.741A2.875,2.875,0,0,1,41.959,402.867Z" transform="translate(-11.651 -286.738)" fill="#fff0e7"/>
        <path id="Tracé_604" data-name="Tracé 604" d="M41.416,407.395l.061.026c.148.067.32.209.221.389a.508.508,0,0,1-.238.195,3.36,3.36,0,0,1-1.032.291,2.586,2.586,0,0,1-1.163-.029c-.387-.137-.328-.581.023-.744a2.877,2.877,0,0,1,2.127-.128Z" transform="translate(-10.953 -289.949)" fill="#fff0e7"/>
        <path id="Tracé_605" data-name="Tracé 605" d="M40.87,411.93l.061.023c.148.067.32.209.221.389a.5.5,0,0,1-.241.195,3.241,3.241,0,0,1-1.032.291,2.534,2.534,0,0,1-1.163-.029c-.387-.137-.331-.581.023-.744a2.875,2.875,0,0,1,2.13-.125Z" transform="translate(-10.248 -293.165)" fill="#fff0e7"/>
        <path id="Tracé_606" data-name="Tracé 606" d="M29.24,259.064c.192-7.173.439-17.243.359-18.374s.683-13.305,1.232-21.679c.287-4.514.523-7.931.523-7.931h20.54l-.066,6.926.523,21.141s1.723,12.529,2.633,20.132a21.536,21.536,0,0,1-10.6,1.163l-.574-20.382-3.5-20.054-.2-1.258-.06,1.267-.922,19.133,1.318,21.048C36.659,260.985,32.909,260.206,29.24,259.064Z" transform="translate(-21.462 -150.794)" fill="#749ec2"/>
        <path id="Tracé_607" data-name="Tracé 607" d="M99.2,300.172a1.858,1.858,0,0,1-2.247-.657c-1.648-2.13-1.328-6.638,2.2-5.522a2.618,2.618,0,0,1,1.985,1.994C101.268,297.019,100.149,299.655,99.2,300.172Z" transform="translate(-86.791 -209.194)" fill="#a4c3db"/>
        <path id="Tracé_608" data-name="Tracé 608" d="M52.077,300.409a3.715,3.715,0,0,1-.375,1.508,1.665,1.665,0,0,1-1.215.9c-.985.113-1.721-.872-2.1-1.8a10.928,10.928,0,0,1-.683-2.38,2.011,2.011,0,0,1,.035-1.1,2.766,2.766,0,0,1,3.514-.971C52.269,297.291,52.155,299.349,52.077,300.409Z" transform="translate(-23.838 -210.943)" fill="#a4c3db"/>
        <path id="Tracé_609" data-name="Tracé 609" d="M29.24,211.08h1.215l-.067,6.926.529,21.141s1.744,12.529,2.665,20.132c-.241.1-.488.195-.735.291l-3.339-20.414Z" transform="translate(0.009 -150.794)" fill="#4f83a7"/>
        <path id="Tracé_610" data-name="Tracé 610" d="M40,219.011a32.735,32.735,0,0,0,9.347,1l.061-1.267.2,1.258a45.773,45.773,0,0,0,11.66-2v-2.828l.055-4.1H40.52L40.3,214.3c0,.192-.026.392-.038.6-.026.352-.049.721-.076,1.107q-.017.27-.035.549C40.108,217.323,40.058,218.148,40,219.011Z" transform="translate(-30.756 -150.296)" fill="#4f83a7"/>
        <path id="Tracé_611" data-name="Tracé 611" d="M40.12,211.052a6.1,6.1,0,0,0,3.267,4.688v-.581a5.592,5.592,0,0,1-2.764-4.118Z" transform="translate(-12.934 -150.248)" fill="#749ec2"/>
        <path id="Tracé_612" data-name="Tracé 612" d="M40.16,211.059a8.861,8.861,0,0,0,5.319,6.063v-.549a8.365,8.365,0,0,1-4.8-5.522Z" transform="translate(-15.032 -150.261)" fill="#749ec2"/>
        <path id="Tracé_613" data-name="Tracé 613" d="M102.83,214.9a5.473,5.473,0,0,0,2.787-3.819h-.52a5.011,5.011,0,0,1-2.229,3.22C102.856,214.492,102.842,214.693,102.83,214.9Z" transform="translate(-93.246 -150.272)" fill="#749ec2"/>
        <path id="Tracé_614" data-name="Tracé 614" d="M98,216.556a6.513,6.513,0,0,0,4.3-5.476h-.5A6.022,6.022,0,0,1,98.035,216Q98.017,216.288,98,216.556Z" transform="translate(-88.528 -150.28)" fill="#749ec2"/>
        <path id="Tracé_615" data-name="Tracé 615" d="M81.766,228.25l.372,2.674-.064,1.27-.93,19.133,1.334,21.048c-.369.076-.738.137-1.1.186L79.83,251.327Z" transform="translate(-63.476 -162.973)" fill="#4f83a7"/>
        <path id="Tracé_616" data-name="Tracé 616" d="M38.769,365.88l.517,3.488s-7.638,2.677-11.867.82v-2.494S34.982,367.231,38.769,365.88Z" transform="translate(-5.154 -260.603)" fill="#a4c3db"/>
        <path id="Tracé_617" data-name="Tracé 617" d="M90.871,367.234l-.308,3.52s-8.33,1.122-12.143-1.726l.462-3.148S86.738,367.615,90.871,367.234Z" transform="translate(-71.403 -260.603)" fill="#a4c3db"/>
        <path id="Tracé_618" data-name="Tracé 618" d="M29.946,114.764l23.67.974A197.894,197.894,0,0,0,54.88,93.129c-.1-8.321-1.066-16.276-4.175-18.563A21.189,21.189,0,0,0,48.627,73.3a5.32,5.32,0,0,0-1.741-.695,17.578,17.578,0,0,0-8.443,2.5,10.51,10.51,0,0,0-2.7,2.505c-1.66,2.238-3.645,17.6-4.806,27.858C30.33,110.811,29.946,114.764,29.946,114.764Z" transform="translate(-21.888 -51.781)" fill="#ac1426"/>
        <path id="Tracé_619" data-name="Tracé 619" d="M29.946,164.845l23.67.974A197.894,197.894,0,0,0,54.88,143.21a.072.072,0,0,1,0,.023c-.906,4.772-3.4,10.129-7.647,12.593-3.208,1.857-7.122,1.883-10.743,1.238a32.585,32.585,0,0,1-5.549-1.508C30.33,160.892,29.946,164.845,29.946,164.845Z" transform="translate(-21.888 -102.021)" fill="#940b20"/>
        <path id="Tracé_620" data-name="Tracé 620" d="M99.235,206.466c-.291.581-4-1.834-4-1.834l-.991.727,1.453,1.163L96.768,209s-.355.389-.817.84a2.433,2.433,0,0,1-.174.171l-.166.154a7.691,7.691,0,0,1-.7.6.781.781,0,0,1-.081.064,3.408,3.408,0,0,1-.4.259.7.7,0,0,1-.349.1l-1.229-1.715a18.737,18.737,0,0,1-3.281-.407,6.552,6.552,0,0,1-.823-1.59c-.122-.291-.238-.581-.355-.857v-.017c-.038-.1-.081-.2-.122-.305l.828-.727.148-.137,2.194-1.962c.291-.044.663-.093,1.084-.131.206-.017.424-.038.648-.049a8.818,8.818,0,0,1,2.351.113,2.165,2.165,0,0,1,.718.291C97.538,204.559,99.517,205.891,99.235,206.466Z" transform="translate(-82.581 -144.729)" fill="#ffa07f"/>
        <path id="Tracé_621" data-name="Tracé 621" d="M117.6,160.189v.02l.814-.837,2.247-2.311-3.058-9.2,4.037-8.237-4.9-1.372-.709-.2-.793-.221a86.7,86.7,0,0,0-3.415,10.69C111.65,149.726,117.337,159.724,117.6,160.189Z" transform="translate(-111.809 -98.187)" fill="#ffa07f"/>
        <path id="Tracé_622" data-name="Tracé 622" d="M106.666,160.16v.02c.116.291.233.581.355.857a6.456,6.456,0,0,0,.825,1.59,18.642,18.642,0,0,0,3.278.407l1.229,1.715a.7.7,0,0,0,.349-.1,3.414,3.414,0,0,0,.4-.259h0l.041-.029h0l.041-.035h0l.087-.064.174-.142c.061-.049.119-.1.177-.154s.119-.108.174-.16l.087-.081a3.264,3.264,0,0,0-1.5-1.346,5.757,5.757,0,0,0-.68-.291h0c-1.3-.451-2.683-.514-3-.779a14.746,14.746,0,0,1-1.226-1.973c-.044-.07-.081-.139-.119-.212-1.936-3.424-5.214-9.731-5.394-10.771s2.366-6.885,3.825-10.14l-.709-.2-.793-.221a86.7,86.7,0,0,0-3.415,10.69C100.711,149.7,106.4,159.7,106.666,160.16Z" transform="translate(-100.87 -98.179)" fill="#ffbf90"/>
        <path id="Tracé_623" data-name="Tracé 623" d="M105.106,222.692l-.081.064-.16-.291c-.148-.291-.357-.648-.581-1.046a7.084,7.084,0,0,0-.677-.974l-.142-.16-.119-.113-.1-.1.142.049.166.064.2.113a2.723,2.723,0,0,1,.921.936,3.3,3.3,0,0,1,.413,1.18C105.094,222.514,105.1,222.613,105.106,222.692Z" transform="translate(-92.858 -156.667)" fill="#cf4a57"/>
        <path id="Tracé_624" data-name="Tracé 624" d="M101.478,220.353l-.177.171-.026-.049c-.148-.276-.357-.648-.581-1.043a6.786,6.786,0,0,0-.677-.977l-.142-.16-.119-.113-.1-.1.142.049.166.064.2.113a2.709,2.709,0,0,1,.921.939,3.2,3.2,0,0,1,.4,1.107Z" transform="translate(-88.195 -155.249)" fill="#cf4a57"/>
        <path id="Tracé_625" data-name="Tracé 625" d="M132.214,172.7a.542.542,0,0,1-.064.058.872.872,0,0,1-.189.128,1.163,1.163,0,0,1-.73.125,1.192,1.192,0,0,1-.651-.349,1.047,1.047,0,0,1-.137-.183c-.029-.047-.044-.076-.044-.076l.291.02c.174.015.392.026.619.064s.436.1.6.137Z" transform="translate(-127.778 -122.723)" fill="#cf4a57"/>
        <path id="Tracé_626" data-name="Tracé 626" d="M88.6,97.564l1.2.334,8.548,2.395,3.816-7.894V81.23a32.262,32.262,0,0,0-2.906,2.034h0C95.828,85.9,90.387,90.961,88.6,97.564Z" transform="translate(-85.58 -57.857)" fill="#ac1426"/>
        <path id="Tracé_627" data-name="Tracé 627" d="M98.62,102.522l1.2.334c2.034-6.876,9.213-14.389,9.452-14.636C105.848,90.856,100.407,95.919,98.62,102.522Z" transform="translate(-95.6 -62.826)" fill="#f23336"/>
        <path id="Tracé_628" data-name="Tracé 628" d="M29.25,79.91s17.04,29.038,18.392,29.381l-.581,4.069S28.384,86.51,27.23,81.305Z" transform="translate(-13.423 -56.955)" fill="#ffd455"/>
        <path id="Tracé_629" data-name="Tracé 629" d="M69.738,104.46l2.194,3.354-3.6,2.282-1.828-3.36Zm-1.023,4.418,2.034-1.29-1.241-1.9-1.831,1.29Z" transform="translate(-49.075 -74.37)" fill="#fff0e7"/>
        <path id="Tracé_630" data-name="Tracé 630" d="M52.28,75.115a4.645,4.645,0,0,0,3.778,3.368c3.371.506,5.888-3.514,6.778-5.179a5.637,5.637,0,0,0-1.8-.695A18.863,18.863,0,0,0,52.28,75.115Z" transform="translate(-35.861 -51.694)" fill="#ffa07f"/>
        <path id="Tracé_631" data-name="Tracé 631" d="M64.342,58.542c-.128.128-5.7,4.249-5.7,4.249s.128-2.54.189-3.863c.017-.41.032-.7.032-.767,0-.529-.453-2.819-.453-2.819l5.624-2.572s.087,1.163.174,2.438A28.686,28.686,0,0,1,64.342,58.542Z" transform="translate(-39.175 -37.43)" fill="#ffa07f"/>
        <path id="Tracé_632" data-name="Tracé 632" d="M64.8,55.208c-1.561,1.136-5,3.616-5.345,3.714h-.032c.017-.41.032-.7.032-.767,0-.529-.453-2.819-.453-2.819l5.638-2.566S64.726,53.93,64.8,55.208Z" transform="translate(-39.779 -37.43)" fill="#ff7d6f"/>
        <path id="Tracé_633" data-name="Tracé 633" d="M68.392,23.31a2.659,2.659,0,0,1-.767.959h0a4.977,4.977,0,0,1-.453.363c-.657.474-6.833,3.119-7.783,2.994s-1.848-3.4-1.9-3.74c-.291-2.11-1.163-8.629-1.163-8.629,2.363-7.1,10.733-3.412,11.684-2.729S68.392,23.31,68.392,23.31Z" transform="translate(-42.741 -7.772)" fill="#ffa07f"/>
        <path id="Tracé_634" data-name="Tracé 634" d="M69.692,55.814a4.979,4.979,0,0,1-.45.363c-.657.474-6.833,3.119-7.783,2.994s-1.848-3.4-1.9-3.741c.581,1.436,1.261,3.421,1.936,3.357A68.749,68.749,0,0,0,69.692,55.814Z" transform="translate(-44.813 -39.316)" fill="#ffbf90"/>
        <path id="Tracé_635" data-name="Tracé 635" d="M89.047,30.671s1.136-1.532,1.773-.921.349.666.349.666Z" transform="translate(-74.891 -20.998)" fill="#763231"/>
        <path id="Tracé_636" data-name="Tracé 636" d="M70.579,28.01s-2.924-1.3-3.339-.157c-.241.668.221.828.221.828Z" transform="translate(-47.924 -19.421)" fill="#763231"/>
        <path id="Tracé_637" data-name="Tracé 637" d="M70.569,34.829c0,.657-.331,1.189-.741,1.189s-.738-.532-.738-1.189.343-1.189.738-1.189S70.569,34.172,70.569,34.829Z" transform="translate(-48.475 -23.859)" fill="#161818"/>
        <path id="Tracé_638" data-name="Tracé 638" d="M89.33,37.075c0,.5.25.9.558.9s.555-.392.555-.9-.247-.9-.555-.9S89.33,36.581,89.33,37.075Z" transform="translate(-74.188 -25.661)" fill="#161818"/>
        <path id="Tracé_639" data-name="Tracé 639" d="M80.926,47.465a1.285,1.285,0,0,1,.558-.145,1.866,1.866,0,0,1-1.014.974.218.218,0,0,1-.233-.023,2.119,2.119,0,0,1-.636-.581.4.4,0,0,1-.081-.151c-.047-.189.084-.148.195-.1a1.744,1.744,0,0,0,.4.1A1.7,1.7,0,0,0,80.926,47.465Z" transform="translate(-62.393 -33.563)" fill="#ff7d6f"/>
        <path id="Tracé_640" data-name="Tracé 640" d="M83.694,40.305c-.116-.1-.244-.189-.36-.291a2.886,2.886,0,0,1-.4-.4c.607-.421.6-1.055.581-1.773a2.127,2.127,0,0,0-.262-.93,2.188,2.188,0,0,0-.491-.581.773.773,0,0,0-.209-.116c.038.044.061.093.1.137.09.116.18.224.259.346a2.737,2.737,0,0,1,.195.392,2.523,2.523,0,0,1,.18.852,2.09,2.09,0,0,1-.139.828,1.66,1.66,0,0,1-.607.785s.416.482.456.523a2.194,2.194,0,0,0,.343.27.753.753,0,0,0,.389.166.238.238,0,0,0,.134-.038.706.706,0,0,1-.073-.058l-.026-.029Z" transform="translate(-65.648 -25.682)" fill="#fc5b68"/>
        <path id="Tracé_641" data-name="Tracé 641" d="M80.735,57.69a2.189,2.189,0,0,1-1.825.052.95.95,0,0,0,.834.45,1.581,1.581,0,0,0,.991-.5Z" transform="translate(-61.472 -40.92)" fill="#fc5b68"/>
        <path id="Tracé_642" data-name="Tracé 642" d="M76.685,52.2a5.473,5.473,0,0,1-5.045.695,8.12,8.12,0,0,0,2.755,0A6.4,6.4,0,0,0,76.685,52.2Z" transform="translate(-55.311 -37.025)" fill="#fc5b68"/>
        <path id="Tracé_643" data-name="Tracé 643" d="M47.95,7.257c.029.4.581,2.273.9,3.363.137.471.235.793.235.793l-.058-.761L48.8,7.795a5.416,5.416,0,0,1,3.3-1.125c1.232-.049,2.459.151,3.691.163a9.315,9.315,0,0,0,3.778-.712l.041.27.186,1.235.352,2.247.067.448.291,1.825c.212-1.505,2.034-1.433,2.034-1.433s.073-.36.171-.889c.052-.291.113-.616.174-.965.076-.456.154-.942.218-1.392a6.685,6.685,0,0,0,.1-1.68,5.743,5.743,0,0,0-.93-1.619l-.078-.108A4.993,4.993,0,0,0,63.183.916,1.776,1.776,0,0,0,63.02.3a3.055,3.055,0,0,1-1.009,1.84,7.638,7.638,0,0,0,.049-1.6V.468a.52.52,0,0,0,0-.067,3,3,0,0,1-2.107.558,1.543,1.543,0,0,0,.34-.93c-.529,0-1.163.291-1.726.311A11.286,11.286,0,0,1,56.591.215L56.408.192C55.827.116,55.245.032,54.644,0a6.127,6.127,0,0,0-1.8.14A4.607,4.607,0,0,0,50.7,1.32a5.58,5.58,0,0,0-.753.9,8.953,8.953,0,0,0-.628,1.072,8.655,8.655,0,0,0-.706,1.9,6.709,6.709,0,0,0-.128.666c-.02.148-.035.291-.044.442a1.555,1.555,0,0,0,0,.2A.872.872,0,0,0,47.95,7.257Z" transform="translate(-34.969 0.012)" fill="#75312f"/>
        <path id="Tracé_644" data-name="Tracé 644" d="M97.084,35s-.25-.82-.514-1.744a2.137,2.137,0,0,1,.384.052Z" transform="translate(-82.92 -23.59)" fill="#3f0d0d"/>
        <path id="Tracé_645" data-name="Tracé 645" d="M97.977,22.39l.331,1.285.026.346c-.227-.038-.468-.081-.712-.108a6.067,6.067,0,0,1-.163-.764A.872.872,0,0,1,97.977,22.39Z" transform="translate(-84.426 -15.879)" fill="#3f0d0d"/>
        <path id="Tracé_646" data-name="Tracé 646" d="M47.96,16.588l.186,1.235.34,2.252.346,2.273c.212-1.506,2.034-1.433,2.034-1.433s.073-.36.171-.889c.122-.654.291-1.561.392-2.357a6.684,6.684,0,0,0,.113-1.68,5.743,5.743,0,0,0-.93-1.619,1.517,1.517,0,0,1-.581.32,1.1,1.1,0,0,0-.439.163c-.18.148-.192.416-.276.634a.918.918,0,0,1-.68.552.916.916,0,0,0-.311.087.7.7,0,0,0-.171.209A2.246,2.246,0,0,1,47.96,16.588Z" transform="translate(-23.362 -10.19)" fill="#3f0d0d"/>
        <path id="Tracé_647" data-name="Tracé 647" d="M48.38,24.015l.34,2.258.872-.442a.546.546,0,0,1,.273-.084.517.517,0,0,1,.27.119,1.462,1.462,0,0,0,1.139.357c.122-.654.291-1.561.392-2.357a.581.581,0,0,1-.2.026c-.337,0-.581-.291-.8-.581a.549.549,0,0,0-.195-.18c-.262-.116-.5.212-.581.488s-.192.622-.48.636c-.23,0-.392-.221-.613-.291a.546.546,0,0,0-.421.049Z" transform="translate(-23.595 -16.388)" fill="#853e3e"/>
        <path id="Tracé_648" data-name="Tracé 648" d="M48.912,40.888A3.868,3.868,0,0,0,51.6,39.4a3.14,3.14,0,0,0,.27-.4c.36-.657.465-2.941-.468-3.488-.657-.372-1.133.169-1.36.523h0a2.252,2.252,0,0,0-.148.27Z" transform="translate(-24.217 -25.1)" fill="#ffbf90"/>
        <path id="Tracé_649" data-name="Tracé 649" d="M49.445,41.426a3.868,3.868,0,0,0,2.691-1.485c.044-.064.081-.128.113-.186.363-.657.468-2.941-.468-3.488a.913.913,0,0,0-1.2.308h0a2.253,2.253,0,0,0-.148.27Z" transform="translate(-24.749 -25.638)" fill="#ffa07f"/>
        <path id="Tracé_650" data-name="Tracé 650" d="M52.157,41.114a.982.982,0,0,1-.044.549,4.524,4.524,0,0,1-1.744,1.895,1.918,1.918,0,0,0,.256-1.2,4.264,4.264,0,0,1-.047-.427C50.564,41.373,51.88,40.036,52.157,41.114Z" transform="translate(-24.683 -28.872)" fill="#ff7d6f"/>
        <path id="Tracé_651" data-name="Tracé 651" d="M51.113,43.785l.044-.023c.026-.017.07-.038.116-.073a1.572,1.572,0,0,0,.363-.326,1.523,1.523,0,0,0,.291-.607,1.264,1.264,0,0,0-.087-.8.642.642,0,0,0-.052-.1v-.026h0v-.02l.023-.044.052-.087a3.171,3.171,0,0,1,.221-.314c.076-.1.157-.189.235-.273a2.215,2.215,0,0,1,.233-.215.514.514,0,0,1,.235-.1.366.366,0,0,1,.2.035.18.18,0,0,1,.09.081.093.093,0,0,1,0,.038.108.108,0,0,0,0-.041.166.166,0,0,0-.076-.1.421.421,0,0,0-.23-.073.66.66,0,0,0-.314.09,2.076,2.076,0,0,0-.291.2,2.942,2.942,0,0,0-.291.264,2.878,2.878,0,0,0-.262.323l-.058.09-.029.047-.038.064-.026.047.026.047.038.064a.488.488,0,0,1,.044.087,1.308,1.308,0,0,1,.119.712,1.54,1.54,0,0,1-.192.581,1.709,1.709,0,0,1-.291.355c-.038.038-.073.064-.1.084Z" transform="translate(-25.803 -28.875)" fill="#cf4a57"/>
        <path id="Tracé_652" data-name="Tracé 652" d="M51.906,5.191A2.093,2.093,0,0,0,52.8,4.97c.334-.218.459-.648.738-.933a1.98,1.98,0,0,1,1.485-.421A3.7,3.7,0,0,0,56.6,3.479c.343-.148.622-.419.968-.564a3.241,3.241,0,0,1,1.941.058,2.418,2.418,0,0,0,1.909-.145c.326-.221.549-.634.93-.785a2.874,2.874,0,0,1,.962-.081A2.4,2.4,0,0,0,65.342.468a.523.523,0,0,0,0-.067,3,3,0,0,1-2.107.558,1.543,1.543,0,0,0,.337-.93c-.529,0-1.163.291-1.726.311A11.286,11.286,0,0,1,59.87.215L59.687.192C59.105.116,58.524.032,57.922,0a6.127,6.127,0,0,0-1.8.14A4.607,4.607,0,0,0,53.981,1.32a5.58,5.58,0,0,0-.753.9A8.952,8.952,0,0,0,52.6,3.29,8.655,8.655,0,0,0,51.906,5.191Z" transform="translate(-38.246 0.012)" fill="#853e3e"/>
        <path id="Tracé_653" data-name="Tracé 653" d="M24.933,202.224c.2.607,4.223-1.25,4.223-1.25l.872.872-1.607.936-1.412,2.325s.291.436.689.947a1.909,1.909,0,0,0,.148.195c.047.058.093.119.142.177a8.125,8.125,0,0,0,.61.7.552.552,0,0,0,.07.073,3.593,3.593,0,0,0,.36.314.715.715,0,0,0,.331.151l1.453-1.523a18.72,18.72,0,0,0,3.3.061,6.676,6.676,0,0,0,1.04-1.453c.16-.259.32-.535.474-.8v-.017l.166-.291-.715-.837-.128-.154-1.878-2.255c-.291-.084-.645-.186-1.055-.291-.2-.049-.416-.1-.636-.142a8.822,8.822,0,0,0-2.343-.218,2.081,2.081,0,0,0-.75.171C26.884,200.579,24.73,201.614,24.933,202.224Z" transform="translate(-0.948 -142.213)" fill="#ffa07f"/>
        <path id="Tracé_654" data-name="Tracé 654" d="M0,154.288l1.883,2.6.689.945v-.017c.343-.436,7.391-9.527,7.391-10.751A93.553,93.553,0,0,0,7.807,134.74l-1.555.43-4.859,1.357L4.328,145.6Z" transform="translate(32.056 -95.989)" fill="#ffa07f"/>
        <path id="Tracé_655" data-name="Tracé 655" d="M0,160.3a8.123,8.123,0,0,0,.61.7.553.553,0,0,0,.07.073,3.591,3.591,0,0,0,.36.314.715.715,0,0,0,.331.151l1.453-1.523a18.722,18.722,0,0,0,3.3.061,6.676,6.676,0,0,0,1.04-1.453c.16-.259.32-.535.474-.8V157.8c.352-.424,7.4-9.515,7.4-10.739a93.553,93.553,0,0,0-2.157-12.323l-1.555.43c.872,3.023,3,10.527,2.648,11.611-.326,1.006-4.464,6.783-6.865,9.9-.049.064-.1.131-.151.192a14.9,14.9,0,0,1-1.491,1.776C4.871,159.017,1.407,158.395,0,160.3Z" transform="translate(26.976 -96.005)" fill="#ffbf90"/>
        <path id="Tracé_656" data-name="Tracé 656" d="M42,219.348l.073.076.2-.291c.186-.253.445-.581.729-.95a7.211,7.211,0,0,1,.811-.872l.163-.14.134-.1.119-.076-.148.029-.171.041c-.064.02-.137.049-.218.081a2.764,2.764,0,0,0-1.046.8,3.264,3.264,0,0,0-.581,1.11C42.038,219.174,42.015,219.27,42,219.348Z" transform="translate(-14.321 -154.48)" fill="#cf4a57"/>
        <path id="Tracé_657" data-name="Tracé 657" d="M45.42,216.544l.151.195.032-.044c.189-.256.445-.581.732-.953a6.975,6.975,0,0,1,.808-.872c.061-.052.113-.1.163-.137l.134-.1.116-.087-.145.029-.174.041-.218.081a2.776,2.776,0,0,0-1.043.8,3.243,3.243,0,0,0-.555,1.043Z" transform="translate(-18.634 -152.735)" fill="#cf4a57"/>
        <path id="Tracé_658" data-name="Tracé 658" d="M8.57,173.613l.055.067a1.03,1.03,0,0,0,.169.154,1.183,1.183,0,0,0,.7.224,1.163,1.163,0,0,0,.695-.253.945.945,0,0,0,.163-.16l.052-.07-.291-.02c-.174,0-.392-.032-.619-.026s-.445.032-.619.049Z" transform="translate(29.121 -123.525)" fill="#cf4a57"/>
        <path id="Tracé_659" data-name="Tracé 659" d="M2.31,80.772l4,15.1,10.082-.942,1.163-.108c-2.34-10.754-6.81-15.694-10.172-17.958h0A10.955,10.955,0,0,0,3.031,75Z" transform="translate(23.794 -53.424)" fill="#ac1426"/>
        <path id="Tracé_660" data-name="Tracé 660" d="M2.35,81.42c4.426,3.488,7.905,14.273,9.01,18.066l1.163-.108C10.183,88.613,5.713,83.672,2.35,81.42Z" transform="translate(28.814 -57.991)" fill="#f23336"/>
      </g>
    </g>
    <g id="Girl" transform="translate(96.361 407.671)">
      <g id="OBJECTS-2" data-name="OBJECTS">
        <path id="Tracé_526" data-name="Tracé 526" d="M16.285,126.648,11.8,136.717l-1.331,3.019s-6.952-.513-9.729-4.652,3.148-16.941,3.148-16.941l.39-.123,9.2-2.969Z" transform="translate(0 -83.859)" fill="#0f3358"/>
        <path id="Tracé_527" data-name="Tracé 527" d="M11.8,144.568l-1.331,3.019s-6.952-.513-9.729-4.652,3.148-16.941,3.148-16.941l.39-.123c-1,3.842-3.466,16.4,6.191,18.368a13.593,13.593,0,0,1,1.331.329Z" transform="translate(0 -91.731)" fill="#274f74"/>
        <path id="Tracé_528" data-name="Tracé 528" d="M65.6,397.117a9.472,9.472,0,0,0,.45,1.809c.176.2,9.271,0,9.271,0v-1.4l-5.431-1.836Z" transform="translate(-47.597 -288.165)" fill="#fff0e7"/>
        <path id="Tracé_529" data-name="Tracé 529" d="M74.9,389.5s-9.144.675-9.625.044c-.338-.423-.233-4.814-.233-4.814l2.47-.1S75.26,389.5,74.9,389.5Z" transform="translate(-47.179 -280.14)" fill="#ff9300"/>
        <path id="Tracé_530" data-name="Tracé 530" d="M10.278,387.809c-.214.823-1.9,2.05-2.67,2.574a.623.623,0,0,1-.746-.038c-.678-.563-2.094-1.814-2.234-2.536a3.178,3.178,0,0,1,.187-1.158c.115-.417.274-.9.458-1.391.549-1.542,1.287-3.17,1.287-3.17l2.794.115s.645,2.423.881,4.147a.118.118,0,0,0,0,.014A4.534,4.534,0,0,1,10.278,387.809Z" transform="translate(-3.357 -278.298)" fill="#fff0e7"/>
        <path id="Tracé_531" data-name="Tracé 531" d="M10.73,386.352A8.508,8.508,0,0,1,8.1,388.8a.626.626,0,0,1-.746-.036,11.271,11.271,0,0,1-2.047-2.11c.115-.417.274-.9.458-1.391.549-1.542,1.287-3.17,1.287-3.17l2.794.115S10.494,384.629,10.73,386.352Z" transform="translate(-3.853 -278.298)" fill="#ff9300"/>
        <path id="Tracé_532" data-name="Tracé 532" d="M11.425,390.975c.036.178.222.274.4.346a2.157,2.157,0,0,0,1.951-.077.291.291,0,0,0,.1-.1.233.233,0,0,0-.049-.258.582.582,0,0,0-.236-.145C13.277,390.612,11.26,390.143,11.425,390.975Z" transform="translate(-8.283 -284.394)" fill="#fff0e7"/>
        <path id="Tracé_533" data-name="Tracé 533" d="M10.675,396.591c.036.178.225.274.4.346a2.157,2.157,0,0,0,1.951-.077.308.308,0,0,0,.1-.1.244.244,0,0,0-.047-.274.643.643,0,0,0-.239-.145C12.527,396.229,10.51,395.76,10.675,396.591Z" transform="translate(-7.738 -288.468)" fill="#fff0e7"/>
        <path id="Tracé_534" data-name="Tracé 534" d="M80.7,389.943a.475.475,0,0,0,.423-.143,1.984,1.984,0,0,0,.851-1.474.275.275,0,0,0-.022-.124.2.2,0,0,0-.2-.077.571.571,0,0,0-.211.115C81.311,388.417,80.052,389.7,80.7,389.943Z" transform="translate(-58.42 -282.674)" fill="#fff0e7"/>
        <path id="Tracé_535" data-name="Tracé 535" d="M84.255,392.94a.475.475,0,0,0,.423-.143,1.988,1.988,0,0,0,.851-1.474.274.274,0,0,0-.022-.123.187.187,0,0,0-.2-.077.565.565,0,0,0-.211.113C84.875,391.412,83.6,392.7,84.255,392.94Z" transform="translate(-60.999 -284.847)" fill="#fff0e7"/>
        <path id="Tracé_536" data-name="Tracé 536" d="M30.35,199.158c-.576,1.663-2.078,25.548-2.078,25.548H23.912s-1.713-18.832-1.372-20.558c.456-2.357,1.973-6.839,1.973-6.839-.165-.925-.412-19.041-.412-19.041l-1.153-.093s-3.62,19.875-4.69,22.186-5.184,23.476-5.184,23.476H8.79s.8-17.015.906-18.387c.2-2.657,3.62-9.243,3.62-9.243s-.159-17.66,0-20.336a1.269,1.269,0,0,1,.019-.274c.03-.4.074-.807.132-1.213l.047-.239.041-.258c.016-.11.033-.217.052-.324l.049-.274c.145-.779.327-1.556.532-2.311.049-.187.1-.373.156-.549.033-.113.066-.228.1-.343s.049-.167.077-.25c.129-.42.274-.823.4-1.232.027-.077.052-.151.08-.225s.052-.156.082-.233l.033-.1.016-.041h0l.115-.316c.088-.233.173-.461.261-.683s.17-.436.252-.642h0c.115-.294.233-.574.346-.837.025-.055.047-.11.069-.162.113-.258.22-.5.318-.722q.041-.082.074-.165c.214-.464.4-.843.532-1.12h0l.08-.162a.576.576,0,0,1,.036-.071c.091-.181.143-.274.143-.274H30.185s.08.359.211.972c.038.176.082.373.129.593.033.154.069.321.1.5s.074.349.113.549c.206.966.445,2.132.689,3.373.513,2.566,1.048,5.486,1.293,7.588C33.311,181.133,30.926,197.492,30.35,199.158Z" transform="translate(-6.378 -119.226)" fill="#414156"/>
        <path id="Tracé_537" data-name="Tracé 537" d="M19,162.908s-.151.439-.4,1.142c-.113.327-.25.714-.4,1.136s-.327.917-.508,1.419c-.1.274-.2.549-.3.837s-.181.491-.274.738a48.661,48.661,0,0,1-2.047,5c-.993,1.743,0,22.323,0,22.323s-3.817,9.26-4.188,9.627c-.307.307-1.128,14.073-1.4,18.706H8.79s.8-17.015.906-18.387c.2-2.657,3.62-9.243,3.62-9.243s-.159-17.66,0-20.336a1.269,1.269,0,0,1,.019-.274c.03-.4.074-.807.132-1.213l.047-.239.041-.258c.016-.11.033-.217.052-.324l.049-.274c.145-.779.327-1.556.532-2.311.049-.187.1-.373.156-.549.033-.113.066-.228.1-.343s.049-.167.077-.25c.129-.42.274-.823.4-1.232.027-.077.052-.151.08-.225s.052-.156.082-.233l.033-.1.016-.041h0l.115-.316c.088-.233.173-.461.261-.683s.17-.436.252-.642h0c.115-.294.233-.574.346-.837.025-.055.047-.11.069-.162.113-.258.22-.5.318-.722q.041-.082.074-.165c.214-.464.4-.843.532-1.12h0l.08-.162a.576.576,0,0,1,.036-.071c.091-.181.143-.274.143-.274h1.12l.1.016Z" transform="translate(-6.378 -119.226)" fill="#313044"/>
        <path id="Tracé_538" data-name="Tracé 538" d="M48.475,168.778c-3.716,1.627-10.291.4-14.312-.62-.25-.063-.494-.124-.725-.187l-.752-.206-.406-.115c.071-.189.14-.376.211-.549.014-.041.033-.085.049-.126.063-.17.129-.335.195-.494l.058-.148h0c.115-.294.233-.574.346-.837a.712.712,0,0,0,.027-.069c.016-.03.027-.063.041-.093l.274-.607c.019-.038.036-.077.052-.115s.052-.11.074-.165c.214-.464.4-.843.532-1.12h0l.08-.162a.576.576,0,0,1,.036-.071c.091-.181.143-.274.143-.274h12.83s.08.36.211.972c.038.176.082.373.129.593.033.154.069.321.1.5s.074.349.113.549C47.992,166.371,48.23,167.535,48.475,168.778Z" transform="translate(-23.421 -118.586)" fill="#313044"/>
        <path id="Tracé_539" data-name="Tracé 539" d="M62,237.56l-.129-16.949L60.317,219s.247,18.113.412,19.041c0,0-1.518,4.482-1.973,6.839-.335,1.726,1.372,20.558,1.372,20.558H61.1l-1.3-19.329Z" transform="translate(-42.599 -159.966)" fill="#313044"/>
        <path id="Tracé_540" data-name="Tracé 540" d="M33.79,288.078a.354.354,0,0,0,.14.195.327.327,0,0,0,.239,0,1.993,1.993,0,0,0,.982-.73c.549-.705,1.754-3.126.077-3.164S33.359,286.989,33.79,288.078Z" transform="translate(-24.374 -207.097)" fill="#5e5e73"/>
        <path id="Tracé_541" data-name="Tracé 541" d="M74.409,290.056a1.306,1.306,0,0,0,.692.865.972.972,0,0,0,.889-.187,2.385,2.385,0,0,0,.59-.73,4.424,4.424,0,0,0,.631-1.605c.167-1.164-.725-2.684-2.056-2.1S74.014,288.95,74.409,290.056Z" transform="translate(-53.776 -208.405)" fill="#5e5e73"/>
        <path id="Tracé_542" data-name="Tracé 542" d="M38.309,162.736a3.823,3.823,0,0,1-.571,1.04,3.481,3.481,0,0,1-.247.274,6.312,6.312,0,0,1-1.921,1.29c.016-.03.027-.063.041-.093l.274-.607a5.307,5.307,0,0,0,1.153-.823,3.214,3.214,0,0,0,.757-1.1Z" transform="translate(-25.808 -118.496)" fill="#5e5e73"/>
        <path id="Tracé_543" data-name="Tracé 543" d="M37.474,162.773c-.016.074-.036.145-.055.217a5.31,5.31,0,0,1-1.276,2.226,6.119,6.119,0,0,1-1.048.854,8.548,8.548,0,0,1-1,.549c-.34.162-.694.307-1.048.436.014-.041.033-.085.049-.126.063-.17.129-.335.195-.494l.052-.025a7.555,7.555,0,0,0,2.053-1.18c.088-.074.173-.148.255-.228a4.737,4.737,0,0,0,1.284-2.143l.025-.088Z" transform="translate(-23.98 -118.539)" fill="#5e5e73"/>
        <path id="Tracé_544" data-name="Tracé 544" d="M83.117,164.344a2.632,2.632,0,0,1-.93-.51,4.616,4.616,0,0,1-.917-1.054h.549a3.019,3.019,0,0,0,1.155.972C83.024,163.938,83.068,164.125,83.117,164.344Z" transform="translate(-58.966 -118.536)" fill="#5e5e73"/>
        <path id="Tracé_545" data-name="Tracé 545" d="M80.48,165.376a4.429,4.429,0,0,1-3.14-2.6h.549a3.933,3.933,0,0,0,2.486,2.061C80.4,165.011,80.441,165.19,80.48,165.376Z" transform="translate(-56.115 -118.54)" fill="#5e5e73"/>
        <path id="Tracé_546" data-name="Tracé 546" d="M42.979,97.61c-5.072,4.257-13.154.631-13.154.631.036-1.262-1.265-6.861-2.355-11.944-.291-1.372-.571-2.7-.8-3.905a13.955,13.955,0,0,1-.066-4.847,7,7,0,0,1,.414-1.608,3.606,3.606,0,0,1,1.007-.889h0l.225-.151.033-.022.074-.049h0a15.586,15.586,0,0,1,2.528-1.353H30.9c.181-.066.362-.123.53-.178.683-.214,1.21-.335,1.21-.335h4.243a2.931,2.931,0,0,1,.749.1h0a4.8,4.8,0,0,1,.494.151,9.056,9.056,0,0,1,1.85.961,15.644,15.644,0,0,1,1.507,1.133c3.087,2.561,2.934,7.542,1.092,11.109C42.032,87.472,42.979,97.61,42.979,97.61Z" transform="translate(-19.171 -53.186)" fill="#ffd455"/>
        <path id="Tracé_547" data-name="Tracé 547" d="M5.754,87.261c1.208-4.712,7.135-6.471,7.135-6.471l-1.471,2.668-.2,2.014-.9,8.988-5.931.755a69.07,69.07,0,0,1,1.364-7.953Z" transform="translate(-3.185 -58.86)" fill="#ffd455"/>
        <path id="Tracé_548" data-name="Tracé 548" d="M5.79,87.261C7,82.549,12.926,80.79,12.926,80.79S7.248,83.751,6.515,87c-.181.782-.716,4.391-1.155,8.1l-.919.118a69.07,69.07,0,0,1,1.35-7.953Z" transform="translate(-3.222 -58.86)" fill="#ffe598"/>
        <path id="Tracé_549" data-name="Tracé 549" d="M27.41,78.916a4.942,4.942,0,0,1,2.9-1.866s2.585,18.766-2.22,21.439C28.093,98.489,31.14,88.189,27.41,78.916Z" transform="translate(-19.888 -56.153)" fill="#0f3358"/>
        <path id="Tracé_550" data-name="Tracé 550" d="M55.284,117.808l-.42-.027-1.142-.071a11.4,11.4,0,0,0-3.59.236c-.338.088-.675.192-1.015.274a8.328,8.328,0,0,1-1.013.211,7.833,7.833,0,0,1-1.743.058,2.945,2.945,0,0,1-.678-.129,1.51,1.51,0,0,1-.467-.236,1.167,1.167,0,0,1-.222-.236l-.055-.1.082.071a1.188,1.188,0,0,0,.261.145,2.132,2.132,0,0,0,1.07.058,12.435,12.435,0,0,0,1.622-.313c.3-.082.6-.176.922-.288s.664-.231,1.035-.329a6.161,6.161,0,0,1,2.171-.162,9.674,9.674,0,0,1,1.7.327c.472.134.843.274,1.1.357A2.465,2.465,0,0,1,55.284,117.808Z" transform="translate(-32.607 -85.157)" fill="#edb838"/>
        <path id="Tracé_551" data-name="Tracé 551" d="M72.066,142.463l-.387.1-3.491.854-.549-2.2-.11-.447a23.889,23.889,0,0,1,2.53-.5C70.4,140.295,72.066,142.463,72.066,142.463Z" transform="translate(-48.997 -102.147)" fill="#fdbd8e"/>
        <path id="Tracé_552" data-name="Tracé 552" d="M72.088,142.485l-.387.1c-.631-.612-1.542-1.49-1.677-1.594a11.3,11.3,0,0,0-2.355.261l-.11-.447a23.889,23.889,0,0,1,2.53-.5C70.425,140.325,72.088,142.485,72.088,142.485Z" transform="translate(-49.019 -102.166)" fill="#ffdaba"/>
        <path id="Tracé_553" data-name="Tracé 553" d="M61.18,138.412s10.379,2.876,12.413,1.35c.5-.381.1-3.779-.678-7.489l-3.746-.181-.472-.022.3,3.066-1.534,1.372-2.665.653-1.213.3Z" transform="translate(-44.39 -96.195)" fill="#fdbd8e"/>
        <path id="Tracé_554" data-name="Tracé 554" d="M81.985,93.632,81.2,81.73s.088.033.242.107a10.865,10.865,0,0,1,2.915,3.019c1.035,1.647,2.267,6.471,3.085,10.887H81.757Z" transform="translate(-58.916 -59.544)" fill="#ffd455"/>
        <path id="Tracé_555" data-name="Tracé 555" d="M81.2,81.73l.242.107a10.865,10.865,0,0,1,2.915,3.019,39.9,39.9,0,0,1,3.587,10.887l-1.018-.027c-1.15-5.316-2.695-9.592-2.744-10.031C84.142,85.023,81.2,81.73,81.2,81.73Z" transform="translate(-58.916 -59.544)" fill="#ffe598"/>
        <path id="Tracé_556" data-name="Tracé 556" d="M84.06,137.053l1.921-.365c.316.384.678.771.881.807.409.069-.37-.919-.37-.919a3.5,3.5,0,0,0,1.169-.14c.192-.107-.645-.351-1.282-.516-.129-.744-.321-1.836-.568-3.109h-.494l.274,2.862Z" transform="translate(-60.991 -96.722)" fill="#fb9988"/>
        <path id="Tracé_557" data-name="Tracé 557" d="M7.2,140.076c.5.5,13.722-1.979,16.713-3.675l-.1-.428-.549-2.209-11.746.3.351-3.469-4.051.513-.963.123C6.307,135.792,6.445,139.311,7.2,140.076Z" transform="translate(-4.732 -95.129)" fill="#fdbd8e"/>
        <path id="Tracé_558" data-name="Tracé 558" d="M7.207,141.433c.4.4,11.348-1.232,16.713-3.675a33.96,33.96,0,0,0,3.491-.856l-3.6.428S9.243,141.376,7.9,140.947c-1.172-.373-.327-6.716-.069-8.477l-.963.124C6.312,137.149,6.449,140.668,7.207,141.433Z" transform="translate(-4.737 -96.49)" fill="#fb9988"/>
        <path id="Tracé_559" data-name="Tracé 559" d="M25.548,97.85v8.875l-1.408.178Z" transform="translate(-17.515 -71.274)" fill="#edb838"/>
        <path id="Tracé_560" data-name="Tracé 560" d="M29.582,137.859l-4.418.047h-.4s.878-1.9,1.438-2.006,3.293,1.891,3.381,1.951Z" transform="translate(-17.965 -98.96)" fill="#fdbd8e"/>
        <path id="Tracé_561" data-name="Tracé 561" d="M29.579,137.816c-.093-.036-3.019-1.177-3.293-1.2s-1.062,1.175-1.114,1.254H24.76s.878-1.9,1.438-2.006S29.491,137.766,29.579,137.816Z" transform="translate(-17.965 -98.931)" fill="#ffdaba"/>
        <path id="Tracé_562" data-name="Tracé 562" d="M43.621,21.851a14.044,14.044,0,0,1-1.778.464c-4.136.823-9.306.2-12.3-.3-1.5-.252-2.47-.475-2.47-.475s-.472-4.053-.472-5.6a17.183,17.183,0,0,1,.2-2.637,12.817,12.817,0,0,1,4.5-8.3h6.394l2.335,1.2.469.242.178.091,2.558,1.315.063,2.2.049,1.748Z" transform="translate(-19.3 -3.631)" fill="#55062c"/>
        <path id="Tracé_563" data-name="Tracé 563" d="M46.031,19.478a6.147,6.147,0,0,1-.489,1.257c-4.136.823-9.306.2-12.3-.3l-.016-.025a10.108,10.108,0,0,1-1.526-5.28,19.049,19.049,0,0,1,.788-5.489,13.467,13.467,0,0,1,1.671-4.01A6.548,6.548,0,0,1,36.59,3.421c.049-.027.1-.049.148-.074a7.976,7.976,0,0,1,3.494-.521,4.714,4.714,0,0,1,3.955,2.039,9.737,9.737,0,0,1,1.007,4.056c.231,1.765.675,3.5.947,5.258A12.72,12.72,0,0,1,46.031,19.478Z" transform="translate(-23 -2.052)" fill="#3f0727"/>
        <path id="Tracé_564" data-name="Tracé 564" d="M83.5,42.122c-.016-.1-.047-.239-.093-.409a3.971,3.971,0,0,0-.217-.587,2.572,2.572,0,0,0-.436-.656A2.349,2.349,0,0,0,82.117,40a3.055,3.055,0,0,0-.59-.233l-.2-.055-.121-.11.038.091-.126-.022c-.1-.019-.151-.025-.151-.025l.357.233.173.409a7.244,7.244,0,0,1,.51,1.619,9.521,9.521,0,0,1,.08,1.7v.752l.082-.187c.052-.118.121-.294.195-.516a4.666,4.666,0,0,0,.192-.8,3.293,3.293,0,0,0,0-1.037,3.1,3.1,0,0,0-.346-.982,4.221,4.221,0,0,0-.447-.65,4.468,4.468,0,0,1,.681.582,7.191,7.191,0,0,1,.768,1.043l.233.335c.058.08.088.126.088.126A1.241,1.241,0,0,1,83.5,42.122Z" transform="translate(-58.749 -28.735)" fill="#3f0727"/>
        <path id="Tracé_565" data-name="Tracé 565" d="M51.906,74.066a5.083,5.083,0,0,1-3.441,3.491c-3.019,1.007-4.981-2.772-5.6-4.193a17.307,17.307,0,0,1,1.74-.513h4.213a2.931,2.931,0,0,1,.749.1h0a4.808,4.808,0,0,1,.494.151A9.057,9.057,0,0,1,51.906,74.066Z" transform="translate(-31.098 -53.057)" fill="#fdbd8e"/>
        <path id="Tracé_566" data-name="Tracé 566" d="M52.9,62.131l-3.7-4.117c0-.612.058-.843.113-2.363.06-1.688.121-3.271.121-3.271L54.2,54.252a11.252,11.252,0,0,0-.851,3.842A31.151,31.151,0,0,1,52.9,62.131Z" transform="translate(-35.698 -38.008)" fill="#fdbd8e"/>
        <path id="Tracé_567" data-name="Tracé 567" d="M54.5,54.215a11.252,11.252,0,0,0-.851,3.842c-.151.063-.3.121-.436.167-.549.195-2.33-1.372-3.6-2.624.06-1.688.121-3.271.121-3.271Z" transform="translate(-35.995 -37.972)" fill="#fb9988"/>
        <path id="Tracé_568" data-name="Tracé 568" d="M55.9,17.3c-.1.442-.22.9-.373,1.389a11.409,11.409,0,0,1-.038,2.92c-.252.535-1.855,3.867-3.543,3.661C50.541,25.1,47.1,23.036,45.9,21.807a1.433,1.433,0,0,1-.417-.612c-.162-.947-.727-5.121-.779-5.472-.143-.947-.549-8.115,8.126-6.123a4.182,4.182,0,0,1,3.148,3.134A10.448,10.448,0,0,1,55.9,17.3Z" transform="translate(-32.401 -6.716)" fill="#fdbd8e"/>
        <path id="Tracé_569" data-name="Tracé 569" d="M58.825,39.959a11.409,11.409,0,0,1-.038,2.92c-.252.535-1.855,3.867-3.543,3.661-1.405-.167-4.847-2.231-6.043-3.461,1.466,1.018,5.371,3.614,6.532,3.214,1.419-.494,3.019-3.634,2.991-3.946S58.6,40,58.6,40s.274-.642.612-1.43C59.1,39.012,58.978,39.473,58.825,39.959Z" transform="translate(-35.698 -27.988)" fill="#ffdaba"/>
        <path id="Tracé_570" data-name="Tracé 570" d="M41.8,39.922A3.307,3.307,0,0,1,39.5,38.651a2.681,2.681,0,0,1-.231-.343c-.31-.563-.4-2.517.4-2.972.549-.318.969.143,1.164.45h0a1.822,1.822,0,0,1,.126.231Z" transform="translate(-28.329 -25.564)" fill="#ffdaba"/>
        <path id="Tracé_571" data-name="Tracé 571" d="M42.157,40.411a3.307,3.307,0,0,1-2.305-1.271c-.036-.055-.069-.107-.1-.159-.31-.549-.4-2.517.4-2.972a.765.765,0,0,1,1.029.274h0a1.822,1.822,0,0,1,.126.231Z" transform="translate(-28.682 -26.052)" fill="#fdbd8e"/>
        <path id="Tracé_572" data-name="Tracé 572" d="M40.354,40.35a.843.843,0,0,0,.038.472,3.847,3.847,0,0,0,1.5,1.622,1.663,1.663,0,0,1-.22-1.026,3.375,3.375,0,0,0,.041-.365C41.718,40.562,40.593,39.425,40.354,40.35Z" transform="translate(-29.267 -29.025)" fill="#fb9988"/>
        <path id="Tracé_573" data-name="Tracé 573" d="M42.712,42.63l-.041-.019-.1-.06a1.485,1.485,0,0,1-.307-.274,1.238,1.238,0,0,1-.255-.521,1.1,1.1,0,0,1,.08-.689.5.5,0,0,1,.044-.085l.014-.022h0V40.94l-.022-.047c-.016-.025-.03-.049-.044-.074q-.091-.143-.189-.274c-.066-.082-.134-.159-.2-.231a1.726,1.726,0,0,0-.2-.184.445.445,0,0,0-.2-.091.31.31,0,0,0-.173.03.159.159,0,0,0-.077.069v.033a.088.088,0,0,1,0-.036.148.148,0,0,1,.063-.088A.346.346,0,0,1,41.3,40a.579.579,0,0,1,.274.077,2.017,2.017,0,0,1,.244.176,2.591,2.591,0,0,1,.239.225,2.25,2.25,0,0,1,.225.274l.049.077.025.038.03.055.022.041L42.388,41l-.033.055a.478.478,0,0,0-.038.074,1.139,1.139,0,0,0-.1.609,1.339,1.339,0,0,0,.165.5,1.539,1.539,0,0,0,.236.3l.085.074Z" transform="translate(-29.772 -29.024)" fill="#fd7d6f"/>
        <path id="Tracé_574" data-name="Tracé 574" d="M82.874,29.591s-1.1-1.482-1.723-.895-.332.648-.332.648Z" transform="translate(-58.588 -20.724)" fill="#55062c"/>
        <path id="Tracé_575" data-name="Tracé 575" d="M56.58,28.664s2.036-2.352,2.876-1.518c.489.489.148.823.148.823Z" transform="translate(-41.052 -19.57)" fill="#55062c"/>
        <path id="Tracé_576" data-name="Tracé 576" d="M61.785,34a1.315,1.315,0,0,1-.656.549.549.549,0,0,0-.417-.214c-.4,0-.722.516-.722,1.155s.324,1.155.722,1.155.719-.516.719-1.155a1.715,1.715,0,0,0-.085-.549A2.105,2.105,0,0,0,61.785,34Z" transform="translate(-43.526 -24.672)" fill="#161818"/>
        <path id="Tracé_577" data-name="Tracé 577" d="M57.49,37.044a1.482,1.482,0,0,0,1.589.642A1.482,1.482,0,0,0,57.49,37.044Z" transform="translate(-41.713 -26.852)" fill="#fff0e7"/>
        <path id="Tracé_578" data-name="Tracé 578" d="M80.913,36.27a.917.917,0,0,1-.45.387.406.406,0,0,0-.274-.126c-.3,0-.549.39-.549.87s.242.873.549.873.549-.39.549-.873a1.23,1.23,0,0,0-.093-.489,1.57,1.57,0,0,0,.269-.642Z" transform="translate(-57.784 -26.319)" fill="#161818"/>
        <path id="Tracé_579" data-name="Tracé 579" d="M82.3,38.814a1.284,1.284,0,0,1-.5.384,1.3,1.3,0,0,1-.628.074A1.194,1.194,0,0,1,82.3,38.814Z" transform="translate(-58.894 -28.155)" fill="#fff0e7"/>
        <path id="Tracé_580" data-name="Tracé 580" d="M71.229,48.833a1.293,1.293,0,0,0-.549-.143,1.806,1.806,0,0,0,.982.947.233.233,0,0,0,.1.025.258.258,0,0,0,.124-.044,2.168,2.168,0,0,0,.62-.549.455.455,0,0,0,.08-.148c.044-.184-.082-.143-.189-.1a1.756,1.756,0,0,1-.392.1,1.7,1.7,0,0,1-.779-.088Z" transform="translate(-51.283 -35.331)" fill="#fb9988"/>
        <path id="Tracé_581" data-name="Tracé 581" d="M73.948,41.21c.113-.1.236-.181.351-.274a2.884,2.884,0,0,0,.384-.392c-.576-.414-.576-1.032-.557-1.737a2.039,2.039,0,0,1,.255-.9,2,2,0,0,1,.294-.4,2.2,2.2,0,0,1,.184-.173.7.7,0,0,1,.2-.113c-.036.041-.06.088-.093.132-.085.113-.176.217-.25.338a2.727,2.727,0,0,0-.192.379,2.53,2.53,0,0,0-.176.823,2.034,2.034,0,0,0,.132.823,1.647,1.647,0,0,0,.593.763L74.632,41a1.941,1.941,0,0,1-.335.274.722.722,0,0,1-.4.159.244.244,0,0,1-.129-.038.464.464,0,0,0,.069-.055l.027-.03Z" transform="translate(-53.525 -27.009)" fill="#fd7d6f"/>
        <path id="Tracé_582" data-name="Tracé 582" d="M65.439,53.636a2.873,2.873,0,0,1-1.1,1.062,2.2,2.2,0,0,1-1.265.239,1.921,1.921,0,0,1-1.166-.549,3.137,3.137,0,0,1-.779-1.452,9.779,9.779,0,0,1,4.3.7Z" transform="translate(-44.354 -38.408)" fill="#fff0e7"/>
        <path id="Tracé_583" data-name="Tracé 583" d="M55.071,31.44a2.486,2.486,0,0,0-.3-.167,1.852,1.852,0,0,0-.313-.107,2.1,2.1,0,0,0-.6-.088h-.088a1.959,1.959,0,0,0-.255.025,2.209,2.209,0,0,0-1.836,1.858,1.422,1.422,0,0,0-1.059.022A2.411,2.411,0,0,0,46.6,31.473a2.453,2.453,0,0,0-.637.925l-2.226-.362-.343-.058h0l-.609-.1v.063l-.019.118-.027.176h.047l.343.055h.033l.148.025h0l.154.025.088.016.118.016.914.151,1.287.209a2.415,2.415,0,0,0,2.357,2.923,2.368,2.368,0,0,0,.823-.143,2.421,2.421,0,0,0,1.573-2.152,1.02,1.02,0,0,1,1.026,0,2.3,2.3,0,0,0,.041.343,2.108,2.108,0,0,0,.151.467,2.2,2.2,0,0,0,1.828,1.3h.28a1.921,1.921,0,0,0,.255-.025h.069a2.245,2.245,0,0,0,.508-.165A1.99,1.99,0,0,0,55,35.161c.06-.038.118-.077.176-.121h.019a1.99,1.99,0,0,0,.274-.239,2.2,2.2,0,0,0-.4-3.362Zm-6.29,3.779a2.009,2.009,0,0,1-.565.08,2.045,2.045,0,1,1,.565-.08Zm6.485-.76a1.432,1.432,0,0,1-.107.118,1.511,1.511,0,0,1-.184.165,2,2,0,0,1-.3.189,1.962,1.962,0,0,1-.442.156h-.06a1.353,1.353,0,0,1-.236.027h-.082a1.833,1.833,0,0,1-1.828-1.682,1.391,1.391,0,0,1,0-.151,1.687,1.687,0,0,1,.016-.239,1.836,1.836,0,0,1,1.548-1.578,1.784,1.784,0,0,1,.274-.022,1.825,1.825,0,0,1,.878.225,1.77,1.77,0,0,1,.354.252,1.833,1.833,0,0,1,.17,2.539Z" transform="translate(-31.011 -22.387)" fill="#161818"/>
        <path id="Tracé_584" data-name="Tracé 584" d="M50.31,6.5a14.42,14.42,0,0,1-.126,1.677c-.016.123-.027.189-.027.189-2.788-1.959-2.8-4.215-2.722-4.94-.755,3.952-9.125,6.222-9.125,6.222l-1.172.519A3.683,3.683,0,0,1,36.5,9.134c-.464-1.092-.854-3.087.36-5.961a4.833,4.833,0,0,1,1.29-1.792h0C40.847-.947,45.562.4,45.562.4,49.791.008,50.362,4.021,50.31,6.5Z" transform="translate(-26.159 -0.012)" fill="#3f0727"/>
        <path id="Tracé_585" data-name="Tracé 585" d="M44.922,36.37c-.03-.093-.08-.231-.148-.392a3.655,3.655,0,0,0-.291-.549,2.445,2.445,0,0,0-.519-.59,2.338,2.338,0,0,0-.692-.387,3.019,3.019,0,0,0-.612-.154l-.206-.025-.134-.093.052.085H42.09l.384.184.228.384a7.429,7.429,0,0,1,.716,1.531,9.474,9.474,0,0,1,.3,1.674c.027.228.052.414.066.549l.03.2.058-.195c.033-.126.08-.307.124-.549a5.045,5.045,0,0,0,.088-.823,3.422,3.422,0,0,0-.137-1.029,3.14,3.14,0,0,0-.475-.928,4.273,4.273,0,0,0-.527-.585,4.847,4.847,0,0,1,.766.478,7.467,7.467,0,0,1,.9.93l.274.316.1.113Z" transform="translate(-30.539 -24.803)" fill="#3f0727"/>
        <path id="Tracé_586" data-name="Tracé 586" d="M43.987,6.5a1.372,1.372,0,0,1-.176-.071c-1.323-.6-2.2-2.352-2.621-3.516a11.43,11.43,0,0,1-.36-1.1,1.781,1.781,0,0,1-.288.763A18.847,18.847,0,0,1,37.2,6.046l.37-1.144a10.712,10.712,0,0,1-3.263,2.744,14.468,14.468,0,0,1-4.117,1.5c-1.062.247-2.083.425-2.854.549a15.058,15.058,0,0,1,.7-2.829A12.063,12.063,0,0,1,31.83,1.381h0C34.525-.947,39.24.4,39.24.4a5.917,5.917,0,0,1,.845-.019C43.546.571,44.04,4.2,43.987,6.5Z" transform="translate(-19.837 -0.012)" fill="#55062c"/>
        <path id="Tracé_587" data-name="Tracé 587" d="M41.942.376a6.643,6.643,0,0,1-2.385,2.377,1.751,1.751,0,0,0,.211-1,11.362,11.362,0,0,1-4.9,4.015,2.983,2.983,0,0,0,.318-1.5A10.473,10.473,0,0,1,30.915,6.6c-.274.071-.645.2-1.015.274a12.063,12.063,0,0,1,3.787-5.489h0C36.382-.947,41.1.4,41.1.4a5.917,5.917,0,0,1,.845-.022Z" transform="translate(-21.694 -0.012)" fill="#6f0a32"/>
        <path id="Tracé_588" data-name="Tracé 588" d="M24.76,142.435l11.856.143-.11-.447Z" transform="translate(-17.965 -103.495)" fill="#ffdaba"/>
        <path id="Tracé_589" data-name="Tracé 589" d="M84.62,131l6.205-.4.211,1.806-6.326.244Z" transform="translate(-61.397 -95.105)" fill="#fff0e7"/>
        <path id="Tracé_590" data-name="Tracé 590" d="M2.65,129.741l7.651-.881.123,1.232-7.561,1.3Z" transform="translate(-1.923 -93.839)" fill="#fff0e7"/>
      </g>
    </g>
  </g>
</svg>
