<svg xmlns="http://www.w3.org/2000/svg" width="120" height="123" viewBox="0 0 120 123">
  <g id="Cleaning" transform="translate(-0.001 0.002)">
    <g id="_ëîé_1" data-name="‘ëîé_1" transform="translate(0.001 -0.002)">
      <path id="Tracé_1" data-name="Tracé 1" d="M51.751,74.379c-.539.622-.913-1.566-.913-1.566s-.073,1.234-.446,1.328-.9-1.483-.9-1.483,0,.82-.373.82c-.228,0-.488-.488-.674-.923h0c-.145-.332-.239-.633-.239-.633a5.882,5.882,0,0,1-.488-3.34s-.747-2.593-1.193-3.662-1.193-2.386-1.193-2.386l.519-.394a20.567,20.567,0,0,1,1.826-1.411,14.907,14.907,0,0,1,3.226-1.66l.6-.207s-.737,8.527-.664,8.652a8.05,8.05,0,0,1,1.411,2.22C52.363,70.416,52.249,73.767,51.751,74.379Z" transform="translate(1.648 2.351)" fill="#d64e27"/>
      <path id="Tracé_2" data-name="Tracé 2" d="M48.442,72.476c-.145-.332-.239-.633-.239-.633a5.882,5.882,0,0,1-.488-3.34s-.747-2.593-1.193-3.662-1.193-2.386-1.193-2.386l.519-.394a20.568,20.568,0,0,1,1.826-1.411c0,1.961.322,6.546.768,7.531A13.185,13.185,0,0,0,48.442,72.476Z" transform="translate(1.649 2.417)" fill="#bf3b27"/>
      <path id="Tracé_3" data-name="Tracé 3" d="M49.217,79.951a81.308,81.308,0,0,1,.332,11.9c-.27,7.417-1.369,20.519-1.369,20.519H46.894s-5.187-18.787-5.882-22.656a10.374,10.374,0,0,1,.82-6.629s-4.824-6.961-6.38-9.471S28.4,62.574,28.4,62.574l-2.666,1.971s-.664,4.492-1.317,7.749-2.147,13.486-2.147,13.486c2.469,7.376.5,14.461-.207,16.764S18.6,113.406,18.6,113.406l-.373-.062-1.172-.2S15.907,89.8,15.824,86.175c0-1.1-.083-2.874-.145-5-.135-5-.311-11.9-.228-16.173.1-4.9.809-11.473,1.193-16.173v-.311c.073-1.037.145-1.95.176-2.749v-.84A65.355,65.355,0,0,1,18.1,36.64h0a.539.539,0,0,0,0-.166h0s.747-.342,2.075-1.037C21,35,22.059,34.4,23.283,33.694c3.257-1.9,5.436-3.382,5.436-3.382s1.732-3.662,2.967-6.3c.965-2.075,1.961-4.274,2.344-5.135.768.135,1.515.29,2.251.446a48.385,48.385,0,0,0-2.365,4.564c-1.11,2.479-2.957,6.525-2.957,6.525,1.722.539,8.3,4.7,8.3,4.7A55.884,55.884,0,0,1,49.695,24.949c.685.519,1.286,1.037,1.795,1.5-1.266.954-4.264,3.247-5.892,4.751-2.075,1.93-5.27,5.394-5.27,5.394a32.624,32.624,0,0,1,.591,3.288c.145.913.259,1.66.259,1.66h0c-.176.239-1.66,2.189-2.967,4.077-.788,1.141-1.857,3-2.635,4.409l-.166.311c-.425.788-.747,1.38-.84,1.566h0l.124.29Z" transform="translate(0.576 0.969)" fill="#2755a5"/>
      <path id="Tracé_4" data-name="Tracé 4" d="M20.173,34.73c-.954,4.15-2.739,16.94-3.112,21.235-.27,3.3-1.037,17.169-1.442,24.576-.135-5-.311-11.9-.228-16.173.1-4.9.809-11.473,1.193-16.173v-.311c.073-1.037.145-1.95.176-2.749v-.84A65.356,65.356,0,0,1,18.1,36.047h0a.539.539,0,0,0,0-.166h0S18.876,35.446,20.173,34.73Z" transform="translate(0.573 1.423)" fill="#214287"/>
      <path id="Tracé_5" data-name="Tracé 5" d="M47.042,110.813H46.8s-5.187-18.787-5.882-22.656a10.374,10.374,0,0,1,.82-6.629s-4.824-6.961-6.38-9.471S28.3,61.018,28.3,61.018L25.63,62.989s-.664,4.492-1.317,7.749-2.147,13.486-2.147,13.486c2.469,7.376.5,14.461-.207,16.764S18.5,111.85,18.5,111.85l-.373-.062a145.7,145.7,0,0,0,3.6-15.042,47.969,47.969,0,0,0-.5-11.754s.218-2.189.913-7.376,2.749-14.523,2.749-14.523l3.288-2.583s2.417,2.915,5.187,6.349S44.3,81.092,44.3,81.092s-.166,2.853-.373,6.733,1.214,11.11,1.93,15.177C46.347,105.9,46.855,109.132,47.042,110.813Z" transform="translate(0.654 2.525)" fill="#214287"/>
      <path id="Tracé_6" data-name="Tracé 6" d="M40.508,40.791h0c-.176.239-1.66,2.189-2.967,4.077-.788,1.141-1.857,3-2.635,4.409l-.166.311c-.425.788-.747,1.38-.84,1.566.3-1.037,5.1-10.488,6.37-12.044C40.394,40.033,40.508,40.791,40.508,40.791Z" transform="translate(1.232 1.56)" fill="#214287"/>
      <path id="Tracé_7" data-name="Tracé 7" d="M34.47,18.817c-.384.861-1.38,3.112-2.344,5.135-1.234,2.635-2.967,6.3-2.967,6.3s-2.178,1.483-5.436,3.382c-1.245.726-2.313,1.307-3.112,1.753-1.328.705-2.075,1.037-2.075,1.037A23.683,23.683,0,0,1,20.86,28.06s-5.27-1.525-8.237-1.276a30.665,30.665,0,0,0-.954,9.336l-.778-.073a23.34,23.34,0,0,0-4.15,0c-.259-1.276-1.452-7.262-1.629-10.125a29.928,29.928,0,0,1,.207-5.892s4.035-1.774,11.9-2.427A71.818,71.818,0,0,1,34.47,18.817Z" transform="translate(0.188 0.657)" fill="#a6ddeb"/>
      <path id="Tracé_8" data-name="Tracé 8" d="M52.666,38.089c-.654,3.662-1.11,7.49-1.11,7.49a23.4,23.4,0,0,1,.249,4.907c-.114,2.666-.591,8.631-.685,9.793a14.866,14.866,0,0,0-4.15,2.376c-.322.249-.6.488-.861.7-.2-.436-3.2-7.324-1.639-10.27,0,0-.456-3.838-.488-6.805s.363-7.946.363-7.946l-.778-.166-3.226,3.112-.2-1.3c-.2-1.234-.488-3-.7-3.662,0,0,3.174-3.465,5.27-5.394,1.629-1.5,4.627-3.8,5.892-4.751a10,10,0,0,1,2.075,2.355,31.785,31.785,0,0,1-.021,9.565Z" transform="translate(1.431 1.063)" fill="#a6ddeb"/>
      <path id="Tracé_9" data-name="Tracé 9" d="M49.115,24.926A55.883,55.883,0,0,0,38.679,35.093s-6.556-4.15-8.3-4.7c0,0,1.847-4.035,3.008-6.629A48.383,48.383,0,0,1,35.754,19.2l1.359.3a39.212,39.212,0,0,1,5.716,1.753,26.785,26.785,0,0,1,5.446,3.06A9.255,9.255,0,0,1,49.115,24.926Z" transform="translate(1.1 0.769)" fill="#a6ddeb"/>
      <path id="Tracé_10" data-name="Tracé 10" d="M23.069,26.927s-1.774,4.762-2.7,8.175c-1.328.705-2.075,1.037-2.075,1.037a23.683,23.683,0,0,1,2.324-8.361s-5.27-1.525-8.237-1.276a30.665,30.665,0,0,0-.954,9.336l-.778-.073c-.415-2.075-1.224-7.262.2-10.7C10.88,25.08,18.3,25,23.069,26.927Z" transform="translate(0.374 1)" fill="#66c8ce"/>
      <path id="Tracé_11" data-name="Tracé 11" d="M46.906,62.313c-.322.249-.6.488-.861.7-.2-.436-3.2-7.324-1.639-10.27,0,0-.456-3.838-.488-6.805s.363-7.946.363-7.946l-.778-.166-3.226,3.112-.2-1.3a44.832,44.832,0,0,1,3.3-3.3A29.967,29.967,0,0,1,46.2,35.3c-.633,2.884,0,17.106,0,17.106C45.63,54.616,46.47,59.886,46.906,62.313Z" transform="translate(1.457 1.422)" fill="#66c8ce"/>
      <path id="Tracé_12" data-name="Tracé 12" d="M48.052,24.305a15.727,15.727,0,0,1-7.179-.716,6.224,6.224,0,0,1-3.984-4.15,39.212,39.212,0,0,1,5.716,1.753,26.785,26.785,0,0,1,5.446,3.112Z" transform="translate(1.339 0.774)" fill="#66c8ce"/>
      <path id="Tracé_13" data-name="Tracé 13" d="M18,36Z" transform="translate(0.672 1.427)" fill="#9d5e55"/>
      <path id="Tracé_14" data-name="Tracé 14" d="M18,36.006a.539.539,0,0,0,0-.166,1.2,1.2,0,0,0,0,.166Z" transform="translate(0.672 1.421)" fill="#844741"/>
      <path id="Tracé_15" data-name="Tracé 15" d="M56.088,113.154c0,.083-1.639.322-2.178,1.151s-.249,1.566.5,1.608,1.732.28,1.681.571.5-.322.747-.249-.207,1.037.456,1.317.488.82,2.22,1.037,2.552-1.037,3.112-1.307a5.7,5.7,0,0,1,3.268-.083c1.037.322,1.193.239,1.857-.166s1.525,0,2.075-.5.861-1.317,1.556-1.359,1.815.124,2.189-.456.249-1.037.9-1.037,1.234.124,1.442-.363-.654-1.328,0-1.442,1.338-1.2,0-1.525a2.635,2.635,0,0,0-2.251.488Z" transform="translate(1.941 4.385)" fill="#7bc6c9"/>
      <path id="Tracé_16" data-name="Tracé 16" d="M61.394,114.353,74,110.442,69.922,109,56,112.7Z" transform="translate(2.03 4.337)" fill="#d64e27"/>
      <path id="Tracé_17" data-name="Tracé 17" d="M18.75,110.01a4.876,4.876,0,0,0-3.2,0,19.886,19.886,0,0,0-4.015,2.137h7.739Z" transform="translate(0.43 4.365)" fill="#c72f47"/>
      <path id="Tracé_18" data-name="Tracé 18" d="M46.013,112.174h7.946s-4.564-3.247-8.3-3.454Z" transform="translate(1.659 4.327)" fill="#c72f47"/>
      <path id="Tracé_19" data-name="Tracé 19" d="M56,112.57v1.151l5.394,1.774v-1.276Z" transform="translate(2.036 4.471)" fill="#6e2c27"/>
      <path id="Tracé_20" data-name="Tracé 20" d="M61.2,115.577,73.8,111.5v-1.11L61.2,114.3Z" transform="translate(2.222 4.389)" fill="#ee7123"/>
      <path id="Tracé_21" data-name="Tracé 21" d="M61.517,109.062a.5.5,0,0,1-.384-.176L.114,33.219a.488.488,0,0,1,.073-.7.5.5,0,0,1,.7.073L61.9,108.263a.487.487,0,0,1-.384.8Z" transform="translate(-0.001 1.475)" fill="#ce8686"/>
      <path id="Tracé_22" data-name="Tracé 22" d="M42.533,19.324s-.3.55-.705,1.224c-.674,1.11-1.629,2.542-2.075,2.427-.654-.2-.851-1.1-.9-2.583v-.965a24.442,24.442,0,0,1,.29-3.268,1.608,1.608,0,0,0,.145.3,9.264,9.264,0,0,0,3.206,2.863Z" transform="translate(1.413 0.606)" fill="#f1b5ab"/>
      <path id="Tracé_23" data-name="Tracé 23" d="M58.51,106.843c.156-.083,1.608-2.013,1.608-2.013l6.338,6.67-3.548.415Z" transform="translate(2.126 4.182)" fill="#2b91be"/>
      <path id="Tracé_24" data-name="Tracé 24" d="M37.139,38.238c-1.587-.809-9.772-4.9-9.845-4.938a.124.124,0,0,0-.1,0,.166.166,0,0,0-.073.073c-.093.228-2.313,5.54-.83,8.558a3.413,3.413,0,0,0,2.272,1.826,5.5,5.5,0,0,0,1.411.187c4.357,0,7.189-5.467,7.262-5.519a.145.145,0,0,0-.093-.187Zm-7.168,5.446a5.094,5.094,0,0,1-1.349-.187,3.112,3.112,0,0,1-2.075-1.691c-1.307-2.676.467-7.407.8-8.226,1.037.5,7.9,3.952,9.606,4.824C36.486,39.213,33.84,43.685,29.971,43.685Z" transform="translate(0.935 1.327)" fill="#a6ddeb"/>
      <path id="Tracé_25" data-name="Tracé 25" d="M35.366,49.425l.166-.311a29.48,29.48,0,0,1-2.894.716v-.768a.1.1,0,0,0-.052-.1.166.166,0,0,0-.124,0l-.685.342a.114.114,0,0,0-.062.114v.591a17.314,17.314,0,0,1-6.577,0,12.241,12.241,0,0,1-4.233-2.075l.124-.363a.124.124,0,0,0-.052-.135l-.7-.519a.156.156,0,0,0-.114,0,.145.145,0,0,0-.083.093l-.062.259A20.374,20.374,0,0,1,16.839,44q0,.187,0,.373a20.166,20.166,0,0,0,3.112,3.216l-.488,2.075A14.855,14.855,0,0,1,16.6,47.589V47.9a16.017,16.017,0,0,0,2.832,1.992l-.218.934a.114.114,0,0,0,0,.135l.446.29h.1a.087.087,0,0,0,.083-.083l.28-.944a18.59,18.59,0,0,0,4.668,1.6,19.462,19.462,0,0,0,3.755.363,21.619,21.619,0,0,0,3.112-.239v.9a.125.125,0,0,0,0,.1.083.083,0,0,0,.073,0h0l.685-.249a.124.124,0,0,0,.073-.114v-.83a19.045,19.045,0,0,0,2.158-.5l-.124-.218a17.987,17.987,0,0,1-1.867.467V50.058A23.044,23.044,0,0,0,35.366,49.425ZM19.691,50.9l-.239-.156.176-.778.062-.249.436-2,.062-.27v-.2l.477.342L20.6,47.8l-.083.249-.591,1.847-.083.228Zm5.187.685a18.351,18.351,0,0,1-4.637-1.577l.581-1.805a12.6,12.6,0,0,0,4.253,2.075,13.351,13.351,0,0,0,3.112.332,23.132,23.132,0,0,0,3.527-.384v1.452A19.606,19.606,0,0,1,24.878,51.583Zm7.521,0v.934l-.436.156v-3.2l.436-.218v2.334Z" transform="translate(0.619 1.752)" fill="#a6ddeb"/>
      <path id="Tracé_26" data-name="Tracé 26" d="M50.178,73.814c-.083,0-.187,0-.311-.207a11.857,11.857,0,0,1-1.3-3.973.121.121,0,0,1,.239.041,12.718,12.718,0,0,0,1.245,3.786c.073.1.114.114.114.114.29-.135.311-2.739.093-3.89a.124.124,0,0,1,.1-.145.114.114,0,0,1,.135.093c.145.757.342,3.921-.239,4.15C50.251,73.814,50.219,73.814,50.178,73.814Z" transform="translate(1.767 2.76)" fill="#ab3424"/>
      <path id="Tracé_27" data-name="Tracé 27" d="M42.531,19.324s-.3.55-.705,1.224a11.141,11.141,0,0,1-2.936-1.12,24.442,24.442,0,0,1,.29-3.268,1.608,1.608,0,0,0,.145.3,9.264,9.264,0,0,0,3.206,2.863Z" transform="translate(1.414 0.606)" fill="#f5948d"/>
      <path id="Tracé_28" data-name="Tracé 28" d="M13.84,47.544a.249.249,0,0,1-.259.083c-.239-.073-.581-.664-.83-1.037h0c-.135-.207-.239-.373-.28-.373h0c-.2.342-.871,2.593-1.452,2.593a3.112,3.112,0,0,1-1.193-.539,11.048,11.048,0,0,1-2.77-2.293c-.778-1.037.207-2.8.207-2.8a15.675,15.675,0,0,0-.56-3c-.456-1.442-1.39-4.523-1.162-4.616a4.658,4.658,0,0,1,1.141-.249,22.947,22.947,0,0,1,4.305,0l.643.062,1.162.135-.073,6.795a25.135,25.135,0,0,1,1.6,3.714A2.075,2.075,0,0,1,13.84,47.544Z" transform="translate(0.205 1.406)" fill="#d64e27"/>
      <path id="Tracé_29" data-name="Tracé 29" d="M13.643,47.537A35.54,35.54,0,0,0,11.952,42.6a52.315,52.315,0,0,1-1.162-7.2l.643.062L12.6,35.6l-.073,6.795a25.136,25.136,0,0,1,1.6,3.62A2.075,2.075,0,0,1,13.643,47.537Z" transform="translate(0.402 1.412)" fill="#bf3b27"/>
      <path id="Tracé_30" data-name="Tracé 30" d="M12.275,45.79c-.2.342-.871,2.593-1.452,2.593a3.112,3.112,0,0,1-1.193-.539,9.336,9.336,0,0,0,2.645-2.054Z" transform="translate(0.359 1.817)" fill="#bf3b27"/>
      <path id="Tracé_31" data-name="Tracé 31" d="M81.152,108.748a.332.332,0,0,1-.332-.332v-2.552a.332.332,0,1,1,.654,0v2.552a.322.322,0,0,1-.322.332Z" transform="translate(2.942 4.206)" fill="#4b4063"/>
      <path id="Tracé_32" data-name="Tracé 32" d="M94.012,110.009a.332.332,0,0,1-.332-.332v-2.355a.332.332,0,0,1,.664,0v2.355A.332.332,0,0,1,94.012,110.009Z" transform="translate(3.391 4.262)" fill="#4b4063"/>
      <path id="Tracé_33" data-name="Tracé 33" d="M107.012,110.017a.342.342,0,0,1-.332-.332v-2.593a.332.332,0,1,1,.664,0v2.593a.332.332,0,0,1-.332.332Z" transform="translate(3.876 4.254)" fill="#4b4063"/>
      <path id="Tracé_34" data-name="Tracé 34" d="M111.181,89.927A18.01,18.01,0,0,0,110.6,92.6c-.311,1.878-.612,4.347-.871,6.774-.093.913-.187,1.805-.27,2.666-.332,3.517-.55,6.38-.55,6.38s-4.523.788-14.907.456l-1.878-.031c-8.818-.436-11.411-1.712-11.411-1.981s-2-18.465-2.313-21.225V85.29a26.732,26.732,0,0,0,4.347,1.618,67.118,67.118,0,0,0,7.936,1.815c.726.124,1.483.249,2.272.363l1.421.2C105.621,90.715,111.181,89.927,111.181,89.927Z" transform="translate(2.819 3.451)" fill="#f79738"/>
      <path id="Tracé_35" data-name="Tracé 35" d="M111.182,89.929a18.01,18.01,0,0,0-.581,2.676,55.832,55.832,0,0,1-11.982,0c-11.65-.954-17.75-4.917-20.229-7.023V85.23a26.732,26.732,0,0,0,4.347,1.618,67.118,67.118,0,0,0,7.936,1.815c.726.124,1.483.249,2.272.363l1.421.2C105.621,90.718,111.182,89.929,111.182,89.929Z" transform="translate(2.819 3.389)" fill="#ed8222"/>
      <path id="Tracé_36" data-name="Tracé 36" d="M99.9,75.294l-9.72.176-4.533.083L74.9,72.441,86.643,71.3l1.151.249C91.8,72.514,99.9,75.294,99.9,75.294Z" transform="translate(2.689 2.83)" fill="#ed7d27"/>
      <path id="Tracé_37" data-name="Tracé 37" d="M90.181,75.47l-4.533.083L74.9,72.441,86.643,71.3l1.151.249a26.628,26.628,0,0,0,2.386,3.921Z" transform="translate(2.717 2.83)" fill="#d64e27"/>
      <path id="Tracé_38" data-name="Tracé 38" d="M92.126,108.849c-8.818-.436-11.411-1.712-11.411-1.981S78.37,85.29,78.37,85.29a26.732,26.732,0,0,0,4.347,1.618C84.522,92.655,88.1,103.247,92.126,108.849Z" transform="translate(2.844 3.451)" fill="#ed8222"/>
      <path id="Tracé_39" data-name="Tracé 39" d="M85.244,70.982,79.59,58.44h1.722l5.477,12.542Z" transform="translate(2.893 2.33)" fill="#5b1436"/>
      <path id="Tracé_40" data-name="Tracé 40" d="M82.889,109.815a1.784,1.784,0,1,1-.526-1.3,1.784,1.784,0,0,1,.526,1.3Z" transform="translate(2.886 4.3)" fill="#6c5964"/>
      <path id="Tracé_41" data-name="Tracé 41" d="M95.938,110.639a1.919,1.919,0,1,1-1.867-1.919,1.919,1.919,0,0,1,1.867,1.919Z" transform="translate(3.351 4.327)" fill="#6c5964"/>
      <circle id="Ellipse_1" data-name="Ellipse 1" cx="1.919" cy="1.919" r="1.919" transform="translate(108.897 112.061)" fill="#6c5964"/>
      <path id="Tracé_42" data-name="Tracé 42" d="M95.127,85.2l-.934,3.112s-3.32-.477-7.874-1.214-6.733-1.95-6.65-2.749l3.952.56Z" transform="translate(2.89 3.347)" fill="#d64e27"/>
      <path id="Tracé_43" data-name="Tracé 43" d="M104.054,77.107a.747.747,0,1,1-.737-.757.757.757,0,0,1,.737.757Z" transform="translate(3.722 3.027)" fill="#7bc6c9"/>
      <path id="Tracé_44" data-name="Tracé 44" d="M111.665,81.224a1.037,1.037,0,1,1-1.037-.944A1.037,1.037,0,0,1,111.665,81.224Z" transform="translate(3.985 3.183)" fill="#7bc6c9"/>
      <path id="Tracé_45" data-name="Tracé 45" d="M115.209,85.027a.685.685,0,1,1-.685-.737.705.705,0,0,1,.685.737Z" transform="translate(4.144 3.341)" fill="#7bc6c9"/>
      <path id="Tracé_46" data-name="Tracé 46" d="M73.59,72.42l5.353,12.189,4.907.7,1.639-8.973Z" transform="translate(2.672 2.888)" fill="#f7991c"/>
      <path id="Tracé_47" data-name="Tracé 47" d="M83.48,85.168l14.046.415,2.635-9.513-15.042.124Z" transform="translate(3.009 3.028)" fill="#ffc40c"/>
      <path id="Tracé_48" data-name="Tracé 48" d="M85.477,76.515l.228-1L73.35,71.93l.456.986Z" transform="translate(2.663 2.856)" fill="#edd260"/>
      <path id="Tracé_49" data-name="Tracé 49" d="M85.04,76.4l15.063-.29.488-1.193-15.322.488Z" transform="translate(3.068 2.97)" fill="#f5e38f"/>
      <path id="Tracé_50" data-name="Tracé 50" d="M74.968,72.454,86.7,71.334V70.39l-13.351,1.6Z" transform="translate(2.662 2.791)" fill="#f5e38f"/>
      <path id="Tracé_51" data-name="Tracé 51" d="M86.22,71.334l12.843,3.807,1.483-.052L86.22,70.39Z" transform="translate(3.112 2.795)" fill="#edd260"/>
      <path id="Tracé_52" data-name="Tracé 52" d="M67.68,59.339l9.637,18.694,1.483-.249L69.039,58.8Z" transform="translate(2.458 2.354)" fill="#5b1436"/>
      <path id="Tracé_53" data-name="Tracé 53" d="M93.64,88.612a23.777,23.777,0,0,1,2.687-6.764c1.93-3.112,2.448-3.475,3.454-3.216s1.826,2.832,1.826,2.832,1.151-2.573,3.237-1.971,1.815,3.786,1.815,3.786.768-1.535,1.805-1.317.768,2.365.768,2.365a1.587,1.587,0,0,1,2.147-.737c1.369.737.934,2.656.934,2.656s1.919-1.266,1.971.882.6,3.112-7.687,2.957A52.336,52.336,0,0,1,93.64,88.612Z" transform="translate(3.389 3.13)" fill="#cde4e1"/>
      <path id="Tracé_54" data-name="Tracé 54" d="M109.829,86.664a.954.954,0,1,1-.944-.944.944.944,0,0,1,.944.944Z" transform="translate(3.923 3.398)" fill="#7bc6c9"/>
      <path id="Tracé_55" data-name="Tracé 55" d="M103.72,86.365a1.525,1.525,0,1,1-1.525-1.525A1.525,1.525,0,0,1,103.72,86.365Z" transform="translate(3.652 3.365)" fill="#7bc6c9"/>
      <circle id="Ellipse_2" data-name="Ellipse 2" cx="0.861" cy="0.861" r="0.861" transform="translate(102.589 85.032)" fill="#7bc6c9"/>
      <path id="Tracé_56" data-name="Tracé 56" d="M109.328,99.256c-.093.913-.187,1.805-.27,2.666a20.54,20.54,0,0,1-9.731-3.008A24.015,24.015,0,0,1,90.24,88.54c.726.124,1.483.249,2.272.363,1.847,2.8,4.886,6.93,7.739,8.61C102.772,99,106.516,99.287,109.328,99.256Z" transform="translate(3.262 3.573)" fill="#ed8222"/>
      <path id="Tracé_57" data-name="Tracé 57" d="M109.336,99.592a21.1,21.1,0,0,1-8.9-2.075,27.542,27.542,0,0,1-9.409-7.988.322.322,0,0,1,.083-.456.332.332,0,0,1,.456.073c0,.062-18.984-2.593,9.16,7.78,5.623,2.075,11.961,2.708,14.648.259a2.749,2.749,0,0,0,.861-2.407,8.631,8.631,0,0,0-3.465-5.436.332.332,0,1,1,.342-.56,9.336,9.336,0,0,1,3.776,5.944,3.372,3.372,0,0,1-1.037,2.946C114.419,98.949,112.043,99.592,109.336,99.592Z" transform="translate(3.077 3.533)" fill="#5b1436"/>
      <path id="Tracé_58" data-name="Tracé 58" d="M111.19,90.234c-.612.508-4.378.882-12.293.28A65.281,65.281,0,0,1,90.443,89.3a86.506,86.506,0,0,1-10.135-2.749c-2.687-.944-2.313-2.251-1.753-2.811l1.535.778c-.145.747,2.324,1.7,9.5,2.988,1.224.218,2.573.446,4.077.685a92.016,92.016,0,0,0,17.521,1.266S111.844,89.778,111.19,90.234Z" transform="translate(2.81 3.328)" fill="#ffc40c"/>
      <path id="Tracé_59" data-name="Tracé 59" d="M90.443,89.3a86.51,86.51,0,0,1-10.135-2.749c-2.687-.944-2.313-2.251-1.753-2.811l1.535.778c-.145.747,2.324,1.7,9.5,2.988a15.964,15.964,0,0,0,.851,1.795Z" transform="translate(2.837 3.326)" fill="#f7991c"/>
      <path id="Tracé_60" data-name="Tracé 60" d="M51.3,11.043c-.654,1.328-2.925,8.3-3.33,9.191a2.158,2.158,0,0,1-2.728,1.411,6.525,6.525,0,0,1-1.037-.3l-.643-.259a13.756,13.756,0,0,1-1.608-.82l-.3-.187a9.6,9.6,0,0,1-3.2-2.925,2.48,2.48,0,0,1-.166-.332,4.824,4.824,0,0,1,.073-2.925,2.075,2.075,0,0,1-1.172-1.12c-.716-1.463-.591-3.818.27-4.295a.571.571,0,0,1,.187-.062,1.266,1.266,0,0,1,.332,0c1.037.249,1.338,1.587,1.338,1.587a13.839,13.839,0,0,1,1.349-2.811,6.857,6.857,0,0,1,2.261-1.722,8.081,8.081,0,0,1,.737-.353,12.635,12.635,0,0,0,5.291,5,11.411,11.411,0,0,0,2.344.923Z" transform="translate(1.332 0.194)" fill="#f1b5ab"/>
      <path id="Tracé_61" data-name="Tracé 61" d="M39.452,14.485c0,1.764,1.214,4.077,2.178,5.581a9.6,9.6,0,0,1-3.2-2.925,2.48,2.48,0,0,1-.166-.332,4.824,4.824,0,0,1,.073-2.925,2.075,2.075,0,0,1-1.172-1.12,9.876,9.876,0,0,0,.27-4.295.57.57,0,0,1,.187-.062,1.266,1.266,0,0,1,.332,0C39,8.655,39.3,9.993,39.3,9.993a13.839,13.839,0,0,1,1.349-2.811A6.857,6.857,0,0,1,42.907,5.46a16.6,16.6,0,0,0-3.454,9.025Z" transform="translate(1.351 0.206)" fill="#f5948d"/>
      <path id="Tracé_62" data-name="Tracé 62" d="M41.471,9.711c-.145-.207.84-1.11,2.251-.809a2.448,2.448,0,0,1,1.795,1.463,19.71,19.71,0,0,0-2.158-.508A8.081,8.081,0,0,0,41.471,9.711Z" transform="translate(1.508 0.333)" fill="#9d5e55"/>
      <path id="Tracé_63" data-name="Tracé 63" d="M48.11,11.752c-.062-.29.415-.809,1.432-.508a1,1,0,0,1,.612,1.369,1.639,1.639,0,0,0-.882-.56C48.764,11.959,48.141,11.918,48.11,11.752Z" transform="translate(1.75 0.419)" fill="#9d5e55"/>
      <path id="Tracé_64" data-name="Tracé 64" d="M53.757,10.965a.446.446,0,0,1-.114.124,3.008,3.008,0,0,1-2.386.145,11.411,11.411,0,0,1-2.344-.923,12.635,12.635,0,0,1-5.291-5,8.839,8.839,0,0,0-3,2.075A13.839,13.839,0,0,0,39.275,10.2s-.311-1.338-1.338-1.587h0s-.654-2.832.488-4.212a10.187,10.187,0,0,1,5.187-3.382,25.819,25.819,0,0,1,2.7-.8c5.062-1.131,7.158,2.4,7.573,3.745S54.462,9.99,53.757,10.965Z" transform="translate(1.368 0.002)" fill="#592019"/>
      <path id="Tracé_65" data-name="Tracé 65" d="M38.027,9.312a.094.094,0,0,0-.176.062,5.737,5.737,0,0,1,.239,1.1c-.249.1-.913.415-.8.778s.612.363.84.363a4.076,4.076,0,0,1-.124.7.093.093,0,0,0,.062.1h0a.083.083,0,0,0,.083-.062A5.923,5.923,0,0,0,38.027,9.312Zm-.56,1.878c-.052-.156.322-.394.643-.529a4.742,4.742,0,0,1,0,.778c-.187,0-.581-.052-.643-.249Z" transform="translate(1.357 0.348)" fill="#983222"/>
      <path id="Tracé_66" data-name="Tracé 66" d="M46.487,17.311h0a8.133,8.133,0,0,1-2.386-.934.093.093,0,0,1,.093-.156,8.081,8.081,0,0,0,2.241.892c.259-1.432,1.037-4.73,1.037-4.762a.091.091,0,1,1,.176.041s-.83,3.465-1.037,4.845a.093.093,0,0,1,0,.062Z" transform="translate(1.603 0.461)" fill="#983222"/>
      <path id="Tracé_67" data-name="Tracé 67" d="M45.5,18.392a3.755,3.755,0,0,1-2.344-.737.093.093,0,0,1,.114-.135,3.776,3.776,0,0,0,2.593.674.1.1,0,0,1,.1.083.083.083,0,0,1-.083.093Z" transform="translate(1.57 0.657)" fill="#3c1515"/>
      <path id="Tracé_68" data-name="Tracé 68" d="M43.623,12.226c-.373.55-.477,1.12-.228,1.3s.747-.135,1.12-.674.477-1.12.228-1.3S44.028,11.687,43.623,12.226Z" transform="translate(1.574 0.432)" fill="#3c1515"/>
      <path id="Tracé_69" data-name="Tracé 69" d="M48.013,13.5c-.363.529-.477,1.037-.249,1.245s.705-.156,1.037-.685.488-1.037.259-1.234S48.335,13.009,48.013,13.5Z" transform="translate(1.734 0.48)" fill="#3c1515"/>
      <path id="Tracé_70" data-name="Tracé 70" d="M44.991,21.123a6.525,6.525,0,0,1-1.037-.3l-.643-.259c.239-.488.861-1.618,1.525-1.463S45.177,20.428,44.991,21.123Z" transform="translate(1.576 0.716)" fill="#592019"/>
      <path id="Tracé_71" data-name="Tracé 71" d="M53.757,10.928a.446.446,0,0,1-.114.124,3.008,3.008,0,0,1-2.386.145,11.411,11.411,0,0,1-2.344-.923,12.635,12.635,0,0,1-5.291-5,8.839,8.839,0,0,0-3,2.075,13.839,13.839,0,0,0-1.349,2.811s-.311-1.338-1.338-1.587h0s-.654-2.832.488-4.212A10.187,10.187,0,0,1,43.611.98,9.15,9.15,0,0,0,46.132,7.2C48,8.926,50.8,11.167,53.757,10.928Z" transform="translate(1.369 0.039)" fill="#461714"/>
    </g>
  </g>
</svg>
