<svg xmlns="http://www.w3.org/2000/svg" width="368.077" height="593.029" viewBox="0 0 368.077 593.029">
  <g id="Isometric_Cristallisation" data-name="Isometric Cristallisation">
    <path id="Tracé_6909" data-name="Tracé 6909" d="M120.942,550.334l-1.008-3.223c.522-.162,46.434-15.088,68.057-50.215a75.206,75.206,0,0,1-32.84-9.975c-18.347-2.035-33.47-8.336-40.528-18-4.843-6.608-5.149-14.026-.9-21.443A38.206,38.206,0,0,1,133.2,431.54c6.3-14.4,22.38-26.179,49.783-26.449h1.134c37.809,0,53.311,18.275,55.076,34.047,1.945,17.428-11.631,38.422-41.41,45.191a78.751,78.751,0,0,1-4.213,9.47h.144c47.55,1.188,74.863-16.744,81.02-34.857,4.483-13.215-1.8-27.241-17.014-38.44-8.354-6.14-18-11.019-28.123-16.2-23.8-12.081-48.4-24.576-61.539-55.04s-2.737-106.083,30.608-225.381c13.917-49.692.216-81.885,0-82.209l3.1-1.35c.594,1.332,14.4,33.524.09,84.477-41.41,147.637-39.61,202.821-30.824,223.13,12.6,29.347,36.711,41.554,59.973,53.347,10.281,5.221,20,10.173,28.591,16.456,16.564,12.135,23.208,27.547,18.2,42.275-6.536,19.265-35.217,38.3-84.279,37.125h-1.926C169.861,534.472,121.482,550.154,120.942,550.334Zm42.779-62.782a76.862,76.862,0,0,0,26.179,6.1,76.213,76.213,0,0,0,4.015-8.48A134.331,134.331,0,0,1,163.721,487.553Zm-7.508-3.961a126.249,126.249,0,0,0,39.07-2.143c7.2-21.227,1.08-38.044-16.78-46.218-12.315-5.635-29.131-6.158-42.671-1.17a33.524,33.524,0,0,0-2.359,12.225C133.383,459.934,141.179,474.265,156.213,483.592Zm-24.576-47.748a33.866,33.866,0,0,0-14.98,13.323c-3.6,6.266-3.349,12.243.684,17.771,5.131,7,16.474,12.8,31.454,15.574-12.387-9.849-18.779-23.406-18.707-36.261A36.8,36.8,0,0,1,131.637,435.844Zm24.414-8.516a57.992,57.992,0,0,1,23.856,4.915c19.067,8.714,25.963,26.251,19.211,48.4,26.377-6.788,38.458-25.494,36.729-41.032-1.62-14.4-16.2-31.058-51.727-31.058h-1.1c-23.82.234-38.494,9.524-45.209,21.443a63.918,63.918,0,0,1,18.239-2.665Z" transform="translate(88.649 32.277)" fill="#3f6fc0"/>
    <path id="Tracé_6910" data-name="Tracé 6910" d="M126.552,331.066c0-5.041-3.079-10.911-6.86-13.089a4.321,4.321,0,0,0-4.411-.36h0l-3.6,2.017,1.188,2.611v.936a16.564,16.564,0,0,0,6.338,12.6l1.314,2.881,3.6-2.035h0A5.941,5.941,0,0,0,126.552,331.066Z" transform="translate(89.395 253.886)" fill="#213962"/>
    <path id="Tracé_6911" data-name="Tracé 6911" d="M110.29,324.312c0,5.059,3.079,10.929,6.86,13.107s6.86-.126,6.86-5.185-3.079-10.911-6.86-13.107S110.29,319.271,110.29,324.312Z" transform="translate(88.282 254.788)" fill="#345b9e"/>
    <path id="Tracé_6912" data-name="Tracé 6912" d="M110.5,324.733a12.279,12.279,0,0,0,5.131,9.812c2.845,1.638,5.131-.09,5.131-3.871a12.279,12.279,0,0,0-5.131-9.83C112.787,319.205,110.5,320.952,110.5,324.733Z" transform="translate(88.45 256.331)" fill="#3f6fc0"/>
    <path id="Tracé_6913" data-name="Tracé 6913" d="M116.559,324.049a2.035,2.035,0,0,0-.864-1.656c-.162-.09-.324-.2-.468-.108l-8.264,4.771a1.323,1.323,0,0,0,1.332,2.287l7.994-4.609h0a.756.756,0,0,0,.27-.684Z" transform="translate(85.092 257.95)" fill="#fff"/>
    <path id="Tracé_6914" data-name="Tracé 6914" d="M119.208,326.652a2.107,2.107,0,0,0-.882-1.656c-.162,0-.324-.18-.468,0l-8.264,4.753a1.332,1.332,0,0,0,1.332,2.3l7.994-4.627h0A.81.81,0,0,0,119.208,326.652Z" transform="translate(87.232 260.083)" fill="#fff"/>
    <path id="Tracé_6915" data-name="Tracé 6915" d="M0,210.27V263.4c0,28.033,42.743,50.809,95.424,50.809s95.424-22.758,95.424-50.791V210.27Z" transform="translate(0 168.314)" fill="#213962"/>
    <path id="Tracé_6916" data-name="Tracé 6916" d="M95.424,278.371C42.689,278.371,0,255.631,0,227.58v7.958c0,28.033,42.743,50.791,95.424,50.791s95.424-22.758,95.424-50.791v-7.886C190.974,255.631,148.213,278.371,95.424,278.371Z" transform="translate(0 182.17)" fill="#619bf7"/>
    <path id="Tracé_6917" data-name="Tracé 6917" d="M211.2,52.849s-9.884,28.645-23.748,58.209-37.233,40.4-72.576,24.612,37.5-118.47,37.5-118.47Z" transform="translate(84.204 13.771)" fill="#213962"/>
    <path id="Tracé_6918" data-name="Tracé 6918" d="M95.424,183.36C42.689,183.36,0,206.1,0,234.151s42.743,50.791,95.424,50.791,95.424-22.758,95.424-50.791S148.213,183.36,95.424,183.36Z" transform="translate(0 146.774)" fill="#345b9e"/>
    <path id="Tracé_6919" data-name="Tracé 6919" d="M172.318,213.65C162.919,194.3,129.953,180,90.541,180S18.235,194.4,8.819,213.686H6.1v11.325c0,24.828,37.81,45.011,84.5,45.011s84.567-20.273,84.567-45.011V213.741Z" transform="translate(4.883 144.085)" fill="#619bf7"/>
    <path id="Tracé_6920" data-name="Tracé 6920" d="M90.565,173.1c-46.668,0-84.5,20.129-84.5,45.011s37.81,45.011,84.5,45.011,84.513-20.129,84.513-45.011S137.377,173.1,90.565,173.1Z" transform="translate(4.859 138.561)" fill="#7db2ff"/>
    <path id="Tracé_6921" data-name="Tracé 6921" d="M39.431,246.878c-12.153-6.932-17.806-13.089-17.77-19.337,0-7.022,7.2-11.955,13.575-15.484,5.689-3.187,12.6-6.158,19.1-9,10.407-4.537,21.155-9.218,26.755-14.4,10.965-10.263,12.513-14.4,16.2-33.074a36.351,36.351,0,0,1,30.212-29.887l.522,5.041c-.864.09-21.1,2.521-25.764,25.855C98.4,175.995,96.433,181.2,84.514,192.361c-6.23,5.815-16.888,10.479-28.177,15.394-6.482,2.827-13.2,5.761-18.671,8.822C30.3,220.7,26.719,224.319,26.7,227.65c0,2.845,2.611,7.724,15.214,14.926Z" transform="translate(17.338 100.612)" fill="#fff"/>
    <path id="Tracé_6922" data-name="Tracé 6922" d="M82.851,272.522c0-15.088,9.182-32.624,20.507-39.16a18.8,18.8,0,0,1,9-2.5,25.063,25.063,0,0,1,13.125,3.691c6.464,3.979,7.328,13.035,7.328,13.035l-23.082,47.28a17.41,17.41,0,0,1-15.034-.54,23.514,23.514,0,0,1-8.894-9.2,35.284,35.284,0,0,1-1.71-3.925A28.321,28.321,0,0,1,82.851,272.522Z" transform="translate(66.316 184.796)" fill="#213962"/>
    <path id="Tracé_6923" data-name="Tracé 6923" d="M129.028,251.806c0,15.088-9.164,32.624-20.489,39.142s-20.489-.4-20.489-15.484,9.182-32.624,20.489-39.16S129.028,236.7,129.028,251.806Z" transform="translate(70.48 187.184)" fill="#345b9e"/>
    <path id="Tracé_6924" data-name="Tracé 6924" d="M125.529,251.96c0,13.341-8.1,28.807-18,34.587s-18.095-.36-18.095-13.683,8.1-28.807,18.095-34.569S125.529,238.637,125.529,251.96Z" transform="translate(71.585 189.01)" fill="#619bf7"/>
    <path id="Tracé_6925" data-name="Tracé 6925" d="M114.675,251.339c0,6.608-4.015,14.278-9,17.14s-9-.18-9-6.788,4.015-14.26,9-17.122S114.675,244.749,114.675,251.339Z" transform="translate(77.38 194.907)" fill="#fff"/>
    <rect id="Rectangle_700" data-name="Rectangle 700" width="185.411" height="30.698" transform="matrix(0.396, -0.918, 0.918, 0.396, 112.447, 320.18)" fill="#213962"/>
    <path id="Tracé_6926" data-name="Tracé 6926" d="M143.411,203.033l-71.928,41.68L21.88,215.6l71.928-41.68Z" transform="translate(17.514 139.218)" fill="#213962"/>
    <path id="Tracé_6927" data-name="Tracé 6927" d="M29.892,183.73c-6.41,4.411-8.012,16.2-8.012,24.018,8.012,0,34.533-9.47,34.533-9.47l-4.5-10.695Z" transform="translate(17.514 147.07)" fill="#213962"/>
    <path id="Tracé_6928" data-name="Tracé 6928" d="M139.841,192.243l-12.1,17.176-51.8,19.913-49.6-29.113,63.9-37.089Z" transform="translate(21.084 130.581)" fill="#467ad4"/>
    <path id="Tracé_6929" data-name="Tracé 6929" d="M96.376,179.3s2.269,2.107,2.269,8.7v9.4l-18,10.569,4.969-15.592Z" transform="translate(64.549 143.524)" fill="#345b9e"/>
    <path id="Tracé_6930" data-name="Tracé 6930" d="M121.358,179.3s-57.146,33.344-63.9,37.089-8.03,16.2-8.03,24.018l74.2-43.013Z" transform="translate(39.566 143.524)" fill="#345b9e"/>
    <path id="Tracé_6931" data-name="Tracé 6931" d="M42.92,169.39v19.1c0,8.75,13.341,15.844,29.8,15.844s29.761-7.13,29.761-15.844v-19.1Z" transform="translate(34.355 135.592)" fill="#619bf7"/>
    <path id="Tracé_6932" data-name="Tracé 6932" d="M72.717,160.59c-16.456,0-29.8,7.094-29.8,15.844s13.341,15.844,29.8,15.844,29.761-7.094,29.761-15.844S89.156,160.59,72.717,160.59Z" transform="translate(34.355 128.548)" fill="#7db2ff"/>
    <path id="Tracé_6933" data-name="Tracé 6933" d="M91.341,271.2c-16.852,0-33.686-6.752-34.569-7.112a2.539,2.539,0,1,1,1.908-4.7c.252.108,26.017,10.443,44.255,5.4,20.129-5.671,30.212-17.446,27.007-31.49a51.817,51.817,0,0,0-6.59-14.674c-2.791-4.753-5.4-9.236-5.293-14.224.45-16.2,8.57-27.007,13.936-34.065a60.26,60.26,0,0,0,3.6-5.023,36.3,36.3,0,0,0,3.961-28.087,2.539,2.539,0,0,1,4.825-1.566A41.158,41.158,0,0,1,139.9,167.9c-1.008,1.62-2.359,3.421-3.871,5.4-5.275,6.986-12.6,16.546-12.927,31.148-.108,3.6,2.071,7.2,4.609,11.523a56.031,56.031,0,0,1,7.2,16.078c3.907,16.726-7.778,31.094-30.5,37.5A48.469,48.469,0,0,1,91.341,271.2Z" transform="translate(44.089 107.263)" fill="#fff"/>
    <path id="Tracé_6934" data-name="Tracé 6934" d="M201.707,36.222a59.793,59.793,0,0,0-13.917-11.289s-1.188-.81-3.061-1.908h0a95.154,95.154,0,0,0-21.948-9.794s-42.473,73.548-57.272,109.828C94.256,150.6,72.74,216.105,72.74,216.105s-.126,33.416,3.007,44.687h0a11.064,11.064,0,0,0,.288,1.8c2,11.919,10.371,17.176,19.319,12.1a154.461,154.461,0,0,0,13.755-9c21.785-15.664,44.849-66.923,59.649-103.112s44.687-103.2,44.687-103.2S207.558,42.955,201.707,36.222Z" transform="translate(58.225 10.593)" fill="#619bf7"/>
    <path id="Tracé_6935" data-name="Tracé 6935" d="M192.3,31.923a59.991,59.991,0,0,0-13.917-11.307,53.635,53.635,0,0,0-15.592-7.2c-7.868-1.8-22.02,2.017-22.02,2.017L104.757,103.4c-14.8,36.189-34.5,89.555-31.8,120.63.684,7.868,1.494,14.1,2.323,19.013,2,11.937,10.371,17.176,19.319,12.1a154.455,154.455,0,0,0,13.755-9c21.785-15.664,44.849-66.9,59.649-103.094l36.009-87.97S198.147,38.693,192.3,31.923Z" transform="translate(58.202 10.354)" fill="#7db2ff"/>
    <path id="Tracé_6936" data-name="Tracé 6936" d="M205.993,64.276,160.6,38.8,152.79,51.853l46.578,26.773Z" transform="translate(122.301 31.061)" fill="#619bf7"/>
    <path id="Tracé_6937" data-name="Tracé 6937" d="M187.917,57.257a12.315,12.315,0,0,1-5.167,9.866c-2.845,1.638-5.149-.108-5.149-3.907a12.333,12.333,0,0,1,5.149-9.848C185.612,51.712,187.917,53.458,187.917,57.257Z" transform="translate(142.16 42.221)" fill="#7db2ff"/>
    <path id="Tracé_6938" data-name="Tracé 6938" d="M139.729,26.437,94.16.24,87.12,14.356,133.1,40.786Z" transform="translate(69.735 0.195)" fill="#619bf7"/>
    <path id="Tracé_6939" data-name="Tracé 6939" d="M96.627,4.52A12.387,12.387,0,0,1,91.387,14.4C88.543,16.043,86.22,14.3,86.22,10.5A12.405,12.405,0,0,1,91.387.613C94.232-1.025,96.627.722,96.627,4.52Z" transform="translate(69.015 0.002)" fill="#619bf7"/>
    <path id="Tracé_6940" data-name="Tracé 6940" d="M217.638,60.867l.216,1.242L178.461,39.333l-50.413-29.2S111.07,20.7,101.545,32.078A27,27,0,0,0,99.6,34.76l-2.881-.234V44.681h0c.234,6.392,4.249,12.207,8.552,17.068,7.022,7.94,30.284,21.407,43.427,25.206s30.176,6.806,47.442,0a165.642,165.642,0,0,0,32.714-18.329V59.39Z" transform="translate(77.42 8.112)" fill="#213962"/>
    <path id="Tracé_6941" data-name="Tracé 6941" d="M228.884,63.457l-50.413-29.2L128.059,5.05S111.081,15.637,101.556,27,98.3,48.747,105.3,56.687s30.284,21.389,43.427,25.206,30.176,6.824,47.442,0a165.642,165.642,0,0,0,32.714-18.437Z" transform="translate(77.409 4.045)" fill="#3f6fc0"/>
  </g>
</svg>
