<svg id="Delet" xmlns="http://www.w3.org/2000/svg" width="32" height="32" viewBox="0 0 32 32">
  <circle id="Ellipse_182" data-name="Ellipse 182" cx="16" cy="16" r="16" fill="#fff"/>
  <g id="icons8_trash" transform="translate(8 7)">
    <path id="icons8_trash-2" data-name="icons8_trash" d="M13,4a2.966,2.966,0,0,0-2.914,2.55H5.631a.638.638,0,0,0,0,1.275h.9L7.592,18.887A2.316,2.316,0,0,0,9.9,21h6.2a2.317,2.317,0,0,0,2.306-2.113L19.469,7.825h.9a.638.638,0,0,0,0-1.275H15.913A2.966,2.966,0,0,0,13,4Zm0,1.275A1.672,1.672,0,0,1,14.626,6.55H11.374A1.672,1.672,0,0,1,13,5.275ZM11.105,9.95a.635.635,0,0,1,.632.637v6.375a.632.632,0,1,1-1.263,0V10.588A.635.635,0,0,1,11.105,9.95Zm3.789,0a.635.635,0,0,1,.632.637v6.375a.632.632,0,1,1-1.263,0V10.588A.635.635,0,0,1,14.895,9.95Z" transform="translate(-5 -4)" fill="#ff6187"/>
  </g>
</svg>
