<svg xmlns="http://www.w3.org/2000/svg" width="491.188" height="503.59" viewBox="0 0 491.188 503.59">
  <g id="Désinfection_Isometric" data-name="Désinfection Isometric">
    <g id="Product" transform="translate(364.408 34.732)">
      <path id="Tracé_6854" data-name="Tracé 6854" d="M373.122,90.63H249.06V271.911c0,19.675,28.345,35.633,63.317,35.633s63.331-15.958,60.745-35.266Z" transform="translate(-247.395 7.776)" fill="#7cacff"/>
      <path id="Tracé_6855" data-name="Tracé 6855" d="M309.1,137.3c-22.247,0-41.775-6.465-53.075-16.237V251.367c11.3,9.771,30.858,16.163,53.075,16.163a99.713,99.713,0,0,0,36.441-6.524V130.787A100.023,100.023,0,0,1,309.1,137.3Z" transform="translate(-244.123 22.06)" fill="#467ad4"/>
      <path id="Tracé_6856" data-name="Tracé 6856" d="M304.162,142.284a98.95,98.95,0,0,1-37.6-6.994v7.347a98.671,98.671,0,0,0,37.6,6.994,108.5,108.5,0,0,0,19.308-1.7V140.58a108.5,108.5,0,0,1-19.308,1.7Z" transform="translate(-239.18 28.74)" fill="#fff"/>
      <path id="Tracé_6857" data-name="Tracé 6857" d="M304.162,152.744a98.95,98.95,0,0,1-37.6-6.994V153.1a98.67,98.67,0,0,0,37.6,6.994,108.5,108.5,0,0,0,19.308-1.7V151.04a108.5,108.5,0,0,1-19.308,1.7Z" transform="translate(-239.18 33.65)" fill="#fff"/>
      <path id="Tracé_6858" data-name="Tracé 6858" d="M373.284,107.842a62.112,62.112,0,0,0-124.224,0h0v15.238c3.556,17.4,30.24,30.858,62.112,30.858s58.556-13.519,62.112-30.858V107.842Z" transform="translate(-247.395 -13.3)" fill="#d6e6ff"/>
      <path id="Tracé_6859" data-name="Tracé 6859" d="M281,29.15V62.52c0,4.408,6.789,8.082,15.179,8.082s15.179-3.615,15.179-8.082V29.15Z" transform="translate(-232.402 -21.083)" fill="#7cacff"/>
      <path id="Tracé_6860" data-name="Tracé 6860" d="M311.358,31.727c0,4.408-6.789,8.082-15.179,8.082S281,36.194,281,31.727s6.789-8.067,15.179-8.067S311.358,27.275,311.358,31.727Z" transform="translate(-232.402 -23.66)" fill="#d6e6ff"/>
      <path id="Tracé_6861" data-name="Tracé 6861" d="M295.837,41.553c-2-4.291-6.23-6.554-9.448-5.055a4.849,4.849,0,0,0-1.793,1.469L278.88,45.7l5.437,8.816s8.816-2.307,9.316-2.527C296.851,50.545,297.835,45.858,295.837,41.553Z" transform="translate(-233.397 -17.851)" fill="#213962"/>
      <path id="Tracé_6862" data-name="Tracé 6862" d="M285.8,45.391c1.234,2.674.705,5.54-1.19,6.421s-4.408-.558-5.672-3.218-.72-5.54,1.175-6.421S284.552,42.731,285.8,45.391Z" transform="translate(-233.69 -15.092)" fill="#7cacff"/>
      <path id="Tracé_6863" data-name="Tracé 6863" d="M284.131,45.26c.823,1.763.47,3.659-.779,4.247s-2.939-.367-3.762-2.131-.456-3.659.793-4.232S283.338,43.511,284.131,45.26Z" transform="translate(-233.27 -14.593)" fill="#467ad4"/>
      <g id="icons8_virus_free" transform="translate(28.279 204.653)">
        <path id="Tracé_6099" data-name="Tracé 6099" d="M15.305,6.472a1.8,1.8,0,0,0-.211-.068,1.829,1.829,0,0,0-.212-.041,1.9,1.9,0,0,0-.212-.016,2.018,2.018,0,0,0-.21.007c-.229-.007-.473-.024-.723-.05s-.506-.062-.761-.107-.508-.1-.752-.166a6.527,6.527,0,0,1-.7-.226,8.1,8.1,0,0,1-1.188-.582,8.166,8.166,0,0,1-1.056-.749,8.381,8.381,0,0,1-.916-.894A8.649,8.649,0,0,1,7.6,2.562l0,.007a4.534,4.534,0,0,0-.4-.718,4.378,4.378,0,0,0-.524-.629A4.132,4.132,0,0,0,6.036.705a3.9,3.9,0,0,0-.73-.379A3.712,3.712,0,0,0,3.763.072,3.765,3.765,0,0,0,2.3.453a3.974,3.974,0,0,0-1.225.934A4.227,4.227,0,0,0,.249,2.795a4.392,4.392,0,0,0,.1,3.186,4.164,4.164,0,0,0,.873,1.3,3.878,3.878,0,0,0,1.323.873,3.808,3.808,0,0,0,.8.219,3.861,3.861,0,0,0,.808.043,3.982,3.982,0,0,0,.794-.122A4.088,4.088,0,0,0,5.7,8.014,7.94,7.94,0,0,1,6.9,7.79a7.745,7.745,0,0,1,2.467.126,7.883,7.883,0,0,1,1.238.375,6.953,6.953,0,0,1,.717.334c.239.127.475.268.7.418s.452.309.662.472.409.329.59.495l.007-.018q.068.065.141.124t.153.111q.079.052.164.1a1.883,1.883,0,0,0,.954.212,1.906,1.906,0,0,0,.741-.188,2,2,0,0,0,.62-.467,2.111,2.111,0,0,0,.417-.707,2.2,2.2,0,0,0-.054-1.606,2.1,2.1,0,0,0-.443-.654A1.966,1.966,0,0,0,15.305,6.472Z" transform="translate(0.785 14.555)" fill="#213962"/>
        <path id="Tracé_6100" data-name="Tracé 6100" d="M.581,3.3Q.512,3.247.442,3.192T.3,3.085q-.072-.052-.146-.1T0,2.887q.089-.377.2-.746t.242-.729Q.574,1.052.724.7T1.043.01l.176.022.172.024.17.021c.056.006.113.011.169.015l.158.018.157.013L2.2.129l.151,0a1.687,1.687,0,0,1,.21-.008,1.757,1.757,0,0,1,.213.018,1.826,1.826,0,0,1,.213.044,1.893,1.893,0,0,1,.21.07A1.963,1.963,0,0,1,3.87.692a2.077,2.077,0,0,1,.442.652,2.185,2.185,0,0,1,.177.781,2.222,2.222,0,0,1-.125.825,2.12,2.12,0,0,1-.416.71,1.982,1.982,0,0,1-.618.467,1.888,1.888,0,0,1-1.519.056A1.778,1.778,0,0,1,1.631,4.1a1.729,1.729,0,0,1-.163-.1,1.869,1.869,0,0,1-.151-.112c-.049-.04-.1-.083-.142-.128l-.013.028Q1.1,3.73,1.029,3.667T.886,3.543q-.073-.061-.15-.121T.581,3.3Z" transform="translate(13.19 20.854)" opacity="0.05"/>
        <path id="Tracé_6101" data-name="Tracé 6101" d="M.581,3.709Q.517,3.646.448,3.583T.305,3.46Q.232,3.4.156,3.338T0,3.221Q.094,2.8.215,2.383T.48,1.568q.145-.4.313-.792T1.149.008l.158.018.157.013L1.62.046l.151,0a1.687,1.687,0,0,1,.21-.008,1.757,1.757,0,0,1,.213.018A1.826,1.826,0,0,1,2.407.1a1.892,1.892,0,0,1,.21.07,1.964,1.964,0,0,1,.672.437,2.078,2.078,0,0,1,.442.652,2.185,2.185,0,0,1,.177.781,2.222,2.222,0,0,1-.125.825,2.12,2.12,0,0,1-.416.71,1.982,1.982,0,0,1-.618.467A1.888,1.888,0,0,1,1.229,4.1a1.778,1.778,0,0,1-.179-.081,1.727,1.727,0,0,1-.163-.1,1.868,1.868,0,0,1-.151-.112c-.049-.04-.1-.083-.142-.128Z" transform="translate(13.779 20.938)" opacity="0.07"/>
        <path id="Tracé_6103" data-name="Tracé 6103" d="M4.548,5.507a1.006,1.006,0,0,1-.221.027A1.187,1.187,0,0,1,4.1,5.514a1.513,1.513,0,0,1-.223-.058,1.988,1.988,0,0,1-.22-.091l.013.028q-.243-.079-.489-.135T2.693,5.17q-.247-.032-.494-.04t-.5.007q-.084.005-.168.013t-.168.019q-.084.012-.168.027t-.168.036Q.851,4.83.7,4.411T.411,3.561q-.13-.432-.233-.876T0,1.784a.569.569,0,0,0,.069,0l.069-.011.069-.014.069-.012.091-.021L.462,1.7c.031-.009.063-.018.094-.029a.981.981,0,0,0,.091-.037,4.6,4.6,0,0,0,.56-.192,4.937,4.937,0,0,0,.532-.261,5.524,5.524,0,0,0,.5-.324q.246-.177.479-.381L2.735.53A1.9,1.9,0,0,1,2.9.355,1.528,1.528,0,0,1,3.084.21,1.3,1.3,0,0,1,3.284.1,1.209,1.209,0,0,1,3.5.027,1.262,1.262,0,0,1,4.234.1a1.963,1.963,0,0,1,.678.468,3.12,3.12,0,0,1,.549.791,4.074,4.074,0,0,1,.346,1.036,4.126,4.126,0,0,1,.066,1.1,3.223,3.223,0,0,1-.214.952,2.062,2.062,0,0,1-.455.707A1.32,1.32,0,0,1,4.548,5.507Z" transform="translate(12.956 28.052)" opacity="0.05"/>
        <path id="Tracé_6104" data-name="Tracé 6104" d="M3.9,5.507a1.006,1.006,0,0,1-.221.027,1.187,1.187,0,0,1-.223-.019,1.513,1.513,0,0,1-.223-.058,1.987,1.987,0,0,1-.22-.091l.013.028q-.243-.079-.489-.135T2.046,5.17q-.247-.032-.494-.04t-.5.007Q.868,4.728.707,4.3T.414,3.436Q.282,3,.178,2.544T0,1.631a4.6,4.6,0,0,0,.56-.192,4.937,4.937,0,0,0,.532-.261A5.524,5.524,0,0,0,1.6.855q.246-.177.479-.381L2.088.53A1.9,1.9,0,0,1,2.254.355,1.528,1.528,0,0,1,2.437.21,1.3,1.3,0,0,1,2.637.1,1.209,1.209,0,0,1,2.855.027,1.262,1.262,0,0,1,3.587.1a1.963,1.963,0,0,1,.678.468,3.12,3.12,0,0,1,.549.791A4.074,4.074,0,0,1,5.16,2.391a4.126,4.126,0,0,1,.066,1.1,3.223,3.223,0,0,1-.214.952,2.062,2.062,0,0,1-.455.707A1.32,1.32,0,0,1,3.9,5.507Z" transform="translate(13.612 28.052)" opacity="0.07"/>
        <path id="Tracé_6105" data-name="Tracé 6105" d="M18.425,2.926a4.069,4.069,0,0,0-.334-1.041,3.106,3.106,0,0,0-.54-.8,1.96,1.96,0,0,0-.673-.475,1.271,1.271,0,0,0-.732-.077A1.114,1.114,0,0,0,15.928.6a1.241,1.241,0,0,0-.2.108,1.492,1.492,0,0,0-.184.144,1.862,1.862,0,0,0-.167.175L15.366.973a6.21,6.21,0,0,1-.56.43,5.6,5.6,0,0,1-.6.354,5.165,5.165,0,0,1-.632.272,4.923,4.923,0,0,1-.666.184,4.935,4.935,0,0,1-1.172.093,5.3,5.3,0,0,1-1.159-.179A6.194,6.194,0,0,1,9.451,1.7a7.549,7.549,0,0,1-1.084-.655A5.48,5.48,0,0,0,7.44.494,5.291,5.291,0,0,0,6.426.14,5.1,5.1,0,0,0,5.353,0,5.035,5.035,0,0,0,2.327.935,5.4,5.4,0,0,0,.9,2.435,5.742,5.742,0,0,0,.116,4.391,5.877,5.877,0,0,0,.093,6.6,5.749,5.749,0,0,0,.878,8.639a5.446,5.446,0,0,0,1.413,1.516A5.116,5.116,0,0,0,4.136,11a4.938,4.938,0,0,0,2.083.033,5.074,5.074,0,0,0,1.034-.323,5.273,5.273,0,0,0,.932-.523,5.544,5.544,0,0,0,.81-.7,5.767,5.767,0,0,0,.668-.839l.029-.011a8.017,8.017,0,0,1,.79-1.067,6.553,6.553,0,0,1,.918-.863,5.535,5.535,0,0,1,1.037-.633,5.056,5.056,0,0,1,1.147-.376,4.849,4.849,0,0,1,.674-.086,5.009,5.009,0,0,1,.672.007,5.391,5.391,0,0,1,.668.095,5.982,5.982,0,0,1,.661.176l-.007-.032a1.738,1.738,0,0,0,.216.1,1.416,1.416,0,0,0,.221.063,1.2,1.2,0,0,0,.224.023,1.109,1.109,0,0,0,.226-.022,1.305,1.305,0,0,0,.654-.353,2.068,2.068,0,0,0,.46-.7,3.237,3.237,0,0,0,.224-.949A4.133,4.133,0,0,0,18.425,2.926Z" transform="translate(0 27.478)" fill="#71a0ff"/>
        <path id="Tracé_6106" data-name="Tracé 6106" d="M4.506,5.516a1.017,1.017,0,0,1-.221.024,1.19,1.19,0,0,1-.223-.022,1.508,1.508,0,0,1-.222-.061,1.972,1.972,0,0,1-.22-.094l.013.028q-.242-.082-.487-.141t-.491-.094q-.246-.035-.494-.047t-.5,0q-.084,0-.168.011t-.169.017q-.084.011-.169.025T.99,5.2Q.816,4.792.666,4.371T.39,3.517Q.266,3.084.167,2.638T0,1.737a.568.568,0,0,0,.069,0l.069-.01L.208,1.71.277,1.7l.091-.02.094-.023c.031-.008.063-.018.094-.028s.062-.022.092-.036a4.583,4.583,0,0,0,.562-.185,4.929,4.929,0,0,0,.534-.254A5.528,5.528,0,0,0,2.253.836Q2.5.662,2.736.461l.012.056A1.9,1.9,0,0,1,2.916.344,1.527,1.527,0,0,1,3.1.2,1.3,1.3,0,0,1,3.3.093a1.2,1.2,0,0,1,.219-.07A1.262,1.262,0,0,1,4.252.1a1.966,1.966,0,0,1,.672.477,3.128,3.128,0,0,1,.54.8A4.082,4.082,0,0,1,5.8,2.417a4.12,4.12,0,0,1,.055,1.1,3.213,3.213,0,0,1-.224.949,2.053,2.053,0,0,1-.462.7A1.316,1.316,0,0,1,4.506,5.516Z" transform="translate(12.928 27.93)" opacity="0.05"/>
        <path id="Tracé_6107" data-name="Tracé 6107" d="M3.856,5.517a1.017,1.017,0,0,1-.221.024,1.19,1.19,0,0,1-.223-.022,1.508,1.508,0,0,1-.222-.061,1.971,1.971,0,0,1-.22-.094l.013.028Q2.742,5.31,2.5,5.251t-.491-.094q-.246-.035-.494-.047t-.5,0Q.832,4.7.677,4.272T.393,3.4Q.266,2.96.167,2.507T0,1.592a4.583,4.583,0,0,0,.562-.185A4.93,4.93,0,0,0,1.1,1.153,5.528,5.528,0,0,0,1.6.836q.248-.173.483-.375L2.1.517A1.9,1.9,0,0,1,2.268.344,1.527,1.527,0,0,1,2.452.2a1.3,1.3,0,0,1,.2-.108,1.2,1.2,0,0,1,.219-.07A1.262,1.262,0,0,1,3.6.1a1.966,1.966,0,0,1,.672.477,3.128,3.128,0,0,1,.54.8,4.082,4.082,0,0,1,.334,1.04,4.131,4.131,0,0,1,.054,1.1,3.218,3.218,0,0,1-.224.949,2.054,2.054,0,0,1-.463.7A1.316,1.316,0,0,1,3.856,5.517Z" transform="translate(13.586 27.929)" opacity="0.07"/>
        <path id="Tracé_6108" data-name="Tracé 6108" d="M9.129,10.61l.019.013a8.043,8.043,0,0,1-.135-1.251,7.067,7.067,0,0,1,.07-1.222,6.334,6.334,0,0,1,.285-1.169,5.948,5.948,0,0,1,.51-1.093,5.308,5.308,0,0,1,.39-.563,6.651,6.651,0,0,1,.468-.531c.166-.17.34-.331.518-.48a6.6,6.6,0,0,1,.539-.408,1.572,1.572,0,0,0,.17-.1,1.421,1.421,0,0,0,.154-.121,1.325,1.325,0,0,0,.251-.307,1.5,1.5,0,0,0,.207-.709,2.013,2.013,0,0,0-.127-.776,2.662,2.662,0,0,0-.428-.75,3.065,3.065,0,0,0-.694-.632,2.925,2.925,0,0,0-.84-.387A2.359,2.359,0,0,0,9.662.042a1.741,1.741,0,0,0-.716.214,1.4,1.4,0,0,0-.515.5,1.352,1.352,0,0,0-.1.2,1.453,1.453,0,0,0-.064.216,1.632,1.632,0,0,0-.032.225,1.879,1.879,0,0,0,0,.232L8.213,1.62q-.036.34-.1.672a6.439,6.439,0,0,1-.17.653,6.032,6.032,0,0,1-.239.631,5.789,5.789,0,0,1-.312.6,5.718,5.718,0,0,1-.7.942,5.782,5.782,0,0,1-.857.764,6.214,6.214,0,0,1-.99.587,6.926,6.926,0,0,1-1.1.411,4.631,4.631,0,0,0-.886.3,4.747,4.747,0,0,0-.821.481,4.852,4.852,0,0,0-.726.651A5.015,5.015,0,0,0,.059,10.939a5.167,5.167,0,0,0,.058,1.87,5.078,5.078,0,0,0,.716,1.716,4.79,4.79,0,0,0,1.329,1.347,4.5,4.5,0,0,0,1.716.7,4.385,4.385,0,0,0,1.773-.044,4.469,4.469,0,0,0,1.623-.744,4.711,4.711,0,0,0,1.268-1.4,4.9,4.9,0,0,0,.418-.895,5.154,5.154,0,0,0,.233-.949,5.4,5.4,0,0,0,.054-.972A5.512,5.512,0,0,0,9.129,10.61Z" transform="translate(10.068 36.164)" fill="#4a8cff"/>
        <path id="Tracé_6109" data-name="Tracé 6109" d="M4.42,3.346a1.355,1.355,0,0,1-.116.168,1.3,1.3,0,0,1-.135.144,1.338,1.338,0,0,1-.153.12,1.478,1.478,0,0,1-.17.1l-.088.065-.088.065-.089.065-.089.065-.144.119c-.047.04-.094.08-.141.121s-.092.083-.138.126-.091.088-.136.134q-.4-.171-.78-.367T1.4,3.852Q1.036,3.63.685,3.384T0,2.866q.028-.09.053-.179T.1,2.506q.023-.091.043-.183t.038-.187Q.195,2.067.206,2t.021-.137q.01-.068.018-.137t.016-.137L.288,1.6a1.76,1.76,0,0,1,0-.23,1.6,1.6,0,0,1,.031-.225A1.425,1.425,0,0,1,.382.931a1.276,1.276,0,0,1,.1-.2,1.388,1.388,0,0,1,.515-.5A1.732,1.732,0,0,1,1.712.013,2.384,2.384,0,0,1,2.538.1a2.988,2.988,0,0,1,.843.387,3.023,3.023,0,0,1,.691.629,2.666,2.666,0,0,1,.427.75,2.019,2.019,0,0,1,.127.776A1.484,1.484,0,0,1,4.42,3.346Z" transform="translate(18.132 35.869)" opacity="0.05"/>
        <path id="Tracé_6110" data-name="Tracé 6110" d="M4.238,3.345a1.356,1.356,0,0,1-.116.168,1.3,1.3,0,0,1-.135.144,1.338,1.338,0,0,1-.153.12,1.477,1.477,0,0,1-.17.1l-.088.065-.088.065L3.4,4.071l-.089.065q-.453-.185-.888-.4t-.851-.47Q1.157,3.012.764,2.73T0,2.135Q.014,2.067.025,2t.021-.137q.01-.068.018-.137T.08,1.588L.106,1.6a1.76,1.76,0,0,1,0-.23,1.6,1.6,0,0,1,.031-.225A1.425,1.425,0,0,1,.2.931,1.276,1.276,0,0,1,.3.73a1.388,1.388,0,0,1,.515-.5A1.732,1.732,0,0,1,1.53.013,2.384,2.384,0,0,1,2.357.1,2.988,2.988,0,0,1,3.2.484a3.023,3.023,0,0,1,.691.629,2.666,2.666,0,0,1,.427.75,2.019,2.019,0,0,1,.127.776A1.484,1.484,0,0,1,4.238,3.345Z" transform="translate(18.315 35.863)" opacity="0.07"/>
        <path id="Tracé_6111" data-name="Tracé 6111" d="M10.544,15.047a1.429,1.429,0,0,0-.163-.339,1.458,1.458,0,0,0-.112-.149,1.529,1.529,0,0,0-.131-.135l.037-.016c-.159-.165-.316-.342-.467-.531s-.3-.387-.431-.592a6.338,6.338,0,0,1-.366-.636,4.948,4.948,0,0,1-.275-.663,5.946,5.946,0,0,1-.255-1.179,6.264,6.264,0,0,1-.018-1.2,6.943,6.943,0,0,1,.2-1.2,7.882,7.882,0,0,1,.41-1.177,5.266,5.266,0,0,0,.512-1.882,5.151,5.151,0,0,0-.018-1,5.058,5.058,0,0,0-.217-.993A4.863,4.863,0,0,0,8.31,1.687,4.714,4.714,0,0,0,6.863.559,4.6,4.6,0,0,0,3.236.337,4.758,4.758,0,0,0,1.6,1.323,4.954,4.954,0,0,0,.5,2.821a5.055,5.055,0,0,0-.484,1.81,5.008,5.008,0,0,0,.63,2.829A4.915,4.915,0,0,0,2.66,9.409a7.3,7.3,0,0,1,1.021.686,6.912,6.912,0,0,1,.883.846,6.336,6.336,0,0,1,.709.987,5.778,5.778,0,0,1,.5,1.109,4.575,4.575,0,0,1,.155.648c.039.231.066.475.083.722s.023.5.021.738-.014.479-.032.7a1.714,1.714,0,0,0-.03.2,1.544,1.544,0,0,0-.006.2,1.425,1.425,0,0,0,.02.2,1.364,1.364,0,0,0,.048.193,1.448,1.448,0,0,0,.4.616,1.839,1.839,0,0,0,.664.386,2.464,2.464,0,0,0,.839.124,2.985,2.985,0,0,0,.924-.17,3.052,3.052,0,0,0,.835-.444,2.6,2.6,0,0,0,.6-.625,1.959,1.959,0,0,0,.3-.724A1.493,1.493,0,0,0,10.544,15.047Z" transform="translate(14.133)" fill="#4a8cff"/>
        <path id="Tracé_6112" data-name="Tracé 6112" d="M4.587,1.868a1.508,1.508,0,0,1,.041.743,1.989,1.989,0,0,1-.3.728,2.614,2.614,0,0,1-.6.629,3.029,3.029,0,0,1-.835.446,3.055,3.055,0,0,1-.923.164,2.489,2.489,0,0,1-.837-.124,1.839,1.839,0,0,1-.663-.383,1.456,1.456,0,0,1-.4-.614,1.467,1.467,0,0,1-.048-.2,1.486,1.486,0,0,1-.02-.2,1.563,1.563,0,0,1,.006-.2,1.686,1.686,0,0,1,.029-.192c0-.052.007-.106.011-.161S.055,2.4.058,2.345s.007-.113.01-.169,0-.113,0-.169,0-.125,0-.188,0-.124,0-.186S.066,1.509.062,1.447.055,1.322.051,1.259Q.427,1.05.815.866T1.6.525Q2,.368,2.416.239T3.251.008c.035.052.07.1.106.156l.108.154L3.573.47l.105.148q.067.083.134.164t.134.157q.067.077.134.149t.134.14l-.041.028a1.417,1.417,0,0,1,.246.279,1.458,1.458,0,0,1,.093.16A1.522,1.522,0,0,1,4.587,1.868Z" transform="translate(20.169 13.485)" opacity="0.05"/>
        <path id="Tracé_6113" data-name="Tracé 6113" d="M4.587,1.255A1.508,1.508,0,0,1,4.627,2a1.989,1.989,0,0,1-.3.728,2.614,2.614,0,0,1-.6.629,3.029,3.029,0,0,1-.835.446,3.055,3.055,0,0,1-.923.164,2.489,2.489,0,0,1-.837-.124,1.839,1.839,0,0,1-.663-.383,1.456,1.456,0,0,1-.4-.614,1.468,1.468,0,0,1-.048-.2,1.487,1.487,0,0,1-.02-.2,1.563,1.563,0,0,1,.006-.2A1.685,1.685,0,0,1,.036,2.06c0-.052.007-.106.011-.161s.008-.111.012-.167.007-.113.01-.169,0-.113,0-.169Q.487,1.157.921.951T1.806.57Q2.257.4,2.725.254T3.678.005q.067.083.134.164t.134.157q.067.077.134.149t.134.14L4.174.643A1.417,1.417,0,0,1,4.42.923a1.458,1.458,0,0,1,.093.16A1.522,1.522,0,0,1,4.587,1.255Z" transform="translate(20.169 14.107)" opacity="0.07"/>
        <path id="Tracé_6114" data-name="Tracé 6114" d="M8.51,13.089a4.739,4.739,0,0,0-.273-.855,4.534,4.534,0,0,0-.415-.76,4.331,4.331,0,0,0-.538-.649,4.115,4.115,0,0,0-.643-.521,8.814,8.814,0,0,1-.857-.952,8.9,8.9,0,0,1-.723-1.087,9.007,9.007,0,0,1-.568-1.211A9.21,9.21,0,0,1,4.1,5.73q-.085-.39-.134-.778T3.9,4.179q-.017-.385,0-.764t.058-.752l-.023,0a2.4,2.4,0,0,0,.049-.244A2.241,2.241,0,0,0,4,2.171,2.133,2.133,0,0,0,4,1.915a2.093,2.093,0,0,0-.039-.259A2.168,2.168,0,0,0,3.629.891,2.069,2.069,0,0,0,3.068.335,1.96,1.96,0,0,0,2.35.041a1.9,1.9,0,0,0-.8.018A1.941,1.941,0,0,0,.83.4,2.055,2.055,0,0,0,.306.988,2.167,2.167,0,0,0,.03,1.74a2.213,2.213,0,0,0,.021.837,2.074,2.074,0,0,0,.068.239,2.1,2.1,0,0,0,.093.223,2.18,2.18,0,0,0,.115.208,2.294,2.294,0,0,0,.134.192c.12.21.24.437.354.675s.224.486.325.738.194.508.274.762.149.5.2.745a9.3,9.3,0,0,1,.194,1.383A9.2,9.2,0,0,1,1.8,9.1a9.158,9.158,0,0,1-.206,1.313A9.094,9.094,0,0,1,1.2,11.658l.025-.005a4.447,4.447,0,0,0-.647,2.382,4.4,4.4,0,0,0,.1.862,4.349,4.349,0,0,0,.655,1.53,4.168,4.168,0,0,0,1.121,1.115,3.952,3.952,0,0,0,1.434.6,3.817,3.817,0,0,0,1.594-.025,3.88,3.88,0,0,0,1.456-.674A4.092,4.092,0,0,0,8,16.27a4.307,4.307,0,0,0,.555-1.5A4.405,4.405,0,0,0,8.51,13.089Z" transform="translate(25.682 37.247)" fill="#213962"/>
        <path id="Tracé_6115" data-name="Tracé 6115" d="M3.927,2.666l.027-.014q-.013.106-.023.214t-.018.217q-.008.109-.013.22t-.008.221q0,.09,0,.179t0,.181q0,.091.007.183t.012.187q-.344.091-.694.162t-.705.121q-.356.051-.718.082t-.732.044q-.037-.089-.076-.177T.905,4.31Q.864,4.223.822,4.137T.739,3.968Q.707,3.9.673,3.833T.6,3.7Q.569,3.632.533,3.567T.46,3.44a2.245,2.245,0,0,1-.134-.195,2.181,2.181,0,0,1-.3-1.509A2.151,2.151,0,0,1,.306.984,2.043,2.043,0,0,1,.832.4,1.929,1.929,0,0,1,1.555.062,1.889,1.889,0,0,1,2.349.039a1.936,1.936,0,0,1,.716.291,2.06,2.06,0,0,1,.562.555,2.2,2.2,0,0,1,.331.769A2.138,2.138,0,0,1,4,1.913,2.118,2.118,0,0,1,4,2.169a2.192,2.192,0,0,1-.024.251A2.353,2.353,0,0,1,3.927,2.666Z" transform="translate(25.63 36.945)" opacity="0.05"/>
        <path id="Tracé_6116" data-name="Tracé 6116" d="M3.929,2.666l.027-.014q-.013.106-.023.214t-.018.217q-.008.109-.013.22T3.9,3.524q-.354.1-.715.18t-.731.133q-.37.055-.747.086t-.763.039l-.2,0Q.707,3.9.673,3.833T.6,3.7Q.569,3.632.533,3.567T.46,3.44a2.245,2.245,0,0,1-.134-.195,2.181,2.181,0,0,1-.3-1.509A2.151,2.151,0,0,1,.306.984,2.043,2.043,0,0,1,.832.4,1.929,1.929,0,0,1,1.555.062,1.889,1.889,0,0,1,2.349.039a1.936,1.936,0,0,1,.716.29,2.06,2.06,0,0,1,.562.555,2.2,2.2,0,0,1,.331.769A2.1,2.1,0,0,1,4,2.169a2.178,2.178,0,0,1-.024.251A2.347,2.347,0,0,1,3.929,2.666Z" transform="translate(25.629 36.936)" opacity="0.07"/>
        <path id="Tracé_6117" data-name="Tracé 6117" d="M11.965,7.76a5.859,5.859,0,0,0-.036-4.317,5.593,5.593,0,0,0-1.156-1.781A5.273,5.273,0,0,0,8.989.449a5.116,5.116,0,0,0-2.1-.388,5.2,5.2,0,0,0-2.013.47,5.441,5.441,0,0,0-1.7,1.224,5.7,5.7,0,0,0-1.17,1.874,5.857,5.857,0,0,0-.263,3.308A5.813,5.813,0,0,0,2.063,7.97L2.056,8A8.372,8.372,0,0,1,2.484,9.29a7.166,7.166,0,0,1,.193,1.294,6.292,6.292,0,0,1-.058,1.276,5.86,5.86,0,0,1-.325,1.235,5.576,5.576,0,0,1-.3.652,5.7,5.7,0,0,1-.373.6,6.031,6.031,0,0,1-.441.548,6.543,6.543,0,0,1-.5.5l.029.012a1.8,1.8,0,0,0-.2.141,1.527,1.527,0,0,0-.171.164A1.345,1.345,0,0,0,.2,15.9a1.266,1.266,0,0,0-.105.213,1.485,1.485,0,0,0-.073.777,2.127,2.127,0,0,0,.313.791,3.039,3.039,0,0,0,.641.714,3.693,3.693,0,0,0,.912.547,3.6,3.6,0,0,0,1.02.266,2.832,2.832,0,0,0,.936-.051,1.946,1.946,0,0,0,.751-.345,1.419,1.419,0,0,0,.463-.615,1.289,1.289,0,0,0,.065-.231,1.411,1.411,0,0,0,.023-.238,1.63,1.63,0,0,0-.015-.243,1.933,1.933,0,0,0-.05-.245l.054.022a6.933,6.933,0,0,1-.039-.736,6.352,6.352,0,0,1,.042-.728,5.932,5.932,0,0,1,.127-.716,5.694,5.694,0,0,1,.795-1.816,5.958,5.958,0,0,1,.795-.957,6.666,6.666,0,0,1,.986-.794,7.754,7.754,0,0,1,1.151-.626,5.429,5.429,0,0,0,.935-.517,5.491,5.491,0,0,0,.828-.7,5.571,5.571,0,0,0,.691-.874A5.755,5.755,0,0,0,11.965,7.76Z" transform="translate(27.423 0.304)" fill="#71a0ff"/>
        <path id="Tracé_6118" data-name="Tracé 6118" d="M1.888,6.032a3.673,3.673,0,0,1-.915-.546,3.016,3.016,0,0,1-.64-.715,2.134,2.134,0,0,1-.311-.794,1.514,1.514,0,0,1,.072-.782,1.231,1.231,0,0,1,.1-.211A1.351,1.351,0,0,1,.337,2.8,1.582,1.582,0,0,1,.508,2.63a1.911,1.911,0,0,1,.2-.143L.677,2.475q.216-.191.415-.4t.377-.436A5.432,5.432,0,0,0,1.8,1.166,4.976,4.976,0,0,0,2.077.659C2.1.62,2.12.58,2.139.541s.038-.078.055-.118.034-.078.05-.117L2.292.189C2.3.175,2.3.16,2.309.146L2.323.1,2.338.061c.005-.014.011-.028.017-.042q.424.107.835.246T4,.57q.4.167.782.362t.757.415a.329.329,0,0,1-.011.032l-.014.032L5.5,1.444c0,.011-.009.021-.012.032L5.44,1.6q-.023.064-.046.13t-.043.133Q5.33,1.934,5.312,2q-.078.282-.129.571t-.073.584q-.023.295-.018.6t.038.605l-.055-.027a1.911,1.911,0,0,1,.051.243,1.679,1.679,0,0,1,.017.244,1.455,1.455,0,0,1-.021.24,1.281,1.281,0,0,1-.062.231A1.411,1.411,0,0,1,4.6,5.9a1.961,1.961,0,0,1-.752.344,2.843,2.843,0,0,1-.937.052A3.568,3.568,0,0,1,1.888,6.032Z" transform="translate(27.331 13.538)" opacity="0.05"/>
        <path id="Tracé_6119" data-name="Tracé 6119" d="M1.888,5.391a3.673,3.673,0,0,1-.915-.546,3.016,3.016,0,0,1-.64-.715,2.134,2.134,0,0,1-.311-.794,1.515,1.515,0,0,1,.072-.782,1.231,1.231,0,0,1,.1-.211,1.351,1.351,0,0,1,.14-.188,1.582,1.582,0,0,1,.171-.165,1.911,1.911,0,0,1,.2-.143L.677,1.834q.216-.191.415-.4T1.469,1A5.432,5.432,0,0,0,1.8.525,4.975,4.975,0,0,0,2.077.018q.429.112.847.254t.823.31q.4.169.8.364t.769.415q-.078.282-.129.571t-.073.584q-.023.295-.018.6t.038.605l-.055-.027a1.911,1.911,0,0,1,.051.243,1.679,1.679,0,0,1,.017.244,1.455,1.455,0,0,1-.021.24,1.281,1.281,0,0,1-.062.231,1.413,1.413,0,0,1-.464.612,1.96,1.96,0,0,1-.752.345,2.841,2.841,0,0,1-.937.052A3.567,3.567,0,0,1,1.888,5.391Z" transform="translate(27.329 14.188)" opacity="0.07"/>
        <path id="Tracé_6120" data-name="Tracé 6120" d="M14.728,6.534a5.534,5.534,0,0,0-.9-.681A5.347,5.347,0,0,0,11.8,5.133a5.314,5.314,0,0,0-1.055-.042l-.019-.013a7.494,7.494,0,0,1-1.316-.012,6.351,6.351,0,0,1-1.238-.247A5.627,5.627,0,0,1,7.039,4.33a5.409,5.409,0,0,1-1.005-.739,5.389,5.389,0,0,1-.494-.525,5.656,5.656,0,0,1-.42-.583,6.132,6.132,0,0,1-.348-.634A6.8,6.8,0,0,1,4.5,1.17l-.039.045A1.958,1.958,0,0,0,4.4.972a1.612,1.612,0,0,0-.09-.225,1.376,1.376,0,0,0-.122-.2A1.255,1.255,0,0,0,4.027.366,1.332,1.332,0,0,0,3.351.033a1.9,1.9,0,0,0-.82.044A2.9,2.9,0,0,0,1.67.471a3.805,3.805,0,0,0-.8.718,3.943,3.943,0,0,0-.583.918,3.225,3.225,0,0,0-.269.942,2.185,2.185,0,0,0,.057.857,1.439,1.439,0,0,0,.4.664,1.2,1.2,0,0,0,.185.142,1.268,1.268,0,0,0,.206.1,1.445,1.445,0,0,0,.223.067,1.721,1.721,0,0,0,.237.034L1.3,4.941a6.142,6.142,0,0,1,.662.211,5.666,5.666,0,0,1,.629.285,5.375,5.375,0,0,1,.59.363,5.286,5.286,0,0,1,.546.444,5.58,5.58,0,0,1,.817.957,6.132,6.132,0,0,1,.6,1.119,7.17,7.17,0,0,1,.38,1.254,8.587,8.587,0,0,1,.168,1.36A5.982,5.982,0,0,0,6.8,14.079a5.877,5.877,0,0,0,.764.869,5.382,5.382,0,0,0,1.853,1.139,5.208,5.208,0,0,0,4.063-.225,5.374,5.374,0,0,0,1.718-1.341,5.652,5.652,0,0,0,1.081-1.937,5.9,5.9,0,0,0-.248-4.253A5.659,5.659,0,0,0,14.728,6.534Z" transform="translate(31.333 32.942)" fill="#71a0ff"/>
        <path id="Tracé_6121" data-name="Tracé 6121" d="M5.537,3.059l.111.127c.037.042.075.084.114.126s.078.083.119.123.083.08.127.119q-.267.358-.555.7t-.594.659q-.306.32-.631.619t-.667.578q-.065-.064-.133-.122t-.137-.111q-.069-.053-.14-.1t-.141-.09q-.2-.133-.4-.245t-.42-.205q-.214-.093-.435-.168T1.307,4.93l.013-.014a1.869,1.869,0,0,1-.236-.036,1.443,1.443,0,0,1-.222-.068,1.2,1.2,0,0,1-.2-.1,1.113,1.113,0,0,1-.183-.147,1.437,1.437,0,0,1-.4-.661,2.161,2.161,0,0,1-.06-.853,3.2,3.2,0,0,1,.267-.939,3.961,3.961,0,0,1,.581-.919A3.844,3.844,0,0,1,1.67.469,2.91,2.91,0,0,1,2.532.076a1.905,1.905,0,0,1,.82-.043,1.346,1.346,0,0,1,.679.333,1.2,1.2,0,0,1,.154.174,1.379,1.379,0,0,1,.121.2A1.689,1.689,0,0,1,4.4.966a2.133,2.133,0,0,1,.063.245l.027-.042q.1.264.207.515t.241.488q.13.237.279.459T5.537,3.059Z" transform="translate(30.977 32.571)" opacity="0.05"/>
        <path id="Tracé_6122" data-name="Tracé 6122" d="M4.488,1.169q.1.264.207.515t.241.488q.13.237.279.459t.321.429q-.272.369-.569.719t-.614.679q-.317.329-.654.636t-.689.59q-.2-.133-.4-.245t-.42-.205q-.214-.093-.435-.168T1.307,4.93l.013-.014a1.869,1.869,0,0,1-.236-.036,1.443,1.443,0,0,1-.222-.068,1.2,1.2,0,0,1-.2-.1,1.113,1.113,0,0,1-.183-.147,1.437,1.437,0,0,1-.4-.661,2.161,2.161,0,0,1-.06-.853,3.2,3.2,0,0,1,.267-.939,3.961,3.961,0,0,1,.581-.919A3.844,3.844,0,0,1,1.67.469,2.91,2.91,0,0,1,2.532.076a1.905,1.905,0,0,1,.82-.043,1.346,1.346,0,0,1,.679.333,1.2,1.2,0,0,1,.154.174,1.379,1.379,0,0,1,.121.2A1.689,1.689,0,0,1,4.4.966a2.133,2.133,0,0,1,.063.245Z" transform="translate(30.971 32.565)" opacity="0.07"/>
        <path id="Tracé_6123" data-name="Tracé 6123" d="M15.325,2A4.126,4.126,0,0,0,14.212.784,3.968,3.968,0,0,0,12.786.132,3.907,3.907,0,0,0,11.228.086a3.975,3.975,0,0,0-1.51.6,4.1,4.1,0,0,0-.667.549,4.169,4.169,0,0,0-.528.659,4.321,4.321,0,0,0-.384.744,4.46,4.46,0,0,0-.236.8A9.126,9.126,0,0,1,7.328,4.6a8.878,8.878,0,0,1-.74,1.069,8.654,8.654,0,0,1-.9.958,8.551,8.551,0,0,1-1.06.824,7.132,7.132,0,0,1-.706.4c-.248.125-.505.24-.765.344s-.521.2-.776.279-.5.152-.739.21q-.09.018-.178.044t-.175.061q-.087.035-.171.079a1.862,1.862,0,0,0-.165.1,2.071,2.071,0,0,0-.583.579,2.176,2.176,0,0,0-.315.741,2.211,2.211,0,0,0-.027.809,2.155,2.155,0,0,0,.282.784,2.062,2.062,0,0,0,.551.607,1.974,1.974,0,0,0,.707.328,1.935,1.935,0,0,0,.773.026,2,2,0,0,0,.924-.424,2.015,2.015,0,0,0,.156-.143,2.1,2.1,0,0,0,.14-.157q.066-.082.123-.169a10.631,10.631,0,0,1,.987-1.111A9.313,9.313,0,0,1,5.788,9.9a8.339,8.339,0,0,1,1.249-.732,7.831,7.831,0,0,1,1.373-.5q.362-.095.731-.155t.742-.087q.373-.026.747-.016t.746.056a4.192,4.192,0,0,0,.7.029,3.854,3.854,0,0,0,.679-.089,3.787,3.787,0,0,0,.655-.211,4,4,0,0,0,.626-.336A4.16,4.16,0,0,0,15.206,6.7a4.37,4.37,0,0,0,.635-1.491,4.436,4.436,0,0,0,.054-1.628A4.323,4.323,0,0,0,15.325,2Z" transform="translate(34.211 10.168)" fill="#213962"/>
        <path id="Tracé_6124" data-name="Tracé 6124" d="M.31,3.671a2.147,2.147,0,0,1-.285-.786A2.2,2.2,0,0,1,.372,1.333,2.119,2.119,0,0,1,.957.75a1.8,1.8,0,0,1,.163-.1A1.77,1.77,0,0,1,1.288.575,1.807,1.807,0,0,1,1.461.516Q1.549.491,1.64.474L1.626.446,1.808.4,1.992.355,2.181.306l.2-.053L2.549.2,2.72.14C2.777.12,2.834.1,2.891.077S3,.031,3.061.006q.23.3.444.623t.412.653q.2.333.377.68t.339.7l-.13.128c-.043.043-.086.086-.127.13s-.083.088-.122.132-.078.09-.115.136-.085.093-.125.139-.079.092-.117.137L3.787,3.6l-.1.131q-.06.091-.128.173a2.072,2.072,0,0,1-.3.3,2.128,2.128,0,0,1-.173.126A1.938,1.938,0,0,1,1.565,4.6a1.982,1.982,0,0,1-.707-.325A2.03,2.03,0,0,1,.31,3.671Z" transform="translate(33.89 18.5)" opacity="0.05"/>
        <path id="Tracé_6125" data-name="Tracé 6125" d="M.31,3.424a2.147,2.147,0,0,1-.285-.786A2.2,2.2,0,0,1,.372,1.086,2.119,2.119,0,0,1,.957.5a1.8,1.8,0,0,1,.163-.1A1.769,1.769,0,0,1,1.288.328,1.808,1.808,0,0,1,1.462.269Q1.549.244,1.64.227L1.626.2,1.808.154,1.992.108,2.181.059l.2-.053q.265.329.507.68t.463.719q.22.369.418.754t.372.785q-.065.069-.125.139T3.9,3.22l-.109.135-.1.131q-.06.091-.128.173a2.072,2.072,0,0,1-.3.3,2.129,2.129,0,0,1-.173.126,1.938,1.938,0,0,1-1.519.267,1.982,1.982,0,0,1-.707-.325A2.03,2.03,0,0,1,.31,3.424Z" transform="translate(33.883 18.75)" opacity="0.07"/>
        <path id="Tracé_6126" data-name="Tracé 6126" d="M17.535,5.268a5.129,5.129,0,0,0-.261-1.952,5.014,5.014,0,0,0-.928-1.639A4.793,4.793,0,0,0,14.9.521a4.591,4.591,0,0,0-1.826-.5A4.486,4.486,0,0,0,11.1.339,4.7,4.7,0,0,0,10.232.8a4.929,4.929,0,0,0-.755.63,7.413,7.413,0,0,1-.966.677A6.349,6.349,0,0,1,7.478,2.6a5.624,5.624,0,0,1-1.087.279,5.324,5.324,0,0,1-1.13.049,4.432,4.432,0,0,1-.7-.106,6.385,6.385,0,0,1-.722-.213c-.239-.085-.473-.183-.7-.289S2.7,2.1,2.507,1.983v.032c-.046-.027-.092-.051-.14-.073a1.414,1.414,0,0,0-.145-.058,1.225,1.225,0,0,0-.15-.041,1.126,1.126,0,0,0-.156-.02,1.341,1.341,0,0,0-.7.15,1.862,1.862,0,0,0-.592.492A2.663,2.663,0,0,0,.2,3.223a3.29,3.29,0,0,0-.194.948,3.325,3.325,0,0,0,.083.966,2.7,2.7,0,0,0,.333.807,1.892,1.892,0,0,0,.53.564,1.351,1.351,0,0,0,.676.238,1.2,1.2,0,0,0,.22-.007,1.29,1.29,0,0,0,.214-.045,1.475,1.475,0,0,0,.206-.079,1.748,1.748,0,0,0,.2-.11v.028a6.218,6.218,0,0,1,.619-.227A5.72,5.72,0,0,1,3.72,6.15a5.39,5.39,0,0,1,.652-.081,5.242,5.242,0,0,1,.665,0,5.445,5.445,0,0,1,1.162.2,5.757,5.757,0,0,1,1.089.442,6.48,6.48,0,0,1,1,.658,7.523,7.523,0,0,1,.9.853V8.206a4.9,4.9,0,0,0,.667.663,4.732,4.732,0,0,0,.783.521,4.575,4.575,0,0,0,3.714.254,4.728,4.728,0,0,0,1.574-.963,4.944,4.944,0,0,0,1.113-1.508A5.1,5.1,0,0,0,17.535,5.268Z" transform="translate(36.09 23.12)" fill="#4a8cff"/>
        <path id="Tracé_6127" data-name="Tracé 6127" d="M4.071,2.43q0,.238-.008.473t-.023.468Q4.026,3.6,4,3.834t-.053.458c-.057.007-.115.016-.174.026s-.118.022-.177.035-.118.028-.177.043-.117.032-.174.05-.129.031-.194.05-.131.04-.2.063-.131.047-.2.073-.13.053-.194.081V4.685a1.552,1.552,0,0,1-.2.111,1.4,1.4,0,0,1-.206.078,1.32,1.32,0,0,1-.433.051,1.332,1.332,0,0,1-.673-.235,1.892,1.892,0,0,1-.53-.564,2.741,2.741,0,0,1-.336-.809A3.393,3.393,0,0,1,0,2.346,3.278,3.278,0,0,1,.2,1.4,2.671,2.671,0,0,1,.626.643,1.86,1.86,0,0,1,1.219.152a1.321,1.321,0,0,1,.7-.146,1.223,1.223,0,0,1,.311.061,1.25,1.25,0,0,1,.145.059A1.28,1.28,0,0,1,2.507.2V.16c.057.035.117.07.179.105s.125.069.19.1.131.066.2.1.134.061.2.089l.172.074L3.621.7,3.8.77q.089.034.18.066.025.2.043.394t.029.4q.011.2.017.4T4.071,2.43Z" transform="translate(35.798 24.922)" opacity="0.05"/>
        <path id="Tracé_6128" data-name="Tracé 6128" d="M3.4,2.429q0,.254-.01.507t-.029.506q-.019.253-.047.5t-.063.5c-.064.014-.129.031-.194.05s-.131.04-.2.063-.131.047-.2.073-.13.053-.194.081V4.685a1.552,1.552,0,0,1-.2.111,1.4,1.4,0,0,1-.206.078,1.32,1.32,0,0,1-.433.051,1.332,1.332,0,0,1-.673-.235,1.892,1.892,0,0,1-.53-.564,2.741,2.741,0,0,1-.336-.809A3.393,3.393,0,0,1,0,2.345,3.278,3.278,0,0,1,.2,1.4,2.671,2.671,0,0,1,.626.642,1.86,1.86,0,0,1,1.219.151,1.321,1.321,0,0,1,1.915,0a1.223,1.223,0,0,1,.311.061,1.25,1.25,0,0,1,.145.059A1.279,1.279,0,0,1,2.507.2V.159c.057.035.117.07.179.105s.125.069.19.1.131.066.2.1.134.061.2.089q.03.233.053.466t.038.467q.015.234.023.47T3.4,2.429Z" transform="translate(35.788 24.923)" opacity="0.07"/>
        <path id="Tracé_6129" data-name="Tracé 6129" d="M11.948.064A11.47,11.47,0,0,0,7.283,1.078a12.02,12.02,0,0,0-3.8,2.715,12.707,12.707,0,0,0-2.553,4,13.274,13.274,0,0,0,0,9.785,12.7,12.7,0,0,0,2.553,4,12.015,12.015,0,0,0,3.8,2.714,11.5,11.5,0,0,0,9.347.043,12.006,12.006,0,0,0,3.837-2.7,12.7,12.7,0,0,0,2.593-4.022,13.272,13.272,0,0,0,0-9.874,12.692,12.692,0,0,0-2.593-4.021,12,12,0,0,0-3.837-2.7A11.461,11.461,0,0,0,11.948.064Z" transform="translate(14.283 14.664)" fill="#467ad4"/>
        <path id="Tracé_6130" data-name="Tracé 6130" d="M3.982,8.417a3.778,3.778,0,0,1-1.548-.331,4,4,0,0,1-1.266-.9A4.238,4.238,0,0,1,.314,5.852a4.387,4.387,0,0,1,0-3.258,4.261,4.261,0,0,1,.855-1.337A4.024,4.024,0,0,1,2.435.351,3.784,3.784,0,0,1,5.532.34a4,4,0,0,1,1.271.9,4.238,4.238,0,0,1,.859,1.335,4.385,4.385,0,0,1,0,3.268A4.26,4.26,0,0,1,6.8,7.181a4.022,4.022,0,0,1-1.271.9A3.784,3.784,0,0,1,3.982,8.417Z" transform="translate(18.169 18.847)" fill="#7cacff"/>
        <path id="Tracé_6131" data-name="Tracé 6131" d="M3.336,7.022a3.178,3.178,0,0,1-1.3-.281A3.368,3.368,0,0,1,.979,5.984,3.557,3.557,0,0,1,.263,4.867a3.656,3.656,0,0,1,0-2.722A3.54,3.54,0,0,1,.979,1.031,3.352,3.352,0,0,1,2.04.278a3.176,3.176,0,0,1,2.594,0A3.369,3.369,0,0,1,5.7,1.035a3.558,3.558,0,0,1,.719,1.118,3.655,3.655,0,0,1,0,2.729A3.54,3.54,0,0,1,5.7,6a3.351,3.351,0,0,1-1.064.751A3.169,3.169,0,0,1,3.336,7.022Z" transform="translate(24.939 28.856)" fill="#5090ff"/>
      </g>
      <path id="Tracé_6865" data-name="Tracé 6865" d="M330.619,192.354c-1.7-14.694-8.523-28.213-22.438-32.65-10.977-3.482-24.2-2.292-33.929,4.085-11.241,7.347-14.106,20.968-13.93,34.178.206,15.443,12.387,30.064,26.449,34.575,10.638,3.394,27.551,0,36.015-11.123C328.914,213.5,332.132,205.476,330.619,192.354Zm-65.3-10.286a25.817,25.817,0,0,1,12.916-16.692c5.216-2.336,16.164-6.759,26.449-3.071a36.735,36.735,0,0,1,9.154,4.585c-14.826,16.046-29.094,32.694-43.465,49.137-.367-.485-.735-.97-1.073-1.469-5.7-8.684-6.509-22.306-3.982-32.533Zm39.13,46.859c-11.226,3.174-24-1.469-32.077-10.462,14.444-16.663,29.124-33.238,43.112-50.3,4.673,3.982,7.876,9.772,10.139,19.235,4.673,19.675-1.513,35.9-21.174,41.481Z" transform="translate(-242.111 39.298)" fill="#fff"/>
      <path id="Tracé_6866" data-name="Tracé 6866" d="M282.039,56.479c-20.425,8.155-29.388,33.62-29.609,51.958,0,4.144.764,6.083,1.631,5.6s2-2.219,2.7-5.878c.353-1.851,3.027-15.532,10.653-26.582,5.98-8.64,11.329-12.534,19.1-18.852a6.686,6.686,0,0,0,3.159-4.232C290.179,55.6,287.828,54.157,282.039,56.479Z" transform="translate(-245.813 -8.797)" fill="#fff"/>
      <path id="Tracé_6867" data-name="Tracé 6867" d="M329.853,204.724c-.338-.705-1.264-.25-1.337.367-.279,2.542.088,5.128-.1,7.7s-1.176,5.069-1.029,7.6a1.058,1.058,0,0,0,1.954.529c1.469-2.219,1.587-5.51,1.675-8.126A18.1,18.1,0,0,0,329.853,204.724Z" transform="translate(-210.635 61.165)" fill="#3d5b8e"/>
      <path id="Tracé_6868" data-name="Tracé 6868" d="M325.253,220.862a29.387,29.387,0,0,0-2.2-6.833c-.338-.779-1.557-.22-1.352.573a37.922,37.922,0,0,1,1.264,7.009,14.958,14.958,0,0,0,.632,5.26.926.926,0,0,0,1.587,0C326.091,225.05,325.606,222.831,325.253,220.862Z" transform="translate(-213.309 65.525)" fill="#3d5b8e"/>
      <path id="Tracé_6869" data-name="Tracé 6869" d="M333.308,111.358a48,48,0,0,1-5.775,4.7c-2.013,1.2-4.247,1.807-6.289,2.939a.779.779,0,0,0,.382,1.469c4.731.132,10.976-3.747,13.474-7.656A1.169,1.169,0,0,0,333.308,111.358Z" transform="translate(-213.708 17.377)" fill="#3d5b8e"/>
      <path id="Tracé_6870" data-name="Tracé 6870" d="M330.385,117.909a.5.5,0,0,0-.911.118,31.981,31.981,0,0,1-1.117,4.908c-.646,1.469-2,2.571-2.469,4.129a.9.9,0,0,0,1.1,1.087C330.562,127.43,332.193,120.686,330.385,117.909Z" transform="translate(-211.344 20.465)" fill="#3d5b8e"/>
      <path id="Tracé_6871" data-name="Tracé 6871" d="M264.66,227.357c-1.469-1.161-3.321-1.572-4.761-2.939s-2.131-3.145-3.321-4.746a.6.6,0,0,0-1.117.294c-.1,2.087,1.469,4.291,2.821,5.745s3.644,3.336,5.7,3.2C264.719,228.93,265.365,227.9,264.66,227.357Z" transform="translate(-244.392 68.214)" fill="#3d5b8e"/>
      <path id="Tracé_6872" data-name="Tracé 6872" d="M274.941,233.234c-.793-1.822-2.7-3.2-3.762-4.923s-1.631-3.776-2.763-5.452a.323.323,0,0,0-.588,0,9.272,9.272,0,0,0,1.161,6.656c.94,1.881,2.674,4.57,4.864,5.069a.984.984,0,0,0,1.087-1.352Z" transform="translate(-238.671 69.757)" fill="#3d5b8e"/>
      <path id="Tracé_6873" data-name="Tracé 6873" d="M262.582,256.372c-15.223-10.447-12.754-28.771-12.181-44.978.485-13.71,1.851-28.154,0-41.775,0-.162-.309-.162-.323,0-2.66,17.633-1.954,36.647-2.145,54.368-.132,12.27,2.278,26.817,14.312,32.973a.382.382,0,0,0,.338-.588Z" transform="translate(-247.927 44.797)" fill="#213962"/>
      <path id="Tracé_6874" data-name="Tracé 6874" d="M340.317,184.914a.264.264,0,0,0-.529,0c-1.249,12.784-.661,25.729-.955,38.557-.191,7.935-.72,15.091-6.451,21.248-3.541,3.791-8.008,6.524-11.932,9.874-.235.191,0,.5.294.382,9.669-4.408,17.354-12.813,18.838-23.51.94-6.818.529-13.959.691-20.836C340.479,202.062,340.861,193.452,340.317,184.914Z" transform="translate(-213.928 51.91)" fill="#213962"/>
      <path id="Tracé_6875" data-name="Tracé 6875" d="M338.314,75.045c-6.289-10.55-19.1-22.188-30.857-26.155-.25,0-.367.279-.176.411,11.006,7.641,24.113,15.164,30.7,27.434,7.2,13.43,6.862,30.167,7.435,43.965,0,.4.735.4.793,0C348.291,106.638,345.6,87.256,338.314,75.045Z" transform="translate(-220.11 -11.817)" fill="#99beff"/>
      <path id="Tracé_6876" data-name="Tracé 6876" d="M314.418,128.8c-13.225-.558-26.258-1.675-38.88-6.186-12.975-4.658-20.322-11.638-26.067-23.893,0-.118-.25,0-.25,0,.426,11.123,11.212,18.647,20.469,22.717,13.812,6.054,29.667,9.331,44.729,7.626a.176.176,0,0,0,0-.264Z" transform="translate(-247.319 11.548)" fill="#99beff"/>
    </g>
    <g id="Extection">
      <path id="Tracé_6877" data-name="Tracé 6877" d="M223.056,245.323c-1.469-.852-146.441-86-161.355-95.232C48.564,141.98,16.34,144.213.97,145.3h.044v-7.347l3.115-.132c17.31-1.161,46.272-3.115,61.333,6.2s159.768,94.292,161.223,95.144Z" transform="translate(0.558 64.188)" fill="#7cacff"/>
      <path id="Tracé_6878" data-name="Tracé 6878" d="M152.522,199.1a3.482,3.482,0,0,0-4.1,0c-3.145,1.807-5.7,6.686-5.7,10.888a4.967,4.967,0,0,0,2.042,4.614l-.1.25L330.467,321.843l8.111-15.208Z" transform="translate(67.081 93.113)" fill="#467ad4"/>
      <path id="Tracé_6879" data-name="Tracé 6879" d="M269.52,283.328c0,4.2,2.557,6.127,5.7,4.32s5.7-6.7,5.7-10.9-2.542-6.127-5.7-4.305S269.52,279.14,269.52,283.328Z" transform="translate(126.617 127.528)" fill="#383838"/>
      <path id="Tracé_6880" data-name="Tracé 6880" d="M272.52,279.322c0,1.264.779,1.851,1.734,1.308a4.159,4.159,0,0,0,1.734-3.306c0-1.278-.779-1.851-1.734-1.308A4.158,4.158,0,0,0,272.52,279.322Z" transform="translate(128.025 129.433)" fill="#213962"/>
      <path id="Tracé_6881" data-name="Tracé 6881" d="M2.869,141.279c0,2.013-.632,3.644-1.469,3.644S-.07,143.292-.07,141.279.562,137.62,1.4,137.62,2.869,139.251,2.869,141.279Z" transform="translate(0.07 64.565)" fill="#467ad4"/>
      <path id="Tracé_6882" data-name="Tracé 6882" d="M153.33,107.32V373.562c0,19.176,27.625,34.722,61.715,34.722s61.715-15.546,61.715-34.722V107.32Z" transform="translate(72.077 50.342)" fill="#467ad4"/>
      <path id="Tracé_6883" data-name="Tracé 6883" d="M215.025,173.087c-34.061,0-61.715-15.532-61.715-34.707V311.065c0,19.1,27.625,34.707,61.715,34.707s61.715-15.532,61.715-34.707V138.395C276.711,157.57,249.1,173.087,215.025,173.087Z" transform="translate(72.067 64.922)" fill="#7cacff"/>
      <path id="Tracé_6884" data-name="Tracé 6884" d="M260.444,259.487c-11.27,6.921-27.419,11.285-45.419,11.285-34.061,0-61.715-15.546-61.715-34.722v8.669c0,19.1,27.625,34.707,61.715,34.707,18,0,34.149-4.408,45.419-11.27Z" transform="translate(72.067 110.769)" fill="#fff"/>
      <path id="Tracé_6885" data-name="Tracé 6885" d="M260.444,176.737c-11.27,6.921-27.419,11.285-45.419,11.285-34.061,0-61.715-15.546-61.715-34.722v8.655c0,19.176,27.625,34.722,61.715,34.722,18,0,34.149-4.408,45.419-11.285Z" transform="translate(72.067 71.925)" fill="#fff"/>
      <path id="Tracé_6886" data-name="Tracé 6886" d="M276.72,118.412c0,19.176-27.61,34.707-61.715,34.707s-61.715-15.532-61.715-34.707S180.915,83.69,215.005,83.69,276.72,99.236,276.72,118.412Z" transform="translate(72.058 39.25)" fill="#7cacff"/>
      <path id="Tracé_6887" data-name="Tracé 6887" d="M166.46,83.69v27.786c0,13.225,19.1,23.937,42.539,23.937s42.613-10.712,42.613-23.937V83.69Z" transform="translate(78.24 39.25)" fill="#467ad4"/>
      <path id="Tracé_6888" data-name="Tracé 6888" d="M251.562,91.337c0,13.225-19.1,23.937-42.613,23.937S166.41,104.561,166.41,91.337,185.512,67.4,208.949,67.4,251.562,78.112,251.562,91.337Z" transform="translate(78.217 31.604)" fill="#7cacff"/>
      <path id="Tracé_6889" data-name="Tracé 6889" d="M188.69,54.87V95.91c0,2.939,4.261,5.349,9.507,5.349s9.507-2.4,9.507-5.349V66.6Z" transform="translate(88.675 25.722)" fill="#467ad4"/>
      <path id="Tracé_6890" data-name="Tracé 6890" d="M233.278,105.154a27.919,27.919,0,0,1-13.989-4.114l-25.92-14.973c-16.6-9.566-29.608-34.12-29.608-55.837,0-12.74,4.658-22.732,12.754-27.419,7.127-4.129,15.826-3.659,24.451,1.337l25.92,14.944c16.6,9.581,29.594,34.12,29.594,55.837,0,12.74-4.643,22.732-12.754,27.4A20.571,20.571,0,0,1,233.278,105.154Zm-6.392-17.28c2.175,1.249,6.245,3.071,9.243,1.322s5.143-7.347,5.143-14.239c0-16.266-10.065-35.824-22.041-42.716L193.368,17.284c-2.16-1.249-6.245-3.086-9.257-1.322s-5.143,7.347-5.143,14.239c0,16.266,10.065,35.824,22.041,42.7Z" transform="translate(76.973 -0.023)" fill="#7cacff"/>
      <g id="icons8_virus_free-2" data-name="icons8_virus_free" transform="translate(238.686 295.385)">
        <path id="Tracé_6099-2" data-name="Tracé 6099" d="M15.305,6.472a1.8,1.8,0,0,0-.211-.068,1.829,1.829,0,0,0-.212-.041,1.9,1.9,0,0,0-.212-.016,2.018,2.018,0,0,0-.21.007c-.229-.007-.473-.024-.723-.05s-.506-.062-.761-.107-.508-.1-.752-.166a6.527,6.527,0,0,1-.7-.226,8.1,8.1,0,0,1-1.188-.582,8.166,8.166,0,0,1-1.056-.749,8.381,8.381,0,0,1-.916-.894A8.649,8.649,0,0,1,7.6,2.562l0,.007a4.534,4.534,0,0,0-.4-.718,4.378,4.378,0,0,0-.524-.629A4.132,4.132,0,0,0,6.036.705a3.9,3.9,0,0,0-.73-.379A3.712,3.712,0,0,0,3.763.072,3.765,3.765,0,0,0,2.3.453a3.974,3.974,0,0,0-1.225.934A4.227,4.227,0,0,0,.249,2.795a4.392,4.392,0,0,0,.1,3.186,4.164,4.164,0,0,0,.873,1.3,3.878,3.878,0,0,0,1.323.873,3.808,3.808,0,0,0,.8.219,3.861,3.861,0,0,0,.808.043,3.982,3.982,0,0,0,.794-.122A4.088,4.088,0,0,0,5.7,8.014,7.94,7.94,0,0,1,6.9,7.79a7.745,7.745,0,0,1,2.467.126,7.883,7.883,0,0,1,1.238.375,6.953,6.953,0,0,1,.717.334c.239.127.475.268.7.418s.452.309.662.472.409.329.59.495l.007-.018q.068.065.141.124t.153.111q.079.052.164.1a1.883,1.883,0,0,0,.954.212,1.906,1.906,0,0,0,.741-.188,2,2,0,0,0,.62-.467,2.111,2.111,0,0,0,.417-.707,2.2,2.2,0,0,0-.054-1.606,2.1,2.1,0,0,0-.443-.654A1.966,1.966,0,0,0,15.305,6.472Z" transform="translate(0.785 14.555)" fill="#213962"/>
        <path id="Tracé_6100-2" data-name="Tracé 6100" d="M.581,3.3Q.512,3.247.442,3.193T.3,3.085q-.072-.052-.146-.1T0,2.887q.089-.377.2-.746t.242-.729Q.574,1.052.724.7T1.043.01l.176.022.172.024.17.021c.056.006.113.011.169.015l.158.018.157.013L2.2.129l.151,0a1.687,1.687,0,0,1,.21-.008,1.757,1.757,0,0,1,.213.018,1.826,1.826,0,0,1,.213.044,1.892,1.892,0,0,1,.21.07A1.963,1.963,0,0,1,3.87.692a2.077,2.077,0,0,1,.442.652,2.185,2.185,0,0,1,.177.781,2.222,2.222,0,0,1-.125.825,2.12,2.12,0,0,1-.416.71,1.982,1.982,0,0,1-.618.467,1.888,1.888,0,0,1-1.519.056A1.778,1.778,0,0,1,1.631,4.1a1.729,1.729,0,0,1-.163-.1,1.869,1.869,0,0,1-.151-.112c-.049-.04-.1-.083-.142-.128l-.013.028Q1.1,3.73,1.029,3.667T.886,3.543q-.073-.061-.15-.121T.581,3.3Z" transform="translate(13.19 20.854)" opacity="0.05"/>
        <path id="Tracé_6101-2" data-name="Tracé 6101" d="M.581,3.709Q.517,3.646.448,3.584T.305,3.46Q.232,3.4.156,3.338T0,3.221Q.094,2.8.215,2.383T.48,1.568q.145-.4.313-.792T1.149.008l.158.018.157.013L1.62.046l.151,0a1.687,1.687,0,0,1,.21-.008,1.757,1.757,0,0,1,.213.018A1.826,1.826,0,0,1,2.407.1a1.892,1.892,0,0,1,.21.07,1.964,1.964,0,0,1,.672.437,2.078,2.078,0,0,1,.442.652,2.185,2.185,0,0,1,.177.781,2.222,2.222,0,0,1-.125.825,2.12,2.12,0,0,1-.416.71,1.982,1.982,0,0,1-.618.467A1.888,1.888,0,0,1,1.229,4.1a1.778,1.778,0,0,1-.179-.081,1.727,1.727,0,0,1-.163-.1,1.868,1.868,0,0,1-.151-.112c-.049-.04-.1-.083-.142-.128Z" transform="translate(13.779 20.938)" opacity="0.07"/>
        <path id="Tracé_6103-2" data-name="Tracé 6103" d="M4.548,5.507a1.006,1.006,0,0,1-.221.027A1.187,1.187,0,0,1,4.1,5.514a1.513,1.513,0,0,1-.223-.058,1.988,1.988,0,0,1-.22-.091l.013.028q-.243-.079-.489-.135t-.492-.088q-.247-.032-.494-.04t-.5.007q-.084.005-.168.013t-.168.019q-.084.012-.168.027t-.168.036Q.852,4.83.7,4.411T.411,3.561q-.13-.432-.233-.876T0,1.784a.569.569,0,0,0,.069,0l.069-.011.069-.014.069-.012.091-.021L.462,1.7c.031-.009.063-.018.094-.029a.981.981,0,0,0,.091-.037,4.6,4.6,0,0,0,.56-.192,4.938,4.938,0,0,0,.532-.261,5.523,5.523,0,0,0,.5-.324q.246-.177.479-.381L2.735.53A1.9,1.9,0,0,1,2.9.355,1.528,1.528,0,0,1,3.084.21,1.3,1.3,0,0,1,3.284.1,1.209,1.209,0,0,1,3.5.027,1.262,1.262,0,0,1,4.234.1a1.963,1.963,0,0,1,.678.468,3.12,3.12,0,0,1,.549.791,4.074,4.074,0,0,1,.346,1.036,4.126,4.126,0,0,1,.066,1.1,3.223,3.223,0,0,1-.214.952,2.062,2.062,0,0,1-.455.707A1.32,1.32,0,0,1,4.548,5.507Z" transform="translate(12.956 28.052)" opacity="0.05"/>
        <path id="Tracé_6104-2" data-name="Tracé 6104" d="M3.9,5.507a1.006,1.006,0,0,1-.221.027,1.187,1.187,0,0,1-.223-.019,1.513,1.513,0,0,1-.223-.058,1.988,1.988,0,0,1-.22-.091l.013.028q-.243-.079-.489-.135T2.046,5.17q-.247-.032-.494-.04t-.5.007Q.868,4.728.707,4.3T.414,3.436Q.282,3,.178,2.544T0,1.631a4.6,4.6,0,0,0,.56-.192,4.937,4.937,0,0,0,.532-.261A5.523,5.523,0,0,0,1.6.855q.246-.177.479-.381l.013.056A1.9,1.9,0,0,1,2.254.355,1.528,1.528,0,0,1,2.437.21,1.3,1.3,0,0,1,2.637.1,1.209,1.209,0,0,1,2.855.027,1.262,1.262,0,0,1,3.587.1a1.963,1.963,0,0,1,.678.468,3.12,3.12,0,0,1,.549.791A4.074,4.074,0,0,1,5.16,2.391a4.126,4.126,0,0,1,.066,1.1,3.223,3.223,0,0,1-.214.952,2.062,2.062,0,0,1-.455.707A1.32,1.32,0,0,1,3.9,5.507Z" transform="translate(13.612 28.052)" opacity="0.07"/>
        <path id="Tracé_6105-2" data-name="Tracé 6105" d="M18.425,2.926a4.069,4.069,0,0,0-.334-1.041,3.106,3.106,0,0,0-.54-.8,1.96,1.96,0,0,0-.673-.475,1.27,1.27,0,0,0-.732-.077A1.114,1.114,0,0,0,15.928.6a1.241,1.241,0,0,0-.2.108,1.492,1.492,0,0,0-.184.144,1.861,1.861,0,0,0-.167.175L15.367.973a6.21,6.21,0,0,1-.56.43,5.6,5.6,0,0,1-.6.354,5.165,5.165,0,0,1-.632.272,4.924,4.924,0,0,1-.666.184,4.935,4.935,0,0,1-1.172.093,5.3,5.3,0,0,1-1.159-.179A6.194,6.194,0,0,1,9.451,1.7a7.548,7.548,0,0,1-1.084-.655A5.48,5.48,0,0,0,7.44.494,5.292,5.292,0,0,0,6.426.14,5.1,5.1,0,0,0,5.353,0,5.035,5.035,0,0,0,2.327.935,5.4,5.4,0,0,0,.9,2.435,5.742,5.742,0,0,0,.116,4.391,5.877,5.877,0,0,0,.094,6.6,5.749,5.749,0,0,0,.878,8.639a5.446,5.446,0,0,0,1.413,1.516A5.116,5.116,0,0,0,4.136,11a4.938,4.938,0,0,0,2.083.033,5.074,5.074,0,0,0,1.034-.323,5.273,5.273,0,0,0,.932-.523,5.544,5.544,0,0,0,.81-.7,5.767,5.767,0,0,0,.668-.839l.029-.011a8.017,8.017,0,0,1,.79-1.067,6.553,6.553,0,0,1,.918-.863,5.535,5.535,0,0,1,1.037-.633,5.056,5.056,0,0,1,1.147-.376,4.848,4.848,0,0,1,.674-.086,5.008,5.008,0,0,1,.672.007,5.391,5.391,0,0,1,.668.095,5.982,5.982,0,0,1,.661.176l-.007-.032a1.738,1.738,0,0,0,.216.1,1.416,1.416,0,0,0,.221.063,1.2,1.2,0,0,0,.224.023,1.108,1.108,0,0,0,.226-.022,1.3,1.3,0,0,0,.654-.353,2.068,2.068,0,0,0,.46-.7,3.237,3.237,0,0,0,.224-.949A4.133,4.133,0,0,0,18.425,2.926Z" transform="translate(0 27.477)" fill="#4d7cdb"/>
        <path id="Tracé_6106-2" data-name="Tracé 6106" d="M4.506,5.516a1.017,1.017,0,0,1-.221.024,1.19,1.19,0,0,1-.223-.022,1.508,1.508,0,0,1-.222-.061,1.972,1.972,0,0,1-.22-.094l.013.028q-.242-.082-.487-.141t-.491-.094q-.246-.035-.494-.047t-.5,0q-.084,0-.168.011t-.169.017q-.084.011-.169.025T.99,5.2Q.816,4.792.666,4.372T.39,3.517Q.266,3.084.167,2.638T0,1.737a.568.568,0,0,0,.069,0l.069-.01L.208,1.71.277,1.7l.091-.02.094-.023c.031-.008.063-.018.094-.028s.062-.022.092-.036a4.583,4.583,0,0,0,.562-.185,4.929,4.929,0,0,0,.534-.254A5.528,5.528,0,0,0,2.253.836Q2.5.662,2.736.461l.012.056A1.9,1.9,0,0,1,2.916.344,1.527,1.527,0,0,1,3.1.2,1.3,1.3,0,0,1,3.3.093a1.2,1.2,0,0,1,.219-.07A1.262,1.262,0,0,1,4.252.1a1.966,1.966,0,0,1,.672.477,3.128,3.128,0,0,1,.54.8A4.082,4.082,0,0,1,5.8,2.417a4.12,4.12,0,0,1,.055,1.1,3.213,3.213,0,0,1-.224.949,2.053,2.053,0,0,1-.462.7A1.316,1.316,0,0,1,4.506,5.516Z" transform="translate(12.928 27.93)" opacity="0.05"/>
        <path id="Tracé_6107-2" data-name="Tracé 6107" d="M3.856,5.517a1.017,1.017,0,0,1-.221.024,1.19,1.19,0,0,1-.223-.022,1.508,1.508,0,0,1-.222-.061,1.97,1.97,0,0,1-.22-.094l.013.028Q2.742,5.31,2.5,5.251t-.491-.094q-.246-.035-.494-.047t-.5,0Q.833,4.7.677,4.272T.393,3.4Q.266,2.96.167,2.507T0,1.592a4.583,4.583,0,0,0,.562-.185A4.929,4.929,0,0,0,1.1,1.153,5.529,5.529,0,0,0,1.6.836q.248-.173.483-.375L2.1.517A1.9,1.9,0,0,1,2.268.344,1.527,1.527,0,0,1,2.452.2a1.3,1.3,0,0,1,.2-.108,1.2,1.2,0,0,1,.219-.07A1.262,1.262,0,0,1,3.6.1a1.966,1.966,0,0,1,.672.477,3.128,3.128,0,0,1,.54.8,4.082,4.082,0,0,1,.334,1.04,4.131,4.131,0,0,1,.054,1.1,3.218,3.218,0,0,1-.224.949,2.054,2.054,0,0,1-.463.7A1.316,1.316,0,0,1,3.856,5.517Z" transform="translate(13.586 27.929)" opacity="0.07"/>
        <path id="Tracé_6108-2" data-name="Tracé 6108" d="M9.129,10.61l.019.013a8.043,8.043,0,0,1-.135-1.251,7.067,7.067,0,0,1,.07-1.222,6.334,6.334,0,0,1,.285-1.169,5.948,5.948,0,0,1,.51-1.093,5.308,5.308,0,0,1,.39-.563,6.651,6.651,0,0,1,.468-.531c.166-.17.34-.331.518-.48a6.6,6.6,0,0,1,.539-.408,1.572,1.572,0,0,0,.17-.1,1.422,1.422,0,0,0,.154-.121,1.325,1.325,0,0,0,.251-.307,1.5,1.5,0,0,0,.207-.709,2.013,2.013,0,0,0-.127-.776,2.662,2.662,0,0,0-.428-.75,3.065,3.065,0,0,0-.694-.632,2.925,2.925,0,0,0-.84-.387A2.359,2.359,0,0,0,9.662.042a1.741,1.741,0,0,0-.716.214,1.4,1.4,0,0,0-.515.5,1.352,1.352,0,0,0-.1.2,1.452,1.452,0,0,0-.064.216,1.632,1.632,0,0,0-.032.225,1.879,1.879,0,0,0,0,.232L8.213,1.62q-.036.34-.1.672a6.439,6.439,0,0,1-.17.653,6.032,6.032,0,0,1-.239.631,5.789,5.789,0,0,1-.312.6,5.718,5.718,0,0,1-.7.942,5.782,5.782,0,0,1-.857.764,6.214,6.214,0,0,1-.99.587,6.926,6.926,0,0,1-1.1.411,4.631,4.631,0,0,0-.886.3,4.747,4.747,0,0,0-.821.481,4.852,4.852,0,0,0-.726.651A5.015,5.015,0,0,0,.059,10.939a5.167,5.167,0,0,0,.058,1.87,5.078,5.078,0,0,0,.716,1.716,4.79,4.79,0,0,0,1.329,1.347,4.5,4.5,0,0,0,1.716.7,4.385,4.385,0,0,0,1.773-.044,4.469,4.469,0,0,0,1.623-.744,4.711,4.711,0,0,0,1.268-1.4,4.9,4.9,0,0,0,.418-.895,5.154,5.154,0,0,0,.233-.949,5.4,5.4,0,0,0,.054-.972A5.511,5.511,0,0,0,9.129,10.61Z" transform="translate(10.068 36.164)" fill="#2776ff"/>
        <path id="Tracé_6109-2" data-name="Tracé 6109" d="M4.42,3.346a1.356,1.356,0,0,1-.116.168,1.3,1.3,0,0,1-.135.144,1.338,1.338,0,0,1-.153.12,1.478,1.478,0,0,1-.17.1l-.088.065-.088.065-.089.065-.089.065-.144.119c-.047.04-.094.08-.141.121s-.092.083-.138.126-.091.088-.136.134q-.4-.171-.78-.367T1.4,3.852Q1.036,3.63.685,3.384T0,2.867q.028-.09.053-.179T.1,2.506q.023-.091.043-.183t.038-.187Q.2,2.067.206,2t.021-.137q.01-.068.018-.137t.016-.137L.288,1.6a1.76,1.76,0,0,1,0-.23,1.6,1.6,0,0,1,.031-.225A1.425,1.425,0,0,1,.382.931a1.276,1.276,0,0,1,.1-.2,1.388,1.388,0,0,1,.515-.5A1.732,1.732,0,0,1,1.712.013,2.384,2.384,0,0,1,2.538.1a2.988,2.988,0,0,1,.843.387,3.023,3.023,0,0,1,.691.629,2.666,2.666,0,0,1,.427.75,2.019,2.019,0,0,1,.127.776A1.484,1.484,0,0,1,4.42,3.346Z" transform="translate(18.132 35.869)" opacity="0.05"/>
        <path id="Tracé_6110-2" data-name="Tracé 6110" d="M4.238,3.345a1.356,1.356,0,0,1-.116.168,1.3,1.3,0,0,1-.135.144,1.338,1.338,0,0,1-.153.12,1.477,1.477,0,0,1-.17.1l-.088.065-.088.065L3.4,4.071l-.089.065q-.453-.185-.888-.4t-.851-.47Q1.157,3.012.764,2.73T0,2.135Q.014,2.067.025,2t.021-.137q.01-.068.018-.137T.08,1.588L.106,1.6a1.759,1.759,0,0,1,0-.23,1.6,1.6,0,0,1,.031-.225A1.425,1.425,0,0,1,.2.931,1.276,1.276,0,0,1,.3.73a1.388,1.388,0,0,1,.515-.5A1.732,1.732,0,0,1,1.53.013,2.384,2.384,0,0,1,2.357.1,2.988,2.988,0,0,1,3.2.484a3.023,3.023,0,0,1,.691.629,2.666,2.666,0,0,1,.427.75,2.019,2.019,0,0,1,.127.776A1.484,1.484,0,0,1,4.238,3.345Z" transform="translate(18.315 35.863)" opacity="0.07"/>
        <path id="Tracé_6111-2" data-name="Tracé 6111" d="M10.544,15.047a1.429,1.429,0,0,0-.163-.339,1.458,1.458,0,0,0-.112-.149,1.528,1.528,0,0,0-.131-.135l.037-.016c-.159-.165-.316-.342-.467-.531s-.3-.387-.431-.592a6.338,6.338,0,0,1-.366-.636,4.948,4.948,0,0,1-.275-.663,5.946,5.946,0,0,1-.255-1.179,6.264,6.264,0,0,1-.018-1.2,6.943,6.943,0,0,1,.2-1.2,7.882,7.882,0,0,1,.41-1.177,5.266,5.266,0,0,0,.512-1.882,5.151,5.151,0,0,0-.018-1,5.058,5.058,0,0,0-.217-.993A4.863,4.863,0,0,0,8.31,1.687,4.714,4.714,0,0,0,6.863.559,4.6,4.6,0,0,0,3.236.337,4.758,4.758,0,0,0,1.6,1.323,4.954,4.954,0,0,0,.5,2.821a5.055,5.055,0,0,0-.484,1.81,5.008,5.008,0,0,0,.63,2.829A4.915,4.915,0,0,0,2.66,9.409a7.3,7.3,0,0,1,1.021.686,6.912,6.912,0,0,1,.883.846,6.336,6.336,0,0,1,.709.987,5.779,5.779,0,0,1,.5,1.109,4.575,4.575,0,0,1,.155.648c.039.231.066.475.083.722s.023.5.021.738-.014.479-.032.7a1.714,1.714,0,0,0-.03.2,1.545,1.545,0,0,0-.006.2,1.425,1.425,0,0,0,.02.2,1.364,1.364,0,0,0,.048.193,1.448,1.448,0,0,0,.4.616,1.839,1.839,0,0,0,.664.386,2.464,2.464,0,0,0,.839.124,2.985,2.985,0,0,0,.924-.17,3.052,3.052,0,0,0,.835-.444,2.6,2.6,0,0,0,.6-.625,1.959,1.959,0,0,0,.3-.724A1.493,1.493,0,0,0,10.544,15.047Z" transform="translate(14.133)" fill="#2776ff"/>
        <path id="Tracé_6112-2" data-name="Tracé 6112" d="M4.587,1.868a1.508,1.508,0,0,1,.041.743,1.989,1.989,0,0,1-.3.728,2.614,2.614,0,0,1-.6.629,3.029,3.029,0,0,1-.835.446,3.055,3.055,0,0,1-.923.164,2.489,2.489,0,0,1-.837-.124,1.839,1.839,0,0,1-.663-.383,1.456,1.456,0,0,1-.4-.614,1.467,1.467,0,0,1-.048-.2,1.486,1.486,0,0,1-.02-.2,1.563,1.563,0,0,1,.006-.2,1.686,1.686,0,0,1,.029-.192c0-.052.007-.106.011-.161S.055,2.4.058,2.345s.007-.113.01-.169,0-.113,0-.169,0-.125,0-.188,0-.124,0-.186S.066,1.509.062,1.447.055,1.322.051,1.26Q.427,1.05.815.866T1.6.525Q2,.368,2.416.239T3.251.008c.035.052.07.1.106.156l.108.154L3.573.47l.105.148q.067.083.134.164t.134.157q.067.077.134.149t.134.14l-.041.028a1.417,1.417,0,0,1,.246.279,1.458,1.458,0,0,1,.093.16A1.521,1.521,0,0,1,4.587,1.868Z" transform="translate(20.169 13.485)" opacity="0.05"/>
        <path id="Tracé_6113-2" data-name="Tracé 6113" d="M4.587,1.255A1.508,1.508,0,0,1,4.627,2a1.989,1.989,0,0,1-.3.728,2.614,2.614,0,0,1-.6.629,3.029,3.029,0,0,1-.835.446,3.055,3.055,0,0,1-.923.164,2.489,2.489,0,0,1-.837-.124,1.839,1.839,0,0,1-.663-.383,1.456,1.456,0,0,1-.4-.614,1.468,1.468,0,0,1-.048-.2,1.487,1.487,0,0,1-.02-.2,1.563,1.563,0,0,1,.006-.2A1.686,1.686,0,0,1,.036,2.06c0-.052.007-.106.011-.161s.008-.111.012-.167.007-.113.01-.169,0-.113,0-.169Q.487,1.157.921.951T1.806.57Q2.257.4,2.725.254T3.678.005q.067.083.134.164t.134.157q.067.077.134.149t.134.14L4.174.643A1.417,1.417,0,0,1,4.42.923a1.458,1.458,0,0,1,.093.16A1.521,1.521,0,0,1,4.587,1.255Z" transform="translate(20.169 14.107)" opacity="0.07"/>
        <path id="Tracé_6114-2" data-name="Tracé 6114" d="M8.51,13.089a4.739,4.739,0,0,0-.273-.855,4.534,4.534,0,0,0-.415-.76,4.331,4.331,0,0,0-.538-.649,4.115,4.115,0,0,0-.643-.521,8.814,8.814,0,0,1-.857-.952,8.9,8.9,0,0,1-.723-1.087,9.007,9.007,0,0,1-.568-1.211A9.21,9.21,0,0,1,4.1,5.73q-.085-.39-.134-.778T3.9,4.179q-.017-.385,0-.764t.058-.752l-.023,0a2.4,2.4,0,0,0,.049-.244A2.241,2.241,0,0,0,4,2.171,2.133,2.133,0,0,0,4,1.915a2.093,2.093,0,0,0-.039-.259A2.168,2.168,0,0,0,3.629.891,2.069,2.069,0,0,0,3.068.335,1.96,1.96,0,0,0,2.35.041a1.9,1.9,0,0,0-.8.018A1.941,1.941,0,0,0,.83.4,2.055,2.055,0,0,0,.306.988,2.167,2.167,0,0,0,.03,1.74a2.213,2.213,0,0,0,.021.837,2.075,2.075,0,0,0,.068.239,2.1,2.1,0,0,0,.093.223,2.181,2.181,0,0,0,.115.208,2.294,2.294,0,0,0,.134.192c.12.21.24.437.354.675s.224.486.325.738.194.508.274.762.149.5.2.745a9.3,9.3,0,0,1,.194,1.383A9.2,9.2,0,0,1,1.8,9.1a9.159,9.159,0,0,1-.206,1.313A9.093,9.093,0,0,1,1.2,11.658l.025-.005a4.447,4.447,0,0,0-.647,2.382,4.4,4.4,0,0,0,.1.862,4.35,4.35,0,0,0,.655,1.53,4.168,4.168,0,0,0,1.121,1.115,3.952,3.952,0,0,0,1.434.6,3.817,3.817,0,0,0,1.594-.025,3.88,3.88,0,0,0,1.456-.674A4.092,4.092,0,0,0,8,16.27a4.307,4.307,0,0,0,.555-1.5A4.405,4.405,0,0,0,8.51,13.089Z" transform="translate(25.682 37.247)" fill="#213962"/>
        <path id="Tracé_6115-2" data-name="Tracé 6115" d="M3.927,2.666l.027-.014q-.013.106-.023.214t-.018.217q-.008.109-.013.22t-.008.221q0,.09,0,.179t0,.181q0,.091.007.183t.012.187q-.344.091-.694.162t-.705.121q-.356.051-.718.082t-.732.044q-.037-.089-.076-.177T.905,4.31Q.864,4.223.822,4.137T.739,3.968Q.707,3.9.673,3.833T.6,3.7Q.569,3.632.533,3.567T.46,3.44a2.245,2.245,0,0,1-.134-.195,2.181,2.181,0,0,1-.3-1.509A2.151,2.151,0,0,1,.306.984,2.043,2.043,0,0,1,.832.4,1.929,1.929,0,0,1,1.555.062,1.889,1.889,0,0,1,2.349.039a1.936,1.936,0,0,1,.716.291,2.06,2.06,0,0,1,.562.555,2.2,2.2,0,0,1,.331.769A2.138,2.138,0,0,1,4,1.914,2.118,2.118,0,0,1,4,2.169a2.191,2.191,0,0,1-.024.251A2.353,2.353,0,0,1,3.927,2.666Z" transform="translate(25.63 36.945)" opacity="0.05"/>
        <path id="Tracé_6116-2" data-name="Tracé 6116" d="M3.929,2.666l.027-.014q-.013.106-.023.214t-.018.217q-.008.109-.013.22T3.9,3.524q-.354.1-.715.18t-.731.133q-.37.055-.747.086t-.763.039l-.2,0Q.707,3.9.673,3.833T.6,3.7Q.569,3.632.533,3.567T.46,3.44a2.246,2.246,0,0,1-.134-.195,2.181,2.181,0,0,1-.3-1.509A2.151,2.151,0,0,1,.306.984,2.043,2.043,0,0,1,.832.4,1.929,1.929,0,0,1,1.555.062,1.889,1.889,0,0,1,2.349.039a1.936,1.936,0,0,1,.716.29,2.06,2.06,0,0,1,.562.555,2.2,2.2,0,0,1,.331.769A2.1,2.1,0,0,1,4,2.169a2.177,2.177,0,0,1-.024.251A2.347,2.347,0,0,1,3.929,2.666Z" transform="translate(25.629 36.936)" opacity="0.07"/>
        <path id="Tracé_6117-2" data-name="Tracé 6117" d="M11.965,7.76a5.859,5.859,0,0,0-.036-4.317,5.593,5.593,0,0,0-1.156-1.781A5.273,5.273,0,0,0,8.989.449a5.116,5.116,0,0,0-2.1-.388,5.2,5.2,0,0,0-2.013.47,5.441,5.441,0,0,0-1.7,1.224,5.7,5.7,0,0,0-1.17,1.874,5.857,5.857,0,0,0-.263,3.308,5.813,5.813,0,0,0,.321,1.033L2.056,8A8.372,8.372,0,0,1,2.484,9.29a7.166,7.166,0,0,1,.193,1.294,6.292,6.292,0,0,1-.058,1.276,5.86,5.86,0,0,1-.325,1.235,5.576,5.576,0,0,1-.3.652,5.7,5.7,0,0,1-.373.6,6.031,6.031,0,0,1-.441.548,6.542,6.542,0,0,1-.5.5l.029.012a1.8,1.8,0,0,0-.2.141,1.527,1.527,0,0,0-.171.164A1.345,1.345,0,0,0,.2,15.9a1.266,1.266,0,0,0-.105.213,1.485,1.485,0,0,0-.073.777,2.127,2.127,0,0,0,.313.791,3.039,3.039,0,0,0,.641.714,3.693,3.693,0,0,0,.912.547,3.6,3.6,0,0,0,1.02.266,2.832,2.832,0,0,0,.936-.051,1.946,1.946,0,0,0,.751-.345,1.419,1.419,0,0,0,.463-.615,1.289,1.289,0,0,0,.065-.231,1.411,1.411,0,0,0,.023-.238,1.63,1.63,0,0,0-.015-.243,1.933,1.933,0,0,0-.05-.245l.054.022a6.934,6.934,0,0,1-.039-.736,6.352,6.352,0,0,1,.042-.728,5.931,5.931,0,0,1,.127-.716,5.694,5.694,0,0,1,.795-1.816,5.957,5.957,0,0,1,.795-.957,6.666,6.666,0,0,1,.986-.794,7.754,7.754,0,0,1,1.151-.626,5.429,5.429,0,0,0,.935-.517,5.491,5.491,0,0,0,.828-.7,5.572,5.572,0,0,0,.691-.874A5.755,5.755,0,0,0,11.965,7.76Z" transform="translate(27.423 0.304)" fill="#4d7cdb"/>
        <path id="Tracé_6118-2" data-name="Tracé 6118" d="M1.888,6.032a3.673,3.673,0,0,1-.915-.546,3.016,3.016,0,0,1-.64-.715,2.134,2.134,0,0,1-.311-.794,1.515,1.515,0,0,1,.072-.782,1.231,1.231,0,0,1,.1-.211A1.351,1.351,0,0,1,.337,2.8a1.582,1.582,0,0,1,.171-.165,1.911,1.911,0,0,1,.2-.143L.677,2.475q.216-.191.415-.4t.377-.436A5.432,5.432,0,0,0,1.8,1.166,4.976,4.976,0,0,0,2.077.659C2.1.62,2.12.58,2.139.541s.038-.078.055-.118.034-.078.05-.117L2.292.189C2.3.175,2.3.16,2.309.146L2.323.1,2.338.061c.005-.014.011-.028.017-.042q.424.107.835.246T4,.57q.4.167.782.362t.757.415a.329.329,0,0,1-.011.032l-.014.032L5.5,1.444c0,.011-.009.021-.012.032L5.44,1.6q-.023.064-.046.13t-.043.133Q5.33,1.934,5.312,2q-.078.282-.129.571t-.073.584q-.023.295-.018.6t.038.605l-.055-.027a1.911,1.911,0,0,1,.051.243,1.679,1.679,0,0,1,.017.244,1.455,1.455,0,0,1-.021.24,1.281,1.281,0,0,1-.062.231A1.411,1.411,0,0,1,4.6,5.9a1.961,1.961,0,0,1-.752.344,2.843,2.843,0,0,1-.937.052A3.568,3.568,0,0,1,1.888,6.032Z" transform="translate(27.331 13.538)" opacity="0.05"/>
        <path id="Tracé_6119-2" data-name="Tracé 6119" d="M1.888,5.391a3.673,3.673,0,0,1-.915-.546,3.016,3.016,0,0,1-.64-.715,2.134,2.134,0,0,1-.311-.794,1.515,1.515,0,0,1,.072-.782,1.231,1.231,0,0,1,.1-.211,1.352,1.352,0,0,1,.14-.188,1.582,1.582,0,0,1,.171-.165,1.911,1.911,0,0,1,.2-.143L.677,1.833q.216-.191.415-.4T1.469,1A5.432,5.432,0,0,0,1.8.525,4.975,4.975,0,0,0,2.077.018q.429.112.847.254t.823.31q.4.169.8.364t.769.415q-.078.282-.129.571t-.073.584q-.023.295-.018.6t.038.605l-.055-.027a1.911,1.911,0,0,1,.051.243,1.679,1.679,0,0,1,.017.244,1.455,1.455,0,0,1-.021.24,1.281,1.281,0,0,1-.062.231,1.413,1.413,0,0,1-.464.612,1.96,1.96,0,0,1-.752.345,2.841,2.841,0,0,1-.937.052A3.567,3.567,0,0,1,1.888,5.391Z" transform="translate(27.329 14.188)" opacity="0.07"/>
        <path id="Tracé_6120-2" data-name="Tracé 6120" d="M14.728,6.534a5.534,5.534,0,0,0-.9-.681A5.347,5.347,0,0,0,11.8,5.133a5.314,5.314,0,0,0-1.055-.042l-.019-.013a7.493,7.493,0,0,1-1.316-.012,6.351,6.351,0,0,1-1.238-.247A5.627,5.627,0,0,1,7.039,4.33a5.408,5.408,0,0,1-1.005-.739,5.389,5.389,0,0,1-.494-.525,5.656,5.656,0,0,1-.42-.583,6.132,6.132,0,0,1-.348-.634A6.8,6.8,0,0,1,4.5,1.17l-.039.045A1.958,1.958,0,0,0,4.4.972a1.612,1.612,0,0,0-.09-.225,1.376,1.376,0,0,0-.122-.2A1.255,1.255,0,0,0,4.027.366,1.332,1.332,0,0,0,3.35.033a1.9,1.9,0,0,0-.82.044A2.9,2.9,0,0,0,1.67.471a3.805,3.805,0,0,0-.8.718,3.943,3.943,0,0,0-.583.918,3.225,3.225,0,0,0-.269.942,2.185,2.185,0,0,0,.057.857,1.439,1.439,0,0,0,.4.664,1.2,1.2,0,0,0,.185.142,1.268,1.268,0,0,0,.206.1,1.445,1.445,0,0,0,.223.067,1.721,1.721,0,0,0,.237.034L1.3,4.941a6.143,6.143,0,0,1,.662.211,5.666,5.666,0,0,1,.629.285,5.375,5.375,0,0,1,.59.363,5.287,5.287,0,0,1,.546.444,5.58,5.58,0,0,1,.817.957,6.132,6.132,0,0,1,.6,1.119,7.17,7.17,0,0,1,.38,1.254,8.587,8.587,0,0,1,.168,1.36A5.982,5.982,0,0,0,6.8,14.079a5.877,5.877,0,0,0,.764.869,5.382,5.382,0,0,0,1.853,1.139,5.208,5.208,0,0,0,4.063-.225,5.374,5.374,0,0,0,1.718-1.341,5.652,5.652,0,0,0,1.081-1.937,5.9,5.9,0,0,0-.248-4.253A5.659,5.659,0,0,0,14.728,6.534Z" transform="translate(31.334 32.942)" fill="#4d7cdb"/>
        <path id="Tracé_6121-2" data-name="Tracé 6121" d="M5.537,3.059l.111.127c.037.042.075.084.114.126s.078.083.119.123.083.08.127.119q-.267.358-.555.7t-.594.659q-.306.32-.631.619t-.667.578q-.065-.064-.133-.122t-.137-.111q-.069-.053-.14-.1t-.141-.09q-.2-.133-.4-.245t-.42-.205q-.214-.093-.435-.168T1.307,4.93l.013-.014a1.869,1.869,0,0,1-.236-.036,1.443,1.443,0,0,1-.222-.068,1.2,1.2,0,0,1-.2-.1,1.113,1.113,0,0,1-.183-.147,1.437,1.437,0,0,1-.4-.661,2.161,2.161,0,0,1-.06-.853,3.2,3.2,0,0,1,.267-.939,3.961,3.961,0,0,1,.581-.919A3.844,3.844,0,0,1,1.67.469,2.909,2.909,0,0,1,2.532.076a1.905,1.905,0,0,1,.82-.043,1.346,1.346,0,0,1,.679.333,1.2,1.2,0,0,1,.154.174,1.379,1.379,0,0,1,.121.2A1.689,1.689,0,0,1,4.4.966a2.133,2.133,0,0,1,.063.245l.027-.042q.1.264.207.515t.241.488q.13.237.279.459T5.537,3.059Z" transform="translate(30.977 32.571)" opacity="0.05"/>
        <path id="Tracé_6122-2" data-name="Tracé 6122" d="M4.488,1.169q.1.264.207.515t.241.488q.13.237.279.459t.321.429q-.272.369-.569.719t-.614.679q-.317.329-.654.636t-.689.59q-.2-.133-.4-.245t-.42-.205q-.214-.093-.435-.168T1.307,4.93l.013-.014a1.869,1.869,0,0,1-.236-.036,1.443,1.443,0,0,1-.222-.068,1.2,1.2,0,0,1-.2-.1,1.113,1.113,0,0,1-.183-.147,1.437,1.437,0,0,1-.4-.661,2.161,2.161,0,0,1-.06-.853,3.2,3.2,0,0,1,.267-.939,3.961,3.961,0,0,1,.581-.919A3.844,3.844,0,0,1,1.67.469,2.91,2.91,0,0,1,2.532.076a1.905,1.905,0,0,1,.82-.043,1.346,1.346,0,0,1,.679.333,1.2,1.2,0,0,1,.154.174,1.379,1.379,0,0,1,.121.2A1.689,1.689,0,0,1,4.4.966a2.133,2.133,0,0,1,.063.245Z" transform="translate(30.971 32.565)" opacity="0.07"/>
        <path id="Tracé_6123-2" data-name="Tracé 6123" d="M15.325,2A4.126,4.126,0,0,0,14.213.784,3.968,3.968,0,0,0,12.787.131,3.907,3.907,0,0,0,11.228.086a3.975,3.975,0,0,0-1.51.6,4.1,4.1,0,0,0-.667.549,4.169,4.169,0,0,0-.528.659,4.321,4.321,0,0,0-.384.744,4.46,4.46,0,0,0-.236.8A9.126,9.126,0,0,1,7.328,4.6a8.879,8.879,0,0,1-.74,1.069,8.654,8.654,0,0,1-.9.958,8.551,8.551,0,0,1-1.06.824,7.132,7.132,0,0,1-.706.4c-.248.125-.505.24-.765.344s-.521.2-.776.279-.5.152-.739.21q-.09.018-.178.044t-.175.061q-.087.035-.171.079a1.862,1.862,0,0,0-.165.1,2.071,2.071,0,0,0-.583.579,2.176,2.176,0,0,0-.315.741,2.211,2.211,0,0,0-.027.809,2.155,2.155,0,0,0,.282.784,2.062,2.062,0,0,0,.551.607,1.974,1.974,0,0,0,.707.328,1.935,1.935,0,0,0,.773.026,2,2,0,0,0,.924-.424,2.015,2.015,0,0,0,.156-.143,2.1,2.1,0,0,0,.14-.157q.066-.082.123-.169a10.631,10.631,0,0,1,.987-1.111A9.312,9.312,0,0,1,5.788,9.9a8.34,8.34,0,0,1,1.249-.732,7.832,7.832,0,0,1,1.373-.5q.362-.095.731-.155t.742-.087q.373-.026.747-.016t.746.056a4.192,4.192,0,0,0,.7.029,3.854,3.854,0,0,0,.679-.089,3.787,3.787,0,0,0,.655-.211,4.005,4.005,0,0,0,.626-.336A4.16,4.16,0,0,0,15.206,6.7a4.37,4.37,0,0,0,.635-1.491,4.436,4.436,0,0,0,.054-1.628A4.323,4.323,0,0,0,15.325,2Z" transform="translate(34.211 10.168)" fill="#213962"/>
        <path id="Tracé_6124-2" data-name="Tracé 6124" d="M.31,3.671a2.147,2.147,0,0,1-.285-.786A2.2,2.2,0,0,1,.372,1.333,2.119,2.119,0,0,1,.957.75a1.8,1.8,0,0,1,.163-.1A1.769,1.769,0,0,1,1.288.575,1.807,1.807,0,0,1,1.462.516Q1.549.491,1.64.474L1.626.446,1.808.4,1.992.355,2.181.306l.2-.053L2.549.2,2.72.14C2.777.12,2.834.1,2.891.077S3,.031,3.061.006q.23.3.444.623t.412.653q.2.333.377.68t.339.7l-.13.128c-.043.043-.086.086-.127.13s-.083.088-.122.132-.078.09-.115.136-.085.093-.125.139-.079.092-.117.137L3.787,3.6l-.1.131q-.06.091-.128.173a2.072,2.072,0,0,1-.3.3,2.128,2.128,0,0,1-.173.126A1.938,1.938,0,0,1,1.565,4.6a1.982,1.982,0,0,1-.707-.325A2.03,2.03,0,0,1,.31,3.671Z" transform="translate(33.89 18.5)" opacity="0.05"/>
        <path id="Tracé_6125-2" data-name="Tracé 6125" d="M.31,3.424a2.147,2.147,0,0,1-.285-.786A2.2,2.2,0,0,1,.372,1.086,2.119,2.119,0,0,1,.957.5a1.8,1.8,0,0,1,.163-.1A1.77,1.77,0,0,1,1.288.328,1.808,1.808,0,0,1,1.462.269Q1.549.244,1.64.227L1.626.2,1.808.154,1.992.108,2.181.059l.2-.053q.265.329.507.68t.463.719q.22.369.418.754t.372.785q-.065.069-.125.139T3.9,3.22l-.109.135-.1.131q-.06.091-.128.173a2.072,2.072,0,0,1-.3.3,2.129,2.129,0,0,1-.173.126,1.938,1.938,0,0,1-1.519.267,1.982,1.982,0,0,1-.707-.325A2.03,2.03,0,0,1,.31,3.424Z" transform="translate(33.883 18.75)" opacity="0.07"/>
        <path id="Tracé_6126-2" data-name="Tracé 6126" d="M17.535,5.268a5.129,5.129,0,0,0-.261-1.952,5.014,5.014,0,0,0-.928-1.639A4.793,4.793,0,0,0,14.9.521a4.591,4.591,0,0,0-1.826-.5A4.486,4.486,0,0,0,11.1.34,4.7,4.7,0,0,0,10.232.8a4.929,4.929,0,0,0-.755.63,7.413,7.413,0,0,1-.966.677A6.349,6.349,0,0,1,7.478,2.6a5.624,5.624,0,0,1-1.087.279,5.324,5.324,0,0,1-1.13.049,4.432,4.432,0,0,1-.7-.106,6.384,6.384,0,0,1-.722-.213c-.239-.085-.473-.183-.7-.289S2.7,2.1,2.507,1.983v.032c-.046-.027-.092-.051-.14-.073a1.414,1.414,0,0,0-.145-.058,1.225,1.225,0,0,0-.15-.041,1.126,1.126,0,0,0-.156-.02,1.341,1.341,0,0,0-.7.15,1.862,1.862,0,0,0-.592.492A2.663,2.663,0,0,0,.2,3.223a3.29,3.29,0,0,0-.194.948,3.325,3.325,0,0,0,.083.966,2.7,2.7,0,0,0,.333.807,1.892,1.892,0,0,0,.53.564,1.351,1.351,0,0,0,.676.238,1.2,1.2,0,0,0,.22-.007,1.29,1.29,0,0,0,.214-.045,1.475,1.475,0,0,0,.206-.079,1.747,1.747,0,0,0,.2-.11v.028a6.219,6.219,0,0,1,.619-.227A5.721,5.721,0,0,1,3.72,6.15a5.39,5.39,0,0,1,.652-.081,5.242,5.242,0,0,1,.665,0,5.445,5.445,0,0,1,1.162.2,5.757,5.757,0,0,1,1.089.442,6.48,6.48,0,0,1,1,.658,7.523,7.523,0,0,1,.9.853V8.206a4.9,4.9,0,0,0,.667.663,4.732,4.732,0,0,0,.783.521,4.575,4.575,0,0,0,3.714.254,4.728,4.728,0,0,0,1.574-.963,4.944,4.944,0,0,0,1.113-1.508A5.1,5.1,0,0,0,17.535,5.268Z" transform="translate(36.091 23.12)" fill="#2776ff"/>
        <path id="Tracé_6127-2" data-name="Tracé 6127" d="M4.071,2.43q0,.238-.008.473t-.023.468Q4.026,3.6,4,3.834t-.053.458c-.057.007-.115.016-.174.026s-.118.022-.177.035-.118.028-.177.043-.117.032-.174.05-.129.031-.194.05-.131.04-.2.063-.131.047-.2.073-.13.053-.194.081V4.685a1.552,1.552,0,0,1-.2.111,1.4,1.4,0,0,1-.206.078,1.32,1.32,0,0,1-.433.051,1.332,1.332,0,0,1-.673-.235,1.892,1.892,0,0,1-.53-.564,2.741,2.741,0,0,1-.336-.809A3.393,3.393,0,0,1,0,2.346,3.278,3.278,0,0,1,.2,1.4,2.671,2.671,0,0,1,.626.643,1.86,1.86,0,0,1,1.219.152a1.321,1.321,0,0,1,.7-.146,1.223,1.223,0,0,1,.311.061,1.25,1.25,0,0,1,.145.059A1.28,1.28,0,0,1,2.507.2V.16c.057.035.117.07.179.105s.125.069.19.1.131.066.2.1.134.061.2.089l.172.074L3.621.7,3.8.77q.089.034.18.066.025.2.043.394t.029.4q.011.2.017.4T4.071,2.43Z" transform="translate(35.798 24.922)" opacity="0.05"/>
        <path id="Tracé_6128-2" data-name="Tracé 6128" d="M3.4,2.429q0,.254-.01.507t-.029.506q-.019.253-.047.5t-.063.5c-.064.014-.129.031-.194.05s-.131.04-.2.063-.131.047-.2.073-.13.053-.194.081V4.685a1.552,1.552,0,0,1-.2.111,1.4,1.4,0,0,1-.206.078,1.32,1.32,0,0,1-.433.051,1.332,1.332,0,0,1-.673-.235,1.892,1.892,0,0,1-.53-.564,2.741,2.741,0,0,1-.336-.809A3.393,3.393,0,0,1,0,2.345,3.278,3.278,0,0,1,.2,1.4,2.671,2.671,0,0,1,.626.642,1.86,1.86,0,0,1,1.219.151a1.321,1.321,0,0,1,.7-.146,1.223,1.223,0,0,1,.311.061,1.25,1.25,0,0,1,.145.059A1.28,1.28,0,0,1,2.507.2V.159c.057.035.117.07.179.105s.125.069.19.1.131.066.2.1.134.061.2.089q.03.233.053.466t.038.467q.015.234.023.47T3.4,2.429Z" transform="translate(35.788 24.923)" opacity="0.07"/>
        <path id="Tracé_6129-2" data-name="Tracé 6129" d="M11.948.064A11.47,11.47,0,0,0,7.283,1.078a12.02,12.02,0,0,0-3.8,2.715,12.707,12.707,0,0,0-2.553,4,13.274,13.274,0,0,0,0,9.785,12.7,12.7,0,0,0,2.553,4,12.015,12.015,0,0,0,3.8,2.714,11.5,11.5,0,0,0,9.347.043,12.006,12.006,0,0,0,3.837-2.7,12.7,12.7,0,0,0,2.593-4.022,13.272,13.272,0,0,0,0-9.874,12.692,12.692,0,0,0-2.593-4.021,12,12,0,0,0-3.837-2.7A11.461,11.461,0,0,0,11.948.064Z" transform="translate(14.283 14.664)" fill="#467ad4"/>
        <path id="Tracé_6130-2" data-name="Tracé 6130" d="M3.982,8.417a3.778,3.778,0,0,1-1.548-.331,4,4,0,0,1-1.266-.9A4.238,4.238,0,0,1,.314,5.852a4.387,4.387,0,0,1,0-3.258,4.261,4.261,0,0,1,.855-1.337A4.024,4.024,0,0,1,2.435.351,3.784,3.784,0,0,1,5.532.34a4,4,0,0,1,1.271.9,4.238,4.238,0,0,1,.859,1.335,4.385,4.385,0,0,1,0,3.268A4.26,4.26,0,0,1,6.8,7.181a4.022,4.022,0,0,1-1.271.9A3.784,3.784,0,0,1,3.982,8.417Z" transform="translate(18.169 18.847)" fill="#7cacff"/>
        <path id="Tracé_6131-2" data-name="Tracé 6131" d="M3.336,7.022a3.178,3.178,0,0,1-1.3-.281A3.368,3.368,0,0,1,.979,5.984,3.557,3.557,0,0,1,.263,4.867a3.656,3.656,0,0,1,0-2.722A3.54,3.54,0,0,1,.979,1.031,3.352,3.352,0,0,1,2.04.278a3.176,3.176,0,0,1,2.594,0A3.369,3.369,0,0,1,5.7,1.035a3.558,3.558,0,0,1,.719,1.118,3.655,3.655,0,0,1,0,2.729A3.54,3.54,0,0,1,5.7,6a3.351,3.351,0,0,1-1.064.751A3.169,3.169,0,0,1,3.336,7.022Z" transform="translate(24.939 28.856)" fill="#5090ff"/>
      </g>
      <path id="Tracé_6892" data-name="Tracé 6892" d="M229.713,220.355a46.551,46.551,0,0,0-6.642-9.1c-1.278-1.4-5.878-5.5-6.2-5.789-11.623-9.507-27.463-15.326-42.216-12.431-20.057,3.938-24.069,23.731-17.706,46.3,6.524,23.173,31.151,45.316,58.115,35.824C238.427,266.949,239.823,238.884,229.713,220.355Zm-66.975-15.517c5.878-8.552,20.454-9.8,27.36-8.082,10.036,2.513,17.427,6.083,23.878,11.9-16.663,11.755-32.327,25.92-47.859,39.086C159.652,235.5,155.391,215.608,162.738,204.838Zm55.837,63.3c-18.177,11.608-39.909-1.322-50.165-16.457v-.088c16.457-12.284,34.046-25.568,48.285-40.335a54.884,54.884,0,0,1,5.319,6.289c10.315,14.385,14.283,39.336-3.365,50.592Z" transform="translate(72.47 90.229)" fill="#fff"/>
      <path id="Tracé_6893" data-name="Tracé 6893" d="M234.943,248.239c-.147-.5-1-.573-1.1,0-.338,2.057-.25,4.173-.456,6.26a76.861,76.861,0,0,1-1.352,7.744,1.135,1.135,0,0,0,2.189.6C235.383,258.436,236.147,252.676,234.943,248.239Z" transform="translate(109.001 116.301)" fill="#213962"/>
      <path id="Tracé_6894" data-name="Tracé 6894" d="M230.216,256.254c-.206-.558-1.1-.514-1.087.147a33.707,33.707,0,0,1-.558,8.067c-.456,2.013-1.69,3.85-1.352,5.878a.882.882,0,0,0,1.264.514c1.969-1.249,2.248-3.923,2.527-6.1a17.632,17.632,0,0,0-.793-8.508Z" transform="translate(106.733 120.071)" fill="#213962"/>
      <path id="Tracé_6895" data-name="Tracé 6895" d="M226.224,265.379c-1.572.882-2.939,2.072-4.54,2.836a18.089,18.089,0,0,1-5.584,1.469c-.485,0-.838.793-.279,1.029a8.39,8.39,0,0,0,6.833.294,7.758,7.758,0,0,0,4.952-4.6.94.94,0,0,0-1.381-1.029Z" transform="translate(101.277 124.478)" fill="#213962"/>
      <path id="Tracé_6896" data-name="Tracé 6896" d="M233.411,156.428a37.2,37.2,0,0,0-5.393,3.321,51.591,51.591,0,0,1-6.847,2.939.676.676,0,0,0,.191,1.308c4.408.367,11.359-2.131,12.945-6.73a.72.72,0,0,0-.9-.838Z" transform="translate(103.715 73.382)" fill="#213962"/>
      <path id="Tracé_6897" data-name="Tracé 6897" d="M235.307,156.873c-.147-.367-.779-.264-.852.118a39.545,39.545,0,0,1-1.646,6.892c-.852,2.072-2.6,3.747-3.218,5.878-.206.749.573,1.719,1.381,1.381C235.571,169.187,237.1,161.075,235.307,156.873Z" transform="translate(107.858 73.495)" fill="#213962"/>
      <path id="Tracé_6898" data-name="Tracé 6898" d="M232.041,194.453c-.367-2.131-1-4.834-2.63-6.363a.338.338,0,0,0-.573.235c-.264,2.145.5,4.482.749,6.627s-.073,4.614.485,6.789a1.058,1.058,0,0,0,2.028,0C232.908,199.537,232.408,196.819,232.041,194.453Z" transform="translate(107.495 88.212)" fill="#213962"/>
      <path id="Tracé_6899" data-name="Tracé 6899" d="M234.08,222.745a.25.25,0,0,0-.294,0c-1.278,1.014-1.014,3.644-1.469,5.172-.691,2.189-2.1,3.938-2.939,6.054-.323.838.793,1.6,1.469,1.161a10.285,10.285,0,0,0,3.835-6.539C235.08,227.065,235.785,223.7,234.08,222.745Z" transform="translate(107.747 104.501)" fill="#213962"/>
      <path id="Tracé_6900" data-name="Tracé 6900" d="M172.014,268.183c-2.366-1.469-5.246-1.984-7.67-3.438a14.473,14.473,0,0,1-5.011-5.789.4.4,0,0,0-.705.1c-1.249,6.362,7.67,11.006,12.887,10.976a1,1,0,0,0,.5-1.851Z" transform="translate(74.508 121.439)" fill="#213962"/>
      <path id="Tracé_6901" data-name="Tracé 6901" d="M166.908,161.775c-2.542-.632-4.687-1.293-6.392-3.453-1.469-1.822-2.4-3.923-3.923-5.672a.338.338,0,0,0-.573.235c.162,4.923,5.069,13.225,11.094,10.492a.882.882,0,0,0-.206-1.6Z" transform="translate(73.339 71.576)" fill="#213962"/>
      <path id="Tracé_6902" data-name="Tracé 6902" d="M177.877,167.4c-1.984-1.146-4.173-1.469-5.966-3.056-1.543-1.308-2.5-3.262-4.07-4.408a.5.5,0,0,0-.72.294c-.47,2.38,1.646,4.952,3.35,6.377,1.925,1.616,4.585,3.174,7.185,2.6a.97.97,0,0,0,.22-1.807Z" transform="translate(78.519 75.013)" fill="#213962"/>
      <path id="Tracé_6903" data-name="Tracé 6903" d="M254.28,49.87c-.073-.309-.6-.264-.558.073.9,8.816-.6,17.78-5.7,25.23-4.585,6.671-12.446,12.5-20.983,10.286-4.908-1.278-10.139-4.717-14.606-7.038a130.042,130.042,0,0,1-25.891-16.692c-7.435-6.451-12.3-13.989-17.324-22.32-.5-.808-1.881-.294-1.572.661,7.347,22.761,36.588,39.674,57.542,47.241C245.714,94.716,258.894,66.107,254.28,49.87Z" transform="translate(78.775 18.276)" fill="#213962"/>
      <path id="Tracé_6904" data-name="Tracé 6904" d="M198.66,18.033c-4.893-4.247-16.369-12.211-21.924-4.981-5.878,7.67-3.336,20.968.691,28.727.132.264.47,0,.441-.176-1.278-8.581-4.408-16.163-.661-24.774,4.408-10.183,14.532-1.117,21.38,1.337a.076.076,0,0,0,.073-.132Z" transform="translate(81.438 4.723)" fill="#213962"/>
      <path id="Tracé_6905" data-name="Tracé 6905" d="M169.809,113.339c0,.793-1.131,1.469-2.542,1.469s-2.557-.647-2.557-1.469,1.146-1.469,2.557-1.469S169.809,112.546,169.809,113.339Z" transform="translate(77.419 52.478)" fill="#213962"/>
      <path id="Tracé_6906" data-name="Tracé 6906" d="M284.529,462.483a207.451,207.451,0,0,1-22.041-1.2c-42.466-4.511-130.777-13.886-158.3-119.9C82.324,256.957,107.216,169.7,124.011,125.21c11.932-31.651,32.959-39.88,48.579-37.044a36.735,36.735,0,0,1,29.7,36.515h-5.3A31.431,31.431,0,0,0,171.634,93.4c-17.633-3.218-33.561,9.375-42.716,33.649-16.575,43.95-41.1,130-19.514,213.005C135.943,442.484,221.829,451.609,263.105,456c65.256,6.95,104.107-17.736,112.645-43.583,5.51-16.663-1.631-32.973-19.764-43.656l2.292-4.6c20.454,12.049,28.874,30.711,22.526,49.96C372.576,438.752,339.455,462.483,284.529,462.483Z" transform="translate(44.985 41.107)" fill="#7cacff"/>
      <path id="Tracé_6907" data-name="Tracé 6907" d="M227.417,102.594c-10.668,2.836-21.248,4.276-32.18,1.866-9.918-2.2-23.731-6.568-27.742-16.663a.2.2,0,0,0-.382.1c2.131,10.168,12.975,15.061,21.835,17.868a54.368,54.368,0,0,0,38.675-2.7C227.887,102.946,227.7,102.535,227.417,102.594Z" transform="translate(78.543 41.109)" fill="#fff"/>
      <path id="Tracé_6908" data-name="Tracé 6908" d="M198.393,137.286c-10.389-1.7-22.541-6.01-28.668-9.639s-9.845-8.816-14.782-13.739a.235.235,0,0,0-.382.22c4.7,12.108,22.453,22.041,43.421,24.186C200.01,138.52,199.775,137.579,198.393,137.286Z" transform="translate(72.653 53.409)" fill="#fff"/>
    </g>
  </g>
</svg>
