<svg xmlns="http://www.w3.org/2000/svg" width="152.21" height="217.139" viewBox="0 0 152.21 217.139">
  <g id="Likdom_Women" data-name="Likdom Women" transform="translate(82.491 0.01)">
    <g id="Women" transform="translate(-0.01 -0.009)">
      <path id="Tracé_403" data-name="Tracé 403" d="M253.5.322c-6.422-2.6-10.8,10.932-10.8,10.932S259.369,3.295,253.5.322Z" transform="translate(-205.593 0.009)" fill="#2d4a6a"/>
      <path id="Tracé_404" data-name="Tracé 404" d="M250.91,15.578c-3.386-1.367-8.21,8.773-8.21,8.773S254,17.147,250.91,15.578Z" transform="translate(-205.593 -13.087)" fill="#223b56"/>
      <path id="Tracé_405" data-name="Tracé 405" d="M149.9.322c6.422-2.6,10.8,10.932,10.8,10.932S144.031,3.295,149.9.322Z" transform="translate(-125.919 0.009)" fill="#2d4a6a"/>
      <path id="Tracé_406" data-name="Tracé 406" d="M170.822,15.578c3.386-1.367,8.21,8.773,8.21,8.773S167.731,17.147,170.822,15.578Z" transform="translate(-144.25 -13.087)" fill="#223b56"/>
      <path id="Tracé_407" data-name="Tracé 407" d="M216.938,51.824a3.364,3.364,0,1,1-3.364-3.364A3.364,3.364,0,0,1,216.938,51.824Z" transform="translate(-178.07 -41.048)" fill="#223b56"/>
      <path id="Tracé_408" data-name="Tracé 408" d="M114.867,85.934c.41.106-5.63-33.935,18.6-23.037-12.781,6.617-18.189,23.142-18.189,23.142" transform="translate(-96.978 -51.455)" fill="#2d4a6a"/>
      <path id="Tracé_409" data-name="Tracé 409" d="M249.142,85.934c-.408.106,6.909-33.935-17.322-23.037,12.782,6.617,16.914,23.142,16.914,23.142" transform="translate(-196.377 -51.455)" fill="#2d4a6a"/>
      <path id="Tracé_410" data-name="Tracé 410" d="M88.931,225.47S91.822,244.324,82.6,246.6c1.529,1.85,12.579,6.948,22.882.982Z" transform="translate(-69.971 -190.994)" fill="#1b0900"/>
      <path id="Tracé_411" data-name="Tracé 411" d="M238.111,225.47s-2.889,18.854,6.334,21.133c-1.529,1.85-12.58,6.948-22.885.982Z" transform="translate(-187.686 -190.994)" fill="#1b0900"/>
      <path id="Tracé_412" data-name="Tracé 412" d="M70.94,1388.61l-10.67,2.265v2.55H76.242v-4.815Z" transform="translate(-51.052 -1176.286)" fill="#dbdbdb"/>
      <path id="Tracé_413" data-name="Tracé 413" d="M92.08,903.89l2.834,34.695,2.973,39.056s2.373,3.211,5.352,0l3.4-23.226-1.275-15.83,7.4-34.695Z" transform="translate(-78.001 -765.687)" fill="#1a828f"/>
      <path id="Tracé_414" data-name="Tracé 414" d="M138.318,906.31l-3.858,34.559,2.382,40.522a7.4,7.4,0,0,0,2.294-1.326l3.4-23.226-1.275-15.83,7.4-34.693Z" transform="translate(-113.901 -767.737)" fill="#087582"/>
      <path id="Tracé_415" data-name="Tracé 415" d="M229.813,1388.61H226.1l-2.69,2.265v2.55h9.21v-2.55Z" transform="translate(-189.252 -1176.286)" fill="#dbdbdb"/>
      <path id="Tracé_416" data-name="Tracé 416" d="M205.194,906.31l-.991,34.625-4.814,39.125s-2.457,1.988-3.733-.168l-3.4-23.225,1.277-15.83L187.3,906.31Z" transform="translate(-158.663 -767.737)" fill="#1a828f"/>
      <path id="Tracé_417" data-name="Tracé 417" d="M235.157,1399c-2.739,0-4.958.356-4.958.8h7.132C237.332,1399.361,237.895,1399,235.157,1399Z" transform="translate(-195.003 -1185.087)" fill="#d8dade"/>
      <path id="Tracé_418" data-name="Tracé 418" d="M62.539,445.15c.07.141-8.646,9.12-10.866,36.273L50.45,509.685" transform="translate(-42.734 -377.086)" fill="none" stroke="#f0a38b" stroke-width="7"/>
      <path id="Tracé_419" data-name="Tracé 419" d="M35.61,408.786c.566-22.376,17.879-29.247,17.879-29.247l3.5,16.209c-7.8,2.551-9.346,13.03-9.346,13.03Z" transform="translate(-30.163 -321.506)" fill="#fff"/>
      <path id="Tracé_420" data-name="Tracé 420" d="M134.142,387.616s-14.244,20.217-6.974,50.294c-9.855,8.1-35.088-20.942-35.088-38.775s9.4-20.394,13.833-21.905H129.04C132.628,378.485,134.142,382.38,134.142,387.616Z" transform="translate(-78.004 -319.551)" fill="#fff"/>
      <path id="Tracé_421" data-name="Tracé 421" d="M114.955,377.23c-6.091,3.242-9.4,10.952-9.4,18.128h4.578c.587-10.2,1.343-15.484,8.424-18.128Z" transform="translate(-89.42 -319.549)" fill="#d8dade"/>
      <path id="Tracé_422" data-name="Tracé 422" d="M258.127,377.23c-6.091,3.242-9.4,10.952-9.4,18.128l2.064,2.752c3.176-11.129,3.86-18.237,10.941-20.881Z" transform="translate(-210.701 -319.549)" fill="#d8dade"/>
      <path id="Tracé_423" data-name="Tracé 423" d="M104.813,541.688c-3.444,18.663-2.167,30.812-2.167,30.812-20.084,4.557-39.166-.963-39.166-.963l5.487-61.886-1.113-32.86c4.182-5.046,21.069-4.069,26.2,0-2.841,29.722,9.3,39.718,9.3,39.718S108.257,530.051,104.813,541.688Z" transform="translate(-53.771 -400.987)" fill="#27425f"/>
      <path id="Tracé_424" data-name="Tracé 424" d="M102.87,589.09c.684,0,2.673,10.092,2.673,22.148s-2.249,21.823-2.934,21.823.459-9.77.459-21.823S102.185,589.09,102.87,589.09Z" transform="translate(-86.734 -499.017)" fill="#2d4a6a"/>
      <path id="Tracé_425" data-name="Tracé 425" d="M101.477,377.23c-6.092,3.242-9.4,10.952-9.4,18.128h4.575c.71-11.469,3.872-15.484,10.953-18.128Z" transform="translate(-78.001 -319.549)" fill="#27425f"/>
      <path id="Tracé_426" data-name="Tracé 426" d="M241.6,377.23c-8.539,2.644-9.4,10.952-9.4,18.128h4.774c-.283-10.67,2.953-14.952,10.759-18.128Z" transform="translate(-196.699 -319.549)" fill="#27425f"/>
      <path id="Tracé_427" data-name="Tracé 427" d="M134.459,550.668c0,6.575-4.376,11.917-9.774,11.917s-9.774-5.337-9.774-11.917,4.376-5.078,9.774-5.078S134.459,544.085,134.459,550.668Z" transform="translate(-97.341 -462.041)" fill="#3d5b8e"/>
      <path id="Tracé_429" data-name="Tracé 429" d="M237.58,445.15c.07.141,8.823,14.163,6.6,41.316l-29.993,3.159" transform="translate(-181.446 -377.085)" fill="none" stroke="#f0a38b" stroke-width="7"/>
      <path id="Tracé_430" data-name="Tracé 430" d="M185.71,684.375s7-.888,6.892,3.606-4.318.976-4.318.976Z" transform="translate(-157.315 -579.67)" fill="#c8deff"/>
      <path id="Tracé_431" data-name="Tracé 431" d="M190.2,688.243c-.034-.4.988-1.736.988-1.736a9.534,9.534,0,0,0-5.5-1.749C187.776,685.5,189.527,687.687,190.2,688.243Z" transform="translate(-157.29 -580.054)" fill="#7395cf"/>
      <path id="Tracé_432" data-name="Tracé 432" d="M124.766,650.108V646.8l5.488,2.831c-1.962,3.525-1.28,1.338-2.4.953l-1.788-.612c0,3.586-4.173,4.282-4.173,3.178C124.886,652.55,124.766,650.108,124.766,650.108Z" transform="translate(-103.253 -547.901)" fill="#e96f4c"/>
      <path id="Tracé_433" data-name="Tracé 433" d="M149.6,667.587l1.786.612c.476.162.628.642.792.882-.52.492-.434-.632-1.211-.9l-1.788-.612Z" transform="translate(-126.37 -565.495)" fill="#843f25"/>
      <path id="Tracé_434" data-name="Tracé 434" d="M124.766,650.108V646.8l.421.216v3.107s.118,2.447-2.878,3.049c0,.251.214.408.546.459-.558.037-.965-.131-.965-.479C124.886,652.55,124.766,650.108,124.766,650.108Z" transform="translate(-103.253 -547.901)" fill="#843f25"/>
      <rect id="Rectangle_61" data-name="Rectangle 61" width="1.974" height="2.107" transform="translate(17.183 97.645)" fill="#a7d7e0"/>
      <rect id="Rectangle_62" data-name="Rectangle 62" width="1.974" height="0.821" transform="translate(17.183 98.899)" fill="#7cc5d0"/>
      <rect id="Rectangle_63" data-name="Rectangle 63" width="1.974" height="0.411" transform="translate(17.183 97.887)" fill="#c7e6eb"/>
      <path id="Tracé_435" data-name="Tracé 435" d="M134.335,637.65l3.806,4.146-1.329,2.6h-5.075l-.846-1.558-5.568-2.824H123.64V637.65Z" transform="translate(-104.736 -540.15)" fill="#e96f4c"/>
      <path id="Tracé_436" data-name="Tracé 436" d="M136.95,642.692l-3.806-4.147h-9.5v-.895h10.695l3.806,4.146-1.329,2.6Z" transform="translate(-104.736 -540.15)" fill="#fff" opacity="0.1"/>
      <path id="Tracé_437" data-name="Tracé 437" d="M130.25,638.551a17.918,17.918,0,0,0,4.37.263,18.424,18.424,0,0,0,4.373-.263,18.456,18.456,0,0,0-4.373-.261A18.715,18.715,0,0,0,130.25,638.551Z" transform="translate(-110.335 -540.692)" fill="#fff" opacity="0.3"/>
      <path id="Tracé_438" data-name="Tracé 438" d="M191.4,641.491c.471.514.765,1.008.664,1.1s-.573-.239-1.046-.752-.765-1.008-.662-1.1S190.929,640.977,191.4,641.491Z" transform="translate(-161.234 -542.752)" fill="#fff" opacity="0.3"/>
      <path id="Tracé_439" data-name="Tracé 439" d="M121.851,704.556h0s4.987-3.375,5.563-11.646h5.858l4.086,23.294h-12.2a6.292,6.292,0,0,1-3.3-11.648Z" transform="translate(-100.691 -586.961)" fill="#7cc5d0"/>
      <path id="Tracé_440" data-name="Tracé 440" d="M129.487,711.053h0s5.02-3.032,5.534-10.473h4.346l3.67,20.949H132.458a5.658,5.658,0,0,1-2.971-10.475Z" transform="translate(-107.41 -593.458)" fill="#a7d7e0"/>
      <path id="Tracé_441" data-name="Tracé 441" d="M158.219,704.74c-.378-.182-.235,2.393-1.529,5.092s-3.459,4.087-3.081,4.268,2.7-1.07,3.993-3.776S158.6,704.924,158.219,704.74Z" transform="translate(-130.085 -596.974)" fill="#c7e6eb"/>
      <path id="Tracé_442" data-name="Tracé 442" d="M188.319,703.986a.648.648,0,1,0,.8-.436A.648.648,0,0,0,188.319,703.986Z" transform="translate(-159.502 -595.951)" fill="#c7e6eb"/>
      <path id="Tracé_443" data-name="Tracé 443" d="M145.183,764.661a8.09,8.09,0,0,0,2.988-2.561h4.451l1.722,9.826h-7.083a3.928,3.928,0,0,1-2.078-7.265Z" transform="translate(-121.413 -645.571)" fill="#e96f4c"/>
      <path id="Tracé_444" data-name="Tracé 444" d="M140.7,765.76a4.334,4.334,0,0,0,4.335,4.334h7.557l-1.866-10.634h-5a7.68,7.68,0,0,1-2.962,2.61h0A4.335,4.335,0,0,0,140.7,765.76Zm.4,0a3.91,3.91,0,0,1,1.853-3.335,8.089,8.089,0,0,0,2.988-2.561H150.4l1.722,9.826h-7.083A3.935,3.935,0,0,1,141.1,765.76Z" transform="translate(-119.187 -643.335)" fill="#fff"/>
      <path id="Tracé_445" data-name="Tracé 445" d="M175.173,770.3a1.67,1.67,0,0,0,1.67,1.668h0a1.67,1.67,0,0,0,1.665-1.668v-2.7a1.665,1.665,0,0,0-1.668-1.665h0a1.667,1.667,0,0,0-1.67,1.665Z" transform="translate(-148.387 -648.816)" fill="#c05c3c"/>
      <path id="Tracé_446" data-name="Tracé 446" d="M178.63,773.664a1.142,1.142,0,0,0,1.144,1.141h0a1.141,1.141,0,0,0,1.142-1.141v-2.5a1.141,1.141,0,0,0-1.142-1.141h0a1.142,1.142,0,0,0-1.144,1.141Z" transform="translate(-151.318 -652.28)" fill="#843f25"/>
      <rect id="Rectangle_64" data-name="Rectangle 64" width="6.9" height="0.437" transform="translate(24.964 123.368)" fill="#843f25"/>
      <rect id="Rectangle_65" data-name="Rectangle 65" width="6.9" height="0.439" transform="translate(24.964 124.171)" fill="#843f25"/>
      <rect id="Rectangle_66" data-name="Rectangle 66" width="6.9" height="0.439" transform="translate(24.964 124.975)" fill="#843f25"/>
      <path id="Tracé_447" data-name="Tracé 447" d="M169.18,681.1a.407.407,0,0,0,.405.407h6.234a.408.408,0,0,0,.408-.407v-1.356a.408.408,0,0,0-.408-.407h-6.234a.407.407,0,0,0-.405.407Z" transform="translate(-143.313 -575.465)" fill="#2d4a6a"/>
      <path id="Tracé_448" data-name="Tracé 448" d="M169.489,679.4v1.682a.359.359,0,0,0,.358.359h5.711a.359.359,0,0,0,.359-.359V679.4a.41.41,0,0,1,.306.395v1.359a.408.408,0,0,1-.408.407h-6.23a.407.407,0,0,1-.405-.407V679.8A.405.405,0,0,1,169.489,679.4Z" transform="translate(-143.313 -575.516)" fill="#182f46"/>
      <path id="Tracé_449" data-name="Tracé 449" d="M208.322,680.94a.122.122,0,0,1,.122.122V682.8H208.2v-1.737a.121.121,0,0,1,.122-.122Z" transform="translate(-176.366 -576.821)" fill="#182f46"/>
      <path id="Tracé_450" data-name="Tracé 450" d="M204,680.94a.122.122,0,0,1,.122.122V682.8h-.243v-1.737A.122.122,0,0,1,204,680.94Z" transform="translate(-172.707 -576.821)" fill="#182f46"/>
      <path id="Tracé_451" data-name="Tracé 451" d="M199.692,680.94a.122.122,0,0,1,.121.122V682.8h-.243v-1.737A.122.122,0,0,1,199.692,680.94Z" transform="translate(-169.056 -576.821)" fill="#182f46"/>
      <path id="Tracé_452" data-name="Tracé 452" d="M195.374,680.94a.121.121,0,0,1,.119.122V682.8h-.243v-1.737a.122.122,0,0,1,.124-.122Z" transform="translate(-165.396 -576.821)" fill="#182f46"/>
      <path id="Tracé_453" data-name="Tracé 453" d="M191.062,680.94a.124.124,0,0,1,.121.122V682.8h-.243v-1.737A.122.122,0,0,1,191.062,680.94Z" transform="translate(-161.745 -576.821)" fill="#182f46"/>
      <path id="Tracé_454" data-name="Tracé 454" d="M186.752,680.94a.122.122,0,0,1,.121.122V682.8h-.243v-1.737A.122.122,0,0,1,186.752,680.94Z" transform="translate(-158.094 -576.821)" fill="#182f46"/>
      <rect id="Rectangle_67" data-name="Rectangle 67" width="0.15" height="1.846" transform="translate(31.616 103.969)" fill="#406f95"/>
      <rect id="Rectangle_68" data-name="Rectangle 68" width="0.151" height="1.846" transform="translate(30.958 103.969)" fill="#406f95"/>
      <rect id="Rectangle_69" data-name="Rectangle 69" width="0.153" height="1.846" transform="translate(30.297 103.969)" fill="#406f95"/>
      <rect id="Rectangle_70" data-name="Rectangle 70" width="0.151" height="1.846" transform="translate(29.636 103.969)" fill="#406f95"/>
      <rect id="Rectangle_71" data-name="Rectangle 71" width="0.153" height="1.846" transform="translate(28.978 103.969)" fill="#406f95"/>
      <rect id="Rectangle_72" data-name="Rectangle 72" width="0.15" height="1.846" transform="translate(28.32 103.969)" fill="#406f95"/>
      <path id="Tracé_455" data-name="Tracé 455" d="M211.09,681.807l.153-.145v-1.7h-.153Z" transform="translate(-178.815 -575.99)" fill="#406f95"/>
      <path id="Tracé_456" data-name="Tracé 456" d="M182.441,680.94a.121.121,0,0,1,.121.122V682.8h-.242v-1.737a.121.121,0,0,1,.121-.122Z" transform="translate(-154.443 -576.821)" fill="#182f46"/>
      <path id="Tracé_457" data-name="Tracé 457" d="M178.122,680.94a.122.122,0,0,1,.121.122V682.8H178v-1.737A.122.122,0,0,1,178.122,680.94Z" transform="translate(-150.784 -576.821)" fill="#182f46"/>
      <path id="Tracé_458" data-name="Tracé 458" d="M173.811,680.94a.121.121,0,0,1,.121.122V682.8h-.242v-1.737a.122.122,0,0,1,.121-.122Z" transform="translate(-147.133 -576.821)" fill="#182f46"/>
      <rect id="Rectangle_73" data-name="Rectangle 73" width="0.151" height="1.846" transform="translate(27.66 103.969)" fill="#406f95"/>
      <rect id="Rectangle_74" data-name="Rectangle 74" width="0.15" height="1.846" transform="translate(27.001 103.969)" fill="#406f95"/>
      <rect id="Rectangle_75" data-name="Rectangle 75" width="0.15" height="1.846" transform="translate(26.342 103.969)" fill="#406f95"/>
      <path id="Tracé_459" data-name="Tracé 459" d="M226.328,707.931l-11.878-1.174v-8.985l11.878-1.561Z" transform="translate(-181.662 -589.756)" fill="#c8deff"/>
      <path id="Tracé_460" data-name="Tracé 460" d="M160.7,686.041a5.681,5.681,0,0,0-5.748-3.679c-4.591.087-4.488,10.426-3.156,11.985s4.366,3.317,8.9.677S160.7,686.041,160.7,686.041Z" transform="translate(-127.909 -578.024)" fill="#c8deff"/>
      <path id="Tracé_461" data-name="Tracé 461" d="M337.6,408.786c-.566-22.376-17.88-29.247-17.88-29.247l-3.5,16.209c7.8,2.551,9.346,13.03,9.346,13.03Z" transform="translate(-267.874 -321.506)" fill="#fff"/>
      <path id="Tracé_462" data-name="Tracé 462" d="M107.949,377.23c.685,0-7.877,4.838-7.838,13.028l-1.362,15.2c-1.442,0-1.236,1.223-1.309-14.5C97.4,382.77,107.266,377.233,107.949,377.23Z" transform="translate(-82.541 -319.549)" fill="#2d4a6a"/>
      <path id="Tracé_463" data-name="Tracé 463" d="M248.753,377.23c.685,0-7.878,4.838-7.838,13.028l-1.367,10.519c-1.439,0-1.306-3.153-1.306-9.816C238.234,382.77,248.061,377.233,248.753,377.23Z" transform="translate(-201.814 -319.549)" fill="#2d4a6a"/>
      <path id="Tracé_464" data-name="Tracé 464" d="M196.688,379.54c-3.182,2.6-1.939,3.883-9.392,3.883-5.572,0-6.149-1.281-2.967-3.883Z" transform="translate(-154.507 -321.506)" fill="#f0a38b"/>
      <path id="Tracé_465" data-name="Tracé 465" d="M119.267,221.469c0,2.28-1.541,4.129-3.444,4.129s-3.444-1.85-3.444-4.129,1.541-4.129,3.444-4.129S119.267,219.186,119.267,221.469Z" transform="translate(-95.197 -184.104)" fill="#f0a38b"/>
      <path id="Tracé_466" data-name="Tracé 466" d="M318.147,221.469c0,2.28-1.543,4.129-3.444,4.129s-3.444-1.85-3.444-4.129,1.54-4.129,3.444-4.129S318.147,219.186,318.147,221.469Z" transform="translate(-263.67 -184.104)" fill="#f0a38b"/>
      <path id="Tracé_467" data-name="Tracé 467" d="M212.91,340.054l-7.34-.48h0c.017-.517.011-4.88,0-8.724l7.364-.031C212.956,339.473,212.924,339.88,212.91,340.054Z" transform="translate(-174.139 -280.235)" fill="#f0a38b"/>
      <path id="Tracé_468" data-name="Tracé 468" d="M211.648,337.475s-6.586,1.629-6.24-6.644l7.364-.031S213.132,337.475,211.648,337.475Z" transform="translate(-173.99 -280.218)" fill="#e8846c"/>
      <path id="Tracé_469" data-name="Tracé 469" d="M154.566,111.067c0,11.154-7.646,26.226-17.1,26.226s-17.1-15.073-17.1-26.226,7.656-14.157,17.1-14.157S154.566,99.915,154.566,111.067Z" transform="translate(-101.968 -82.09)" fill="#f0a38b"/>
      <path id="Tracé_470" data-name="Tracé 470" d="M311.57,172.62c1.4,5.017,4.014,7.387,1.879,16.152.031.335,2.859-6.522,3.613-16.152Z" transform="translate(-263.933 -146.222)" fill="#1b0900"/>
      <path id="Tracé_471" data-name="Tracé 471" d="M121.5,102.29c-.058.638-17.868-34.1,28.1-31.653-2.708,2.259,1.447,9.738,4.405,11.114,2.141,4.925-6.75,14.424-18.492-.679,0,0-.391,6.89-13.66,9.972C120.73,93.642,121.452,97.691,121.5,102.29Z" transform="translate(-100.009 -59.729)" fill="#1b0900"/>
      <path id="Tracé_472" data-name="Tracé 472" d="M201.68,311.2c0,2.014,2.09,3.647,4.667,3.647s4.667-1.633,4.667-3.647Z" transform="translate(-170.844 -263.615)" fill="#fff"/>
      <path id="Tracé_473" data-name="Tracé 473" d="M230.535,246.45l.508-2.11.193,2.329,1.642,5.832-5.387.355,4.416-.914Z" transform="translate(-192.708 -206.978)" fill="#272b33"/>
      <path id="Tracé_474" data-name="Tracé 474" d="M247.39,211.792l3.17-.292a11.71,11.71,0,0,0,5.367,1.081C254.364,213.275,247.39,211.792,247.39,211.792Z" transform="translate(-209.565 -179.157)" fill="#1b0900"/>
      <path id="Tracé_475" data-name="Tracé 475" d="M174.276,211.792l-3.17-.292a11.7,11.7,0,0,1-5.366,1.081C167.309,213.275,174.276,211.792,174.276,211.792Z" transform="translate(-140.399 -179.157)" fill="#1b0900"/>
      <path id="Tracé_476" data-name="Tracé 476" d="M264.013,231.6c0,1.442-.4,2.61-.9,2.61s-.9-1.168-.9-2.61.408-2.6.9-2.6S264.013,230.162,264.013,231.6Z" transform="translate(-222.119 -193.981)" fill="#1b0900"/>
      <path id="Tracé_477" data-name="Tracé 477" d="M192.364,231.6c0,1.442-.4,2.61-.9,2.61s-.9-1.168-.9-2.61.4-2.6.9-2.6S192.364,230.162,192.364,231.6Z" transform="translate(-161.424 -193.981)" fill="#1b0900"/>
      <path id="Tracé_478" data-name="Tracé 478" d="M269,229.19v1.529a1.48,1.48,0,0,0,1.367-1.223C270.07,229.956,269,229.19,269,229.19Z" transform="translate(-227.871 -194.142)" fill="#1b0900"/>
      <path id="Tracé_479" data-name="Tracé 479" d="M197.2,229.19v1.529a1.493,1.493,0,0,0,1.376-1.223C198.264,229.956,197.2,229.19,197.2,229.19Z" transform="translate(-167.048 -194.142)" fill="#1b0900"/>
      <path id="Tracé_480" data-name="Tracé 480" d="M62.106,870.142s.852-6.244-3.619-6.693-.22,3.23-.22,3.23h0s1.491,5.181,2.777,5.352C61.581,872.1,62.106,870.142,62.106,870.142Z" transform="translate(-47.808 -731.391)" fill="#c8deff"/>
      <path id="Tracé_481" data-name="Tracé 481" d="M11.7,794.8l-.306,11.932,8.916,1.112,3.02-11.593Z" transform="translate(-9.647 -673.271)" fill="#c8deff"/>
      <path id="Tracé_482" data-name="Tracé 482" d="M10.65,865.045a33.758,33.758,0,0,1,.266,9.481c-.651,4.548-7.713,1.754-9.1.239a9.16,9.16,0,0,1-.083-10.831C4.911,859.757,10.65,865.045,10.65,865.045Z" transform="translate(0.01 -730.474)" fill="#c8deff"/>
    </g>
    <g id="Aspirator" transform="translate(-82.491 96.13)">
      <g id="Capa_1" data-name="Capa 1">
        <path id="Tracé_483" data-name="Tracé 483" d="M163.039,103.9H157.71V20.8a20.826,20.826,0,0,1,41.652,0V35.753h-5.329V20.8a15.5,15.5,0,0,0-30.994,0Z" transform="translate(-134.061)" fill="#a7d7e0"/>
        <path id="Tracé_484" data-name="Tracé 484" d="M213,51.521V36.433a17.9,17.9,0,0,0-35.8,0v83.231h2.4V36.571a15.5,15.5,0,0,1,30.994,0V51.521Z" transform="translate(-150.622 -15.766)" fill="#7cc5d0"/>
        <path id="Tracé_485" data-name="Tracé 485" d="M265.8,644.8c0,6.673-3.684,12.083-8.229,12.083s-8.226-5.4-8.226-12.083,3.683-12.082,8.226-12.082S265.8,638.13,265.8,644.8Z" transform="translate(-211.943 -537.885)" fill="#1b0900"/>
        <path id="Tracé_486" data-name="Tracé 486" d="M294.265,655.579c0,5.623-2.436,10.18-5.437,10.18s-5.438-4.557-5.438-10.18,2.434-10.179,5.438-10.179S294.265,649.957,294.265,655.579Z" transform="translate(-240.885 -548.662)" fill="#a7d7e0"/>
        <path id="Tracé_487" data-name="Tracé 487" d="M298.526,665.277c0,4.674-2.024,8.468-4.521,8.468s-4.524-3.794-4.524-8.468,2.026-8.467,4.524-8.467S298.526,660.6,298.526,665.277Z" transform="translate(-246.061 -558.36)" fill="#8aa0a2"/>
        <path id="Tracé_488" data-name="Tracé 488" d="M309.421,690.086c0,2.26-.978,4.092-2.183,4.092s-2.188-1.832-2.188-4.092.978-4.086,2.188-4.086S309.421,687.826,309.421,690.086Z" transform="translate(-259.294 -583.169)" fill="#a7d7e0"/>
        <path id="Tracé_489" data-name="Tracé 489" d="M337.136,288.91a22.727,22.727,0,0,1-22.73,22.729h0a22.726,22.726,0,0,1-22.727-22.73v-37.93a22.726,22.726,0,0,1,22.73-22.729h0a22.727,22.727,0,0,1,22.729,22.73Z" transform="translate(-247.943 -194.111)" fill="#11646f"/>
        <path id="Tracé_490" data-name="Tracé 490" d="M327.075,295.592A17.707,17.707,0,0,1,309.367,313.3h0a17.707,17.707,0,0,1-17.707-17.707V248.337a17.707,17.707,0,0,1,17.707-17.707h0a17.707,17.707,0,0,1,17.707,17.707Z" transform="translate(-247.921 -196.134)" fill="#1a828f"/>
        <rect id="Rectangle_76" data-name="Rectangle 76" width="10.558" height="0.89" transform="translate(47.028 83.757)" fill="#11646f"/>
        <path id="Tracé_491" data-name="Tracé 491" d="M487.084,384.77H479.92v36.056h.888V385.657h6.276Z" transform="translate(-407.936 -327.108)" fill="#11646f"/>
        <rect id="Rectangle_77" data-name="Rectangle 77" width="10.558" height="0.887" transform="translate(47.028 85.913)" fill="#11646f"/>
        <rect id="Rectangle_78" data-name="Rectangle 78" width="10.558" height="0.887" transform="translate(47.028 88.068)" fill="#11646f"/>
        <rect id="Rectangle_79" data-name="Rectangle 79" width="10.558" height="0.89" transform="translate(47.028 90.22)" fill="#11646f"/>
        <path id="Tracé_492" data-name="Tracé 492" d="M384.3,300.209a6.1,6.1,0,1,1-6.1-6.1,6.1,6.1,0,0,1,6.1,6.1Z" transform="translate(-316.289 -250.021)" fill="#269aa7"/>
        <path id="Tracé_493" data-name="Tracé 493" d="M285.41,619.21v2.317a23.669,23.669,0,1,0,47.338,0V619.21Z" transform="translate(-242.614 -526.402)" fill="#182f46"/>
        <path id="Tracé_494" data-name="Tracé 494" d="M285.41,619.21v7.172a18.439,18.439,0,1,0,36.879,0V619.21Z" transform="translate(-242.609 -526.402)" fill="#27425f"/>
        <path id="Tracé_495" data-name="Tracé 495" d="M323.467,242.64c1.483,2.968-8.96-.078-15.156,3.843s-11.7,24.562-11.7,24.562c-.867-19.229,2.168-25.911,8.365-29.833S320.534,238.009,323.467,242.64Z" transform="translate(-251.998 -202.9)" fill="#269aa7"/>
        <path id="Tracé_496" data-name="Tracé 496" d="M556.217,644.8c0,6.673-3.684,12.083-8.229,12.083s-8.228-5.4-8.228-12.083,3.684-12.082,8.228-12.082S556.217,638.13,556.217,644.8Z" transform="translate(-458.81 -537.885)" fill="#1b0900"/>
        <path id="Tracé_497" data-name="Tracé 497" d="M584.687,655.579c0,5.623-2.434,10.18-5.438,10.18s-5.438-4.557-5.438-10.18,2.43-10.179,5.438-10.179S584.687,649.957,584.687,655.579Z" transform="translate(-487.75 -548.662)" fill="#a7d7e0"/>
        <path id="Tracé_498" data-name="Tracé 498" d="M588.947,665.277c0,4.674-2.024,8.468-4.523,8.468s-4.524-3.794-4.524-8.468,2.027-8.467,4.524-8.467S588.947,660.6,588.947,665.277Z" transform="translate(-492.926 -558.36)" fill="#8aa0a2"/>
        <path id="Tracé_499" data-name="Tracé 499" d="M599.851,690.086c0,2.26-.978,4.092-2.185,4.092s-2.186-1.832-2.186-4.092.978-4.086,2.186-4.086S599.851,687.826,599.851,690.086Z" transform="translate(-506.168 -583.169)" fill="#a7d7e0"/>
        <path id="Tracé_500" data-name="Tracé 500" d="M388.289,305.062a5.245,5.245,0,1,1-5.244-5.242,5.245,5.245,0,0,1,5.244,5.242Z" transform="translate(-321.134 -254.875)" fill="#11646f"/>
        <path id="Tracé_501" data-name="Tracé 501" d="M316.5,630.269c1.128,1.757-3.475,3.938-10.284,4.87s-13.242.261-14.369-1.5,3.48-3.939,10.284-4.873S315.375,628.51,316.5,630.269Z" transform="translate(-247.934 -534.167)" fill="#2d4a6a"/>
        <path id="Tracé_502" data-name="Tracé 502" d="M324.954,634.459c.284.45-5.9-.275-11.81.533s-9.3,2.842-9.6,2.4,2.884-2.673,8.794-3.482S324.669,634.015,324.954,634.459Z" transform="translate(-257.998 -538.603)" fill="#406f95"/>
        <path id="Tracé_503" data-name="Tracé 503" d="M415.81,644.56a1.575,1.575,0,1,1-1.531-1.2A1.4,1.4,0,0,1,415.81,644.56Z" transform="translate(-350.84 -546.928)" fill="#406f95"/>
        <path id="Tracé_504" data-name="Tracé 504" d="M424.9,367.548c-27.367,0-27.367-12.868-27.367-43.958H402.1c0,32.511.77,39.392,22.8,39.392,10.513,0,16.792-5.158,16.792-13.806,0-4.945-1.017-8.464-3.025-10.458-2.626-2.616-6.892-2.59-10.654-2.578h-.9v-4.557h.879c4.2-.021,9.933-.045,13.906,3.9,2.938,2.926,4.368,7.406,4.368,13.7C446.255,360.512,438.071,367.548,424.9,367.548Z" transform="translate(-337.923 -275.104)" fill="#a7d7e0"/>
        <path id="Tracé_505" data-name="Tracé 505" d="M606.195,396.536c1.8,1.787,2.794,4.8,2.985,8.969.015-.285.041-.564.041-.857,0-4.943-1.017-8.462-3.025-10.459-2.626-2.614-6.892-2.589-10.655-2.578h-.9v2.344h.9C599.3,393.946,603.569,393.919,606.195,396.536Z" transform="translate(-505.455 -332.907)" fill="#7cc5d0"/>
        <path id="Tracé_506" data-name="Tracé 506" d="M424.906,365.2c-26.665,0-27.348-12.226-27.366-41.614h0c0,31.09,0,43.958,27.367,43.958,13.174,0,21.359-7.036,21.359-18.366,0-.4-.024-.767-.035-1.151C445.67,358.658,437.608,365.2,424.906,365.2Z" transform="translate(-337.932 -275.104)" fill="#7cc5d0"/>
        <path id="Tracé_507" data-name="Tracé 507" d="M395.841,314.216a3.626,3.626,0,1,1-3.626-3.626A3.626,3.626,0,0,1,395.841,314.216Z" transform="translate(-330.305 -264.029)" fill="#a7d7e0"/>
        <rect id="Rectangle_80" data-name="Rectangle 80" width="6.355" height="14.26" transform="translate(23.226 98.45)" fill="#27425f"/>
        <path id="Tracé_508" data-name="Tracé 508" d="M156.675,653.765a.479.479,0,0,1-.477.479h-7.341a.479.479,0,0,1-.477-.479v-8.587a.477.477,0,0,1,.477-.479H156.2a.477.477,0,0,1,.477.479Z" transform="translate(-126.124 -548.067)" fill="#2d4a6a"/>
        <path id="Tracé_509" data-name="Tracé 509" d="M156.312,644.79v8.959a.422.422,0,0,1-.422.422h-6.726a.422.422,0,0,1-.422-.422V644.79a.479.479,0,0,0-.363.465v8.587a.479.479,0,0,0,.477.479H156.2a.479.479,0,0,0,.477-.479v-8.587a.48.48,0,0,0-.363-.465Z" transform="translate(-126.124 -548.143)" fill="#182f46"/>
        <path id="Tracé_510" data-name="Tracé 510" d="M155.05,646.64a.15.15,0,0,0-.15.15v9.034h.284v-9.04A.141.141,0,0,0,155.05,646.64Z" transform="translate(-131.666 -549.716)" fill="#182f46"/>
        <path id="Tracé_511" data-name="Tracé 511" d="M160.263,646.64a.15.15,0,0,0-.143.15v9.034h.282v-9.04A.15.15,0,0,0,160.263,646.64Z" transform="translate(-136.103 -549.716)" fill="#182f46"/>
        <path id="Tracé_512" data-name="Tracé 512" d="M165.443,646.64a.15.15,0,0,0-.143.15v9.034h.285v-9.04A.15.15,0,0,0,165.443,646.64Z" transform="translate(-140.506 -549.716)" fill="#182f46"/>
        <path id="Tracé_513" data-name="Tracé 513" d="M170.613,646.64a.15.15,0,0,0-.143.15v9.034h.287v-9.04A.15.15,0,0,0,170.613,646.64Z" transform="translate(-144.9 -549.716)" fill="#182f46"/>
        <path id="Tracé_514" data-name="Tracé 514" d="M175.76,646.64a.15.15,0,0,0-.15.15v9.034h.284v-9.04A.15.15,0,0,0,175.76,646.64Z" transform="translate(-149.269 -549.716)" fill="#182f46"/>
        <path id="Tracé_515" data-name="Tracé 515" d="M180.971,646.64a.15.15,0,0,0-.141.15v9.034h.284v-9.04A.15.15,0,0,0,180.971,646.64Z" transform="translate(-153.706 -549.716)" fill="#182f46"/>
        <rect id="Rectangle_81" data-name="Rectangle 81" width="0.177" height="9.161" transform="translate(23.603 96.747)" fill="#406f95"/>
        <rect id="Rectangle_82" data-name="Rectangle 82" width="0.176" height="9.161" transform="translate(24.38 96.747)" fill="#406f95"/>
        <rect id="Rectangle_83" data-name="Rectangle 83" width="0.179" height="9.161" transform="translate(25.156 96.747)" fill="#406f95"/>
        <rect id="Rectangle_84" data-name="Rectangle 84" width="0.177" height="9.161" transform="translate(25.933 96.747)" fill="#406f95"/>
        <rect id="Rectangle_85" data-name="Rectangle 85" width="0.177" height="9.161" transform="translate(26.71 96.747)" fill="#406f95"/>
        <rect id="Rectangle_86" data-name="Rectangle 86" width="0.177" height="9.161" transform="translate(27.485 96.747)" fill="#406f95"/>
        <path id="Tracé_516" data-name="Tracé 516" d="M152.367,654.631l-.177-.171v-8.99h.177Z" transform="translate(-129.362 -548.721)" fill="#406f95"/>
        <path id="Tracé_517" data-name="Tracé 517" d="M186.193,646.64a.15.15,0,0,0-.143.15v9.034h.285v-9.04A.15.15,0,0,0,186.193,646.64Z" transform="translate(-158.143 -549.716)" fill="#182f46"/>
        <path id="Tracé_518" data-name="Tracé 518" d="M191.28,646.64a.15.15,0,0,0-.15.15v9.034h.287v-9.04A.15.15,0,0,0,191.28,646.64Z" transform="translate(-162.461 -549.716)" fill="#182f46"/>
        <path id="Tracé_519" data-name="Tracé 519" d="M196.45,646.64a.15.15,0,0,0-.15.15v9.034h.285v-9.04A.15.15,0,0,0,196.45,646.64Z" transform="translate(-166.856 -549.716)" fill="#182f46"/>
        <rect id="Rectangle_87" data-name="Rectangle 87" width="0.177" height="9.161" transform="translate(28.261 96.747)" fill="#406f95"/>
        <rect id="Rectangle_88" data-name="Rectangle 88" width="0.177" height="9.161" transform="translate(29.038 96.747)" fill="#406f95"/>
        <rect id="Rectangle_89" data-name="Rectangle 89" width="0.179" height="9.161" transform="translate(29.815 96.747)" fill="#406f95"/>
        <path id="Tracé_520" data-name="Tracé 520" d="M171.13,753.124h20.278l-5.032-4.454h-8.6Z" transform="translate(-145.464 -636.435)" fill="#182f46"/>
        <path id="Tracé_521" data-name="Tracé 521" d="M35.29,753.124H8.46l11.583-4.454h26.83Z" transform="translate(-7.19 -636.435)" fill="#27425f"/>
        <path id="Tracé_522" data-name="Tracé 522" d="M144.544,779.505a1.154,1.154,0,0,1-1.154,1.155H115.7a1.155,1.155,0,0,1-1.155-1.156h0a1.155,1.155,0,0,1,1.155-1.156H143.39a1.154,1.154,0,0,1,1.154,1.155Z" transform="translate(-97.362 -661.661)" fill="#061d31"/>
        <path id="Tracé_523" data-name="Tracé 523" d="M30.013,779.505a1.155,1.155,0,0,1-1.155,1.155H1.155A1.155,1.155,0,0,1,0,779.505H0a1.155,1.155,0,0,1,1.155-1.156H28.85a1.155,1.155,0,0,1,1.155,1.155Z" transform="translate(0 -661.661)" fill="#182f46"/>
        <path id="Tracé_524" data-name="Tracé 524" d="M90.71,754.62c0,.524-5.323.948-11.891.948s-11.89-.429-11.89-.948,5.324-.95,11.89-.95S90.71,754.09,90.71,754.62Z" transform="translate(-56.886 -640.685)" fill="#406f95"/>
        <path id="Tracé_525" data-name="Tracé 525" d="M43.689,766.147c0,.192-1.442.348-3.219.348s-3.22-.15-3.22-.348,1.442-.347,3.22-.347S43.689,765.958,43.689,766.147Z" transform="translate(-31.66 -650.994)" fill="#406f95"/>
      </g>
    </g>
    <path id="Polygone_4" data-name="Polygone 4" d="M9.04,3.308a1,1,0,0,1,1.921,0L12.1,7.222a1,1,0,0,0,.682.682L16.692,9.04a1,1,0,0,1,0,1.921L12.778,12.1a1,1,0,0,0-.682.682L10.96,16.692a1,1,0,0,1-1.921,0L7.9,12.778a1,1,0,0,0-.682-.682L3.308,10.96a1,1,0,0,1,0-1.921L7.222,7.9A1,1,0,0,0,7.9,7.222Z" transform="translate(-18.281 42.991)" fill="#fff"/>
    <path id="Polygone_5" data-name="Polygone 5" d="M7.04,3.308a1,1,0,0,1,1.921,0l.686,2.364a1,1,0,0,0,.682.682l2.364.686a1,1,0,0,1,0,1.921l-2.364.686a1,1,0,0,0-.682.682L8.96,12.692a1,1,0,0,1-1.921,0l-.686-2.364a1,1,0,0,0-.682-.682L3.308,8.96a1,1,0,0,1,0-1.921l2.364-.686a1,1,0,0,0,.682-.682Z" transform="translate(-35.281 59.991)" fill="#fff"/>
  </g>
</svg>
