<svg xmlns="http://www.w3.org/2000/svg" xmlns:xlink="http://www.w3.org/1999/xlink" width="592.974" height="646.985" viewBox="0 0 592.974 646.985">
  <defs>
    <linearGradient id="linear-gradient" x1="0.731" y1="0.13" x2="0.133" y2="0.974" gradientUnits="objectBoundingBox">
      <stop offset="0" stop-color="#8da7ff"/>
      <stop offset="1" stop-color="#5493ff"/>
    </linearGradient>
    <clipPath id="clip-path">
      <path id="Tracé_4497" data-name="Tracé 4497" d="M591.991,294.736c.7,163.475-131.264,296.559-294.74,297.255S.7,460.726,0,297.255,131.265.7,294.736,0,591.278,131.265,591.991,294.736Z" transform="translate(-0.892 0)" fill="url(#linear-gradient)"/>
    </clipPath>
  </defs>
  <g id="Likdom_women_Flexing" data-name="Likdom women Flexing" transform="translate(0.899 0.007)">
    <path id="Tracé_4311" data-name="Tracé 4311" d="M591.991,294.736c.7,163.475-131.264,296.559-294.74,297.255S.7,460.726,0,297.255,131.265.7,294.736,0,591.278,131.265,591.991,294.736Z" transform="translate(-0.892 0)" fill="url(#linear-gradient)"/>
    <g id="Houses_Icons" data-name="Houses Icons" clip-path="url(#clip-path)">
      <g id="House_Motif" data-name="House Motif" transform="matrix(0.927, -0.375, 0.375, 0.927, -108.147, 141.816)" opacity="0.5">
        <g id="Groupe_2" data-name="Groupe 2" transform="translate(0 0)">
          <path id="icons8_dog_house" d="M20.5,0,0,18.547H5.589v16.86H35.405V18.547h5.589Zm3.727,31.66H16.77V26.04a3.727,3.727,0,1,1,7.454,0Zm7.454,0H27.951V26.04a7.454,7.454,0,1,0-14.908,0v5.62H9.316v-16.5L20.5,5.041,31.678,15.158Z" transform="translate(65.633 102.598) rotate(-20)" fill="#5493ff"/>
          <path id="icons8_school_house" d="M19.588,0,7.326,6.193l1.58,3.328,1.681-.85V16.6L4.9,20.131a1.789,1.789,0,0,0-1.13.7L0,23.169l1.853,3.176L3.4,25.387v10.02H17.777V29.851h3.595v5.556H35.75V25.173l1.559.948,1.825-3.19L28.561,16.5V8.87l1.653.868,1.636-3.3ZM19.56,4.138l5.406,2.84V14.31l-5.4-3.285-5.381,3.339V6.855Zm.025,11.2,5.381,3.274v.127h.207l6.982,4.247V31.7H24.966V26.146H14.182V31.7H6.993V23.155l7.116-4.417h.074v-.047Z" transform="matrix(0.719, -0.695, 0.695, 0.719, 0, 158.562)" fill="#5493ff"/>
          <path id="icons8_home_page" d="M20.5,0,0,18.547H5.591v16.86H16.772V24.167h7.454v11.24H35.407V18.547H41L33.543,11.8V3.56H29.816V8.43Zm0,5.042L31.68,15.159v16.5H27.953V20.42H13.045V31.66H9.318v-16.5Z" transform="matrix(0.999, 0.035, -0.035, 0.999, 221.785, 111.343)" fill="#5493ff"/>
          <path id="icons8_school_house-2" data-name="icons8_school_house" d="M19.588,0,7.326,6.193l1.58,3.328,1.681-.85V16.6L4.9,20.131a1.789,1.789,0,0,0-1.13.7L0,23.169l1.853,3.176L3.4,25.387v10.02H17.777V29.851h3.595v5.556H35.75V25.173l1.559.948,1.825-3.19L28.561,16.5V8.87l1.653.868,1.636-3.3ZM19.56,4.138l5.406,2.84V14.31l-5.4-3.285-5.381,3.339V6.855Zm.025,11.2,5.381,3.274v.127h.207l6.982,4.247V31.7H24.966V26.146H14.182V31.7H6.993V23.155l7.116-4.417h.074v-.047Z" transform="translate(411.34 30.261) rotate(-9)" fill="#5493ff"/>
          <path id="icons8_hut_1" d="M19.567,0a5.169,5.169,0,0,0-2.641.826,22.318,22.318,0,0,0-2.69,1.76,60.908,60.908,0,0,0-6.1,5.321,57.217,57.217,0,0,0-5.457,6.116C1.2,15.987,0,17.5,0,19.671a1.962,1.962,0,0,0,1.957,1.967H5.87v11.8a1.962,1.962,0,0,0,1.957,1.967H31.307a1.962,1.962,0,0,0,1.957-1.967v-11.8h3.913a1.962,1.962,0,0,0,1.957-1.967c0-2.174-1.2-3.684-2.675-5.648A57.26,57.26,0,0,0,31,7.907a60.929,60.929,0,0,0-6.1-5.321A22.259,22.259,0,0,0,22.208.83,5.171,5.171,0,0,0,19.567,0Zm0,3.965a4.766,4.766,0,0,1,.8.334,19.065,19.065,0,0,1,2.205,1.448,57.7,57.7,0,0,1,5.69,4.968,54.069,54.069,0,0,1,5.075,5.678,5.856,5.856,0,0,1,.753,1.31H5.045a5.849,5.849,0,0,1,.753-1.31,54.081,54.081,0,0,1,5.075-5.678,57.676,57.676,0,0,1,5.69-4.968A19.045,19.045,0,0,1,18.768,4.3,4.778,4.778,0,0,1,19.567,3.965ZM9.784,21.638H29.351v9.835H23.48V27.539a3.913,3.913,0,1,0-7.827,0v3.934H9.784Z" transform="translate(138.764 52.814) rotate(-41)" fill="#5493ff"/>
          <path id="icons8_residence" d="M10.359,0A3.74,3.74,0,0,0,7.086,1.94L0,14.908H3.662V29.816a3.755,3.755,0,0,0,3.727,3.727H33.478A3.755,3.755,0,0,0,37.2,29.816V14.908H41L33.776,1.914h0A3.736,3.736,0,0,0,30.519,0Zm0,3.727h20.16v0l4.149,7.45h-6.34L20.433,7.236l-7.895,3.945H6.282ZM20.433,11.4l5.591,2.8V29.816H22.3V24.226a1.864,1.864,0,1,0-3.727,0v5.591H14.843V14.195ZM7.389,14.908h3.727V29.816H7.389Zm13.045,0A1.864,1.864,0,1,0,22.3,16.772,1.864,1.864,0,0,0,20.433,14.908Zm9.318,0h3.727V29.816H29.751Z" transform="translate(339.247 176.811) rotate(13)" fill="#5493ff"/>
          <path id="icons8_roofing" d="M29.816,0V6.853L22.362.033,0,20.5H5.521L22.362,5.085,39.2,20.5h5.521L41,17.088V0Zm3.727,3.727H37.27v9.951l-3.727-3.414Z" transform="translate(237.598 226.801) rotate(7)" fill="#5493ff"/>
          <path id="icons8_warehouse" d="M16.772,0,2.213,6.471A3.737,3.737,0,0,0,0,9.874V33.718H9a1.864,1.864,0,0,0,.608,0h14.3a1.864,1.864,0,0,0,.608,0h9.023V9.874a3.737,3.737,0,0,0-2.213-3.4l0,0Zm0,4.076,13.045,5.8V29.991H26.089V13.219H7.454V29.991H3.727V9.874Zm-5.591,12.87H22.362V29.991H18.635V28.128H14.908v1.864H11.181Z" transform="matrix(0.839, -0.545, 0.545, 0.839, 52.664, 230.126)" fill="#5493ff"/>
          <path id="icons8_dog_house-2" data-name="icons8_dog_house" d="M20.5,0,0,18.547H5.589v16.86H35.405V18.547h5.589Zm3.727,31.66H16.77V26.04a3.727,3.727,0,1,1,7.454,0Zm7.454,0H27.951V26.04a7.454,7.454,0,1,0-14.908,0v5.62H9.316v-16.5L20.5,5.041,31.678,15.158Z" transform="translate(518.435 69.561) rotate(25)" fill="#5493ff"/>
          <path id="icons8_dog_house-3" data-name="icons8_dog_house" d="M25.636,0,51.272,25.24h-6.99V48.185H6.99V25.24H0ZM20.975,43.086H30.3V35.438a4.9,4.9,0,0,0-4.662-5.1,4.9,4.9,0,0,0-4.662,5.1Zm-9.323,0h4.662V35.438c0-5.632,4.174-10.2,9.323-10.2s9.323,4.566,9.323,10.2v7.648h4.662V20.628L25.636,6.861,11.652,20.628Z" transform="translate(493.839 219.941) rotate(-20)" fill="#5493ff"/>
          <path id="icons8_hut_1-2" data-name="icons8_hut_1" d="M19.567,0a5.169,5.169,0,0,0-2.641.826,22.318,22.318,0,0,0-2.69,1.76,60.908,60.908,0,0,0-6.1,5.321,57.217,57.217,0,0,0-5.457,6.116C1.2,15.987,0,17.5,0,19.671a1.962,1.962,0,0,0,1.957,1.967H5.87v11.8a1.962,1.962,0,0,0,1.957,1.967H31.307a1.962,1.962,0,0,0,1.957-1.967v-11.8h3.913a1.962,1.962,0,0,0,1.957-1.967c0-2.174-1.2-3.684-2.675-5.648A57.26,57.26,0,0,0,31,7.907a60.929,60.929,0,0,0-6.1-5.321A22.259,22.259,0,0,0,22.208.83,5.171,5.171,0,0,0,19.567,0Zm0,3.965a4.766,4.766,0,0,1,.8.334,19.065,19.065,0,0,1,2.205,1.448,57.7,57.7,0,0,1,5.69,4.968,54.069,54.069,0,0,1,5.075,5.678,5.856,5.856,0,0,1,.753,1.31H5.045a5.849,5.849,0,0,1,.753-1.31,54.081,54.081,0,0,1,5.075-5.678,57.676,57.676,0,0,1,5.69-4.968A19.045,19.045,0,0,1,18.768,4.3,4.778,4.778,0,0,1,19.567,3.965ZM9.784,21.638H29.351v9.835H23.48V27.539a3.913,3.913,0,1,0-7.827,0v3.934H9.784Z" transform="matrix(0.755, 0.656, -0.656, 0.755, 158.417, 154.862)" fill="#5493ff"/>
        </g>
        <g id="Groupe_3" data-name="Groupe 3" transform="translate(65.292 236.11) rotate(8)">
          <path id="icons8_home_page-2" data-name="icons8_home_page" d="M20.5,35.407,0,16.86H5.591V0H16.772V11.24h7.454V0H35.407V16.86H41L33.543,23.6v8.243H29.816v-4.87Zm0-5.042L31.68,20.248V3.747H27.953v11.24H13.045V3.747H9.318v16.5Z" transform="matrix(-0.719, -0.695, 0.695, -0.719, 521.111, 37.275)" fill="#5493ff"/>
          <path id="icons8_hut_1-3" data-name="icons8_hut_1" d="M19.567,35.407a5.169,5.169,0,0,1-2.641-.826,22.318,22.318,0,0,1-2.69-1.76,60.908,60.908,0,0,1-6.1-5.321,57.217,57.217,0,0,1-5.457-6.116C1.2,19.42,0,17.91,0,15.736a1.962,1.962,0,0,1,1.957-1.967H5.87V1.967A1.962,1.962,0,0,1,7.827,0H31.307a1.962,1.962,0,0,1,1.957,1.967v11.8h3.913a1.962,1.962,0,0,1,1.957,1.967c0,2.174-1.2,3.684-2.675,5.648A57.259,57.259,0,0,1,31,27.5a60.93,60.93,0,0,1-6.1,5.321,22.26,22.26,0,0,1-2.69,1.756A5.171,5.171,0,0,1,19.567,35.407Zm0-3.965a4.767,4.767,0,0,0,.8-.334,19.065,19.065,0,0,0,2.205-1.448,57.7,57.7,0,0,0,5.69-4.968,54.069,54.069,0,0,0,5.075-5.678,5.856,5.856,0,0,0,.753-1.31H5.045a5.849,5.849,0,0,0,.753,1.31,54.082,54.082,0,0,0,5.075,5.678,57.676,57.676,0,0,0,5.69,4.968,19.045,19.045,0,0,0,2.205,1.448A4.778,4.778,0,0,0,19.567,31.442ZM9.784,13.769H29.351V3.934H23.48V7.868a3.913,3.913,0,1,1-7.827,0V3.934H9.784Z" transform="matrix(-0.974, -0.225, 0.225, -0.974, 557.228, 125.894)" fill="#5493ff"/>
          <path id="icons8_home_page-3" data-name="icons8_home_page" d="M20.5,35.407,0,16.86H5.591V0H16.772V11.24h7.454V0H35.407V16.86H41L33.543,23.6v8.243H29.816v-4.87Zm0-5.042L31.68,20.248V3.747H27.953v11.24H13.045V3.747H9.318v16.5Z" transform="translate(446.736 134.265) rotate(178)" fill="#5493ff"/>
          <path id="icons8_hut_1-4" data-name="icons8_hut_1" d="M19.567,35.407a5.169,5.169,0,0,1-2.641-.826,22.318,22.318,0,0,1-2.69-1.76,60.909,60.909,0,0,1-6.1-5.321,57.217,57.217,0,0,1-5.457-6.116C1.2,19.42,0,17.91,0,15.736a1.962,1.962,0,0,1,1.957-1.967H5.87V1.967A1.962,1.962,0,0,1,7.827,0H31.307a1.962,1.962,0,0,1,1.957,1.967v11.8h3.913a1.962,1.962,0,0,1,1.957,1.967c0,2.174-1.2,3.684-2.675,5.648A57.26,57.26,0,0,1,31,27.5a60.93,60.93,0,0,1-6.1,5.321,22.26,22.26,0,0,1-2.69,1.756A5.171,5.171,0,0,1,19.567,35.407Zm0-3.965a4.767,4.767,0,0,0,.8-.334,19.065,19.065,0,0,0,2.205-1.448,57.7,57.7,0,0,0,5.69-4.968,54.069,54.069,0,0,0,5.075-5.678,5.856,5.856,0,0,0,.753-1.31H5.045a5.849,5.849,0,0,0,.753,1.31,54.081,54.081,0,0,0,5.075,5.678,57.677,57.677,0,0,0,5.69,4.968,19.046,19.046,0,0,0,2.205,1.448A4.779,4.779,0,0,0,19.567,31.442ZM9.784,13.769H29.351V3.934H23.48V7.868a3.913,3.913,0,1,1-7.827,0V3.934H9.784Z" transform="matrix(-0.995, 0.105, -0.105, -0.995, 352.469, 75.079)" fill="#5493ff"/>
          <path id="icons8_residence-2" data-name="icons8_residence" d="M10.359,33.543A3.74,3.74,0,0,1,7.086,31.6L0,18.635H3.662V3.727A3.755,3.755,0,0,1,7.389,0H33.478A3.755,3.755,0,0,1,37.2,3.727V18.635H41L33.776,31.629h0a3.736,3.736,0,0,1-3.254,1.914Zm0-3.727h20.16v0l4.149-7.45h-6.34l-7.894,3.945-7.895-3.945H6.282Zm10.075-7.672,5.591-2.8V3.727H22.3V9.318a1.864,1.864,0,1,1-3.727,0V3.727H14.843V19.349ZM7.389,18.635h3.727V3.727H7.389Zm13.045,0A1.864,1.864,0,1,1,22.3,16.772,1.864,1.864,0,0,1,20.433,18.635Zm9.318,0h3.727V3.727H29.751Z" transform="translate(246.787 106.398) rotate(167)" fill="#5493ff"/>
          <path id="icons8_roofing-2" data-name="icons8_roofing" d="M29.816,20.5V13.645l-7.454,6.821L0,0H5.521L22.362,15.414,39.2,0h5.521L41,3.41V20.5Zm3.727-3.727H37.27V6.821l-3.727,3.414Z" transform="translate(198.232 185.995) rotate(-177)" fill="#5493ff"/>
          <path id="icons8_warehouse-2" data-name="icons8_warehouse" d="M16.772,33.743,2.213,27.272A3.737,3.737,0,0,1,0,23.869V.025H9a1.864,1.864,0,0,1,.608,0h14.3a1.864,1.864,0,0,1,.608,0h9.023V23.869a3.737,3.737,0,0,1-2.213,3.4l0,0Zm0-4.076,13.045-5.8V3.752H26.089V20.524H7.454V3.752H3.727V23.869ZM11.181,16.8H22.362V3.752H18.635V5.616H14.908V3.752H11.181Z" transform="matrix(-0.839, -0.545, 0.545, -0.839, 135.359, 293.932)" fill="#5493ff"/>
          <path id="icons8_dog_house-4" data-name="icons8_dog_house" d="M20.5,35.407,0,16.86H5.589V0H35.405V16.86h5.589Zm3.727-31.66H16.77v5.62a3.727,3.727,0,1,0,7.454,0Zm7.454,0H27.951v5.62a7.454,7.454,0,1,1-14.908,0V3.747H9.316v16.5L20.5,30.366,31.678,20.249Z" transform="matrix(-0.914, -0.407, 0.407, -0.914, 111.084, 85.035)" fill="#5493ff"/>
          <path id="icons8_home_page-4" data-name="icons8_home_page" d="M20.5,35.407,0,16.86H5.591V0H16.772V11.24h7.454V0H35.407V16.86H41L33.543,23.6v8.243H29.816v-4.87Zm0-5.042L31.68,20.248V3.747H27.953v11.24H13.045V3.747H9.318v16.5Z" transform="translate(45.526 190.549) rotate(172)" fill="#5493ff"/>
        </g>
      </g>
    </g>
    <g id="Stars" transform="translate(119.304 20.512)">
      <path id="Tracé_4314" data-name="Tracé 4314" d="M550.309,74.641l29,7.28-28.939,7.519-7.271,29L535.579,89.5l-29-7.275L535.511,74.7l7.275-28.995Z" transform="translate(-406.599 -45.71)" fill="#fff"/>
      <path id="Tracé_4315" data-name="Tracé 4315" d="M689.265,193.388l11.434,2.873-11.408,2.963-2.869,11.434-2.967-11.408-11.434-2.869,11.408-2.967L686.3,181.98Z" transform="translate(-501.404 -123.799)" fill="#fff"/>
      <path id="Tracé_4316" data-name="Tracé 4316" d="M493.506,180.528l11.43,2.869-11.4,2.963-2.869,11.434L487.7,186.386l-11.43-2.869,11.408-2.963,2.865-11.434Z" transform="translate(-389.23 -116.429)" fill="#fff"/>
      <path id="Tracé_4317" data-name="Tracé 4317" d="M301.345,162.819l7.275-29,7.523,28.935,28.995,7.275-28.931,7.519-7.275,29L301.4,177.617l-28.995-7.28Z" transform="translate(-272.41 -96.201)" fill="#fff"/>
      <path id="Tracé_4318" data-name="Tracé 4318" d="M420.1,82.994l2.865-11.434,2.967,11.408,11.434,2.869L425.96,88.8l-2.873,11.434-2.963-11.408L408.69,85.957Z" transform="translate(-350.504 -60.523)" fill="#fff"/>
      <path id="Tracé_4319" data-name="Tracé 4319" d="M407.238,278.75l2.865-11.43,2.967,11.408,11.434,2.865-11.4,2.967-2.873,11.43-2.963-11.408-11.434-2.865Z" transform="translate(-343.135 -172.702)" fill="#fff"/>
    </g>
    <g id="Likdom_Women" data-name="Likdom Women" transform="translate(199.101 56.993)">
      <path id="Tracé_4412" data-name="Tracé 4412" d="M590,1484.666c0,4.613,74.552,8.358,166.533,8.358s166.519-3.745,166.519-8.358-74.5-8.366-166.394-8.366S590,1480.045,590,1484.666Z" transform="translate(-537.531 -903.039)" fill="#7db1ff"/>
      <path id="Tracé_4321" data-name="Tracé 4321" d="M1147.79,1342.4h60.786l-5.708-4.158H1153.5Z" transform="translate(-857.169 -799.925)" fill="#e35163"/>
      <rect id="Rectangle_215" data-name="Rectangle 215" width="60.786" height="4.893" transform="translate(290.621 542.474)" fill="#c94757"/>
      <path id="Tracé_4322" data-name="Tracé 4322" d="M1206.52,837.464a5.32,5.32,0,1,0,1.56-3.768A5.32,5.32,0,0,0,1206.52,837.464Zm1.981,0a3.343,3.343,0,1,1,3.339,3.339A3.343,3.343,0,0,1,1208.5,837.464Z" transform="translate(-890.823 -509.908)" fill="#792027"/>
      <rect id="Rectangle_216" data-name="Rectangle 216" width="8.56" height="199.961" transform="translate(316.734 331.023)" fill="#c1c1c4"/>
      <rect id="Rectangle_217" data-name="Rectangle 217" width="2.515" height="199.961" transform="translate(316.734 331.023)" fill="#f9f9f9"/>
      <rect id="Rectangle_218" data-name="Rectangle 218" width="2.63" height="199.961" transform="translate(322.664 331.023)" fill="#979597"/>
      <path id="Tracé_4323" data-name="Tracé 4323" d="M1195.651,1337.22h16.224a3.266,3.266,0,0,1,3.266,3.266H1192.41a3.27,3.27,0,0,1,3.241-3.266Z" transform="translate(-882.738 -799.34)" fill="#b22e3c"/>
      <rect id="Rectangle_219" data-name="Rectangle 219" width="13.804" height="7.847" transform="translate(314.113 530.468)" fill="#b22e3c"/>
      <rect id="Rectangle_220" data-name="Rectangle 220" width="12.16" height="3.706" transform="translate(314.937 331.023)" fill="#b22e3c"/>
      <path id="Tracé_4324" data-name="Tracé 4324" d="M1098.92,1389.879l19.8-39.349h62.921l19.8,39.349-24.021-23.722h-54.232Z" transform="translate(-829.164 -806.967)" fill="#e35163"/>
      <path id="Tracé_4325" data-name="Tracé 4325" d="M1148.8,1365.913H1204.7l3.514-15.383H1145.29Z" transform="translate(-855.736 -806.967)" fill="#b22e3c"/>
      <path id="Tracé_4326" data-name="Tracé 4326" d="M1098.92,1410.525h102.517l-23.312-23.965h-55.893Z" transform="translate(-829.164 -827.614)" fill="#c94757"/>
      <path id="Tracé_4327" data-name="Tracé 4327" d="M834.249,134.525c17.292-6.989,29.1,29.46,29.1,29.46S818.452,142.535,834.249,134.525Z" transform="translate(-675.566 -133.634)" fill="#2d4a6a"/>
      <path id="Tracé_4328" data-name="Tracé 4328" d="M853.2,148.891c9.111-3.685,22.112,23.624,22.112,23.624S844.873,153.109,853.2,148.891Z" transform="translate(-687.53 -142.181)" fill="#223b56"/>
      <path id="Tracé_4329" data-name="Tracé 4329" d="M950.7,134.525c-17.292-6.989-29.1,29.46-29.1,29.46S966.5,142.535,950.7,134.525Z" transform="translate(-727.552 -133.634)" fill="#2d4a6a"/>
      <path id="Tracé_4330" data-name="Tracé 4330" d="M943.712,148.891c-9.115-3.685-22.112,23.624-22.112,23.624S952.042,153.109,943.712,148.891Z" transform="translate(-727.552 -142.181)" fill="#223b56"/>
      <path id="Tracé_4331" data-name="Tracé 4331" d="M895.82,189.434a9.064,9.064,0,1,0,9.064-9.064A9.064,9.064,0,0,0,895.82,189.434Z" transform="translate(-712.779 -160.416)" fill="#223b56"/>
      <path id="Tracé_4332" data-name="Tracé 4332" d="M960.891,260.061c-1.1.282,15.17-91.4-50.091-62.05,34.426,17.83,48.993,62.336,48.993,62.336" transform="translate(-721.363 -167.204)" fill="#2d4a6a"/>
      <path id="Tracé_4333" data-name="Tracé 4333" d="M805.507,260.061c1.1.282-18.607-91.4,46.649-62.05-34.426,17.83-45.552,62.336-45.552,62.336" transform="translate(-659.897 -167.204)" fill="#2d4a6a"/>
      <path id="Tracé_4334" data-name="Tracé 4334" d="M961.624,351.12s-7.783,50.778,17.053,56.913c-4.112,4.987-33.879,18.714-61.627,2.651Z" transform="translate(-724.945 -258.263)" fill="#1b0900"/>
      <path id="Tracé_4335" data-name="Tracé 4335" d="M800.036,351.12S807.819,401.9,783,408.033c4.112,4.987,33.879,18.714,61.631,2.651Z" transform="translate(-648.128 -258.263)" fill="#1b0900"/>
      <path id="Tracé_4336" data-name="Tracé 4336" d="M996.417,1473.07l28.734,6.1v6.87H982.14V1473.07Z" transform="translate(-762.244 -901.188)" fill="#3d5b8e"/>
      <path id="Tracé_4337" data-name="Tracé 4337" d="M977.462,1005.52l-7.634,93.44-8.005,105.19s-6.4,8.646-14.4,0l-9.158-62.553,3.437-42.636-19.93-93.44Z" transform="translate(-727.65 -633.262)" fill="#5493ff"/>
      <path id="Tracé_4338" data-name="Tracé 4338" d="M949.62,1007.85l10.392,93.077-6.4,109.135c-2.1-.261-6.169-3.565-6.169-3.565l-9.175-62.571,3.437-42.636-19.93-93.44Z" transform="translate(-727.65 -634.597)" fill="#7db1ff"/>
      <path id="Tracé_4339" data-name="Tracé 4339" d="M875,1473.07h9.991l7.25,6.1v6.87h-24.8v-6.87Z" transform="translate(-696.516 -901.188)" fill="#3d5b8e"/>
      <path id="Tracé_4340" data-name="Tracé 4340" d="M847.48,1007.85l2.669,93.252,12.967,105.377s6.614,5.367,10.055-.427l9.154-62.554-3.416-42.636,16.784-92.991Z" transform="translate(-685.078 -634.597)" fill="#7db1ff"/>
      <path id="Tracé_4342" data-name="Tracé 4342" d="M1016.1,563c-.188.384,23.295,24.563,29.268,97.692l3.3,76.114" transform="translate(-781.703 -379.679)" fill="none" stroke="#f0a38b" stroke-width="20"/>
      <path id="Tracé_4343" data-name="Tracé 4343" d="M1029.377,578.5c-1.524-60.265-48.157-78.769-48.157-78.769l-9.44,43.665c20.993,6.87,25.19,35.092,25.19,35.092Z" transform="translate(-756.307 -343.423)" fill="#fff"/>
      <path id="Tracé_4344" data-name="Tracé 4344" d="M786.87,525.471s38.354,54.45,18.786,135.456c26.54,21.839,94.5-56.4,94.5-104.434s-25.3-54.932-37.231-58.984H800.618C790.952,500.892,786.87,511.382,786.87,525.471Z" transform="translate(-650.346 -342.151)" fill="#fff"/>
      <path id="Tracé_4345" data-name="Tracé 4345" d="M966.952,497.51c16.4,8.731,25.306,29.5,25.306,48.823H979.923c-1.584-27.462-3.616-41.705-22.693-48.823Z" transform="translate(-747.97 -342.151)" fill="#d8dade"/>
      <path id="Tracé_4346" data-name="Tracé 4346" d="M828.8,497.51c16.4,8.748,25.306,29.5,25.306,48.823l-5.55,7.395c-8.539-29.943-10.392-49.1-29.46-56.217Z" transform="translate(-668.815 -342.151)" fill="#d8dade"/>
      <path id="Tracé_4347" data-name="Tracé 4347" d="M814.631,774.259c9.273,50.266,5.837,82.983,5.837,82.983,54.091,12.275,105.458-2.591,105.458-2.591L911.149,687.975l2.989-88.5c-11.263-13.573-56.743-10.964-70.568,0,7.655,80.05-25.041,106.965-25.041,106.965S805.357,742.92,814.631,774.259Z" transform="translate(-664.359 -395.294)" fill="#27425f"/>
      <path id="Tracé_4348" data-name="Tracé 4348" d="M1029.573,701.87c-1.844,0-7.2,27.184-7.2,59.646s6.058,58.779,7.9,58.779-1.229-26.322-1.229-58.779S1031.413,701.87,1029.573,701.87Z" transform="translate(-785.298 -459.258)" fill="#2d4a6a"/>
      <path id="Tracé_4349" data-name="Tracé 4349" d="M970.758,497.51c16.4,8.731,25.306,29.5,25.306,48.823H983.729c-1.909-30.895-10.426-41.705-29.5-48.823Z" transform="translate(-746.251 -342.151)" fill="#27425f"/>
      <path id="Tracé_4350" data-name="Tracé 4350" d="M980.59,497.51c-1.84,0,21.22,13.031,21.113,35.092l3.676,40.937c3.885,0,3.326,3.287,3.527-39.045C1009.008,512.428,982.438,497.519,980.59,497.51Z" transform="translate(-761.296 -342.151)" fill="#2d4a6a"/>
      <path id="Tracé_4351" data-name="Tracé 4351" d="M835.6,497.51c22.992,7.117,25.3,29.5,25.3,48.823h-12.86c.764-28.734-7.95-40.266-28.973-48.823Z" transform="translate(-668.798 -342.151)" fill="#27425f"/>
      <path id="Tracé_4352" data-name="Tracé 4352" d="M844.859,497.51c-1.844,0,21.216,13.031,21.1,35.092l3.659,28.329c3.881,0,3.522-8.5,3.522-26.437C873.145,512.428,846.678,497.519,844.859,497.51Z" transform="translate(-683.516 -342.151)" fill="#2d4a6a"/>
      <path id="Tracé_4353" data-name="Tracé 4353" d="M906.88,673.843c0,17.727,11.784,32.1,26.322,32.1s26.322-14.371,26.322-32.1S947.74,660.181,933.2,660.181,906.88,656.12,906.88,673.843Z" transform="translate(-719.117 -435.138)" fill="#3d5b8e"/>
      <path id="Tracé_4354" data-name="Tracé 4354" d="M906.9,674.161v-.316c0-17.723,11.784-13.663,26.322-13.663s26.322-4.048,26.322,13.663v.316Z" transform="translate(-719.128 -435.139)" fill="#3d5b8e"/>
      <path id="Tracé_4355" data-name="Tracé 4355" d="M816.322,575.9c.085.427-9.654,33.542,39.925,87.629l83.3-31.655" transform="translate(-666.81 -387.071)" fill="none" stroke="#f0a38b" stroke-width="20"/>
      <path id="Tracé_4356" data-name="Tracé 4356" d="M1082.883,651.07s-16.352,9.675-8.706,19.055,10.8-5.064,10.8-5.064Z" transform="translate(-813.818 -430.147)" fill="#c8deff"/>
      <path id="Tracé_4357" data-name="Tracé 4357" d="M1081.63,665.942c-.589-.905-4.97-2.054-4.97-2.054a25.657,25.657,0,0,1,8.812-12.809C1082.253,656.114,1082.134,663.658,1081.63,665.942Z" transform="translate(-816.408 -430.153)" fill="#7395cf"/>
      <path id="Tracé_4358" data-name="Tracé 4358" d="M562.637,233.08l-56.824,95-38.7-10.367,18.483-30.895,4.526-.316-2.041-3.843,23.688-39.6h0l5.973-2.745-3.3-1.738L535.2,203.88Z" transform="translate(-467.11 -173.888)" fill="#f4d9a6"/>
      <path id="Tracé_4359" data-name="Tracé 4359" d="M509.654,471.947l-38.7-10.358,1.106-1.849L510.764,470.1Z" transform="translate(-469.31 -320.507)" fill="#c3ad84"/>
      <path id="Tracé_4360" data-name="Tracé 4360" d="M516.1,461.161,477.4,450.8l1.11-1.853,38.708,10.358Z" transform="translate(-473.007 -314.324)" fill="#c3ad84"/>
      <path id="Tracé_4361" data-name="Tracé 4361" d="M522.564,450.387l-38.7-10.362,1.1-1.844,38.712,10.358Z" transform="translate(-476.708 -308.152)" fill="#c3ad84"/>
      <path id="Tracé_4362" data-name="Tracé 4362" d="M529.014,439.591l-38.7-10.362,1.106-1.849,38.7,10.362Z" transform="translate(-480.405 -301.963)" fill="#c3ad84"/>
      <path id="Tracé_4363" data-name="Tracé 4363" d="M535.469,428.807l-38.7-10.362,1.1-1.844,38.712,10.362Z" transform="translate(-484.106 -295.786)" fill="#c3ad84"/>
      <path id="Tracé_4364" data-name="Tracé 4364" d="M541.914,418.015l-38.7-10.362,1.106-1.853,38.7,10.367Z" transform="translate(-487.797 -289.597)" fill="#c3ad84"/>
      <path id="Tracé_4365" data-name="Tracé 4365" d="M548.368,408.593,509.66,398.231l.316-.525,4.526-.316,34.968,9.355Z" transform="translate(-491.493 -284.778)" fill="#c3ad84"/>
      <path id="Tracé_4366" data-name="Tracé 4366" d="M554.818,396.451,516.11,386.089l1.106-1.849,38.7,10.367Z" transform="translate(-495.189 -277.242)" fill="#c3ad84"/>
      <path id="Tracé_4367" data-name="Tracé 4367" d="M647.892,240.858,620.456,211.65,619.35,213.5l27.436,29.2Z" transform="translate(-554.35 -178.341)" fill="#c3ad84"/>
      <path id="Tracé_4368" data-name="Tracé 4368" d="M641.436,251.64,614,222.44l-1.11,1.849,27.441,29.2Z" transform="translate(-550.648 -184.524)" fill="#c3ad84"/>
      <path id="Tracé_4369" data-name="Tracé 4369" d="M634.981,262.43l-27.441-29.2-1.11,1.849,27.445,29.2Z" transform="translate(-546.946 -190.707)" fill="#c3ad84"/>
      <path id="Tracé_4370" data-name="Tracé 4370" d="M628.536,273.21,601.1,244.01l-1.11,1.849,27.44,29.2Z" transform="translate(-543.256 -196.884)" fill="#c3ad84"/>
      <path id="Tracé_4371" data-name="Tracé 4371" d="M622.086,284,594.65,254.8l-1.11,1.849,27.436,29.2Z" transform="translate(-539.56 -203.067)" fill="#c3ad84"/>
      <path id="Tracé_4372" data-name="Tracé 4372" d="M615.632,294.78,588.2,265.58l-1.106,1.844,27.436,29.208Z" transform="translate(-535.864 -209.245)" fill="#c3ad84"/>
      <path id="Tracé_4373" data-name="Tracé 4373" d="M609.3,305.56l-27.441-29.2-1.016,1.708,27.351,29.345Z" transform="translate(-532.282 -215.422)" fill="#c3ad84"/>
      <path id="Tracé_4374" data-name="Tracé 4374" d="M595.976,327.838,568.3,299.04l-1.02,1.708,27.594,28.939Z" transform="translate(-524.512 -228.419)" fill="#c3ad84"/>
      <path id="Tracé_4375" data-name="Tracé 4375" d="M591.441,335.41l-28.7-27.09-1.02,1.708,28.615,27.231Z" transform="translate(-521.326 -233.737)" fill="#c3ad84"/>
      <path id="Tracé_4376" data-name="Tracé 4376" d="M560.209,387.627,521.74,376.864l1.02-1.7,38.554,10.618Z" transform="translate(-498.415 -272.039)" fill="#c3ad84"/>
      <path id="Tracé_4377" data-name="Tracé 4377" d="M566.658,376.839,529.21,364.368l1.025-1.708,37.53,12.331Z" transform="translate(-502.696 -264.876)" fill="#c3ad84"/>
      <path id="Tracé_4378" data-name="Tracé 4378" d="M573.255,365.817l-35.215-16.2,1.02-1.708,35.3,16.054Z" transform="translate(-507.756 -256.423)" fill="#c3ad84"/>
      <path id="Tracé_4379" data-name="Tracé 4379" d="M585.589,345.2,554.66,321.83l-1.02,1.708,30.843,23.508Z" transform="translate(-516.695 -241.479)" fill="#c3ad84"/>
      <path id="Tracé_4380" data-name="Tracé 4380" d="M578.82,356.517l-33.17-19.623,1.02-1.7,33.256,19.482Z" transform="translate(-512.117 -249.134)" fill="#c3ad84"/>
      <path id="Tracé_4381" data-name="Tracé 4381" d="M603.861,318.808,578.15,291.44l-1.99.914,26.6,28.3Z" transform="translate(-529.6 -224.064)" fill="#c3ad84"/>
      <path id="Tracé_4382" data-name="Tracé 4382" d="M556.442,284.417c34.874-60.32,10.964-80.537,10.964-80.537l27.436,29.2-56.824,95-14.709-3.937C536.311,317.5,545.64,302.477,556.442,284.417Z" transform="translate(-499.315 -173.888)" fill="#c3ad84"/>
      <path id="Tracé_4383" data-name="Tracé 4383" d="M1366.932,816.656a6.49,6.49,0,1,0,2.242,8.9,6.49,6.49,0,0,0-2.242-8.9Zm-1.242,2.071a4.077,4.077,0,1,1-5.589,1.409A4.078,4.078,0,0,1,1365.689,818.727Z" transform="translate(-977.119 -524.508)" fill="#792027"/>
      <rect id="Rectangle_221" data-name="Rectangle 221" width="10.443" height="343.961" transform="translate(85.001 123.477) rotate(-59.11)" fill="#c1c1c4"/>
      <rect id="Rectangle_222" data-name="Rectangle 222" width="3.07" height="343.961" transform="translate(88.744 117.122) rotate(-59.12)" fill="#f9f9f9"/>
      <rect id="Rectangle_223" data-name="Rectangle 223" width="3.206" height="343.961" transform="translate(85.005 123.48) rotate(-59.11)" fill="#979597"/>
      <path id="Tracé_4384" data-name="Tracé 4384" d="M548.44,362.207l6.165,3.693,15.311-11.6L609.7,287.793l2.976-18.974-6.165-3.689Z" transform="translate(-513.716 -208.987)" fill="#c94757"/>
      <path id="Tracé_4385" data-name="Tracé 4385" d="M548.44,362.207l3.356,2.007,58.07-97.077-3.356-2.007Z" transform="translate(-513.716 -208.987)" fill="#b22e3c"/>
      <path id="Tracé_4386" data-name="Tracé 4386" d="M637.606,320.479c-1.029-.615-7.788,3.843-23.171,29.575s-15.285,33.909-14.252,34.524,2.989-5.192,18.359-30.916S638.644,321.1,637.606,320.479Z" transform="translate(-543.142 -240.674)" fill="#e35163"/>
      <path id="Tracé_4387" data-name="Tracé 4387" d="M630.309,354.39,612.68,383.867l9.474,5.661,17.629-29.469Z" transform="translate(-550.528 -260.137)" fill="#e35163"/>
      <path id="Tracé_4388" data-name="Tracé 4388" d="M630.309,354.39,612.68,383.867l5.128,3.066,17.629-29.473Z" transform="translate(-550.528 -260.137)" fill="#c94757"/>
      <path id="Tracé_4389" data-name="Tracé 4389" d="M646.445,374.989,636.3,391.948a3.988,3.988,0,0,1-5.465,1.375l14.235-23.8A3.988,3.988,0,0,1,646.445,374.989Z" transform="translate(-560.934 -268.807)" fill="#b22e3c"/>
      <rect id="Rectangle_224" data-name="Rectangle 224" width="16.848" height="9.043" transform="translate(76.107 121.869) rotate(-59.12)" fill="#b22e3c"/>
      <rect id="Rectangle_225" data-name="Rectangle 225" width="14.837" height="4.521" transform="translate(375.183 299.643) rotate(-59.1)" fill="#b22e3c"/>
      <path id="Tracé_4390" data-name="Tracé 4390" d="M1028.993,719.576l29.033-15.891L1043.18,684.57l-33.55,10.08Z" transform="translate(-777.997 -449.344)" fill="#c8deff"/>
      <path id="Tracé_4391" data-name="Tracé 4391" d="M1087.28,659.315s-3.761-9.927,6.152-17.322,26.766,14.764,26.51,20.285-3.813,14.265-17.821,16.152S1087.28,659.315,1087.28,659.315Z" transform="translate(-822.093 -424.089)" fill="#c8deff"/>
      <path id="Tracé_4392" data-name="Tracé 4392" d="M797.763,604.6c-35.766-48.528-11.34-89.123-11.34-89.123l32.248,24.7c-12.382,18.3,4.7,44.544,4.7,44.544Z" transform="translate(-645.424 -352.448)" fill="#fff"/>
      <path id="Tracé_4393" data-name="Tracé 4393" d="M874.91,499.73c8.573,7.006,5.23,10.46,25.3,10.46,15.012,0,16.562-3.454,7.993-10.46Z" transform="translate(-700.797 -343.423)" fill="#f0a38b"/>
      <path id="Tracé_4394" data-name="Tracé 4394" d="M989.19,354.376c0,6.144,4.15,11.131,9.274,11.131s9.273-4.987,9.273-11.131-4.154-11.126-9.273-11.126S989.19,348.233,989.19,354.376Z" transform="translate(-766.284 -253.753)" fill="#f0a38b"/>
      <path id="Tracé_4395" data-name="Tracé 4395" d="M797.35,354.376c0,6.144,4.15,11.131,9.273,11.131s9.273-4.987,9.273-11.131-4.15-11.126-9.273-11.126S797.35,348.233,797.35,354.376Z" transform="translate(-656.352 -253.753)" fill="#f0a38b"/>
      <path id="Tracé_4396" data-name="Tracé 4396" d="M896.326,477.66l19.768-1.281h0c-.047-1.392-.03-13.142,0-23.483l-19.828-.077C896.2,476.093,896.288,477.186,896.326,477.66Z" transform="translate(-713.021 -316.541)" fill="#f0a38b"/>
      <path id="Tracé_4397" data-name="Tracé 4397" d="M899.26,470.716s17.732,4.385,16.8-17.889l-19.828-.077S895.251,470.716,899.26,470.716Z" transform="translate(-712.953 -316.501)" fill="#e8846c"/>
      <path id="Tracé_4398" data-name="Tracé 4398" d="M809.17,265.237c0,30.041,20.622,70.649,46.06,70.649s46.06-40.608,46.06-70.649-20.622-38.127-46.06-38.127S809.17,235.205,809.17,265.237Z" transform="translate(-663.125 -187.2)" fill="#f0a38b"/>
      <path id="Tracé_4399" data-name="Tracé 4399" d="M820.63,300.14c-3.77,13.513-10.806,19.9-5.055,43.5-.085.905-7.685-17.561-9.735-43.5Z" transform="translate(-661.217 -229.049)" fill="#1b0900"/>
      <path id="Tracé_4400" data-name="Tracé 4400" d="M886.776,287.2c.158,1.708,48.122-91.847-75.674-85.276,7.292,6.1-3.894,26.254-11.869,29.951-5.773,13.266,18.18,38.853,49.809-1.832,0,0,1.05,18.56,36.791,26.856C888.847,263.916,886.909,274.816,886.776,287.2Z" transform="translate(-656.937 -172.579)" fill="#1b0900"/>
      <path id="Tracé_4401" data-name="Tracé 4401" d="M912.744,433.82c0,5.422-5.627,9.82-12.57,9.82s-12.574-4.393-12.574-9.82Z" transform="translate(-708.069 -305.654)" fill="#fff"/>
      <path id="Tracé_4402" data-name="Tracé 4402" d="M893.915,375l-1.371-5.687-.517,6.276L887.6,391.3l14.516.952-11.9-2.459Z" transform="translate(-708.069 -268.687)"/>
      <path id="Tracé_4403" data-name="Tracé 4403" d="M871.537,338.42,863,337.63s-5.153,2.916-14.448,2.916C852.773,342.416,871.537,338.42,871.537,338.42Z" transform="translate(-685.691 -250.533)" fill="#1b0900"/>
      <path id="Tracé_4404" data-name="Tracé 4404" d="M927.31,338.42l8.539-.79s5.153,2.916,14.448,2.916C946.07,342.416,927.31,338.42,927.31,338.42Z" transform="translate(-730.824 -250.533)" fill="#1b0900"/>
      <path id="Tracé_4405" data-name="Tracé 4405" d="M876.7,361.573c0,3.881,1.089,7.028,2.429,7.028s2.429-3.147,2.429-7.028-1.084-7.023-2.429-7.023S876.7,357.671,876.7,361.573Z" transform="translate(-701.823 -260.228)" fill="#1b0900"/>
      <path id="Tracé_4406" data-name="Tracé 4406" d="M945.83,361.573c0,3.881,1.089,7.028,2.429,7.028s2.425-3.185,2.425-7.028-1.084-7.023-2.425-7.023S945.83,357.671,945.83,361.573Z" transform="translate(-741.437 -260.228)" fill="#1b0900"/>
      <path id="Tracé_4407" data-name="Tracé 4407" d="M876.565,354.7v4.124a3.992,3.992,0,0,1-3.685-3.288C873.7,356.771,876.565,354.7,876.565,354.7Z" transform="translate(-699.633 -260.314)" fill="#1b0900"/>
      <path id="Tracé_4408" data-name="Tracé 4408" d="M945.859,354.7v4.124a3.992,3.992,0,0,1-3.689-3.288C942.994,356.771,945.859,354.7,945.859,354.7Z" transform="translate(-739.34 -260.314)" fill="#1b0900"/>
      <path id="Tracé_4409" data-name="Tracé 4409" d="M1050.616,984.609s-2.293-16.818,9.747-18.026.594,8.7.594,8.7h0s-4.018,13.953-7.485,14.41C1052.025,989.886,1050.616,984.609,1050.616,984.609Z" transform="translate(-801.384 -610.891)" fill="#c8deff"/>
      <path id="Tracé_4410" data-name="Tracé 4410" d="M1086.066,900.3l.82,32.133-24.008,2.993L1054.74,904.2Z" transform="translate(-803.847 -572.966)" fill="#c8deff"/>
      <path id="Tracé_4411" data-name="Tracé 4411" d="M1071.99,972.753s-2.481,13.283-.713,25.523,20.784,4.735,24.5.653,8.778-17.932.218-29.17S1071.99,972.753,1071.99,972.753Z" transform="translate(-812.959 -610.294)" fill="#c8deff"/>
      <path id="Tracé_4413" data-name="Tracé 4413" d="M635.25,1302.339V1289.15l6.558-9.35,13.005,2.447s11.327,2.493,11.374,12.971a25.965,25.965,0,0,1-4.18,13.116l2.839,54.971a6.767,6.767,0,0,1-6.767,6.767H643.354a6.763,6.763,0,0,1-6.767-6.767l2.827-54.971C636.693,1307.868,635.25,1304.909,635.25,1302.339Z" transform="translate(-563.461 -790.436)" fill="#e96f4c"/>
      <path id="Tracé_4414" data-name="Tracé 4414" d="M639,1318.919c1.759-19.213,27.219-1.678,22.855,5.435l2.267,54.958a5.4,5.4,0,0,1-5.4,5.4H646.988a5.393,5.393,0,0,1-5.4-5.4l2.267-54.958C641.216,1324.512,639,1322.181,639,1318.919Z" transform="translate(-565.61 -807.861)" fill="#fff" opacity="0.1"/>
      <path id="Tracé_4415" data-name="Tracé 4415" d="M669.49,1307.567c-1.9,2.4-3.979-5.038-9.82-8.539s-14.615-3.843-12.715-6.221,13.812-4.825,19.64-1.319S671.382,1305.172,669.49,1307.567Z" transform="translate(-570.018 -796.129)" fill="#fff" opacity="0.1"/>
      <path id="Tracé_4416" data-name="Tracé 4416" d="M671.969,1291.618c-.376.576,3.979.752,7.514,3.049s4.906,5.832,5.277,5.256-.764-4.347-4.3-6.644S672.324,1291.042,671.969,1291.618Z" transform="translate(-584.49 -797.016)" fill="#fff" opacity="0.3"/>
      <path id="Tracé_4417" data-name="Tracé 4417" d="M661.208,1314.362c-.781.5,4.662,3.416,7.967,8.539s3.215,10.46,3.988,9.961,1.281-6.007-2.02-11.1S661.977,1313.858,661.208,1314.362Z" transform="translate(-578.293 -810.208)" fill="#fff" opacity="0.3"/>
      <path id="Tracé_4418" data-name="Tracé 4418" d="M671.511,1296.748a1.772,1.772,0,1,0,2.195-1.2,1.772,1.772,0,0,0-2.195,1.2Z" transform="translate(-584.198 -799.421)" fill="#fff" opacity="0.3"/>
      <path id="Tracé_4419" data-name="Tracé 4419" d="M648.7,1414.333h19.448l-1.366-33.943H650.071Z" transform="translate(-571.169 -848.078)" fill="#f6c08e"/>
      <path id="Tracé_4420" data-name="Tracé 4420" d="M657.47,1401.682a5.978,5.978,0,0,0,5.977,5.978h0a5.977,5.977,0,0,0,5.977-5.978v-9.7a5.977,5.977,0,0,0-5.977-5.977h0a5.977,5.977,0,0,0-5.977,5.978Z" transform="translate(-576.194 -851.293)" fill="#bd916c"/>
      <path id="Tracé_4421" data-name="Tracé 4421" d="M661.88,1404.355a4.1,4.1,0,0,0,4.095,4.094h0a4.094,4.094,0,0,0,4.1-4.094v-8.966a4.1,4.1,0,0,0-4.1-4.1h0a4.1,4.1,0,0,0-4.095,4.1Z" transform="translate(-578.722 -854.325)" fill="#957253"/>
      <rect id="Rectangle_226" data-name="Rectangle 226" width="11.357" height="1.571" transform="translate(81.579 557.143)" fill="#957253"/>
      <rect id="Rectangle_227" data-name="Rectangle 227" width="11.357" height="1.571" transform="translate(81.579 560.025)" fill="#957253"/>
      <rect id="Rectangle_228" data-name="Rectangle 228" width="11.357" height="1.571" transform="translate(81.579 562.907)" fill="#957253"/>
      <path id="Tracé_4422" data-name="Tracé 4422" d="M625.978,1280.552a3.121,3.121,0,0,0,4.389-.547l1.358-1.734a3.134,3.134,0,0,0-.547-4.394l-2.989-2.323a3.121,3.121,0,0,0-4.393.542l-1.353,1.733a3.134,3.134,0,0,0,.547,4.4Z" transform="translate(-555.743 -785.33)" fill="#2d4a6a"/>
      <path id="Tracé_4423" data-name="Tracé 4423" d="M634.837,1276.1l.982.764a3.134,3.134,0,0,1,.547,4.394l-1.358,1.734a3.121,3.121,0,0,1-4.389.546l-.739-.572Z" transform="translate(-560.384 -788.316)" fill="#182f46"/>
      <path id="Tracé_4424" data-name="Tracé 4424" d="M631.679,1285.7a.824.824,0,0,0,1.161-.145l5.61-7.2a.828.828,0,0,0-.141-1.161l-2.186-1.708a.828.828,0,0,0-1.161.145l-5.593,7.233a.854.854,0,0,0,.145,1.161Z" transform="translate(-559.997 -787.865)" fill="#2d4a6a"/>
      <path id="Tracé_4425" data-name="Tracé 4425" d="M629.26,1283.032l2.686,2.088a.726.726,0,0,0,1.025-.124l4.957-6.366a.73.73,0,0,0-.128-1.025l-2.686-2.092a.82.82,0,0,1,1.016,0l2.186,1.708a.828.828,0,0,1,.141,1.161l-5.61,7.2a.824.824,0,0,1-1.161.145l-2.182-1.708a.82.82,0,0,1-.243-.991Z" transform="translate(-559.986 -787.878)" fill="#182f46"/>
      <path id="Tracé_4426" data-name="Tracé 4426" d="M641.986,1278.759a.235.235,0,0,1,.342-.043l2.792,2.173-.307.384-2.788-2.169a.243.243,0,0,1-.038-.346Z" transform="translate(-567.29 -789.784)" fill="#182f46"/>
      <path id="Tracé_4427" data-name="Tracé 4427" d="M640.051,1281.241a.256.256,0,0,1,.35-.047l2.788,2.173-.3.393-2.792-2.178A.243.243,0,0,1,640.051,1281.241Z" transform="translate(-566.183 -791.207)" fill="#182f46"/>
      <path id="Tracé_4428" data-name="Tracé 4428" d="M638.121,1283.721a.243.243,0,0,1,.346-.043l2.792,2.169-.3.389-2.792-2.169A.248.248,0,0,1,638.121,1283.721Z" transform="translate(-565.077 -792.628)" fill="#182f46"/>
      <path id="Tracé_4429" data-name="Tracé 4429" d="M636.19,1286.193a.248.248,0,0,1,.346-.043l2.792,2.178-.3.384-2.792-2.169a.252.252,0,0,1-.043-.35Z" transform="translate(-563.97 -794.046)" fill="#182f46"/>
      <path id="Tracé_4430" data-name="Tracé 4430" d="M634.259,1288.68a.248.248,0,0,1,.346-.047l2.792,2.173-.3.389-2.792-2.173a.239.239,0,0,1-.043-.341Z" transform="translate(-562.863 -795.469)" fill="#182f46"/>
      <path id="Tracé_4431" data-name="Tracé 4431" d="M632.329,1291.161a.238.238,0,0,1,.341-.043l2.8,2.169-.3.388-2.792-2.173a.239.239,0,0,1-.043-.342Z" transform="translate(-561.757 -796.892)" fill="#182f46"/>
      <path id="Tracé_4432" data-name="Tracé 4432" d="M643.463,1281.693l.192-.243-2.967-2.31-.188.243Z" transform="translate(-566.47 -790.058)" fill="#406f95"/>
      <path id="Tracé_4433" data-name="Tracé 4433" d="M641.527,1284.183l.192-.248-2.967-2.306-.192.239Z" transform="translate(-565.358 -791.485)" fill="#406f95"/>
      <path id="Tracé_4434" data-name="Tracé 4434" d="M639.6,1286.655l.192-.239-2.967-2.306-.184.239Z" transform="translate(-564.258 -792.906)" fill="#406f95"/>
      <path id="Tracé_4435" data-name="Tracé 4435" d="M637.673,1289.139l.188-.243-2.967-2.306-.184.239Z" transform="translate(-563.152 -794.327)" fill="#406f95"/>
      <path id="Tracé_4436" data-name="Tracé 4436" d="M635.737,1291.619l.188-.244-2.967-2.306-.188.239Z" transform="translate(-562.04 -795.748)" fill="#406f95"/>
      <path id="Tracé_4437" data-name="Tracé 4437" d="M633.8,1294.093l.192-.243-2.963-2.31-.192.243Z" transform="translate(-560.934 -797.164)" fill="#406f95"/>
      <path id="Tracé_4438" data-name="Tracé 4438" d="M645.393,1279.219l-.043-.423-2.732-2.126-.188.239Z" transform="translate(-567.576 -788.643)" fill="#406f95"/>
      <path id="Tracé_4439" data-name="Tracé 4439" d="M624.193,1276.124c.534.739,2.036.568,3.364-.376s1.968-2.318,1.435-3.057-2.037-.572-3.356.376S623.664,1275.381,624.193,1276.124Z" transform="translate(-557.02 -786.098)" fill="#406f95"/>
      <path id="Tracé_4440" data-name="Tracé 4440" d="M624.7,1276.3c.137.183.726-1.153,1.879-1.977s2.425-.82,2.288-1a2.825,2.825,0,0,0-2.6.525A3.587,3.587,0,0,0,624.7,1276.3Z" transform="translate(-557.407 -786.649)" fill="#708aab"/>
      <path id="Tracé_4441" data-name="Tracé 4441" d="M626.369,1279.932a.6.6,0,1,0-.235-.4A.593.593,0,0,0,626.369,1279.932Z" transform="translate(-558.235 -789.898)" fill="#708aab"/>
      <rect id="Rectangle_229" data-name="Rectangle 229" width="5.636" height="5.281" transform="translate(105.843 481.982)" fill="#e96f4c"/>
      <rect id="Rectangle_230" data-name="Rectangle 230" width="2.195" height="5.281" transform="translate(105.937 481.982)" fill="#b65738"/>
      <rect id="Rectangle_231" data-name="Rectangle 231" width="1.093" height="5.281" transform="translate(110.287 481.982)" fill="#fff" opacity="0.1"/>
      <path id="Tracé_4442" data-name="Tracé 4442" d="M706.085,1277.163a5.344,5.344,0,0,1-.085-.918v-.939a4.935,4.935,0,0,1,4.931-4.936H714.4a4.94,4.94,0,0,1,4.936,4.936v.939a5.344,5.344,0,0,1-.086.918Z" transform="translate(-604.004 -785.032)" fill="#2d4a6a"/>
      <path id="Tracé_4443" data-name="Tracé 4443" d="M706.085,1282.469a5.344,5.344,0,0,1-.085-.918V1280.1l13.334-.469v1.921a5.344,5.344,0,0,1-.086.918Z" transform="translate(-604.004 -790.339)" fill="#182f46"/>
      <path id="Tracé_4444" data-name="Tracé 4444" d="M712.911,1271.635c-.427.636,1.255,1.422,3.719,1.763s4.786.094,5.2-.542-1.281-1.426-3.719-1.759S713.338,1271,712.911,1271.635Z" transform="translate(-607.926 -785.363)" fill="#406f95"/>
      <path id="Tracé_4445" data-name="Tracé 4445" d="M714.355,1271.915c-.1.154,2.135-.1,4.27.188s3.364,1.029,3.467.854-1.042-.965-3.177-1.255A11.722,11.722,0,0,0,714.355,1271.915Z" transform="translate(-608.79 -785.732)" fill="#708aab"/>
      <path id="Tracé_4446" data-name="Tracé 4446" d="M716,1273.293a.5.5,0,0,0,.547.427.427.427,0,1,0,0-.854A.5.5,0,0,0,716,1273.293Z" transform="translate(-609.735 -786.461)" fill="#708aab"/>
      <path id="Tracé_4447" data-name="Tracé 4447" d="M701.87,1285.867a.969.969,0,0,0,.965.974h14.944a.969.969,0,0,0,.973-.974v-3.253a.969.969,0,0,0-.974-.973H702.835a.969.969,0,0,0-.965.973Z" transform="translate(-601.637 -791.491)" fill="#2d4a6a"/>
      <path id="Tracé_4448" data-name="Tracé 4448" d="M702.563,1281.71v4.009a.854.854,0,0,0,.854.854h13.663a.854.854,0,0,0,.854-.854v-4.009a.969.969,0,0,1,.739.944v3.253a.97.97,0,0,1-.973.973H702.755a.969.969,0,0,1-.965-.973v-3.253a.974.974,0,0,1,.773-.944Z" transform="translate(-601.592 -791.531)" fill="#182f46"/>
      <path id="Tracé_4449" data-name="Tracé 4449" d="M735.61,1283a.285.285,0,0,1,.286.29v4.159h-.576v-4.159a.286.286,0,0,1,.29-.29Z" transform="translate(-620.806 -792.27)" fill="#182f46"/>
      <path id="Tracé_4450" data-name="Tracé 4450" d="M731.9,1283a.29.29,0,0,1,.29.29v4.159h-.581v-4.159a.29.29,0,0,1,.29-.29Z" transform="translate(-618.68 -792.27)" fill="#182f46"/>
      <path id="Tracé_4451" data-name="Tracé 4451" d="M728.2,1283a.286.286,0,0,1,.29.29v4.159h-.581v-4.159A.294.294,0,0,1,728.2,1283Z" transform="translate(-616.56 -792.27)" fill="#182f46"/>
      <path id="Tracé_4452" data-name="Tracé 4452" d="M724.51,1283a.29.29,0,0,1,.29.29v4.159h-.581v-4.159a.286.286,0,0,1,.29-.29Z" transform="translate(-614.445 -792.27)" fill="#182f46"/>
      <path id="Tracé_4453" data-name="Tracé 4453" d="M720.81,1283a.286.286,0,0,1,.29.29v4.159h-.581v-4.159a.286.286,0,0,1,.29-.29Z" transform="translate(-612.325 -792.27)" fill="#182f46"/>
      <path id="Tracé_4454" data-name="Tracé 4454" d="M717.11,1283a.286.286,0,0,1,.29.29v4.159h-.581v-4.159a.29.29,0,0,1,.29-.29Z" transform="translate(-610.205 -792.27)" fill="#182f46"/>
      <rect id="Rectangle_232" data-name="Rectangle 232" width="0.359" height="4.423" transform="translate(113.993 490.389)" fill="#406f95"/>
      <rect id="Rectangle_233" data-name="Rectangle 233" width="0.359" height="4.423" transform="translate(112.409 490.389)" fill="#406f95"/>
      <rect id="Rectangle_234" data-name="Rectangle 234" width="0.359" height="4.423" transform="translate(110.838 490.389)" fill="#406f95"/>
      <rect id="Rectangle_235" data-name="Rectangle 235" width="0.359" height="4.423" transform="translate(109.258 490.389)" fill="#406f95"/>
      <rect id="Rectangle_236" data-name="Rectangle 236" width="0.359" height="4.423" transform="translate(107.679 490.389)" fill="#406f95"/>
      <rect id="Rectangle_237" data-name="Rectangle 237" width="0.363" height="4.423" transform="translate(106.099 490.389)" fill="#406f95"/>
      <path id="Tracé_4455" data-name="Tracé 4455" d="M737.79,1286.613l.359-.346v-4.078h-.359Z" transform="translate(-622.221 -791.806)" fill="#406f95"/>
      <path id="Tracé_4456" data-name="Tracé 4456" d="M713.416,1283a.29.29,0,0,1,.295.29v4.159h-.581v-4.159a.286.286,0,0,1,.286-.29Z" transform="translate(-608.09 -792.27)" fill="#182f46"/>
      <path id="Tracé_4457" data-name="Tracé 4457" d="M709.72,1283a.29.29,0,0,1,.29.29v4.159h-.581v-4.159a.286.286,0,0,1,.29-.29Z" transform="translate(-605.97 -792.27)" fill="#182f46"/>
      <path id="Tracé_4458" data-name="Tracé 4458" d="M706.02,1283a.286.286,0,0,1,.29.29v4.159h-.581v-4.159a.29.29,0,0,1,.29-.29Z" transform="translate(-603.849 -792.27)" fill="#182f46"/>
      <rect id="Rectangle_238" data-name="Rectangle 238" width="0.359" height="4.423" transform="translate(104.519 490.389)" fill="#406f95"/>
      <rect id="Rectangle_239" data-name="Rectangle 239" width="0.359" height="4.423" transform="translate(102.944 490.389)" fill="#406f95"/>
      <rect id="Rectangle_240" data-name="Rectangle 240" width="0.363" height="4.423" transform="translate(101.364 490.389)" fill="#406f95"/>
      <path id="Tracé_4459" data-name="Tracé 4459" d="M715.84,1260.867a.452.452,0,0,0,.452.457h4.026a.452.452,0,0,0,.453-.457h0a.448.448,0,0,0-.453-.427h-4.026A.448.448,0,0,0,715.84,1260.867Z" transform="translate(-609.643 -779.342)" fill="#b65738"/>
      <path id="Tracé_4460" data-name="Tracé 4460" d="M685.39,1302.455c0-8.539,6.921-10.025,15.469-10.025s15.464,1.486,15.464,10.025a25.923,25.923,0,0,1-4.18,13.116l2.844,54.971a6.763,6.763,0,0,1-6.767,6.767h-14.73a6.763,6.763,0,0,1-6.763-6.767l2.835-54.971A25.992,25.992,0,0,1,685.39,1302.455Z" transform="translate(-592.194 -797.674)" fill="#7cc5d0"/>
      <path id="Tracé_4461" data-name="Tracé 4461" d="M692.71,1313.642c.453-10.674,25.711,3.347,21.348,10.46l2.259,54.958a5.4,5.4,0,0,1-5.4,5.4H699.174a5.4,5.4,0,0,1-5.4-5.4l2.267-54.958A20.678,20.678,0,0,1,692.71,1313.642Z" transform="translate(-596.388 -807.609)" fill="#a7d7e0"/>
      <path id="Tracé_4462" data-name="Tracé 4462" d="M723.911,1310.708c-1.652,2.1-3.471-4.4-8.578-7.472s-12.779-3.343-11.122-5.435,12.079-4.218,17.185-1.152S725.572,1308.612,723.911,1310.708Z" transform="translate(-602.848 -799.211)" fill="#a7d7e0"/>
      <path id="Tracé_4463" data-name="Tracé 4463" d="M726.044,1296.772c-.325.5,3.484.662,6.575,2.668s4.27,5.1,4.611,4.594-.67-3.8-3.753-5.806S726.373,1296.277,726.044,1296.772Z" transform="translate(-615.479 -799.996)" fill="#c7e6eb"/>
      <path id="Tracé_4464" data-name="Tracé 4464" d="M711.339,1314.362c-.777.5,4.671,3.416,7.976,8.539s3.211,10.46,3.983,9.961,1.281-6.007-2.019-11.1S712.112,1313.858,711.339,1314.362Z" transform="translate(-607.021 -810.208)" fill="#c7e6eb"/>
      <path id="Tracé_4465" data-name="Tracé 4465" d="M725.685,1301.249a1.541,1.541,0,1,0,.743-.923,1.545,1.545,0,0,0-.743.923Z" transform="translate(-615.248 -802.091)" fill="#c7e6eb"/>
      <path id="Tracé_4466" data-name="Tracé 4466" d="M696.38,1414.046h21.549l-1.285-35.625H698.126Z" transform="translate(-598.491 -846.95)" fill="#fff"/>
      <path id="Tracé_4467" data-name="Tracé 4467" d="M698.84,1414.333h19.444l-1.362-33.943H700.206Z" transform="translate(-599.901 -848.078)" fill="#e96f4c"/>
      <path id="Tracé_4468" data-name="Tracé 4468" d="M707.6,1401.682a5.978,5.978,0,0,0,5.977,5.978h0a5.977,5.977,0,0,0,5.977-5.978v-9.7a5.977,5.977,0,0,0-5.977-5.977h0a5.977,5.977,0,0,0-5.977,5.978Z" transform="translate(-604.921 -851.293)" fill="#c05c3c"/>
      <path id="Tracé_4469" data-name="Tracé 4469" d="M712,1404.355a4.094,4.094,0,0,0,4.1,4.094h0a4.1,4.1,0,0,0,4.095-4.094v-8.966a4.094,4.094,0,0,0-4.095-4.1h0a4.1,4.1,0,0,0-4.1,4.1Z" transform="translate(-607.442 -854.325)" fill="#843f25"/>
      <rect id="Rectangle_241" data-name="Rectangle 241" width="11.357" height="1.571" transform="translate(102.982 557.143)" fill="#843f25"/>
      <rect id="Rectangle_242" data-name="Rectangle 242" width="11.357" height="1.571" transform="translate(102.982 560.025)" fill="#843f25"/>
      <rect id="Rectangle_243" data-name="Rectangle 243" width="11.357" height="1.571" transform="translate(102.982 562.907)" fill="#843f25"/>
      <path id="Tracé_4470" data-name="Tracé 4470" d="M734.823,1329.046v-7.916l13.133,6.776c-4.7,8.441-3.061,3.206-5.755,2.284l-4.27-1.452c0,8.582-9.991,10.247-9.991,7.608C735.1,1334.891,734.823,1329.046,734.823,1329.046Z" transform="translate(-616.577 -814.12)" fill="#2d4a6a"/>
      <path id="Tracé_4471" data-name="Tracé 4471" d="M752.333,1339l4.27,1.452c1.131.389,1.5,1.537,1.9,2.135-1.242,1.179-1.042-1.516-2.9-2.135L751.33,1339Z" transform="translate(-629.98 -824.36)" fill="#182f46"/>
      <path id="Tracé_4472" data-name="Tracé 4472" d="M734.817,1329.046v-7.916l1,.516v7.433s.286,5.849-6.887,7.3c0,.6.517.978,1.306,1.106-1.341.094-2.31-.312-2.31-1.14C735.1,1334.891,734.817,1329.046,734.817,1329.046Z" transform="translate(-616.571 -814.12)" fill="#182f46"/>
      <rect id="Rectangle_244" data-name="Rectangle 244" width="4.726" height="5.047" transform="translate(107.875 504.009)" fill="#2d4a6a"/>
      <rect id="Rectangle_245" data-name="Rectangle 245" width="4.726" height="1.964" transform="translate(107.875 507.01)" fill="#182f46"/>
      <rect id="Rectangle_246" data-name="Rectangle 246" width="4.726" height="0.982" transform="translate(107.875 504.585)" fill="#406f95"/>
      <path id="Tracé_4473" data-name="Tracé 4473" d="M755.036,1313.29l9.111,9.922-3.185,6.212H748.815l-2.024-3.727-13.321-6.763h-4.03v-5.644Z" transform="translate(-617.436 -809.627)" fill="#e96f4c"/>
      <path id="Tracé_4474" data-name="Tracé 4474" d="M761.3,1325.351l-9.116-9.922H729.44v-2.139h25.6l9.111,9.922-3.185,6.212Z" transform="translate(-617.436 -809.627)" fill="#fff" opacity="0.1"/>
      <path id="Tracé_4475" data-name="Tracé 4475" d="M735.09,1314.482c0,.346,4.7.628,10.465.628s10.465-.282,10.465-.628-4.7-.632-10.465-.632S735.09,1314.136,735.09,1314.482Z" transform="translate(-620.674 -809.948)" fill="#fff" opacity="0.3"/>
      <path id="Tracé_4476" data-name="Tracé 4476" d="M789.148,1317.752c1.131,1.23,1.84,2.412,1.588,2.647s-1.371-.581-2.5-1.806-1.84-2.412-1.584-2.647S788.02,1316.522,789.148,1317.752Z" transform="translate(-650.19 -811.126)" fill="#fff" opacity="0.3"/>
      <path id="Tracé_4477" data-name="Tracé 4477" d="M732.508,1388.58h0s11.955-8.074,13.317-27.88h14.021l9.777,55.731H740.411a15.054,15.054,0,0,1-7.9-27.85Z" transform="translate(-615.111 -836.795)" fill="#7cc5d0"/>
      <path id="Tracé_4478" data-name="Tracé 4478" d="M738.576,1392.345h0s12.01-7.259,13.236-25.075h10.4L771,1417.412H745.685a13.539,13.539,0,0,1-7.109-25.067Z" transform="translate(-618.981 -840.56)" fill="#a7d7e0"/>
      <path id="Tracé_4479" data-name="Tracé 4479" d="M766.214,1370.812c-.905-.427-.564,5.73-3.655,12.185s-8.279,9.786-7.378,10.221,6.468-2.562,9.56-9.043S767.119,1371.243,766.214,1370.812Z" transform="translate(-632.128 -842.578)" fill="#c7e6eb"/>
      <path id="Tracé_4480" data-name="Tracé 4480" d="M784.915,1370.866a1.55,1.55,0,1,0,.745-.924,1.55,1.55,0,0,0-.745.924Z" transform="translate(-649.19 -841.982)" fill="#c7e6eb"/>
      <path id="Tracé_4481" data-name="Tracé 4481" d="M750.706,1426.091a19.467,19.467,0,0,0,7.13-6.131H768.51l4.129,23.526H755.675a9.393,9.393,0,0,1-4.97-17.394Z" transform="translate(-627.059 -870.754)" fill="#e96f4c"/>
      <path id="Tracé_4482" data-name="Tracé 4482" d="M744.06,1432.755a10.367,10.367,0,0,0,10.371,10.371h18.094l-4.466-25.455h-11.98a18.449,18.449,0,0,1-7.092,6.251h0A10.371,10.371,0,0,0,744.06,1432.755Zm.965,0a9.367,9.367,0,0,1,4.436-7.988,19.465,19.465,0,0,0,7.13-6.131h10.674l4.129,23.525H754.431a9.419,9.419,0,0,1-9.406-9.406Z" transform="translate(-625.814 -869.442)" fill="#fff"/>
      <path id="Tracé_4483" data-name="Tracé 4483" d="M773.63,1433.7a3.987,3.987,0,0,0,3.992,3.992h0a3.992,3.992,0,0,0,3.992-3.992v-6.468a3.992,3.992,0,0,0-3.992-3.992h0a3.992,3.992,0,0,0-3.992,3.992Z" transform="translate(-642.759 -872.633)" fill="#c05c3c"/>
      <path id="Tracé_4484" data-name="Tracé 4484" d="M776.57,1435.49a2.741,2.741,0,0,0,2.737,2.737h0a2.741,2.741,0,0,0,2.737-2.737v-5.977a2.737,2.737,0,0,0-2.737-2.733h0a2.737,2.737,0,0,0-2.737,2.733Z" transform="translate(-644.444 -874.662)" fill="#843f25"/>
      <rect id="Rectangle_247" data-name="Rectangle 247" width="16.515" height="1.05" transform="translate(126.503 565.576)" fill="#843f25"/>
      <rect id="Rectangle_248" data-name="Rectangle 248" width="16.515" height="1.05" transform="translate(126.503 567.501)" fill="#843f25"/>
      <rect id="Rectangle_249" data-name="Rectangle 249" width="16.515" height="1.05" transform="translate(126.503 569.427)" fill="#843f25"/>
      <path id="Tracé_4485" data-name="Tracé 4485" d="M768.47,1353.227a.969.969,0,0,0,.969.974h14.944a.969.969,0,0,0,.969-.974v-3.253a.974.974,0,0,0-.969-.973H769.439a.973.973,0,0,0-.969.973Z" transform="translate(-639.802 -830.091)" fill="#2d4a6a"/>
      <path id="Tracé_4486" data-name="Tracé 4486" d="M769.163,1349.08v4a.854.854,0,0,0,.854.854h13.663a.854.854,0,0,0,.854-.854v-4a.96.96,0,0,1,.739.939v3.253a.969.969,0,0,1-.969.974H769.359a.969.969,0,0,1-.969-.974v-3.253A.969.969,0,0,1,769.163,1349.08Z" transform="translate(-639.756 -830.137)" fill="#182f46"/>
      <path id="Tracé_4487" data-name="Tracé 4487" d="M802.2,1350.39a.291.291,0,0,1,.29.295v4.159h-.581v-4.159A.3.3,0,0,1,802.2,1350.39Z" transform="translate(-658.965 -830.887)" fill="#182f46"/>
      <path id="Tracé_4488" data-name="Tracé 4488" d="M798.5,1350.39a.291.291,0,0,1,.286.295v4.159h-.581v-4.159A.3.3,0,0,1,798.5,1350.39Z" transform="translate(-656.844 -830.887)" fill="#182f46"/>
      <path id="Tracé_4489" data-name="Tracé 4489" d="M794.806,1350.39a.291.291,0,0,1,.29.295v4.159h-.576v-4.159A.3.3,0,0,1,794.806,1350.39Z" transform="translate(-654.73 -830.887)" fill="#182f46"/>
      <path id="Tracé_4490" data-name="Tracé 4490" d="M791.11,1350.39a.291.291,0,0,1,.29.295v4.159h-.581v-4.159A.3.3,0,0,1,791.11,1350.39Z" transform="translate(-652.61 -830.887)" fill="#182f46"/>
      <path id="Tracé_4491" data-name="Tracé 4491" d="M787.41,1350.39a.291.291,0,0,1,.29.295v4.159h-.581v-4.159A.3.3,0,0,1,787.41,1350.39Z" transform="translate(-650.489 -830.887)" fill="#182f46"/>
      <path id="Tracé_4492" data-name="Tracé 4492" d="M783.72,1350.39a.29.29,0,0,1,.286.295v4.159h-.576v-4.159a.291.291,0,0,1,.29-.295Z" transform="translate(-648.375 -830.887)" fill="#182f46"/>
      <rect id="Rectangle_250" data-name="Rectangle 250" width="0.363" height="4.419" transform="translate(142.429 519.144)" fill="#406f95"/>
      <rect id="Rectangle_251" data-name="Rectangle 251" width="0.359" height="4.419" transform="translate(140.849 519.144)" fill="#406f95"/>
      <rect id="Rectangle_252" data-name="Rectangle 252" width="0.363" height="4.419" transform="translate(139.274 519.144)" fill="#406f95"/>
      <rect id="Rectangle_253" data-name="Rectangle 253" width="0.359" height="4.419" transform="translate(137.694 519.144)" fill="#406f95"/>
      <rect id="Rectangle_254" data-name="Rectangle 254" width="0.363" height="4.419" transform="translate(136.114 519.144)" fill="#406f95"/>
      <rect id="Rectangle_255" data-name="Rectangle 255" width="0.363" height="4.419" transform="translate(134.539 519.144)" fill="#406f95"/>
      <path id="Tracé_4493" data-name="Tracé 4493" d="M804.39,1353.979l.367-.35v-4.069h-.367Z" transform="translate(-660.386 -830.412)" fill="#406f95"/>
      <path id="Tracé_4494" data-name="Tracé 4494" d="M780.025,1350.39a.29.29,0,0,1,.282.295v4.159h-.576v-4.159A.3.3,0,0,1,780.025,1350.39Z" transform="translate(-646.255 -830.887)" fill="#182f46"/>
      <path id="Tracé_4495" data-name="Tracé 4495" d="M776.3,1350.39a.291.291,0,0,1,.29.295v4.158H776v-4.158a.291.291,0,0,1,.3-.295Z" transform="translate(-644.117 -830.887)" fill="#182f46"/>
      <path id="Tracé_4496" data-name="Tracé 4496" d="M772.61,1350.39a.29.29,0,0,1,.286.295v4.159h-.576v-4.159a.291.291,0,0,1,.29-.295Z" transform="translate(-642.008 -830.887)" fill="#182f46"/>
      <rect id="Rectangle_256" data-name="Rectangle 256" width="0.359" height="4.419" transform="translate(132.959 519.144)" fill="#406f95"/>
      <rect id="Rectangle_257" data-name="Rectangle 257" width="0.363" height="4.419" transform="translate(131.379 519.144)" fill="#406f95"/>
      <rect id="Rectangle_258" data-name="Rectangle 258" width="0.363" height="4.419" transform="translate(129.804 519.144)" fill="#406f95"/>
    </g>
  </g>
</svg>
