<svg xmlns="http://www.w3.org/2000/svg" xmlns:xlink="http://www.w3.org/1999/xlink" width="462.339" height="489" viewBox="0 0 462.339 489">
  <defs>
    <clipPath id="clip-path">
      <path id="Fill-1" d="M406,433.958c-11.964,7.2-25.884,12.408-41.227,15.788a204.771,204.771,0,0,1-32.333,4.314c-41.539,2.535-89.3-5.248-135.334-20.814-10.318-3.469-20.547-7.338-30.6-11.608C91.661,390.151,26.6,338.74,8.361,279.144-24.95,170.361,46.564,92.131,129.375,20.35A114.76,114.76,0,0,1,259.628,6.718c10.585,5.737,13.575,25.863,24.2,33.646,39.893,29.308,79.386,71.959,112.742,119.368C462.04,252.816,499.932,377.521,406,433.958" transform="translate(1242.66 2569.468)" fill="#c8deff"/>
    </clipPath>
    <linearGradient id="linear-gradient" x1="0.137" y1="0.045" x2="0.841" y2="1.032" gradientUnits="objectBoundingBox">
      <stop offset="0" stop-color="#ffda1c"/>
      <stop offset="1" stop-color="#feb705"/>
    </linearGradient>
    <linearGradient id="linear-gradient-2" x1="1.026" y1="0.5" x2="0.247" y2="0.5" xlink:href="#linear-gradient"/>
    <linearGradient id="linear-gradient-3" x1="0.665" y1="1.13" x2="0.527" y2="0.415" xlink:href="#linear-gradient"/>
    <linearGradient id="linear-gradient-4" x1="0.828" y1="0.339" x2="0.566" y2="0.461" xlink:href="#linear-gradient"/>
    <linearGradient id="linear-gradient-5" x1="1.665" y1="1.13" x2="1.527" y2="0.415" xlink:href="#linear-gradient"/>
    <linearGradient id="linear-gradient-6" x1="0.898" y1="0.689" x2="0.567" y2="0.528" xlink:href="#linear-gradient"/>
    <radialGradient id="radial-gradient" cx="0.497" cy="-0.46" r="1.184" gradientUnits="objectBoundingBox">
      <stop offset="0.655" stop-color="#871233"/>
      <stop offset="0.718" stop-color="#8e1336"/>
      <stop offset="0.812" stop-color="#a3163e"/>
      <stop offset="0.9" stop-color="#bc1948"/>
    </radialGradient>
    <linearGradient id="linear-gradient-31" x1="0.246" y1="0.058" x2="0.752" y2="0.938" xlink:href="#linear-gradient"/>
  </defs>
  <g id="Likdom_illustration" data-name="Likdom illustration" transform="translate(-1242.66 -2535)">
    <path id="Fill-1-2" data-name="Fill-1" d="M406,433.958c-11.964,7.2-25.884,12.408-41.227,15.788a204.771,204.771,0,0,1-32.333,4.314c-41.539,2.535-89.3-5.248-135.334-20.814-10.318-3.469-20.547-7.338-30.6-11.608C91.661,390.151,26.6,338.74,8.361,279.144-24.95,170.361,46.564,92.131,129.375,20.35c33.578-29.13,77.34-24.95,122.615-.356a280.448,280.448,0,0,1,31.843,20.369c39.893,29.308,79.386,71.959,112.742,119.368C462.04,252.816,499.932,377.521,406,433.958" transform="translate(1242.66 2569.468)" fill="#c8deff"/>
    <g id="Maid_Masked" data-name="Maid Masked" clip-path="url(#clip-path)">
      <g id="Likdom_Maid_BG" data-name="Likdom Maid+BG" transform="translate(-30 8)">
        <g id="Maid" transform="translate(1372.268 2569.157)">
          <path id="Tracé_81" data-name="Tracé 81" d="M33.914,1.041C13.756-7.118,0,35.354,0,35.354S52.321,10.372,33.914,1.041Z" transform="translate(110.084 1.98) rotate(-3)" fill="#2d4a6a"/>
          <path id="Tracé_82" data-name="Tracé 82" d="M25.769.4C15.143-3.893,0,27.933,0,27.933S35.474,5.322,25.769.4Z" transform="translate(110.473 9.391) rotate(-3)" fill="#223b56"/>
          <path id="Tracé_83" data-name="Tracé 83" d="M3.928,1.041C24.086-7.118,37.837,35.354,37.837,35.354S-14.489,10.372,3.928,1.041Z" transform="translate(65.004 4.343) rotate(-3)" fill="#2d4a6a"/>
          <path id="Tracé_84" data-name="Tracé 84" d="M1.681.4C12.308-3.893,27.451,27.933,27.451,27.933S-8.023,5.322,1.681.4Z" transform="translate(75.765 11.21) rotate(-3)" fill="#223b56"/>
          <path id="Tracé_85" data-name="Tracé 85" d="M21.118,10.559A10.559,10.559,0,1,1,10.559,0,10.559,10.559,0,0,1,21.118,10.559Z" transform="translate(95.729 26.028) rotate(-3)" fill="#223b56"/>
          <path id="Tracé_86" data-name="Tracé 86" d="M1.209,79.062c1.286.331-17.672-106.513,58.378-72.306C19.471,27.523,2.495,79.393,2.495,79.393" transform="translate(50.155 34.321) rotate(-3)" fill="#2d4a6a"/>
          <path id="Tracé_87" data-name="Tracé 87" d="M54.37,79.062C53.089,79.393,76.055-27.451,0,6.755,40.12,27.523,53.089,79.393,53.089,79.393" transform="translate(106.395 31.374) rotate(-3)" fill="#2d4a6a"/>
          <path id="Tracé_88" data-name="Tracé 88" d="M19.87,0S28.947,59.179,0,66.331c4.8,5.808,39.482,21.81,71.822,3.081Z" transform="translate(39.011 114.076) rotate(-3)" fill="#1b0900"/>
          <path id="Tracé_89" data-name="Tracé 89" d="M51.951,0s-9.067,59.179,19.88,66.331C67.032,72.138,32.345,88.14,0,69.412Z" transform="translate(105.615 110.585) rotate(-3)" fill="#1b0900"/>
          <path id="Tracé_90" data-name="Tracé 90" d="M93.762,1388.61l-33.492,7.108v8.006H110.4V1388.61Z" transform="translate(-31.338 -719.849)" fill="#3d5b8e"/>
          <path id="Tracé_91" data-name="Tracé 91" d="M92.08,903.89l8.894,108.9,9.33,122.587s7.449,10.079,16.8,0l10.67-72.9-4-49.686L157,903.89Z" transform="translate(-47.88 -467.777)" fill="#7db1ff"/>
          <path id="Tracé_92" data-name="Tracé 92" d="M146.569,906.31,134.46,1014.782l7.478,127.19c2.448-.307,7.2-4.161,7.2-4.161l10.67-72.9-4-49.686,23.23-108.894Z" transform="translate(-69.92 -469.035)" fill="#7395cf"/>
          <path id="Tracé_93" data-name="Tracé 93" d="M243.506,1388.61H231.853l-8.443,7.108v8.006h28.908v-8.006Z" transform="translate(-116.177 -719.849)" fill="#3d5b8e"/>
          <path id="Tracé_94" data-name="Tracé 94" d="M243.465,906.31l-3.11,108.678-15.109,122.8s-7.713,6.239-11.716-.528l-10.674-72.9,4.008-49.686L187.3,906.31Z" transform="translate(-97.398 -469.035)" fill="#7db1ff"/>
          <path id="Tracé_96" data-name="Tracé 96" d="M88.4,445.15c.221.442-27.137,28.625-34.106,113.852l-3.84,88.707" transform="translate(-26.231 -229.215)" fill="none" stroke="#f0a38b" stroke-width="18"/>
          <path id="Tracé_97" data-name="Tracé 97" d="M35.61,471.338c1.776-70.233,56.117-91.8,56.117-91.8l11,50.876c-24.478,8.006-29.335,40.9-29.335,40.9Z" transform="translate(-18.514 -195.095)" fill="#fff"/>
          <path id="Tracé_98" data-name="Tracé 98" d="M224.1,409.829s-44.709,63.456-21.891,157.86C171.279,593.127,92.08,501.958,92.08,445.985s29.494-64.013,43.417-68.755h72.59C219.352,381.171,224.1,393.4,224.1,409.829Z" transform="translate(-47.88 -193.894)" fill="#fff"/>
          <path id="Tracé_99" data-name="Tracé 99" d="M135.049,377.23c-19.117,10.175-29.489,34.375-29.489,56.9h14.37c1.843-32.009,4.214-48.6,26.441-56.9Z" transform="translate(-54.89 -193.894)" fill="#d8dade"/>
          <path id="Tracé_100" data-name="Tracé 100" d="M278.224,377.23c-19.117,10.175-29.494,34.375-29.494,56.9l6.479,8.639c9.969-34.932,12.114-57.24,34.341-65.539Z" transform="translate(-129.344 -193.894)" fill="#d8dade"/>
          <path id="Tracé_101" data-name="Tracé 101" d="M193.214,687.818c-10.809,58.58-6.8,96.712-6.8,96.712-63.038,14.3-122.933-3.024-122.933-3.024L80.7,587.261,77.207,484.122c13.127-15.839,66.129-12.772,82.237,0-8.918,93.29,29.187,124.666,29.187,124.666S204.023,651.293,193.214,687.818Z" transform="translate(-33.007 -243.886)" fill="#27425f"/>
          <path id="Tracé_102" data-name="Tracé 102" d="M103.9,589.09c2.145,0,8.39,31.678,8.39,69.518s-7.06,68.5-9.21,68.5,1.44-30.665,1.44-68.5S101.747,589.09,103.9,589.09Z" transform="translate(-53.242 -304.069)" fill="#2d4a6a"/>
          <path id="Tracé_103" data-name="Tracé 103" d="M121.574,377.23c-19.122,10.175-29.494,34.375-29.494,56.9h14.36c2.227-36,12.153-48.6,34.38-56.9Z" transform="translate(-47.88 -193.894)" fill="#27425f"/>
          <path id="Tracé_104" data-name="Tracé 104" d="M261.689,377.23c-26.8,8.3-29.489,34.375-29.489,56.9h14.984c-.888-33.492,9.268-46.931,33.77-56.9Z" transform="translate(-120.748 -193.894)" fill="#27425f"/>
          <path id="Tracé_105" data-name="Tracé 105" d="M176.268,561.846c0,20.638-13.737,37.4-30.679,37.4s-30.679-16.751-30.679-37.4,13.737-15.94,30.679-15.94S176.268,541.183,176.268,561.846Z" transform="translate(-59.753 -281.37)" fill="#3d5b8e"/>
          <path id="Tracé_106" data-name="Tracé 106" d="M176.238,562.206v-.36c0-20.639-13.737-15.94-30.679-15.94s-30.679-4.723-30.679,15.94v.36Z" transform="translate(-59.737 -281.37)" fill="#3d5b8e"/>
          <path id="Tracé_107" data-name="Tracé 107" d="M284.131,445.15c.221.442,26.091,35.641,19.122,120.868l-74.188-36.385" transform="translate(-107.908 -229.215)" fill="none" stroke="#f0a38b" stroke-width="18"/>
          <path id="Tracé_139" data-name="Tracé 139" d="M383.338,471.338c-1.776-70.233-56.122-91.8-56.122-91.8l-11,50.876c24.478,8.006,29.335,40.9,29.335,40.9Z" transform="translate(-164.441 -195.095)" fill="#fff"/>
          <path id="Tracé_140" data-name="Tracé 140" d="M130.427,377.23c2.15,0-24.723,15.186-24.6,40.893l-4.276,47.713c-4.526,0-3.878,3.84-4.108-45.505C97.315,394.619,128.282,377.24,130.427,377.23Z" transform="translate(-50.667 -193.894)" fill="#2d4a6a"/>
          <path id="Tracé_141" data-name="Tracé 141" d="M271.242,377.23c2.15,0-24.728,15.186-24.6,40.893l-4.291,33.017c-4.516,0-4.1-9.9-4.1-30.809C238.225,394.619,269.067,377.24,271.242,377.23Z" transform="translate(-123.888 -193.894)" fill="#2d4a6a"/>
          <path id="Tracé_142" data-name="Tracé 142" d="M227.259,379.54c-9.988,8.159-6.086,12.186-29.479,12.186-17.49,0-19.3-4.022-9.311-12.186Z" transform="translate(-94.847 -195.095)" fill="#f0a38b"/>
          <path id="Tracé_143" data-name="Tracé 143" d="M21.618,12.959c0,7.156-4.838,12.959-10.809,12.959S0,20.11,0,12.959,4.838,0,10.809,0,21.618,5.793,21.618,12.959Z" transform="translate(53.081 109.431) rotate(-3)" fill="#f0a38b"/>
          <path id="Tracé_144" data-name="Tracé 144" d="M21.618,12.959c0,7.156-4.843,12.959-10.809,12.959S0,20.11,0,12.959,4.833,0,10.809,0,21.618,5.793,21.618,12.959Z" transform="translate(148.405 104.435) rotate(-3)" fill="#f0a38b"/>
          <path id="Tracé_145" data-name="Tracé 145" d="M228.608,359.8,205.57,358.3h0c.053-1.622.034-15.316,0-27.382l23.115-.1C228.752,357.981,228.651,359.258,228.608,359.8Z" transform="translate(-106.9 -169.759)" fill="#f0a38b"/>
          <path id="Tracé_146" data-name="Tracé 146" d="M225.023,351.75s-20.672,5.112-19.587-20.854l23.115-.1S229.683,351.75,225.023,351.75Z" transform="translate(-106.808 -169.749)" fill="#e8846c"/>
          <path id="Tracé_147" data-name="Tracé 147" d="M107.334,44.435c0,35.008-24,82.318-53.66,82.318S0,79.443,0,44.435,24.032,0,53.674,0,107.334,9.431,107.334,44.435Z" transform="translate(53.885 51.507) rotate(-3)" fill="#f0a38b"/>
          <path id="Tracé_148" data-name="Tracé 148" d="M0,0C4.4,15.748,12.6,23.187,5.9,50.7c.1,1.051,8.975-20.47,11.342-50.7Z" transform="translate(147.43 82.993) rotate(-3)" fill="#1b0900"/>
          <path id="Tracé_149" data-name="Tracé 149" d="M10.805,99.74C10.623,101.741-45.278-7.292,99,.388c-8.5,7.089,4.54,30.564,13.828,34.884,6.719,15.46-21.186,45.275-58.042-2.131,0,0-1.229,21.627-42.875,31.3C8.391,72.6,10.657,85.307,10.805,99.74Z" transform="translate(52.114 38.913) rotate(-3)" fill="#1b0900"/>
          <path id="Tracé_150" data-name="Tracé 150" d="M0,0C0,6.321,6.628,14.216,16.019,14.216s18-7.9,18-14.216A63.752,63.752,0,0,1,16.7,2.922,56.71,56.71,0,0,1,0,0Z" transform="translate(97.049 152.495) rotate(-3)" fill="#fff"/>
          <path id="Tracé_151" data-name="Tracé 151" d="M9.556,6.624,11.15,0l.6,7.31,5.155,18.306L0,26.729l13.861-2.87Z" transform="translate(108.932 119.48) rotate(-3)"/>
          <path id="Tracé_152" data-name="Tracé 152" d="M0,.917,9.95,0S15.964,3.393,26.8,3.393C21.891,5.572,0,.917,0,.917Z" transform="translate(118.89 107.859) rotate(-16)" fill="#1b0900"/>
          <path id="Tracé_153" data-name="Tracé 153" d="M192.532,212.417l-9.95-.917s-6.009,3.393-16.842,3.393C170.664,217.072,192.532,212.417,192.532,212.417Z" transform="translate(-88.65 -105.911)" fill="#1b0900"/>
          <path id="Tracé_154" data-name="Tracé 154" d="M5.659,8.159c0,4.526-1.262,8.193-2.832,8.193S0,12.685,0,8.159,1.282,0,2.837,0,5.659,3.648,5.659,8.159Z" transform="translate(125.188 111.256) rotate(-3)" fill="#1b0900"/>
          <path id="Tracé_155" data-name="Tracé 155" d="M5.664,8.159c0,4.526-1.267,8.193-2.832,8.193S0,12.685,0,8.159,1.267,0,2.832,0,5.664,3.648,5.664,8.159Z" transform="translate(90.846 113.055) rotate(-3)" fill="#1b0900"/>
          <path id="Tracé_156" data-name="Tracé 156" d="M0,0V4.8A4.647,4.647,0,0,0,4.291.96C3.36,2.4,0,0,0,0Z" transform="translate(128.447 111.176) rotate(-3)" fill="#1b0900"/>
          <path id="Tracé_157" data-name="Tracé 157" d="M0,0V4.8A4.687,4.687,0,0,0,4.32.96C3.341,2.4,0,0,0,0Z" transform="translate(94.033 112.98) rotate(-3)" fill="#1b0900"/>
          <path id="Tracé_158" data-name="Tracé 158" d="M74.223,884.538s2.673-19.6-11.361-21.008-.691,10.137-.691,10.137h0s4.68,16.261,8.716,16.8C72.577,890.7,74.223,884.538,74.223,884.538Z" transform="translate(-29.346 -446.726)" fill="#c8deff"/>
          <path id="Tracé_159" data-name="Tracé 159" d="M12.35,794.8l-.96,37.451,27.987,3.489,9.479-36.386Z" transform="translate(-5.919 -411.046)" fill="#c8deff"/>
          <path id="Tracé_160" data-name="Tracé 160" d="M33.448,870.858s2.88,15.484.835,29.758-24.209,5.505-28.563.749-10.233-20.888-.259-34S33.448,870.858,33.448,870.858Z" transform="translate(0.01 -446.163)" fill="#c8deff"/>
          <path id="Tracé_108" data-name="Tracé 108" d="M3.456.358C6.672-1.312,18.8,2.407,18.474,21.138S4.92,25.2,4.92,25.2,2.987,18.752.967,13.978.239,2.028,3.456.358Z" transform="translate(114.457 259.812) rotate(24)" fill="#c8deff"/>
          <path id="Tracé_109" data-name="Tracé 109" d="M14.178,10.942a1.834,1.834,0,0,1,2.08-.59S9.863-.222,0,0C6.58,2.341,12.076,9.195,14.178,10.942Z" transform="translate(106.609 269.638) rotate(24)" fill="#7db1ff"/>
          <path id="Tracé_137" data-name="Tracé 137" d="M37.284,36.789,0,33.1V4.9L37.284,0Z" transform="translate(116.989 280.274) rotate(24)" fill="#c8deff"/>
          <path id="Tracé_138" data-name="Tracé 138" d="M30.456,11.553S26.822-.269,12.414,0-1.673,32.729,2.507,37.624s13.7,10.41,27.948,2.126S30.456,11.553,30.456,11.553Z" transform="translate(91.87 261.814) rotate(24)" fill="#c8deff"/>
        </g>
      </g>
    </g>
    <g id="_5_Stars" data-name="5 Stars">
      <g id="icons8_christmas_star" transform="translate(1579.273 2640.042) rotate(7)">
        <path id="Tracé_4553" data-name="Tracé 4553" d="M16.141.485,11.664,10.526.732,11.68A.817.817,0,0,0,.271,13.1l8.166,7.359L6.157,31.213a.817.817,0,0,0,1.208.878L16.887,26.6l9.522,5.493a.817.817,0,0,0,1.208-.878L25.336,20.458,33.5,13.1a.817.817,0,0,0-.461-1.419L22.109,10.525,17.633.485A.816.816,0,0,0,16.141.485Z" transform="translate(0 0)" fill="url(#linear-gradient)"/>
        <path id="Tracé_4554" data-name="Tracé 4554" d="M5.222,10.525.746.485A.8.8,0,0,0,0,0V16.676Z" transform="translate(16.887 0)" fill="url(#linear-gradient-2)"/>
        <path id="Tracé_4555" data-name="Tracé 4555" d="M8.449,8.18h0L16.615.82A.8.8,0,0,0,16.852,0L0,4.4Z" transform="translate(16.887 12.28)" fill="url(#linear-gradient-3)"/>
        <path id="Tracé_4556" data-name="Tracé 4556" d="M8.449,3.783,0,0,10.364,15.393a.8.8,0,0,0,.366-.856Z" transform="translate(16.887 16.676)" fill="url(#linear-gradient-4)"/>
        <path id="Tracé_4557" data-name="Tracé 4557" d="M8.433,8.18h0L.267.82A.8.8,0,0,1,.03,0L16.883,4.4Z" transform="translate(0.004 12.28)" fill="url(#linear-gradient-5)"/>
        <path id="Tracé_4558" data-name="Tracé 4558" d="M0,15.378a.8.8,0,0,0,.869.036l9.522-5.493V0Z" transform="translate(6.496 16.676)" fill="url(#linear-gradient-6)"/>
      </g>
      <g id="icons8_christmas_star-2" data-name="icons8_christmas_star" transform="translate(1536.848 2689.111) rotate(-20)">
        <path id="Tracé_4553-2" data-name="Tracé 4553" d="M16.258.488,11.749,10.6.738,11.765a.823.823,0,0,0-.464,1.43L8.5,20.607,6.2,31.44a.823.823,0,0,0,1.217.884l9.592-5.534L26.6,32.324a.823.823,0,0,0,1.217-.884l-2.3-10.833,8.225-7.412a.823.823,0,0,0-.464-1.43L22.27,10.6,17.761.488A.822.822,0,0,0,16.258.488Z" transform="translate(0 0)" fill="url(#linear-gradient)"/>
        <path id="Tracé_4554-2" data-name="Tracé 4554" d="M5.26,10.6.751.488A.81.81,0,0,0,0,0V16.8Z" transform="translate(17.01 0)" fill="url(#linear-gradient-2)"/>
        <path id="Tracé_4555-2" data-name="Tracé 4555" d="M8.511,8.239h0L16.736.826A.807.807,0,0,0,16.975,0L0,4.428Z" transform="translate(17.01 12.369)" fill="url(#linear-gradient-3)"/>
        <path id="Tracé_4556-2" data-name="Tracé 4556" d="M8.511,3.811,0,0,10.439,15.5a.808.808,0,0,0,.369-.862Z" transform="translate(17.01 16.797)" fill="url(#linear-gradient-4)"/>
        <path id="Tracé_4557-2" data-name="Tracé 4557" d="M8.495,8.239h0L.269.826A.807.807,0,0,1,.031,0L17.006,4.428Z" transform="translate(0.004 12.369)" fill="url(#linear-gradient-5)"/>
        <path id="Tracé_4558-2" data-name="Tracé 4558" d="M0,15.49a.809.809,0,0,0,.875.036l9.592-5.533V0Z" transform="translate(6.543 16.797)" fill="url(#linear-gradient-6)"/>
      </g>
      <g id="icons8_christmas_star-3" data-name="icons8_christmas_star" transform="matrix(0.788, 0.616, -0.616, 0.788, 1582.583, 2720.948)">
        <path id="Tracé_4553-3" data-name="Tracé 4553" d="M23.5.706l-6.518,14.62L1.066,17.006A1.189,1.189,0,0,0,.4,19.072L12.285,29.786,8.964,45.446a1.19,1.19,0,0,0,1.758,1.278l13.864-8,13.864,8a1.19,1.19,0,0,0,1.758-1.278L36.889,29.786,48.779,19.072a1.19,1.19,0,0,0-.671-2.067L32.191,15.325,25.673.706A1.189,1.189,0,0,0,23.5.706Z" transform="translate(0 0)" fill="url(#linear-gradient)"/>
        <path id="Tracé_4554-3" data-name="Tracé 4554" d="M7.6,15.324,1.086.706A1.171,1.171,0,0,0,0,0V24.28Z" transform="translate(24.587 0)" fill="url(#linear-gradient-2)"/>
        <path id="Tracé_4555-3" data-name="Tracé 4555" d="M12.3,11.91h0L24.192,1.195A1.166,1.166,0,0,0,24.537,0L0,6.4Z" transform="translate(24.587 17.879)" fill="url(#linear-gradient-3)"/>
        <path id="Tracé_4556-3" data-name="Tracé 4556" d="M12.3,5.509,0,0,15.09,22.412a1.168,1.168,0,0,0,.533-1.246Z" transform="translate(24.587 24.28)" fill="url(#linear-gradient-4)"/>
        <path id="Tracé_4557-3" data-name="Tracé 4557" d="M12.279,11.91h0L.389,1.195A1.166,1.166,0,0,1,.044,0L24.581,6.4Z" transform="translate(0.006 17.879)" fill="url(#linear-gradient-5)"/>
        <path id="Tracé_4558-3" data-name="Tracé 4558" d="M0,22.39a1.17,1.17,0,0,0,1.265.052l13.864-8V0Z" transform="translate(9.458 24.28)" fill="url(#linear-gradient-6)"/>
      </g>
      <g id="icons8_christmas_star-4" data-name="icons8_christmas_star" transform="matrix(0.788, 0.616, -0.616, 0.788, 1656.946, 2727.538)">
        <path id="Tracé_4553-4" data-name="Tracé 4553" d="M27.385.822,19.79,17.859,1.242,19.817A1.386,1.386,0,0,0,.46,22.225L14.315,34.71l-3.87,18.248a1.387,1.387,0,0,0,2.049,1.489l16.156-9.321,16.156,9.32a1.387,1.387,0,0,0,2.049-1.489L42.986,34.71,56.841,22.225a1.386,1.386,0,0,0-.782-2.408L37.511,17.858,29.916.822A1.385,1.385,0,0,0,27.385.822Z" transform="translate(0 0)" fill="url(#linear-gradient)"/>
        <path id="Tracé_4554-4" data-name="Tracé 4554" d="M8.861,17.857,1.266.822A1.365,1.365,0,0,0,0,0V28.293Z" transform="translate(28.651 0)" fill="url(#linear-gradient-2)"/>
        <path id="Tracé_4555-4" data-name="Tracé 4555" d="M14.336,13.878h0L28.19,1.392A1.359,1.359,0,0,0,28.592,0L0,7.459Z" transform="translate(28.651 20.834)" fill="url(#linear-gradient-3)"/>
        <path id="Tracé_4556-4" data-name="Tracé 4556" d="M14.336,6.419,0,0,17.584,26.116a1.361,1.361,0,0,0,.621-1.452Z" transform="translate(28.651 28.293)" fill="url(#linear-gradient-4)"/>
        <path id="Tracé_4557-4" data-name="Tracé 4557" d="M14.308,13.878h0L.454,1.392A1.359,1.359,0,0,1,.052,0L28.644,7.459Z" transform="translate(0.007 20.834)" fill="url(#linear-gradient-5)"/>
        <path id="Tracé_4558-4" data-name="Tracé 4558" d="M0,26.091a1.363,1.363,0,0,0,1.474.061l16.156-9.32V0Z" transform="translate(11.021 28.293)" fill="url(#linear-gradient-6)"/>
      </g>
      <g id="icons8_christmas_star-5" data-name="icons8_christmas_star" transform="translate(1606.43 2670.83) rotate(11)">
        <path id="Tracé_4553-5" data-name="Tracé 4553" d="M23.5.706l-6.518,14.62L1.066,17.006A1.189,1.189,0,0,0,.4,19.072L12.285,29.786,8.964,45.446a1.19,1.19,0,0,0,1.758,1.278l13.864-8,13.864,8a1.19,1.19,0,0,0,1.758-1.278L36.889,29.786,48.779,19.072a1.19,1.19,0,0,0-.671-2.067L32.191,15.325,25.673.706A1.189,1.189,0,0,0,23.5.706Z" transform="translate(0 0)" fill="url(#linear-gradient)"/>
        <path id="Tracé_4554-5" data-name="Tracé 4554" d="M7.6,15.324,1.086.706A1.171,1.171,0,0,0,0,0V24.28Z" transform="translate(24.587 0)" fill="url(#linear-gradient-2)"/>
        <path id="Tracé_4555-5" data-name="Tracé 4555" d="M12.3,11.91h0L24.192,1.195A1.166,1.166,0,0,0,24.537,0L0,6.4Z" transform="translate(24.587 17.879)" fill="url(#linear-gradient-3)"/>
        <path id="Tracé_4556-5" data-name="Tracé 4556" d="M12.3,5.509,0,0,15.09,22.412a1.168,1.168,0,0,0,.533-1.246Z" transform="translate(24.587 24.28)" fill="url(#linear-gradient-4)"/>
        <path id="Tracé_4557-5" data-name="Tracé 4557" d="M12.279,11.91h0L.389,1.195A1.166,1.166,0,0,1,.044,0L24.581,6.4Z" transform="translate(0.006 17.879)" fill="url(#linear-gradient-5)"/>
        <path id="Tracé_4558-5" data-name="Tracé 4558" d="M0,22.39a1.17,1.17,0,0,0,1.265.052l13.864-8V0Z" transform="translate(9.458 24.28)" fill="url(#linear-gradient-6)"/>
      </g>
    </g>
    <g id="icons8_prize" transform="translate(1383.881 2807.156)">
      <path id="Tracé_4559" data-name="Tracé 4559" d="M37.8,27.765H14V49.459a1.189,1.189,0,0,0,1.8,1.02l10.1-6.057,10.1,6.057a1.189,1.189,0,0,0,1.8-1.02Z" transform="translate(-4.483 4.077)" fill="url(#radial-gradient)"/>
      <path id="Tracé_4560" data-name="Tracé 4560" d="M47.684,20.386l-1.5-.9a2.862,2.862,0,0,1-1.264-1.73c0-.013-.006-.026-.011-.04a2.854,2.854,0,0,1,.225-2.15l.848-1.526a2.366,2.366,0,0,0-2.029-3.515L42.2,10.494a2.859,2.859,0,0,1-1.966-.872l-.017-.017a2.852,2.852,0,0,1-.873-1.967l-.03-1.762A2.366,2.366,0,0,0,35.8,3.848L34.269,4.7a2.856,2.856,0,0,1-2.15.225c-.013,0-.026-.006-.04-.011a2.862,2.862,0,0,1-1.73-1.264l-.9-1.5a2.367,2.367,0,0,0-4.058,0L24.5,3.641a2.893,2.893,0,0,1-1.743,1.274l-.024.006a2.867,2.867,0,0,1-2.168-.227L19.041,3.85a2.366,2.366,0,0,0-3.515,2.029l-.032,1.76A2.864,2.864,0,0,1,14.622,9.6a.074.074,0,0,0-.017.017,2.856,2.856,0,0,1-1.966.872l-1.762.03a2.366,2.366,0,0,0-2.029,3.515L9.7,15.564a2.856,2.856,0,0,1,.225,2.15c-.006.013-.008.027-.013.04a2.867,2.867,0,0,1-1.264,1.73l-1.5.9a2.367,2.367,0,0,0,0,4.058l1.5.9a2.862,2.862,0,0,1,1.264,1.73c0,.013.006.026.011.04a2.854,2.854,0,0,1-.225,2.15l-.848,1.526A2.366,2.366,0,0,0,10.876,34.3l1.762.03A2.859,2.859,0,0,1,14.6,35.2l.017.017a2.856,2.856,0,0,1,.872,1.966l.03,1.762a2.366,2.366,0,0,0,3.515,2.029l1.526-.848a2.856,2.856,0,0,1,2.15-.225c.013,0,.027.006.04.011a2.862,2.862,0,0,1,1.73,1.264l.9,1.5a2.367,2.367,0,0,0,4.058,0l.9-1.5a2.862,2.862,0,0,1,1.73-1.264c.013,0,.027-.006.04-.011a2.854,2.854,0,0,1,2.15.225l1.526.848A2.366,2.366,0,0,0,39.3,38.949l.03-1.762a2.859,2.859,0,0,1,.872-1.966l.017-.017a2.856,2.856,0,0,1,1.966-.872l1.762-.03a2.366,2.366,0,0,0,2.029-3.515l-.848-1.526a2.856,2.856,0,0,1-.225-2.15c0-.013.006-.026.011-.04a2.862,2.862,0,0,1,1.264-1.73l1.5-.9A2.361,2.361,0,0,0,47.684,20.386Z" transform="translate(-6.001 -1.002)" fill="url(#linear-gradient-31)"/>
      <ellipse id="Ellipse_51" data-name="Ellipse 51" cx="12" cy="11.5" rx="12" ry="11.5" transform="translate(9.12 9.844)" fill="none" stroke="#ffdf26" stroke-width="2"/>
    </g>
    <path id="Polygone_15" data-name="Polygone 15" d="M19.551,2.846a1,1,0,0,1,1.9,0L25.467,14.9a1,1,0,0,0,.632.632l12.055,4.018a1,1,0,0,1,0,1.9L26.1,25.467a1,1,0,0,0-.632.632L21.449,38.154a1,1,0,0,1-1.9,0L15.533,26.1a1,1,0,0,0-.632-.632L2.846,21.449a1,1,0,0,1,0-1.9L14.9,15.533a1,1,0,0,0,.632-.632Z" transform="translate(1646 2581)" fill="#75a3ff"/>
    <path id="Polygone_16" data-name="Polygone 16" d="M27.051,2.846a1,1,0,0,1,1.9,0l5.893,17.68a1,1,0,0,0,.632.632l17.68,5.893a1,1,0,0,1,0,1.9l-17.68,5.893a1,1,0,0,0-.632.632l-5.893,17.68a1,1,0,0,1-1.9,0l-5.893-17.68a1,1,0,0,0-.632-.632L2.846,28.949a1,1,0,0,1,0-1.9l17.68-5.893a1,1,0,0,0,.632-.632Z" transform="translate(1606 2535)" fill="#75a3ff"/>
    <path id="Polygone_17" data-name="Polygone 17" d="M17.5,4.472a.5.5,0,0,1,.994,0L19.756,15.8a.5.5,0,0,0,.442.442L31.528,17.5a.5.5,0,0,1,0,.994L20.2,19.756a.5.5,0,0,0-.442.442L18.5,31.528a.5.5,0,0,1-.994,0L16.244,20.2a.5.5,0,0,0-.442-.442L4.472,18.5a.5.5,0,0,1,0-.994L15.8,16.244a.5.5,0,0,0,.442-.442Z" transform="translate(1346 2656)" fill="#5493ff"/>
  </g>
</svg>
