<svg xmlns="http://www.w3.org/2000/svg" xmlns:xlink="http://www.w3.org/1999/xlink" width="428" height="500" viewBox="0 40 428 500">
  <defs>
    <clipPath id="clip-path">
      <rect id="Rectangle_669" data-name="Rectangle 669" width="428" height="1060" fill="#fff"/>
    </clipPath>
  </defs>
  <g id="Illustration" clip-path="url(#clip-path)">
    <g id="Illustration-2" data-name="Illustration" transform="matrix(0.966, 0.259, -0.259, 0.966, -14.548, 25.888)">
      <ellipse id="Ellipse_9" data-name="Ellipse 9" cx="46" cy="206" rx="46" ry="206" transform="translate(1.013 188.737) rotate(-13)" fill="#5493ff" opacity="0.41"/>
      <g id="Maide" transform="translate(-0.01 -0.009)">
        <g id="Capa_1" data-name="Capa 1">
          <path id="Tracé_81" data-name="Tracé 81" d="M270.193.835C253.851-5.78,242.7,28.651,242.7,28.651S285.115,8.4,270.193.835Z" transform="matrix(0.995, 0.105, -0.105, 0.995, -132.926, -23.684)" fill="#2d4a6a"/>
          <path id="Tracé_82" data-name="Tracé 82" d="M263.59,15.774C254.976,12.3,242.7,38.1,242.7,38.1S271.458,19.766,263.59,15.774Z" transform="matrix(0.995, 0.105, -0.105, 0.995, -131.939, -33.077)" fill="#223b56"/>
          <path id="Tracé_83" data-name="Tracé 83" d="M151.831.835C168.173-5.78,179.32,28.651,179.32,28.651S136.9,8.4,151.831.835Z" transform="matrix(0.995, 0.105, -0.105, 0.995, -75.783, -17.678)" fill="#2d4a6a"/>
          <path id="Tracé_84" data-name="Tracé 84" d="M171.65,15.774C180.264,12.3,192.54,38.1,192.54,38.1S163.782,19.766,171.65,15.774Z" transform="matrix(0.995, 0.105, -0.105, 0.995, -87.943, -28.453)" fill="#223b56"/>
          <path id="Tracé_85" data-name="Tracé 85" d="M227.33,57.02a8.56,8.56,0,1,1-8.56-8.56A8.56,8.56,0,0,1,227.33,57.02Z" transform="matrix(0.995, 0.105, -0.105, 0.995, -110.091, -51.057)" fill="#223b56"/>
          <path id="Tracé_86" data-name="Tracé 86" d="M115.462,124.838c1.043.268-14.326-86.348,47.325-58.617-32.52,16.836-46.283,58.885-46.283,58.885" transform="matrix(0.995, 0.105, -0.105, 0.995, -51.146, -52.408)" fill="#2d4a6a"/>
          <path id="Tracé_87" data-name="Tracé 87" d="M275.9,124.838c-1.039.268,17.579-86.348-44.077-58.617,32.524,16.836,43.038,58.885,43.038,58.885" transform="matrix(0.995, 0.105, -0.105, 0.995, -122.436, -59.901)" fill="#2d4a6a"/>
          <path id="Tracé_88" data-name="Tracé 88" d="M98.708,225.47s7.358,47.975-16.108,53.773c3.891,4.708,32.007,17.68,58.224,2.5Z" transform="matrix(0.995, 0.105, -0.105, 0.995, -21.257, -150.452)" fill="#1b0900"/>
          <path id="Tracé_89" data-name="Tracé 89" d="M263.675,225.47s-7.35,47.975,16.116,53.773c-3.891,4.708-32.011,17.68-58.232,2.5Z" transform="matrix(0.995, 0.105, -0.105, 0.995, -105.684, -159.326)" fill="#1b0900"/>
          <path id="Tracé_90" data-name="Tracé 90" d="M87.421,1388.61l-27.151,5.763v6.49h40.641V1388.61Z" transform="translate(-36.815 -848.307)" fill="#dbdbdb"/>
          <path id="Tracé_91" data-name="Tracé 91" d="M92.08,903.89l7.21,88.281,7.564,99.378s6.039,8.171,13.618,0l8.65-59.1-3.245-40.279,18.832-88.281Z" transform="translate(-56.248 -552.189)" fill="#1a828f"/>
          <path id="Tracé_92" data-name="Tracé 92" d="M144.277,906.31l-9.817,87.935,6.062,103.11c1.984-.249,5.836-3.374,5.836-3.374l8.65-59.1L151.763,994.6,170.6,906.326Z" transform="translate(-82.139 -553.667)" fill="#d8dade"/>
          <path id="Tracé_93" data-name="Tracé 93" d="M239.7,1388.61h-9.447l-6.844,5.763v6.49h23.435v-6.49Z" transform="translate(-136.479 -848.307)" fill="#dbdbdb"/>
          <path id="Tracé_94" data-name="Tracé 94" d="M232.832,906.31l-2.521,88.1-12.249,99.553s-6.253,5.058-9.5-.428l-8.653-59.1,3.249-40.279L187.3,906.31Z" transform="translate(-114.419 -553.667)" fill="#1a828f"/>
          <path id="Tracé_95" data-name="Tracé 95" d="M242.814,1399c-6.969,0-12.614.906-12.614,2.027h18.147C248.347,1399.918,249.779,1399,242.814,1399Z" transform="translate(-140.627 -854.655)" fill="#d8dade"/>
          <path id="Tracé_97" data-name="Tracé 97" d="M35.61,453.958C37.05,397.022,81.1,379.54,81.1,379.54l8.918,41.244c-19.844,6.49-23.781,33.155-23.781,33.155Z" transform="translate(-21.751 -231.86)" fill="#fff"/>
          <path id="Tracé_98" data-name="Tracé 98" d="M199.108,403.657S162.864,455.1,181.361,531.63c-25.077,20.622-89.281-53.286-89.281-98.662s23.91-51.893,35.2-55.738h58.846C195.256,380.424,199.108,390.335,199.108,403.657Z" transform="translate(-56.248 -230.449)" fill="#fff"/>
          <path id="Tracé_99" data-name="Tracé 99" d="M129.466,377.23c-15.5,8.249-23.906,27.867-23.906,46.127h11.649c1.494-25.949,3.416-39.4,21.435-46.127Z" transform="translate(-64.483 -230.449)" fill="#d8dade"/>
          <path id="Tracé_100" data-name="Tracé 100" d="M272.64,377.23c-15.5,8.249-23.91,27.867-23.91,46.127l5.253,7c8.081-28.318,9.821-46.4,27.84-53.131Z" transform="translate(-151.947 -230.449)" fill="#d8dade"/>
          <path id="Tracé_101" data-name="Tracé 101" d="M168.652,647.216c-8.762,47.489-5.513,78.4-5.513,78.4-51.1,11.6-99.659-2.451-99.659-2.451L77.441,565.7l-2.833-83.612c10.642-12.84,53.609-10.354,66.667,0-7.229,75.628,23.661,101.063,23.661,101.063S177.414,617.606,168.652,647.216Z" transform="translate(-38.776 -289.176)" fill="#27425f"/>
          <path id="Tracé_102" data-name="Tracé 102" d="M103.612,589.09c1.739,0,6.8,25.68,6.8,56.356s-5.724,55.528-7.467,55.528,1.167-24.859,1.167-55.528S101.869,589.09,103.612,589.09Z" transform="translate(-62.547 -359.875)" fill="#2d4a6a"/>
          <path id="Tracé_103" data-name="Tracé 103" d="M115.99,377.23c-15.5,8.249-23.91,27.867-23.91,46.127h11.642c1.805-29.182,9.852-39.4,27.871-46.127Z" transform="translate(-56.248 -230.449)" fill="#27425f"/>
          <path id="Tracé_104" data-name="Tracé 104" d="M256.106,377.23C234.379,383.957,232.2,405.1,232.2,423.357h12.147c-.72-27.151,7.513-38.046,27.377-46.127Z" transform="translate(-141.849 -230.449)" fill="#27425f"/>
          <path id="Tracé_105" data-name="Tracé 105" d="M164.652,558.74c0,16.731-11.136,30.322-24.871,30.322S114.91,575.483,114.91,558.74s11.136-12.922,24.871-12.922S164.652,541.99,164.652,558.74Z" transform="translate(-70.195 -333.21)" fill="#7395cf"/>
          <path id="Tracé_107" data-name="Tracé 107" d="M273.706,445.15c.179.358,22.451,36.038,16.8,105.129l-76.317,8.039" transform="translate(-130.846 -271.941)" fill="none" stroke="#f0a38b" stroke-width="16"/>
          <path id="Tracé_108" data-name="Tracé 108" d="M185.71,684.485s17.8-2.261,17.536,9.175-10.988,2.482-10.988,2.482Z" transform="translate(-113.448 -418.042)" fill="#c8deff"/>
          <path id="Tracé_109" data-name="Tracé 109" d="M197.174,693.629c-.086-1.019,2.514-4.416,2.514-4.416a24.258,24.258,0,0,0-14.007-4.451C191.014,686.657,195.47,692.213,197.174,693.629Z" transform="translate(-113.429 -418.319)" fill="#7395cf"/>
          <path id="Tracé_110" data-name="Tracé 110" d="M129.209,655.216V646.8l13.965,7.2c-4.992,8.969-3.257,3.4-6.117,2.424l-4.549-1.556c0,9.124-10.618,10.895-10.618,8.085C129.512,661.43,129.209,655.216,129.209,655.216Z" transform="translate(-74.46 -395.131)" fill="#e96f4c"/>
          <path id="Tracé_111" data-name="Tracé 111" d="M150.25,667.613l4.545,1.556c1.21.412,1.6,1.634,2.016,2.245-1.323,1.253-1.105-1.607-3.082-2.288l-4.549-1.556Z" transform="translate(-91.131 -407.819)" fill="#843f25"/>
          <path id="Tracé_112" data-name="Tracé 112" d="M129.209,655.216V646.8l1.07.549v7.906s.3,6.225-7.323,7.759c0,.638.545,1.039,1.389,1.167-1.42.093-2.455-.335-2.455-1.218C129.512,661.43,129.209,655.216,129.209,655.216Z" transform="translate(-74.46 -395.131)" fill="#843f25"/>
          <rect id="Rectangle_8" data-name="Rectangle 8" width="5.023" height="5.362" transform="translate(43.73 248.479)" fill="#a7d7e0"/>
          <rect id="Rectangle_9" data-name="Rectangle 9" width="5.023" height="2.089" transform="translate(43.73 251.669)" fill="#7cc5d0"/>
          <rect id="Rectangle_10" data-name="Rectangle 10" width="5.023" height="1.047" transform="translate(43.73 249.094)" fill="#c7e6eb"/>
          <path id="Tracé_113" data-name="Tracé 113" d="M150.853,637.65l9.685,10.548-3.381,6.607H144.242l-2.152-3.965-14.167-7.187H123.64v-6Z" transform="translate(-75.529 -389.541)" fill="#e96f4c"/>
          <path id="Tracé_114" data-name="Tracé 114" d="M157.507,650.478l-9.685-10.552H123.64V637.65h27.213l9.685,10.548-3.381,6.607Z" transform="translate(-75.529 -389.541)" fill="#fff" opacity="0.1"/>
          <path id="Tracé_115" data-name="Tracé 115" d="M130.25,638.955c0,.389,4.98.669,11.12.669s11.128-.3,11.128-.669-4.98-.665-11.128-.665S130.25,638.6,130.25,638.955Z" transform="translate(-79.567 -389.932)" fill="#fff" opacity="0.3"/>
          <path id="Tracé_116" data-name="Tracé 116" d="M193.046,642.678c1.2,1.307,1.945,2.564,1.689,2.809s-1.459-.607-2.661-1.914-1.945-2.564-1.685-2.809S191.844,641.371,193.046,642.678Z" transform="translate(-116.274 -391.418)" fill="#fff" opacity="0.3"/>
          <path id="Tracé_117" data-name="Tracé 117" d="M126.462,722.543h0s12.688-8.587,14.155-29.633h14.906l10.4,59.271H134.87a16.011,16.011,0,0,1-8.4-29.637Z" transform="translate(-72.611 -423.299)" fill="#7cc5d0"/>
          <path id="Tracé_118" data-name="Tracé 118" d="M133.642,727.229h0s12.774-7.716,14.081-26.649h11.058l9.338,53.306H141.2a14.4,14.4,0,0,1-7.56-26.653Z" transform="translate(-77.457 -427.985)" fill="#a7d7e0"/>
          <path id="Tracé_119" data-name="Tracé 119" d="M165.407,704.754c-.961-.463-.6,6.089-3.891,12.957s-8.8,10.4-7.84,10.86,6.871-2.724,10.159-9.607S166.364,705.224,165.407,704.754Z" transform="translate(-93.81 -430.521)" fill="#c7e6eb"/>
          <path id="Tracé_120" data-name="Tracé 120" d="M188.361,704.7a1.65,1.65,0,1,0,2.047-1.109A1.65,1.65,0,0,0,188.361,704.7Z" transform="translate(-115.025 -429.783)" fill="#c7e6eb"/>
          <path id="Tracé_121" data-name="Tracé 121" d="M148.048,768.617a20.583,20.583,0,0,0,7.6-6.517h11.327l4.381,25H153.336a10,10,0,0,1-5.288-18.486Z" transform="translate(-87.556 -465.568)" fill="#e96f4c"/>
          <path id="Tracé_122" data-name="Tracé 122" d="M140.7,775.491a11.027,11.027,0,0,0,11.031,11.027H170.96l-4.747-27.058H153.478a19.54,19.54,0,0,1-7.537,6.642h0a11.031,11.031,0,0,0-5.241,9.389Zm1.027,0A9.949,9.949,0,0,1,146.443,767a20.583,20.583,0,0,0,7.6-6.517h11.327l4.381,25H151.731A10.011,10.011,0,0,1,141.727,775.491Z" transform="translate(-85.951 -463.955)" fill="#fff"/>
          <path id="Tracé_123" data-name="Tracé 123" d="M175.178,777.046a4.249,4.249,0,0,0,4.249,4.245h0a4.249,4.249,0,0,0,4.237-4.245v-6.879a4.237,4.237,0,0,0-4.245-4.237h0a4.241,4.241,0,0,0-4.249,4.237Z" transform="translate(-107.009 -467.908)" fill="#c05c3c"/>
          <path id="Tracé_124" data-name="Tracé 124" d="M178.63,779.292a2.906,2.906,0,0,0,2.91,2.9h0a2.9,2.9,0,0,0,2.907-2.9v-6.369a2.9,2.9,0,0,0-2.907-2.9h0a2.907,2.907,0,0,0-2.91,2.9Z" transform="translate(-109.122 -470.407)" fill="#843f25"/>
          <rect id="Rectangle_11" data-name="Rectangle 11" width="17.556" height="1.113" transform="translate(63.531 313.936)" fill="#843f25"/>
          <rect id="Rectangle_12" data-name="Rectangle 12" width="17.556" height="1.117" transform="translate(63.531 315.979)" fill="#843f25"/>
          <rect id="Rectangle_13" data-name="Rectangle 13" width="17.556" height="1.117" transform="translate(63.531 318.025)" fill="#843f25"/>
          <path id="Tracé_96" data-name="Tracé 96" d="M50.41,492.72c.179.358,8.8-24.365,3.153,44.727l63.709-33.6" transform="translate(-30.816 -271.941)" fill="none" stroke="#f0a38b" stroke-width="16"/>
          <path id="Tracé_125" data-name="Tracé 125" d="M169.18,683.826a1.035,1.035,0,0,0,1.031,1.035h15.863a1.039,1.039,0,0,0,1.039-1.035v-3.451a1.039,1.039,0,0,0-1.039-1.035H170.211a1.035,1.035,0,0,0-1.031,1.035Z" transform="translate(-103.349 -415.01)" fill="#2d4a6a"/>
          <path id="Tracé_126" data-name="Tracé 126" d="M169.966,679.4v4.28a.914.914,0,0,0,.91.914h14.533a.914.914,0,0,0,.914-.914V679.4a1.043,1.043,0,0,1,.778,1v3.459a1.039,1.039,0,0,1-1.039,1.035H170.211a1.035,1.035,0,0,1-1.031-1.035v-3.451A1.031,1.031,0,0,1,169.966,679.4Z" transform="translate(-103.349 -415.046)" fill="#182f46"/>
          <path id="Tracé_127" data-name="Tracé 127" d="M208.511,680.94a.311.311,0,0,1,.311.311v4.42H208.2v-4.42a.307.307,0,0,1,.311-.311Z" transform="translate(-127.187 -415.987)" fill="#182f46"/>
          <path id="Tracé_128" data-name="Tracé 128" d="M204.187,680.94a.311.311,0,0,1,.311.311v4.42h-.619v-4.42a.311.311,0,0,1,.307-.311Z" transform="translate(-124.548 -415.987)" fill="#182f46"/>
          <path id="Tracé_129" data-name="Tracé 129" d="M199.881,680.94a.311.311,0,0,1,.307.311v4.42h-.619v-4.42A.311.311,0,0,1,199.881,680.94Z" transform="translate(-121.915 -415.987)" fill="#182f46"/>
          <path id="Tracé_130" data-name="Tracé 130" d="M195.565,680.94a.307.307,0,0,1,.3.311v4.42h-.619v-4.42a.311.311,0,0,1,.315-.311Z" transform="translate(-119.276 -415.987)" fill="#182f46"/>
          <path id="Tracé_131" data-name="Tracé 131" d="M191.251,680.94a.315.315,0,0,1,.307.311v4.42h-.619v-4.42A.311.311,0,0,1,191.251,680.94Z" transform="translate(-116.643 -415.987)" fill="#182f46"/>
          <path id="Tracé_132" data-name="Tracé 132" d="M186.941,680.94a.311.311,0,0,1,.307.311v4.42h-.619v-4.42A.311.311,0,0,1,186.941,680.94Z" transform="translate(-114.01 -415.987)" fill="#182f46"/>
          <rect id="Rectangle_14" data-name="Rectangle 14" width="0.381" height="4.696" transform="translate(80.461 264.572)" fill="#406f95"/>
          <rect id="Rectangle_15" data-name="Rectangle 15" width="0.385" height="4.696" transform="translate(78.784 264.572)" fill="#406f95"/>
          <rect id="Rectangle_16" data-name="Rectangle 16" width="0.389" height="4.696" transform="translate(77.103 264.572)" fill="#406f95"/>
          <rect id="Rectangle_17" data-name="Rectangle 17" width="0.385" height="4.696" transform="translate(75.422 264.572)" fill="#406f95"/>
          <rect id="Rectangle_18" data-name="Rectangle 18" width="0.389" height="4.696" transform="translate(73.745 264.572)" fill="#406f95"/>
          <rect id="Rectangle_19" data-name="Rectangle 19" width="0.381" height="4.696" transform="translate(72.072 264.572)" fill="#406f95"/>
          <path id="Tracé_133" data-name="Tracé 133" d="M211.09,684.66l.389-.37V679.96h-.389Z" transform="translate(-128.952 -415.388)" fill="#406f95"/>
          <path id="Tracé_134" data-name="Tracé 134" d="M182.627,680.94a.307.307,0,0,1,.307.311v4.42h-.615v-4.42a.307.307,0,0,1,.307-.311Z" transform="translate(-111.377 -415.987)" fill="#182f46"/>
          <path id="Tracé_135" data-name="Tracé 135" d="M178.311,680.94a.311.311,0,0,1,.307.311v4.42H178v-4.42A.311.311,0,0,1,178.311,680.94Z" transform="translate(-108.737 -415.987)" fill="#182f46"/>
          <path id="Tracé_136" data-name="Tracé 136" d="M174,680.94a.307.307,0,0,1,.307.311v4.42h-.615v-4.42a.311.311,0,0,1,.307-.311Z" transform="translate(-106.104 -415.987)" fill="#182f46"/>
          <rect id="Rectangle_20" data-name="Rectangle 20" width="0.385" height="4.696" transform="translate(70.391 264.572)" fill="#406f95"/>
          <rect id="Rectangle_21" data-name="Rectangle 21" width="0.381" height="4.696" transform="translate(68.714 264.572)" fill="#406f95"/>
          <rect id="Rectangle_22" data-name="Rectangle 22" width="0.381" height="4.696" transform="translate(67.037 264.572)" fill="#406f95"/>
          <path id="Tracé_137" data-name="Tracé 137" d="M244.675,726.034l-30.225-2.988V700.183l30.225-3.973Z" transform="translate(-131.005 -425.316)" fill="#c8deff"/>
          <path id="Tracé_138" data-name="Tracé 138" d="M175.685,691.726s-2.945-9.583-14.626-9.362-11.42,26.528-8.031,30.5,11.109,8.439,22.657,1.724S175.685,691.726,175.685,691.726Z" transform="translate(-92.241 -416.855)" fill="#c8deff"/>
          <path id="Tracé_139" data-name="Tracé 139" d="M370.631,453.958c-1.44-56.936-45.5-74.418-45.5-74.418l-8.914,41.244C336.064,427.274,340,453.939,340,453.939Z" transform="translate(-193.177 -231.86)" fill="#fff"/>
          <path id="Tracé_140" data-name="Tracé 140" d="M124.182,377.23c1.743,0-20.042,12.311-19.945,33.151l-3.467,38.68c-3.669,0-3.144,3.113-3.331-36.89C97.338,391.327,122.443,377.238,124.182,377.23Z" transform="translate(-59.522 -230.449)" fill="#2d4a6a"/>
          <path id="Tracé_141" data-name="Tracé 141" d="M264.993,377.23c1.743,0-20.046,12.311-19.945,33.151l-3.479,26.766c-3.661,0-3.323-8.023-3.323-24.976C238.228,391.327,263.231,377.238,264.993,377.23Z" transform="translate(-145.538 -230.449)" fill="#2d4a6a"/>
          <path id="Tracé_142" data-name="Tracé 142" d="M218.765,379.54c-8.1,6.615-4.934,9.879-23.9,9.879-14.179,0-15.645-3.261-7.548-9.879Z" transform="translate(-111.422 -231.86)" fill="#f0a38b"/>
          <path id="Tracé_143" data-name="Tracé 143" d="M129.9,227.846c0,5.8-3.922,10.506-8.762,10.506s-8.762-4.708-8.762-10.506,3.922-10.506,8.762-10.506S129.9,222.036,129.9,227.846Z" transform="matrix(0.995, 0.105, -0.105, 0.995, -39.869, -147.415)" fill="#f0a38b"/>
          <path id="Tracé_144" data-name="Tracé 144" d="M328.785,227.846c0,5.8-3.926,10.506-8.762,10.506s-8.762-4.708-8.762-10.506,3.918-10.506,8.762-10.506S328.785,222.036,328.785,227.846Z" transform="matrix(0.995, 0.105, -0.105, 0.995, -160.701, -160.114)" fill="#f0a38b"/>
          <path id="Tracé_145" data-name="Tracé 145" d="M224.246,354.317,205.57,353.1h0c.043-1.315.027-12.416,0-22.2l18.739-.078C224.363,352.839,224.282,353.874,224.246,354.317Z" transform="translate(-106.659 -212.611) rotate(3)" fill="#f0a38b"/>
          <path id="Tracé_146" data-name="Tracé 146" d="M221.306,347.784s-16.758,4.144-15.879-16.906l18.739-.078S225.085,347.784,221.306,347.784Z" transform="translate(-106.552 -212.594) rotate(3)" fill="#e8846c"/>
          <path id="Tracé_147" data-name="Tracé 147" d="M207.383,132.932c0,28.38-19.455,66.733-43.5,66.733s-43.512-38.353-43.512-66.733S139.852,96.91,163.882,96.91,207.383,104.556,207.383,132.932Z" transform="matrix(0.995, 0.105, -0.105, 0.995, -52.414, -74.756)" fill="#f0a38b"/>
          <path id="Tracé_148" data-name="Tracé 148" d="M311.57,172.62c3.564,12.766,10.214,18.8,4.782,41.1.078.852,7.276-16.595,9.194-41.1Z" transform="matrix(0.995, 0.105, -0.105, 0.995, -163.745, -132.964)" fill="#1b0900"/>
          <path id="Tracé_149" data-name="Tracé 149" d="M126.817,151.369c-.148,1.623-45.466-86.768,71.5-80.542-6.891,5.747,3.681,24.777,11.21,28.279,5.447,12.533-17.175,36.7-47.053-1.728,0,0-1,17.533-34.758,25.373C124.86,129.366,126.7,139.669,126.817,151.369Z" transform="matrix(0.995, 0.105, -0.105, 0.995, -52.695, -58.571)" fill="#1b0900"/>
          <path id="Tracé_150" data-name="Tracé 150" d="M203.807,314.03c1.131,1.887,3.308,4.708,9.864,4.708s8.669-2.088,9.874-3.428a28.307,28.307,0,0,1-9.628,1.471A19.932,19.932,0,0,1,203.807,314.03Z" transform="matrix(0.995, 0.105, -0.105, 0.995, -87.143, -210.299)" fill="#fff"/>
          <path id="Tracé_151" data-name="Tracé 151" d="M235.237,249.71l1.292-5.37.49,5.926,4.179,14.84-13.708.9,11.237-2.327Z" transform="matrix(0.995, 0.105, -0.105, 0.995, -108.081, -171.169)"/>
          <path id="Tracé_152" data-name="Tracé 152" d="M247.39,212.243l8.066-.743s4.875,2.751,13.657,2.751C265.137,216.017,247.39,212.243,247.39,212.243Z" transform="translate(-105.03 -168.268) rotate(10)" fill="#1b0900"/>
          <g id="Javil" transform="translate(89.638 146.898)">
            <g id="cleaning" transform="translate(0 0)">
              <path id="Tracé_184" data-name="Tracé 184" d="M67.28,25.76V84.65a5.22,5.22,0,0,1-5.22,5.21H9.67a5.21,5.21,0,0,1-5.21-5.21V33.84a8.29,8.29,0,0,1,2.27-5.28l3-2.8Z" fill="#4299bc"/>
              <path id="Tracé_185" data-name="Tracé 185" d="M67.28,7V25.76H9.7l2.86-2.7,10.09-9.5L32.89,3.9a9.07,9.07,0,0,1,5.4-2.15H62.06A5.22,5.22,0,0,1,67.28,7Zm-6.17,4.62V7.12a1,1,0,0,0-1-1H42a9.16,9.16,0,0,0-5.42,2.13L34.11,10.5c-1.26,1.18-.89,2.13.84,2.13H60.07a1,1,0,0,0,1.04-1.04Z" fill="#c8d3df"/>
              <g id="bochona">
                <path id="Tracé_186" data-name="Tracé 186" d="M16.6,17.29l5.08-4.66.97.93-10.09,9.5-1.15-1.01Z" transform="translate(0 0)" fill="#a4aeb8"/>
                <path id="Tracé_187" data-name="Tracé 187" d="M11.45,1l4.7,5.12L5.48,15.87.78,10.75A2.39,2.39,0,0,1,.6,7.4L4.36,3.94,8.13.49A2.38,2.38,0,0,1,11.45,1Z" transform="translate(0 0)" fill="#e4a915"/>
                <path id="Tracé_188" data-name="Tracé 188" d="M22.44,10.18a1.19,1.19,0,0,1,.09,1.67l-.85.78L16.6,17.29l-5.19,4.76-.73.67A1.19,1.19,0,0,1,9,22.49L5,18.08a1.15,1.15,0,0,1-.19-1.58l.69-.63L16.15,6.08l.69-.63a1.15,1.15,0,0,1,1.56.32Z" transform="translate(0 0)" fill="#f5c826"/>
                <path id="Tracé_189" data-name="Tracé 189" d="M10.18,20.61a.49.49,0,0,1-.37-.16L6.75,17.11a.48.48,0,0,1,0-.7.49.49,0,0,1,.7,0l3.06,3.33a.5.5,0,0,1,0,.71.46.46,0,0,1-.33.16Z" transform="translate(0 0)" fill="#d6950d"/>
                <path id="Tracé_190" data-name="Tracé 190" d="M12.14,18.81a.49.49,0,0,1-.37-.16L8.71,15.32a.5.5,0,1,1,.73-.68L12.5,18a.5.5,0,0,1,0,.71A.46.46,0,0,1,12.14,18.81Z" transform="translate(0 0)" fill="#d6950d"/>
                <path id="Tracé_191" data-name="Tracé 191" d="M14.1,17a.49.49,0,0,1-.37-.16l-3.06-3.33a.5.5,0,0,1,.74-.68l3.06,3.34a.5.5,0,0,1-.37.83Z" transform="translate(0 0)" fill="#d6950d"/>
                <path id="Tracé_192" data-name="Tracé 192" d="M16.06,15.22a.5.5,0,0,1-.37-.17l-3.06-3.33a.5.5,0,0,1,0-.71.51.51,0,0,1,.71,0l3.06,3.34a.5.5,0,0,1,0,.7A.51.51,0,0,1,16.06,15.22Z" transform="translate(0 0)" fill="#d6950d"/>
                <path id="Tracé_193" data-name="Tracé 193" d="M18,13.42a.52.52,0,0,1-.37-.16L14.59,9.92a.5.5,0,0,1,.74-.68l3.06,3.34a.51.51,0,0,1,0,.71.55.55,0,0,1-.39.13Z" transform="translate(0 0)" fill="#d6950d"/>
                <path id="Tracé_194" data-name="Tracé 194" d="M20,11.62a.54.54,0,0,1-.37-.16L16.55,8.12a.51.51,0,0,1,0-.71.5.5,0,0,1,.71,0l3.06,3.33a.5.5,0,0,1,0,.71A.55.55,0,0,1,20,11.62Z" transform="translate(0 0)" fill="#d6950d"/>
              </g>
              <g id="sticker">
                <path id="Tracé_195" data-name="Tracé 195" d="M57.6,61V76.87A3.13,3.13,0,0,1,54.48,80h-37a3.13,3.13,0,0,1-3.12-3.13V61Z" transform="translate(0 0)" fill="#e4a915"/>
                <path id="Tracé_196" data-name="Tracé 196" d="M57.6,39.77V61H14.36V39.77a3.13,3.13,0,0,1,3.12-3.13h37a3.13,3.13,0,0,1,3.12,3.13Z" transform="translate(0 0)" fill="#f5e05e"/>
                <path id="Tracé_197" data-name="Tracé 197" d="M54.48,80.5h-37a3.63,3.63,0,0,1-3.62-3.63V39.77a3.63,3.63,0,0,1,3.62-3.63h37a3.62,3.62,0,0,1,3.62,3.63v37.1a3.63,3.63,0,0,1-3.62,3.63Zm-37-43.36a2.63,2.63,0,0,0-2.62,2.63v37.1a2.63,2.63,0,0,0,2.62,2.63h37a2.62,2.62,0,0,0,2.62-2.63V39.77a2.62,2.62,0,0,0-2.62-2.63Z" transform="translate(0 0)" fill="#c9930a"/>
                <rect id="Rectangle_23" data-name="Rectangle 23" width="43.24" height="1" transform="translate(14.36 60.51)" fill="#c9930a"/>
                <path id="Tracé_198" data-name="Tracé 198" d="M25.19,53.13a2.93,2.93,0,1,1-2.92-2.93,2.93,2.93,0,0,1,2.92,2.93Z" transform="translate(0 0)" fill="#69a1df"/>
                <path id="Tracé_199" data-name="Tracé 199" d="M57,78.08l.9-.43-2.43-5H57.8v-1H55l-3-6.3h5.85v-1H51.43l-1.71-3.54-.9.44,1.5,3.1H42.09L41.77,61l-1,.1.32,3.27H33l.72-3.21-1-.22c-.24,1.08-.5,2.24-.77,3.43H23.13l1.81-3.07-.86-.51L22,64.33H14.7v1h6.67l-3.73,6.3H14.88v1h2.17l-3,5,.86.51,3.25-5.49H30.14c-.89,3.9-1.59,7-1.66,7.2L29,80v.5c.4,0,.43,0,2.22-7.87H41.89L42.61,80l1-.09-.7-7.32H54.34ZM18.8,71.63l3.73-6.3h9.26c-.48,2.11-1,4.29-1.42,6.3Zm12.59,0c.08-.33.15-.66.23-1l1.2-5.28h8.37l.6,6.3Zm11.41,0-.61-6.3h8.62l3,6.3Z" transform="translate(0 0)" fill="#c9930a"/>
                <path id="Tracé_200" data-name="Tracé 200" d="M45.55,69.21c6.13,1,5.56,6.05,5.56,6.05h.44s-.57-5,5.56-6.05c-6.13-1-5.56-6-5.56-6h-.44S51.68,68.21,45.55,69.21Z" transform="translate(0 0)" fill="#fff"/>
                <path id="Tracé_201" data-name="Tracé 201" d="M16.12,69.21c4.11.68,3.73,4.06,3.73,4.06h.3s-.39-3.38,3.73-4.06c-4.12-.67-3.73-4-3.73-4h-.3S20.23,68.54,16.12,69.21Z" transform="translate(0 0)" fill="#fff"/>
                <path id="Tracé_202" data-name="Tracé 202" d="M22.07,64.58c1.92.31,1.74,1.88,1.74,1.88h.13a1.79,1.79,0,0,1,1.74-1.88,1.8,1.8,0,0,1-1.74-1.89h-.13S24,64.26,22.07,64.58Z" transform="translate(0 0)" fill="#fff"/>
                <rect id="Rectangle_24" data-name="Rectangle 24" width="27.43" height="4" transform="translate(22.27 41.03)" fill="#fff"/>
                <rect id="Rectangle_25" data-name="Rectangle 25" width="27.43" height="4" transform="translate(22.27 47.82)" fill="#fff"/>
                <rect id="Rectangle_26" data-name="Rectangle 26" width="27.43" height="2" transform="translate(22.27 75.7)" fill="#fff"/>
                <path id="Tracé_203" data-name="Tracé 203" d="M56.24,54.76a6,6,0,1,1-6-6,6,6,0,0,1,6,6Z" transform="translate(0 0)" fill="#527dab"/>
                <path id="Tracé_204" data-name="Tracé 204" d="M49.7,58.86a4.15,4.15,0,1,1-1.208-2.947A4.15,4.15,0,0,1,49.7,58.86Z" transform="translate(0 0)" fill="#69a1df"/>
              </g>
              <path id="Tracé_205" data-name="Tracé 205" d="M15,36.44c0-1.87,3.48-4.42,4.84-5.71l3.21-3,3.1-2.92L37,14.52l2-1.89H35c-1.73,0-2.1-1-.84-2.13l2.46-2.29A9.16,9.16,0,0,1,42,6.08h4l2.13-2A9.77,9.77,0,0,1,54,1.75H38.29a9.07,9.07,0,0,0-5.4,2.15L22.65,13.56l-10.09,9.5L9.7,25.76l-3,2.8a8.29,8.29,0,0,0-2.27,5.28V84.65a5.21,5.21,0,0,0,5.21,5.21H15Z" fill="#84c8e3" opacity="0.34"/>
              <path id="Tracé_206" data-name="Tracé 206" d="M62.06,1.75H59.38V6.08h.69a1,1,0,0,1,1,1v4.47a1,1,0,0,1-1,1h-.69V76.51a5.22,5.22,0,0,1-5.22,5.21H4.46v2.93a5.21,5.21,0,0,0,5.21,5.21H62.06a5.22,5.22,0,0,0,5.22-5.21V7a5.22,5.22,0,0,0-5.22-5.25Z" fill="#686868" opacity="0.09"/>
              <path id="Tracé_207" data-name="Tracé 207" d="M60.07,13.13H35c-1.42,0-1.86-.59-2-.94s-.22-1.09.82-2.06l2.46-2.29A9.63,9.63,0,0,1,42,5.58H60.07a1.54,1.54,0,0,1,1.54,1.54v4.47a1.55,1.55,0,0,1-1.54,1.54ZM42,6.58a8.65,8.65,0,0,0-5.08,2l-2.46,2.29c-.55.52-.61.85-.57,1s.32.31,1.07.31H60.07a.54.54,0,0,0,.54-.54V7.12a.54.54,0,0,0-.54-.54Z" fill="#c8d3df"/>
              <path id="Tracé_208" data-name="Tracé 208" d="M7.46,50.42A1.5,1.5,0,0,1,6,48.92V33.84a6.79,6.79,0,0,1,1.8-4.19l15.92-15a1.5,1.5,0,1,1,2.06,2.18l-15.92,15a4.08,4.08,0,0,0-.86,2V48.92a1.5,1.5,0,0,1-1.54,1.5Z" fill="#fff"/>
              <path id="Tracé_209" data-name="Tracé 209" d="M7.46,59.75A1.5,1.5,0,0,1,6,58.25V56.37a1.5,1.5,0,0,1,3,0v1.88a1.5,1.5,0,0,1-1.54,1.5Z" fill="#fff"/>
            </g>
          </g>
          <path id="Tracé_153" data-name="Tracé 153" d="M187.459,212.243l-8.066-.743s-4.871,2.751-13.653,2.751C169.732,216.017,187.459,212.243,187.459,212.243Z" transform="matrix(0.996, 0.087, -0.087, 0.996, -76.659, -144.562)" fill="#1b0900"/>
          <path id="Tracé_154" data-name="Tracé 154" d="M266.8,235.615c0,3.669-1.023,6.642-2.3,6.642s-2.292-2.973-2.292-6.642,1.039-6.615,2.3-6.615S266.8,231.957,266.8,235.615Z" transform="matrix(0.995, 0.105, -0.105, 0.995, -130.156, -164.066)" fill="#1b0900"/>
          <path id="Tracé_155" data-name="Tracé 155" d="M195.151,235.615c0,3.669-1.027,6.642-2.3,6.642s-2.3-2.973-2.3-6.642,1.027-6.615,2.3-6.615S195.151,231.957,195.151,235.615Z" transform="matrix(0.995, 0.105, -0.105, 0.995, -86.624, -159.491)" fill="#1b0900"/>
          <path id="Tracé_156" data-name="Tracé 156" d="M269,229.19v3.891a3.767,3.767,0,0,0,3.478-3.113C271.724,231.139,269,229.19,269,229.19Z" transform="matrix(0.995, 0.105, -0.105, 0.995, -134.269, -164.615)" fill="#1b0900"/>
          <path id="Tracé_157" data-name="Tracé 157" d="M197.2,229.19v3.891a3.8,3.8,0,0,0,3.5-3.113C199.908,231.139,197.2,229.19,197.2,229.19Z" transform="matrix(0.995, 0.105, -0.105, 0.995, -90.646, -160.03)" fill="#1b0900"/>
          <path id="Tracé_158" data-name="Tracé 158" d="M70.856,880.538s2.167-15.887-9.21-17.031-.56,8.218-.56,8.218h0s3.794,13.182,7.066,13.618C69.522,885.531,70.856,880.538,70.856,880.538Z" transform="translate(-624.947 720.547) rotate(-121)" fill="#c8deff"/>
          <path id="Tracé_159" data-name="Tracé 159" d="M12.168,794.8l-.778,30.361,22.688,2.829,7.685-29.5Z" transform="translate(-603.194 675.368) rotate(-121)" fill="#c8deff"/>
          <path id="Tracé_160" data-name="Tracé 160" d="M27.114,869.243s2.335,12.552.677,24.124-19.626,4.463-23.155.607-8.3-16.933-.21-27.56S27.114,869.243,27.114,869.243Z" transform="translate(-642.141 690.646) rotate(-121)" fill="#c8deff"/>
        </g>
      </g>
      <path id="Big_Bubble" data-name="Big Bubble" d="M-3.738,193.193s67.508-63.087,39.9-63.219S-43,160.005-51.5,108.94,65.463-38.226,119.222-35.409s60.64,31.2,37.119,75.922S67.614,153.583-3.738,193.193Z" transform="matrix(0.891, 0.454, -0.454, 0.891, 247.995, -68.014)" fill="#fff"/>
      <text id="voulez-vous_utiliser_notre_produit_spécial_" data-name="voulez-vous utiliser
notre produit spécial?" transform="matrix(0.966, -0.259, 0.259, 0.966, 274.905, -0.04)" fill="#5493ff" font-size="16" font-family="Ubuntu-Bold, Ubuntu" font-weight="700"><tspan x="-74" y="0">voulez-vous utiliser</tspan><tspan x="-83" y="19">notre produit spécial?</tspan></text>
    </g>
  </g>
</svg>
