<svg xmlns="http://www.w3.org/2000/svg" xmlns:xlink="http://www.w3.org/1999/xlink" viewBox="0 0 507.04 573.13"><defs><style>.cls-1{fill:none;}.cls-2{fill:#aac9ff;}.cls-3{fill:#eef4ff;}.cls-4{fill:#16206c;}.cls-5{fill:#73a7ff;}.cls-6{fill:#c2daff;}.cls-7{fill:#fff;}.cls-8{fill:#89b7ff;}.cls-9{fill:#a7c8ff;}.cls-10{fill:#a0c4ff;}.cls-11{fill:#0d276c;}.cls-12{fill:#152236;}.cls-13{opacity:0.4;}.cls-14{fill:#3868c4;}.cls-15{fill:#a6c8ff;}.cls-16{fill:#6fa6ff;}.cls-17{clip-path:url(#clip-path);}.cls-18{fill:#29487e;}.cls-19{fill:#1f3760;}.cls-20{fill:#70422a;}.cls-21{fill:#5596ff;}.cls-22{fill:#79abff;}.cls-23{clip-path:url(#clip-path-2);}.cls-24{clip-path:url(#clip-path-3);}.cls-25{opacity:0.4;}.cls-26{clip-path:url(#clip-path-4);}.cls-27{clip-path:url(#clip-path-5);}.cls-28{clip-path:url(#clip-path-6);}.cls-29{fill:#deebff;}</style><clipPath id="clip-path"><path class="cls-1" d="M110.34,165.05a23.55,23.55,0,0,1,4.41,3.29v.93a2,2,0,0,1,0,.35v.11a.81.81,0,0,1,0,.22v.87l-.11.12h-1.88l-.34-.15h0l-.27-.15a2.45,2.45,0,0,1-.38-.24,7.65,7.65,0,0,1-3.12-6.29v-.54A18.26,18.26,0,0,1,110.34,165.05Z"/></clipPath><clipPath id="clip-path-2"><path class="cls-1" d="M96.55,134.39l.15.3c.7,1.47.5,2.88-.43,3.16H95.06l-.15-.1h0l-.17-.13h0l-.2-.2h0l-.14-.14v-.1l-.14-.15v-.09l-.11-.17v-.11l-.11-.18h0a2.1,2.1,0,0,1-.15-.3c-.7-1.49-.52-2.9.41-3.18h1.34l.19.13h0l.22.18h0l.15.15v.09l.13.15v.1l.11.16v.12l.11.18Z"/></clipPath><clipPath id="clip-path-3"><path class="cls-1" d="M111.85,163a16.45,16.45,0,0,0,2.92,1.35l.39.13-.41,3.83a23,23,0,0,0-4.41-3.3,20,20,0,0,0-2.64-1.27l.24-2.29.13-1.2a23.7,23.7,0,0,0,3.78,2.75Z"/></clipPath><clipPath id="clip-path-4"><path class="cls-1" d="M419,102.52a1.68,1.68,0,0,1,.15.3c.7,1.45.54,2.86-.36,3.16h-.92l-.19-.09h-.28l-.22-.17h0l-.19-.17-.13-.14h0l-.11-.15h0l-.11-.17V105l-.12-.19v-.09a2.44,2.44,0,0,1-.14-.28c-.69-1.45-.54-2.88.37-3.18h1.15l.17.09h0a.65.65,0,0,1,.2.17h0l.18.17h0l.13.15a.14.14,0,0,1,0,.09l.13.13v.11l.12.15h0l.11.19Z"/></clipPath><clipPath id="clip-path-5"><path class="cls-2" d="M433.92,130.5a15.34,15.34,0,0,0,3,1.36l.67.22v2.81a24,24,0,0,0-3.06-2.14h-.17a16.08,16.08,0,0,0-3.72-1.52l.09-2.9A23.48,23.48,0,0,0,433.92,130.5Z"/></clipPath><clipPath id="clip-path-6"><path class="cls-1" d="M434.31,132.66a16.11,16.11,0,0,0-3.72-1.53v1.53a6.24,6.24,0,0,0,.46,2.45,2.44,2.44,0,0,1,.1.24,8,8,0,0,0,1,1.73,8.63,8.63,0,0,0,1,1.14,6.85,6.85,0,0,0,.7.5l.24.15h2.46l.11-.1h0l.09-.11h0a.78.78,0,0,0,.1-.15v-.11a.48.48,0,0,0,0-.17v-.3a.28.28,0,0,0,0-.13v-.35h0V135a24,24,0,0,0-3.07-2.13Z"/></clipPath></defs><title>Profile Isometric transparent</title><g id="Layer_2" data-name="Layer 2"><g id="Profile_Isometric" data-name="Profile Isometric"><g id="Profile_Isometric-2" data-name="Profile Isometric"><path id="Tracé_5105" data-name="Tracé 5105" class="cls-3" d="M400.71,480.25l-13-19.95.91-.3,28.11-1.56Z"/><path id="Tracé_5106" data-name="Tracé 5106" class="cls-4" d="M410.88,466.33a3.07,3.07,0,0,0,.19-1.08,7.53,7.53,0,0,0-3.43-5.91,5.27,5.27,0,0,0-.8-.36l9.82-.52Z"/><path id="Tracé_5107" data-name="Tracé 5107" class="cls-5" d="M393.44,461.06a6.07,6.07,0,0,0-6.12-.59l-156.78,91h0a6,6,0,0,0-2.51,5.58A18.86,18.86,0,0,0,236.58,572a5.9,5.9,0,0,0,6.41.41l-.3.18,12.13-7,144.59-84a6,6,0,0,0,2.51-5.58,18.88,18.88,0,0,0-8.48-14.85Z"/><path id="Tracé_5108" data-name="Tracé 5108" class="cls-4" d="M236.73,558.32a7.13,7.13,0,0,1,3.2,5.58c0,2-1.45,2.86-3.24,1.86a7,7,0,0,1-3.17-5.58C233.51,558.13,235,557.32,236.73,558.32Z"/><path id="Tracé_5109" data-name="Tracé 5109" class="cls-3" d="M236.73,552.13A18.87,18.87,0,0,1,245.3,567c0,5.47-3.87,7.66-8.63,4.93a19,19,0,0,1-8.55-14.88C228.12,551.51,232,549.39,236.73,552.13Zm0,13.57c1.86,1,3.22.19,3.23-1.86a7.1,7.1,0,0,0-3.2-5.58c-1.85-1-3.21-.18-3.21,1.86a7,7,0,0,0,3.18,5.58"/><path id="Tracé_5110" data-name="Tracé 5110" class="cls-6" d="M392.1,393l-95.76-55.27a3.38,3.38,0,0,0-3.39-.33l-65.5,38.05a3.39,3.39,0,0,1,3.39.34l95.74,55.29a10.46,10.46,0,0,1,4.75,8.22V447l65.51-38.07V401.2A10.51,10.51,0,0,0,392.1,393Z"/><path id="Tracé_5111" data-name="Tracé 5111" class="cls-7" d="M326.58,431.06a10.46,10.46,0,0,1,4.75,8.22V447L226,386.23V378.5c0-3,2.14-4.24,4.78-2.74Z"/><g id="Groupe_47" data-name="Groupe 47"><path id="Tracé_5112" data-name="Tracé 5112" class="cls-8" d="M341.74,378.11l-1.08-17.48-6.55,3.81,1.06,17.46,2,31.79,6.54-3.81Z"/><path id="Tracé_5113" data-name="Tracé 5113" class="cls-8" d="M270.38,327.65l6.55-3.81,63.73,36.81-6.55,3.79Z"/><path id="Tracé_5114" data-name="Tracé 5114" class="cls-9" d="M334.11,364.44l1.06,17.46,2,31.79-70-40.42,2.12-29.45,1.15-16.17Z"/></g><g id="Groupe_48" data-name="Groupe 48"><path id="Tracé_5115" data-name="Tracé 5115" class="cls-10" d="M472.74,204l-.19,60-.43,153.64v25.77a6.6,6.6,0,0,1-2.75,6.06l13.11-7.6a6.66,6.66,0,0,0,2.75-6.06V410.05l.43-153.68.16-60Z"/><path id="Tracé_5116" data-name="Tracé 5116" class="cls-10" d="M476.42,180.11,166.7,1.29a6.67,6.67,0,0,0-6.8-.65l-13,7.6a6.67,6.67,0,0,1,6.71.67L463.31,187.73a20.76,20.76,0,0,1,9.43,16.3l13-7.6a20.78,20.78,0,0,0-9.33-16.32Z"/><path id="Tracé_5117" data-name="Tracé 5117" class="cls-10" d="M463.31,187.73a20.76,20.76,0,0,1,9.43,16.3l-.19,60-.43,153.64v25.77c0,6-4.25,8.42-9.48,5.41L306.47,358.66,152.9,270a20.82,20.82,0,0,1-9.41-16.33V228l.6-213.68c0-6,4.27-8.4,9.48-5.39Z"/></g><path id="Tracé_5118" data-name="Tracé 5118" class="cls-7" d="M338.37,340.48l133.75,77.18v25.76c0,6-4.25,8.42-9.48,5.41L306.47,358.66,152.9,270a20.76,20.76,0,0,1-9.41-16.32V227.94l138.75,80.11Zm-30.62,5.58c2.83,1.64,5.15.32,5.15-3a11.27,11.27,0,0,0-5.11-8.86c-2.85-1.64-5.15-.32-5.17,2.93a11.31,11.31,0,0,0,5.13,8.89M458.47,431v-6l-20.07-11.6v6L458.47,431"/><path id="Tracé_5119" data-name="Tracé 5119" class="cls-11" d="M307.79,334.21a11.31,11.31,0,0,1,5.11,8.87c0,3.27-2.32,4.59-5.15,3a11.32,11.32,0,0,1-5.13-8.89C302.64,334,304.91,332.58,307.79,334.21Z"/><path id="Tracé_5120" data-name="Tracé 5120" class="cls-12" d="M463.31,187.73,283,83.61,153.59,8.91a7.65,7.65,0,0,0-5.28-1.19c-2.53.48-4.19,2.85-4.2,6.58l-.47,163.61h0L143.51,228l138.75,80.11,56.11,32.35,133.75,77.17.11-50L472.51,264l.19-60a20.77,20.77,0,0,0-9.39-16.3Zm-4.72,207.11L282.3,293.09l-127.24-73.5v-35h0V155.3l.39-132L270.33,89.64l12.36,7.14L459.22,198.55l-.47,161.26Z"/><path id="Tracé_5121" data-name="Tracé 5121" class="cls-5" d="M438.41,413.32l20.08,11.6,0,6-20.07-11.6Z"/><g id="Groupe_49" data-name="Groupe 49" class="cls-13"><path id="Tracé_5122" data-name="Tracé 5122" class="cls-14" d="M186,138.12l-.65,225.26L52.52,286.67l.63-225.26Z"/></g><g id="Groupe_59" data-name="Groupe 59"><path id="Tracé_5123" data-name="Tracé 5123" class="cls-11" d="M66.09,194.33A13,13,0,0,1,72,204.61c0,3.72-2.68,5.3-6,3.4a13.12,13.12,0,0,1-6-10.28C60.13,193.94,62.8,192.41,66.09,194.33Z"/><path id="Tracé_5124" data-name="Tracé 5124" class="cls-11" d="M87.12,206.47a13,13,0,0,1,5.95,10.28c0,3.72-2.7,5.3-6,3.4a13,13,0,0,1-5.93-10.28C81.15,206.1,83.83,204.57,87.12,206.47Z"/><path id="Tracé_5125" data-name="Tracé 5125" class="cls-15" d="M108.15,218.61a13,13,0,0,1,5.95,10.28c0,3.72-2.7,5.3-6,3.4A13,13,0,0,1,102.26,222C102.26,218.22,104.88,216.71,108.15,218.61Z"/><path id="Tracé_5126" data-name="Tracé 5126" class="cls-16" d="M154.29,292.75l0,4.84L60,243.15v-4.83Z"/><path id="Tracé_5127" data-name="Tracé 5127" class="cls-16" d="M154.31,283.35l0,4.81L60,233.73l0-4.82Z"/><path id="Tracé_5128" data-name="Tracé 5128" class="cls-16" d="M154.35,273.92l0,4.81L60,224.3l0-4.82Z"/><path id="Tracé_5129" data-name="Tracé 5129" class="cls-15" d="M150.22,242.89a13,13,0,0,1,5.95,10.28c0,3.72-2.68,5.32-6,3.4a13,13,0,0,1-5.93-10.28C144.25,242.52,146.87,241,150.22,242.89Z"/><path id="Tracé_5130" data-name="Tracé 5130" class="cls-2" d="M110.34,165.05a23.55,23.55,0,0,1,4.41,3.29v.93a2,2,0,0,1,0,.35v.11a.81.81,0,0,1,0,.22v.87l-.11.12h-1.88l-.34-.15h0l-.27-.15a2.45,2.45,0,0,1-.38-.24,7.65,7.65,0,0,1-3.12-6.29v-.54A18.26,18.26,0,0,1,110.34,165.05Z"/><path id="Tracé_5133" data-name="Tracé 5133" class="cls-18" d="M86.19,120.39a12.85,12.85,0,0,0,5.58,8.4,5.25,5.25,0,0,0,2.23.76l.11.67c-2-.6-3.36,1-3,3.61A8.77,8.77,0,0,0,95,139.7a4.63,4.63,0,0,0,.78.37,2.59,2.59,0,0,0,1.58.1l.15,1a32,32,0,0,0,3.31,9.68c-2.21,1.86-5.48,1.86-9.13-.26-6.63-3.83-12-13.33-12-21.23C79.72,123.9,82.34,120.58,86.19,120.39Z"/><path id="Tracé_5134" data-name="Tracé 5134" class="cls-19" d="M107.7,163.78v.54a7.64,7.64,0,0,0,3.12,6.28l.39.25c1.86,1,3.3.37,3.5-1.58v-.92c6.35,5.82,10.92,15.21,10.9,23.2v5.14L94.91,179v-5.13C95,165.12,100.4,161.08,107.7,163.78Z"/><path id="Tracé_5135" data-name="Tracé 5135" class="cls-18" d="M91.77,115.16a9.11,9.11,0,0,1,1.62,1.21,21.71,21.71,0,0,0-.17,8.46l.74,4.72a5.25,5.25,0,0,1-2.23-.76,12.88,12.88,0,0,1-5.58-8.4,8.92,8.92,0,0,1-.16-1.71C86,114.9,88.61,113.34,91.77,115.16Z"/><path id="Tracé_5136" data-name="Tracé 5136" class="cls-18" d="M100.84,108.66a2,2,0,0,0-.46.63,39,39,0,0,0,6.24,6.4,1.84,1.84,0,0,0-.46,1,2.91,2.91,0,0,0,0,1.1c-1.86,6-4.85,13.75-9.3,14.44A7.17,7.17,0,0,0,95,130.66a3.87,3.87,0,0,0-.8-.37h-.15l-.11-.67-.74-4.73a21.85,21.85,0,0,1,.16-8.45C94.43,112,97.11,109.25,100.84,108.66Z"/><path id="Tracé_5137" data-name="Tracé 5137" class="cls-18" d="M109.21,115.59l.15.09.54.41.37.34a1.64,1.64,0,0,0-1.69.85,2.57,2.57,0,0,0-.23.6,6.5,6.5,0,0,0,2,5.32,3.08,3.08,0,0,1-1.13-.41,6,6,0,0,1-.71-.5,7.09,7.09,0,0,1-2.4-4.56,3.38,3.38,0,0,1,0-1.1,1.94,1.94,0,0,1,.47-.95,2,2,0,0,1,2.66-.09Z"/><path id="Tracé_5138" data-name="Tracé 5138" class="cls-18" d="M127.58,149.22a18.63,18.63,0,0,1,6.26,13c0,5.33-3.72,7.56-8.12,5a12.49,12.49,0,0,1-2.23-1.65c3.71-1.3,5.74-5.86,4.74-12.24Z"/><path id="Tracé_5139" data-name="Tracé 5139" class="cls-18" d="M112.35,113.75a6.24,6.24,0,0,0,0,5.21,10.1,10.1,0,0,0,.61,1.39,10.21,10.21,0,0,0,3.72,4.15,5.77,5.77,0,0,0,1.71.63,2.46,2.46,0,0,1-2.06,1.13,4.43,4.43,0,0,1-2.27-.65,10.69,10.69,0,0,1-4.37-5.43,10,10,0,0,1-.54-2.36,9.73,9.73,0,0,1,0-1.08,1.92,1.92,0,0,1,1.1-.22l-.37-.33-.54-.41a2.57,2.57,0,0,1,2.44-2Z"/><path id="Tracé_5140" data-name="Tracé 5140" class="cls-2" d="M108.58,117.28l.59.45a10.19,10.19,0,0,0,.52,2.45,10.74,10.74,0,0,0,4.32,5.58,4.4,4.4,0,0,0,2.26.65,2.46,2.46,0,0,0,2.07-1.13,5.77,5.77,0,0,1-1.71-.63,10.21,10.21,0,0,1-3.72-4.15c.84.56,1.73,1.1,2.66,1.64a65.35,65.35,0,0,0,7.62,3.71,22.46,22.46,0,0,1,1.49,5.25l2.88,18.25.65,4.17c1,6.38-1,10.93-4.74,12.23a8.66,8.66,0,0,1-5.75-.2l-2.58-.89-.39-.13a16.49,16.49,0,0,1-2.92-1.36,22.78,22.78,0,0,1-3.72-2.75,33.41,33.41,0,0,1-7.27-9.43,31.64,31.64,0,0,1-3.31-9.68l-.15-1c1.19-.32,1.86-1.69,1.53-3.72a9.29,9.29,0,0,0-2.07-4.33c4.43-.69,7.44-8.46,9.3-14.45a7.09,7.09,0,0,0,2.4,4.56,6,6,0,0,0,.71.5,3.08,3.08,0,0,0,1.13.41,6.5,6.5,0,0,1-2-5.32A2.34,2.34,0,0,1,108.58,117.28Z"/><path id="Tracé_5141" data-name="Tracé 5141" class="cls-7" d="M42.13,40.41,175,117.12l-.64,225.25L41.48,265.66ZM69.24,72.29,69,171.61,147.49,217l.28-99.33L69.24,72.29m85.07,225.3v-4.83L60,238.32v4.83l94.31,54.44m0-9.43v-4.81L60,228.91v4.81l94.28,54.44m0-9.43v-4.81L60.05,219.48v4.82l94.26,54.43m-28.48,11.9v-4.85L60,247.74v4.84l65.89,38m-11.75-61.74a13,13,0,0,0-6-10.28c-3.27-1.86-6-.39-6,3.4a13,13,0,0,0,5.93,10.28c3.29,1.86,6,.39,6-3.4m-21-12.14a13,13,0,0,0-6-10.28c-3.29-1.86-6-.37-6,3.4a13,13,0,0,0,5.94,10.28c3.29,1.86,6,.39,6-3.4m-27-22.42c-3.29-1.86-6-.39-6,3.4a13.1,13.1,0,0,0,6,10.29c3.29,1.85,6,.37,6-3.4a13,13,0,0,0-5.93-10.29m69,46.7a13,13,0,0,0-5.94-10.28c-3.3-1.86-6-.37-6,3.4a13,13,0,0,0,5.93,10.28c3.31,1.86,6,.39,6-3.4m15.05,15.55c3.3,1.86,6,.39,6-3.4a13,13,0,0,0-5.93-10.28c-3.29-1.86-6-.38-6,3.4a13,13,0,0,0,5.93,10.28"/><path id="Tracé_5142" data-name="Tracé 5142" class="cls-16" d="M125.87,285.78l0,4.85L60,252.58l0-4.84Z"/><path id="Tracé_5143" data-name="Tracé 5143" class="cls-20" d="M109.17,116.65a9.73,9.73,0,0,0,0,1.08l-.59-.45A1.87,1.87,0,0,1,109.17,116.65Z"/><path id="Tracé_5144" data-name="Tracé 5144" class="cls-18" d="M114.17,110.11c8.76,5,14,16.9,14.24,17.53-1.86-.6-3.57-1.23-5.2-1.86a64,64,0,0,1-7.63-3.72c-.93-.54-1.85-1.08-2.65-1.63a9.18,9.18,0,0,1-.62-1.4,6.21,6.21,0,0,1,0-5.2h-.55a2.56,2.56,0,0,0-2.44,2l-.15-.09a2,2,0,0,0-2.58.09,38.23,38.23,0,0,1-6.19-6.52,2,2,0,0,1,.46-.63c1-1,3.92-2.6,11.3.44a20.89,20.89,0,0,1,2,1Z"/><path id="Tracé_5145" data-name="Tracé 5145" class="cls-21" d="M69.24,72.29l78.53,45.33L147.49,217,69,171.61Zm56.48,95c4.48,2.58,8.1.35,8.12-5a18.63,18.63,0,0,0-6.26-13L124.7,131a23.24,23.24,0,0,0-1.49-5.24,51.1,51.1,0,0,0,5.2,1.86c-.27-.63-5.48-12.48-14.24-17.53a19,19,0,0,0-2-1c-7.44-3-10.3-1.45-11.3-.45-3.72.6-6.42,3.38-7.44,7.72a8.34,8.34,0,0,0-1.62-1.21c-3.16-1.86-5.72-.26-5.74,3.51a9.71,9.71,0,0,0,.16,1.71c-3.84.19-6.47,3.46-6.48,9,0,7.9,5.33,17.4,12,21.23,3.72,2.12,6.91,2.05,9.13.26a33.41,33.41,0,0,0,7.27,9.43l-.38,3.5c-7.23-2.74-12.73,1.33-12.75,10V179l30.7,17.74v-5.13c0-8-4.56-17.39-10.9-23.2l.41-3.83,2.58.89a8.66,8.66,0,0,0,5.75.2,12.37,12.37,0,0,0,2.23,1.65"/><path id="Tracé_5146" data-name="Tracé 5146" class="cls-22" d="M96.55,134.39l.15.3c.7,1.47.5,2.88-.43,3.16H95.06l-.15-.1h0l-.17-.13h0l-.2-.2h0l-.14-.14v-.1l-.13-.15v-.09l-.12-.17v-.11l-.11-.18h0a2.1,2.1,0,0,1-.15-.3c-.7-1.49-.52-2.9.41-3.18h1.34l.19.13h0l.22.18h0l.15.15v.09l.13.15v.1l.11.16v.12l.11.18Z"/><path id="Tracé_5149" data-name="Tracé 5149" class="cls-2" d="M111.85,163a16.45,16.45,0,0,0,2.92,1.35l.39.13-.41,3.83a23,23,0,0,0-4.41-3.3,20,20,0,0,0-2.64-1.27l.24-2.29.13-1.2a23.7,23.7,0,0,0,3.78,2.75Z"/><path id="Tracé_5152" data-name="Tracé 5152" class="cls-2" d="M98.87,136.51c.32,2-.33,3.34-1.52,3.71a2.51,2.51,0,0,1-1.58-.09,4.73,4.73,0,0,1-.79-.37,8.81,8.81,0,0,1-3.88-5.93c-.41-2.62.91-4.2,3-3.6h.15a3.87,3.87,0,0,1,.8.37,6.67,6.67,0,0,1,1.86,1.52A9.21,9.21,0,0,1,98.87,136.51Zm-2.6,1.34c.93-.28,1.14-1.7.43-3.17A4.38,4.38,0,0,0,95,132.83a1.64,1.64,0,0,0-1.29-.26c-.93.27-1.11,1.69-.4,3.17A4.29,4.29,0,0,0,95,137.6a1.66,1.66,0,0,0,1.28.25"/></g><path id="Tracé_5153" data-name="Tracé 5153" class="cls-15" d="M129.2,230.75A13,13,0,0,1,135.13,241c0,3.72-2.68,5.32-6,3.4a13,13,0,0,1-5.93-10.28C123.23,230.38,125.88,228.85,129.2,230.75Z"/><g id="Groupe_60" data-name="Groupe 60" class="cls-25"><path id="Tracé_5154" data-name="Tracé 5154" class="cls-14" d="M507,97.65l-.66,225.24L373.55,246.2l.63-225.26Z"/></g><path id="Tracé_5155" data-name="Tracé 5155" class="cls-11" d="M390.32,158.61a13,13,0,0,1,5.93,10.28c0,3.72-2.7,5.3-6,3.42a13.08,13.08,0,0,1-5.95-10.3C384.33,158.24,387,156.72,390.32,158.61Z"/><g id="Groupe_61" data-name="Groupe 61"><path id="Tracé_5156" data-name="Tracé 5156" class="cls-16" d="M450.09,250.08v4.84l-65.93-38.06,0-4.83Z"/><path id="Tracé_5157" data-name="Tracé 5157" class="cls-11" d="M432.37,182.89a13,13,0,0,1,5.93,10.3c0,3.72-2.67,5.3-6,3.4a13,13,0,0,1-5.93-10.28C426.4,182.52,429.08,181,432.37,182.89Z"/><path id="Tracé_5158" data-name="Tracé 5158" class="cls-16" d="M478.52,257.06l0,4.83-94.3-54.44,0-4.85Z"/><path id="Tracé_5159" data-name="Tracé 5159" class="cls-16" d="M478.54,247.63l0,4.83L384.22,198l0-4.83Z"/><path id="Tracé_5160" data-name="Tracé 5160" class="cls-16" d="M478.58,238.2l0,4.84-94.3-54.44,0-4.83Z"/></g><path id="Tracé_5161" data-name="Tracé 5161" class="cls-11" d="M411.34,170.75a13.12,13.12,0,0,1,6,10.3c0,3.72-2.7,5.3-6,3.39a13,13,0,0,1-6-10.34C405.3,170.38,408.05,168.86,411.34,170.75Z"/><path id="Tracé_5162" data-name="Tracé 5162" class="cls-11" d="M453.42,195.05a13.15,13.15,0,0,1,5.93,10.28c0,3.72-2.7,5.3-6,3.4a13,13,0,0,1-5.95-10.3C447.43,194.66,450.11,193.14,453.42,195.05Z"/><path id="Tracé_5163" data-name="Tracé 5163" class="cls-15" d="M474.43,207.19a13,13,0,0,1,5.95,10.28c0,3.72-2.7,5.3-6,3.4a13,13,0,0,1-5.93-10.28C468.51,206.8,471.15,205.3,474.43,207.19Z"/><g id="Groupe_71" data-name="Groupe 71"><path id="Tracé_5164" data-name="Tracé 5164" class="cls-22" d="M419,102.52a1.68,1.68,0,0,1,.15.3c.7,1.45.54,2.86-.36,3.16h-.92l-.19-.09h-.28l-.22-.17h0l-.19-.17-.13-.14h0l-.11-.15h0l-.11-.17V105l-.12-.19v-.09a2.44,2.44,0,0,1-.14-.28c-.69-1.45-.54-2.88.37-3.18h1.15l.17.09h0a.65.65,0,0,1,.2.17h0l.18.17h0l.13.15a.14.14,0,0,1,0,.09l.13.13v.11l.12.15h0l.11.19Z"/><path id="Tracé_5167" data-name="Tracé 5167" class="cls-2" d="M421.27,104.79c.24,1.86-.37,3.12-1.47,3.48a2.8,2.8,0,0,1-1.52,0,4.71,4.71,0,0,1-.82-.38,8.7,8.7,0,0,1-3.72-5.72c-.33-2,.36-3.44,1.6-3.72a2.59,2.59,0,0,1,1.38.11,5,5,0,0,1,.82.37,8.62,8.62,0,0,1,3.72,5.71A.76.76,0,0,0,421.27,104.79ZM418.74,106c.9-.3,1.06-1.71.36-3.16a4.18,4.18,0,0,0-1.62-1.86,1.64,1.64,0,0,0-1.26-.22c-.91.3-1.06,1.72-.38,3.17a4.41,4.41,0,0,0,1.64,1.86,1.53,1.53,0,0,0,1.26.23"/><path id="Tracé_5168" data-name="Tracé 5168" class="cls-2" d="M433.92,130.5a15.34,15.34,0,0,0,3,1.36l.67.22v2.81a24,24,0,0,0-3.06-2.14h-.17a16.08,16.08,0,0,0-3.72-1.52l.09-2.9A23.48,23.48,0,0,0,433.92,130.5Z"/><g id="Groupe_67" data-name="Groupe 67"><path class="cls-2" d="M433.92,130.5a15.34,15.34,0,0,0,3,1.36l.67.22v2.81a24,24,0,0,0-3.06-2.14h-.17a16.08,16.08,0,0,0-3.72-1.52l.09-2.9A23.48,23.48,0,0,0,433.92,130.5Z"/><g class="cls-27"><g id="Groupe_66" data-name="Groupe 66"><polyline class="cls-2" points="437.56 134.15 437.54 134.89 437.15 134.59 436.78 134.29 436.41 134.01 436.02 133.73 435.64 133.47 435.25 133.23 434.87 132.99 434.48 132.75 434.46 132.75 434.44 132.73 434.41 132.73 434.39 132.71 434.38 132.69 434.36 132.69 434.34 132.67 434.3 132.65 434.06 132.52 433.82 132.39 433.59 132.28 433.35 132.15 433.11 132.04 432.89 131.93 432.64 131.83 432.42 131.74 432.2 131.65 431.96 131.55 431.73 131.46 431.51 131.39 431.29 131.31 431.06 131.24 430.87 131.18 430.64 131.11 430.75 128.23 431.13 128.56 431.52 128.86 431.91 129.16 432.31 129.46 432.7 129.74 433.11 130 433.52 130.26 433.91 130.48 434.29 130.71 434.68 130.91 435.05 131.09 435.44 131.26 435.81 131.43 436.2 131.59 436.57 131.72 436.96 131.85 437.63 132.08 437.56 134.14"/></g></g></g><path id="Tracé_5171" data-name="Tracé 5171" class="cls-19" d="M437.54,134.89a35.35,35.35,0,0,1,12.39,24.93v1.27L419,143.22v-.73c0-5,1.58-8.64,4.27-10.43a8.86,8.86,0,0,1,7.44-.91v1.55a7.55,7.55,0,0,0,3.31,6.06l.13.09c1.86,1.06,3.35.22,3.44-1.86Z"/><path id="Tracé_5172" data-name="Tracé 5172" class="cls-21" d="M393.46,36.52,472,81.85l-.3,99.33-78.51-45.32Zm56.82,53.32c.31-4-3-9.52-7.27-12.44l-.8-.48a8.58,8.58,0,0,0-1.36-.67,18.06,18.06,0,0,0-5.58-6.08,7.94,7.94,0,0,0-.78-.5c-4-2.27-7.25-1.32-7.58,2.32l-9.63.43a2.54,2.54,0,0,0-2.35,2.2c-1.67-1-2.95-.62-3.05.81a4,4,0,0,0,.41,2c-1.21.48-1.86,2.06-1.39,4.2l2.47,12.68a9.94,9.94,0,0,0,1.86,4.07c-1.25.28-1.86,1.71-1.6,3.72a8.66,8.66,0,0,0,3.72,5.72,4,4,0,0,0,.82.37,2.62,2.62,0,0,0,1.52,0l.15,1a33.48,33.48,0,0,0,10.78,19l-.09,2.9a8.75,8.75,0,0,0-7.44.89c-2.7,1.86-4.33,5.41-4.27,10.43v.73l31.1,18v-1.23a33.8,33.8,0,0,0-5.24-16.6,33.35,33.35,0,0,0-7.16-8.32v-2.81l2.19.72c6.8,2.22,11.16-2.88,10.12-11.45l-.12-.8-1.1-6.6L446.2,98.36a21.5,21.5,0,0,0-1.08-4,1.79,1.79,0,0,0,.3-1,3.72,3.72,0,0,0,4.7-2.36,3.49,3.49,0,0,0,.19-1.1"/><path id="Tracé_5173" data-name="Tracé 5173" class="cls-7" d="M366.35,4.69,365.7,230l132.86,76.71.63-225.28Zm27.11,31.83L472,81.85l-.3,99.33-78.51-45.32.28-99.34m65.89,168.76c0,3.72-2.7,5.3-6,3.4a13,13,0,0,1-5.93-10.3c0-3.72,2.68-5.3,6-3.39a13.15,13.15,0,0,1,5.93,10.28M438.3,193.14c0,3.72-2.68,5.3-6,3.4a13,13,0,0,1-5.93-10.28c0-3.72,2.68-5.32,6-3.42a13,13,0,0,1,5.93,10.3m-21-12.15c0,3.72-2.7,5.3-6,3.39a13,13,0,0,1-6-10.28c0-3.72,2.7-5.3,6-3.4a13.14,13.14,0,0,1,5.95,10.3m-27-22.44a13,13,0,0,1,5.93,10.28c0,3.72-2.7,5.3-6,3.42a13.14,13.14,0,0,1-6-10.3c0-3.72,2.7-5.3,6-3.4M450,254.87l-65.85-38V212l65.91,38.06v4.83m28.43,7-94.3-54.44V202.6L478.5,257v4.85m0-9.43L384.18,198v-4.84l94.3,54.44v4.83m0-9.42L384.26,188.6v-4.83l94.3,54.43V243m-4.17-22.16a13,13,0,0,1-5.93-10.28c0-3.72,2.7-5.3,6-3.4a13,13,0,0,1,5.95,10.28c0,3.72-2.7,5.3-6,3.4"/><path id="Tracé_5174" data-name="Tracé 5174" class="cls-2" d="M434.31,132.66a16.11,16.11,0,0,0-3.72-1.53v1.53a6.24,6.24,0,0,0,.46,2.45,2.44,2.44,0,0,1,.1.24,8,8,0,0,0,1,1.73,8.63,8.63,0,0,0,1,1.14,6.85,6.85,0,0,0,.7.5l.24.15h2.46l.11-.1h0l.09-.11h0a.78.78,0,0,0,.1-.15v-.11a.48.48,0,0,0,0-.17v-.3a.28.28,0,0,0,0-.13v-.35h0V135a24,24,0,0,0-3.07-2.13Z"/><path id="Tracé_5177" data-name="Tracé 5177" class="cls-2" d="M445.09,94.34a23.15,23.15,0,0,1,1.08,4l2.56,15.6,1.1,6.6.12.8c1.11,8.57-3.31,13.66-10.12,11.45l-2.19-.73-.67-.22a14.63,14.63,0,0,1-3.05-1.36,22.89,22.89,0,0,1-3.18-2.26,33.45,33.45,0,0,1-10.78-19l-.15-1c1.1-.35,1.71-1.66,1.47-3.48,1.67-.13,2.25-2.08.89-8.5a7.93,7.93,0,0,1,.54-6,3.71,3.71,0,0,0,.85.78l.19.11c.91.54,1.69.3,1.86-.56a2.63,2.63,0,0,0-.23-1.06l.28.23L426,90c1.51.89,2.77.5,2.88-.91a2.93,2.93,0,0,0-.11-1.06,19.75,19.75,0,0,1,5.58,2.51l.95.56.57.33c1.58.92,3.26,1.86,5,2.66C443.38,95.27,444.6,95.05,445.09,94.34Z"/><path id="Tracé_5178" data-name="Tracé 5178" class="cls-18" d="M434.53,69.73a7.94,7.94,0,0,1,.78.5,18.16,18.16,0,0,1,5.58,6.08,8.43,8.43,0,0,1,1.35.66l.8.49c4.32,2.92,7.59,8.46,7.27,12.44a3.7,3.7,0,0,1-3.78,3.64,3.5,3.5,0,0,1-1.11-.19,1.83,1.83,0,0,1-.3,1c-.48.7-1.71.93-4.38-.3-1.73-.78-3.4-1.75-5-2.66l-.57-.34-.95-.55A19.75,19.75,0,0,0,428.65,88a2.91,2.91,0,0,1,.11,1.06c-.11,1.41-1.37,1.86-2.88.91l-.31-.19-.28-.22a2.72,2.72,0,0,1,.22,1.06c0,.85-.86,1.1-1.86.56l-.19-.12a3.5,3.5,0,0,1-.85-.78,8,8,0,0,0-.54,6c1.36,6.41.78,8.36-.89,8.5v-.2a8.6,8.6,0,0,0-3.72-5.71,4,4,0,0,0-.82-.37,2.56,2.56,0,0,0-1.37-.11,9.79,9.79,0,0,1-1.86-4.08l-2.53-12.68c-.41-2.13.19-3.71,1.39-4.2a4,4,0,0,1-.41-2c.1-1.43,1.38-1.86,2.9-.91h.15a2.52,2.52,0,0,1,2.35-2.19l9.63-.43C427.28,68.4,430.57,67.46,434.53,69.73Z"/></g><g id="Groupe_72" data-name="Groupe 72" class="cls-25"><path id="Tracé_5179" data-name="Tracé 5179" class="cls-14" d="M409.71,144l-.63,225.26L276.22,292.59l.63-225.24Z"/></g><path id="Tracé_5180" data-name="Tracé 5180" class="cls-19" d="M344.43,178.15a34.59,34.59,0,0,1,4.76,16.46v8L343,199.05Z"/><g id="Groupe_82" data-name="Groupe 82"><path id="Tracé_5181" data-name="Tracé 5181" class="cls-11" d="M291,201.08A13,13,0,0,1,297,211.36c0,3.72-2.7,5.3-6,3.4A13.12,13.12,0,0,1,285,204.48C285,200.69,287.71,199.18,291,201.08Z"/><path id="Tracé_5182" data-name="Tracé 5182" class="cls-16" d="M350.79,292.53l0,4.85-65.9-38.06v-4.83Z"/><path id="Tracé_5183" data-name="Tracé 5183" class="cls-11" d="M333.07,225.36A13,13,0,0,1,339,235.64c0,3.72-2.68,5.3-6,3.4a13,13,0,0,1-6-10.28C327.11,225,329.78,223.46,333.07,225.36Z"/><path id="Tracé_5184" data-name="Tracé 5184" class="cls-16" d="M379.2,299.5v4.85l-94.3-54.46v-4.83Z"/><path id="Tracé_5185" data-name="Tracé 5185" class="cls-16" d="M379.26,280.67v4.83l-94.32-54.45,0-4.84Z"/><path id="Tracé_5186" data-name="Tracé 5186" class="cls-11" d="M354.1,237.5A13,13,0,0,1,360,247.78c0,3.72-2.67,5.3-6,3.4a13,13,0,0,1-5.94-10.28C348.13,237.11,350.81,235.6,354.1,237.5Z"/><path id="Tracé_5187" data-name="Tracé 5187" class="cls-16" d="M379.24,290.09l0,4.84-94.3-54.46,0-4.83Z"/><path id="Tracé_5188" data-name="Tracé 5188" class="cls-15" d="M375.13,249.64a13.12,13.12,0,0,1,5.95,10.28c0,3.72-2.7,5.32-6,3.4A13,13,0,0,1,369.14,253C369.16,249.27,371.84,247.74,375.13,249.64Z"/><path id="Tracé_5189" data-name="Tracé 5189" class="cls-19" d="M328.8,163.39,330,191.58l-15.24-8.8v-8C314.82,165.12,320.86,160.58,328.8,163.39Z"/><path id="Tracé_5190" data-name="Tracé 5190" class="cls-2" d="M335.44,167a16.67,16.67,0,0,0,2.88,1.32l.35.13-.17,1.62a29.15,29.15,0,0,0-6.43-5.17l-.39-.22v-.39a23.93,23.93,0,0,0,3.76,2.71Z"/><path id="Tracé_5193" data-name="Tracé 5193" class="cls-2" d="M345.51,128.12a25,25,0,0,1,2.34,6.32,8.47,8.47,0,0,0,.2,1.12l3.46,22c1.42,9-3.2,14.24-10.28,11.81l-2.56-.89-.36-.13a18.75,18.75,0,0,1-2.88-1.32,24.8,24.8,0,0,1-3.72-2.72,33.41,33.41,0,0,1-10.37-18.74l-.15-1c1.08-.3,1.71-1.45,1.56-3.15,1.86.45,3-1.32,2.64-3.85l-1.9-12.41c-.35-2.29.82-3.61,2.6-3l12.81,4.41a9.09,9.09,0,0,1-2,2.34l.28.17c2,1.13,3.85.93,4.69-.76a4.79,4.79,0,0,0,.24-.73l.63.22h.2a15,15,0,0,1-.44,2,2.68,2.68,0,0,0,3-1.73Z"/><path id="Tracé_5194" data-name="Tracé 5194" class="cls-18" d="M341.53,114a12.71,12.71,0,0,1,5.58,8.44v.35a6.92,6.92,0,0,1-.13,3.07,4.25,4.25,0,0,1-.59,1.21,3.37,3.37,0,0,1-.8.71,5.22,5.22,0,0,0,.16-1.36,11.35,11.35,0,0,0-3.29-7.44,27.64,27.64,0,0,1,.63,5.88,21.17,21.17,0,0,1-.22,3.08h-.2l-.57-.33a9.06,9.06,0,0,0-1.32-6.55,14.14,14.14,0,0,1-1.38,4.54,7.27,7.27,0,0,1-.5.91l-12.81-4.4c-1.86-.62-3,.7-2.6,3l1.95,12.42c.39,2.53-.71,4.29-2.64,3.85v-.45a8.59,8.59,0,0,0-3.72-5.76,4.07,4.07,0,0,0-.76-.36l-.37-.11-2.85-18.14a3.71,3.71,0,0,1,1.2-4,2.47,2.47,0,0,1,2.46.22v-.3c-.6-3.88,1.39-6.17,4.46-5.11l12.68,4.39,4.72,1.62a6,6,0,0,1,.91.6Z"/><path id="Tracé_5195" data-name="Tracé 5195" class="cls-21" d="M294.16,79l78.51,45.33-.27,99.32-78.52-45.33Zm44.34,91.1.17-1.62,2.57.89c7.08,2.44,11.69-2.84,10.28-11.8l-3.46-22a6,6,0,0,0-.2-1.12,9.62,9.62,0,0,0,0-3,14.66,14.66,0,0,0-1.41-4.33,4.25,4.25,0,0,0,.59-1.21,6.92,6.92,0,0,0,.13-3.07v-.35a12.68,12.68,0,0,0-5.58-8.44,6.59,6.59,0,0,0-1.11-.52l-4.72-1.62-12.68-4.39c-3.07-1.06-5.06,1.23-4.47,5.11v.3a2.45,2.45,0,0,0-2.45-.22,3.71,3.71,0,0,0-1.21,4l2.85,18.15c-1.86-.43-3.07,1.1-2.7,3.59a8.7,8.7,0,0,0,3.71,5.78,7.43,7.43,0,0,0,.76.35,2.56,2.56,0,0,0,1.55,0l.15,1a33.44,33.44,0,0,0,10.37,18.75v.39a22,22,0,0,0-2.88-1.32c-7.94-2.81-14,1.73-14,11.36v8l15.25,8.8L343,199l6.21,3.59v-8a34.71,34.71,0,0,0-4.76-16.46,39.64,39.64,0,0,0-5.93-8"/><path id="Tracé_5196" data-name="Tracé 5196" class="cls-22" d="M320.41,138.92l.17.28c.67,1.45.48,2.85-.43,3.13H319l-.15-.1h0l-.19-.13h0l-.2-.2h0a.54.54,0,0,1-.15-.15h0l-.13-.15v-.09l-.11-.17v-.09l-.11-.18V141a1.4,1.4,0,0,1-.15-.3c-.71-1.43-.52-2.84.41-3.1h1.19l.15.1h0l.17.13h0l.2.18h0l.15.17h0l.13.15a.2.2,0,0,0,0,.11l.11.15v.11a.72.72,0,0,1,.11.19Z"/><path id="Tracé_5199" data-name="Tracé 5199" class="cls-2" d="M322.76,141.45c.14,1.69-.49,2.85-1.57,3.14a2.39,2.39,0,0,1-1.54,0,4.35,4.35,0,0,1-.76-.35,8.67,8.67,0,0,1-3.72-5.78c-.37-2.49.8-4,2.7-3.59l.37.11a3.53,3.53,0,0,1,.76.36,8.59,8.59,0,0,1,3.72,5.76Zm-2.61.88c.92-.28,1.11-1.68.43-3.13a4.35,4.35,0,0,0-1.67-1.86,1.62,1.62,0,0,0-1.25-.24c-.93.26-1.11,1.68-.41,3.1a4.33,4.33,0,0,0,1.66,1.86,1.63,1.63,0,0,0,1.25.24"/><path id="Tracé_5200" data-name="Tracé 5200" class="cls-18" d="M346.4,127.08a14.4,14.4,0,0,1,1.42,4.33,9.62,9.62,0,0,1,0,3,25.6,25.6,0,0,0-2.35-6.32,1.82,1.82,0,0,0,0-.33,3.24,3.24,0,0,0,.93-.71Z"/><path id="Tracé_5201" data-name="Tracé 5201" class="cls-7" d="M267,47.15l-.64,225.28,132.84,76.7.65-225.23ZM294.16,79l78.51,45.33-.27,99.31-78.52-45.32L294.16,79M360,247.78c0,3.72-2.7,5.3-6,3.4a13,13,0,0,1-5.95-10.28c0-3.72,2.7-5.3,6-3.4A13,13,0,0,1,360,247.78m-21-12.15c0,3.72-2.67,5.3-6,3.4a13,13,0,0,1-6-10.28c0-3.71,2.7-5.3,6-3.4A13,13,0,0,1,339,235.63m-21.09-12.14c0,3.72-2.7,5.3-6,3.4A13,13,0,0,1,306,216.61c0-3.71,2.7-5.3,6-3.4a13,13,0,0,1,5.95,10.28m-27-22.42a13,13,0,0,1,5.95,10.28c0,3.72-2.7,5.3-6,3.4a13.12,13.12,0,0,1-6-10.28c0-3.72,2.7-5.3,6-3.4m59.77,96.31-65.9-38.06v-4.83l65.9,38v4.86m28.56,6.95L285,249.9v-4.84l94.32,54.44v4.83m0-14.24V295l-94.35-54.48v-4.84l94.35,54.46h0m0-4.59L285,231v-4.89l94.3,54.51v4.84m-4.18-22.16a13,13,0,0,1-5.95-10.29c0-3.71,2.7-5.3,6-3.4a13.17,13.17,0,0,1,5.94,10.29c0,3.71-2.7,5.31-6,3.4"/><path id="Tracé_5202" data-name="Tracé 5202" class="cls-11" d="M312,213.14a13,13,0,0,1,6,10.28c0,3.72-2.7,5.3-6,3.4a13,13,0,0,1-5.93-10.28C306.06,212.83,308.76,211.28,312,213.14Z"/><path id="Tracé_5203" data-name="Tracé 5203" class="cls-2" d="M331.68,164.8l.39.23a29.15,29.15,0,0,1,6.43,5.17l-.3,2.84v.47a.81.81,0,0,1,0,.22.21.21,0,0,1,0,.11.49.49,0,0,1,0,.17v.11a.38.38,0,0,1-.09.15v.11l-.11.11v.1h-2l-.34-.13h0l-.26-.13-.37-.25a7.56,7.56,0,0,1-3.05-6.17Z"/><path id="Tracé_5206" data-name="Tracé 5206" class="cls-7" d="M331.68,164.8l-.35,3.39a7.53,7.53,0,0,0,3.05,6.17l.39.24c1.74,1,3.23.36,3.44-1.56l.3-2.84a39.74,39.74,0,0,1,5.93,8.05L343,199.15l-13-7.44-1.23-28.19a24.25,24.25,0,0,1,3,1.28Z"/><path id="Tracé_5207" data-name="Tracé 5207" class="cls-18" d="M340.73,121.15a9,9,0,0,1,1.36,6.47,3.67,3.67,0,0,1-.26.65c-.84,1.69-2.73,1.86-4.68.76l-.28-.16a9.09,9.09,0,0,0,2-2.35,6.18,6.18,0,0,0,.5-.91,13.7,13.7,0,0,0,1.34-4.46Z"/><path id="Tracé_5208" data-name="Tracé 5208" class="cls-18" d="M342.48,119a11.35,11.35,0,0,1,3.29,7.44,5.09,5.09,0,0,1-.16,1.35v.34a2.68,2.68,0,0,1-3.07,1.86,15.32,15.32,0,0,0,.44-2,22.71,22.71,0,0,0,.23-3.09A27.84,27.84,0,0,0,342.48,119Z"/></g><path id="Tracé_5209" data-name="Tracé 5209" class="cls-5" d="M175.8,418.27a2.45,2.45,0,0,1,1.45,2c0,1.58-2.17,2.87-4.92,2.87H160v7.14c0,1.58-2.2,2.86-4.93,2.86a7,7,0,0,1-3.5-.84,2.54,2.54,0,0,1-1.47-2v-7.13H137.8a7.24,7.24,0,0,1-3.5-.84,2.48,2.48,0,0,1-1.45-2c0-1.58,2.2-2.86,4.93-2.86h12.33v-7.14c0-1.58,2.17-2.86,4.93-2.86a7,7,0,0,1,3.47.83,2.49,2.49,0,0,1,1.38,2v7.13h12.33a7.13,7.13,0,0,1,3.58.92Z"/><path id="Tracé_5210" data-name="Tracé 5210" class="cls-5" d="M134.49,442.27a2.5,2.5,0,0,1,1.45,2c0,1.58-2.19,2.87-4.92,2.87H118.71v7.14c0,1.58-2.2,2.86-4.93,2.86a7,7,0,0,1-3.5-.84,2.48,2.48,0,0,1-1.47-2v-7.14H96.51a7.17,7.17,0,0,1-3.52-.84,2.49,2.49,0,0,1-1.45-2c0-1.58,2.18-2.86,4.93-2.86H108.8v-7.12c0-1.6,2.19-2.88,4.93-2.86a7.12,7.12,0,0,1,3.5.83,2.51,2.51,0,0,1,1.46,2v7.12H131A7.35,7.35,0,0,1,134.49,442.27Z"/><g id="Groupe_83" data-name="Groupe 83"><path id="Tracé_5211" data-name="Tracé 5211" class="cls-5" d="M241.27,453.72l-4.17,2.44L190,428.94l4.19-2.43Z"/><path id="Tracé_5212" data-name="Tracé 5212" class="cls-5" d="M90.93,468.78a3.18,3.18,0,0,1,1.29,1.28c.7,1.53-.84,3.1-3.48,3.52l-26.42,4.11h-1a8.09,8.09,0,0,1-3.53.15,6.77,6.77,0,0,1-2.06-.69c-1.29-.75-1.86-1.86-1.27-2.9L62.9,459c.81-1.51,3.6-2.35,6.19-1.86a6.35,6.35,0,0,1,2,.71c1.26.72,1.85,1.85,1.22,2.88L66.74,471l19.41-3a7.67,7.67,0,0,1,4.78.78Z"/><path id="Tracé_5213" data-name="Tracé 5213" class="cls-5" d="M146.93,508.55,142.75,511,95.62,483.77l4.16-2.44Z"/><path id="Tracé_5214" data-name="Tracé 5214" class="cls-7" d="M160.19,386.73l111.86,64.61L111.89,544.41,0,479.82ZM69,486.78l28.2-16.4L68.79,454l-28.2,16.4L69,486.78m86.19-50.11,28.2-16.38L155,403.89l-28.2,16.4,28.39,16.38m-43.1,25.05,28.2-16.38-28.39-16.4-28.2,16.4,28.39,16.38M194,481.2l4.2-2.44L151,451.55,146.88,454,194,481.2m43.11-25,4.17-2.44L194.15,426.5,190,428.94l47.15,27.22M142.75,511l4.13-2.44-47.1-27.22-4.16,2.43L142.75,511m8.16-4.74,4.16-2.41-47.13-27.22-4.18,2.4,47.15,27.21m35-20.3,4.16-2.41L142.9,456.29l-4.18,2.41,47.2,27.22m43.08-25,4.18-2.44-47.26-27.22-4.16,2.44,47.13,27.22M120.42,507.53l4.15-2.5-32.91-19-4.28,2.42,33,19M177.76,436l-4.19,2.42,33,19L210.7,455l-32.87-19m-43.1,25-4.16,2.42,33,19,4.17-2.42-33-19"/><path id="Tracé_5215" data-name="Tracé 5215" class="cls-29" d="M155,403.89l28.39,16.4-28.2,16.38-28.39-16.38Zm5.1,26.4v-7.13h12.32c2.75,0,4.94-1.29,4.93-2.87a2.49,2.49,0,0,0-1.45-2,7,7,0,0,0-3.5-.84H160l-.09-7.21a2.51,2.51,0,0,0-1.47-2,7,7,0,0,0-3.48-.84c-2.75,0-4.95,1.29-4.93,2.87v7.13H137.78c-2.73,0-4.95,1.29-4.93,2.87a2.45,2.45,0,0,0,1.45,2,7,7,0,0,0,3.5.84h12.33v7.14a2.52,2.52,0,0,0,1.47,2,7.09,7.09,0,0,0,3.5.83c2.73,0,4.94-1.28,4.93-2.86"/><path id="Tracé_5216" data-name="Tracé 5216" class="cls-5" d="M210.78,455l-4.17,2.42-33-19,4.18-2.42Z"/><path id="Tracé_5217" data-name="Tracé 5217" class="cls-5" d="M233.12,458.46l-4.18,2.44-47.13-27.22,4.16-2.44Z"/><path id="Tracé_5218" data-name="Tracé 5218" class="cls-29" d="M111.86,428.94l28.39,16.4-28.2,16.38L83.66,445.34Zm6.88,25.36v-7.14h12.31c2.74,0,4.95-1.28,4.93-2.86a2.5,2.5,0,0,0-1.45-2,7.27,7.27,0,0,0-3.51-.84H118.65v-7a2.49,2.49,0,0,0-1.47-2,7,7,0,0,0-3.5-.84c-2.73,0-4.94,1.27-4.92,2.86v7.13H96.47c-2.75,0-4.94,1.28-4.92,2.86a2.46,2.46,0,0,0,1.45,2,7.15,7.15,0,0,0,3.51.83h12.31v7.14a2.47,2.47,0,0,0,1.47,2,7.09,7.09,0,0,0,3.5.83c2.73,0,4.92-1.28,4.92-2.86"/><path id="Tracé_5219" data-name="Tracé 5219" class="cls-5" d="M198.19,478.76,194,481.2,146.86,454l4.18-2.43Z"/><path id="Tracé_5220" data-name="Tracé 5220" class="cls-5" d="M167.68,480.05l-4.17,2.41-32.94-19,4.17-2.41Z"/><path id="Tracé_5221" data-name="Tracé 5221" class="cls-5" d="M190,483.51l-4.17,2.43-47.15-27.23,4.19-2.42Z"/><path id="Tracé_5222" data-name="Tracé 5222" class="cls-29" d="M68.79,454l28.39,16.4L69,486.78l-28.39-16.4Zm20,19.6c2.64-.41,4.18-2,3.47-3.52A3.16,3.16,0,0,0,91,468.78a7.48,7.48,0,0,0-4.78-.74l-19.43,3,5.58-10.34c.58-1.06,0-2.16-1.23-2.88a6.72,6.72,0,0,0-2-.71c-2.59-.48-5.38.36-6.19,1.86l-8.39,15.3c-.56,1.06,0,2.16,1.26,2.9a6.87,6.87,0,0,0,2,.71,8.14,8.14,0,0,0,3.54-.15h.94l26.42-4.11"/><path id="Tracé_5223" data-name="Tracé 5223" class="cls-5" d="M155.08,503.83l-4.17,2.41L103.76,479l4.18-2.43Z"/><path id="Tracé_5224" data-name="Tracé 5224" class="cls-5" d="M124.6,505.09l-4.18,2.44-32.95-19,4.19-2.44Z"/></g></g></g></g></svg>