<svg xmlns="http://www.w3.org/2000/svg" xmlns:xlink="http://www.w3.org/1999/xlink" width="166.511" height="196" viewBox="0 0 166.511 196">
  <defs>
    <linearGradient id="linear-gradient" x1="0.126" y1="-0.085" x2="0.553" y2="0.668" gradientUnits="objectBoundingBox">
      <stop offset="0" stop-color="#899198"/>
      <stop offset="1" stop-color="#787e85"/>
    </linearGradient>
    <linearGradient id="linear-gradient-2" x1="-0.084" y1="-0.132" x2="0.741" y2="1.113" gradientUnits="objectBoundingBox">
      <stop offset="0" stop-color="#00b4f0"/>
      <stop offset="1" stop-color="#0082db"/>
    </linearGradient>
    <linearGradient id="linear-gradient-3" x1="-0.064" y1="-0.081" x2="0.86" y2="0.871" gradientUnits="objectBoundingBox">
      <stop offset="0" stop-color="#737b80"/>
      <stop offset="0.473" stop-color="#686f74"/>
      <stop offset="1" stop-color="#575c61"/>
    </linearGradient>
  </defs>
  <g id="Grand_Ménage" data-name="Grand Ménage" transform="translate(0.179 0.465)">
    <g id="Hexagon_60_opacity" data-name="Hexagon 60% opacity" transform="translate(57.06 -0.465) rotate(30)" fill="none" stroke-linecap="round" opacity="0.6">
      <path d="M84.612.053a20.065,20.065,0,0,1,17.323,10.026L123.451,47.2a20.193,20.193,0,0,1,.025,20.22L102.05,104.5a19.949,19.949,0,0,1-17.3,9.983l-43.186-.053A20.065,20.065,0,0,1,24.242,104.4L2.725,67.275A20.193,20.193,0,0,1,2.7,47.055L24.127,9.983A19.949,19.949,0,0,1,41.426,0Z" stroke="none"/>
      <path d="M 41.40095520019531 -1.52587890625e-05 L 41.40095520019531 7.999984741210938 C 37.15258026123047 7.999984741210938 33.18764495849609 10.29384613037109 31.05348205566406 13.98636627197266 L 9.6270751953125 51.05831909179688 C 7.454597473144531 54.81710433959961 7.462196350097656 59.49372482299805 9.64691162109375 63.26315307617188 L 31.163818359375 100.3878631591797 C 33.31912231445312 104.106559753418 37.30843353271484 106.4199142456055 41.57498168945312 106.4251556396484 L 84.77581787109375 106.478271484375 C 89.02421569824219 106.478271484375 92.98915100097656 104.184440612793 95.12331390380859 100.4918899536133 L 116.5496978759766 63.41996002197266 C 118.7221755981445 59.66115188598633 118.7145767211914 54.98453140258789 116.5298614501953 51.21510314941406 L 95.01295471191406 14.09041595458984 C 92.85765075683594 10.37169647216797 88.86833953857422 8.058341979980469 84.60179138183594 8.0531005859375 L 41.41571807861328 8.000007629394531 L 41.40095520019531 -1.52587890625e-05 M 41.40095520019531 -7.62939453125e-06 C 41.40922546386719 -7.62939453125e-06 41.41728210449219 0 41.42555236816406 7.62939453125e-06 L 84.61162567138672 0.0531005859375 C 91.74376678466797 0.06186676025390625 98.34214782714844 3.880744934082031 101.934455871582 10.07881927490234 L 123.4513626098633 47.20350646972656 C 127.0764312744141 53.45808029174805 127.0858383178711 61.17753219604492 123.4760513305664 67.42317199707031 L 102.049674987793 104.4951019287109 C 98.47248077392578 110.6843643188477 91.88145446777344 114.4870071411133 84.751220703125 114.4782485961914 L 41.56514739990234 114.4251556396484 C 34.43302917480469 114.416389465332 27.83462524414062 110.5975112915039 24.24231719970703 104.3994598388672 L 2.725410461425781 67.27474975585938 C -0.8996353149414062 61.02019882202148 -0.9090652465820312 53.30072402954102 2.70074462890625 47.05508422851562 L 24.12712097167969 9.983154296875 C 27.70016479492188 3.801094055175781 34.27836608886719 -7.62939453125e-06 41.40095520019531 -7.62939453125e-06 Z" stroke="none" fill="#7db1ff"/>
    </g>
    <g id="icons8-vacuum_cleaner" transform="translate(53.821 46.035)">
      <path id="Tracé_4503" data-name="Tracé 4503" d="M23.5,41.975V18.507C23.5,11.876,27.581,6.5,32.614,6.5h0c5.034,0,9.114,5.376,9.114,12.007V56.928" transform="translate(3.982 0)" fill="none" stroke="#999" stroke-width="3"/>
      <path id="Tracé_4504" data-name="Tracé 4504" d="M42.076,40.076H36V35.215A1.216,1.216,0,0,1,37.215,34h3.646a1.216,1.216,0,0,1,1.215,1.215Z" transform="translate(6.672 18.067)" fill="url(#linear-gradient)"/>
      <path id="Tracé_4505" data-name="Tracé 4505" d="M27.076,33.076H21V28.215A1.216,1.216,0,0,1,22.215,27h3.646a1.216,1.216,0,0,1,1.215,1.215Z" transform="translate(3.444 12.327)" fill="#53616a"/>
      <path id="Tracé_4506" data-name="Tracé 4506" d="M46.583,43.076H33.215A1.216,1.216,0,0,1,32,41.861V39.43A2.43,2.43,0,0,1,34.43,37H45.368a2.43,2.43,0,0,1,2.43,2.43v2.43A1.216,1.216,0,0,1,46.583,43.076Z" transform="translate(5.811 18.712)" fill="#53616a"/>
      <path id="Tracé_4507" data-name="Tracé 4507" d="M7,45.222H28.036A6.869,6.869,0,0,0,34.95,38.4h0c0-2.923-2.149-4.59-4.693-6.46C26.574,29.42,7,20.737,7,35.09Z" transform="translate(0.43 16.567)" fill="url(#linear-gradient-2)"/>
      <circle id="Ellipse_44" data-name="Ellipse 44" cx="5.458" cy="5.458" r="5.458" transform="translate(5 52.045)" fill="url(#linear-gradient-3)"/>
    </g>
    <text id="Grand_Ménage-2" data-name="Grand
Ménage" transform="translate(83.475 174.535)" fill="#7db1ff" font-size="16" font-family="Ubuntu-Bold, Ubuntu" font-weight="700" opacity="0.6"><tspan x="-22" y="0">Grand</tspan><tspan x="-30" y="18">Ménage</tspan></text>
  </g>
</svg>
