<svg xmlns="http://www.w3.org/2000/svg" width="24" height="21" viewBox="0 0 24 21">
  <path id="icons8_bathtub" d="M11.909,2A2.213,2.213,0,0,0,9.727,4.211V9.737H2.091a1.105,1.105,0,0,0,0,2.211h.128l.494,4A5.517,5.517,0,0,0,4.8,19.615l-.5,2.012a1.091,1.091,0,1,0,2.116.535L6.8,20.6a5.326,5.326,0,0,0,1.321.186h9.75A5.326,5.326,0,0,0,19.2,20.6l.384,1.559a1.091,1.091,0,1,0,2.116-.535l-.5-2.01a5.517,5.517,0,0,0,2.088-3.67l.5-4h.126a1.105,1.105,0,0,0,0-2.211h-12V4.211h3.273V5.316a1.105,1.105,0,0,0,0,2.211h.908a1.077,1.077,0,0,0,.356,0h.918a1.105,1.105,0,0,0,0-2.211V4.211A2.213,2.213,0,0,0,15.182,2Z" transform="translate(-1 -2)" fill="#5493ff"/>
</svg>
