<svg id="Product" xmlns="http://www.w3.org/2000/svg" width="55.994" height="59.68" viewBox="0 0 55.994 59.68">
  <path id="Tracé_4584" data-name="Tracé 4584" d="M635.25,1294.065v-8.347l4.151-5.918,8.231,1.548s7.169,1.578,7.2,8.209a16.433,16.433,0,0,1-2.645,8.3l1.8,34.79a4.283,4.283,0,0,1-4.283,4.283h-9.32a4.28,4.28,0,0,1-4.283-4.283l1.789-34.79C636.163,1297.564,635.25,1295.691,635.25,1294.065Z" transform="translate(-631.61 -1277.252)" fill="#e96f4c"/>
  <path id="Tracé_4585" data-name="Tracé 4585" d="M639,1315.721c1.113-12.159,17.226-1.062,14.465,3.44l1.435,34.782a3.416,3.416,0,0,1-3.418,3.416h-7.426a3.413,3.413,0,0,1-3.416-3.416l1.435-34.782C640.4,1319.261,639,1317.785,639,1315.721Z" transform="translate(-634.347 -1299.443)" fill="#fff" opacity="0.1"/>
  <path id="Tracé_4587" data-name="Tracé 4587" d="M671.961,1291.495c-.238.365,2.518.476,4.756,1.929s3.1,3.691,3.34,3.326-.484-2.751-2.721-4.2S672.185,1291.13,671.961,1291.495Z" transform="translate(-658.391 -1285.631)" fill="#fff" opacity="0.3"/>
  <path id="Tracé_4588" data-name="Tracé 4588" d="M661.18,1314.341c-.494.316,2.951,2.162,5.042,5.4s2.035,6.62,2.524,6.3.811-3.8-1.278-7.026S661.667,1314.022,661.18,1314.341Z" transform="translate(-650.499 -1302.433)" fill="#fff" opacity="0.3"/>
  <path id="Tracé_4590" data-name="Tracé 4590" d="M648.7,1401.872h12.308l-.865-21.482H649.568Z" transform="translate(-641.426 -1350.661)" fill="#f6c08e"/>
  <path id="Tracé_4593" data-name="Tracé 4593" d="M624.437,1277.005a1.975,1.975,0,0,0,2.778-.346l.859-1.1a1.983,1.983,0,0,0-.346-2.78l-1.892-1.47a1.975,1.975,0,0,0-2.78.343l-.857,1.1a1.984,1.984,0,0,0,.346,2.783Z" transform="translate(-621.781 -1270.75)" fill="#2d4a6a"/>
  <path id="Tracé_4594" data-name="Tracé 4594" d="M633.017,1276.1l.621.484a1.984,1.984,0,0,1,.346,2.781l-.859,1.1a1.975,1.975,0,0,1-2.778.346l-.467-.362Z" transform="translate(-627.691 -1274.552)" fill="#182f46"/>
  <path id="Tracé_4595" data-name="Tracé 4595" d="M630.771,1281.889a.521.521,0,0,0,.735-.092l3.551-4.559a.524.524,0,0,0-.089-.735l-1.384-1.081a.524.524,0,0,0-.735.092l-3.54,4.577a.541.541,0,0,0,.092.735Z" transform="translate(-627.199 -1273.977)" fill="#2d4a6a"/>
  <path id="Tracé_4596" data-name="Tracé 4596" d="M629.232,1280.207l1.7,1.321a.459.459,0,0,0,.649-.078l3.137-4.029a.463.463,0,0,0-.081-.649l-1.7-1.324a.519.519,0,0,1,.643,0l1.384,1.081a.524.524,0,0,1,.089.735l-3.551,4.559a.522.522,0,0,1-.735.092l-1.381-1.081A.519.519,0,0,1,629.232,1280.207Z" transform="translate(-627.184 -1273.995)" fill="#182f46"/>
  <path id="Tracé_4597" data-name="Tracé 4597" d="M641.966,1278.723a.149.149,0,0,1,.216-.027l1.767,1.375-.194.243-1.765-1.373a.154.154,0,0,1-.024-.219Z" transform="translate(-636.486 -1276.421)" fill="#182f46"/>
  <path id="Tracé_4598" data-name="Tracé 4598" d="M640.032,1281.206a.162.162,0,0,1,.222-.03l1.765,1.375-.192.249-1.767-1.378A.154.154,0,0,1,640.032,1281.206Z" transform="translate(-635.077 -1278.234)" fill="#182f46"/>
  <path id="Tracé_4599" data-name="Tracé 4599" d="M638.1,1283.686a.154.154,0,0,1,.219-.027l1.767,1.373-.192.246-1.767-1.373A.157.157,0,0,1,638.1,1283.686Z" transform="translate(-633.668 -1280.043)" fill="#182f46"/>
  <path id="Tracé_4600" data-name="Tracé 4600" d="M636.171,1286.159a.157.157,0,0,1,.219-.027l1.767,1.378-.192.243-1.767-1.372A.16.16,0,0,1,636.171,1286.159Z" transform="translate(-632.258 -1281.849)" fill="#182f46"/>
  <path id="Tracé_4601" data-name="Tracé 4601" d="M634.239,1288.644a.157.157,0,0,1,.219-.03l1.767,1.375-.192.246-1.767-1.375a.151.151,0,0,1-.027-.216Z" transform="translate(-630.848 -1283.661)" fill="#182f46"/>
  <path id="Tracé_4602" data-name="Tracé 4602" d="M632.309,1291.126a.151.151,0,0,1,.216-.027l1.77,1.373-.192.246-1.767-1.375a.151.151,0,0,1-.027-.216Z" transform="translate(-629.439 -1285.473)" fill="#182f46"/>
  <path id="Tracé_4603" data-name="Tracé 4603" d="M642.375,1280.756l.122-.154-1.878-1.462-.119.154Z" transform="translate(-635.442 -1276.77)" fill="#406f95"/>
  <path id="Tracé_4604" data-name="Tracé 4604" d="M640.438,1283.246l.122-.157-1.878-1.459-.122.151Z" transform="translate(-634.026 -1278.587)" fill="#406f95"/>
  <path id="Tracé_4605" data-name="Tracé 4605" d="M638.513,1285.72l.121-.151-1.878-1.459-.116.151Z" transform="translate(-632.625 -1280.397)" fill="#406f95"/>
  <path id="Tracé_4606" data-name="Tracé 4606" d="M636.585,1288.2l.119-.154-1.878-1.459-.116.151Z" transform="translate(-631.216 -1282.207)" fill="#406f95"/>
  <path id="Tracé_4607" data-name="Tracé 4607" d="M634.648,1290.683l.119-.154-1.878-1.459-.119.151Z" transform="translate(-629.8 -1284.017)" fill="#406f95"/>
  <path id="Tracé_4608" data-name="Tracé 4608" d="M632.715,1293.156l.122-.154-1.875-1.462-.122.154Z" transform="translate(-628.392 -1285.819)" fill="#406f95"/>
  <path id="Tracé_4609" data-name="Tracé 4609" d="M644.305,1278.283l-.027-.267-1.729-1.346-.119.151Z" transform="translate(-636.85 -1274.968)" fill="#406f95"/>
  <path id="Tracé_4610" data-name="Tracé 4610" d="M624.126,1274.695c.338.468,1.289.36,2.129-.238s1.246-1.467.908-1.935-1.289-.362-2.124.238S623.79,1274.224,624.126,1274.695Z" transform="translate(-623.407 -1271.728)" fill="#406f95"/>
  <path id="Tracé_4611" data-name="Tracé 4611" d="M624.7,1275.161c.086.116.459-.73,1.189-1.251s1.535-.519,1.448-.635a1.788,1.788,0,0,0-1.646.332A2.27,2.27,0,0,0,624.7,1275.161Z" transform="translate(-623.9 -1272.429)" fill="#708aab"/>
  <path id="Tracé_4612" data-name="Tracé 4612" d="M626.281,1279.539a.379.379,0,1,0-.149-.256A.375.375,0,0,0,626.281,1279.539Z" transform="translate(-624.954 -1276.567)" fill="#708aab"/>
  <path id="Tracé_4613" data-name="Tracé 4613" d="M706.054,1274.669a3.387,3.387,0,0,1-.054-.581v-.594a3.124,3.124,0,0,1,3.121-3.124h2.194a3.126,3.126,0,0,1,3.124,3.124v.594a3.388,3.388,0,0,1-.054.581Z" transform="translate(-683.243 -1270.37)" fill="#2d4a6a"/>
  <path id="Tracé_4614" data-name="Tracé 4614" d="M706.054,1281.427a3.387,3.387,0,0,1-.054-.581v-.919l8.439-.3v1.216a3.388,3.388,0,0,1-.054.581Z" transform="translate(-683.243 -1277.128)" fill="#182f46"/>
  <path id="Tracé_4615" data-name="Tracé 4615" d="M701.87,1284.315a.613.613,0,0,0,.611.616h9.458a.613.613,0,0,0,.616-.616v-2.059a.614.614,0,0,0-.616-.616h-9.458a.613.613,0,0,0-.611.616Z" transform="translate(-680.228 -1278.595)" fill="#2d4a6a"/>
  <path id="Tracé_4616" data-name="Tracé 4616" d="M702.279,1281.71v2.537a.54.54,0,0,0,.54.541h8.647a.54.54,0,0,0,.54-.541v-2.537a.613.613,0,0,1,.468.6v2.059a.614.614,0,0,1-.616.616H702.4a.613.613,0,0,1-.611-.616v-2.059a.616.616,0,0,1,.489-.6Z" transform="translate(-680.17 -1278.646)" fill="#182f46"/>
  <path id="Tracé_4617" data-name="Tracé 4617" d="M735.5,1283a.181.181,0,0,1,.181.184v2.632h-.365v-2.632a.181.181,0,0,1,.184-.184Z" transform="translate(-704.64 -1279.587)" fill="#182f46"/>
  <path id="Tracé_4618" data-name="Tracé 4618" d="M731.794,1283a.184.184,0,0,1,.184.184v2.632h-.368v-2.632a.184.184,0,0,1,.184-.184Z" transform="translate(-701.932 -1279.587)" fill="#182f46"/>
  <path id="Tracé_4619" data-name="Tracé 4619" d="M728.094,1283a.181.181,0,0,1,.184.184v2.632h-.367v-2.632A.186.186,0,0,1,728.094,1283Z" transform="translate(-699.232 -1279.587)" fill="#182f46"/>
  <path id="Tracé_4620" data-name="Tracé 4620" d="M724.4,1283a.184.184,0,0,1,.184.184v2.632h-.368v-2.632a.181.181,0,0,1,.184-.184Z" transform="translate(-696.539 -1279.587)" fill="#182f46"/>
  <path id="Tracé_4621" data-name="Tracé 4621" d="M720.7,1283a.181.181,0,0,1,.184.184v2.632h-.367v-2.632a.181.181,0,0,1,.184-.184Z" transform="translate(-693.839 -1279.587)" fill="#182f46"/>
  <path id="Tracé_4622" data-name="Tracé 4622" d="M717,1283a.181.181,0,0,1,.184.184v2.632h-.367v-2.632A.184.184,0,0,1,717,1283Z" transform="translate(-691.139 -1279.587)" fill="#182f46"/>
  <rect id="Rectangle_274" data-name="Rectangle 274" width="0.227" height="2.799" transform="translate(30.35 3.197)" fill="#406f95"/>
  <rect id="Rectangle_275" data-name="Rectangle 275" width="0.227" height="2.799" transform="translate(29.348 3.197)" fill="#406f95"/>
  <rect id="Rectangle_276" data-name="Rectangle 276" width="0.227" height="2.799" transform="translate(28.354 3.197)" fill="#406f95"/>
  <rect id="Rectangle_277" data-name="Rectangle 277" width="0.227" height="2.799" transform="translate(27.354 3.197)" fill="#406f95"/>
  <rect id="Rectangle_278" data-name="Rectangle 278" width="0.227" height="2.799" transform="translate(26.354 3.197)" fill="#406f95"/>
  <rect id="Rectangle_279" data-name="Rectangle 279" width="0.23" height="2.799" transform="translate(25.354 3.197)" fill="#406f95"/>
  <path id="Tracé_4623" data-name="Tracé 4623" d="M737.79,1284.99l.227-.219v-2.581h-.227Z" transform="translate(-706.442 -1278.996)" fill="#406f95"/>
  <path id="Tracé_4624" data-name="Tracé 4624" d="M713.311,1283a.184.184,0,0,1,.186.184v2.632h-.367v-2.632a.181.181,0,0,1,.181-.184Z" transform="translate(-688.446 -1279.587)" fill="#182f46"/>
  <path id="Tracé_4625" data-name="Tracé 4625" d="M709.614,1283a.184.184,0,0,1,.184.184v2.632h-.367v-2.632a.181.181,0,0,1,.184-.184Z" transform="translate(-685.746 -1279.587)" fill="#182f46"/>
  <path id="Tracé_4626" data-name="Tracé 4626" d="M705.914,1283a.181.181,0,0,1,.184.184v2.632h-.367v-2.632a.184.184,0,0,1,.184-.184Z" transform="translate(-683.046 -1279.587)" fill="#182f46"/>
  <rect id="Rectangle_280" data-name="Rectangle 280" width="0.227" height="2.799" transform="translate(24.354 3.197)" fill="#406f95"/>
  <rect id="Rectangle_281" data-name="Rectangle 281" width="0.227" height="2.799" transform="translate(23.357 3.197)" fill="#406f95"/>
  <rect id="Rectangle_282" data-name="Rectangle 282" width="0.23" height="2.799" transform="translate(22.358 3.197)" fill="#406f95"/>
  <path id="Tracé_4627" data-name="Tracé 4627" d="M685.39,1298.775c0-5.4,4.38-6.345,9.79-6.345s9.787.94,9.787,6.345a16.407,16.407,0,0,1-2.645,8.3l1.8,34.79a4.28,4.28,0,0,1-4.283,4.283h-9.322a4.28,4.28,0,0,1-4.28-4.283l1.794-34.79A16.451,16.451,0,0,1,685.39,1298.775Z" transform="translate(-668.202 -1286.469)" fill="#7cc5d0"/>
  <path id="Tracé_4628" data-name="Tracé 4628" d="M692.71,1312.22c.286-6.755,16.272,2.119,13.511,6.62l1.429,34.782a3.415,3.415,0,0,1-3.416,3.415H696.8a3.415,3.415,0,0,1-3.416-3.415l1.435-34.782A13.087,13.087,0,0,1,692.71,1312.22Z" transform="translate(-673.544 -1299.122)" fill="#a7d7e0"/>
  <path id="Tracé_4630" data-name="Tracé 4630" d="M726.037,1296.666c-.205.319,2.2.419,4.161,1.689s2.7,3.226,2.918,2.907-.424-2.4-2.375-3.675S726.245,1296.353,726.037,1296.666Z" transform="translate(-697.856 -1289.427)" fill="#c7e6eb"/>
  <path id="Tracé_4631" data-name="Tracé 4631" d="M711.312,1314.341c-.492.316,2.956,2.162,5.048,5.4s2.032,6.62,2.521,6.3.811-3.8-1.278-7.026S711.8,1314.022,711.312,1314.341Z" transform="translate(-687.084 -1302.433)" fill="#c7e6eb"/>
  <path id="Tracé_4634" data-name="Tracé 4634" d="M698.84,1401.872h12.306l-.862-21.482H699.7Z" transform="translate(-678.017 -1350.661)" fill="#e96f4c"/>
  <path id="Tracé_4637" data-name="Tracé 4637" d="M732.3,1326.14v-5.01l8.312,4.288c-2.972,5.342-1.937,2.029-3.642,1.445l-2.7-.919c0,5.431-6.323,6.485-6.323,4.815C732.474,1329.839,732.3,1326.14,732.3,1326.14Z" transform="translate(-699.254 -1307.414)" fill="#2d4a6a"/>
  <path id="Tracé_4638" data-name="Tracé 4638" d="M751.965,1339l2.7.919c.716.246.951.973,1.2,1.351-.786.746-.659-.959-1.837-1.351l-2.7-.919Z" transform="translate(-716.323 -1320.455)" fill="#182f46"/>
  <path id="Tracé_4639" data-name="Tracé 4639" d="M732.289,1326.14v-5.01l.635.327v4.7s.181,3.7-4.359,4.618c0,.381.327.619.827.7-.848.059-1.462-.2-1.462-.722C732.467,1329.839,732.289,1326.14,732.289,1326.14Z" transform="translate(-699.247 -1307.414)" fill="#182f46"/>
  <rect id="Rectangle_286" data-name="Rectangle 286" width="2.991" height="3.194" transform="translate(26.478 11.817)" fill="#2d4a6a"/>
  <rect id="Rectangle_287" data-name="Rectangle 287" width="2.991" height="1.243" transform="translate(26.478 13.716)" fill="#182f46"/>
  <rect id="Rectangle_288" data-name="Rectangle 288" width="2.991" height="0.621" transform="translate(26.478 12.181)" fill="#406f95"/>
  <path id="Tracé_4640" data-name="Tracé 4640" d="M745.639,1313.29l5.766,6.28-2.016,3.932H741.7l-1.281-2.359-8.431-4.28H729.44v-3.572Z" transform="translate(-700.349 -1301.693)" fill="#e96f4c"/>
  <path id="Tracé_4641" data-name="Tracé 4641" d="M749.6,1320.924l-5.769-6.28H729.44v-1.354h16.2l5.766,6.28-2.016,3.932Z" transform="translate(-700.349 -1301.693)" fill="#fff" opacity="0.1"/>
  <path id="Tracé_4643" data-name="Tracé 4643" d="M788.211,1317.074c.716.778,1.165,1.527,1.005,1.675s-.867-.368-1.584-1.143-1.165-1.527-1-1.675S787.5,1316.3,788.211,1317.074Z" transform="translate(-742.061 -1303.601)" fill="#fff" opacity="0.3"/>
  <path id="Tracé_4644" data-name="Tracé 4644" d="M729.892,1378.345h0s7.566-5.11,8.428-17.645h8.874l6.188,35.271H734.894a9.528,9.528,0,0,1-5-17.626Z" transform="translate(-697.388 -1336.291)" fill="#7cc5d0"/>
  <path id="Tracé_4645" data-name="Tracé 4645" d="M736.212,1383.14h0s7.6-4.594,8.377-15.87h6.582L756.735,1399H740.711a8.568,8.568,0,0,1-4.5-15.864Z" transform="translate(-702.316 -1341.086)" fill="#a7d7e0"/>
  <path id="Tracé_4646" data-name="Tracé 4646" d="M762.125,1370.8c-.573-.27-.357,3.626-2.313,7.712s-5.239,6.193-4.669,6.469,4.094-1.621,6.05-5.723S762.7,1371.077,762.125,1370.8Z" transform="translate(-719.058 -1343.655)" fill="#c7e6eb"/>
  <path id="Tracé_4652" data-name="Tracé 4652" d="M768.47,1351.675a.613.613,0,0,0,.613.616h9.458a.613.613,0,0,0,.613-.616v-2.059a.616.616,0,0,0-.613-.616h-9.458a.616.616,0,0,0-.613.616Z" transform="translate(-728.832 -1327.753)" fill="#2d4a6a"/>
  <path id="Tracé_4653" data-name="Tracé 4653" d="M768.879,1349.08v2.535a.54.54,0,0,0,.54.54h8.647a.54.54,0,0,0,.54-.54v-2.535a.608.608,0,0,1,.468.594v2.059a.613.613,0,0,1-.613.616H769a.613.613,0,0,1-.613-.616v-2.059A.613.613,0,0,1,768.879,1349.08Z" transform="translate(-728.774 -1327.811)" fill="#182f46"/>
  <path id="Tracé_4654" data-name="Tracé 4654" d="M802.094,1350.39a.184.184,0,0,1,.184.186v2.632h-.367v-2.632A.186.186,0,0,1,802.094,1350.39Z" transform="translate(-753.236 -1328.768)" fill="#182f46"/>
  <path id="Tracé_4655" data-name="Tracé 4655" d="M798.4,1350.39a.184.184,0,0,1,.181.186v2.632h-.368v-2.632A.186.186,0,0,1,798.4,1350.39Z" transform="translate(-750.536 -1328.768)" fill="#182f46"/>
  <path id="Tracé_4656" data-name="Tracé 4656" d="M794.7,1350.39a.184.184,0,0,1,.184.186v2.632h-.365v-2.632A.186.186,0,0,1,794.7,1350.39Z" transform="translate(-747.843 -1328.768)" fill="#182f46"/>
  <path id="Tracé_4657" data-name="Tracé 4657" d="M791,1350.39a.184.184,0,0,1,.184.186v2.632h-.367v-2.632A.186.186,0,0,1,791,1350.39Z" transform="translate(-745.143 -1328.768)" fill="#182f46"/>
  <path id="Tracé_4658" data-name="Tracé 4658" d="M787.3,1350.39a.184.184,0,0,1,.184.186v2.632h-.368v-2.632A.187.187,0,0,1,787.3,1350.39Z" transform="translate(-742.442 -1328.768)" fill="#182f46"/>
  <path id="Tracé_4659" data-name="Tracé 4659" d="M783.614,1350.39a.184.184,0,0,1,.181.186v2.632h-.365v-2.632a.184.184,0,0,1,.184-.186Z" transform="translate(-739.75 -1328.768)" fill="#182f46"/>
  <rect id="Rectangle_292" data-name="Rectangle 292" width="0.23" height="2.797" transform="translate(48.347 21.396)" fill="#406f95"/>
  <rect id="Rectangle_293" data-name="Rectangle 293" width="0.227" height="2.797" transform="translate(47.347 21.396)" fill="#406f95"/>
  <rect id="Rectangle_294" data-name="Rectangle 294" width="0.23" height="2.797" transform="translate(46.35 21.396)" fill="#406f95"/>
  <rect id="Rectangle_295" data-name="Rectangle 295" width="0.227" height="2.797" transform="translate(45.35 21.396)" fill="#406f95"/>
  <rect id="Rectangle_296" data-name="Rectangle 296" width="0.23" height="2.797" transform="translate(44.35 21.396)" fill="#406f95"/>
  <rect id="Rectangle_297" data-name="Rectangle 297" width="0.23" height="2.797" transform="translate(43.353 21.396)" fill="#406f95"/>
  <path id="Tracé_4660" data-name="Tracé 4660" d="M804.39,1352.357l.232-.222v-2.575h-.232Z" transform="translate(-755.046 -1328.162)" fill="#406f95"/>
  <path id="Tracé_4661" data-name="Tracé 4661" d="M779.916,1350.39a.184.184,0,0,1,.178.186v2.632h-.365v-2.632A.186.186,0,0,1,779.916,1350.39Z" transform="translate(-737.049 -1328.768)" fill="#182f46"/>
  <path id="Tracé_4662" data-name="Tracé 4662" d="M776.192,1350.389a.184.184,0,0,1,.184.187v2.632H776v-2.632a.184.184,0,0,1,.192-.187Z" transform="translate(-734.327 -1328.767)" fill="#182f46"/>
  <path id="Tracé_4663" data-name="Tracé 4663" d="M772.5,1350.39a.184.184,0,0,1,.181.186v2.632h-.365v-2.632a.184.184,0,0,1,.184-.186Z" transform="translate(-731.642 -1328.768)" fill="#182f46"/>
  <rect id="Rectangle_298" data-name="Rectangle 298" width="0.227" height="2.797" transform="translate(42.354 21.396)" fill="#406f95"/>
  <rect id="Rectangle_299" data-name="Rectangle 299" width="0.23" height="2.797" transform="translate(41.354 21.396)" fill="#406f95"/>
  <rect id="Rectangle_300" data-name="Rectangle 300" width="0.23" height="2.797" transform="translate(40.357 21.396)" fill="#406f95"/>
  <circle id="Ellipse_54" data-name="Ellipse 54" cx="6.741" cy="6.741" r="6.741" transform="translate(36.137 41.193)" fill="#e96f4c"/>
</svg>
