<svg xmlns="http://www.w3.org/2000/svg" width="26.032" height="34.71" viewBox="0 0 26.032 34.71">
  <path id="icons8-building" d="M30.26,4H13.773A4.772,4.772,0,0,0,9,8.773V36.54a2.169,2.169,0,0,0,2.169,2.169h6.074a2.169,2.169,0,0,0,2.169-2.169v-3.9a.868.868,0,0,1,.868-.868h3.471a.868.868,0,0,1,.868.868v3.9a2.169,2.169,0,0,0,2.169,2.169h6.074a2.169,2.169,0,0,0,2.169-2.169V8.773A4.772,4.772,0,0,0,30.26,4ZM16.376,27.429h-.868a1.3,1.3,0,0,1,0-2.6h.868a1.3,1.3,0,0,1,0,2.6Zm0-5.206h-.868a1.3,1.3,0,1,1,0-2.6h.868a1.3,1.3,0,1,1,0,2.6Zm0-5.206h-.868a1.3,1.3,0,1,1,0-2.6h.868a1.3,1.3,0,1,1,0,2.6Zm0-5.206h-.868a1.3,1.3,0,1,1,0-2.6h.868a1.3,1.3,0,1,1,0,2.6ZM22.45,27.429h-.868a1.3,1.3,0,0,1,0-2.6h.868a1.3,1.3,0,0,1,0,2.6Zm0-5.206h-.868a1.3,1.3,0,1,1,0-2.6h.868a1.3,1.3,0,1,1,0,2.6Zm0-5.206h-.868a1.3,1.3,0,1,1,0-2.6h.868a1.3,1.3,0,1,1,0,2.6Zm0-5.206h-.868a1.3,1.3,0,1,1,0-2.6h.868a1.3,1.3,0,1,1,0,2.6Zm6.074,15.619h-.868a1.3,1.3,0,1,1,0-2.6h.868a1.3,1.3,0,0,1,0,2.6Zm0-5.206h-.868a1.3,1.3,0,1,1,0-2.6h.868a1.3,1.3,0,1,1,0,2.6Zm0-5.206h-.868a1.3,1.3,0,1,1,0-2.6h.868a1.3,1.3,0,1,1,0,2.6Zm0-5.206h-.868a1.3,1.3,0,1,1,0-2.6h.868a1.3,1.3,0,1,1,0,2.6Z" transform="translate(-9 -4)" fill="#85720a"/>
</svg>
