<svg xmlns="http://www.w3.org/2000/svg" width="24" height="21" viewBox="0 0 24 21">
  <path id="icons8_bed" d="M5.6,4A2.367,2.367,0,0,0,3.2,6.333V11a1.2,1.2,0,0,0,2.4,0V9.833A1.184,1.184,0,0,1,6.8,8.667h4.8a1.184,1.184,0,0,1,1.2,1.167V11a1.2,1.2,0,0,0,2.4,0V9.833a1.184,1.184,0,0,1,1.2-1.167h4.8a1.184,1.184,0,0,1,1.2,1.167V11a1.2,1.2,0,0,0,2.4,0V6.333A2.367,2.367,0,0,0,22.4,4ZM4.4,14.5A2.367,2.367,0,0,0,2,16.833v7A1.184,1.184,0,0,0,3.2,25a1.184,1.184,0,0,0,1.2-1.167V22.667H23.6v1.167a1.2,1.2,0,0,0,2.4,0v-7A2.367,2.367,0,0,0,23.6,14.5Z" transform="translate(-2 -4)" fill="#5493ff"/>
</svg>
