<svg xmlns="http://www.w3.org/2000/svg" width="15" height="15" viewBox="0 0 15 15">
  <path id="icons8_kitchen_room" d="M4.171,1a.66.66,0,0,0-.582.349L1.744,4.8a.659.659,0,0,0,.581.971H7.857A.66.66,0,0,0,8.439,4.8L6.593,1.349A.66.66,0,0,0,6.011,1ZM1.626,7.136A.626.626,0,0,0,1,7.762v7.613A.625.625,0,0,0,1.626,16h13.75A.625.625,0,0,0,16,15.374V7.762a.626.626,0,0,0-.626-.626ZM9.808,8.5h4.2a.625.625,0,0,1,.625.626v.795a.625.625,0,0,1-.626.625h-4.2a.625.625,0,0,1-.625-.626v-.8A.625.625,0,0,1,9.808,8.5ZM4.353,9.864H5.83a.625.625,0,0,1,.625.626V10.6a.625.625,0,0,1-.626.625H4.353a.626.626,0,0,1-.626-.626v-.113A.625.625,0,0,1,4.353,9.864Zm5.455,2.045h4.2a.625.625,0,0,1,.625.626v1.477a.625.625,0,0,1-.626.625h-4.2a.625.625,0,0,1-.625-.626V12.534A.625.625,0,0,1,9.808,11.909Z" transform="translate(-1 -1)" fill="#7395cf"/>
</svg>
