<svg id="Product" xmlns="http://www.w3.org/2000/svg" width="48" height="48" viewBox="0 0 48 48">
  <path id="Tracé_4584" data-name="Tracé 4584" d="M635.25,1291.273v-6.713l3.558-4.76,7.056,1.245s6.145,1.269,6.171,6.6a12.654,12.654,0,0,1-2.268,6.676l1.54,27.981a3.563,3.563,0,0,1-3.671,3.445h-7.989a3.8,3.8,0,0,1-2.6-1.008,3.338,3.338,0,0,1-1.075-2.436l1.534-27.981A2.976,2.976,0,0,1,635.25,1291.273Z" transform="translate(-632.13 -1277.751)" fill="#e96f4c"/>
  <path id="Tracé_4585" data-name="Tracé 4585" d="M639,1314.642c.954-9.78,14.767-.854,12.4,2.767l1.23,27.975a2.842,2.842,0,0,1-2.93,2.747h-6.365a3.027,3.027,0,0,1-2.071-.8,2.662,2.662,0,0,1-.857-1.943l1.23-27.975A2.59,2.59,0,0,1,639,1314.642Z" transform="translate(-635.011 -1301.55)" fill="#fff" opacity="0.1"/>
  <path id="Tracé_4587" data-name="Tracé 4587" d="M671.959,1291.453c-.2.293,2.159.383,4.077,1.552s2.661,2.969,2.863,2.675-.415-2.212-2.333-3.382S672.151,1291.16,671.959,1291.453Z" transform="translate(-660.326 -1286.737)" fill="#fff" opacity="0.3"/>
  <path id="Tracé_4588" data-name="Tracé 4588" d="M661.174,1314.334c-.424.254,2.529,1.739,4.322,4.347s1.744,5.325,2.164,5.07.695-3.058-1.1-5.651S661.591,1314.077,661.174,1314.334Z" transform="translate(-652.017 -1304.756)" fill="#fff" opacity="0.3"/>
  <path id="Tracé_4590" data-name="Tracé 4590" d="M648.7,1397.668h10.551l-.741-17.278h-9.066Z" transform="translate(-642.465 -1356.479)" fill="#f6c08e"/>
  <path id="Tracé_4593" data-name="Tracé 4593" d="M624.058,1275.808a1.775,1.775,0,0,0,1.252.325,1.721,1.721,0,0,0,1.129-.6l.737-.882a1.53,1.53,0,0,0-.3-2.236l-1.622-1.182A1.774,1.774,0,0,0,624,1270.9a1.722,1.722,0,0,0-1.131.6l-.734.882a1.53,1.53,0,0,0,.3,2.239Z" transform="translate(-621.781 -1270.777)" fill="#2d4a6a"/>
  <path id="Tracé_4594" data-name="Tracé 4594" d="M632.569,1276.1l.533.389a1.53,1.53,0,0,1,.3,2.236l-.737.882a1.723,1.723,0,0,1-1.129.6,1.776,1.776,0,0,1-1.252-.325l-.4-.291Z" transform="translate(-628.004 -1274.855)" fill="#182f46"/>
  <path id="Tracé_4595" data-name="Tracé 4595" d="M630.547,1280.6a.471.471,0,0,0,.332.086.456.456,0,0,0,.3-.16l3.044-3.667a.4.4,0,0,0-.076-.591l-1.186-.869a.469.469,0,0,0-.63.074l-3.035,3.681a.416.416,0,0,0,.079.591Z" transform="translate(-627.485 -1274.239)" fill="#2d4a6a"/>
  <path id="Tracé_4596" data-name="Tracé 4596" d="M629.225,1279.254l1.457,1.063a.412.412,0,0,0,.292.077.4.4,0,0,0,.264-.14l2.689-3.24a.357.357,0,0,0-.07-.522l-1.457-1.065a.468.468,0,0,1,.551,0l1.186.869a.4.4,0,0,1,.076.591l-3.044,3.667a.454.454,0,0,1-.3.16.467.467,0,0,1-.331-.086l-1.184-.869A.4.4,0,0,1,629.225,1279.254Z" transform="translate(-627.47 -1274.257)" fill="#182f46"/>
  <path id="Tracé_4597" data-name="Tracé 4597" d="M641.961,1278.711a.13.13,0,0,1,.088-.049.133.133,0,0,1,.1.027l1.515,1.106-.167.2-1.513-1.1a.122.122,0,0,1-.05-.084.119.119,0,0,1,.029-.093Z" transform="translate(-637.264 -1276.859)" fill="#182f46"/>
  <path id="Tracé_4598" data-name="Tracé 4598" d="M640.028,1281.194a.145.145,0,0,1,.19-.024l1.513,1.106-.164.2-1.515-1.109A.119.119,0,0,1,640.028,1281.194Z" transform="translate(-635.779 -1278.804)" fill="#182f46"/>
  <path id="Tracé_4599" data-name="Tracé 4599" d="M638.1,1283.674a.134.134,0,0,1,.089-.048.138.138,0,0,1,.1.026l1.515,1.1-.165.2-1.515-1.1A.121.121,0,0,1,638.1,1283.674Z" transform="translate(-634.296 -1280.745)" fill="#182f46"/>
  <path id="Tracé_4600" data-name="Tracé 4600" d="M636.166,1286.147a.141.141,0,0,1,.188-.022l1.515,1.109-.164.2-1.515-1.1A.123.123,0,0,1,636.166,1286.147Z" transform="translate(-632.812 -1282.68)" fill="#182f46"/>
  <path id="Tracé_4601" data-name="Tracé 4601" d="M634.234,1288.632a.14.14,0,0,1,.188-.024l1.515,1.106-.164.2-1.515-1.106a.121.121,0,0,1-.051-.082.117.117,0,0,1,.028-.091Z" transform="translate(-631.327 -1284.625)" fill="#182f46"/>
  <path id="Tracé_4602" data-name="Tracé 4602" d="M632.3,1291.114a.132.132,0,0,1,.088-.048.135.135,0,0,1,.1.026l1.517,1.1-.165.2-1.515-1.106a.121.121,0,0,1-.051-.083A.117.117,0,0,1,632.3,1291.114Z" transform="translate(-629.844 -1286.568)" fill="#182f46"/>
  <path id="Tracé_4603" data-name="Tracé 4603" d="M642.108,1280.44l.1-.124-1.61-1.176-.1.124Z" transform="translate(-636.164 -1277.234)" fill="#406f95"/>
  <path id="Tracé_4604" data-name="Tracé 4604" d="M640.17,1282.93l.1-.126-1.61-1.174-.1.122Z" transform="translate(-634.673 -1279.183)" fill="#406f95"/>
  <path id="Tracé_4605" data-name="Tracé 4605" d="M638.245,1285.405l.1-.122-1.61-1.174-.1.122Z" transform="translate(-633.198 -1281.124)" fill="#406f95"/>
  <path id="Tracé_4606" data-name="Tracé 4606" d="M636.317,1287.887l.1-.124-1.61-1.174-.1.122Z" transform="translate(-631.715 -1283.065)" fill="#406f95"/>
  <path id="Tracé_4607" data-name="Tracé 4607" d="M634.38,1290.367l.1-.124-1.61-1.173-.1.122Z" transform="translate(-630.224 -1285.006)" fill="#406f95"/>
  <path id="Tracé_4608" data-name="Tracé 4608" d="M632.448,1292.839l.1-.124-1.608-1.176-.1.124Z" transform="translate(-628.741 -1286.939)" fill="#406f95"/>
  <path id="Tracé_4609" data-name="Tracé 4609" d="M644.038,1277.967l-.023-.215-1.482-1.082-.1.122Z" transform="translate(-637.647 -1275.301)" fill="#406f95"/>
  <path id="Tracé_4610" data-name="Tracé 4610" d="M624.109,1274.212c.289.376,1.1.289,1.825-.191s1.068-1.18.778-1.556-1.1-.291-1.821.191S623.822,1273.834,624.109,1274.212Z" transform="translate(-623.493 -1271.826)" fill="#406f95"/>
  <path id="Tracé_4611" data-name="Tracé 4611" d="M624.7,1274.775c.074.093.394-.587,1.019-1.006s1.316-.417,1.242-.511a1.616,1.616,0,0,0-1.411.267A1.807,1.807,0,0,0,624.7,1274.775Z" transform="translate(-624.012 -1272.578)" fill="#708aab"/>
  <path id="Tracé_4612" data-name="Tracé 4612" d="M626.259,1279.406a.336.336,0,0,0,.447-.06.29.29,0,0,0-.056-.42.337.337,0,0,0-.449.045.291.291,0,0,0-.069.229A.3.3,0,0,0,626.259,1279.406Z" transform="translate(-625.122 -1277.016)" fill="#708aab"/>
  <path id="Tracé_4613" data-name="Tracé 4613" d="M706.046,1273.828a2.561,2.561,0,0,1-.046-.467v-.478a2.6,2.6,0,0,1,2.675-2.512h1.881a2.6,2.6,0,0,1,2.678,2.512v.478a2.566,2.566,0,0,1-.046.467Z" transform="translate(-686.492 -1270.37)" fill="#2d4a6a"/>
  <path id="Tracé_4614" data-name="Tracé 4614" d="M706.046,1281.075a2.561,2.561,0,0,1-.046-.467v-.739l7.234-.239v.978a2.566,2.566,0,0,1-.046.467Z" transform="translate(-686.492 -1277.618)" fill="#182f46"/>
  <path id="Tracé_4615" data-name="Tracé 4615" d="M701.87,1283.792a.51.51,0,0,0,.523.5H710.5a.543.543,0,0,0,.374-.145.478.478,0,0,0,.154-.351v-1.656a.478.478,0,0,0-.154-.351.543.543,0,0,0-.374-.145h-8.107a.51.51,0,0,0-.523.5Z" transform="translate(-683.318 -1279.191)" fill="#2d4a6a"/>
  <path id="Tracé_4616" data-name="Tracé 4616" d="M702.209,1281.71v2.041a.45.45,0,0,0,.463.435h7.412a.45.45,0,0,0,.463-.435v-2.041a.5.5,0,0,1,.4.48v1.656a.478.478,0,0,1-.154.351.544.544,0,0,1-.374.145h-8.107a.51.51,0,0,1-.523-.5v-1.656a.5.5,0,0,1,.419-.48Z" transform="translate(-683.257 -1279.245)" fill="#182f46"/>
  <path id="Tracé_4617" data-name="Tracé 4617" d="M735.477,1283a.161.161,0,0,1,.111.043.141.141,0,0,1,.045.1v2.117h-.313v-2.117a.141.141,0,0,1,.045-.105A.161.161,0,0,1,735.477,1283Z" transform="translate(-709.02 -1280.255)" fill="#182f46"/>
  <path id="Tracé_4618" data-name="Tracé 4618" d="M731.768,1283a.153.153,0,0,1,.158.148v2.117h-.315v-2.117A.153.153,0,0,1,731.768,1283Z" transform="translate(-706.169 -1280.255)" fill="#182f46"/>
  <path id="Tracé_4619" data-name="Tracé 4619" d="M728.067,1283a.16.16,0,0,1,.112.043.141.141,0,0,1,.045.105v2.117h-.315v-2.117A.155.155,0,0,1,728.067,1283Z" transform="translate(-703.326 -1280.255)" fill="#182f46"/>
  <path id="Tracé_4620" data-name="Tracé 4620" d="M724.377,1283a.153.153,0,0,1,.158.148v2.117h-.315v-2.117a.141.141,0,0,1,.046-.105A.16.16,0,0,1,724.377,1283Z" transform="translate(-700.491 -1280.255)" fill="#182f46"/>
  <path id="Tracé_4621" data-name="Tracé 4621" d="M720.677,1283a.16.16,0,0,1,.112.043.141.141,0,0,1,.045.105v2.117h-.315v-2.117a.141.141,0,0,1,.045-.105A.161.161,0,0,1,720.677,1283Z" transform="translate(-697.648 -1280.255)" fill="#182f46"/>
  <path id="Tracé_4622" data-name="Tracé 4622" d="M716.978,1283a.16.16,0,0,1,.112.043.141.141,0,0,1,.046.105v2.117h-.315v-2.117A.153.153,0,0,1,716.978,1283Z" transform="translate(-694.805 -1280.255)" fill="#182f46"/>
  <rect id="Rectangle_274" data-name="Rectangle 274" width="0.195" height="2.252" transform="translate(26.017 2.571)" fill="#406f95"/>
  <rect id="Rectangle_275" data-name="Rectangle 275" width="0.195" height="2.252" transform="translate(25.158 2.571)" fill="#406f95"/>
  <rect id="Rectangle_276" data-name="Rectangle 276" width="0.195" height="2.252" transform="translate(24.306 2.571)" fill="#406f95"/>
  <rect id="Rectangle_277" data-name="Rectangle 277" width="0.195" height="2.252" transform="translate(23.449 2.571)" fill="#406f95"/>
  <rect id="Rectangle_278" data-name="Rectangle 278" width="0.195" height="2.252" transform="translate(22.592 2.571)" fill="#406f95"/>
  <rect id="Rectangle_279" data-name="Rectangle 279" width="0.197" height="2.252" transform="translate(21.735 2.571)" fill="#406f95"/>
  <path id="Tracé_4623" data-name="Tracé 4623" d="M737.79,1284.442l.195-.176v-2.076h-.195Z" transform="translate(-710.918 -1279.621)" fill="#406f95"/>
  <path id="Tracé_4624" data-name="Tracé 4624" d="M713.285,1283a.163.163,0,0,1,.113.042.144.144,0,0,1,.047.105v2.117h-.315v-2.117a.141.141,0,0,1,.045-.1.161.161,0,0,1,.111-.043Z" transform="translate(-691.97 -1280.255)" fill="#182f46"/>
  <path id="Tracé_4625" data-name="Tracé 4625" d="M709.587,1283a.153.153,0,0,1,.158.148v2.117h-.315v-2.117a.141.141,0,0,1,.045-.105A.161.161,0,0,1,709.587,1283Z" transform="translate(-689.127 -1280.255)" fill="#182f46"/>
  <path id="Tracé_4626" data-name="Tracé 4626" d="M705.887,1283a.161.161,0,0,1,.112.043.141.141,0,0,1,.045.105v2.117h-.315v-2.117A.153.153,0,0,1,705.887,1283Z" transform="translate(-686.284 -1280.255)" fill="#182f46"/>
  <rect id="Rectangle_280" data-name="Rectangle 280" width="0.195" height="2.252" transform="translate(20.877 2.571)" fill="#406f95"/>
  <rect id="Rectangle_281" data-name="Rectangle 281" width="0.195" height="2.252" transform="translate(20.023 2.571)" fill="#406f95"/>
  <rect id="Rectangle_282" data-name="Rectangle 282" width="0.197" height="2.252" transform="translate(19.166 2.571)" fill="#406f95"/>
  <path id="Tracé_4627" data-name="Tracé 4627" d="M685.39,1297.533c0-4.347,3.755-5.1,8.392-5.1s8.39.756,8.39,5.1a12.635,12.635,0,0,1-2.268,6.677l1.543,27.981a3.338,3.338,0,0,1-1.075,2.436,3.8,3.8,0,0,1-2.6,1.008h-7.992a3.561,3.561,0,0,1-3.669-3.445l1.538-27.981A12.666,12.666,0,0,1,685.39,1297.533Z" transform="translate(-670.656 -1287.635)" fill="#7cc5d0"/>
  <path id="Tracé_4628" data-name="Tracé 4628" d="M692.71,1311.74c.245-5.433,13.949,1.7,11.582,5.325l1.225,27.975a2.842,2.842,0,0,1-2.928,2.747h-6.372a2.842,2.842,0,0,1-2.928-2.747l1.23-27.975A10.078,10.078,0,0,1,692.71,1311.74Z" transform="translate(-676.28 -1301.206)" fill="#a7d7e0"/>
  <path id="Tracé_4630" data-name="Tracé 4630" d="M726.035,1296.63c-.176.256,1.89.337,3.567,1.359s2.316,2.595,2.5,2.338-.364-1.934-2.036-2.956S726.213,1296.378,726.035,1296.63Z" transform="translate(-701.878 -1290.808)" fill="#c7e6eb"/>
  <path id="Tracé_4631" data-name="Tracé 4631" d="M711.305,1314.334c-.422.254,2.534,1.739,4.327,4.347s1.742,5.325,2.161,5.07.7-3.058-1.1-5.651S711.724,1314.077,711.305,1314.334Z" transform="translate(-690.537 -1304.756)" fill="#c7e6eb"/>
  <path id="Tracé_4634" data-name="Tracé 4634" d="M698.84,1397.668h10.549l-.739-17.278h-9.069Z" transform="translate(-680.99 -1356.479)" fill="#e96f4c"/>
  <path id="Tracé_4637" data-name="Tracé 4637" d="M731.674,1325.159v-4.029l7.125,3.449c-2.548,4.3-1.661,1.632-3.122,1.163L733.36,1325c0,4.368-5.42,5.216-5.42,3.873C731.827,1328.135,731.674,1325.159,731.674,1325.159Z" transform="translate(-703.349 -1310.098)" fill="#2d4a6a"/>
  <path id="Tracé_4638" data-name="Tracé 4638" d="M751.874,1339l2.316.739c.614.2.815.782,1.031,1.086-.674.6-.565-.772-1.575-1.086L751.33,1339Z" transform="translate(-721.321 -1324.085)" fill="#182f46"/>
  <path id="Tracé_4639" data-name="Tracé 4639" d="M731.666,1325.159v-4.029l.544.263v3.784s.155,2.977-3.736,3.714c0,.306.28.5.709.563-.727.048-1.253-.159-1.253-.58C731.819,1328.135,731.666,1325.159,731.666,1325.159Z" transform="translate(-703.342 -1310.098)" fill="#182f46"/>
  <rect id="Rectangle_286" data-name="Rectangle 286" width="2.564" height="2.569" transform="translate(22.698 9.504)" fill="#2d4a6a"/>
  <rect id="Rectangle_287" data-name="Rectangle 287" width="2.564" height="1" transform="translate(22.698 11.032)" fill="#182f46"/>
  <rect id="Rectangle_288" data-name="Rectangle 288" width="2.564" height="0.5" transform="translate(22.698 9.797)" fill="#406f95"/>
  <path id="Tracé_4640" data-name="Tracé 4640" d="M743.327,1313.29l4.943,5.051-1.728,3.162h-6.59l-1.1-1.9-7.227-3.442H729.44v-2.873Z" transform="translate(-704.502 -1303.962)" fill="#e96f4c"/>
  <path id="Tracé_4641" data-name="Tracé 4641" d="M746.722,1319.43l-4.945-5.051H729.44v-1.089h13.887l4.943,5.051-1.728,3.162Z" transform="translate(-704.502 -1303.962)" fill="#fff" opacity="0.1"/>
  <path id="Tracé_4643" data-name="Tracé 4643" d="M787.981,1316.845c.614.626,1,1.228.862,1.348s-.744-.3-1.358-.919-1-1.228-.859-1.348S787.369,1316.219,787.981,1316.845Z" transform="translate(-748.419 -1306.009)" fill="#fff" opacity="0.3"/>
  <path id="Tracé_4644" data-name="Tracé 4644" d="M729.248,1374.892h0s6.486-4.11,7.225-14.192h7.607l5.3,28.368H733.536a8.108,8.108,0,0,1-7.842-5.571A7.453,7.453,0,0,1,729.248,1374.892Z" transform="translate(-701.385 -1341.068)" fill="#7cc5d0"/>
  <path id="Tracé_4645" data-name="Tracé 4645" d="M735.63,1380.034h0a16.223,16.223,0,0,0,7.181-12.764h5.643l4.769,25.523H739.487a7.293,7.293,0,0,1-7.071-5.011A6.7,6.7,0,0,1,735.63,1380.034Z" transform="translate(-706.574 -1346.211)" fill="#a7d7e0"/>
  <path id="Tracé_4646" data-name="Tracé 4646" d="M761.119,1370.8c-.491-.217-.306,2.917-1.983,6.2s-4.491,4.981-4,5.2,3.509-1.3,5.186-4.6S761.61,1371.021,761.119,1370.8Z" transform="translate(-724.201 -1348.966)" fill="#c7e6eb"/>
  <path id="Tracé_4652" data-name="Tracé 4652" d="M768.47,1351.151a.478.478,0,0,0,.153.351.544.544,0,0,0,.373.145H777.1a.545.545,0,0,0,.373-.145.48.48,0,0,0,.153-.351V1349.5a.512.512,0,0,0-.526-.5H769a.512.512,0,0,0-.526.5Z" transform="translate(-734.491 -1331.911)" fill="#2d4a6a"/>
  <path id="Tracé_4653" data-name="Tracé 4653" d="M768.809,1349.08v2.039a.45.45,0,0,0,.463.435h7.412a.45.45,0,0,0,.463-.435v-2.039a.5.5,0,0,1,.4.478v1.656a.478.478,0,0,1-.153.35.544.544,0,0,1-.373.145h-8.107a.544.544,0,0,1-.373-.145.478.478,0,0,1-.153-.35v-1.656A.5.5,0,0,1,768.809,1349.08Z" transform="translate(-734.43 -1331.974)" fill="#182f46"/>
  <path id="Tracé_4654" data-name="Tracé 4654" d="M802.068,1350.39a.163.163,0,0,1,.112.044.143.143,0,0,1,.045.106v2.117h-.315v-2.117A.155.155,0,0,1,802.068,1350.39Z" transform="translate(-760.185 -1332.999)" fill="#182f46"/>
  <path id="Tracé_4655" data-name="Tracé 4655" d="M798.37,1350.39a.153.153,0,0,1,.155.15v2.117h-.315v-2.117A.155.155,0,0,1,798.37,1350.39Z" transform="translate(-757.342 -1332.999)" fill="#182f46"/>
  <path id="Tracé_4656" data-name="Tracé 4656" d="M794.675,1350.39a.163.163,0,0,1,.112.044.143.143,0,0,1,.045.106v2.117h-.313v-2.117A.155.155,0,0,1,794.675,1350.39Z" transform="translate(-754.507 -1332.999)" fill="#182f46"/>
  <path id="Tracé_4657" data-name="Tracé 4657" d="M790.978,1350.39a.163.163,0,0,1,.112.044.142.142,0,0,1,.045.106v2.117h-.315v-2.117A.155.155,0,0,1,790.978,1350.39Z" transform="translate(-751.664 -1332.999)" fill="#182f46"/>
  <path id="Tracé_4658" data-name="Tracé 4658" d="M787.277,1350.39a.163.163,0,0,1,.112.044.143.143,0,0,1,.045.106v2.117h-.315v-2.117A.155.155,0,0,1,787.277,1350.39Z" transform="translate(-748.821 -1332.999)" fill="#182f46"/>
  <path id="Tracé_4659" data-name="Tracé 4659" d="M783.587,1350.39a.153.153,0,0,1,.155.15v2.117h-.313v-2.117a.143.143,0,0,1,.045-.106A.163.163,0,0,1,783.587,1350.39Z" transform="translate(-745.986 -1332.999)" fill="#182f46"/>
  <rect id="Rectangle_292" data-name="Rectangle 292" width="0.197" height="2.249" transform="translate(41.445 17.208)" fill="#406f95"/>
  <rect id="Rectangle_293" data-name="Rectangle 293" width="0.195" height="2.249" transform="translate(40.588 17.208)" fill="#406f95"/>
  <rect id="Rectangle_294" data-name="Rectangle 294" width="0.197" height="2.249" transform="translate(39.733 17.208)" fill="#406f95"/>
  <rect id="Rectangle_295" data-name="Rectangle 295" width="0.195" height="2.249" transform="translate(38.876 17.208)" fill="#406f95"/>
  <rect id="Rectangle_296" data-name="Rectangle 296" width="0.197" height="2.249" transform="translate(38.019 17.208)" fill="#406f95"/>
  <rect id="Rectangle_297" data-name="Rectangle 297" width="0.197" height="2.249" transform="translate(37.164 17.208)" fill="#406f95"/>
  <path id="Tracé_4660" data-name="Tracé 4660" d="M804.39,1351.809l.2-.178v-2.071h-.2Z" transform="translate(-762.091 -1332.349)" fill="#406f95"/>
  <path id="Tracé_4661" data-name="Tracé 4661" d="M779.89,1350.39a.152.152,0,0,1,.153.15v2.117h-.313v-2.117A.155.155,0,0,1,779.89,1350.39Z" transform="translate(-743.143 -1332.999)" fill="#182f46"/>
  <path id="Tracé_4662" data-name="Tracé 4662" d="M776.164,1350.389a.163.163,0,0,1,.112.044.144.144,0,0,1,.045.106v2.117H776v-2.117a.144.144,0,0,1,.048-.109A.165.165,0,0,1,776.164,1350.389Z" transform="translate(-740.277 -1332.998)" fill="#182f46"/>
  <path id="Tracé_4663" data-name="Tracé 4663" d="M772.478,1350.39a.153.153,0,0,1,.155.15v2.117h-.313v-2.117a.143.143,0,0,1,.045-.106A.163.163,0,0,1,772.478,1350.39Z" transform="translate(-737.449 -1332.999)" fill="#182f46"/>
  <rect id="Rectangle_298" data-name="Rectangle 298" width="0.195" height="2.249" transform="translate(36.307 17.208)" fill="#406f95"/>
  <rect id="Rectangle_299" data-name="Rectangle 299" width="0.197" height="2.249" transform="translate(35.45 17.208)" fill="#406f95"/>
  <rect id="Rectangle_300" data-name="Rectangle 300" width="0.197" height="2.249" transform="translate(34.595 17.208)" fill="#406f95"/>
  <circle id="Ellipse_54" data-name="Ellipse 54" cx="5.778" cy="5.778" r="5.778" transform="translate(30.978 33.131)" fill="#e96f4c"/>
</svg>
