<svg id="icons8_person_female" xmlns="http://www.w3.org/2000/svg" xmlns:xlink="http://www.w3.org/1999/xlink" width="43.4" height="52.894" viewBox="0 0 43.4 52.894">
  <defs>
    <radialGradient id="radial-gradient" cx="0.49" cy="0.517" r="0.571" gradientUnits="objectBoundingBox">
      <stop offset="0.376" stop-color="#261103"/>
      <stop offset="0.68" stop-color="#431d06"/>
      <stop offset="1" stop-color="#662c09"/>
    </radialGradient>
    <linearGradient id="linear-gradient" x1="0.399" y1="-0.042" x2="0.533" y2="1.056" gradientUnits="objectBoundingBox">
      <stop offset="0" stop-color="#33bef0"/>
      <stop offset="1" stop-color="#0a85d9"/>
    </linearGradient>
    <radialGradient id="radial-gradient-2" cx="0.501" cy="0.5" r="0.409" gradientUnits="objectBoundingBox">
      <stop offset="0" stop-color="#ffcf54"/>
      <stop offset="0.261" stop-color="#fdcb4d"/>
      <stop offset="0.639" stop-color="#f7c13a"/>
      <stop offset="1" stop-color="#f0b421"/>
    </radialGradient>
    <radialGradient id="radial-gradient-3" cx="0.226" cy="0.018" r="1.24" gradientUnits="objectBoundingBox">
      <stop offset="0" stop-color="#c26715"/>
      <stop offset="0.508" stop-color="#b85515"/>
      <stop offset="1" stop-color="#ad3f16"/>
    </radialGradient>
  </defs>
  <path id="Tracé_4578" data-name="Tracé 4578" d="M28.578,9C14.614,9,11.15,31.548,11.15,31.548c0,4.014,1.865,7.531,5.768,8.463a51.783,51.783,0,0,0,11.66,1.539,51.84,51.84,0,0,0,11.658-1.538c3.9-.932,5.768-4.45,5.768-8.463C46.006,31.548,42.542,9,28.578,9Z" transform="translate(-6.878 -3.575)" fill="url(#radial-gradient)"/>
  <path id="Tracé_4579" data-name="Tracé 4579" d="M29.7,30.571C17.715,30.571,8,37.245,8,44.521v1.55a2.712,2.712,0,0,0,2.713,2.712H48.688A2.712,2.712,0,0,0,51.4,46.072v-1.55C51.4,37.245,41.685,30.571,29.7,30.571Z" transform="translate(-8 4.11)" fill="url(#linear-gradient)"/>
  <path id="Tracé_4580" data-name="Tracé 4580" d="M32.563,36.506c0,2.573-2.713,5.425-6.781,5.425S19,39.079,19,36.506V26.965H32.563Z" transform="translate(-4.081 2.825)" fill="#d6a121"/>
  <path id="Tracé_4581" data-name="Tracé 4581" d="M26.85,8.071c5.354,0,10.85.94,10.85,13.185v8.826c0,4.374-6.644,10.442-10.85,10.442S16,34.457,16,30.084V21.258C16,9.331,21.5,8.071,26.85,8.071Z" transform="translate(-5.15 -3.906)" fill="url(#radial-gradient-2)"/>
  <path id="Tracé_4582" data-name="Tracé 4582" d="M28.631,5C21.6,5,20.494,9.069,20.494,9.069,17.633,9.491,11,10.425,11,32.773c0,5.155,2.581,7.048,3.526,7.6C11,20.891,23.987,24.036,21.85,11.781c5.487,16.021,22.1.073,21.525,28.12,1.636-1.244,2.887-3.739,2.887-7.128C46.263,14.049,38.666,5,28.631,5Z" transform="translate(-6.931 -5)" fill="url(#radial-gradient-3)"/>
</svg>
