<svg xmlns="http://www.w3.org/2000/svg" width="15" height="13" viewBox="0 0 15 13">
  <path id="icons8_bed" d="M4.25,4a1.473,1.473,0,0,0-1.5,1.444V8.333a.751.751,0,0,0,1.5,0V7.611A.737.737,0,0,1,5,6.889H8a.737.737,0,0,1,.75.722v.722a.751.751,0,0,0,1.5,0V7.611A.737.737,0,0,1,11,6.889h3a.737.737,0,0,1,.75.722v.722a.751.751,0,0,0,1.5,0V5.444A1.473,1.473,0,0,0,14.75,4ZM3.5,10.5A1.473,1.473,0,0,0,2,11.944v4.333a.751.751,0,0,0,1.5,0v-.722h12v.722a.751.751,0,0,0,1.5,0V11.944A1.473,1.473,0,0,0,15.5,10.5Z" transform="translate(-2 -4)" fill="#7395cf"/>
</svg>
