<svg xmlns="http://www.w3.org/2000/svg" width="40" height="36" viewBox="0 0 40 36">
  <g id="People_icon" data-name="People icon" transform="translate(-299 -635)">
    <path id="icons8_people_2" d="M24,6a6,6,0,1,0,6,6A6,6,0,0,0,24,6ZM11,8a5,5,0,1,0,5,5,5,5,0,0,0-5-5ZM37,8a5,5,0,1,0,5,5,5,5,0,0,0-5-5ZM24,42a9.011,9.011,0,0,1-9-9V23.5A3.5,3.5,0,0,1,18.5,20h11A3.5,3.5,0,0,1,33,23.5V33A9.011,9.011,0,0,1,24,42ZM13,33V23.5A5.477,5.477,0,0,1,14.261,20H7.5A3.5,3.5,0,0,0,4,23.5V30a8.011,8.011,0,0,0,8,8,7.813,7.813,0,0,0,2.06-.27l.02-.008A10.917,10.917,0,0,1,13,33Zm22,0V23.5A5.477,5.477,0,0,0,33.739,20H40.5A3.5,3.5,0,0,1,44,23.5V30a8.011,8.011,0,0,1-8,8,7.813,7.813,0,0,1-2.06-.27l-.02-.008A10.917,10.917,0,0,0,35,33Z" transform="translate(295 629)" fill="#3d5b8e"/>
    <circle id="Ellipse_172" data-name="Ellipse 172" cx="6" cy="6" r="6" transform="translate(313 635)" fill="#5493ff"/>
    <path id="Rectangle_726" data-name="Rectangle 726" d="M3,0H15a3,3,0,0,1,3,3V13a9,9,0,0,1-9,9H9a9,9,0,0,1-9-9V3A3,3,0,0,1,3,0Z" transform="translate(310 649)" fill="#5493ff"/>
  </g>
</svg>
