<svg id="icons8_profile" xmlns="http://www.w3.org/2000/svg" xmlns:xlink="http://www.w3.org/1999/xlink" width="51.402" height="55.57" viewBox="0 0 51.402 55.57">
  <defs>
    <linearGradient id="linear-gradient" x1="0.048" y1="0.952" x2="0.509" y2="0.491" gradientUnits="objectBoundingBox">
      <stop offset="0" stop-color="#3079d6"/>
      <stop offset="1" stop-color="#297cd2"/>
    </linearGradient>
    <linearGradient id="linear-gradient-2" x1="0.25" y1="0.5" x2="0.881" y2="0.5" gradientUnits="objectBoundingBox">
      <stop offset="0" stop-color="#c48f0c"/>
      <stop offset="0.251" stop-color="#d19b16"/>
      <stop offset="0.619" stop-color="#dca51f"/>
      <stop offset="1" stop-color="#e0a922"/>
    </linearGradient>
    <linearGradient id="linear-gradient-3" x1="-744.509" x2="-743.883" xlink:href="#linear-gradient-2"/>
    <radialGradient id="radial-gradient" cx="0.5" cy="0.5" r="0.438" gradientUnits="objectBoundingBox">
      <stop offset="0" stop-color="#ffcf54"/>
      <stop offset="0.261" stop-color="#fdcb4d"/>
      <stop offset="0.639" stop-color="#f7c13a"/>
      <stop offset="1" stop-color="#f0b421"/>
    </radialGradient>
    <radialGradient id="radial-gradient-2" cx="0.072" cy="0.077" r="1.567" gradientUnits="objectBoundingBox">
      <stop offset="0" stop-color="#c26715"/>
      <stop offset="0.508" stop-color="#b85515"/>
      <stop offset="1" stop-color="#ad3f16"/>
    </radialGradient>
    <radialGradient id="radial-gradient-3" cx="0.297" cy="0.562" r="4.159" xlink:href="#radial-gradient-2"/>
  </defs>
  <path id="Tracé_4664" data-name="Tracé 4664" d="M50.678,20.282V55.013A2.778,2.778,0,0,1,47.9,57.792H11.779A2.778,2.778,0,0,1,9,55.013V7.778A2.778,2.778,0,0,1,11.779,5H35.4Z" transform="translate(-9 -5)" fill="#50e6ff"/>
  <path id="Tracé_4665" data-name="Tracé 4665" d="M28,5V17.5a2.778,2.778,0,0,0,2.778,2.778h12.5Z" transform="translate(-1.604 -5)" fill="url(#linear-gradient)"/>
  <path id="Tracé_4666" data-name="Tracé 4666" d="M39.893,36.607C32.22,36.607,26,40.879,26,45.538v1.339a1.39,1.39,0,0,0,1.389,1.389H52.4a1.39,1.39,0,0,0,1.389-1.389V45.538C53.785,40.88,47.565,36.607,39.893,36.607Z" transform="translate(-2.383 7.303)" fill="#e8e8e8"/>
  <path id="Tracé_4667" data-name="Tracé 4667" d="M41.336,44.069l-4.168-2.838L33,44.069V34h8.336Z" transform="translate(0.342 6.288)" fill="#fff"/>
  <path id="Tracé_4668" data-name="Tracé 4668" d="M34.75,40.487l.868.868-.868,6.078h3.473l-.868-6.078.868-.868L36.487,38.75Z" transform="translate(1.023 8.137)" fill="#d32f2f"/>
  <path id="Tracé_4669" data-name="Tracé 4669" d="M41.336,38.243c0,1.581-1.667,3.334-4.168,3.334S33,39.824,33,38.243V32.379h8.336Z" transform="translate(0.342 5.657)" fill="#d6a121"/>
  <path id="Tracé_4670" data-name="Tracé 4670" d="M41.389,30H40.341v4.168h1.188a.868.868,0,0,0,.827-.771l.274-1.774A1.355,1.355,0,0,0,41.389,30Z" transform="translate(3.199 4.731)" fill="url(#linear-gradient-2)"/>
  <path id="Tracé_4671" data-name="Tracé 4671" d="M31.258,30h1.047v4.168H31.117a.868.868,0,0,1-.827-.771l-.274-1.774A1.355,1.355,0,0,1,31.258,30Z" transform="translate(-0.826 4.731)" fill="url(#linear-gradient-3)"/>
  <path id="Tracé_4672" data-name="Tracé 4672" d="M37.946,23.333c-3.427,0-6.946.521-6.946,7.93v5.169c0,2.647,4.168,5.888,6.946,5.888s6.946-3.241,6.946-5.886V31.264C44.892,23.854,41.374,23.333,37.946,23.333Z" transform="translate(-0.436 2.136)" fill="url(#radial-gradient)"/>
  <path id="Tracé_4673" data-name="Tracé 4673" d="M38.336,22c-3.316,0-4.168,1.389-4.168,1.389C32.183,23.389,30,24.7,30,28.946a25.018,25.018,0,0,0,1.389,6.946c.474-6.121,1.456-9.151,2.977-9.151,1.1,0,2.088.815,3.969.815s3.281-.815,3.969-.815c2.6,0,2.977,8.185,2.977,9.151a26.346,26.346,0,0,0,1.389-6.946C46.671,24.667,43.727,22,38.336,22Z" transform="translate(-0.826 1.617)" fill="url(#radial-gradient-2)"/>
  <path id="Tracé_4674" data-name="Tracé 4674" d="M37.169,22C33.554,22,33,23.389,33,23.389a6.1,6.1,0,0,0,.2,1.787s.62,2.381,4.387,2.381A5.248,5.248,0,0,0,42.726,22Z" transform="translate(0.341 1.617)" fill="url(#radial-gradient-3)"/>
  <line id="Ligne_25" data-name="Ligne 25" x2="19.12" transform="translate(6.983 24.635)" fill="none" stroke="#3d5b8e" stroke-linecap="round" stroke-width="2"/>
  <line id="Ligne_26" data-name="Ligne 26" x2="19.12" transform="translate(6.983 28.411)" fill="none" stroke="#3d5b8e" stroke-linecap="round" stroke-width="2"/>
  <line id="Ligne_27" data-name="Ligne 27" x2="15.443" transform="translate(6.983 32.186)" fill="none" stroke="#3d5b8e" stroke-linecap="round" stroke-width="2"/>
  <line id="Ligne_28" data-name="Ligne 28" x2="6.618" transform="translate(6.983 43.91)" fill="none" stroke="#3d5b8e" stroke-linecap="round" stroke-width="2"/>
  <line id="Ligne_29" data-name="Ligne 29" x2="6.618" transform="translate(19.116 43.91)" fill="none" stroke="#3d5b8e" stroke-linecap="round" stroke-width="2"/>
  <circle id="Ellipse_53" data-name="Ellipse 53" cx="4.412" cy="4.412" r="4.412" transform="translate(5.879 7.354)" fill="#3d5b8e"/>
</svg>
