<svg xmlns="http://www.w3.org/2000/svg" width="22" height="22" viewBox="0 0 22 22">
  <path id="icons8_kitchen_room" d="M5.65,1a.968.968,0,0,0-.854.512L2.092,6.576A.967.967,0,0,0,2.943,8h8.113a.968.968,0,0,0,.854-1.424L9.2,1.512A.969.969,0,0,0,8.35,1ZM1.918,10A.918.918,0,0,0,1,10.918V22.084A.917.917,0,0,0,1.918,23H22.084A.917.917,0,0,0,23,22.082V10.918A.918.918,0,0,0,22.082,10Zm12,2h6.166a.917.917,0,0,1,.916.918v1.166a.917.917,0,0,1-.918.916H13.916A.917.917,0,0,1,13,14.082V12.916A.917.917,0,0,1,13.918,12Zm-8,2H8.084A.917.917,0,0,1,9,14.918v.166A.917.917,0,0,1,8.082,16H5.918A.918.918,0,0,1,5,15.082v-.166A.917.917,0,0,1,5.918,14Zm8,3h6.166a.917.917,0,0,1,.916.918v2.166a.917.917,0,0,1-.918.916H13.916A.917.917,0,0,1,13,20.082V17.916A.917.917,0,0,1,13.918,17Z" transform="translate(-1 -1)" fill="#5493ff"/>
</svg>
