<svg xmlns="http://www.w3.org/2000/svg" width="15" height="13" viewBox="0 0 15 13">
  <path id="icons8_bathtub" d="M7.818,2A1.376,1.376,0,0,0,6.455,3.368V6.789H1.682a.684.684,0,0,0,0,1.368h.08l.309,2.476A3.408,3.408,0,0,0,3.376,12.9l-.31,1.245a.682.682,0,1,0,1.322.331l.24-.965a3.359,3.359,0,0,0,.826.115h6.094a3.358,3.358,0,0,0,.826-.115l.24.965a.682.682,0,1,0,1.322-.331l-.31-1.244a3.408,3.408,0,0,0,1.305-2.272l.31-2.476h.079a.684.684,0,0,0,0-1.368h-7.5V3.368H9.864v.684a.684.684,0,0,0,0,1.368h.567a.68.68,0,0,0,.222,0h.574a.684.684,0,0,0,0-1.368V3.368A1.376,1.376,0,0,0,9.864,2Z" transform="translate(-1 -2)" fill="#7395cf"/>
</svg>
