<svg xmlns="http://www.w3.org/2000/svg" width="15" height="15" viewBox="0 0 15 15">
  <path id="icons8_balcony_1" d="M3.6,0V3.3H7.2V0ZM7.8,0V3.3h3.6V0ZM3.6,3.9V7.2H7.2V3.9Zm4.2,0V7.2h3.6V3.9ZM.9,6.6A.9.9,0,0,0,.881,8.4,6.219,6.219,0,0,1,.609,9.759,5.4,5.4,0,0,0,.3,11.344a3.238,3.238,0,0,0,.328,1.3A2.674,2.674,0,0,1,.9,13.5V15H14.1V13.5a2.573,2.573,0,0,1,.272-.834,3.261,3.261,0,0,0,.328-1.322,5.4,5.4,0,0,0-.309-1.584A6.219,6.219,0,0,1,14.119,8.4a.9.9,0,1,0-.919-.9h.6a.3.3,0,1,1,.3.3H.9a.3.3,0,1,1,.3-.3h.6A.9.9,0,0,0,.9,6.6Zm.581,1.8h.956a11.468,11.468,0,0,1-.2,1.331,8.677,8.677,0,0,0-.234,1.547,5.171,5.171,0,0,0,.244,1.284c.064.236.122.461.159.637H1.472a4.346,4.346,0,0,0-.3-.787A2.709,2.709,0,0,1,.9,11.344a5.014,5.014,0,0,1,.291-1.416A6.648,6.648,0,0,0,1.481,8.4Zm1.566,0h.994c-.025.341-.084.819-.141,1.284-.075.626-.15,1.212-.15,1.537a9.8,9.8,0,0,0,.15,1.238c.037.239.075.477.1.666.006.037,0,.04.009.075H3.028c-.043-.246-.128-.509-.206-.8a5.11,5.11,0,0,1-.216-1.125,9.183,9.183,0,0,1,.225-1.425A11.031,11.031,0,0,0,3.047,8.4Zm1.594,0h.984c-.011.275-.026.694-.056,1.247-.037.686-.075,1.318-.075,1.509s.037.691.075,1.228c.019.268.033.533.047.741,0,.041.007.037.009.075H4.631c-.007-.052-.019-.1-.028-.159-.028-.2-.066-.437-.1-.675-.075-.475-.15-.986-.15-1.144,0-.214.075-.845.15-1.472C4.559,9.262,4.617,8.777,4.641,8.4Zm1.594,0H7.2v4.8H6.225c0-.045-.006-.055-.009-.112-.014-.209-.028-.472-.047-.741-.037-.536-.075-1.133-.075-1.191,0-.08.037-.785.075-1.472C6.2,9.164,6.223,8.715,6.234,8.4ZM7.8,8.4h.966c.012.315.037.764.066,1.284.037.687.075,1.392.075,1.472,0,.057-.038.655-.075,1.191-.019.268-.033.532-.047.741,0,.057-.006.068-.009.112H7.8Zm1.575,0h.984c.023.377.082.863.141,1.35.075.627.15,1.257.15,1.472,0,.158-.075.669-.15,1.144-.038.238-.075.479-.1.675-.009.062-.021.108-.028.159H9.375c0-.037.007-.034.009-.075.014-.207.028-.472.047-.741.038-.537.075-1.045.075-1.228s-.038-.824-.075-1.509C9.4,9.094,9.386,8.675,9.375,8.4Zm1.584,0h.994a11.025,11.025,0,0,0,.216,1.453,9.183,9.183,0,0,1,.225,1.425,5.111,5.111,0,0,1-.216,1.125c-.079.288-.163.551-.206.8h-.984c0-.035,0-.037.009-.075.028-.189.066-.427.1-.666a9.8,9.8,0,0,0,.15-1.238c0-.326-.075-.912-.15-1.537C11.044,9.219,10.984,8.741,10.959,8.4Zm1.6,0h.956a6.648,6.648,0,0,0,.291,1.528,5.014,5.014,0,0,1,.291,1.416,2.66,2.66,0,0,1-.272,1.078,4.19,4.19,0,0,0-.3.778h-.937c.037-.177.095-.4.159-.637a5.171,5.171,0,0,0,.244-1.284,8.677,8.677,0,0,0-.234-1.547A11.469,11.469,0,0,1,12.563,8.4ZM1.5,13.8h12v.6H1.5Z" fill="#7395cf"/>
</svg>
