<svg xmlns="http://www.w3.org/2000/svg" width="38" height="38" viewBox="0 0 38 38">
  <path id="icons8_schedule" d="M10.4,0a10.4,10.4,0,1,0,10.4,10.4A10.425,10.425,0,0,0,10.4,0Zm0,2.714a7.69,7.69,0,1,1-7.69,7.69A7.67,7.67,0,0,1,10.4,2.714ZM10.384,4.5A1.357,1.357,0,0,0,9.048,5.881V10.4a1.357,1.357,0,0,0,.4.96l1.81,1.81a1.357,1.357,0,1,0,1.919-1.919L11.762,9.843V5.881A1.357,1.357,0,0,0,10.384,4.5Zm11.168.924A12.15,12.15,0,0,1,22.619,10.4a12.258,12.258,0,0,1-.217,2.262H38V11.31a5.888,5.888,0,0,0-5.881-5.881Zm0,9.952A12.185,12.185,0,0,1,5.429,21.552V32.119A5.888,5.888,0,0,0,11.31,38h20.81A5.888,5.888,0,0,0,38,32.119V15.381Zm.163,4.524a2.262,2.262,0,1,1-2.262,2.262A2.262,2.262,0,0,1,21.714,19.9Zm7.69,0a2.262,2.262,0,1,1-2.262,2.262A2.262,2.262,0,0,1,29.4,19.9ZM14.024,28.048a2.262,2.262,0,1,1-2.262,2.262A2.262,2.262,0,0,1,14.024,28.048Zm7.69,0a2.262,2.262,0,1,1-2.262,2.262A2.262,2.262,0,0,1,21.714,28.048Z" fill="#7db1ff"/>
</svg>
