<svg xmlns="http://www.w3.org/2000/svg" width="14" height="26" viewBox="0 0 14 26">
  <path id="icons8_manager" d="M20,11.667a4.4,4.4,0,0,1-4.455-4.333,4.456,4.456,0,0,1,8.909,0A4.4,4.4,0,0,1,20,11.667ZM24.623,12.9H21.907a.6.6,0,0,1-.064.277l-.955,1.857a.615.615,0,0,1-.14.173l1.148,5.3a.608.608,0,0,1-.125.514L20.5,22.578a.649.649,0,0,1-.995,0L18.23,21.03a.6.6,0,0,1-.125-.514l1.148-5.3a.615.615,0,0,1-.14-.173l-.955-1.857a.6.6,0,0,1-.064-.277H15.377A2.348,2.348,0,0,0,13,15.217V22.19a7,7,0,0,0,14,0V15.217A2.348,2.348,0,0,0,24.623,12.9Z" transform="translate(-13 -3)" fill="#3d5b8e"/>
</svg>
