<svg id="icons8_machine_wash_warm" xmlns="http://www.w3.org/2000/svg" xmlns:xlink="http://www.w3.org/1999/xlink" width="48" height="48" viewBox="0 0 48 48">
  <defs>
    <linearGradient id="linear-gradient" y1="0.5" x2="1" y2="0.5" gradientUnits="objectBoundingBox">
      <stop offset="0" stop-color="#1d59b3"/>
      <stop offset="1" stop-color="#195bbc"/>
    </linearGradient>
    <radialGradient id="radial-gradient" cx="0.5" cy="0.5" r="0.5" gradientUnits="objectBoundingBox">
      <stop offset="0"/>
      <stop offset="1" stop-opacity="0"/>
    </radialGradient>
    <linearGradient id="linear-gradient-4" y1="0.5" x2="1" y2="0.5" gradientUnits="objectBoundingBox">
      <stop offset="0" stop-color="#42a3f2"/>
      <stop offset="1" stop-color="#42a4eb"/>
    </linearGradient>
  </defs>
  <path id="Tracé_6644" data-name="Tracé 6644" d="M42.016,14.18C37.812,14.18,34.4,11,34.4,11S31,14.18,26.794,14.18,19.183,11,19.183,11s-3.408,3.18-7.611,3.18a12.342,12.342,0,0,1-7.3-2.911l5.4,44.247h34.25l5.4-44.247A12.343,12.343,0,0,1,42.016,14.18Z" transform="translate(-2.795 -8.678)" fill="url(#linear-gradient)"/>
  <path id="Tracé_6645" data-name="Tracé 6645" d="M44,9.643,44.109,9H44Z" transform="translate(2.838 -9)" fill="url(#linear-gradient)"/>
  <path id="Tracé_6646" data-name="Tracé 6646" d="M4.015,9H3.906l.109.643Z" transform="translate(-2.854 -9)" fill="url(#linear-gradient)"/>
  <circle id="Ellipse_141" data-name="Ellipse 141" cx="3.5" cy="3.5" r="3.5" transform="translate(27.481 19.793)" opacity="0.3" fill="url(#radial-gradient)"/>
  <circle id="Ellipse_142" data-name="Ellipse 142" cx="2.5" cy="2.5" r="2.5" transform="translate(28.487 20.807)" fill="#fff"/>
  <circle id="Ellipse_143" data-name="Ellipse 143" cx="3.5" cy="3.5" r="3.5" transform="translate(13.741 19.793)" opacity="0.3" fill="url(#radial-gradient)"/>
  <circle id="Ellipse_144" data-name="Ellipse 144" cx="2.5" cy="2.5" r="2.5" transform="translate(14.735 20.807)" fill="#fff"/>
  <path id="Tracé_6647" data-name="Tracé 6647" d="M50.485,9H49.26a.658.658,0,0,0-.565.65L43.739,51.3c-.178,1.5-1.135,2.6-2.256,2.6H12.516c-1.122,0-2.078-1.1-2.256-2.6L5.3,9.65C5.258,9.276,5.019,9,4.739,9H3.514c-.317,0-.558.384-.507.808L8,51.793c.357,3,2.269,5.207,4.513,5.207H41.483c2.243,0,4.155-2.206,4.513-5.207l5-41.985C51.043,9.384,50.8,9,50.485,9Z" transform="translate(-3 -9)" fill="url(#linear-gradient-4)"/>
</svg>
