<svg id="icons8_profile" xmlns="http://www.w3.org/2000/svg" xmlns:xlink="http://www.w3.org/1999/xlink" width="48" height="48" viewBox="0 0 48 48">
  <defs>
    <linearGradient id="linear-gradient" x1="0.048" y1="0.952" x2="0.509" y2="0.491" gradientUnits="objectBoundingBox">
      <stop offset="0" stop-color="#3079d6"/>
      <stop offset="1" stop-color="#297cd2"/>
    </linearGradient>
    <linearGradient id="linear-gradient-2" x1="0.25" y1="0.5" x2="0.881" y2="0.5" gradientUnits="objectBoundingBox">
      <stop offset="0" stop-color="#c48f0c"/>
      <stop offset="0.251" stop-color="#d19b16"/>
      <stop offset="0.619" stop-color="#dca51f"/>
      <stop offset="1" stop-color="#e0a922"/>
    </linearGradient>
    <linearGradient id="linear-gradient-3" x1="-744.509" x2="-743.883" xlink:href="#linear-gradient-2"/>
    <radialGradient id="radial-gradient" cx="0.5" cy="0.5" r="0.438" gradientUnits="objectBoundingBox">
      <stop offset="0" stop-color="#ffcf54"/>
      <stop offset="0.261" stop-color="#fdcb4d"/>
      <stop offset="0.639" stop-color="#f7c13a"/>
      <stop offset="1" stop-color="#f0b421"/>
    </radialGradient>
    <radialGradient id="radial-gradient-2" cx="0.072" cy="0.077" r="1.567" gradientUnits="objectBoundingBox">
      <stop offset="0" stop-color="#c26715"/>
      <stop offset="0.508" stop-color="#b85515"/>
      <stop offset="1" stop-color="#ad3f16"/>
    </radialGradient>
    <radialGradient id="radial-gradient-3" cx="0.297" cy="0.562" r="4.159" xlink:href="#radial-gradient-2"/>
  </defs>
  <path id="Tracé_4664" data-name="Tracé 4664" d="M48.682,18.444V49a2.55,2.55,0,0,1-2.645,2.444H11.645A2.55,2.55,0,0,1,9,49V7.444A2.55,2.55,0,0,1,11.645,5H34.132Z" transform="translate(-9 -5)" fill="#50e6ff"/>
  <path id="Tracé_4665" data-name="Tracé 4665" d="M28,5V16a2.55,2.55,0,0,0,2.645,2.444h11.9Z" transform="translate(-2.868 -5)" fill="url(#linear-gradient)"/>
  <path id="Tracé_4666" data-name="Tracé 4666" d="M39.227,36.607C31.922,36.607,26,40.365,26,44.465v1.178a1.276,1.276,0,0,0,1.323,1.222H51.132a1.276,1.276,0,0,0,1.323-1.222V44.465C52.455,40.367,46.533,36.607,39.227,36.607Z" transform="translate(-4.455 1.135)" fill="#e8e8e8"/>
  <path id="Tracé_4667" data-name="Tracé 4667" d="M40.936,42.859l-3.968-2.5L33,42.859V34h7.936Z" transform="translate(-2.196 0.556)" fill="#fff"/>
  <path id="Tracé_4668" data-name="Tracé 4668" d="M34.75,40.278l.827.764-.827,5.347h3.307l-.827-5.347.827-.764L36.4,38.75Z" transform="translate(-1.631 1.611)" fill="#d32f2f"/>
  <path id="Tracé_4669" data-name="Tracé 4669" d="M40.936,37.538c0,1.391-1.587,2.933-3.968,2.933S33,38.929,33,37.538V32.379h7.936Z" transform="translate(-2.196 0.195)" fill="#d6a121"/>
  <path id="Tracé_4670" data-name="Tracé 4670" d="M41.338,30h-1v3.667h1.131a.8.8,0,0,0,.787-.678l.261-1.561A1.216,1.216,0,0,0,41.338,30Z" transform="translate(0.174 -0.333)" fill="url(#linear-gradient-2)"/>
  <path id="Tracé_4671" data-name="Tracé 4671" d="M31.2,30h1v3.667H31.064a.8.8,0,0,1-.787-.678l-.261-1.561A1.216,1.216,0,0,1,31.2,30Z" transform="translate(-3.164 -0.333)" fill="url(#linear-gradient-3)"/>
  <path id="Tracé_4672" data-name="Tracé 4672" d="M37.614,23.333c-3.263,0-6.614.458-6.614,6.976v4.548c0,2.328,3.968,5.18,6.614,5.18s6.614-2.851,6.614-5.179V30.311C44.227,23.791,40.877,23.333,37.614,23.333Z" transform="translate(-2.841 -1.815)" fill="url(#radial-gradient)"/>
  <path id="Tracé_4673" data-name="Tracé 4673" d="M37.936,22c-3.157,0-3.968,1.222-3.968,1.222-1.89,0-3.968,1.155-3.968,4.889a20.537,20.537,0,0,0,1.323,6.111c.451-5.385,1.386-8.051,2.835-8.051,1.048,0,1.988.717,3.779.717s3.124-.717,3.779-.717c2.48,0,2.835,7.2,2.835,8.051a21.625,21.625,0,0,0,1.323-6.111C45.873,24.347,43.07,22,37.936,22Z" transform="translate(-3.164 -2.111)" fill="url(#radial-gradient-2)"/>
  <path id="Tracé_4674" data-name="Tracé 4674" d="M36.969,22C33.527,22,33,23.222,33,23.222a4.985,4.985,0,0,0,.189,1.572s.59,2.095,4.177,2.095A4.806,4.806,0,0,0,42.26,22Z" transform="translate(-2.196 -2.111)" fill="url(#radial-gradient-3)"/>
  <line id="Ligne_25" data-name="Ligne 25" x2="18.205" transform="translate(6.648 21.673)" fill="none" stroke="#3d5b8e" stroke-linecap="round" stroke-width="2"/>
  <line id="Ligne_26" data-name="Ligne 26" x2="18.205" transform="translate(6.648 24.995)" fill="none" stroke="#3d5b8e" stroke-linecap="round" stroke-width="2"/>
  <line id="Ligne_27" data-name="Ligne 27" x2="14.704" transform="translate(6.648 28.316)" fill="none" stroke="#3d5b8e" stroke-linecap="round" stroke-width="2"/>
  <line id="Ligne_28" data-name="Ligne 28" x2="6.302" transform="translate(6.648 38.631)" fill="none" stroke="#3d5b8e" stroke-linecap="round" stroke-width="2"/>
  <line id="Ligne_29" data-name="Ligne 29" x2="6.302" transform="translate(18.201 38.631)" fill="none" stroke="#3d5b8e" stroke-linecap="round" stroke-width="2"/>
  <ellipse id="Ellipse_53" data-name="Ellipse 53" cx="4.201" cy="3.882" rx="4.201" ry="3.882" transform="translate(5.598 6.47)" fill="#3d5b8e"/>
</svg>
