<svg xmlns="http://www.w3.org/2000/svg" width="23.999" height="18" viewBox="0 0 23.999 18">
  <path id="icons8_sofa_1" d="M7,4A3.1,3.1,0,0,0,4,7.176V8.841a4.469,4.469,0,0,1,1.738,2.2l.941,2.488H17.318l.994-2.628A4.159,4.159,0,0,1,20,8.829V7.176A3.1,3.1,0,0,0,17,4Zm15.027,6.353a2.006,2.006,0,0,0-1.859,1.334l-1.5,3.96H5.322l-1.441-3.82A2.168,2.168,0,0,0,2.16,10.363a1.89,1.89,0,0,0-1.143.244A2.283,2.283,0,0,0,.16,13.387l1.7,4.5a3.008,3.008,0,0,0,2.785,2H5v1.059A1.031,1.031,0,0,0,6,22a1.031,1.031,0,0,0,1-1.059V19.882H17v1.059a1,1,0,1,0,2,0V19.882h.348a3.006,3.006,0,0,0,2.785-2l1.709-4.523a2.268,2.268,0,0,0-.777-2.7A1.911,1.911,0,0,0,22.027,10.353Z" transform="translate(0 -4)" fill="#5493ff"/>
</svg>
