<svg xmlns="http://www.w3.org/2000/svg" width="218.897" height="661.321" viewBox="0 0 222.874 661.321">
  <g id="Homme_Likdom" data-name="Homme Likdom" transform="translate(-0.003 0.016)" opacity="1">
    <path id="Tracé_5026" data-name="Tracé 5026" d="M86.174,371.53c.22.445-29.013,47.164-35.957,132.177l-9,104.74" transform="translate(-19.631 -176.968)" fill="none" stroke="#f0a38b" stroke-width="20"/>
    <path id="Tracé_5027" data-name="Tracé 5027" d="M69.326,810.72S72,791.176,57.993,789.772s-.686,10.107-.686,10.107h0s4.666,16.235,8.7,16.758C67.687,816.858,69.326,810.72,69.326,810.72Z" transform="translate(-24.569 -376.12)" fill="#c8deff"/>
    <path id="Tracé_5028" data-name="Tracé 5028" d="M11.378,726.92l-.958,37.356,27.913,3.483,9.453-36.3Z" transform="translate(-4.961 -346.24)" fill="#c8deff"/>
    <path id="Tracé_5029" data-name="Tracé 5029" d="M33.372,797.159s2.88,15.433.827,29.662-24.164,5.509-28.484.765-10.212-20.833-.257-33.91S33.372,797.159,33.372,797.159Z" transform="translate(0 -375.641)" fill="#c8deff"/>
    <path id="Tracé_5030" data-name="Tracé 5030" d="M41.22,403.114C43,333.058,97.2,311.55,97.2,311.55l11,50.773c-24.4,7.981-29.264,40.791-29.264,40.791Z" transform="translate(-19.631 -148.399)" fill="#fff"/>
    <path id="Tracé_5031" data-name="Tracé 5031" d="M97.187,1233.98l-33.407,7.1v7.981h56.753V1233.98Z" transform="translate(-30.377 -587.753)" fill="#3d5b8e"/>
    <path id="Tracé_5032" data-name="Tracé 5032" d="M224.534,341.957c-3.4,55.376-20.545,191.072-20.545,191.072-39.958,0-111.14-99.178-111.14-155.015s29.406-63.844,43.3-68.573h72.4C219.795,313.4,224.534,325.57,224.534,341.957Z" transform="translate(-44.223 -147.394)" fill="#fff"/>
    <path id="Tracé_5033" data-name="Tracé 5033" d="M134.551,309.44c-19.063,10.149-29.411,34.287-29.411,56.753h14.339c1.838-31.946,4.19-48.474,26.374-56.753Z" transform="translate(-50.077 -147.394)" fill="#d8dade"/>
    <path id="Tracé_5034" data-name="Tracé 5034" d="M265.461,309.44c-19.063,10.149-29.411,34.287-29.411,56.753h14.339c1.838-31.946,4.19-48.474,26.374-56.753Z" transform="translate(-112.429 -147.394)" fill="#d8dade"/>
    <path id="Tracé_5035" data-name="Tracé 5035" d="M92.85,790.88,101.721,899.5l9.311,122.273s14.182,10.05,23.493,0l10.642-72.71L141.182,899.5l16.4-108.621Z" transform="translate(-44.223 -376.704)" fill="#27425f"/>
    <path id="Tracé_5036" data-name="Tracé 5036" d="M149.816,793.09,144.5,901.266l7.385,125.783c2.446-.309,7.242-3.064,7.242-3.064l10.642-72.716-3.985-49.558,16.4-108.621Z" transform="translate(-68.824 -377.757)" fill="#20345d"/>
    <path id="Tracé_5037" data-name="Tracé 5037" d="M213.893,614.344H92.85V417.81h94.444l-11.38,83.373,37.979,46.112Z" transform="translate(-44.223 -199.011)" fill="#27425f"/>
    <path id="Tracé_5038" data-name="Tracé 5038" d="M262.136,1233.98H241.811l-8.421,7.1v7.981h37.539v-7.981Z" transform="translate(-111.162 -587.753)" fill="#3d5b8e"/>
    <path id="Tracé_5039" data-name="Tracé 5039" d="M265.115,793.09l-3.1,108.94-15.088,123.1s-11.081,9.578-20.4-.526l-10.642-73.085,3.991-49.8L200.37,793.09Z" transform="translate(-95.435 -378.914)" fill="#27425f"/>
    <path id="Tracé_5040" data-name="Tracé 5040" d="M239.59,1248.27h31.04" transform="translate(-114.115 -594.559)" fill="#d8dade"/>
    <path id="Tracé_5041" data-name="Tracé 5041" d="M122.246,309.44c-19.073,10.149-29.416,34.287-29.416,56.753h14.334c2.22-35.915,12.124-48.474,34.292-56.753Z" transform="translate(-44.213 -147.394)" fill="#27425f"/>
    <path id="Tracé_5042" data-name="Tracé 5042" d="M250.385,309.44C223.645,317.72,221,343.727,221,366.193h14.941c-.885-33.4,9.243-46.8,33.679-56.753Z" transform="translate(-105.261 -147.394)" fill="#27425f"/>
    <path id="Tracé_5043" data-name="Tracé 5043" d="M101.615,505c2.142,0,3.875,30.589,3.875,68.327s-1.733,68.358-3.875,68.358-3.875-30.594-3.875-68.327S99.473,505,101.615,505Z" transform="translate(-46.552 -240.539)" fill="#2d4a6a"/>
    <path id="Tracé_5044" data-name="Tracé 5044" d="M130.649,309.44c2.142,0-24.666,15.145-24.541,40.791l-4.273,47.589c-4.509,0-3.865,3.823-4.1-45.389C97.614,326.785,128.507,309.451,130.649,309.44Z" transform="translate(-46.552 -147.394)" fill="#2d4a6a"/>
    <path id="Tracé_5045" data-name="Tracé 5045" d="M259.33,309.44c2.147,0-24.661,15.145-24.541,40.791l-4.273,32.93c-4.509,0-4.1-9.872-4.1-30.731C226.421,326.785,257.188,309.451,259.33,309.44Z" transform="translate(-107.838 -147.394)" fill="#2d4a6a"/>
    <path id="Tracé_5046" data-name="Tracé 5046" d="M174.92,479.568c0,20.6-13.7,37.308-30.6,37.308s-30.6-16.706-30.6-37.308,13.705-15.9,30.6-15.9S174.92,458.961,174.92,479.568Z" transform="translate(-54.163 -220.633)" fill="#3d5b8e"/>
    <path id="Tracé_5047" data-name="Tracé 5047" d="M259.885,371.53c.225.445,37.706,48.008,30.741,133.02L167.07,515.794" transform="translate(-79.574 -176.968)" fill="none" stroke="#f0a38b" stroke-width="20"/>
    <path id="Tracé_5052" data-name="Tracé 5052" d="M364.671,403.114C362.9,333.058,308.7,311.55,308.7,311.55l-11,50.773c24.4,7.981,29.264,40.791,29.264,40.791Z" transform="translate(-141.793 -148.399)" fill="#fff"/>
    <path id="Tracé_5053" data-name="Tracé 5053" d="M216.766,311.55c-9.95,8.149-39.8,30.526-45.5,23.54s-3.142-15.392,6.808-23.54Z" transform="translate(-80.147 -148.399)" fill="#f0a38b"/>
    <path id="Tracé_5054" data-name="Tracé 5054" d="M132.965,176.235c0,7.143-4.823,12.935-10.778,12.935s-10.778-5.792-10.778-12.935,4.823-12.935,10.778-12.935S132.965,169.066,132.965,176.235Z" transform="translate(-53.063 -77.788)" fill="#f0a38b"/>
    <path id="Tracé_5055" data-name="Tracé 5055" d="M314.771,176.235c0,7.143-4.829,12.935-10.783,12.935s-10.778-5.792-10.778-12.935,4.829-12.935,10.778-12.935S314.771,169.066,314.771,176.235Z" transform="translate(-139.654 -77.788)" fill="#f0a38b"/>
    <path id="Tracé_5056" data-name="Tracé 5056" d="M219.57,295.928l-22.98-1.508h0c.052-1.613.031-15.271,0-27.306l23.043-.094C219.717,294.111,219.612,295.384,219.57,295.928Z" transform="translate(-93.634 -127.189)" fill="#f0a38b"/>
    <path id="Tracé_5057" data-name="Tracé 5057" d="M216.016,287.905s-20.618,5.1-19.534-20.791l23.043-.094S220.672,287.905,216.016,287.905Z" transform="translate(-93.563 -127.189)" fill="#e8846c"/>
    <g id="Groupe_46" data-name="Groupe 46" transform="matrix(-0.996, 0.087, -0.087, -0.996, 263.79, 514.517)">
      <path id="Tracé_3102" data-name="Tracé 3102" d="M928.625,1024.666c1.787,1.232,5.791-1.416,12.756-11.118-3.975,11.263-3.838,16.061-1.821,16.82s5.267-2.8,9.625-13.916c-1.075,11.894.217,16.521,2.38,16.752s4.414-4,5.907-15.856c1.881,11.792,4.265,15.954,6.427,15.647s3.292-4.968,1.812-16.82c4.734,10.964,8.082,14.411,10.09,13.583s1.966-5.625-2.38-16.752c7.284,9.463,11.374,11.979,13.118,10.662,1.855-1.373.358-6.542-7.826-17.562s-20.4-17.34-22.253-15.959c-1.9-1.314-12.794,5.386-20.6,16.675S926.727,1023.352,928.625,1024.666Z" transform="translate(-786.665 -682.524)" fill="#f4d9a6"/>
      <path id="Tracé_3103" data-name="Tracé 3103" d="M946.893,1015.191c1.279.853,4.068-.994,8.956-7.8-2.789,7.907-2.7,11.276-1.279,11.809s4.086-2.495,6.755-9.766c5.327-12.794,22.782-8.218,22.782-8.218-6.03-5.719-16.061-10.845-17.366-9.877-1.335-.926-9.289,3.412-14.773,11.348S945.562,1014.27,946.893,1015.191Z" transform="translate(-797.273 -683.243)" fill="#c3ad84"/>
      <path id="Tracé_3104" data-name="Tracé 3104" d="M954.29,1062.67c1.279.482,3.442-1.552,5.791-6.453-1.876,3.267-3.544,4.606-4.614,4.209-1.655-.614.3-11.387.3-11.387C952.55,1058.183,952.644,1062.073,954.29,1062.67Z" transform="translate(-801.182 -716.409)" fill="#c3ad84"/>
      <path id="Tracé_3105" data-name="Tracé 3105" d="M930.969,1051.81c1.169.729,3.685-.832,6.964-5.165-2.495,2.827-4.4,3.808-5.365,3.2-1.493-.934,2.559-11.089,2.559-11.089C930.154,1047.051,929.476,1050.88,930.969,1051.81Z" transform="translate(-788.049 -710.513)" fill="#c3ad84"/>
      <path id="Tracé_3106" data-name="Tracé 3106" d="M1030.933,1061.224c-1.28.478-3.442-1.556-5.783-6.457,1.877,3.271,3.544,4.606,4.614,4.209,1.651-.614-.3-11.387-.3-11.387C1032.681,1056.721,1032.583,1060.61,1030.933,1061.224Z" transform="translate(-842.466 -715.578)" fill="#faefd8"/>
      <path id="Tracé_3107" data-name="Tracé 3107" d="M1053.244,1050.324c-1.164.729-3.685-.853-6.964-5.165,2.5,2.828,4.4,3.8,5.365,3.2,1.493-.93-2.559-11.088-2.559-11.088C1054.05,1045.561,1054.737,1049.39,1053.244,1050.324Z" transform="translate(-854.585 -709.659)" fill="#faefd8"/>
      <path id="Tracé_3108" data-name="Tracé 3108" d="M1021.123,1034.274c-1.279.478-3.437-1.557-5.783-6.457,1.881,3.271,3.544,4.606,4.615,4.209,1.651-.614-.3-11.387-.3-11.387C1022.872,1029.771,1022.778,1033.66,1021.123,1034.274Z" transform="translate(-836.84 -700.121)" fill="#faefd8"/>
      <path id="Tracé_3109" data-name="Tracé 3109" d="M932.005,974.782c1.706,1.177,5.51-1.348,12.133-10.581-3.783,10.717-3.663,15.285-1.706,16.01s5.011-2.666,9.152-13.242c-1.024,11.318.209,15.715,2.269,15.937s4.2-3.813,5.612-15.084c1.791,11.216,4.068,15.174,6.12,14.888s3.126-4.73,1.706-16.006c4.5,10.436,7.676,13.711,9.6,12.926s1.872-5.356-2.265-15.937c6.93,9,10.82,11.4,12.483,10.163,1.766-1.314.337-6.226-7.455-16.713s-19.4-16.492-21.166-15.182c-1.8-1.25-12.167,5.118-19.6,15.869S930.18,973.533,932.005,974.782Z" transform="translate(-788.621 -654.894)" fill="#e35163"/>
      <path id="Tracé_3110" data-name="Tracé 3110" d="M949.354,965.773c1.194.823,3.868-.947,8.53-7.425-2.653,7.523-2.559,10.73-1.211,11.233s3.89-2.371,6.427-9.293c5.071-12.176,21.673-7.813,21.673-7.813-5.74-5.446-15.28-10.32-16.522-9.382-1.279-.874-8.841,3.262-14.073,10.8S948.087,964.895,949.354,965.773Z" transform="translate(-798.698 -655.579)" fill="#c94757"/>
      <path id="Tracé_3111" data-name="Tracé 3111" d="M956.4,1010.955c1.224.461,3.271-1.476,5.5-6.137-1.787,3.109-3.369,4.384-4.393,4-1.565-.584.29-10.832.29-10.832C954.732,1006.673,954.822,1010.362,956.4,1010.955Z" transform="translate(-802.417 -687.13)" fill="#c94757"/>
      <path id="Tracé_3112" data-name="Tracé 3112" d="M934.214,1000.578c1.109.691,3.5-.793,6.623-4.917-2.375,2.691-4.184,3.621-5.118,3.045-1.416-.887,2.456-10.555,2.456-10.555C933.446,996.044,932.79,999.69,934.214,1000.578Z" transform="translate(-789.93 -681.487)" fill="#c94757"/>
      <path id="Tracé_3113" data-name="Tracé 3113" d="M1029.306,1009.559c-1.224.456-3.275-1.48-5.506-6.145,1.787,3.113,3.373,4.384,4.388,4.009,1.574-.584-.281-10.832-.281-10.832C1030.969,1005.265,1030.875,1008.966,1029.306,1009.559Z" transform="translate(-841.692 -686.327)" fill="#ea7d80"/>
      <path id="Tracé_3114" data-name="Tracé 3114" d="M1050.533,999.157c-1.109.691-3.5-.793-6.623-4.917,2.375,2.691,4.184,3.625,5.118,3.049,1.42-.887-2.452-10.56-2.452-10.56C1051.3,994.628,1051.953,998.27,1050.533,999.157Z" transform="translate(-853.226 -680.672)" fill="#ea7d80"/>
      <path id="Tracé_3115" data-name="Tracé 3115" d="M1019.982,983.9c-1.224.456-3.271-1.476-5.5-6.141,1.783,3.109,3.369,4.384,4.388,4.009,1.569-.589-.286-10.837-.286-10.837C1021.645,979.613,1021.551,983.328,1019.982,983.9Z" transform="translate(-836.347 -671.611)" fill="#ea7d80"/>
      <path id="Tracé_3116" data-name="Tracé 3116" d="M943.973,943.868c1.386.964,4.5-1.1,9.911-8.64-3.088,8.751-2.985,12.483-1.411,13.071s4.09-2.171,7.48-10.811c-.853,9.241.166,12.837,1.847,13.016s3.412-3.113,4.584-12.321c1.467,9.165,3.327,12.4,5,12.159s2.559-3.864,1.416-13.067c3.672,8.529,6.273,11.195,7.83,10.551s1.535-4.371-1.842-13.012c5.659,7.352,8.836,9.305,10.193,8.3,1.441-1.071.277-5.084-6.086-13.647s-15.848-13.472-17.289-12.4c-1.476-1.024-9.941,4.188-16.01,12.965S942.493,942.849,943.973,943.868Z" transform="translate(-795.564 -640.634)" fill="#f4d9a6"/>
      <path id="Tracé_3117" data-name="Tracé 3117" d="M958.178,936.463c.977.678,3.16-.768,6.956-6.064-2.166,6.145-2.1,8.764-.99,9.178s3.177-1.936,5.246-7.591c4.145-9.945,17.707-6.4,17.707-6.4-4.691-4.444-12.483-8.427-13.494-7.677-1.036-.721-7.22,2.661-11.476,8.819S957.146,935.746,958.178,936.463Z" transform="translate(-803.817 -641.148)" fill="#c3ad84"/>
      <path id="Tracé_3118" data-name="Tracé 3118" d="M963.922,973.414c1,.371,2.674-1.211,4.495-5.02-1.458,2.559-2.755,3.582-3.582,3.271-1.279-.478.23-8.845.23-8.845C962.566,969.908,962.638,972.932,963.922,973.414Z" transform="translate(-806.848 -666.959)" fill="#c3ad84"/>
      <path id="Tracé_3119" data-name="Tracé 3119" d="M945.8,964.93c.909.567,2.862-.648,5.412-4.017-1.94,2.2-3.412,2.96-4.171,2.49-1.16-.725,2-8.623,2-8.623C945.173,961.228,944.64,964.205,945.8,964.93Z" transform="translate(-796.646 -662.348)" fill="#c3ad84"/>
      <path id="Tracé_3120" data-name="Tracé 3120" d="M1023.475,972.254c-1,.371-2.674-1.207-4.495-5.015,1.458,2.559,2.755,3.578,3.587,3.271,1.279-.478-.235-8.849-.235-8.849C1024.836,968.752,1024.759,971.776,1023.475,972.254Z" transform="translate(-838.928 -666.294)" fill="#faefd8"/>
      <path id="Tracé_3121" data-name="Tracé 3121" d="M1040.818,963.774c-.9.563-2.857-.653-5.408-4.017,1.936,2.2,3.412,2.956,4.167,2.486,1.16-.725-2-8.623-2-8.623C1041.449,960.073,1041.978,963.045,1040.818,963.774Z" transform="translate(-848.351 -661.683)" fill="#faefd8"/>
      <path id="Tracé_3122" data-name="Tracé 3122" d="M1015.859,951.313c-1,.371-2.674-1.207-4.5-5.02,1.458,2.559,2.755,3.582,3.587,3.271,1.28-.478-.234-8.845-.234-8.845C1017.215,947.812,1017.139,950.836,1015.859,951.313Z" transform="translate(-834.558 -654.284)" fill="#faefd8"/>
      <path id="Tracé_3123" data-name="Tracé 3123" d="M943.971,904.493c1.373.968,4.5-1.1,9.9-8.64-3.088,8.751-2.985,12.483-1.412,13.067s4.09-2.171,7.48-10.811c-.853,9.241.166,12.837,1.847,13.016s3.412-3.113,4.585-12.321c1.467,9.165,3.326,12.4,5,12.159s2.559-3.838,1.416-13.067c3.672,8.529,6.273,11.2,7.83,10.555s1.535-4.376-1.842-13.02c5.659,7.357,8.836,9.31,10.193,8.307,1.441-1.074.277-5.088-6.086-13.647s-15.848-13.472-17.289-12.4c-1.476-1.023-9.941,4.184-16.01,12.956S942.491,903.469,943.971,904.493Z" transform="translate(-795.563 -618.053)" fill="#e35163"/>
      <path id="Tracé_3124" data-name="Tracé 3124" d="M958.177,897.077c.977.678,3.16-.772,6.956-6.06-2.166,6.141-2.1,8.76-.989,9.174s3.177-1.936,5.246-7.591c4.145-9.945,17.707-6.4,17.707-6.4-4.691-4.448-12.483-8.431-13.494-7.677-1.036-.7-7.212,2.678-11.476,8.832S957.145,896.365,958.177,897.077Z" transform="translate(-803.815 -618.561)" fill="#c94757"/>
      <path id="Tracé_3125" data-name="Tracé 3125" d="M963.922,934.019c1,.375,2.674-1.2,4.495-5.015-1.458,2.559-2.755,3.586-3.582,3.275-1.279-.478.23-8.849.23-8.849C962.566,930.518,962.638,933.546,963.922,934.019Z" transform="translate(-806.848 -644.368)" fill="#c94757"/>
      <path id="Tracé_3126" data-name="Tracé 3126" d="M945.8,925.54c.909.567,2.862-.644,5.412-4.013-1.94,2.2-3.412,2.956-4.171,2.486-1.16-.725,2-8.623,2-8.623C945.173,921.843,944.64,924.819,945.8,925.54Z" transform="translate(-796.646 -639.757)" fill="#c94757"/>
      <path id="Tracé_3127" data-name="Tracé 3127" d="M1023.475,932.864c-1,.371-2.674-1.207-4.495-5.015,1.458,2.559,2.755,3.582,3.587,3.271,1.279-.478-.235-8.849-.235-8.849C1024.836,929.362,1024.759,932.39,1023.475,932.864Z" transform="translate(-838.928 -643.703)" fill="#ea7d80"/>
      <path id="Tracé_3128" data-name="Tracé 3128" d="M1040.818,924.356c-.9.567-2.857-.644-5.408-4.013,1.936,2.2,3.412,2.96,4.167,2.491,1.16-.725-2-8.623-2-8.623C1041.449,920.667,1041.978,923.648,1040.818,924.356Z" transform="translate(-848.351 -639.08)" fill="#ea7d80"/>
      <path id="Tracé_3130" data-name="Tracé 3130" d="M943.98,872.224c1.386.964,4.5-1.1,9.911-8.636-3.088,8.751-2.985,12.483-1.412,13.071s4.09-2.175,7.48-10.815c-.853,9.242.166,12.837,1.847,13.02s3.412-3.118,4.585-12.325c1.467,9.165,3.326,12.4,5,12.163s2.559-3.864,1.416-13.076c3.672,8.529,6.273,11.2,7.83,10.559s1.535-4.376-1.842-13.016c5.659,7.352,8.836,9.306,10.193,8.3,1.441-1.07.277-5.084-6.086-13.647s-15.848-13.468-17.289-12.4c-1.493-1.028-9.941,4.179-15.993,12.956S942.5,871.2,943.98,872.224Z" transform="translate(-795.572 -599.546)" fill="#f4d9a6"/>
      <path id="Tracé_3131" data-name="Tracé 3131" d="M958.178,864.817c.977.67,3.16-.772,6.956-6.064-2.166,6.141-2.1,8.76-.99,9.173s3.177-1.936,5.246-7.591c4.145-9.941,17.707-6.4,17.707-6.4-4.691-4.448-12.483-8.431-13.494-7.677-1.036-.721-7.22,2.661-11.476,8.815S957.146,864.1,958.178,864.817Z" transform="translate(-803.817 -600.055)" fill="#c3ad84"/>
      <path id="Tracé_3132" data-name="Tracé 3132" d="M963.922,901.748c1,.371,2.674-1.207,4.495-5.015-1.458,2.559-2.755,3.578-3.582,3.271-1.279-.478.23-8.854.23-8.854C962.566,898.251,962.638,901.275,963.922,901.748Z" transform="translate(-806.848 -625.855)" fill="#c3ad84"/>
      <path id="Tracé_3133" data-name="Tracé 3133" d="M945.8,893.286c.909.567,2.862-.648,5.412-4.013-1.94,2.2-3.412,2.955-4.171,2.486-1.16-.725,2-8.619,2-8.619C945.173,889.584,944.64,892.561,945.8,893.286Z" transform="translate(-796.646 -621.261)" fill="#c3ad84"/>
      <path id="Tracé_3134" data-name="Tracé 3134" d="M1023.475,900.6c-1,.376-2.674-1.207-4.495-5.015,1.458,2.559,2.755,3.582,3.587,3.271,1.279-.478-.235-8.849-.235-8.849C1024.836,897.1,1024.759,900.126,1023.475,900.6Z" transform="translate(-838.928 -625.201)" fill="#faefd8"/>
      <path id="Tracé_3135" data-name="Tracé 3135" d="M1040.818,892.13c-.9.563-2.857-.648-5.408-4.013,1.936,2.2,3.412,2.955,4.167,2.482,1.16-.721-2-8.619-2-8.619C1041.449,888.428,1041.978,891.405,1040.818,892.13Z" transform="translate(-848.351 -620.595)" fill="#faefd8"/>
      <path id="Tracé_3136" data-name="Tracé 3136" d="M1015.859,879.664c-1,.371-2.674-1.207-4.5-5.015,1.458,2.559,2.755,3.578,3.587,3.271,1.28-.478-.234-8.849-.234-8.849C1017.215,876.162,1017.139,879.186,1015.859,879.664Z" transform="translate(-834.558 -613.191)" fill="#faefd8"/>
      <path id="Tracé_3137" data-name="Tracé 3137" d="M992.168,683.53a3.958,3.958,0,1,0,3.958,3.962A3.958,3.958,0,0,0,992.168,683.53Zm0,6.444a2.486,2.486,0,1,1,2.486-2.482,2.486,2.486,0,0,1-2.486,2.482Z" transform="translate(-821.28 -506.779)" fill="#792027"/>
      <rect id="Rectangle_171" data-name="Rectangle 171" width="6.367" height="57.876" transform="translate(167.706 183.293)" fill="#c1c1c4"/>
      <rect id="Rectangle_172" data-name="Rectangle 172" width="1.868" height="57.876" transform="translate(172.201 183.293)" fill="#f9f9f9"/>
      <rect id="Rectangle_173" data-name="Rectangle 173" width="1.953" height="57.876" transform="translate(167.706 183.293)" fill="#979597"/>
      <path id="Tracé_3138" data-name="Tracé 3138" d="M992.144,846.61H980.1a2.431,2.431,0,0,0-2.431,2.431h16.905A2.431,2.431,0,0,0,992.144,846.61Z" transform="translate(-815.235 -600.31)" fill="#b22e3c"/>
      <rect id="Rectangle_174" data-name="Rectangle 174" width="10.261" height="5.51" transform="translate(165.757 240.79)" fill="#b22e3c"/>
      <rect id="Rectangle_175" data-name="Rectangle 175" width="9.041" height="2.751" transform="translate(166.367 183.293)" fill="#b22e3c"/>
    </g>
    <path id="Tracé_5048" data-name="Tracé 5048" d="M139.28,597.5s21.906-2.781,21.576,11.286-13.522,3.058-13.522,3.058Z" transform="translate(-66.337 -284.489)" fill="#c8deff"/>
    <path id="Tracé_5049" data-name="Tracé 5049" d="M153.409,608.6c-.1-1.252,3.1-5.436,3.1-5.436a29.935,29.935,0,0,0-17.224-5.473C145.821,600.025,151.315,606.859,153.409,608.6Z" transform="translate(-66.337 -284.687)" fill="#7395cf"/>
    <path id="Tracé_5050" data-name="Tracé 5050" d="M202.748,644.846l-37.188-3.671V613.047l37.188-4.9Z" transform="translate(-78.854 -289.67)" fill="#c8deff"/>
    <path id="Tracé_5051" data-name="Tracé 5051" d="M137.928,607.017s-3.629-11.794-18-11.521-14.051,32.647-9.882,37.523,13.674,10.38,27.882,2.126S137.928,607.017,137.928,607.017Z" transform="translate(-51.223 -283.64)" fill="#c8deff"/>
    <path id="Tracé_5058" data-name="Tracé 5058" d="M225.786,97.506c0,34.915-23.965,82.116-53.533,82.116s-53.543-47.2-53.543-82.116S142.68,53.18,172.279,53.18,225.786,62.591,225.786,97.506Z" transform="translate(-56.54 -25.337)" fill="#f0a38b"/>
    <path id="Tracé_5059" data-name="Tracé 5059" d="M293.5,122.4c4.383,15.711,12.569,23.127,5.881,50.563.094,1.047,8.95-20.424,11.312-50.563Z" transform="translate(-139.792 -58.307)" fill="#1b0900"/>
    <path id="Tracé_5060" data-name="Tracé 5060" d="M127.1,114.682c-.183,2-23.21-57.607-2.294-92.135,3.394,10.793,10.118,10.793,10.118,10.793S146.508-7.292,195.678,1.134c-8.479,7.091,0,13.3,0,13.3S208.739-1.547,248.514,22.4c0,0,4.294,29.851-23.64,44.865s-48.767-3.6-60.079-10.71c0,0-26.07-1.534-36.586,22.912C124.7,87.623,126.958,100.3,127.1,114.682Z" transform="translate(-55.267)" fill="#1b0900"/>
    <path id="Tracé_5061" data-name="Tracé 5061" d="M193,249.08c0,6.284,6.541,11.417,14.616,11.417s14.606-5.111,14.606-11.417Z" transform="translate(-91.924 -118.645)" fill="#fff"/>
    <path id="Tracé_5062" data-name="Tracé 5062" d="M225.947,178.09l7.316,30.757-16.633,1.068,12.794-1.592Z" transform="translate(-103.179 -84.832)" fill="#272b33"/>
    <path id="Tracé_5063" data-name="Tracé 5063" d="M232.493,154.216c.189-.89,5.237-2.446,5.237-2.446l22.7,7.746S231.948,156.866,232.493,154.216Z" transform="translate(-110.731 -72.296)" fill="#1b0900"/>
    <path id="Tracé_5064" data-name="Tracé 5064" d="M181.085,154.216c-.189-.89-5.237-2.446-5.237-2.446l-22.708,7.746S181.635,156.866,181.085,154.216Z" transform="translate(-72.939 -72.296)" fill="#1b0900"/>
    <path id="Tracé_5065" data-name="Tracé 5065" d="M254.041,182.07c0,4.509-1.267,8.164-2.828,8.164s-2.823-3.666-2.823-8.164,1.262-8.17,2.823-8.17S254.041,177.555,254.041,182.07Z" transform="translate(-118.307 -82.836)" fill="#1b0900"/>
    <path id="Tracé_5066" data-name="Tracé 5066" d="M188.525,182.07c0,4.509-1.262,8.164-2.823,8.164s-2.823-3.666-2.823-8.164,1.262-8.17,2.823-8.17S188.525,177.555,188.525,182.07Z" transform="translate(-87.104 -82.836)" fill="#1b0900"/>
  </g>
</svg>
