<svg xmlns="http://www.w3.org/2000/svg" width="140.146" height="173.905" viewBox="0 0 140.146 173.905">
  <g id="Maison_Isometric" data-name="Maison Isometric" transform="translate(0)">
    <path id="Tracé_4823" data-name="Tracé 4823" d="M61.785,125.115V72.074L1.54,37.33V90.116Zm-25.62-58.6,15.155,8.75V99.784L36.165,91.136ZM12.006,52.587,27.16,61.319V85.835L12.006,77.1Z" transform="translate(1.077 26.093)" fill="#97b9f3"/>
    <path id="Tracé_4824" data-name="Tracé 4824" d="M61.785,62.258,1.54,27.48V40.018L61.785,74.779Z" transform="translate(1.077 19.208)" fill="#97b9f3"/>
    <path id="Tracé_4825" data-name="Tracé 4825" d="M88.526,125.768h-.153v-7.034L61.785,103.308,1.54,68.53v6.949l86.986,50.527Z" transform="translate(1.077 47.899)" fill="#2b4b82"/>
    <path id="Tracé_4826" data-name="Tracé 4826" d="M61.785,103.381,1.54,68.4v.221L61.785,103.4Z" transform="translate(1.077 47.809)" fill="#792444"/>
    <path id="Tracé_4827" data-name="Tracé 4827" d="M52.8,105.114V98.165l-.153-.085V105.2Z" transform="translate(36.8 68.554)" fill="#792444"/>
    <path id="Tracé_4828" data-name="Tracé 4828" d="M37.075,63.26,21.92,54.51V79.128L37.075,87.86Zm-.612,23.48L22.515,78.7V55.563L36.463,63.6Z" transform="translate(15.321 38.101)" fill="#487eda"/>
    <path id="Tracé_4829" data-name="Tracé 4829" d="M22.27,78.27l13.948,8.036V63.166L22.27,55.13Zm.408-6.473.476.272V56.608L35.4,63.693V79.085l.272.17v.985l-.272-.153v4.689L23.221,77.743V73.054l-.476-.272Z" transform="translate(15.566 38.534)" fill="#fff"/>
    <path id="Tracé_4830" data-name="Tracé 4830" d="M34.971,63.064,22.79,56.03v15.41l12.181,7.017Z" transform="translate(15.929 39.163)" fill="#486dbe"/>
    <path id="Tracé_4831" data-name="Tracé 4831" d="M22.79,70.369,34.971,77.4V72.714L22.79,65.68Z" transform="translate(15.929 45.907)" fill="#486dbe"/>
    <path id="Tracé_4832" data-name="Tracé 4832" d="M30.232,70.385V69.4l-.272-.17v1Z" transform="translate(20.941 48.389)" fill="#fff"/>
    <path id="Tracé_4833" data-name="Tracé 4833" d="M22.979,65.212l-.459-.272v.985l.459.272Z" transform="translate(15.741 45.391)" fill="#fff"/>
    <path id="Tracé_4834" data-name="Tracé 4834" d="M34.971,73.119v-1L22.79,65.1v.985Z" transform="translate(15.929 45.502)" fill="#fff"/>
    <path id="Tracé_4835" data-name="Tracé 4835" d="M22.855,55.043,7.7,46.31V70.826l15.155,8.733Zm-.595,23.48L8.295,70.486V47.346L22.26,55.382Z" transform="translate(5.382 32.369)" fill="#487eda"/>
    <path id="Tracé_4836" data-name="Tracé 4836" d="M8.05,70.06,22.015,78.1V54.956L8.05,46.92Zm.425-6.473.476.272V48.466l12.165,7.085V70.841l.272.153v.985l-.272-.153v4.689L8.95,69.533V64.844l-.476-.272Z" transform="translate(5.626 32.795)" fill="#fff"/>
    <path id="Tracé_4837" data-name="Tracé 4837" d="M20.745,54.847,8.58,47.83V63.223l12.165,7.034Z" transform="translate(5.998 33.432)" fill="#486dbe"/>
    <path id="Tracé_4838" data-name="Tracé 4838" d="M8.58,62.159l12.165,7.034V64.5L8.58,57.47Z" transform="translate(5.998 40.169)" fill="#486dbe"/>
    <path id="Tracé_4839" data-name="Tracé 4839" d="M16.012,62.168v-.985l-.272-.153v.985Z" transform="translate(11.001 42.657)" fill="#fff"/>
    <path id="Tracé_4840" data-name="Tracé 4840" d="M8.776,57,8.3,56.73v.985l.476.272Z" transform="translate(5.801 39.652)" fill="#fff"/>
    <path id="Tracé_4841" data-name="Tracé 4841" d="M20.745,64.909v-.985L8.58,56.89v.985Z" transform="translate(5.998 39.764)" fill="#fff"/>
    <path id="Tracé_4842" data-name="Tracé 4842" d="M1.54,34.86v0Z" transform="translate(1.077 24.366)" fill="#792444"/>
    <path id="Tracé_4843" data-name="Tracé 4843" d="M61.785,69.621,1.54,34.86v4.2L61.785,73.8Z" transform="translate(1.077 24.366)" fill="#2b4b82"/>
    <path id="Tracé_4844" data-name="Tracé 4844" d="M103.284,88.163V81.01L52.74,110.147v7.119Z" transform="translate(36.863 56.623)" fill="#487eda"/>
    <path id="Tracé_4845" data-name="Tracé 4845" d="M37,69.757v53.058L87.527,93.678V40.62Z" transform="translate(25.862 28.392)" fill="#c7d9f9"/>
    <path id="Tracé_4846" data-name="Tracé 4846" d="M40.74,64.768,56,55.95V99.732L40.74,108.55Z" transform="translate(28.475 39.106)" fill="#fff"/>
    <path id="Tracé_4847" data-name="Tracé 4847" d="M55.133,99.655,41.1,107.776V64.691L55.133,56.57Z" transform="translate(28.727 39.54)" fill="#487eda"/>
    <path id="Tracé_4848" data-name="Tracé 4848" d="M41.63,64.565,53.862,57.48V81.588L41.63,88.673Z" transform="translate(29.097 40.177)" fill="#fff"/>
    <path id="Tracé_4849" data-name="Tracé 4849" d="M53.023,58.1V80.815L45.259,85.3,41.98,87.2V64.488l7.883-4.57Z" transform="translate(29.342 40.609)" fill="#5a86ec"/>
    <path id="Tracé_4850" data-name="Tracé 4850" d="M49.863,59.17l-4.6,25.382-3.279,1.9V63.74Z" transform="translate(29.342 41.357)" fill="#8eacde" opacity="0.5"/>
    <path id="Tracé_4851" data-name="Tracé 4851" d="M54.11,60.5,69.265,51.77v24.5L54.11,85.035Z" transform="translate(37.821 36.186)" fill="#487eda"/>
    <path id="Tracé_4852" data-name="Tracé 4852" d="M68.408,75.51,54.46,83.58V60.44l13.948-8.07Z" transform="translate(38.065 36.604)" fill="#fff"/>
    <path id="Tracé_4853" data-name="Tracé 4853" d="M67.154,53.28V74.364L54.99,81.4V60.314Z" transform="translate(38.435 37.24)" fill="#548cec"/>
    <path id="Tracé_4854" data-name="Tracé 4854" d="M62.975,54.71,58.694,78.257,54.99,80.4V59.314Z" transform="translate(38.435 38.24)" fill="#6d9def" opacity="0.5"/>
    <path id="Tracé_4855" data-name="Tracé 4855" d="M67.622,63.245,54.71,70.7v-.985L67.622,62.26Z" transform="translate(38.24 43.518)" fill="#fff"/>
    <path id="Tracé_4856" data-name="Tracé 4856" d="M37,66.066,62.28,22.08l25.3,14.781V49.977L62.28,64.571,37,79.182V66.066Z" transform="translate(25.862 15.434)" fill="#c7d9f9"/>
    <path id="Tracé_4857" data-name="Tracé 4857" d="M37,67.317,87.527,38.18v4.2L37,71.513Z" transform="translate(25.862 26.687)" fill="#487eda"/>
    <path id="Tracé_4858" data-name="Tracé 4858" d="M47.43,39.65,62.568,30.9V47.72L47.43,56.486Z" transform="translate(33.152 21.598)" fill="#487eda"/>
    <path id="Tracé_4859" data-name="Tracé 4859" d="M61.728,46.936,47.78,55.007V39.58l13.948-8.07Z" transform="translate(33.396 22.024)" fill="#fff"/>
    <path id="Tracé_4860" data-name="Tracé 4860" d="M60.481,32.42V45.808L48.3,52.824V39.454Z" transform="translate(33.759 22.66)" fill="#548cec"/>
    <path id="Tracé_4861" data-name="Tracé 4861" d="M56.3,33.84,52.021,49.691,48.3,51.832V38.461Z" transform="translate(33.759 23.653)" fill="#6d9def" opacity="0.5"/>
    <path id="Tracé_4862" data-name="Tracé 4862" d="M60.949,39.645,48.02,47.1v-.985L60.949,38.66Z" transform="translate(33.564 27.022)" fill="#fff"/>
    <path id="Tracé_4863" data-name="Tracé 4863" d="M38.842,69.886,35.41,67.915,62.678,20.48,91.407,37.266l-2,3.432L64.122,25.917Z" transform="translate(24.75 14.315)" fill="#487eda"/>
    <path id="Tracé_4864" data-name="Tracé 4864" d="M3.432,49.416,0,47.445,27.268.01,56,16.8l-2,3.415L28.712,5.447Z" transform="translate(0 0.008)" fill="#792444"/>
    <path id="Tracé_4865" data-name="Tracé 4865" d="M87.428,34.795,27.319,0,0,47.452,60.16,82.229Z" transform="translate(0)" fill="#2b4b82"/>
    <path id="Tracé_4866" data-name="Tracé 4866" d="M87.527,71.85l26.742,15.562L63.742,116.549,37,100.987Z" transform="translate(25.862 50.221)" fill="#72a6ff"/>
    <path id="Tracé_4867" data-name="Tracé 4867" d="M103.284,52.009V49.8L52.74,79.022V81.18Z" transform="translate(36.863 34.809)" fill="#487eda"/>
    <path id="Tracé_4868" data-name="Tracé 4868" d="M87.527,40.64,114.268,56.2,63.742,85.339,37,69.794Z" transform="translate(25.862 28.406)" fill="#72a6ff"/>
    <path id="Tracé_4869" data-name="Tracé 4869" d="M63.742,75.486,37,59.941V57.8L63.742,73.345Z" transform="translate(25.862 40.4)" fill="#284678"/>
    <path id="Tracé_4870" data-name="Tracé 4870" d="M61.867,82.23l2.633,1.6-1.427.748-2.633-1.58Z" transform="translate(42.245 57.476)" fill="#fffae7"/>
    <path id="Tracé_4871" data-name="Tracé 4871" d="M61.784,97.467l-1.274-.714V82.72l1.274.714Z" transform="translate(42.293 57.817)" fill="#9abfff"/>
    <path id="Tracé_4872" data-name="Tracé 4872" d="M62.67,96.784V82.7l-1.41.748V97.5Z" transform="translate(42.818 57.804)" fill="#c9ddff"/>
    <path id="Tracé_4873" data-name="Tracé 4873" d="M80.414,86.63l-1.274-.7V71.9l1.274.7Z" transform="translate(55.315 50.255)" fill="#9abfff"/>
    <path id="Tracé_4874" data-name="Tracé 4874" d="M81.3,85.971V71.87l-1.41.748V86.685Z" transform="translate(55.839 50.234)" fill="#c9ddff"/>
    <path id="Tracé_4875" data-name="Tracé 4875" d="M78.157,85.39l-1.257-.7V70.66l1.257.7Z" transform="translate(53.75 49.389)" fill="#9abfff"/>
    <path id="Tracé_4876" data-name="Tracé 4876" d="M79.067,84.731V70.63l-1.427.748V85.445Z" transform="translate(54.267 49.367)" fill="#e3d3cb"/>
    <path id="Tracé_4877" data-name="Tracé 4877" d="M75.917,84.15l-1.257-.7V69.42l1.257.7Z" transform="translate(52.184 48.521)" fill="#9abfff"/>
    <path id="Tracé_4878" data-name="Tracé 4878" d="M76.827,83.491V69.39l-1.427.748V84.2Z" transform="translate(52.702 48.501)" fill="#c9ddff"/>
    <path id="Tracé_4879" data-name="Tracé 4879" d="M73.677,82.91l-1.257-.7V68.18l1.257.7Z" transform="translate(50.619 47.655)" fill="#9abfff"/>
    <path id="Tracé_4880" data-name="Tracé 4880" d="M74.587,82.251V68.15L73.16,68.9v14.05Z" transform="translate(51.135 47.634)" fill="#c9ddff"/>
    <path id="Tracé_4881" data-name="Tracé 4881" d="M71.444,81.67l-1.274-.7V66.94l1.274.7Z" transform="translate(49.045 46.788)" fill="#9abfff"/>
    <path id="Tracé_4882" data-name="Tracé 4882" d="M72.33,81.011V66.91l-1.41.748V81.725Z" transform="translate(49.57 46.768)" fill="#c9ddff"/>
    <path id="Tracé_4883" data-name="Tracé 4883" d="M69.2,80.43l-1.274-.7V65.7l1.274.7Z" transform="translate(47.48 45.922)" fill="#9abfff"/>
    <path id="Tracé_4884" data-name="Tracé 4884" d="M70.09,79.771V65.67l-1.41.748v14.05Z" transform="translate(48.004 45.9)" fill="#c9ddff"/>
    <path id="Tracé_4885" data-name="Tracé 4885" d="M66.964,79.19l-1.274-.7V64.46l1.274.7Z" transform="translate(45.915 45.055)" fill="#9abfff"/>
    <path id="Tracé_4886" data-name="Tracé 4886" d="M67.85,78.531V64.43l-1.41.748v14.05Z" transform="translate(46.439 45.034)" fill="#c9ddff"/>
    <path id="Tracé_4887" data-name="Tracé 4887" d="M65.19,66.069V63.86L91.643,79.117v2.175Z" transform="translate(45.565 44.636)" fill="#9abfff"/>
    <path id="Tracé_4888" data-name="Tracé 4888" d="M67.84,62.93l-2.65,1.58L91.643,79.767,94.276,78.2Z" transform="translate(45.565 43.985)" fill="#f6f9ff"/>
    <path id="Tracé_4889" data-name="Tracé 4889" d="M64.114,96.117,62.84,95.4V81.37l1.274.7Z" transform="translate(43.922 56.874)" fill="#9abfff"/>
    <path id="Tracé_4890" data-name="Tracé 4890" d="M65,95.441V81.34l-1.41.748V96.155Z" transform="translate(44.447 56.854)" fill="#c9ddff"/>
    <path id="Tracé_4891" data-name="Tracé 4891" d="M66.444,94.75l-1.274-.7V80.02l1.274.7Z" transform="translate(45.551 55.931)" fill="#9abfff"/>
    <path id="Tracé_4892" data-name="Tracé 4892" d="M67.33,94.091V79.99l-1.41.748v14.05Z" transform="translate(46.075 55.91)" fill="#c9ddff"/>
    <path id="Tracé_4893" data-name="Tracé 4893" d="M68.757,93.407,67.5,92.693V78.66l1.257.714Z" transform="translate(47.179 54.98)" fill="#9abfff"/>
    <path id="Tracé_4894" data-name="Tracé 4894" d="M69.667,92.741V78.64l-1.427.748v14.05Z" transform="translate(47.697 54.966)" fill="#c9ddff"/>
    <path id="Tracé_4895" data-name="Tracé 4895" d="M71.087,92.057l-1.257-.714V77.31l1.257.7Z" transform="translate(48.808 54.036)" fill="#9abfff"/>
    <path id="Tracé_4896" data-name="Tracé 4896" d="M72,91.381V77.28l-1.427.748V92.095Z" transform="translate(49.326 54.016)" fill="#c9ddff"/>
    <path id="Tracé_4897" data-name="Tracé 4897" d="M73.417,90.69l-1.257-.7V75.96l1.257.7Z" transform="translate(50.437 53.093)" fill="#9abfff"/>
    <path id="Tracé_4898" data-name="Tracé 4898" d="M74.327,90.031V75.93l-1.427.748v14.05Z" transform="translate(50.954 53.072)" fill="#c9ddff"/>
    <path id="Tracé_4899" data-name="Tracé 4899" d="M75.754,89.34l-1.274-.714V74.61l1.274.7Z" transform="translate(52.058 52.149)" fill="#9abfff"/>
    <path id="Tracé_4900" data-name="Tracé 4900" d="M76.64,88.681V74.58l-1.41.748v14.05Z" transform="translate(52.583 52.128)" fill="#c9ddff"/>
    <path id="Tracé_4901" data-name="Tracé 4901" d="M78.084,88l-1.274-.714V73.25l1.274.714Z" transform="translate(53.687 51.199)" fill="#9abfff"/>
    <path id="Tracé_4902" data-name="Tracé 4902" d="M78.97,87.321V73.22l-1.41.765v14.05Z" transform="translate(54.21 51.178)" fill="#c9ddff"/>
    <path id="Tracé_4903" data-name="Tracé 4903" d="M61.613,87.274,58.98,85.711V83.57l2.633,1.563Z" transform="translate(41.224 58.412)" fill="#9abfff"/>
    <path id="Tracé_4904" data-name="Tracé 4904" d="M97.465,74.149V71.94L60.53,93.262V95.42Z" transform="translate(42.308 50.283)" fill="#c9ddff"/>
    <path id="Tracé_4905" data-name="Tracé 4905" d="M95.915,71.01l2.633,1.58L61.613,93.912,58.98,92.349Z" transform="translate(41.224 49.633)" fill="#f6f9ff"/>
  </g>
</svg>
