<svg xmlns="http://www.w3.org/2000/svg" xmlns:xlink="http://www.w3.org/1999/xlink" width="166.511" height="196" viewBox="0 0 166.511 196">
  <defs>
    <radialGradient id="radial-gradient" cx="0.356" cy="0.362" r="0.5" gradientUnits="objectBoundingBox">
      <stop offset="0" stop-color="#a3ffff"/>
      <stop offset="0.223" stop-color="#9dfbff"/>
      <stop offset="0.53" stop-color="#8bf1ff"/>
      <stop offset="0.885" stop-color="#6ee0ff"/>
      <stop offset="1" stop-color="#63daff"/>
    </radialGradient>
    <radialGradient id="radial-gradient-2" cx="0.344" cy="0.387" xlink:href="#radial-gradient"/>
    <linearGradient id="linear-gradient" x1="0.5" y1="22.246" x2="0.5" y2="21.028" gradientUnits="objectBoundingBox">
      <stop offset="0" stop-color="#bd4ff4"/>
      <stop offset="0.587" stop-color="#a235ec"/>
      <stop offset="1" stop-color="#8c20e5"/>
    </linearGradient>
    <linearGradient id="linear-gradient-2" y1="0.5" x2="1" y2="0.5" gradientUnits="objectBoundingBox">
      <stop offset="0" stop-color="#c965eb"/>
      <stop offset="1" stop-color="#c767e5"/>
    </linearGradient>
    <radialGradient id="radial-gradient-4" cx="0.333" cy="0.375" xlink:href="#radial-gradient"/>
    <linearGradient id="linear-gradient-3" x1="0.5" y1="0.011" x2="0.5" y2="1.011" gradientUnits="objectBoundingBox">
      <stop offset="0" stop-color="#eba600"/>
      <stop offset="1" stop-color="#c28200"/>
    </linearGradient>
    <linearGradient id="linear-gradient-4" x1="0.5" y1="0.035" x2="0.5" y2="1.011" gradientUnits="objectBoundingBox">
      <stop offset="0" stop-color="#ffcf54"/>
      <stop offset="0.261" stop-color="#fdcb4d"/>
      <stop offset="0.639" stop-color="#f7c13a"/>
      <stop offset="1" stop-color="#f0b421"/>
    </linearGradient>
    <linearGradient id="linear-gradient-5" x1="0.476" y1="1.17" x2="0.633" y2="0.055" xlink:href="#linear-gradient-3"/>
    <linearGradient id="linear-gradient-6" x1="0.589" y1="1.111" x2="-0.233" y2="0.088" xlink:href="#linear-gradient-3"/>
    <linearGradient id="linear-gradient-7" x1="0.422" y1="119.085" x2="0.559" y2="117.594" gradientUnits="objectBoundingBox">
      <stop offset="0" stop-color="#0d61a9"/>
      <stop offset="1" stop-color="#16528c"/>
    </linearGradient>
    <linearGradient id="linear-gradient-8" y1="0.5" x2="1" y2="0.5" gradientUnits="objectBoundingBox">
      <stop offset="0" stop-color="#393c40"/>
      <stop offset="0.102" stop-color="#35383c"/>
      <stop offset="0.471" stop-color="#2d3033"/>
      <stop offset="1" stop-color="#2b2e30"/>
    </linearGradient>
  </defs>
  <g id="Ménage_Simple" data-name="Ménage Simple" transform="translate(-0.475 0.465)">
    <g id="hexagon_100_opacity" data-name="hexagon 100% opacity" transform="translate(57.714 -0.465) rotate(30)" fill="none" stroke-linecap="round">
      <path d="M84.612.053a20.065,20.065,0,0,1,17.323,10.026L123.451,47.2a20.193,20.193,0,0,1,.025,20.22L102.05,104.5a19.949,19.949,0,0,1-17.3,9.983l-43.186-.053A20.065,20.065,0,0,1,24.242,104.4L2.725,67.275A20.193,20.193,0,0,1,2.7,47.055L24.127,9.983A19.949,19.949,0,0,1,41.426,0Z" stroke="none"/>
      <path d="M 41.40095520019531 -1.52587890625e-05 L 41.40095520019531 7.999984741210938 C 37.15258026123047 7.999984741210938 33.18764495849609 10.29384613037109 31.05348205566406 13.98636627197266 L 9.6270751953125 51.05831909179688 C 7.454597473144531 54.81710433959961 7.462196350097656 59.49372482299805 9.64691162109375 63.26315307617188 L 31.163818359375 100.3878631591797 C 33.31912231445312 104.106559753418 37.30843353271484 106.4199142456055 41.57498168945312 106.4251556396484 L 84.77581787109375 106.478271484375 C 89.02421569824219 106.478271484375 92.98915100097656 104.184440612793 95.12331390380859 100.4918899536133 L 116.5496978759766 63.41996002197266 C 118.7221755981445 59.66115188598633 118.7145767211914 54.98453140258789 116.5298614501953 51.21510314941406 L 95.01295471191406 14.09041595458984 C 92.85765075683594 10.37169647216797 88.86833953857422 8.058341979980469 84.60179138183594 8.0531005859375 L 41.41571807861328 8.000007629394531 L 41.40095520019531 -1.52587890625e-05 M 41.40095520019531 -7.62939453125e-06 C 41.40922546386719 -7.62939453125e-06 41.41728210449219 0 41.42555236816406 7.62939453125e-06 L 84.61162567138672 0.0531005859375 C 91.74376678466797 0.06186676025390625 98.34214782714844 3.880744934082031 101.934455871582 10.07881927490234 L 123.4513626098633 47.20350646972656 C 127.0764312744141 53.45808029174805 127.0858383178711 61.17753219604492 123.4760513305664 67.42317199707031 L 102.049674987793 104.4951019287109 C 98.47248077392578 110.6843643188477 91.88145446777344 114.4870071411133 84.751220703125 114.4782485961914 L 41.56514739990234 114.4251556396484 C 34.43302917480469 114.416389465332 27.83462524414062 110.5975112915039 24.24231719970703 104.3994598388672 L 2.725410461425781 67.27474975585938 C -0.8996353149414062 61.02019882202148 -0.9090652465820312 53.30072402954102 2.70074462890625 47.05508422851562 L 24.12712097167969 9.983154296875 C 27.70016479492188 3.801094055175781 34.27836608886719 -7.62939453125e-06 41.40095520019531 -7.62939453125e-06 Z" stroke="none" fill="#5493ff"/>
    </g>
    <g id="icons8-housekeeping" transform="translate(52.02 52.535)">
      <path id="Tracé_4508" data-name="Tracé 4508" d="M19.421,14a4.421,4.421,0,1,0,4.421,4.421A4.421,4.421,0,0,0,19.421,14Z" transform="translate(1.986 2.368)" fill="url(#radial-gradient)"/>
      <circle id="Ellipse_45" data-name="Ellipse 45" cx="7.579" cy="7.579" r="7.579" transform="translate(10.67 20.158)" fill="url(#radial-gradient-2)"/>
      <circle id="Ellipse_46" data-name="Ellipse 46" cx="8.842" cy="8.842" r="8.842" transform="translate(20.775 15.105)" fill="url(#radial-gradient-2)"/>
      <path id="Tracé_4509" data-name="Tracé 4509" d="M34.922,48.789h-22.1a1.986,1.986,0,0,1-1.981-1.848L9.058,22.061A.993.993,0,0,1,10.049,21H37.7a.993.993,0,0,1,.99,1.061L36.9,46.941A1.986,1.986,0,0,1,34.922,48.789Z" transform="translate(0.421 4.211)" fill="url(#linear-gradient)"/>
      <path id="Tracé_4510" data-name="Tracé 4510" d="M37.782,26.955H9.993A.993.993,0,0,1,9,25.963v-3.97A.993.993,0,0,1,9.993,21H37.782a.993.993,0,0,1,.993.993v3.97A.994.994,0,0,1,37.782,26.955Z" transform="translate(0.407 4.211)" fill="url(#linear-gradient-2)"/>
      <path id="Tracé_4511" data-name="Tracé 4511" d="M26.033,47.917h4.421a1.986,1.986,0,0,0,1.981-1.848l1.449-20.2a.973.973,0,0,0,.409-.782v-.776a18.715,18.715,0,0,0-2.435.625,3.4,3.4,0,0,0-2.077,3.3L29.795,30c-.969,6.467-3.661,17.511-3.688,17.622Z" transform="translate(4.889 5.083)" opacity="0.05"/>
      <circle id="Ellipse_47" data-name="Ellipse 47" cx="2.526" cy="2.526" r="2.526" transform="translate(8.144 7.526)" fill="url(#radial-gradient-4)"/>
      <path id="Tracé_4512" data-name="Tracé 4512" d="M26.548,47.783h3.771A1.986,1.986,0,0,0,32.3,45.935l1.449-20.2a.973.973,0,0,0,.409-.782v-.133a18.055,18.055,0,0,0-2.233.58,2.766,2.766,0,0,0-1.646,2.7l.006,1.856c-.975,6.51-3.672,17.567-3.7,17.678Z" transform="translate(5.025 5.217)" opacity="0.07"/>
      <path id="Tracé_4513" data-name="Tracé 4513" d="M39.053,31.165H34V7.526A2.526,2.526,0,0,1,36.526,5h0a2.526,2.526,0,0,1,2.526,2.526Z" transform="translate(6.986)" fill="url(#linear-gradient-3)"/>
      <path id="Tracé_4514" data-name="Tracé 4514" d="M45.763,28H30.941c-.8,6.356-3.879,18.947-3.879,18.947H49.641S46.563,34.356,45.763,28Z" transform="translate(5.16 6.053)" fill="url(#linear-gradient-4)"/>
      <rect id="Rectangle_263" data-name="Rectangle 263" width="5.053" height="6.316" transform="translate(40.986 25.211)" fill="#16528c"/>
      <path id="Tracé_4515" data-name="Tracé 4515" d="M33.125,37.923a42.755,42.755,0,0,1-1.791,6.413h2.053Z" transform="translate(6.284 8.664)" fill="url(#linear-gradient-5)"/>
      <path id="Tracé_4516" data-name="Tracé 4516" d="M41.184,44.942c-.609-2.4-1.518-6.445-1.907-9.327l-.25,9.327Z" transform="translate(8.309 8.057)" fill="url(#linear-gradient-6)"/>
      <path id="Tracé_4517" data-name="Tracé 4517" d="M45.158,30.053H30v-2a2.14,2.14,0,0,1,1.216-2.1A20.1,20.1,0,0,1,37.579,25a20.1,20.1,0,0,1,6.363.956,2.14,2.14,0,0,1,1.216,2.1Z" transform="translate(5.933 5.263)" fill="url(#linear-gradient-7)"/>
      <path id="Tracé_4518" data-name="Tracé 4518" d="M7.767,38.033a1.264,1.264,0,0,0,1.811.093L24.215,24.581a1.263,1.263,0,1,0-1.662-1.9l-14.7,13.6a1.263,1.263,0,0,0-.09,1.756Z" transform="translate(0 4.57)" fill="url(#linear-gradient-8)"/>
    </g>
    <text id="Ménage_Simple-2" data-name="Ménage
Simple" transform="translate(83.474 174.535)" fill="#5493ff" font-size="16" font-family="Ubuntu-Bold, Ubuntu" font-weight="700"><tspan x="-30" y="0">Ménage</tspan><tspan x="-25" y="18">Simple</tspan></text>
  </g>
</svg>
