<svg xmlns="http://www.w3.org/2000/svg" xmlns:xlink="http://www.w3.org/1999/xlink" width="166.511" height="196" viewBox="0 0 166.511 196">
  <defs>
    <linearGradient id="linear-gradient" x1="0.398" y1="0.005" x2="0.513" y2="0.889" gradientUnits="objectBoundingBox">
      <stop offset="0" stop-color="#5963e0"/>
      <stop offset="1" stop-color="#5059c9"/>
    </linearGradient>
    <linearGradient id="linear-gradient-2" x1="0.25" y1="0.5" x2="0.882" y2="0.5" gradientUnits="objectBoundingBox">
      <stop offset="0" stop-color="#c48f0c"/>
      <stop offset="0.251" stop-color="#d19b16"/>
      <stop offset="0.619" stop-color="#dca51f"/>
      <stop offset="1" stop-color="#e0a922"/>
    </linearGradient>
    <linearGradient id="linear-gradient-3" x1="-40.068" x2="-39.436" xlink:href="#linear-gradient-2"/>
    <radialGradient id="radial-gradient" cx="0.5" cy="0.5" r="0.438" gradientUnits="objectBoundingBox">
      <stop offset="0" stop-color="#ffcf54"/>
      <stop offset="0.261" stop-color="#fdcb4d"/>
      <stop offset="0.639" stop-color="#f7c13a"/>
      <stop offset="1" stop-color="#f0b421"/>
    </radialGradient>
    <radialGradient id="radial-gradient-2" cx="0.072" cy="0.077" r="1.764" gradientUnits="objectBoundingBox">
      <stop offset="0" stop-color="#c26715"/>
      <stop offset="0.508" stop-color="#b85515"/>
      <stop offset="1" stop-color="#ad3f16"/>
    </radialGradient>
  </defs>
  <g id="Pack_Etudiant" data-name="Pack Etudiant" transform="translate(0.488 0.465)">
    <g id="Tracé_4498" data-name="Tracé 4498" transform="translate(56.751 -0.465) rotate(30)" fill="none" stroke-linecap="round" opacity="0.6">
      <path d="M84.612.053a20.065,20.065,0,0,1,17.323,10.026L123.451,47.2a20.193,20.193,0,0,1,.025,20.22L102.05,104.5a19.949,19.949,0,0,1-17.3,9.983l-43.186-.053A20.065,20.065,0,0,1,24.242,104.4L2.725,67.275A20.193,20.193,0,0,1,2.7,47.055L24.127,9.983A19.949,19.949,0,0,1,41.426,0Z" stroke="none"/>
      <path d="M 41.40095520019531 -1.52587890625e-05 L 41.40095520019531 7.999984741210938 C 37.15258026123047 7.999984741210938 33.18764495849609 10.29384613037109 31.05348205566406 13.98636627197266 L 9.6270751953125 51.05831909179688 C 7.454597473144531 54.81710433959961 7.462196350097656 59.49372482299805 9.64691162109375 63.26315307617188 L 31.163818359375 100.3878631591797 C 33.31912231445312 104.106559753418 37.30843353271484 106.4199142456055 41.57498168945312 106.4251556396484 L 84.77581787109375 106.478271484375 C 89.02421569824219 106.478271484375 92.98915100097656 104.184440612793 95.12331390380859 100.4918899536133 L 116.5496978759766 63.41996002197266 C 118.7221755981445 59.66115188598633 118.7145767211914 54.98453140258789 116.5298614501953 51.21510314941406 L 95.01295471191406 14.09041595458984 C 92.85765075683594 10.37169647216797 88.86833953857422 8.058341979980469 84.60179138183594 8.0531005859375 L 41.41571807861328 8.000007629394531 L 41.40095520019531 -1.52587890625e-05 M 41.40095520019531 -7.62939453125e-06 C 41.40922546386719 -7.62939453125e-06 41.41728210449219 0 41.42555236816406 7.62939453125e-06 L 84.61162567138672 0.0531005859375 C 91.74376678466797 0.06186676025390625 98.34214782714844 3.880744934082031 101.934455871582 10.07881927490234 L 123.4513626098633 47.20350646972656 C 127.0764312744141 53.45808029174805 127.0858383178711 61.17753219604492 123.4760513305664 67.42317199707031 L 102.049674987793 104.4951019287109 C 98.47248077392578 110.6843643188477 91.88145446777344 114.4870071411133 84.751220703125 114.4782485961914 L 41.56514739990234 114.4251556396484 C 34.43302917480469 114.416389465332 27.83462524414062 110.5975112915039 24.24231719970703 104.3994598388672 L 2.725410461425781 67.27474975585938 C -0.8996353149414062 61.02019882202148 -0.9090652465820312 53.30072402954102 2.70074462890625 47.05508422851562 L 24.12712097167969 9.983154296875 C 27.70016479492188 3.801094055175781 34.27836608886719 -7.62939453125e-06 41.40095520019531 -7.62939453125e-06 Z" stroke="none" fill="#7db1ff"/>
    </g>
    <g id="icons8-student_male" transform="translate(55.511 53.534)">
      <path id="Tracé_4528" data-name="Tracé 4528" d="M27.81,30.571C16.869,30.571,8,36.664,8,43.306v1.415A2.476,2.476,0,0,0,10.476,47.2H45.144a2.476,2.476,0,0,0,2.476-2.476V43.306C47.62,36.664,38.751,30.571,27.81,30.571Z" transform="translate(0.238 6.803)" fill="url(#linear-gradient)"/>
      <path id="Tracé_4529" data-name="Tracé 4529" d="M31.381,32.675c0,2.349-2.476,4.952-6.191,4.952S19,35.024,19,32.675v-8.71H31.381Z" transform="translate(2.857 5.23)" fill="#d6a121"/>
      <path id="Tracé_4530" data-name="Tracé 4530" d="M33.041,18h-.652v4.952h.87a1.264,1.264,0,0,0,1.289-.916l.426-2.109A1.764,1.764,0,0,0,33.041,18Z" transform="translate(6.046 3.81)" fill="url(#linear-gradient-2)"/>
      <path id="Tracé_4531" data-name="Tracé 4531" d="M15.461,18h.652v4.952h-.87a1.264,1.264,0,0,1-1.289-.916l-.426-2.109A1.764,1.764,0,0,1,15.461,18Z" transform="translate(1.548 3.81)" fill="url(#linear-gradient-3)"/>
      <path id="Tracé_4532" data-name="Tracé 4532" d="M26.143,6.4C20.645,6.4,15,7.236,15,19.122v8.293c0,4.243,6.686,9.443,11.143,9.443s11.143-5.2,11.143-9.443V19.122C37.286,7.236,31.642,6.4,26.143,6.4Z" transform="translate(1.905 1.048)" fill="url(#radial-gradient)"/>
      <path id="Tracé_4533" data-name="Tracé 4533" d="M26.381,5.545c-5.391,0-6.191,2.026-6.191,2.026C18,7.894,14,14.818,14,18.488c0,1.238,0,3.714,1.238,4.952.675-8.1,2.785-11.143,4.952-11.143,1.569,0,2.814,1.238,6.191,1.238,2.851,0,3.56-1.238,6.191-1.238,3.714,0,4.952,9.865,4.952,11.143,1.238-1.238,1.238-4.952,1.238-4.952C38.762,14.243,34.069,5.545,26.381,5.545Z" transform="translate(1.667 0.844)" fill="url(#radial-gradient-2)"/>
      <rect id="Rectangle_264" data-name="Rectangle 264" width="1.238" height="14.857" transform="translate(46.62 10.667)" fill="#3a41ac"/>
      <path id="Tracé_4534" data-name="Tracé 4534" d="M39.857,25.2s1.857-2.318,1.857-3.343a1.857,1.857,0,1,0-3.714,0C38,22.882,39.857,25.2,39.857,25.2Z" transform="translate(7.382 4.286)" fill="#3a41ac"/>
      <path id="Tracé_4535" data-name="Tracé 4535" d="M26.6,19.877,7.578,11.951a.939.939,0,0,1,0-1.735L26.6,2.29a3.762,3.762,0,0,1,2.891,0l19.024,7.926a.939.939,0,0,1,0,1.735L29.493,19.877A3.762,3.762,0,0,1,26.6,19.877Z" transform="translate(0 0)" fill="#5059c9"/>
      <path id="Tracé_4536" data-name="Tracé 4536" d="M26.381,9C19.543,9,14,10.187,14,11.653v6.014a32.164,32.164,0,0,1,12.381,2.476,32.164,32.164,0,0,1,12.381-2.476V11.653C38.762,10.187,33.219,9,26.381,9Z" transform="translate(1.667 1.667)" fill="#7b83eb"/>
    </g>
    <text id="Pack_Etudiant-2" data-name="Pack
Etudiant" transform="translate(83.474 174.535)" fill="#7db1ff" font-size="16" font-family="Ubuntu-Bold, Ubuntu" font-weight="700" opacity="0.6"><tspan x="-18" y="0">Pack</tspan><tspan x="-32" y="18">Etudiant</tspan></text>
  </g>
</svg>
