<svg xmlns="http://www.w3.org/2000/svg" xmlns:xlink="http://www.w3.org/1999/xlink" width="364.571" height="289.45" viewBox="0 0 364.571 289.45">
  <defs>
    <linearGradient id="linear-gradient" x1="0.915" y1="0.739" x2="0.049" y2="0.239" gradientUnits="objectBoundingBox">
      <stop offset="0" stop-color="#dfd7e0"/>
      <stop offset="0.02" stop-color="#e1d9e2"/>
      <stop offset="0.24" stop-color="#f1eef2"/>
      <stop offset="0.46" stop-color="#fcfbfc"/>
      <stop offset="0.67" stop-color="#fff"/>
    </linearGradient>
  </defs>
  <g id="isometric_Platform" data-name="isometric Platform" transform="translate(0.001 20.691)">
    <g id="Groupe_127" data-name="Groupe 127" transform="translate(263.848 208.338)">
      <path id="Tracé_6826" data-name="Tracé 6826" d="M390.5,333.155l-2.13-1.222c-2.785-1.611-2.43-4.451.785-6.308l32.769-18.917c3.222-1.857,8.138-2.048,10.923-.451l2.13,1.222c2.785,1.611,2.43,4.451-.785,6.308L401.42,332.7C398.2,334.561,393.282,334.766,390.5,333.155Z" transform="translate(-386.489 -305.176)" fill="#7db1ff"/>
      <path id="Tracé_6827" data-name="Tracé 6827" d="M415.079,347.2l-2.123-1.222c-2.785-1.611-2.437-4.451.785-6.308l32.769-18.917c3.222-1.857,8.138-2.048,10.923-.451l2.13,1.222c2.785,1.611,2.43,4.451-.785,6.308l-32.769,18.917C422.787,348.6,417.851,348.806,415.079,347.2Z" transform="translate(-394.291 -309.631)" fill="#7db1ff"/>
      <path id="Tracé_6828" data-name="Tracé 6828" d="M439.669,361.235l-2.123-1.222c-2.785-1.611-2.437-4.451.785-6.308L471.1,334.788c3.222-1.857,8.138-2.048,10.923-.451l2.123,1.222c2.792,1.611,2.437,4.451-.778,6.308L450.6,360.784C447.377,362.641,442.461,362.846,439.669,361.235Z" transform="translate(-402.094 -314.086)" fill="#7db1ff"/>
      <path id="Tracé_6829" data-name="Tracé 6829" d="M464.258,375.275l-2.123-1.229c-2.792-1.6-2.437-4.444.785-6.3l32.769-18.917c3.222-1.857,8.138-2.048,10.923-.451l2.123,1.222c2.792,1.611,2.437,4.451-.785,6.308l-32.769,18.917C471.965,376.681,467.05,376.886,464.258,375.275Z" transform="translate(-409.895 -318.542)" fill="#7db1ff"/>
    </g>
    <g id="Groupe_128" data-name="Groupe 128" transform="translate(31.04 203.723)">
      <path id="Tracé_6830" data-name="Tracé 6830" d="M173.22,333.672l2.13-1.229c2.785-1.611,2.437-4.444-.785-6.308l-45.357-26.188c-3.222-1.857-8.138-2.048-10.923-.451l-2.157,1.229c-2.785,1.6-2.43,4.444.785,6.3l45.357,26.188C165.519,335.079,170.434,335.284,173.22,333.672Z" transform="translate(-67.294 -298.416)" fill="#7db1ff"/>
      <path id="Tracé_6831" data-name="Tracé 6831" d="M150.292,347.682l2.13-1.229c2.785-1.611,2.437-4.444-.785-6.308L106.28,313.958c-3.222-1.857-8.138-2.048-10.923-.451l-2.13,1.229c-2.785,1.611-2.43,4.444.785,6.308l45.364,26.188C142.592,349.089,147.507,349.294,150.292,347.682Z" transform="translate(-60.028 -302.862)" fill="#7db1ff"/>
      <path id="Tracé_6832" data-name="Tracé 6832" d="M127.352,361.694l2.13-1.229c2.785-1.6,2.437-4.444-.785-6.3L83.34,327.976c-3.222-1.864-8.138-2.048-10.923-.457l-2.13,1.229c-2.785,1.611-2.43,4.451.785,6.308l45.364,26.188C119.652,363.1,124.567,363.305,127.352,361.694Z" transform="translate(-52.748 -307.309)" fill="#7db1ff"/>
      <path id="Tracé_6833" data-name="Tracé 6833" d="M104.412,375.706l2.13-1.222c2.785-1.611,2.437-4.451-.785-6.308L60.4,341.988c-3.222-1.857-8.138-2.048-10.923-.451l-2.13,1.222c-2.785,1.611-2.43,4.451.785,6.308L93.5,375.255C96.712,377.112,101.627,377.317,104.412,375.706Z" transform="translate(-45.469 -311.756)" fill="#7db1ff"/>
    </g>
    <path id="Platform_Shadow" data-name="Platform Shadow" d="M203.356,289.785l134.317-77.546c2.785-1.611,2.43-4.444-.785-6.308L147.117,96.368c-3.215-1.857-8.131-2.048-10.923-.451L1.877,173.456c-2.785,1.611-2.43,4.451.785,6.308L192.447,289.328C195.656,291.191,200.571,291.4,203.356,289.785Z" transform="translate(0 -30.093)" fill="#7db1ff"/>
    <g id="Right_Stairs" data-name="Right Stairs" transform="translate(-0.001)">
      <path id="Tracé_6835" data-name="Tracé 6835" d="M454.6,273.2l-2.048.853-1.939-1.12c-2.785-1.611-7.7-1.406-10.923.451L415.766,287.2l-11.5,4.779v3.864h0a3.188,3.188,0,0,0,1.85,2.779l2.123,1.229c2.792,1.611,7.707,1.406,10.923-.451l32.769-18.917c1.707-.99,2.581-2.246,2.635-3.448h0Z" transform="translate(-128.282 -86.263)" fill="#c8deff"/>
      <path id="Tracé_6836" data-name="Tracé 6836" d="M408.256,294.3l-2.13-1.222c-2.785-1.611-2.437-4.451.785-6.308l32.769-18.917c3.222-1.857,8.138-2.048,10.923-.451l2.13,1.222c2.785,1.611,2.43,4.451-.785,6.308l-32.769,18.917C415.957,295.711,411.041,295.916,408.256,294.3Z" transform="translate(-128.274 -84.511)" fill="#fff"/>
      <path id="Tracé_6837" data-name="Tracé 6837" d="M473.274,295.894l-2.048.86-1.939-1.12c-2.785-1.611-7.7-1.406-10.923.451l-23.948,13.79-11.5,4.779v3.864h0a3.2,3.2,0,0,0,1.85,2.779l2.123,1.222c2.792,1.611,7.707,1.406,10.923-.451l32.769-18.917c1.7-.983,2.581-2.239,2.635-3.448h0Z" transform="translate(-134.2 -93.466)" fill="#c8deff"/>
      <path id="Tracé_6838" data-name="Tracé 6838" d="M426.919,316.992l-2.123-1.229c-2.785-1.611-2.437-4.444.785-6.308l32.769-18.917c3.222-1.857,8.138-2.048,10.923-.451l2.13,1.229c2.785,1.611,2.43,4.444-.785,6.308l-32.769,18.917C434.627,318.4,429.711,318.61,426.919,316.992Z" transform="translate(-134.199 -91.708)" fill="#fff"/>
      <path id="Tracé_6839" data-name="Tracé 6839" d="M491.951,318.591l-2.048.853-1.939-1.12c-2.785-1.611-7.7-1.406-10.923.457l-23.928,13.811-11.5,4.779v3.864h.034a3.188,3.188,0,0,0,1.85,2.779l2.123,1.229c2.792,1.611,7.707,1.406,10.923-.451l32.769-18.917c1.7-.983,2.581-2.246,2.635-3.448h0Z" transform="translate(-140.131 -100.666)" fill="#c8deff"/>
      <path id="Tracé_6840" data-name="Tracé 6840" d="M445.589,339.7l-2.123-1.222c-2.785-1.611-2.437-4.451.785-6.308l32.769-18.917c3.222-1.857,8.138-2.048,10.923-.451l2.123,1.222c2.792,1.611,2.437,4.451-.778,6.308l-32.769,18.917C453.3,341.1,448.381,341.306,445.589,339.7Z" transform="translate(-140.123 -98.914)" fill="#fff"/>
      <path id="Tracé_6841" data-name="Tracé 6841" d="M510.6,341.284l-2.048.86-1.939-1.12c-2.785-1.611-7.7-1.406-10.923.451l-23.935,13.817-11.5,4.779v3.864h.034a3.2,3.2,0,0,0,1.85,2.779l2.123,1.222c2.792,1.611,7.707,1.406,10.923-.451l32.769-18.917c1.707-.983,2.581-2.239,2.642-3.448h0Z" transform="translate(-146.049 -107.869)" fill="#c8deff"/>
      <path id="Tracé_6842" data-name="Tracé 6842" d="M464.255,362.393l-2.13-1.229c-2.792-1.611-2.437-4.444.785-6.308l32.769-18.91c3.222-1.864,8.138-2.048,10.923-.457l2.123,1.229c2.792,1.611,2.437,4.444-.785,6.308l-32.769,18.917C471.962,363.8,467.047,364,464.255,362.393Z" transform="translate(-146.043 -106.115)" fill="#fff"/>
    </g>
    <g id="Platform" transform="translate(-0.001)">
      <path id="Tracé_6843" data-name="Tracé 6843" d="M0,138.769l4.171-.164L136.195,62.377c2.792-1.6,7.707-1.4,10.923.457L336.281,172.064l2.922-.116h.348v4.137h-.034a3.263,3.263,0,0,1-1.843,2.621L203.357,256.252c-2.785,1.611-7.7,1.406-10.923-.457L2.662,146.231c-1.734-1-2.608-2.28-2.628-3.509h0Z" transform="translate(0.001 -19.451)" fill="#c8deff"/>
      <path id="Tracé_6844" data-name="Tracé 6844" d="M203.356,250.712l134.317-77.546c2.785-1.611,2.43-4.444-.785-6.308L147.117,57.288c-3.215-1.857-8.131-2.048-10.923-.451L1.877,134.39c-2.785,1.611-2.43,4.451.785,6.308L192.447,250.261C195.656,252.118,200.571,252.323,203.356,250.712Z" transform="translate(0.001 -17.693)" fill="#fff"/>
    </g>
    <g id="Left_Stairs" data-name="Left Stairs" transform="translate(-0.001)">
      <path id="Tracé_6845" data-name="Tracé 6845" d="M88.51,259.523l2.048.853,1.939-1.12c2.785-1.6,7.7-1.406,10.923.457L139.95,280.8l11.5,4.779v3.864h-.034a3.192,3.192,0,0,1-1.843,2.772l-2.13,1.229c-2.785,1.611-7.7,1.406-10.923-.451l-45.344-26.2c-1.707-.983-2.581-2.239-2.635-3.447h0Z" transform="translate(-28.085 -81.923)" fill="#c8deff"/>
      <path id="Tracé_6846" data-name="Tracé 6846" d="M147.451,287.9l2.13-1.229c2.785-1.611,2.43-4.451-.785-6.308l-45.364-26.188c-3.215-1.857-8.131-2.048-10.923-.451l-2.123,1.208c-2.785,1.6-2.437,4.444.785,6.3l45.357,26.188C139.751,289.309,144.666,289.513,147.451,287.9Z" transform="translate(-28.084 -80.17)" fill="#fff"/>
      <path id="Tracé_6847" data-name="Tracé 6847" d="M74.16,284.5l2.048.853,1.939-1.12c2.785-1.611,7.7-1.406,10.923.451l36.523,21.088,11.5,4.779v3.864h0a3.188,3.188,0,0,1-1.85,2.779l-2.123,1.229c-2.792,1.6-7.707,1.406-10.923-.457l-45.378-26.2c-1.7-.983-2.574-2.239-2.635-3.413h0Z" transform="translate(-23.532 -89.849)" fill="#c8deff"/>
      <path id="Tracé_6848" data-name="Tracé 6848" d="M133.11,312.874l2.123-1.229c2.785-1.6,2.437-4.444-.785-6.3L89.07,279.156c-3.222-1.864-8.138-2.048-10.923-.457l-2.1,1.229c-2.792,1.611-2.437,4.451.778,6.308l45.364,26.188C125.4,314.28,130.317,314.485,133.11,312.874Z" transform="translate(-23.532 -88.095)" fill="#fff"/>
      <path id="Tracé_6849" data-name="Tracé 6849" d="M59.81,309.473l2.048.853,1.939-1.12c2.792-1.6,7.707-1.406,10.923.457l36.53,21.088,11.5,4.779v3.864h-.034a3.174,3.174,0,0,1-1.85,2.772l-2.123,1.229c-2.785,1.611-7.7,1.406-10.923-.451l-45.337-26.2c-1.707-.983-2.581-2.239-2.635-3.448h0Z" transform="translate(-18.979 -97.774)" fill="#c8deff"/>
      <path id="Tracé_6850" data-name="Tracé 6850" d="M118.761,337.852l2.123-1.229c2.792-1.611,2.437-4.451-.778-6.308L74.742,304.128c-3.215-1.857-8.131-2.048-10.923-.451L61.7,304.92c-2.785,1.6-2.437,4.444.785,6.3l45.357,26.188C111.061,339.259,115.976,339.457,118.761,337.852Z" transform="translate(-18.98 -96.02)" fill="#fff"/>
      <path id="Tracé_6851" data-name="Tracé 6851" d="M45.47,334.444l2.048.86,1.939-1.12c2.785-1.611,7.7-1.406,10.923.451L96.9,355.723l11.5,4.779v3.864h0a3.188,3.188,0,0,1-1.85,2.779l-2.13,1.229c-2.785,1.6-7.7,1.406-10.923-.457l-45.364-26.2c-1.7-.983-2.581-2.239-2.635-3.448h0Z" transform="translate(-14.428 -105.699)" fill="#c8deff"/>
      <path id="Tracé_6852" data-name="Tracé 6852" d="M104.412,362.824l2.13-1.229c2.785-1.6,2.437-4.444-.785-6.3L60.4,329.106c-3.222-1.864-8.138-2.048-10.923-.457l-2.13,1.263c-2.785,1.611-2.43,4.451.785,6.308L93.5,362.407C96.712,364.23,101.627,364.435,104.412,362.824Z" transform="translate(-14.428 -103.945)" fill="#fff"/>
    </g>
    <g id="Pin" transform="translate(18.999 -13)">
      <path id="Tracé_6853" data-name="Tracé 6853" d="M34.33,6.67H32.548v93.6h0a.894.894,0,1,0,1.782,0h0Z" transform="translate(-10.326 -2.116)" fill="#fff"/>
      <circle id="Ellipse_159" data-name="Ellipse 159" cx="3.966" cy="3.966" r="3.966" transform="translate(19.149)" fill="url(#linear-gradient)"/>
    </g>
    <text id="Traitement_par_m_" data-name="Traitement par m²" transform="translate(52.27 -2.691)" fill="#3d5b8e" font-size="20" font-family="ProximaNova-Semibold, Proxima Nova" font-weight="600" letter-spacing="0.02em"><tspan x="0" y="0">Traitement par m²</tspan></text>
    <path id="icons8_up_right_1" d="M26.765,18.118A1.236,1.236,0,0,0,28,16.882V8.235a1.282,1.282,0,0,0-.024-.242c-.007-.037-.021-.071-.031-.107a1.241,1.241,0,0,0-.038-.124,1.13,1.13,0,0,0-.064-.121c-.017-.03-.03-.062-.05-.091a1.24,1.24,0,0,0-.343-.343c-.029-.02-.061-.033-.091-.05a1.13,1.13,0,0,0-.121-.064,1.241,1.241,0,0,0-.124-.038c-.036-.01-.07-.024-.107-.031A1.282,1.282,0,0,0,26.765,7H18.118a1.235,1.235,0,1,0,0,2.471h5.665L7.362,25.891a1.235,1.235,0,1,0,1.747,1.747L25.53,11.217v5.665A1.236,1.236,0,0,0,26.765,18.118Z" transform="translate(203.978 61.914) rotate(77)" fill="#c8deff"/>
    <path id="icons8_up_right_1-2" data-name="icons8_up_right_1" d="M19.765,9.882A1.236,1.236,0,0,1,21,11.118v8.647a1.282,1.282,0,0,1-.024.242c-.007.037-.021.071-.031.107a1.241,1.241,0,0,1-.038.124,1.13,1.13,0,0,1-.064.121c-.017.03-.03.062-.05.091a1.24,1.24,0,0,1-.343.343c-.029.02-.061.033-.091.05a1.129,1.129,0,0,1-.121.064,1.241,1.241,0,0,1-.124.038c-.036.01-.07.024-.107.031a1.282,1.282,0,0,1-.242.024H11.118a1.235,1.235,0,1,1,0-2.471h5.665L.362,2.109A1.235,1.235,0,1,1,2.108.362L18.529,16.783V11.118A1.236,1.236,0,0,1,19.765,9.882Z" transform="translate(104.455 75.033) rotate(103)" fill="#c8deff"/>
  </g>
</svg>
