<svg xmlns="http://www.w3.org/2000/svg" xmlns:xlink="http://www.w3.org/1999/xlink" width="204.174" height="194.029" viewBox="0 0 204.174 194.029">
  <defs>
    <filter id="Polygone_11" x="68.123" y="62.029" width="89" height="109" filterUnits="userSpaceOnUse">
      <feOffset dy="4" input="SourceAlpha"/>
      <feGaussianBlur stdDeviation="4" result="blur"/>
      <feFlood flood-color="#7db1ff" flood-opacity="0.6"/>
      <feComposite operator="in" in2="blur"/>
      <feComposite in="SourceGraphic"/>
    </filter>
  </defs>
  <g id="Play_Video" data-name="Play Video" transform="translate(-285.877 -1871.971)">
    <g id="Likdom_en_video" data-name="Likdom en video" transform="matrix(0.999, 0.035, -0.035, 0.999, -617.922, 1091.055)">
      <path id="Tracé_4537" data-name="Tracé 4537" d="M954.393,1378.231l2.735,1.74-6.99,10.992L932.747,1379.9l2.011-3.162,14.656,9.32Z" transform="translate(0 -577.773)" fill="#fff"/>
      <path id="Tracé_4538" data-name="Tracé 4538" d="M1043.521,1205.547a2.064,2.064,0,0,1,.839,1.517,2.222,2.222,0,0,1-.508,1.577,2.259,2.259,0,0,1-1.453.854,2.062,2.062,0,0,1-1.661-.5,2.1,2.1,0,0,1-.863-1.536,2.261,2.261,0,0,1,.526-1.6,2.224,2.224,0,0,1,1.434-.831A2.1,2.1,0,0,1,1043.521,1205.547Zm15.407,12.922-2.259,2.8-12.107-9.764,2.259-2.8Z" transform="translate(-98.022 -420.631)" fill="#fff"/>
      <path id="Tracé_4539" data-name="Tracé 4539" d="M1119.776,1096.86q-.014-.988-.037-2.114t-.067-2.23q-.044-1.1-.1-2.114t-.113-1.746l3.03-2.984q.112,2.228.191,4.655t.085,4.8a20.669,20.669,0,0,1,2.594-.03q1.439.065,2.929.267t2.9.487a24.332,24.332,0,0,1,2.5.631l-2.966,2.922q-1.028-.281-2.236-.511t-2.448-.344q-1.24-.114-2.428-.134a14.03,14.03,0,0,0-2.178.12l5.009,5.085-2.564,2.525-15.778-16.018,2.146-2.949Z" transform="translate(-160.446 -311.436)" fill="#fff"/>
      <path id="Tracé_4540" data-name="Tracé 4540" d="M1353.143,912.266a21.235,21.235,0,0,1-1.833,2.058,20.877,20.877,0,0,1-2.6,2.211,9.082,9.082,0,0,1-3.007,1.475,6.873,6.873,0,0,1-2.962.14,7.13,7.13,0,0,1-2.775-1.15,9.75,9.75,0,0,1-2.423-2.414,11.364,11.364,0,0,1-1.585-2.982,7.32,7.32,0,0,1-.409-2.878,6.028,6.028,0,0,1,.793-2.609,7.056,7.056,0,0,1,2.047-2.194,6.734,6.734,0,0,1,1.772-.95,8.931,8.931,0,0,1,1.554-.389l-4.371-6.051,2.569-2.589Zm-12.667.088a5.648,5.648,0,0,0,3.1,2.364,3.848,3.848,0,0,0,3.324-.732,12.375,12.375,0,0,0,1.15-.922,9.829,9.829,0,0,0,.712-.716l-5.224-7.233a5.607,5.607,0,0,0-1.382.246,4.949,4.949,0,0,0-1.528.755,3.219,3.219,0,0,0-1.543,2.766A6.38,6.38,0,0,0,1340.476,912.354Z" transform="translate(-368.557 -135.999)" fill="#fff"/>
      <path id="Tracé_4541" data-name="Tracé 4541" d="M1536.468,883.578a10.048,10.048,0,0,1,1.011,3.249,7.441,7.441,0,0,1-.212,2.992,6.82,6.82,0,0,1-1.38,2.541,7.639,7.639,0,0,1-2.468,1.885,7.532,7.532,0,0,1-2.983.813,6.851,6.851,0,0,1-2.844-.451,7.622,7.622,0,0,1-2.521-1.64,9.787,9.787,0,0,1-1.984-2.768,9.661,9.661,0,0,1-.991-3.243,7.518,7.518,0,0,1,.245-2.992,6.834,6.834,0,0,1,1.387-2.528,7.619,7.619,0,0,1,2.435-1.852,7.725,7.725,0,0,1,2.963-.819,6.653,6.653,0,0,1,2.851.431,7.661,7.661,0,0,1,2.514,1.626A9.676,9.676,0,0,1,1536.468,883.578Zm-3.305,1.636a6.072,6.072,0,0,0-2.522-2.85,3.534,3.534,0,0,0-4.984,2.467,6.069,6.069,0,0,0,.736,3.734,6.191,6.191,0,0,0,2.542,2.89,3.51,3.51,0,0,0,4.984-2.467A6.193,6.193,0,0,0,1533.162,885.213Z" transform="translate(-539.224 -122.099)" fill="#fff"/>
      <path id="Tracé_4542" data-name="Tracé 4542" d="M1727.053,782.291a7.581,7.581,0,0,0-1.479-3.257,2.378,2.378,0,0,0-2.475-.477,10.622,10.622,0,0,0-1.244.416q-.668.266-1,.414l3.165,12.145-3.482.908-3.8-14.562a24.058,24.058,0,0,1,2.491-1.233,22.59,22.59,0,0,1,3.372-1.155,7.078,7.078,0,0,1,2.652-.261,5.1,5.1,0,0,1,1.932.634,7,7,0,0,1,.678-.7,8.589,8.589,0,0,1,.97-.76,10.367,10.367,0,0,1,1.187-.694,6.787,6.787,0,0,1,1.33-.5,7.422,7.422,0,0,1,3.023-.25,4.391,4.391,0,0,1,2.152.945,5.669,5.669,0,0,1,1.462,1.955,15.507,15.507,0,0,1,.976,2.742l2.205,8.461-3.482.908-2.062-7.914a7.747,7.747,0,0,0-1.464-3.26,2.373,2.373,0,0,0-2.49-.473,4.727,4.727,0,0,0-1.511.686,5.328,5.328,0,0,0-.984.825,7.939,7.939,0,0,1,.714,1.443,16.743,16.743,0,0,1,.536,1.7l2.167,8.317-3.482.907Z" transform="translate(-717.379 -25.236)" fill="#fff"/>
      <path id="Tracé_4543" data-name="Tracé 4543" d="M2113.936,753.436a9.77,9.77,0,0,1,.668-3.588,7.556,7.556,0,0,1,1.662-2.546,6.7,6.7,0,0,1,2.345-1.509,7.189,7.189,0,0,1,2.685-.477,6.408,6.408,0,0,1,4.978,2.074q1.767,2.022,1.7,5.976,0,.3-.025.669t-.056.668l-10.259-.166a4.1,4.1,0,0,0,1.276,2.921,5.028,5.028,0,0,0,3.388,1.081,11.182,11.182,0,0,0,2.4-.2,9.858,9.858,0,0,0,1.718-.478l.428,2.952a5.7,5.7,0,0,1-.823.3,11.536,11.536,0,0,1-1.194.278q-.671.123-1.446.2a13.75,13.75,0,0,1-1.577.064,9.548,9.548,0,0,1-3.559-.667,6.638,6.638,0,0,1-2.47-1.736,6.941,6.941,0,0,1-1.416-2.581A10.44,10.44,0,0,1,2113.936,753.436ZM2124.4,752a4.728,4.728,0,0,0-.185-1.416,3.415,3.415,0,0,0-.591-1.17,2.889,2.889,0,0,0-.969-.789,3.132,3.132,0,0,0-1.378-.3,3.219,3.219,0,0,0-1.462.289,3.318,3.318,0,0,0-1.069.8,3.738,3.738,0,0,0-.688,1.149,6.284,6.284,0,0,0-.349,1.333Z" transform="translate(-1080.82 0)" fill="#fff"/>
      <path id="Tracé_4544" data-name="Tracé 4544" d="M2315.813,761.452a24.171,24.171,0,0,1,2.763-.1,23.337,23.337,0,0,1,3.68.354,8.49,8.49,0,0,1,3.05,1.046,4.968,4.968,0,0,1,1.764,1.778,5.57,5.57,0,0,1,.677,2.408,12.626,12.626,0,0,1-.177,2.911l-1.464,8.62-3.548-.6,1.369-8.063a11.859,11.859,0,0,0,.195-2.124,3.784,3.784,0,0,0-.289-1.5,2.14,2.14,0,0,0-.862-.961,4.271,4.271,0,0,0-1.5-.511,12,12,0,0,0-1.422-.151q-.748-.037-1.109-.038l-2.1,12.373-3.548-.6Z" transform="translate(-1263.238 -14.669)" fill="#fff"/>
      <path id="Tracé_4545" data-name="Tracé 4545" d="M2621.44,836.018q-.22-3.4-.166-7.669a88.887,88.887,0,0,1,.591-8.966l3.552,1.455q-.193,1.336-.361,2.889t-.282,3.131q-.114,1.577-.166,3.082t-.066,2.721q.843-.876,1.848-1.991t2.031-2.318q1.025-1.2,2.009-2.423t1.784-2.306l3.441,1.41a89.2,89.2,0,0,1-5.869,6.8q-2.957,3.079-5.5,5.348Z" transform="translate(-1545.039 -67.774)" fill="#fff"/>
      <path id="Tracé_4546" data-name="Tracé 4546" d="M2745.3,866.092l-3.157-1.728,7.468-13.644,3.156,1.728Zm9.991-17.45a2.064,2.064,0,0,1-1.345,1.095,2.222,2.222,0,0,1-1.642-.221,2.26,2.26,0,0,1-1.1-1.279,2.062,2.062,0,0,1,.2-1.723,2.1,2.1,0,0,1,1.359-1.121,2.261,2.261,0,0,1,1.668.235,2.221,2.221,0,0,1,1.071,1.264A2.1,2.1,0,0,1,2755.287,848.641Z" transform="translate(-1655.645 -91.513)" fill="#fff"/>
      <path id="Tracé_4547" data-name="Tracé 4547" d="M2853.238,982.133a21.218,21.218,0,0,1-2.534-1.084,20.876,20.876,0,0,1-2.924-1.766,9.084,9.084,0,0,1-2.354-2.382,6.869,6.869,0,0,1-1.074-2.764,7.129,7.129,0,0,1,.209-3,9.748,9.748,0,0,1,1.519-3.064,11.357,11.357,0,0,1,2.324-2.451,7.318,7.318,0,0,1,2.6-1.3,6.031,6.031,0,0,1,2.726-.077,7.061,7.061,0,0,1,2.731,1.244,6.739,6.739,0,0,1,1.464,1.378,8.954,8.954,0,0,1,.862,1.35l4.349-6.067,3.271,1.613Zm-4.108-11.983a5.647,5.647,0,0,0-1.256,3.692,3.847,3.847,0,0,0,1.75,2.919,12.4,12.4,0,0,0,1.24.8,9.9,9.9,0,0,0,.905.448l5.2-7.252a5.613,5.613,0,0,0-.672-1.232,4.951,4.951,0,0,0-1.2-1.208,3.219,3.219,0,0,0-3.113-.584A6.38,6.38,0,0,0,2849.129,970.15Z" transform="translate(-1749.104 -198.409)" fill="#fff"/>
      <path id="Tracé_4548" data-name="Tracé 4548" d="M3007.777,1129.451a9.775,9.775,0,0,1,2.971-2.12,7.552,7.552,0,0,1,2.964-.679,6.705,6.705,0,0,1,2.735.541,7.185,7.185,0,0,1,2.264,1.52,6.407,6.407,0,0,1,2.145,4.948q-.131,2.681-2.922,5.484-.21.211-.482.464t-.5.443l-7.271-7.24a4.1,4.1,0,0,0-1.108,2.989,5.026,5.026,0,0,0,1.689,3.13,11.166,11.166,0,0,0,1.865,1.521,9.826,9.826,0,0,0,1.568.848l-1.74,2.422a5.681,5.681,0,0,1-.8-.356,11.571,11.571,0,0,1-1.053-.629q-.568-.378-1.179-.86a13.8,13.8,0,0,1-1.18-1.049,9.539,9.539,0,0,1-2.1-2.95,6.636,6.636,0,0,1-.574-2.964,6.94,6.94,0,0,1,.772-2.841A10.442,10.442,0,0,1,3007.777,1129.451Zm8.53,6.228a4.744,4.744,0,0,0,.849-1.148,3.411,3.411,0,0,0,.386-1.252,2.886,2.886,0,0,0-.15-1.24,3.129,3.129,0,0,0-.781-1.176,3.219,3.219,0,0,0-1.253-.807,3.32,3.32,0,0,0-1.325-.166,3.745,3.745,0,0,0-1.293.35,6.271,6.271,0,0,0-1.176.718Z" transform="translate(-1896.223 -348.934)" fill="#fff"/>
      <path id="Tracé_4549" data-name="Tracé 4549" d="M3149.81,1298.218a10.039,10.039,0,0,1-3.038,1.535,7.44,7.44,0,0,1-2.985.286,6.819,6.819,0,0,1-2.735-.941,7.639,7.639,0,0,1-2.268-2.122,7.533,7.533,0,0,1-1.295-2.807,6.845,6.845,0,0,1-.026-2.88,7.619,7.619,0,0,1,1.2-2.757,9.784,9.784,0,0,1,2.4-2.415,9.664,9.664,0,0,1,3.034-1.514,7.518,7.518,0,0,1,2.991-.254,6.831,6.831,0,0,1,2.723.949,7.615,7.615,0,0,1,2.229,2.095,7.727,7.727,0,0,1,1.3,2.786,6.656,6.656,0,0,1,.047,2.883,7.663,7.663,0,0,1-1.188,2.748A9.669,9.669,0,0,1,3149.81,1298.218Zm-2.16-2.989a6.075,6.075,0,0,0,2.393-2.959,3.534,3.534,0,0,0-3.258-4.507,6.068,6.068,0,0,0-3.561,1.344,6.191,6.191,0,0,0-2.429,2.985,3.51,3.51,0,0,0,3.258,4.507A6.2,6.2,0,0,0,3147.65,1295.229Z" transform="translate(-2017.248 -493.184)" fill="#fff"/>
    </g>
    <g id="Play_Icon" data-name="Play Icon" transform="translate(17 -19)">
      <circle id="Ellipse_48" data-name="Ellipse 48" cx="81" cy="81" r="81" transform="translate(292 1923)" fill="#fff" opacity="0.3"/>
      <circle id="Ellipse_50" data-name="Ellipse 50" cx="68" cy="68" r="68" transform="translate(305 1936)" fill="#fff" opacity="0.597"/>
      <circle id="Ellipse_49" data-name="Ellipse 49" cx="55" cy="55" r="55" transform="translate(318 1949)" fill="#fff"/>
      <g transform="matrix(1, 0, 0, 1, 268.88, 1890.97)" filter="url(#Polygone_11)">
        <path id="Polygone_11-2" data-name="Polygone 11" d="M35.8,10.241a8,8,0,0,1,13.392,0L76.907,52.622A8,8,0,0,1,70.211,65H14.789a8,8,0,0,1-6.7-12.378Z" transform="translate(145.12 70.03) rotate(90)" fill="#7db1ff"/>
      </g>
    </g>
  </g>
</svg>
