<svg xmlns="http://www.w3.org/2000/svg" xmlns:xlink="http://www.w3.org/1999/xlink" width="166.511" height="196" viewBox="0 0 166.511 196">
  <defs>
    <linearGradient id="linear-gradient" x1="0.5" y1="-0.015" x2="0.5" y2="1.033" gradientUnits="objectBoundingBox">
      <stop offset="0" stop-color="#7395cf"/>
      <stop offset="1" stop-color="#3d5b8e"/>
    </linearGradient>
    <radialGradient id="radial-gradient" cx="0.5" cy="0.5" r="0.5" gradientUnits="objectBoundingBox">
      <stop offset="0" stop-color="#ffe299"/>
      <stop offset="0.396" stop-color="#fdcb4d"/>
      <stop offset="0.639" stop-color="#f7c13a"/>
      <stop offset="1" stop-color="#f0b421"/>
    </radialGradient>
    <linearGradient id="linear-gradient-2" x1="0.5" y1="0.011" x2="0.5" y2="1.011" gradientUnits="objectBoundingBox">
      <stop offset="0" stop-color="#eba600"/>
      <stop offset="1" stop-color="#c28200"/>
    </linearGradient>
    <linearGradient id="linear-gradient-3" x1="0.5" y1="0.965" x2="0.5" y2="-0.011" gradientUnits="objectBoundingBox">
      <stop offset="0" stop-color="#ffcf54"/>
      <stop offset="0.261" stop-color="#fdcb4d"/>
      <stop offset="0.639" stop-color="#f7c13a"/>
      <stop offset="1" stop-color="#f0b421"/>
    </linearGradient>
    <linearGradient id="linear-gradient-4" y1="0.992" y2="0.056" xlink:href="#linear-gradient-2"/>
    <linearGradient id="linear-gradient-5" y1="0.975" y2="0.048" xlink:href="#linear-gradient-2"/>
    <linearGradient id="linear-gradient-6" x1="0.434" y1="-0.186" x2="0.553" y2="1.542" gradientUnits="objectBoundingBox">
      <stop offset="0" stop-color="#0d61a9"/>
      <stop offset="1" stop-color="#16528c"/>
    </linearGradient>
  </defs>
  <g id="Super_Ménage" data-name="Super Ménage" transform="translate(0.488 0.465)" opacity="0.5">
    <g id="Tracé_4498" data-name="Tracé 4498" transform="translate(56.751 -0.465) rotate(30)" fill="#fff" stroke-linecap="round">
      <path d="M 84.77576446533203 110.4782867431641 L 84.75612640380859 110.478271484375 L 41.570068359375 110.4251480102539 C 38.77158737182617 110.4217300415039 36.0086669921875 109.6769256591797 33.5799674987793 108.2713088989258 C 31.14816665649414 106.8638916015625 29.115966796875 104.831428527832 27.70306587219238 102.3936462402344 L 6.18614673614502 65.26895141601562 C 3.285386562347412 60.2640266418457 3.276866436004639 54.05184936523438 6.163926601409912 49.05666732788086 L 27.59030723571777 11.98474788665771 C 28.99310684204102 9.55762767791748 31.01396560668945 7.535347938537598 33.43442535400391 6.136568069458008 C 35.85308837890625 4.738808155059814 38.60786819458008 3.999988079071045 41.40096664428711 3.999988079071045 L 41.42064666748047 4.000008106231689 L 84.60670471191406 4.053108215332031 C 87.40518951416016 4.056548118591309 90.16812896728516 4.801328182220459 92.59682464599609 6.206968307495117 C 95.02862548828125 7.614387989044189 97.06082916259766 9.646827697753906 98.47372436523438 12.08460807800293 L 119.9906234741211 49.20930862426758 C 122.8914031982422 54.21422958374023 122.8999252319336 60.42640686035156 120.0128631591797 65.42158508300781 L 98.58648681640625 102.4935073852539 C 97.18368530273438 104.9206466674805 95.16282653808594 106.9429244995117 92.74236297607422 108.3417053222656 C 90.32368469238281 109.7394714355469 87.56888580322266 110.4782867431641 84.77576446533203 110.4782867431641 Z" stroke="none"/>
      <path d="M 41.40095520019531 -1.52587890625e-05 L 41.40095520019531 7.999984741210938 C 37.15258026123047 7.999984741210938 33.18764495849609 10.29384613037109 31.05348205566406 13.98636627197266 L 9.6270751953125 51.05831909179688 C 7.454597473144531 54.81710433959961 7.462196350097656 59.49372482299805 9.64691162109375 63.26315307617188 L 31.163818359375 100.3878631591797 C 33.31912231445312 104.106559753418 37.30843353271484 106.4199142456055 41.57498168945312 106.4251556396484 L 84.77581787109375 106.478271484375 C 89.02421569824219 106.478271484375 92.98915100097656 104.184440612793 95.12331390380859 100.4918899536133 L 116.5496978759766 63.41996002197266 C 118.7221755981445 59.66115188598633 118.7145767211914 54.98453140258789 116.5298614501953 51.21510314941406 L 95.01295471191406 14.09041595458984 C 92.85765075683594 10.37169647216797 88.86833953857422 8.058341979980469 84.60179138183594 8.0531005859375 L 41.41571807861328 8.000007629394531 L 41.40095520019531 -1.52587890625e-05 M 41.40095520019531 -7.62939453125e-06 C 41.40922546386719 -7.62939453125e-06 41.41728210449219 0 41.42555236816406 7.62939453125e-06 L 84.61162567138672 0.0531005859375 C 91.74376678466797 0.06186676025390625 98.34214782714844 3.880744934082031 101.934455871582 10.07881927490234 L 123.4513626098633 47.20350646972656 C 127.0764312744141 53.45808029174805 127.0858383178711 61.17753219604492 123.4760513305664 67.42317199707031 L 102.049674987793 104.4951019287109 C 98.47248077392578 110.6843643188477 91.88145446777344 114.4870071411133 84.751220703125 114.4782485961914 L 41.56514739990234 114.4251556396484 C 34.43302917480469 114.416389465332 27.83462524414062 110.5975112915039 24.24231719970703 104.3994598388672 L 2.725410461425781 67.27474975585938 C -0.8996353149414062 61.02019882202148 -0.9090652465820312 53.30072402954102 2.70074462890625 47.05508422851562 L 24.12712097167969 9.983154296875 C 27.70016479492188 3.801094055175781 34.27836608886719 -7.62939453125e-06 41.40095520019531 -7.62939453125e-06 Z" stroke="none" fill="#5493ff"/>
    </g>
    <text id="Super_Ménage-2" data-name="Super
Ménage" transform="translate(83.474 174.535)" fill="#5493ff" font-size="16" font-family="Ubuntu-Bold, Ubuntu" font-weight="700"><tspan x="-22" y="0">Super</tspan><tspan x="-30" y="18">Ménage</tspan></text>
    <g id="Super_Ménage_icon" data-name="Super Ménage icon" transform="translate(49.36 47.76)">
      <g id="Maison_icon" data-name="Maison icon" transform="translate(9.152 10.775)">
        <g id="Groupe_104" data-name="Groupe 104" transform="translate(0)">
          <path id="Tracé_5751" data-name="Tracé 5751" d="M47.374,39H6v2.341a2.32,2.32,0,0,0,2.3,2.341H45.075a2.32,2.32,0,0,0,2.3-2.341Z" transform="translate(-2.687 4.317)" fill="#a7a7a7"/>
          <path id="Tracé_5752" data-name="Tracé 5752" d="M47.374,45.146H6V22.9L26.687,3,47.374,22.9Z" transform="translate(-2.687 -1.829)" fill="#ccc"/>
          <path id="Tracé_5753" data-name="Tracé 5753" d="M19.171,25H30.878a1.171,1.171,0,0,1,1.171,1.171v19.9H18v-19.9A1.171,1.171,0,0,1,19.171,25Z" transform="translate(-1.024 1.927)" fill="#3d5b8e"/>
          <path id="Tracé_5755" data-name="Tracé 5755" d="M26.687,4a2.269,2.269,0,0,0-1.524.589L19,10.221,6,22.732v6.31L26.687,10.355,47.374,29.042v-6.31l-13-12.51L28.211,4.589A2.269,2.269,0,0,0,26.687,4Z" transform="translate(-2.687 -1.659)" opacity="0.07"/>
          <path id="Tracé_5756" data-name="Tracé 5756" d="M26.687,3a2.277,2.277,0,0,0-1.524.585L19,9.186,6,21.625V27.9L26.687,9.318,47.374,27.9V21.625l-13-12.439-6.159-5.6A2.277,2.277,0,0,0,26.687,3Z" transform="translate(-2.687 -1.829)" opacity="0.09"/>
          <path id="Tracé_5757" data-name="Tracé 5757" d="M50.784,22.5,28.7,2.589a2.276,2.276,0,0,0-3.056,0L3.556,22.5a1.182,1.182,0,0,0-.074,1.674l1.885,2.043a1.139,1.139,0,0,0,1.6.078L27.17,8.355l20.2,17.938a1.14,1.14,0,0,0,1.6-.078l1.885-2.043A1.184,1.184,0,0,0,50.784,22.5Z" transform="translate(-3.17 -2)" fill="url(#linear-gradient)"/>
        </g>
      </g>
      <g id="icons8_sparkles_1" transform="translate(-2.377 -4.895)">
        <path id="Tracé_5801" data-name="Tracé 5801" d="M7.286,4.895h0A4.911,4.911,0,0,0,12.195,9.8h0a4.911,4.911,0,0,0-4.909,4.909h0A4.911,4.911,0,0,0,2.377,9.8h0A4.911,4.911,0,0,0,7.286,4.895Z" fill="url(#radial-gradient)"/>
        <path id="Tracé_5813" data-name="Tracé 5813" d="M10.792,29.789h0a4.034,4.034,0,0,0,4.034,4.034h0a4.034,4.034,0,0,0-4.034,4.034h0a4.034,4.034,0,0,0-4.034-4.034h0a4.034,4.034,0,0,0,4.034-4.034Z" transform="translate(-1.484 -9.168)" fill="url(#radial-gradient)"/>
        <path id="Tracé_5826" data-name="Tracé 5826" d="M21.631,7.126h0A11.459,11.459,0,0,0,33.263,18.389h0A11.459,11.459,0,0,0,21.631,29.651h0A11.459,11.459,0,0,0,10,18.389h0A11.459,11.459,0,0,0,21.631,7.126Z" transform="translate(-2.886 -0.756)" fill="url(#radial-gradient)"/>
      </g>
      <g id="icons8_broom_1" transform="translate(37.152 30.775)">
        <path id="Tracé_5827" data-name="Tracé 5827" d="M24.687,12.061H21V2.844A1.843,1.843,0,0,1,22.844,1h0a1.843,1.843,0,0,1,1.844,1.844Z" transform="translate(-5.844)" fill="url(#linear-gradient-2)"/>
        <rect id="Rectangle_372" data-name="Rectangle 372" width="3.513" height="3.513" transform="translate(15.307 8.55)" fill="#16528c"/>
        <path id="Tracé_5828" data-name="Tracé 5828" d="M25.556,24H8.444A75.233,75.233,0,0,1,6,35.676,47.768,47.768,0,0,0,17,36.9a47.767,47.767,0,0,0,11-1.229A75.233,75.233,0,0,1,25.556,24Z" transform="translate(0 -8.905)" fill="url(#linear-gradient-3)"/>
        <path id="Tracé_5829" data-name="Tracé 5829" d="M16.973,40.623V34a40.466,40.466,0,0,1-1.636,6.481C15.855,40.534,16.4,40.582,16.973,40.623Z" transform="translate(-3.634 -12.76)" fill="url(#linear-gradient-4)"/>
        <path id="Tracé_5830" data-name="Tracé 5830" d="M32.711,38.476A84.307,84.307,0,0,1,31,29v9.648C31.6,38.6,32.172,38.539,32.711,38.476Z" transform="translate(-9.729 -10.832)" fill="url(#linear-gradient-5)"/>
        <path id="Tracé_5831" data-name="Tracé 5831" d="M27.084,21.3H10V19.6a1.833,1.833,0,0,1,1.371-1.785A29.425,29.425,0,0,1,18.542,17a29.425,29.425,0,0,1,7.171.814A1.833,1.833,0,0,1,27.084,19.6Z" transform="translate(-1.542 -6.184)" fill="url(#linear-gradient-6)"/>
      </g>
    </g>
  </g>
</svg>
