<svg xmlns="http://www.w3.org/2000/svg" width="283.923" height="228.12" viewBox="0 0 283.923 228.12">
  <g id="Villa_Isometric" data-name="Villa Isometric" transform="translate(0 0)">
    <path id="Tracé_4906" data-name="Tracé 4906" d="M283.923,107.856l-53.662,31.18-14.617,8.437-39.159,22.612-30.3,17.544-26.962,15.565L0,134.54l27.8-16.056,5.772-3.27,1.063-.6,5.755-3.27.834-.491,3.842-2.224.916-.523,3.793-2.224.9-.523,5.853-3.368,1.046-.621,3.564-2.06.736-.409.311-.2.523-.294,3.859-2.338.916-.54,4.3-2.485,2.207-1.259,3.859-2.256,1.766-1.014,33.436-19.244,14.486-8.388L164.647,39.25l11.233,6.54.67.376,1.521.883,6.115,3.532.916.523,3.107,1.8,1.063.6L200.912,60.1Z" transform="translate(0 24.925)" fill="#b2ceff"/>
    <path id="Tracé_4907" data-name="Tracé 4907" d="M159.858,74.146a9.81,9.81,0,0,0-7.014-.736,9.941,9.941,0,0,0-8.535.18h0a9.941,9.941,0,0,0-8.4.147,9.81,9.81,0,0,0-6.54.867c-2.453,1.422-2.453,3.711,0,5.134a9.81,9.81,0,0,0,8.747.1,9.81,9.81,0,0,0,6.54-.867h.082a10.154,10.154,0,0,0,6.622.54,9.941,9.941,0,0,0,8.535-.18C162.31,77.857,162.31,75.568,159.858,74.146Z" transform="translate(80.982 46.062)" fill="#3f72df" opacity="0.2"/>
    <path id="Tracé_4908" data-name="Tracé 4908" d="M148.352,76.944a1.848,1.848,0,0,1-.572.343,2.174,2.174,0,0,1-1.5-.082h-.147a3.025,3.025,0,0,1-2.077-.114,2.322,2.322,0,0,0-.768-.163c-.278,0-.458.114-.768,0a2.665,2.665,0,0,1-.85-.752.5.5,0,0,1-.556.425c-.262-.016-.965-.654-1.5-.556a.834.834,0,0,0-.294.147,1.537,1.537,0,0,1,.491-.883,3.988,3.988,0,0,1,1-.638,1.962,1.962,0,0,1,1.145-.311,2.109,2.109,0,0,1,1.014.6,2.894,2.894,0,0,0,.981.6,1.194,1.194,0,0,0,1.1-.163.932.932,0,0,0,1.39.556,1.635,1.635,0,0,0,1.929,1.046Z" transform="translate(88.466 47.22)" fill="#a1bd6a"/>
    <path id="Tracé_4909" data-name="Tracé 4909" d="M155.984,77.962a1.1,1.1,0,0,1-.817.752,1.766,1.766,0,0,1-.441,1.128A1.521,1.521,0,0,1,154.512,81a1.979,1.979,0,0,1-.343.392,1.848,1.848,0,0,1-.572.343,2.175,2.175,0,0,1-1.5-.082h-.147a3.025,3.025,0,0,1-2.076-.114,2.322,2.322,0,0,0-.768-.164c-.278,0-.458.114-.768,0a2.911,2.911,0,0,1-.85-.752.5.5,0,0,1-.556.425c-.262-.016-.965-.654-1.5-.556a.834.834,0,0,0-.294.147c-.278.213-.425.589-.768.768a1.455,1.455,0,0,1-1.635-.2c-.392,3.27-4.447-.164-4.643.147a.785.785,0,0,1-.572.376,1.423,1.423,0,0,1-.752-.18,1.733,1.733,0,0,0-.981-.229c-.311,0-.425.376-.67.474-.589.2-.916-.229-1.422-.6-.916-.67-2.829-.916-2.077-2.632a1.472,1.472,0,0,1-.965-1.978,2.4,2.4,0,0,1,1.145-3.5,2.158,2.158,0,0,1-.213-3.27,2,2,0,0,1,1.635-.491,2.486,2.486,0,0,1,.965.311,1.913,1.913,0,0,0,.589.245.8.8,0,0,1,.343-.425.867.867,0,0,1,1.128.278,2.637,2.637,0,0,0,.163.294.311.311,0,0,0,.278.131.556.556,0,0,0,.229-.147.818.818,0,0,1,.883,0,2.06,2.06,0,0,1,.507.491l.114.18a.474.474,0,0,1,.18-.327,1.112,1.112,0,0,1-.311-.736A2.829,2.829,0,0,1,139.7,67.5a2.044,2.044,0,0,1,1.766.114,1.782,1.782,0,0,1,.638.572c.131-.523,1-.425,1.226,0v.131h.213a1.079,1.079,0,0,1,1,1.194,1.275,1.275,0,0,1,.67-.474c.278,0,.6.2.523.474a.9.9,0,0,1,1.259.163,1.145,1.145,0,0,1,1.946.18,2.077,2.077,0,0,1,.834-.082.67.67,0,0,1,.572.54,3.123,3.123,0,0,1-.1.54v.2a1.194,1.194,0,0,1,1.373.6c.262-.491,1.079,0,1.145.507v.114a1.635,1.635,0,0,1,.54,1.635.834.834,0,0,1,1.177,1.112,1,1,0,0,1,.736.785.883.883,0,0,1,0,.507,1.766,1.766,0,0,1,.768,1.651Z" transform="translate(82.73 42.769)" fill="#c9ddff"/>
    <path id="Tracé_4910" data-name="Tracé 4910" d="M152.011,80.9h-.147a3.025,3.025,0,0,1-2.077-.114,2.321,2.321,0,0,0-.768-.163c-.278,0-.474.114-.769,0a2.436,2.436,0,0,1-.85-.736.5.5,0,0,1-.556.425c-.262-.016-.965-.654-1.5-.556s-.621.687-1.063.916a1.439,1.439,0,0,1-1.635-.2c-.392,3.27-4.447-.163-4.643.147a.785.785,0,0,1-.572.376,1.39,1.39,0,0,1-.752-.18,1.635,1.635,0,0,0-.981-.229c-.311,0-.425.376-.67.474-.589.2-.916-.229-1.422-.6-.916-.67-2.829-.916-2.077-2.632a1.472,1.472,0,0,1-.883-1.995,2.4,2.4,0,0,1,1.145-3.5,2.158,2.158,0,0,1-.213-3.27,2,2,0,0,1,1.635-.491,1.782,1.782,0,0,0,.294,1.406c-.458-.164-.768.621-.425.981a1.439,1.439,0,0,0,1.39.18,2.747,2.747,0,0,1,1.439-.147.785.785,0,0,1,.491.948,1.308,1.308,0,0,1,1.21-.311,1.243,1.243,0,0,1,.85,1.177,1.046,1.046,0,0,1,1.177-.507,1.03,1.03,0,0,1,.719,1.063,1.848,1.848,0,0,1-.147,2.7.834.834,0,0,1,.49,1.194.6.6,0,0,1,.491-.2c.1.392.18.785.262,1.194l1.422-.556a1.455,1.455,0,0,0,.916,1.39,1.423,1.423,0,0,0,1.635-.458l2.7.638a2.812,2.812,0,0,0,3.842.687A2.649,2.649,0,0,0,152.011,80.9Z" transform="translate(82.73 43.528)" fill="#8eb8ff"/>
    <path id="Tracé_4911" data-name="Tracé 4911" d="M139.489,72.3c0,.2-.311.327-.425.163-.556.392-1.308.1-1.929-.2a5.248,5.248,0,0,1-1.5-1,1.946,1.946,0,0,1-.441-.752,1.357,1.357,0,0,1,0-.883,2.829,2.829,0,0,1,1.422-2.126,2.044,2.044,0,0,1,1.766.114,7.41,7.41,0,0,1-.883,1c-.2.213-.687.491-.719.85a1.226,1.226,0,0,0,.229.736,3.908,3.908,0,0,0,.883,1.161,1.766,1.766,0,0,0,.736.327,3.269,3.269,0,0,1,.572.147A.474.474,0,0,1,139.489,72.3Z" transform="translate(85.802 42.775)" fill="#8eb8ff"/>
    <path id="Tracé_4912" data-name="Tracé 4912" d="M148.69,78.391a1.979,1.979,0,0,1-.343.392,1.847,1.847,0,0,1-.572.343,2.175,2.175,0,0,1-1.5-.082h-.147a3.025,3.025,0,0,1-2.077-.114,2.322,2.322,0,0,0-.768-.164c-.278,0-.458.114-.768,0s-.213-.409-.311-.6a5.806,5.806,0,0,0-1.014-1.635c-.621-.507-1.455-.376-1.782-1.373a1.864,1.864,0,0,1,.638-2.027,7.525,7.525,0,0,1,.409-1,1.194,1.194,0,0,1,.8-.654.687.687,0,0,1,.8.54c0,.556-.7.834-.867,1.357a1.439,1.439,0,0,0,.2,1,2.943,2.943,0,0,0,.474.752c.67.67,1.913.523,2.485,1.275a.7.7,0,0,1,1.014-.147.948.948,0,0,1,1.21.262,2.666,2.666,0,0,1,.458,1.275,1.472,1.472,0,0,1,1.668.6Z" transform="translate(88.471 45.38)" fill="#8eb8ff"/>
    <path id="Tracé_4913" data-name="Tracé 4913" d="M141.169,79.208a4.071,4.071,0,0,1-1.128.736,1.636,1.636,0,0,0-.311.2,2.94,2.94,0,0,0-.343.311,2.322,2.322,0,0,1-.621.425c-.376.147-.932,0-.9-.491a4.055,4.055,0,0,1-3.156-.556,1.112,1.112,0,0,1-.9.687,3.27,3.27,0,0,1-1.177-.1l-2.518-.523-.425-.082a1.766,1.766,0,0,1-.948-.392.638.638,0,0,1,0-.916,1.243,1.243,0,0,1-.8-1.635,3.27,3.27,0,0,1,1.1-1.439l.147-.131a1.848,1.848,0,0,1-.18-.36,2.551,2.551,0,0,1,1.226-3.074,1.521,1.521,0,0,1,1.815-1.21,1.014,1.014,0,0,1,.409.18,2.191,2.191,0,0,1,2.763.719,1.9,1.9,0,0,1,1.88.18c.621.441.589,1.226,1.357,1.406s1.472-.131,2.158.589a2.126,2.126,0,0,1,.311,2.469C141.317,77.148,141.791,78.39,141.169,79.208Z" transform="translate(81.194 44.841)" fill="#f5fa72"/>
    <path id="Tracé_4914" data-name="Tracé 4914" d="M138.928,79.385a1.455,1.455,0,0,1-1.39-.2,1.439,1.439,0,0,1-.556-1.275,1.626,1.626,0,0,1-1.275-2.387.6.6,0,0,1-.965.147,1.145,1.145,0,0,1-1.455,1.112,1.88,1.88,0,0,1-2.436.507,2.142,2.142,0,0,1-.507-.85,1.308,1.308,0,0,1,.638-1.635,2.8,2.8,0,0,1,1.161-3.025,1.39,1.39,0,0,1-.164-1.079,1.521,1.521,0,0,0-1.815,1.21,2.534,2.534,0,0,0-1.226,3.057,2.321,2.321,0,0,0,0,.491,3.384,3.384,0,0,0-1.1,1.455,1.243,1.243,0,0,0,.8,1.635.638.638,0,0,0,0,.916,1.766,1.766,0,0,0,.948.392l2.943.6a3.27,3.27,0,0,0,1.177.1,1.112,1.112,0,0,0,.9-.687,4.055,4.055,0,0,0,3.156.556c0,.409.523.638.9.49a2.321,2.321,0,0,0,.621-.425,2.941,2.941,0,0,1,.343-.311,1.635,1.635,0,0,1,.311-.2,3.679,3.679,0,0,0-1.014-.6Z" transform="translate(81.131 44.877)" fill="#d5f163"/>
    <path id="Tracé_4915" data-name="Tracé 4915" d="M135.879,82.575a3.27,3.27,0,0,0,2.681.327,3.27,3.27,0,0,0,3.27,0,3.515,3.515,0,0,0,3.27,0,3.27,3.27,0,0,0,2.485-.376,1.243,1.243,0,0,0,0-2.24,3.352,3.352,0,0,0-3.368,0,3.417,3.417,0,0,0-2.485.376,3.646,3.646,0,0,0-2.567-.213,3.27,3.27,0,0,0-3.27,0,1.243,1.243,0,0,0-.016,2.126Z" transform="translate(85.912 50.696)" fill="#3f72df" opacity="0.2"/>
    <path id="Tracé_4916" data-name="Tracé 4916" d="M138.888,79.8a3.27,3.27,0,0,0,2.681.327,3.27,3.27,0,0,0,3.27-.082,3.466,3.466,0,0,0,3.27,0,3.27,3.27,0,0,0,2.485-.376,1.243,1.243,0,0,0,0-2.24,3.352,3.352,0,0,0-3.368,0,3.417,3.417,0,0,0-2.485.376,3.646,3.646,0,0,0-2.567-.213,3.384,3.384,0,0,0-3.27,0,1.243,1.243,0,0,0-.016,2.207Z" transform="translate(87.776 48.879)" fill="#3f72df" opacity="0.2"/>
    <path id="Tracé_4917" data-name="Tracé 4917" d="M149.778,79.3a3.27,3.27,0,0,1-.785.719l-.213.18-.229.294a1.39,1.39,0,0,1-.409.409c-.278.164-.736,0-.768-.262a3.139,3.139,0,0,1-2.518,0,.883.883,0,0,1-.6.654,2.24,2.24,0,0,1-.932,0h-2.354a1.635,1.635,0,0,1-.785-.18.523.523,0,0,1-.18-.7c-.523,0-.883-.621-.817-1.144a2.469,2.469,0,0,1,.654-1.259l.1-.114a1.488,1.488,0,0,1-.18-.262,2,2,0,0,1,.54-2.534,1.21,1.21,0,0,1,1.259-1.177.883.883,0,0,1,.343,0,1.635,1.635,0,0,1,2.224.213,1.5,1.5,0,0,1,1.488-.114c.54.262.621.883,1.226.916s1.128-.278,1.766.18a1.635,1.635,0,0,1,.54,1.864C149.68,77.683,150.2,78.582,149.778,79.3Z" transform="translate(88.38 46.727)" fill="#e2edff"/>
    <path id="Tracé_4918" data-name="Tracé 4918" d="M148.058,79.587a1.128,1.128,0,0,1-1.1,0,1.161,1.161,0,0,1-.6-.932,1.243,1.243,0,0,1-1.1-.491,1.226,1.226,0,0,1-.2-1.177.49.49,0,0,1-.736.245.883.883,0,0,1-.981,1.03,1.472,1.472,0,0,1-1.831.719,1.9,1.9,0,0,1-.49-.589,1.03,1.03,0,0,1,.294-1.341,2.175,2.175,0,0,1,.491-2.485,1.063,1.063,0,0,1-.262-.818,1.21,1.21,0,0,0-1.259,1.177,2,2,0,0,0-.54,2.534,2.537,2.537,0,0,0,.082.376,2.469,2.469,0,0,0-.654,1.259c0,.523.294,1.145.818,1.145a.523.523,0,0,0,.18.7,1.635,1.635,0,0,0,.785.18h2.354a2.24,2.24,0,0,0,.932,0,.883.883,0,0,0,.6-.654,3.139,3.139,0,0,0,2.518,0c0,.327.49.425.768.262a1.39,1.39,0,0,0,.409-.409l.229-.294.213-.18a2.632,2.632,0,0,0-.932-.262Z" transform="translate(88.383 46.833)" fill="#ccdeff"/>
    <path id="Tracé_4919" data-name="Tracé 4919" d="M147.893,83.546a3.728,3.728,0,0,1-1,.752l-.278.2a2.945,2.945,0,0,0-.311.327,1.733,1.733,0,0,1-.556.425.556.556,0,0,1-.8-.491,3.27,3.27,0,0,1-2.812-.572,1.03,1.03,0,0,1-.8.7,2.649,2.649,0,0,1-1.063-.1l-2.24-.523-.392-.1a1.472,1.472,0,0,1-.834-.392.719.719,0,0,1,0-.932c-.6-.114-.883-.981-.719-1.635a3.6,3.6,0,0,1,.981-1.472l.131-.131a1.391,1.391,0,0,1-.147-.36,2.747,2.747,0,0,1,1.079-3.139,1.39,1.39,0,0,1,1.635-1.243,1.144,1.144,0,0,1,.376.18,1.8,1.8,0,0,1,2.453.752,1.537,1.537,0,0,1,1.635.163c.556.458.54,1.259,1.21,1.455s1.324-.131,1.946.589a2.371,2.371,0,0,1,.262,2.518C148.089,81.454,148.514,82.729,147.893,83.546Z" transform="translate(86.391 47.517)" fill="#c9ddff"/>
    <path id="Tracé_4920" data-name="Tracé 4920" d="M145.936,83.7a1.161,1.161,0,0,1-1.243-.2,1.635,1.635,0,0,1-.49-1.308,1.472,1.472,0,0,1-1.145-.867,1.88,1.88,0,0,1,0-1.635.507.507,0,0,1-.867.163c0,.736-.687,1.39-1.292,1.128a1.537,1.537,0,0,1-2.175.523,2.419,2.419,0,0,1-.441-.867A1.406,1.406,0,0,1,138.857,79a3.008,3.008,0,0,1,1.014-3.074,1.848,1.848,0,0,1-.147-1.112,1.39,1.39,0,0,0-1.635,1.243,2.747,2.747,0,0,0-1.079,3.123,2.583,2.583,0,0,0,0,.507,3.6,3.6,0,0,0-.981,1.472c-.164.67.114,1.537.719,1.635a.719.719,0,0,0,0,.932,1.472,1.472,0,0,0,.834.392l2.632.621a2.648,2.648,0,0,0,1.063.1,1.03,1.03,0,0,0,.8-.7,3.27,3.27,0,0,0,2.812.572.556.556,0,0,0,.8.491,1.734,1.734,0,0,0,.556-.425,2.943,2.943,0,0,1,.311-.327l.278-.2A3.271,3.271,0,0,0,145.936,83.7Z" transform="translate(86.353 47.498)" fill="#8eb8ff"/>
    <path id="Tracé_4921" data-name="Tracé 4921" d="M184.611,102.445,57.21,176V101.48l127.4-73.56Z" transform="translate(36.33 17.729)" fill="#c9ddff"/>
    <path id="Tracé_4922" data-name="Tracé 4922" d="M18.24,124.951l63.7,36.772V87.2L18.24,50.41Z" transform="translate(11.583 32.012)" fill="#9abfff"/>
    <path id="Tracé_4923" data-name="Tracé 4923" d="M184.611,76.586l-127.4,73.56V142.2l127.4-73.56Z" transform="translate(36.33 43.588)" fill="#72a6ff"/>
    <path id="Tracé_4924" data-name="Tracé 4924" d="M18.24,99.093l63.7,36.772v-7.946L18.24,91.13Z" transform="translate(11.583 57.87)" fill="#2b4b82"/>
    <path id="Tracé_4925" data-name="Tracé 4925" d="M193.335,22.5v4.431l-69.979,19-70,61.8V103.3l70-61.8Z" transform="translate(33.885 14.288)" fill="#72a6ff"/>
    <path id="Tracé_4926" data-name="Tracé 4926" d="M193.335,25.21v2.551L53.36,108.564v-2.551l70-61.8Z" transform="translate(33.885 16.009)" fill="#c9ddff"/>
    <path id="Tracé_4927" data-name="Tracé 4927" d="M193.358,27.754,53.35,108.59v-2.534L193.358,25.22Z" transform="translate(33.879 16.015)" fill="#f6f9ff"/>
    <path id="Tracé_4928" data-name="Tracé 4928" d="M78.116,86.208v7L14.35,56.434V49.42Z" transform="translate(9.113 31.383)" fill="#2b4b82"/>
    <path id="Tracé_4929" data-name="Tracé 4929" d="M78.116,88.932v2.534L14.35,54.694V52.16l2.207,1.259Z" transform="translate(9.113 33.123)" fill="#c9ddff"/>
    <path id="Tracé_4930" data-name="Tracé 4930" d="M148.115,48.408l-8.061,7.112L78.1,110.212,14.37,73.424,76.3,18.732l8.061-7.112Z" transform="translate(9.125 7.379)" fill="#4e88ec"/>
    <path id="Tracé_4931" data-name="Tracé 4931" d="M190.939,36.788,134.825,52.027l-13.849,3.744L57.21,19l13.865-3.761L127.173,0Z" transform="translate(36.33 0)" fill="#4e88ec"/>
    <path id="Tracé_4932" data-name="Tracé 4932" d="M153.91,65.34v35.954l-13.538,7.815-.867.507-12.573,7.26-1.161.67-14.6,8.437V90.029Z" transform="translate(70.596 41.493)" fill="#c9ddff"/>
    <path id="Tracé_4933" data-name="Tracé 4933" d="M98.1,108.844l21.37,12.344V85.234L98.1,72.89Z" transform="translate(62.296 46.287)" fill="#9abfff"/>
    <path id="Tracé_4934" data-name="Tracé 4934" d="M156.838,63.52v1.488l-23.479,6.377L109.88,92.133V90.645L133.359,69.9Z" transform="translate(69.777 40.337)" fill="#72a6ff"/>
    <path id="Tracé_4935" data-name="Tracé 4935" d="M156.838,64.43v.85L109.88,92.405v-.85l23.479-20.749Z" transform="translate(69.777 40.915)" fill="#c9ddff"/>
    <path id="Tracé_4936" data-name="Tracé 4936" d="M156.854,65.28,109.88,92.405v-.85L156.854,64.43Z" transform="translate(69.777 40.915)" fill="#fffae7"/>
    <path id="Tracé_4937" data-name="Tracé 4937" d="M118.186,84.9v2.338L96.8,74.9V72.56Z" transform="translate(61.471 46.078)" fill="#2b4b82"/>
    <path id="Tracé_4938" data-name="Tracé 4938" d="M118.186,85.814v.85L96.8,74.32v-.85l.736.425Z" transform="translate(61.471 46.655)" fill="#c9ddff"/>
    <path id="Tracé_4939" data-name="Tracé 4939" d="M141.665,72.214l-.67.589-22.809,20.16L96.8,80.619l22.809-20.144.687-.6Z" transform="translate(61.471 38.019)" fill="#4e88ec"/>
    <path id="Tracé_4940" data-name="Tracé 4940" d="M133.054,72.214l-1.324,1.128L110.36,61.015l1.324-1.145Z" transform="translate(70.082 38.019)" fill="#345a9c"/>
    <path id="Tracé_4941" data-name="Tracé 4941" d="M156.019,68.314l-22.3,6.066-1.177.311L111.17,62.347l1.161-.311,22.318-6.066Z" transform="translate(70.596 35.542)" fill="#4e88ec"/>
    <path id="Tracé_4942" data-name="Tracé 4942" d="M134.911,71.841l-2.371.621L111.17,60.118l2.338-.638Z" transform="translate(70.596 37.771)" fill="#345a9c"/>
    <path id="Tracé_4943" data-name="Tracé 4943" d="M153.91,82.36v8.126L140.372,98.3l-.867.507-12.573,7.26-1.161.67-14.6,8.437v-8.126Z" transform="translate(70.596 52.301)" fill="#72a6ff"/>
    <path id="Tracé_4944" data-name="Tracé 4944" d="M98.1,98.036l21.37,12.344v-8.126L98.1,89.91Z" transform="translate(62.296 57.095)" fill="#2b4b82"/>
    <path id="Tracé_4945" data-name="Tracé 4945" d="M90.822,84.989l-24,13.865V78.285l24-13.865Z" transform="translate(42.433 40.908)" fill="#f6f9ff"/>
    <path id="Tracé_4946" data-name="Tracé 4946" d="M89.347,65.44V83.932L77.509,90.767,67.47,96.555V78.079L80.648,70.46Z" transform="translate(42.846 41.556)" fill="#5a97ff"/>
    <path id="Tracé_4947" data-name="Tracé 4947" d="M80.648,68.51,77.509,88.817,67.47,94.605V76.129Z" transform="translate(42.846 43.505)" fill="#6ca2ff" opacity="0.5"/>
    <rect id="Rectangle_303" data-name="Rectangle 303" width="26.062" height="0.834" transform="translate(109.752 124.365) rotate(-29.87)" fill="#f6f9ff"/>
    <path id="Tracé_4948" data-name="Tracé 4948" d="M72.5,87.476l-.834-.1V73.66H72.5Z" transform="translate(45.513 46.776)" fill="#f6f9ff"/>
    <rect id="Rectangle_304" data-name="Rectangle 304" width="0.834" height="13.832" transform="translate(124.458 116.234)" fill="#f6f9ff"/>
    <path id="Tracé_4949" data-name="Tracé 4949" d="M38.62,91.309l23.986,13.849V84.605L38.62,70.74Z" transform="translate(24.525 44.922)" fill="#f6f9ff"/>
    <path id="Tracé_4950" data-name="Tracé 4950" d="M61.147,102.875V84.4L39.27,71.76V90.236Z" transform="translate(24.938 45.569)" fill="#5a86ec"/>
    <rect id="Rectangle_305" data-name="Rectangle 305" width="0.834" height="26.062" transform="translate(63.641 122.433) rotate(-60.13)" fill="#f6f9ff"/>
    <path id="Tracé_4951" data-name="Tracé 4951" d="M47.94,93.8l.834-.114V79.97H47.94Z" transform="translate(30.443 50.783)" fill="#f6f9ff"/>
    <rect id="Rectangle_306" data-name="Rectangle 306" width="0.834" height="13.832" transform="translate(71.107 126.567)" fill="#f6f9ff"/>
    <path id="Tracé_4952" data-name="Tracé 4952" d="M21.77,81.509,45.756,95.374V74.805L21.77,60.94Z" transform="translate(13.825 38.698)" fill="#f6f9ff"/>
    <path id="Tracé_4953" data-name="Tracé 4953" d="M44.3,93.075V74.6L22.42,61.96V80.452Z" transform="translate(14.237 39.346)" fill="#5a86ec"/>
    <rect id="Rectangle_307" data-name="Rectangle 307" width="0.834" height="26.062" transform="translate(36.091 106.412) rotate(-60.13)" fill="#f6f9ff"/>
    <path id="Tracé_4954" data-name="Tracé 4954" d="M31.09,84l.834-.1V70.17H31.09Z" transform="translate(19.743 44.56)" fill="#f6f9ff"/>
    <rect id="Rectangle_308" data-name="Rectangle 308" width="0.834" height="13.832" transform="translate(43.557 110.544)" fill="#f6f9ff"/>
    <path id="Tracé_4955" data-name="Tracé 4955" d="M38.62,106.559l23.986,13.849V99.839L38.62,85.99Z" transform="translate(24.525 54.606)" fill="#f6f9ff"/>
    <path id="Tracé_4956" data-name="Tracé 4956" d="M61.147,118.125V99.649L39.27,87.01v18.476Z" transform="translate(24.938 55.253)" fill="#5a86ec"/>
    <rect id="Rectangle_309" data-name="Rectangle 309" width="0.834" height="26.062" transform="translate(63.632 147.359) rotate(-60.13)" fill="#f6f9ff"/>
    <path id="Tracé_4957" data-name="Tracé 4957" d="M47.94,109.052l.834-.114V95.22H47.94Z" transform="translate(30.443 60.467)" fill="#f6f9ff"/>
    <rect id="Rectangle_310" data-name="Rectangle 310" width="0.834" height="13.832" transform="translate(71.107 151.501)" fill="#f6f9ff"/>
    <path id="Tracé_4958" data-name="Tracé 4958" d="M21.77,96.759l23.986,13.849V90.039L21.77,76.19Z" transform="translate(13.825 48.383)" fill="#f6f9ff"/>
    <path id="Tracé_4959" data-name="Tracé 4959" d="M44.3,108.325V89.849L22.42,77.21V95.7Z" transform="translate(14.237 49.03)" fill="#5a86ec"/>
    <rect id="Rectangle_311" data-name="Rectangle 311" width="0.834" height="26.062" transform="translate(36.082 131.354) rotate(-60.13)" fill="#f6f9ff"/>
    <path id="Tracé_4960" data-name="Tracé 4960" d="M31.09,99.252l.834-.114V85.42H31.09Z" transform="translate(19.743 54.244)" fill="#f6f9ff"/>
    <rect id="Rectangle_312" data-name="Rectangle 312" width="0.834" height="13.832" transform="translate(43.557 135.478)" fill="#f6f9ff"/>
    <path id="Tracé_4961" data-name="Tracé 4961" d="M114.092,71.469l-24,13.849V64.749l24-13.849Z" transform="translate(57.21 32.323)" fill="#f6f9ff"/>
    <path id="Tracé_4962" data-name="Tracé 4962" d="M90.74,83.025V64.549L112.617,51.91V70.4Z" transform="translate(57.623 32.964)" fill="#5a97ff"/>
    <path id="Tracé_4963" data-name="Tracé 4963" d="M103.918,54.98l-3.139,20.307L90.74,81.075V62.6Z" transform="translate(57.623 34.914)" fill="#6ca2ff" opacity="0.5"/>
    <rect id="Rectangle_313" data-name="Rectangle 313" width="26.062" height="0.834" transform="translate(147.8 102.24) rotate(-29.87)" fill="#f6f9ff"/>
    <path id="Tracé_4964" data-name="Tracé 4964" d="M95.774,73.946l-.834-.1V60.13h.834Z" transform="translate(60.29 38.184)" fill="#f6f9ff"/>
    <rect id="Rectangle_314" data-name="Rectangle 314" width="0.834" height="13.832" transform="translate(162.506 94.112)" fill="#f6f9ff"/>
    <path id="Tracé_4965" data-name="Tracé 4965" d="M137.362,57.969l-24,13.849V51.249l24-13.849Z" transform="translate(71.987 23.75)" fill="#f6f9ff"/>
    <path id="Tracé_4966" data-name="Tracé 4966" d="M114.01,69.535V51.059L135.887,38.42V56.912Z" transform="translate(72.399 24.397)" fill="#5a97ff"/>
    <path id="Tracé_4967" data-name="Tracé 4967" d="M127.2,41.49,124.065,61.8,114.01,67.585V49.109Z" transform="translate(72.399 26.347)" fill="#7eadff" opacity="0.5"/>
    <rect id="Rectangle_315" data-name="Rectangle 315" width="26.062" height="0.834" transform="translate(185.843 80.175) rotate(-29.86)" fill="#f6f9ff"/>
    <path id="Tracé_4968" data-name="Tracé 4968" d="M119.044,60.462l-.834-.114V46.63h.834Z" transform="translate(75.067 29.611)" fill="#f6f9ff"/>
    <rect id="Rectangle_316" data-name="Rectangle 316" width="0.834" height="13.832" transform="translate(200.553 72.056)" fill="#f6f9ff"/>
    <path id="Tracé_4969" data-name="Tracé 4969" d="M98.2,95.9l-8.11,4.725V81.662L98.2,76.92Z" transform="translate(57.21 48.846)" fill="#fffae7"/>
    <path id="Tracé_4970" data-name="Tracé 4970" d="M97.083,77.8V94.837L92,97.8l-1.308.752V81.512l4.2-2.436Z" transform="translate(57.591 49.405)" fill="#5a86ec"/>
    <path id="Tracé_4971" data-name="Tracé 4971" d="M94.892,78.58,92,97.3l-1.308.752V81.016Z" transform="translate(57.591 49.9)" fill="#8eacde" opacity="0.5"/>
    <path id="Tracé_4972" data-name="Tracé 4972" d="M90.746,84.969l-.376-.67,7.063-4.039.376.67Z" transform="translate(57.388 50.967)" fill="#fffae7"/>
    <path id="Tracé_4973" data-name="Tracé 4973" d="M98.2,95.9l-8.11,4.725V81.662L98.2,76.92Z" transform="translate(57.21 48.846)" fill="#f6f9ff"/>
    <path id="Tracé_4974" data-name="Tracé 4974" d="M97.083,77.8V94.837L92,97.8l-1.308.752V81.512l4.2-2.436Z" transform="translate(57.591 49.405)" fill="#5a97ff"/>
    <path id="Tracé_4975" data-name="Tracé 4975" d="M94.892,78.58,92,97.3l-1.308.752V81.016Z" transform="translate(57.591 49.9)" fill="#77a9ff" opacity="0.5"/>
    <path id="Tracé_4976" data-name="Tracé 4976" d="M90.746,84.969l-.376-.67,7.063-4.039.376.67Z" transform="translate(57.388 50.967)" fill="#f6f9ff"/>
    <path id="Tracé_4977" data-name="Tracé 4977" d="M134.7,73.3v30.755l-.867.507-12.573,7.26-1.161.67V81.818Z" transform="translate(76.267 46.547)" fill="#fffae7"/>
    <path id="Tracé_4978" data-name="Tracé 4978" d="M133.383,74.3v29.627l-12.573,7.26V81.609Z" transform="translate(76.718 47.183)" fill="#72a6ff"/>
    <path id="Tracé_4979" data-name="Tracé 4979" d="M124.15,96.917l7.112-4.137Z" transform="translate(78.839 58.918)" fill="#fd394e"/>
    <path id="Tracé_4980" data-name="Tracé 4980" d="M101.7,96.686l8.093,4.725V82.445L101.7,77.72Z" transform="translate(64.583 49.354)" fill="#f6f9ff"/>
    <path id="Tracé_4981" data-name="Tracé 4981" d="M108.543,99.339V82.3L102.15,78.59V95.627Z" transform="translate(64.868 49.907)" fill="#5a97ff"/>
    <path id="Tracé_4982" data-name="Tracé 4982" d="M108.877,85.759l.392-.654-7.063-4.055-.376.67Z" transform="translate(64.665 51.469)" fill="#f6f9ff"/>
    <path id="Tracé_4983" data-name="Tracé 4983" d="M64.05,133.419v-30.3l31.7-18.312v30.313Z" transform="translate(40.674 53.856)" fill="#4e88ec"/>
    <path id="Tracé_4984" data-name="Tracé 4984" d="M94.777,115.094l-30.3,17.478V102.978L94.777,85.5Z" transform="translate(40.947 54.295)" fill="#f6f9ff"/>
    <path id="Tracé_4985" data-name="Tracé 4985" d="M93.778,101.99v2.044L64.92,120.711v-2.044Z" transform="translate(41.226 64.767)" fill="#c9ddff"/>
    <path id="Tracé_4986" data-name="Tracé 4986" d="M93.778,100.43v2.044L64.92,119.135v-2.044Z" transform="translate(41.226 63.776)" fill="#c9ddff"/>
    <path id="Tracé_4987" data-name="Tracé 4987" d="M93.778,98.86V100.9L64.92,117.581v-2.06Z" transform="translate(41.226 62.779)" fill="#c9ddff"/>
    <path id="Tracé_4988" data-name="Tracé 4988" d="M93.778,97.29v2.06L64.92,116.011v-2.044Z" transform="translate(41.226 61.782)" fill="#c9ddff"/>
    <path id="Tracé_4989" data-name="Tracé 4989" d="M93.778,95.73v2.044L64.92,114.435v-2.044Z" transform="translate(41.226 60.791)" fill="#c9ddff"/>
    <path id="Tracé_4990" data-name="Tracé 4990" d="M93.778,94.17v2.044L64.92,112.875v-2.044Z" transform="translate(41.226 59.8)" fill="#c9ddff"/>
    <path id="Tracé_4991" data-name="Tracé 4991" d="M93.778,92.6v2.044L64.92,111.3v-2.044Z" transform="translate(41.226 58.803)" fill="#c9ddff"/>
    <path id="Tracé_4992" data-name="Tracé 4992" d="M93.778,91.03v2.06L64.92,109.751v-2.06Z" transform="translate(41.226 57.807)" fill="#c9ddff"/>
    <path id="Tracé_4993" data-name="Tracé 4993" d="M93.778,89.47v2.044L64.92,108.175v-2.044Z" transform="translate(41.226 56.816)" fill="#c9ddff"/>
    <path id="Tracé_4994" data-name="Tracé 4994" d="M93.778,87.9v2.044L64.92,106.621v-2.06Z" transform="translate(41.226 55.819)" fill="#c9ddff"/>
    <path id="Tracé_4995" data-name="Tracé 4995" d="M93.778,86.34v2.044L64.92,105.045V103Z" transform="translate(41.226 54.828)" fill="#c9ddff"/>
    <path id="Tracé_4996" data-name="Tracé 4996" d="M63,102.314,98.137,82.04v4.3L63,106.614Z" transform="translate(40.007 52.098)" fill="#f6f9ff"/>
    <path id="Tracé_4997" data-name="Tracé 4997" d="M122.492,48.408l-4.039,3.548L54.72,15.168l4.022-3.548L90.609,30.014Z" transform="translate(34.749 7.379)" fill="#345a9c"/>
    <path id="Tracé_4998" data-name="Tracé 4998" d="M127.879,47.258l-6.933,1.864L89.063,30.728,57.18,12.35l6.933-1.88Z" transform="translate(36.311 6.648)" fill="#345a9c"/>
    <path id="Tracé_4999" data-name="Tracé 4999" d="M121.12,98l-8.11,4.725V83.755l8.11-4.725Z" transform="translate(71.765 50.186)" fill="#f6f9ff"/>
    <path id="Tracé_5000" data-name="Tracé 5000" d="M119.993,79.9V96.937L114.924,99.9l-1.324.752V83.612l4.2-2.453Z" transform="translate(72.14 50.738)" fill="#5a97ff"/>
    <path id="Tracé_5001" data-name="Tracé 5001" d="M117.8,80.67l-2.878,18.737-1.324.752V83.123Z" transform="translate(72.14 51.228)" fill="#68a0ff" opacity="0.5"/>
    <path id="Tracé_5002" data-name="Tracé 5002" d="M113.672,87.069l-.392-.67,7.063-4.039.376.67Z" transform="translate(71.936 52.301)" fill="#f6f9ff"/>
    <path id="Tracé_5003" data-name="Tracé 5003" d="M138.93,87.7l-8.11,4.742V73.475l8.11-4.725Z" transform="translate(83.075 43.658)" fill="#f6f9ff"/>
    <path id="Tracé_5004" data-name="Tracé 5004" d="M137.8,69.62V86.657L132.734,89.6l-1.324.768V73.332l4.218-2.453Z" transform="translate(83.449 44.21)" fill="#5a97ff"/>
    <path id="Tracé_5005" data-name="Tracé 5005" d="M135.628,70.39l-2.894,18.721-1.324.768V72.843Z" transform="translate(83.449 44.699)" fill="#72a6ff" opacity="0.5"/>
    <path id="Tracé_5006" data-name="Tracé 5006" d="M131.482,76.789l-.392-.67,7.063-4.039.376.67Z" transform="translate(83.246 45.772)" fill="#f6f9ff"/>
    <path id="Tracé_5007" data-name="Tracé 5007" d="M122.321,100.265a9.81,9.81,0,0,0-7.014-.736,9.908,9.908,0,0,0-8.519.18h0a9.81,9.81,0,0,0-8.4.164,9.81,9.81,0,0,0-6.54.85c-2.453,1.422-2.453,3.712,0,5.134a9.908,9.908,0,0,0,8.8,0,9.81,9.81,0,0,0,6.54-.867h0a10.2,10.2,0,0,0,6.638.54,9.908,9.908,0,0,0,8.518-.18C124.774,103.977,124.774,101.688,122.321,100.265Z" transform="translate(57.156 62.648)" fill="#3f72df" opacity="0.2"/>
    <path id="Tracé_5008" data-name="Tracé 5008" d="M110.838,103.032a1.635,1.635,0,0,1-.572.343,2.224,2.224,0,0,1-1.521,0h-.131a3.172,3.172,0,0,1-2.093-.1,1.929,1.929,0,0,0-.752-.18c-.278,0-.474.114-.768,0a2.714,2.714,0,0,1-.867-.752.485.485,0,0,1-.54.425c-.507,0-.965-.654-1.5-.556a.916.916,0,0,0-.311.147,1.471,1.471,0,0,1,.507-.883,4.4,4.4,0,0,1,.981-.638,1.978,1.978,0,0,1,1.161-.311,2.109,2.109,0,0,1,1,.6,3.074,3.074,0,0,0,.981.6,1.21,1.21,0,0,0,1.112-.163.932.932,0,0,0,1.373.556,1.326,1.326,0,0,0,1.946.9Z" transform="translate(64.633 63.838)" fill="#9cc0ff"/>
    <path id="Tracé_5009" data-name="Tracé 5009" d="M118.354,104.173a1.046,1.046,0,0,1-.818.752,1.635,1.635,0,0,1-.425,1.128,1.521,1.521,0,0,1-.213,1.161,1.978,1.978,0,0,1-.343.392,1.635,1.635,0,0,1-.572.343,2.224,2.224,0,0,1-1.521,0h-.131a3.172,3.172,0,0,1-2.093-.1,1.929,1.929,0,0,0-.752-.18c-.278,0-.474.114-.768,0a2.78,2.78,0,0,1-.867-.752.485.485,0,0,1-.54.425c-.507,0-.965-.654-1.5-.556a.915.915,0,0,0-.311.147c-.278.213-.425.589-.752.768a1.471,1.471,0,0,1-1.635-.2c-.392,3.27-4.431-.164-4.627.147a.817.817,0,0,1-.572.376,1.357,1.357,0,0,1-.752-.18,1.635,1.635,0,0,0-.981-.213c-.311,0-.441.36-.687.458-.572.2-.9-.229-1.406-.6-.916-.67-2.829-.916-2.093-2.632a1.455,1.455,0,0,1-.85-2.191,2.4,2.4,0,0,1,1.128-3.5,2.191,2.191,0,0,1-.213-3.27,2.044,2.044,0,0,1,1.635-.491,2.485,2.485,0,0,1,.948.311,2.076,2.076,0,0,0,.589.245.834.834,0,0,1,.36-.425.85.85,0,0,1,1.112.278c0,.1.1.2.163.294a.343.343,0,0,0,.294.131s.147-.1.229-.147a.8.8,0,0,1,.867,0,2.077,2.077,0,0,1,.507.49l.131.18a.425.425,0,0,1,.18-.327,1.21,1.21,0,0,1-.327-.736,2.91,2.91,0,0,1,1.423-2.126,2.06,2.06,0,0,1,1.782.114,1.9,1.9,0,0,1,.638.67c.131-.523,1-.425,1.243,0v.131h.213a1.1,1.1,0,0,1,1,1.194,1.21,1.21,0,0,1,.67-.474c.278,0,.589.2.507.474a.883.883,0,0,1,1.259.164,1.161,1.161,0,0,1,1.962.18,2.077,2.077,0,0,1,.834,0,.654.654,0,0,1,.556.54,3.075,3.075,0,0,1,0,.54.393.393,0,0,0,0,.2,1.21,1.21,0,0,1,1.373.6c.262-.491,1.063,0,1.128.507v.114a1.635,1.635,0,0,1,.54,1.635.834.834,0,0,1,1.177,1.112,1.03,1.03,0,0,1,.736.785,1.063,1.063,0,0,1,0,.507A1.749,1.749,0,0,1,118.354,104.173Z" transform="translate(58.916 59.329)" fill="#c9ddff"/>
    <path id="Tracé_5010" data-name="Tracé 5010" d="M114.4,107.041h-.131a3.074,3.074,0,0,1-2.093-.114,2.223,2.223,0,0,0-.752-.163c-.278,0-.474.114-.768,0a2.551,2.551,0,0,1-.867-.752.485.485,0,0,1-.54.425c-.507,0-.981-.654-1.5-.556s-.638.687-1.063.916a1.472,1.472,0,0,1-1.635-.2c-.392,3.27-4.431-.163-4.627.147a.818.818,0,0,1-.572.376,1.357,1.357,0,0,1-.752-.18,1.733,1.733,0,0,0-.981-.229c-.311,0-.441.376-.687.474-.572.2-.9-.229-1.406-.6-.916-.67-2.829-.916-2.093-2.632a1.455,1.455,0,0,1-.785-2.044,2.4,2.4,0,0,1,1.128-3.5,2.191,2.191,0,0,1-.213-3.27,2.044,2.044,0,0,1,1.635-.491,1.635,1.635,0,0,0,.294,1.406c-.458-.163-.768.621-.425.981a1.439,1.439,0,0,0,1.39.18,2.731,2.731,0,0,1,1.439-.147.8.8,0,0,1,.491.948,1.308,1.308,0,0,1,1.21-.311,1.275,1.275,0,0,1,.85,1.177,1.014,1.014,0,0,1,1.9.556,1.848,1.848,0,0,1-.147,2.7.867.867,0,0,1,.491,1.21.572.572,0,0,1,.491-.213l.245,1.194,1.439-.556a1.455,1.455,0,0,0,.916,1.39,1.406,1.406,0,0,0,1.635-.458l2.7.638a2.829,2.829,0,0,0,3.842.687A3.074,3.074,0,0,0,114.4,107.041Z" transform="translate(58.916 60.091)" fill="#8eb8ff"/>
    <path id="Tracé_5011" data-name="Tracé 5011" d="M101.975,98.419a.265.265,0,0,1-.441.163c-.556.392-1.308.1-1.913-.2a5.559,5.559,0,0,1-1.521-1,2.174,2.174,0,0,1-.441-.752,1.357,1.357,0,0,1,0-.883,2.91,2.91,0,0,1,1.422-2.126,2.06,2.06,0,0,1,1.782.114,6.542,6.542,0,0,1-.9,1c-.18.213-.687.491-.719.85a1.357,1.357,0,0,0,.245.736,3.646,3.646,0,0,0,.883,1.161,1.945,1.945,0,0,0,.719.343,2.372,2.372,0,0,1,.589.131A.491.491,0,0,1,101.975,98.419Z" transform="translate(61.969 59.361)" fill="#8eb8ff"/>
    <path id="Tracé_5012" data-name="Tracé 5012" d="M111.175,104.479a1.98,1.98,0,0,1-.343.392,1.635,1.635,0,0,1-.572.343,2.224,2.224,0,0,1-1.521,0h-.131a3.172,3.172,0,0,1-2.093-.1,1.929,1.929,0,0,0-.752-.18c-.278,0-.474.114-.768,0a4.266,4.266,0,0,1-.311-.6,5.527,5.527,0,0,0-1.03-1.635c-.6-.507-1.455-.376-1.782-1.373a1.88,1.88,0,0,1,.638-2.027,10.629,10.629,0,0,1,.409-1,1.21,1.21,0,0,1,.818-.654.687.687,0,0,1,.8.54c0,.556-.719.834-.883,1.357a1.455,1.455,0,0,0,.213,1,2.55,2.55,0,0,0,.474.752c.67.67,1.913.523,2.469,1.292a.7.7,0,0,1,1.03-.163.932.932,0,0,1,1.194.262,2.682,2.682,0,0,1,.474,1.275,1.488,1.488,0,0,1,1.668.523Z" transform="translate(64.64 61.999)" fill="#8eb8ff"/>
    <path id="Tracé_5013" data-name="Tracé 5013" d="M103.577,105.331a3.99,3.99,0,0,1-1.112.736,1.243,1.243,0,0,0-.311.2l-.36.311a2.24,2.24,0,0,1-.556.392c-.376.147-.932-.082-.9-.491a4.039,4.039,0,0,1-3.156-.556,1.112,1.112,0,0,1-.9.687,3.172,3.172,0,0,1-1.177-.1l-2.534-.523h-.425a1.88,1.88,0,0,1-.948-.392.654.654,0,0,1,0-.916,1.226,1.226,0,0,1-.785-1.635,3.27,3.27,0,0,1,1.014-1.472l.147-.131a1.749,1.749,0,0,1-.164-.36,2.551,2.551,0,0,1,1.21-3.074,1.521,1.521,0,0,1,1.815-1.21,1.079,1.079,0,0,1,.425.18,2.175,2.175,0,0,1,2.747.719,1.9,1.9,0,0,1,1.88.18c.638.441.6,1.226,1.357,1.406s1.488-.131,2.175.589a2.093,2.093,0,0,1,.294,2.469C103.806,103.255,104.264,104.5,103.577,105.331Z" transform="translate(57.359 61.441)" fill="#e2edff"/>
    <path id="Tracé_5014" data-name="Tracé 5014" d="M101.362,105.455a1.422,1.422,0,0,1-1.929-1.472,1.635,1.635,0,0,1-1.275-2.387.6.6,0,0,1-.965.147,1.161,1.161,0,0,1-1.455,1.112,1.929,1.929,0,0,1-2.453.523,2.534,2.534,0,0,1-.491-.867,1.275,1.275,0,0,1,.638-1.635,2.812,2.812,0,0,1,1.144-3.025,1.455,1.455,0,0,1-.164-1.079,1.521,1.521,0,0,0-1.815,1.21,2.551,2.551,0,0,0-1.145,3.107,2.468,2.468,0,0,0,0,.491,3.27,3.27,0,0,0-1.079,1.439,1.226,1.226,0,0,0,.785,1.635.654.654,0,0,0,0,.916,1.88,1.88,0,0,0,.948.392l2.959.6a3.172,3.172,0,0,0,1.177.1,1.112,1.112,0,0,0,.9-.687,4.038,4.038,0,0,0,3.156.556c0,.409.523.638.9.491a2.241,2.241,0,0,0,.6-.425l.36-.311a1.243,1.243,0,0,1,.311-.2,3.58,3.58,0,0,0-1.112-.638Z" transform="translate(57.334 61.432)" fill="#ccdeff"/>
    <path id="Tracé_5015" data-name="Tracé 5015" d="M113.871,103.837a3.27,3.27,0,0,1-.7.638l-.18.163a2.988,2.988,0,0,0-.213.262,1.636,1.636,0,0,1-.376.376c-.245.147-.67,0-.687-.229a2.91,2.91,0,0,1-2.256,0,.8.8,0,0,1-.556.589,2.338,2.338,0,0,1-.834,0h-2.109a1.275,1.275,0,0,1-.7-.147.474.474,0,0,1-.163-.638.883.883,0,0,1-.736-1.03,2.289,2.289,0,0,1,.589-1.128l.082-.114a.686.686,0,0,1-.147-.229,1.782,1.782,0,0,1,.474-2.273,1.079,1.079,0,0,1,1.128-1.046.67.67,0,0,1,.311,0,1.521,1.521,0,0,1,1.995.2,1.357,1.357,0,0,1,1.341-.114c.491.245.556.8,1.112.834s1.014-.262,1.635.147a1.488,1.488,0,0,1,.491,1.635C113.79,102.431,114.247,103.183,113.871,103.837Z" transform="translate(66.26 62.707)" fill="#e2edff"/>
    <path id="Tracé_5016" data-name="Tracé 5016" d="M112.343,104.1a1,1,0,0,1-.981,0,1.1,1.1,0,0,1-.54-.834,1.145,1.145,0,0,1-1.161-1.5.425.425,0,0,1-.654.213.8.8,0,0,1-.883.948,1.341,1.341,0,0,1-1.635.638,1.635,1.635,0,0,1-.441-.54.9.9,0,0,1,.245-1.194,1.962,1.962,0,0,1,.458-2.224,1.03,1.03,0,0,1-.245-.736,1.079,1.079,0,0,0-1.128,1.046,1.766,1.766,0,0,0-.474,2.273,1.277,1.277,0,0,0,0,.343,2.289,2.289,0,0,0-.589,1.128.883.883,0,0,0,.736,1.03.474.474,0,0,0,.164.638,1.275,1.275,0,0,0,.7.147h2.109a2.338,2.338,0,0,0,.834,0,.8.8,0,0,0,.556-.589,2.91,2.91,0,0,0,2.256,0c0,.278.441.376.687.229a1.635,1.635,0,0,0,.376-.376,2.992,2.992,0,0,1,.213-.262l.18-.164a2.5,2.5,0,0,0-.785-.213Z" transform="translate(66.234 62.785)" fill="#ccdeff"/>
    <path id="Tracé_5017" data-name="Tracé 5017" d="M137.549,128.056l-30.3,17.495L64.48,121.026l2.126-1.226.7-.409L94.761,103.58Z" transform="translate(40.947 65.776)" fill="#3b67b2"/>
    <path id="Tracé_5018" data-name="Tracé 5018" d="M155.986,104.278l-14.6,8.437L120.13,100.534l1.063-.621h.1l.262-.147,12.312-7.129.867-.507Z" transform="translate(76.286 58.505)" fill="#94bbff"/>
  </g>
</svg>
