<svg xmlns="http://www.w3.org/2000/svg" width="100" height="100" viewBox="0 0 100 100">
  <g id="Icon" transform="translate(-643.786 -2302)">
    <circle id="Ellipse_169" data-name="Ellipse 169" cx="50" cy="50" r="50" transform="translate(643.786 2302)" fill="#7db1ff"/>
    <g id="icons8_spring_logo" transform="translate(666.786 2325.3)">
      <path id="Tracé_7207" data-name="Tracé 7207" d="M49.979,26.455c.079-4.864-1.025-10.647-3.325-17.433L44.851,3.7,42.4,8.76c-.131.271-.281.535-.437.8A22.78,22.78,0,1,0,50,26.871C50,26.731,49.982,26.595,49.979,26.455Z" transform="translate(0 0)" fill="#fff"/>
      <path id="Tracé_7208" data-name="Tracé 7208" d="M40.658,36.671C37.395,41.724,31.619,42,26.183,41.889h-9.11c4.627-1.871,7.38-2.316,10.191-3.994,5.3-3.13,10.53-9.979,11.62-17.1-2.017,6.855-8.128,12.744-13.7,15.139a82.61,82.61,0,0,1-10.708,3.224l-.279-.17c-4.691-2.653-4.833-14.463,3.7-18.276,3.734-1.671,7.307-.753,11.341-1.871A18.243,18.243,0,0,0,40.552,9c2.269,7.831,5,20.093.106,27.671Zm-24.78,6.915a1.506,1.506,0,0,1-1.215.652,1.775,1.775,0,0,1,0-3.524,1.448,1.448,0,0,1,.983.395,1.923,1.923,0,0,1,.232,2.477Z" transform="translate(4.52 0.238)" fill="#7db1ff"/>
    </g>
  </g>
</svg>
