<svg xmlns="http://www.w3.org/2000/svg" width="100" height="100" viewBox="0 0 100 100">
  <g id="Icon" transform="translate(-643.786 -2302)">
    <circle id="Ellipse_169" data-name="Ellipse 169" cx="50" cy="50" r="50" transform="translate(643.786 2302)" fill="#7db1ff"/>
    <path id="icons8_virus_free" d="M33.08,2.205A3.235,3.235,0,0,0,30.6,7.516l-1.287,3.536a14.9,14.9,0,0,0-8.483.379L19.24,8.013a3.206,3.206,0,1,0-2.931,1.365L17.9,12.8a15.173,15.173,0,0,0-5.732,6.255L8.622,17.766a3.231,3.231,0,1,0-1.1,3.041L11.065,22.1a14.779,14.779,0,0,0,.362,8.485l-3.42,1.594a3.229,3.229,0,0,0-4.783,4.01,3.244,3.244,0,0,0,3.3,1.843l2.845-2.847c0-.024,0-.049,0-.074l.137-.065,2.651-2.654.411-.409v0L19.958,24.6a3.215,3.215,0,0,1-1.6-.615,3.242,3.242,0,1,1,5.166-2.955l8.506-8.508.171.061.133-.364.053-.053-.029-.013,1.282-3.525a3.235,3.235,0,0,0-.562-6.419ZM45.621,4.126a1.618,1.618,0,0,0-1.112.489L4.614,44.509A1.617,1.617,0,1,0,6.9,46.8l9.34-9.34a15.174,15.174,0,0,0,2.818,1.784l-1.291,3.546a3.233,3.233,0,1,0,3.039,1.108L22.1,40.345a14.717,14.717,0,0,0,8.478-.366L32.17,43.4A3.206,3.206,0,1,0,35.1,42.032l-1.6-3.426a15.173,15.173,0,0,0,5.732-6.255l3.551,1.293a3.231,3.231,0,1,0,1.1-3.041l-3.544-1.291a14.717,14.717,0,0,0-.366-8.478L43.4,19.24a3.232,3.232,0,1,0-1.369-2.931l-3.422,1.6a15.205,15.205,0,0,0-1.15-1.664L46.8,6.9a1.618,1.618,0,0,0-1.175-2.776ZM31.265,26.788a3.236,3.236,0,1,1-2.757,1.278A3.26,3.26,0,0,1,31.265,26.788Z" transform="translate(668.581 2326.795)" fill="#fff"/>
  </g>
</svg>
