<svg xmlns="http://www.w3.org/2000/svg" width="100" height="100" viewBox="0 0 100 100">
  <g id="Icon" transform="translate(-643.786 -2302)">
    <circle id="Ellipse_169" data-name="Ellipse 169" cx="50" cy="50" r="50" transform="translate(643.786 2302)" fill="#7db1ff"/>
    <path id="icons8_housekeeper" d="M16.631,2a5.6,5.6,0,1,0,5.6,5.6,5.6,5.6,0,0,0-5.6-5.6ZM41.81,10.4a2.8,2.8,0,0,0-2.8,2.8v28H38.22a2.8,2.8,0,0,0-2.759,2.341L33.444,55.621A2.044,2.044,0,0,0,35.46,58h12.7a2.039,2.039,0,0,0,2.011-2.379L48.159,43.541A2.793,2.793,0,0,0,45.4,41.2h-.792v-28A2.8,2.8,0,0,0,41.81,10.4ZM12.91,16A5.6,5.6,0,0,0,7.4,20.6L3.244,43.5a2.8,2.8,0,0,0,2.748,3.3H8.238v8.4a2.8,2.8,0,1,0,5.6,0V46.8h5.6v8.4a2.8,2.8,0,1,0,5.6,0V46.8H27.27a2.8,2.8,0,0,0,2.749-3.3L25.86,20.6A5.6,5.6,0,0,0,20.352,16Z" transform="translate(667.588 2322)" fill="#fff"/>
  </g>
</svg>
