<svg xmlns="http://www.w3.org/2000/svg" width="100" height="100" viewBox="0 0 100 100">
  <g id="Icon" transform="translate(-643.786 -2302)">
    <circle id="Ellipse_169" data-name="Ellipse 169" cx="50" cy="50" r="50" transform="translate(643.786 2302)" fill="#7db1ff"/>
    <path id="icons8_broom" d="M24.166,1a2.613,2.613,0,0,0-2.553,2.667V22.333H13.231A5.183,5.183,0,0,0,8.18,26.854L7.9,28.8a1.316,1.316,0,0,0,1.261,1.537H39.174A1.314,1.314,0,0,0,40.435,28.8l-.284-1.943A5.182,5.182,0,0,0,35.1,22.333H26.719V3.667A2.613,2.613,0,0,0,24.166,1ZM7.981,35.667A1.293,1.293,0,0,0,6.719,36.8L4.2,53.927A2.63,2.63,0,0,0,6.719,57h6.736A2.6,2.6,0,0,0,16,54.589L16.507,49l1.067,5.833A2.577,2.577,0,0,0,20.077,57h8.008a2.6,2.6,0,0,0,2.538-2.365l1.2-10.969,2.463,11.261A2.58,2.58,0,0,0,36.776,57h4.836a2.63,2.63,0,0,0,2.523-3.073L41.612,36.8a1.293,1.293,0,0,0-1.262-1.13Z" transform="translate(669.621 2323)" fill="#fff"/>
  </g>
</svg>
