<svg xmlns="http://www.w3.org/2000/svg" width="100" height="100" viewBox="0 0 100 100">
  <g id="Icon" transform="translate(-643.786 -2302)">
    <circle id="Ellipse_169" data-name="Ellipse 169" cx="50" cy="50" r="50" transform="translate(643.786 2302)" fill="#7db1ff"/>
    <path id="icons8_protect_1" d="M23.925,1.631,6.036,9.619A5.133,5.133,0,0,0,3,14.312V26.379c0,20.1,16.455,29.49,23,30.809,6.545-1.32,23-10.706,23-30.809V14.312a5.136,5.136,0,0,0-3.036-4.693L28.075,1.631A5.083,5.083,0,0,0,23.925,1.631ZM21.638,38.464l-7.079-7.112a2.578,2.578,0,0,1,0-3.63h0a2.549,2.549,0,0,1,3.614,0l5.272,5.3L36.439,19.963a2.549,2.549,0,0,1,3.614,0h0a2.578,2.578,0,0,1,0,3.63l-14.8,14.871A2.549,2.549,0,0,1,21.638,38.464Z" transform="translate(667.786 2322.812)" fill="#fff"/>
  </g>
</svg>
