<svg xmlns="http://www.w3.org/2000/svg" width="100" height="100" viewBox="0 0 100 100">
  <g id="Icon" transform="translate(-643.786 -2302)">
    <circle id="Ellipse_169" data-name="Ellipse 169" cx="50" cy="50" r="50" transform="translate(643.786 2302)" fill="#7db1ff"/>
    <path id="icons8_vacuum_cleaner" d="M16.269,3.02a7.151,7.151,0,0,0-3.023,13.337l12.735,4.452-2.8,4.657a27.046,27.046,0,0,0-3.775-1.5,16.527,16.527,0,0,0-1.868-.369A14.126,14.126,0,0,0,6.208,26.8,12.2,12.2,0,0,0,2,36.132v2.646A10.212,10.212,0,0,0,12.2,49H26.379a8.765,8.765,0,0,0,8.263-5.885,9.638,9.638,0,0,0-.951-7.936,22.927,22.927,0,0,0-6.146-7.053l2.864-4.782a5.09,5.09,0,0,0,.3-4.462,5,5,0,0,0-3.192-2.945l-11.9-4.123a2.008,2.008,0,0,1-.807-1.2A2.039,2.039,0,0,1,17.8,8.376l14.294,4.542a2.562,2.562,0,0,1,.976,1.343L43.074,47.188A2.553,2.553,0,0,0,45.514,49H50.45a2.556,2.556,0,0,0,0-5.111H47.243l-9.3-31.126a7.631,7.631,0,0,0-3.511-4.4L20.054,3.789A7.073,7.073,0,0,0,16.269,3.02ZM12.2,33.667a5.111,5.111,0,1,1-5.1,5.111A5.1,5.1,0,0,1,12.2,33.667Z" transform="translate(666.786 2326)" fill="#fff"/>
  </g>
</svg>
