<svg id="icons8_carpet" xmlns="http://www.w3.org/2000/svg" width="26" height="21" viewBox="0 0 26 21">
  <g id="Groupe_137" data-name="Groupe 137">
    <path id="Tracé_6796" data-name="Tracé 6796" d="M5,13H28.524V26.588H5Z" transform="translate(-3.762 -9.294)" fill="#880e4f"/>
    <path id="Tracé_6797" data-name="Tracé 6797" d="M7,17H28.048v9.882H7Z" transform="translate(-4.524 -10.824)" fill="#c2185b"/>
    <path id="Tracé_6798" data-name="Tracé 6798" d="M8.857,16.235H26.19v8.029H8.857ZM28.048,15H26.19v1.235h1.857ZM8.857,15H7v1.235H8.857Z" transform="translate(-4.524 -10.059)" fill="#ad1457"/>
    <path id="Tracé_6799" data-name="Tracé 6799" d="M12,17H26.857v6.794H12Z" transform="translate(-6.428 -10.824)" fill="#f50057"/>
    <path id="Tracé_6800" data-name="Tracé 6800" d="M24.19,37h0a.665.665,0,0,1,.619.618v1.853H23.571V37.618A.665.665,0,0,1,24.19,37Zm-2.476.618v1.853h1.238V37.618A.665.665,0,0,0,22.333,37h0A.665.665,0,0,0,21.714,37.618Zm-1.857,0v1.853H21.1V37.618A.62.62,0,0,0,20.476,37h0A.62.62,0,0,0,19.857,37.618Zm7.429,0v1.853h1.238V37.618A.665.665,0,0,0,27.9,37h0A.62.62,0,0,0,27.286,37.618Zm-1.857,0v1.853h1.238V37.618A.665.665,0,0,0,26.048,37h0A.62.62,0,0,0,25.429,37.618Zm-7.429,0v1.853h1.238V37.618A.62.62,0,0,0,18.619,37h0A.62.62,0,0,0,18,37.618Zm-1.857,0v1.853h1.238V37.618A.62.62,0,0,0,16.762,37h0A.62.62,0,0,0,16.143,37.618Zm-1.857,0v1.853h1.238V37.618A.62.62,0,0,0,14.9,37h0A.62.62,0,0,0,14.286,37.618Zm-1.857,0v1.853h1.238V37.618A.62.62,0,0,0,13.048,37h0A.62.62,0,0,0,12.429,37.618Zm-1.857,0v1.853H11.81V37.618A.62.62,0,0,0,11.19,37h0A.62.62,0,0,0,10.571,37.618Zm-1.857,0v1.853H9.952V37.618A.62.62,0,0,0,9.333,37h0A.62.62,0,0,0,8.714,37.618Zm-1.857,0v1.853H8.1V37.618A.62.62,0,0,0,7.476,37h0A.62.62,0,0,0,6.857,37.618ZM5,37.618v1.853H6.238V37.618A.62.62,0,0,0,5.619,37h0A.62.62,0,0,0,5,37.618Z" transform="translate(-3.762 -18.471)" fill="#ffe082"/>
    <path id="Tracé_6801" data-name="Tracé 6801" d="M22.81,24.912a.619.619,0,1,1,.619.618A.584.584,0,0,1,22.81,24.912Zm-1.238.618a.618.618,0,1,0-.619-.618A.584.584,0,0,0,21.571,25.529Zm-1.857,0a.618.618,0,1,0-.619-.618A.584.584,0,0,0,19.714,25.529Zm7.429,0a.618.618,0,1,0-.619-.618A.584.584,0,0,0,27.143,25.529Zm-1.857,0a.618.618,0,1,0-.619-.618A.584.584,0,0,0,25.286,25.529Zm-7.429,0a.618.618,0,1,0-.619-.618A.584.584,0,0,0,17.857,25.529Zm-1.857,0a.618.618,0,1,0-.619-.618A.584.584,0,0,0,16,25.529Zm-1.857,0a.618.618,0,1,0-.619-.618A.584.584,0,0,0,14.143,25.529Zm-1.857,0a.618.618,0,1,0-.619-.618A.584.584,0,0,0,12.286,25.529Zm-1.857,0a.618.618,0,1,0-.619-.618A.584.584,0,0,0,10.429,25.529Zm-1.857,0a.618.618,0,1,0-.619-.618A.584.584,0,0,0,8.571,25.529Zm-1.857,0a.618.618,0,1,0,0-1.235.618.618,0,1,0,0,1.235Zm-1.857,0a.618.618,0,1,0,0-1.235.618.618,0,1,0,0,1.235ZM29,9.471C29,7.371,28.381,7,28.381,7H3.619S3,7.432,3,9.471s.619,2.471.619,2.471H28.381S29,11.571,29,9.471Z" transform="translate(-3 -7)" fill="#ffca28"/>
    <path id="Tracé_6802" data-name="Tracé 6802" d="M26.19,7h1.486a6.063,6.063,0,0,1,.371,2.471,7.376,7.376,0,0,1-.371,2.471H26.19s.619-.371.619-2.471S26.19,7,26.19,7ZM8.238,9.471C8.238,7.432,8.857,7,8.857,7H7.371A7.376,7.376,0,0,0,7,9.471a7.376,7.376,0,0,0,.371,2.471H8.857S8.238,11.509,8.238,9.471Z" transform="translate(-4.524 -7)" fill="#ffb74d"/>
    <path id="Tracé_6803" data-name="Tracé 6803" d="M29.014,13H3.2c.124.988.5,1.235.5,1.235H28.457S28.829,13.988,29.014,13Z" transform="translate(-3.076 -9.294)" fill="#ffa726"/>
    <path id="Tracé_6804" data-name="Tracé 6804" d="M12,15H26.857v1.235H12Z" transform="translate(-6.428 -10.059)" fill="#d81b60"/>
    <path id="Tracé_6805" data-name="Tracé 6805" d="M24.414,17l-3.652,4.015L17.11,17H15.5l5.262,5.868L26.024,17Z" transform="translate(-7.762 -10.824)" fill="#ff4081"/>
  </g>
</svg>
