<svg id="icons8_bed" xmlns="http://www.w3.org/2000/svg" xmlns:xlink="http://www.w3.org/1999/xlink" width="29" height="25" viewBox="0 0 29 25">
  <defs>
    <linearGradient id="linear-gradient" x1="0.5" x2="0.5" y2="1" gradientUnits="objectBoundingBox">
      <stop offset="0" stop-color="#5493ff"/>
      <stop offset="1" stop-color="#2153a8"/>
    </linearGradient>
  </defs>
  <g id="Groupe_135" data-name="Groupe 135">
    <path id="Tracé_6786" data-name="Tracé 6786" d="M30.3,17.825a2.032,2.032,0,0,1-1.972,2.087H5.972A2.032,2.032,0,0,1,4,17.825V8.087A2.032,2.032,0,0,1,5.972,6H28.324A2.032,2.032,0,0,1,30.3,8.087Z" transform="translate(-2.648 -6)" fill="url(#linear-gradient)"/>
    <path id="Tracé_6787" data-name="Tracé 6787" d="M28.888,17.956V12.841a.626.626,0,0,0-.2-.462C28.539,12.238,27.3,11,24.012,11s-4.567,1.238-4.719,1.379a.63.63,0,0,0-.2.462v3.723ZM8,17.956V12.841a.626.626,0,0,1,.2-.462C8.349,12.238,9.591,11,12.875,11s4.567,1.238,4.719,1.379a.629.629,0,0,1,.2.462v3.723Z" transform="translate(-3.944 -7.522)" fill="#c8deff"/>
    <path id="Tracé_6788" data-name="Tracé 6788" d="M31,38.651H27.045V37.1c0-.865-.29-1.226-1.111-1.226H7.065c-.821,0-1.111.362-1.111,1.226v1.556H2V31H31Z" transform="translate(-2 -13.651)" fill="#ff9800"/>
    <path id="Tracé_6789" data-name="Tracé 6789" d="M31,28.161H2v-.7C2,19.82,4.143,17.1,16.188,17.1,27.678,17.1,31,19.429,31,27.465Z" transform="translate(-2 -9.403)" fill="#7395cf"/>
    <path id="Tracé_6790" data-name="Tracé 6790" d="M2,32H31v1.391H2Z" transform="translate(-2 -13.946)" fill="#ef6c00"/>
  </g>
</svg>
