<svg id="icons8_wing_chair" xmlns="http://www.w3.org/2000/svg" xmlns:xlink="http://www.w3.org/1999/xlink" width="25.194" height="25.194" viewBox="0 0 25.194 25.194">
  <defs>
    <linearGradient id="linear-gradient" x1="0.5" x2="0.5" y2="1" gradientUnits="objectBoundingBox">
      <stop offset="0" stop-color="#ff2121"/>
      <stop offset="1" stop-color="#cb0000"/>
    </linearGradient>
  </defs>
  <g id="Groupe_136" data-name="Groupe 136" transform="translate(0 0)">
    <path id="Tracé_6814" data-name="Tracé 6814" d="M23,34h1.326v3.978H23Z" transform="translate(-11.066 -14.773)" fill="#9fa8da"/>
    <path id="Tracé_6815" data-name="Tracé 6815" d="M27.586,41.652c0-1.465-3.265-2.652-7.293-2.652S13,40.187,13,41.652Z" transform="translate(-7.696 -16.458)" fill="#c5cae9"/>
    <path id="Tracé_6816" data-name="Tracé 6816" d="M19.282,19.586h-5.3c0-2.735-3.978-5.221-3.978-9.945S19.282,5,19.282,5s9.282-.083,9.282,4.641-3.978,7.21-3.978,9.945Z" transform="translate(-6.685 -5)" fill="url(#linear-gradient)"/>
    <path id="Tracé_6817" data-name="Tracé 6817" d="M10.663,10.967c0-4.049,8.619-3.978,8.619-3.978S27.9,6.918,27.9,10.967a9.3,9.3,0,0,1-.51,3.009,9.032,9.032,0,0,0,1.173-4.335C28.564,4.917,19.282,5,19.282,5S10,4.917,10,9.641a9.032,9.032,0,0,0,1.173,4.335A9.3,9.3,0,0,1,10.663,10.967Z" transform="translate(-6.685 -5)" fill="#ff4e4e"/>
    <path id="Tracé_6818" data-name="Tracé 6818" d="M30.178,20.742a1.974,1.974,0,0,0-.752-1.323,1.989,1.989,0,0,0-2.792.348l-1.779,2.269-.815,1.046a1.435,1.435,0,0,1-1.14.558H12.293a1.437,1.437,0,0,1-1.14-.558l-.815-1.046L8.558,19.768A1.977,1.977,0,0,0,6.988,19a1.989,1.989,0,0,0-1.973,1.742,1.976,1.976,0,0,0,.4,1.469l3.61,4.642a5.389,5.389,0,0,0,4.279,2.092h8.576a5.391,5.391,0,0,0,4.28-2.092l3.61-4.642A1.979,1.979,0,0,0,30.178,20.742Z" transform="translate(-5 -9.718)" fill="#b71c1c"/>
    <path id="Tracé_6819" data-name="Tracé 6819" d="M30.178,20.742a1.974,1.974,0,0,0-.752-1.323,1.989,1.989,0,0,0-2.792.348l-3.609,4.642a1.439,1.439,0,0,1-1.14.558H13.308a1.437,1.437,0,0,1-1.14-.558L8.559,19.768A1.989,1.989,0,1,0,5.42,22.211l3.61,4.642a5.389,5.389,0,0,0,4.279,2.092h8.576a5.391,5.391,0,0,0,4.28-2.092l3.61-4.642A1.979,1.979,0,0,0,30.178,20.742Z" transform="translate(-5 -9.718)" fill="#ff4b4b"/>
  </g>
</svg>
