<svg id="icons8_open_curtains" xmlns="http://www.w3.org/2000/svg" width="25.662" height="22.162" viewBox="0 0 25.662 22.162">
  <g id="Groupe_138" data-name="Groupe 138">
    <path id="Tracé_6806" data-name="Tracé 6806" d="M4.333,6.166A1.166,1.166,0,1,1,3.166,5,1.17,1.17,0,0,1,4.333,6.166ZM26.5,5a1.166,1.166,0,1,0,1.166,1.166A1.17,1.17,0,0,0,26.5,5Z" transform="translate(-2 -5)" fill="#4e342e"/>
    <path id="Tracé_6807" data-name="Tracé 6807" d="M3.583,7.166H26.912a.584.584,0,0,0,.583-.583h0A.627.627,0,0,0,26.912,6H3.583A.551.551,0,0,0,3,6.583H3A.551.551,0,0,0,3.583,7.166Z" transform="translate(-2.417 -5.417)" fill="#6d4c41"/>
    <path id="Tracé_6808" data-name="Tracé 6808" d="M26.829,8V28.413h-1a1.52,1.52,0,0,1-1-.583,1.7,1.7,0,0,1-1,.583h-1a1.7,1.7,0,0,1-1-.583s-.548.583-1,.583h-1V8H21v.292a.875.875,0,1,0,1.75,0V8h1.166v.292a.875.875,0,1,0,1.75,0V8ZM14,8V28.413H13a1.52,1.52,0,0,1-1-.583,1.7,1.7,0,0,1-1,.583H10a1.7,1.7,0,0,1-1-.583s-.548.583-1,.583H7V8H8.166v.292a.875.875,0,1,0,1.75,0V8h1.166v.292a.875.875,0,1,0,1.75,0V8Z" transform="translate(-4.084 -6.25)" fill="#7db1ff"/>
    <path id="Tracé_6809" data-name="Tracé 6809" d="M8.166,5.583V27.162H7V5.583a.583.583,0,0,1,1.166,0ZM10.5,5a.551.551,0,0,0-.583.583V27.162h1.166V5.583A.551.551,0,0,0,10.5,5Zm2.916,0a.551.551,0,0,0-.583.583V27.162H14V5.583A.551.551,0,0,0,13.415,5Zm7,0a.551.551,0,0,0-.583.583V27.162H21V5.583A.551.551,0,0,0,20.414,5ZM23.33,5a.551.551,0,0,0-.583.583V27.162h1.166V5.583A.551.551,0,0,0,23.33,5Zm2.916,0a.551.551,0,0,0-.583.583V27.162h1.166V5.583A.551.551,0,0,0,26.246,5Z" transform="translate(-4.084 -5)" fill="#a2c7ff"/>
  </g>
</svg>
