<svg id="icons8_virus_free" xmlns="http://www.w3.org/2000/svg" xmlns:xlink="http://www.w3.org/1999/xlink" width="55" height="55" viewBox="0 0 53.442 53.443">
  <defs>
    <linearGradient id="linear-gradient" x1="0.5" y1="5.778" x2="0.5" y2="7.028" gradientUnits="objectBoundingBox">
      <stop offset="0" stop-color="#21ad64"/>
      <stop offset="1" stop-color="#088242"/>
    </linearGradient>
  </defs>
  <path id="Tracé_6099" data-name="Tracé 6099" d="M19.937,20.855a1.9,1.9,0,0,0-.814-.111,9.6,9.6,0,0,1-2.829-.51,7.969,7.969,0,0,1-3.8-2.976l0,.006A4.036,4.036,0,0,0,10.27,15.2a3.822,3.822,0,0,0-2.678,7.159,4.023,4.023,0,0,0,3.065-.12,7.961,7.961,0,0,1,4.743.262,9.109,9.109,0,0,1,2.581,1.573l.006-.017a1.911,1.911,0,1,0,1.95-3.206Z" transform="translate(-2.423 0.254)" fill="#185c37"/>
  <path id="Tracé_6100" data-name="Tracé 6100" d="M14.891,22.416a4.34,4.34,0,0,0-.56-.382,11.889,11.889,0,0,1,1.006-2.624c.229.025.446.064.662.076a4.877,4.877,0,0,0,.6.038,1.814,1.814,0,0,1,.815.115,1.911,1.911,0,0,1-1.338,3.58,1.776,1.776,0,0,1-.611-.382l-.013.025A5.068,5.068,0,0,0,14.891,22.416Z" transform="translate(0.085 1.468)" opacity="0.05"/>
  <path id="Tracé_6101" data-name="Tracé 6101" d="M15.33,22.846a5.069,5.069,0,0,0-.56-.446,12.3,12.3,0,0,1,1.108-2.93,4.877,4.877,0,0,0,.6.038,1.814,1.814,0,0,1,.815.115,1.911,1.911,0,0,1-1.338,3.58,1.776,1.776,0,0,1-.611-.382Z" transform="translate(0.205 1.485)" opacity="0.07"/>
  <path id="Tracé_6102" data-name="Tracé 6102" d="M22.367,26.7c-.282-1.38-1.274-2.34-2.219-2.148a1.331,1.331,0,0,0-.735.46l-.011-.054a5.327,5.327,0,0,1-2.354,1.163,5.826,5.826,0,0,1-4.408-1.013,5.278,5.278,0,0,0-4-.814,5.1,5.1,0,0,0,2.032,9.986,5.277,5.277,0,0,0,3.311-2.231l.028-.01a5.866,5.866,0,0,1,3.727-2.74,5.3,5.3,0,0,1,2.581.139l-.006-.029a1.332,1.332,0,0,0,.856.136C22.11,29.35,22.647,28.077,22.367,26.7Z" transform="translate(-2.574 2.765)" fill="#4ddb63"/>
  <path id="Tracé_6103" data-name="Tracé 6103" d="M18.532,29.469a1.348,1.348,0,0,1-.853-.127l.013.025a5.359,5.359,0,0,0-1.9-.229,3.793,3.793,0,0,0-.65.089,12.421,12.421,0,0,1-.994-3.146,1.932,1.932,0,0,0,.268-.038,1.877,1.877,0,0,0,.357-.1,5.143,5.143,0,0,0,2-1.057l.013.051a1.378,1.378,0,0,1,.739-.459c.943-.191,1.936.777,2.217,2.153S19.487,29.278,18.532,29.469Z" transform="translate(0.035 2.84)" opacity="0.05"/>
  <path id="Tracé_6104" data-name="Tracé 6104" d="M18.4,29.469a1.348,1.348,0,0,1-.853-.127l.013.025a5.359,5.359,0,0,0-1.9-.229,11.87,11.87,0,0,1-1.019-3.2,5.143,5.143,0,0,0,2-1.057l.013.051a1.378,1.378,0,0,1,.739-.459c.943-.191,1.936.777,2.217,2.153S19.353,29.278,18.4,29.469Z" transform="translate(0.169 2.84)" opacity="0.07"/>
  <path id="Tracé_6105" data-name="Tracé 6105" d="M22.347,26.664c-.264-1.382-1.246-2.355-2.192-2.176a1.326,1.326,0,0,0-.74.451l-.01-.054a5.325,5.325,0,0,1-2.368,1.134,5.829,5.829,0,0,1-4.395-1.066,5.284,5.284,0,0,0-3.994-.864A5.1,5.1,0,0,0,10.559,34.1,5.273,5.273,0,0,0,13.9,31.91l.028-.01a5.861,5.861,0,0,1,3.76-2.694,5.3,5.3,0,0,1,2.578.169l-.006-.029a1.323,1.323,0,0,0,.855.146C22.057,29.312,22.611,28.046,22.347,26.664Z" transform="translate(-2.587 2.713)" fill="#4ddb63"/>
  <path id="Tracé_6106" data-name="Tracé 6106" d="M18.47,29.392a1.349,1.349,0,0,1-.852-.138l.013.025a5.354,5.354,0,0,0-1.9-.252,3.806,3.806,0,0,0-.651.082,12.435,12.435,0,0,1-.955-3.158,1.921,1.921,0,0,0,.268-.034,1.9,1.9,0,0,0,.358-.1,5.15,5.15,0,0,0,2.013-1.033l.011.051a1.378,1.378,0,0,1,.744-.45c.945-.18,1.926.8,2.19,2.18S19.428,29.213,18.47,29.392Z" transform="translate(0.03 2.816)" opacity="0.05"/>
  <path id="Tracé_6107" data-name="Tracé 6107" d="M18.336,29.392a1.349,1.349,0,0,1-.852-.138l.013.025a5.354,5.354,0,0,0-1.9-.252,11.885,11.885,0,0,1-.98-3.21,5.15,5.15,0,0,0,2.013-1.033l.011.051a1.378,1.378,0,0,1,.744-.45c.945-.18,1.926.8,2.19,2.18S19.294,29.214,18.336,29.392Z" transform="translate(0.164 2.816)" opacity="0.07"/>
  <path id="Tracé_6108" data-name="Tracé 6108" d="M20.775,39.572l.018.011a5.862,5.862,0,0,1,.7-4.316,6.306,6.306,0,0,1,1.837-1.813,1.316,1.316,0,0,0,.552-.483,2.013,2.013,0,0,0-1-2.6A2.012,2.012,0,0,0,20.1,30.6a1.351,1.351,0,0,0-.189.8l-.022-.013a5.51,5.51,0,0,1-.792,2.335,5.846,5.846,0,0,1-3.513,2.485,4.668,4.668,0,0,0-2.931,2.071,4.459,4.459,0,0,0,7.554,4.739A4.59,4.59,0,0,0,20.775,39.572Z" transform="translate(-0.559 4.317)" fill="#31c447"/>
  <path id="Tracé_6109" data-name="Tracé 6109" d="M22.234,32.969a1.264,1.264,0,0,1-.549.485l-.339.238a6.041,6.041,0,0,0-.536.459,12.035,12.035,0,0,1-2.817-1.6,5.5,5.5,0,0,0,.175-.666c.034-.167.056-.332.076-.5l.025.013a1.314,1.314,0,0,1,.185-.795,2.017,2.017,0,0,1,2.785-.233A2.011,2.011,0,0,1,22.234,32.969Z" transform="translate(1.082 4.336)" opacity="0.05"/>
  <path id="Tracé_6110" data-name="Tracé 6110" d="M22.2,32.969a1.264,1.264,0,0,1-.549.485l-.339.238a11.982,11.982,0,0,1-3.178-1.808c.034-.167.056-.332.076-.5l.025.013a1.314,1.314,0,0,1,.185-.795,2.017,2.017,0,0,1,2.785-.233A2.011,2.011,0,0,1,22.2,32.969Z" transform="translate(1.12 4.336)" opacity="0.07"/>
  <path id="Tracé_6111" data-name="Tracé 6111" d="M25.124,18.544a1.322,1.322,0,0,0-.389-.568l.036-.014a6.1,6.1,0,0,1-1.473-2.21,5.739,5.739,0,0,1,.326-4.317,4.5,4.5,0,0,0,.265-3.517A4.588,4.588,0,0,0,18.115,5.1a4.436,4.436,0,0,0-2.879,5.643,4.616,4.616,0,0,0,2.325,2.62,6.154,6.154,0,0,1,2.988,3.324,6.83,6.83,0,0,1,.218,2.557,1.29,1.29,0,0,0,.031.712,2.08,2.08,0,0,0,2.707.88C24.7,20.449,25.423,19.421,25.124,18.544Z" transform="translate(0.265 -2.488)" fill="#31c447"/>
  <path id="Tracé_6112" data-name="Tracé 6112" d="M23.892,15.966c.294.876-.427,1.915-1.622,2.307a2.093,2.093,0,0,1-2.706-.882,1.325,1.325,0,0,1-.032-.713c.011-.191.036-.4.034-.606a6.066,6.066,0,0,0-.019-.68,12.309,12.309,0,0,1,3.066-1.122c.132.19.278.38.409.557a7.377,7.377,0,0,0,.513.557l-.039.025A1.32,1.32,0,0,1,23.892,15.966Z" transform="translate(1.492 0.068)" opacity="0.05"/>
  <path id="Tracé_6113" data-name="Tracé 6113" d="M23.892,15.846c.294.876-.427,1.915-1.622,2.307a2.093,2.093,0,0,1-2.706-.882,1.325,1.325,0,0,1-.032-.713c.011-.191.036-.4.034-.606a12.7,12.7,0,0,1,3.456-1.246,7.377,7.377,0,0,0,.513.557l-.039.025A1.32,1.32,0,0,1,23.892,15.846Z" transform="translate(1.492 0.187)" opacity="0.07"/>
  <path id="Tracé_6114" data-name="Tracé 6114" d="M31.631,42.49a3.968,3.968,0,0,0-1.774-2.507A7.975,7.975,0,0,1,27.3,33.072l-.022,0a1.911,1.911,0,1,0-3.311.717,9.7,9.7,0,0,1,1.1,2.645,7.971,7.971,0,0,1-.392,4.814l.024-.005a3.878,3.878,0,0,0-.522,2.95,3.822,3.822,0,1,0,7.451-1.707Z" transform="translate(2.587 4.517)" fill="#185c37"/>
  <path id="Tracé_6115" data-name="Tracé 6115" d="M27.275,33.079l.025-.013c-.032.256-.051.524-.057.791a5.541,5.541,0,0,0,.017.662,12.753,12.753,0,0,1-2.717.385c-.094-.214-.2-.428-.308-.629-.08-.163-.173-.327-.266-.478a1.96,1.96,0,0,1-.389-.781A1.911,1.911,0,0,1,27.3,32.16,1.877,1.877,0,0,1,27.275,33.079Z" transform="translate(2.59 4.535)" opacity="0.05"/>
  <path id="Tracé_6116" data-name="Tracé 6116" d="M27.276,33.079l.025-.013c-.032.256-.051.524-.057.791a11.491,11.491,0,0,1-2.819.413l-.191.005c-.08-.163-.173-.327-.266-.478a1.96,1.96,0,0,1-.389-.781A1.911,1.911,0,0,1,27.3,32.16,1.862,1.862,0,0,1,27.276,33.079Z" transform="translate(2.59 4.536)" opacity="0.07"/>
  <path id="Tracé_6117" data-name="Tracé 6117" d="M36.127,12.213a5.1,5.1,0,1,0-9.393.12l-.006.028a5.861,5.861,0,0,1,.227,4.62,5.314,5.314,0,0,1-1.539,2.075l.028.011a1.321,1.321,0,0,0-.586.638c-.362.894.4,2.046,1.708,2.573s2.655.229,3.017-.665a1.317,1.317,0,0,0,.022-.866l.051.02a5.327,5.327,0,0,1,.33-2.606,5.848,5.848,0,0,1,3.327-3.143A5.069,5.069,0,0,0,36.127,12.213Z" transform="translate(2.921 -2.396)" fill="#4ddb63"/>
  <path id="Tracé_6118" data-name="Tracé 6118" d="M26.567,19.783c-1.313-.526-2.07-1.679-1.711-2.581a1.344,1.344,0,0,1,.582-.639l-.025-.011a5.173,5.173,0,0,0,1.334-1.641,3.323,3.323,0,0,0,.205-.425c.024-.051.036-.1.06-.154a11.824,11.824,0,0,1,3.027,1.22c-.011.038-.036.078-.048.116a4.872,4.872,0,0,0-.166.476,5.4,5.4,0,0,0-.173,2.132l-.052-.024a1.347,1.347,0,0,1-.015.868C29.223,20.007,27.868,20.309,26.567,19.783Z" transform="translate(2.926 0.085)" opacity="0.05"/>
  <path id="Tracé_6119" data-name="Tracé 6119" d="M26.567,19.659c-1.313-.526-2.07-1.679-1.711-2.581a1.344,1.344,0,0,1,.582-.639l-.025-.011a5.173,5.173,0,0,0,1.334-1.641,12.746,12.746,0,0,1,3.078,1.232,5.4,5.4,0,0,0-.173,2.132l-.052-.024a1.347,1.347,0,0,1-.015.868C29.223,19.883,27.868,20.185,26.567,19.659Z" transform="translate(2.927 0.208)" opacity="0.07"/>
  <path id="Tracé_6120" data-name="Tracé 6120" d="M41.357,33.451a5.166,5.166,0,0,0-3.748-1.284l-.018-.011a5.857,5.857,0,0,1-4.433-1.327A5.3,5.3,0,0,1,31.7,28.644l-.037.041a1.33,1.33,0,0,0-.406-.767c-.722-.639-2.064-.3-3,.752s-1.1,2.425-.381,3.065a1.325,1.325,0,0,0,.809.31l-.02.023a5.321,5.321,0,0,1,2.3,1.171,5.865,5.865,0,0,1,1.857,4.232A5.249,5.249,0,0,0,34.6,41.084a5.1,5.1,0,0,0,6.755-7.633Z" transform="translate(3.631 3.675)" fill="#4ddb63"/>
  <path id="Tracé_6121" data-name="Tracé 6121" d="M32.69,30.353a4.907,4.907,0,0,0,.446.446,13.311,13.311,0,0,1-2.318,2.318,2.877,2.877,0,0,0-.522-.382,5.316,5.316,0,0,0-1.618-.675l.013-.013a1.288,1.288,0,0,1-.8-.318c-.726-.637-.561-2,.369-3.057s2.28-1.389,3.006-.752a1.359,1.359,0,0,1,.408.764l.025-.038A5.562,5.562,0,0,0,32.69,30.353Z" transform="translate(3.652 3.696)" opacity="0.05"/>
  <path id="Tracé_6122" data-name="Tracé 6122" d="M31.7,28.646a5.562,5.562,0,0,0,.994,1.707,13.249,13.249,0,0,1-2.395,2.382,5.316,5.316,0,0,0-1.618-.675l.013-.013a1.288,1.288,0,0,1-.8-.318c-.726-.637-.56-2,.369-3.057s2.28-1.389,3.006-.752a1.359,1.359,0,0,1,.408.764Z" transform="translate(3.653 3.697)" opacity="0.07"/>
  <path id="Tracé_6123" data-name="Tracé 6123" d="M44.03,13.839A3.813,3.813,0,0,0,37.054,15.1a7.954,7.954,0,0,1-3.094,3.6,9.9,9.9,0,0,1-2.825,1.108,1.887,1.887,0,0,0-.653.252,1.911,1.911,0,1,0,2.586,2.7,8.332,8.332,0,0,1,4.465-2.949,7.741,7.741,0,0,1,2.791-.173,3.752,3.752,0,0,0,2.5-.538A3.824,3.824,0,0,0,44.03,13.839Z" transform="translate(4.219 -0.541)" fill="#185c37"/>
  <path id="Tracé_6124" data-name="Tracé 6124" d="M29.872,21.12a1.912,1.912,0,0,1,.614-2.642,1.748,1.748,0,0,1,.647-.247l-.013-.025c.229-.054.457-.106.712-.172a6.366,6.366,0,0,0,.647-.222,12.268,12.268,0,0,1,1.487,2.408,5.471,5.471,0,0,0-.468.475c-.164.167-.3.334-.429.488a1.918,1.918,0,0,1-3.2-.062Z" transform="translate(4.237 1.033)" opacity="0.05"/>
  <path id="Tracé_6125" data-name="Tracé 6125" d="M29.872,21.073a1.912,1.912,0,0,1,.614-2.642,1.748,1.748,0,0,1,.647-.247l-.013-.025c.229-.054.457-.106.712-.172A11.684,11.684,0,0,1,33.5,20.647c-.164.167-.3.334-.429.488a1.918,1.918,0,0,1-3.2-.062Z" transform="translate(4.237 1.08)" opacity="0.07"/>
  <path id="Tracé_6126" data-name="Tracé 6126" d="M47.473,25.738a4.444,4.444,0,0,0-7.551-3.453,5.818,5.818,0,0,1-3.971,1.343,6.52,6.52,0,0,1-2.6-.853V22.8a1.29,1.29,0,0,0-.559-.175c-.922-.057-1.734.894-1.808,2.122a2.014,2.014,0,0,0,1.535,2.327,1.357,1.357,0,0,0,.792-.218v.025a5.48,5.48,0,0,1,2.429-.42,5.874,5.874,0,0,1,3.916,1.941v-.019a4.454,4.454,0,0,0,7.815-2.65Z" transform="translate(4.602 1.9)" fill="#31c447"/>
  <path id="Tracé_6127" data-name="Tracé 6127" d="M34.828,24.472a12.155,12.155,0,0,1-.115,1.681,4.094,4.094,0,0,0-.662.14,4.169,4.169,0,0,0-.739.242V26.51a1.348,1.348,0,0,1-.79.217c-.917-.051-1.605-1.1-1.541-2.331s.892-2.178,1.809-2.115a1.212,1.212,0,0,1,.561.178v-.038a5.5,5.5,0,0,0,.726.357c.217.089.433.178.662.255A10.785,10.785,0,0,1,34.828,24.472Z" transform="translate(4.618 2.249)" opacity="0.05"/>
  <path id="Tracé_6128" data-name="Tracé 6128" d="M34.191,24.472a12.4,12.4,0,0,1-.14,1.822,4.169,4.169,0,0,0-.739.242V26.51a1.348,1.348,0,0,1-.79.217c-.917-.051-1.605-1.1-1.541-2.331s.892-2.178,1.809-2.115a1.212,1.212,0,0,1,.561.178v-.038a5.5,5.5,0,0,0,.726.357A12.477,12.477,0,0,1,34.191,24.472Z" transform="translate(4.619 2.249)" opacity="0.07"/>
  <path id="Tracé_6129" data-name="Tracé 6129" d="M26.465,15A11.465,11.465,0,1,0,37.93,26.465,11.464,11.464,0,0,0,26.465,15Z" transform="translate(0.256 0.255)" fill="url(#linear-gradient)"/>
  <path id="Tracé_6130" data-name="Tracé 6130" d="M21.822,25.643a3.822,3.822,0,1,1,3.822-3.822A3.832,3.832,0,0,1,21.822,25.643Z" transform="translate(1.082 1.082)" fill="#4ddb63"/>
  <path id="Tracé_6131" data-name="Tracé 6131" d="M26.185,31.369a3.185,3.185,0,1,1,3.185-3.185A3.193,3.193,0,0,1,26.185,31.369Z" transform="translate(2.444 2.988)" fill="#31c447"/>
  <path id="Tracé_6132" data-name="Tracé 6132" d="M56.3,53.559,5.883,3.142a.485.485,0,0,0-.686,0L3.142,5.2a.485.485,0,0,0,0,.686L53.559,56.3a.485.485,0,0,0,.686,0L56.3,54.245A.486.486,0,0,0,56.3,53.559Z" transform="translate(-3 -3)" fill="#e52030"/>
</svg>
