<svg id="Super_Ménage_icon" data-name="Super Ménage icon" xmlns="http://www.w3.org/2000/svg" xmlns:xlink="http://www.w3.org/1999/xlink" width="55" height="55" viewBox="0 0 149 149">
  <defs>
    <linearGradient id="linear-gradient" x1="0.5" y1="-0.015" x2="0.5" y2="1.033" gradientUnits="objectBoundingBox">
      <stop offset="0" stop-color="#7395cf"/>
      <stop offset="1" stop-color="#3d5b8e"/>
    </linearGradient>
    <radialGradient id="radial-gradient" cx="0.5" cy="0.5" r="0.5" gradientUnits="objectBoundingBox">
      <stop offset="0" stop-color="#ffe299"/>
      <stop offset="0.396" stop-color="#fdcb4d"/>
      <stop offset="0.639" stop-color="#f7c13a"/>
      <stop offset="1" stop-color="#f0b421"/>
    </radialGradient>
    <linearGradient id="linear-gradient-2" x1="0.5" y1="0.011" x2="0.5" y2="1.011" gradientUnits="objectBoundingBox">
      <stop offset="0" stop-color="#eba600"/>
      <stop offset="1" stop-color="#c28200"/>
    </linearGradient>
    <linearGradient id="linear-gradient-3" x1="0.5" y1="0.965" x2="0.5" y2="-0.011" gradientUnits="objectBoundingBox">
      <stop offset="0" stop-color="#ffcf54"/>
      <stop offset="0.261" stop-color="#fdcb4d"/>
      <stop offset="0.639" stop-color="#f7c13a"/>
      <stop offset="1" stop-color="#f0b421"/>
    </linearGradient>
    <linearGradient id="linear-gradient-4" y1="0.992" y2="0.056" xlink:href="#linear-gradient-2"/>
    <linearGradient id="linear-gradient-5" y1="0.975" y2="0.048" xlink:href="#linear-gradient-2"/>
    <linearGradient id="linear-gradient-6" x1="0.434" y1="-0.186" x2="0.553" y2="1.542" gradientUnits="objectBoundingBox">
      <stop offset="0" stop-color="#0d61a9"/>
      <stop offset="1" stop-color="#16528c"/>
    </linearGradient>
  </defs>
  <g id="House" transform="translate(16.059 36.257)">
    <path id="Tracé_5751" data-name="Tracé 5751" d="M102.564,39H6v5.465a5.414,5.414,0,0,0,5.365,5.465H97.2a5.414,5.414,0,0,0,5.365-5.465Z" transform="translate(1.732 62.099)" fill="#a7a7a7"/>
    <path id="Tracé_5752" data-name="Tracé 5752" d="M102.564,101.367H6V49.451L54.282,3l48.282,46.451Z" transform="translate(1.732 -0.268)" fill="#ccc"/>
    <path id="Tracé_5753" data-name="Tracé 5753" d="M20.732,25H48.057a2.733,2.733,0,0,1,2.732,2.732V74.183H18V27.732A2.733,2.733,0,0,1,20.732,25Z" transform="translate(21.619 37.845)" fill="#3d5b8e"/>
    <path id="Tracé_5755" data-name="Tracé 5755" d="M54.282,4a5.3,5.3,0,0,0-3.557,1.374L36.351,18.52,6,47.719V62.446L54.282,18.832l48.282,43.615V47.719L72.213,18.52,57.839,5.374A5.3,5.3,0,0,0,54.282,4Z" transform="translate(1.732 1.465)" opacity="0.07"/>
    <path id="Tracé_5756" data-name="Tracé 5756" d="M54.282,3a5.314,5.314,0,0,0-3.557,1.366L36.351,17.438,6,46.47V61.113L54.282,17.747l48.282,43.366V46.47L72.213,17.438,57.839,4.366A5.314,5.314,0,0,0,54.282,3Z" transform="translate(1.732 -0.268)" opacity="0.09"/>
    <path id="Tracé_5757" data-name="Tracé 5757" d="M114.3,49.836,62.75,3.374a5.313,5.313,0,0,0-7.132,0L4.071,49.836A2.759,2.759,0,0,0,3.9,53.744l4.4,4.768a2.658,2.658,0,0,0,3.738.183L59.185,16.832,106.333,58.7a2.66,2.66,0,0,0,3.738-.183l4.4-4.768A2.763,2.763,0,0,0,114.3,49.836Z" transform="translate(-3.17 -2)" fill="url(#linear-gradient)"/>
  </g>
  <g id="Sparkle">
    <path id="Tracé_5801" data-name="Tracé 5801" d="M14.3,4.9h0a11.933,11.933,0,0,0,11.92,11.937h0A11.933,11.933,0,0,0,14.3,28.769h0A11.933,11.933,0,0,0,2.377,16.832h0A11.933,11.933,0,0,0,14.3,4.9Z" transform="translate(-2.377 -4.895)" fill="url(#radial-gradient)"/>
    <path id="Tracé_5813" data-name="Tracé 5813" d="M16.553,29.789h0a9.8,9.8,0,0,0,9.8,9.809h0a9.8,9.8,0,0,0-9.8,9.809h0a9.8,9.8,0,0,0-9.8-9.809h0a9.8,9.8,0,0,0,9.8-9.809Z" transform="translate(0.277 8.451)" fill="url(#radial-gradient)"/>
    <path id="Tracé_5826" data-name="Tracé 5826" d="M38.242,7.126h0C38.253,22.247,50.891,34.5,66.484,34.513h0c-15.592.01-28.23,12.264-28.242,27.384h0C38.23,46.777,25.592,34.524,10,34.513h0C25.593,34.5,38.231,22.247,38.242,7.126Z" transform="translate(1.503 -3.538)" fill="url(#radial-gradient)"/>
  </g>
  <g id="Broom" transform="translate(91.74 78.624)">
    <path id="Tracé_5827" data-name="Tracé 5827" d="M30.6,29.831H21V5.805A4.8,4.8,0,0,1,25.8,1h0a4.8,4.8,0,0,1,4.8,4.805Z" transform="translate(2.832 -1)" fill="url(#linear-gradient-2)"/>
    <rect id="Rectangle_372" data-name="Rectangle 372" width="9.144" height="9.158" transform="translate(24.225 19.679)" fill="#16528c"/>
    <path id="Tracé_5828" data-name="Tracé 5828" d="M56.9,24H12.362A196.338,196.338,0,0,1,6,54.433a124.158,124.158,0,0,0,28.63,3.2,124.158,124.158,0,0,0,28.63-3.2A196.338,196.338,0,0,1,56.9,24Z" transform="translate(-6 12.74)" fill="url(#linear-gradient-3)"/>
    <path id="Tracé_5829" data-name="Tracé 5829" d="M19.6,51.263V34c-.753,6.034-2.893,12.341-4.259,16.892C16.685,51.031,18.115,51.156,19.6,51.263Z" transform="translate(-0.492 18.757)" fill="url(#linear-gradient-4)"/>
    <path id="Tracé_5830" data-name="Tracé 5830" d="M35.453,53.7A220.036,220.036,0,0,1,31,29V54.149C32.571,54.017,34.05,53.863,35.453,53.7Z" transform="translate(8.746 15.748)" fill="url(#linear-gradient-5)"/>
    <path id="Tracé_5831" data-name="Tracé 5831" d="M54.465,28.212H10V23.775a4.777,4.777,0,0,1,3.568-4.653A76.482,76.482,0,0,1,32.233,17,76.482,76.482,0,0,1,50.9,19.122a4.776,4.776,0,0,1,3.568,4.653Z" transform="translate(-3.602 8.584)" fill="url(#linear-gradient-6)"/>
  </g>
</svg>
