<svg id="icons8_cleaning_service" xmlns="http://www.w3.org/2000/svg" width="55" height="55" viewBox="0 0 59.245 59.004">
  <path id="Tracé_6751" data-name="Tracé 6751" d="M51.389,25.261s-18.764-18.679-18.7-18.7C24.878-.2,13.107.033,6.581,6.559s-7.269,16.874,0,26.105c-.1.065,18.7,18.7,18.7,18.7Z" transform="translate(-1.404 -1.578)" fill="#f9c2b1"/>
  <path id="Tracé_6752" data-name="Tracé 6752" d="M46.346,20.23,40.015,13.9a3.072,3.072,0,0,0-4.345,0L13.9,35.669a3.072,3.072,0,0,0,0,4.345l6.331,6.331a3.072,3.072,0,0,0,4.345,0l21.77-21.77A3.073,3.073,0,0,0,46.346,20.23Z" transform="translate(2.85 2.654)" fill="#212121"/>
  <path id="Tracé_6753" data-name="Tracé 6753" d="M48.764,22.648l-8.5-8.5L14.145,40.261l8.5,8.5a3.072,3.072,0,0,0,4.345,0l21.77-21.77A3.075,3.075,0,0,0,48.764,22.648Z" transform="translate(3.625 3.43)" fill="#424242"/>
  <path id="Tracé_6754" data-name="Tracé 6754" d="M23.018,32.046l-1.431-1.431a2.1,2.1,0,0,0-2.972,2.972l1.431,1.431a2.1,2.1,0,0,0,2.972,0h0A2.1,2.1,0,0,0,23.018,32.046Z" transform="translate(5.217 11.062)" fill="#9e9e9e"/>
  <path id="Tracé_6755" data-name="Tracé 6755" d="M24.371,35.5l-.871.871a1.487,1.487,0,0,1-2.105,0l-2.1-2.1L22.271,31.3l2.1,2.1A1.487,1.487,0,0,1,24.371,35.5Z" transform="translate(5.869 11.714)" fill="#757575"/>
  <path id="Tracé_6756" data-name="Tracé 6756" d="M27.291,31.972,44.466,49.147h1.751a2.987,2.987,0,0,0,2.975-2.981V44.507L31.974,27.291Z" transform="translate(10.053 9.857)" fill="#424242"/>
  <path id="Tracé_6757" data-name="Tracé 6757" d="M36.516,28.4s-8.712-6.633-11.73-3.615S28.4,36.517,28.4,36.517a3.019,3.019,0,0,0,4.267,0l3.847-3.847A3.016,3.016,0,0,0,36.516,28.4Z" transform="translate(8.288 8.093)" fill="#757575"/>
  <path id="Polygone_27" data-name="Polygone 27" d="M5.344.992a.3.3,0,0,1,.576,0l.933,3.214a.3.3,0,0,0,.2.2l3.214.933a.3.3,0,0,1,0,.576l-3.214.933a.3.3,0,0,0-.2.2L5.92,10.272a.3.3,0,0,1-.576,0L4.411,7.058a.3.3,0,0,0-.2-.2L.992,5.92a.3.3,0,0,1,0-.576l3.214-.933a.3.3,0,0,0,.2-.2Z" transform="translate(8.556 8.36)" fill="#fff"/>
  <path id="Polygone_28" data-name="Polygone 28" d="M3.187.662a.2.2,0,0,1,.384,0l.538,1.852a.2.2,0,0,0,.136.136L6.1,3.187a.2.2,0,0,1,0,.384l-1.852.538a.2.2,0,0,0-.136.136L3.571,6.1a.2.2,0,0,1-.384,0L2.65,4.245a.2.2,0,0,0-.136-.136L.662,3.571a.2.2,0,0,1,0-.384L2.513,2.65a.2.2,0,0,0,.136-.136Z" transform="translate(17.568 16.245)" fill="#fff"/>
</svg>
